ISO-10303-21;
HEADER;
FILE_DESCRIPTION(('Open CASCADE Model'),'2;1');
FILE_NAME('Open CASCADE Shape Model','2026-06-25T14:17:11',('Author'),(
    'Open CASCADE'),'Open CASCADE STEP processor 7.8','Open CASCADE 7.8'
  ,'Unknown');
FILE_SCHEMA(('AUTOMOTIVE_DESIGN { 1 0 10303 214 1 1 1 1 }'));
ENDSEC;
DATA;
#1 = APPLICATION_PROTOCOL_DEFINITION('international standard',
  'automotive_design',2000,#2);
#2 = APPLICATION_CONTEXT(
  'core data for automotive mechanical design processes');
#3 = SHAPE_DEFINITION_REPRESENTATION(#4,#10);
#4 = PRODUCT_DEFINITION_SHAPE('','',#5);
#5 = PRODUCT_DEFINITION('design','',#6,#9);
#6 = PRODUCT_DEFINITION_FORMATION('','',#7);
#7 = PRODUCT('Open CASCADE STEP translator 7.8 1',
  'Open CASCADE STEP translator 7.8 1','',(#8));
#8 = PRODUCT_CONTEXT('',#2,'mechanical');
#9 = PRODUCT_DEFINITION_CONTEXT('part definition',#2,'design');
#10 = ADVANCED_BREP_SHAPE_REPRESENTATION('',(#11,#15),#1357);
#11 = AXIS2_PLACEMENT_3D('',#12,#13,#14);
#12 = CARTESIAN_POINT('',(0.,0.,0.));
#13 = DIRECTION('',(0.,0.,1.));
#14 = DIRECTION('',(1.,0.,-0.));
#15 = MANIFOLD_SOLID_BREP('',#16);
#16 = CLOSED_SHELL('',(#17,#78,#1023,#1076,#1102,#1155,#1181,#1185,#1210
    ,#1235,#1292,#1349,#1353));
#17 = ADVANCED_FACE('',(#18),#32,.T.);
#18 = FACE_BOUND('',#19,.T.);
#19 = EDGE_LOOP('',(#20,#50,#77));
#20 = ORIENTED_EDGE('',*,*,#21,.T.);
#21 = EDGE_CURVE('',#22,#24,#26,.T.);
#22 = VERTEX_POINT('',#23);
#23 = CARTESIAN_POINT('',(0.,0.,0.));
#24 = VERTEX_POINT('',#25);
#25 = CARTESIAN_POINT('',(2.105E+03,0.,780.));
#26 = SEAM_CURVE('',#27,(#31,#43),.PCURVE_S1.);
#27 = LINE('',#28,#29);
#28 = CARTESIAN_POINT('',(0.,0.,0.));
#29 = VECTOR('',#30,1.);
#30 = DIRECTION('',(0.937695014782,0.,0.347459435406));
#31 = PCURVE('',#32,#37);
#32 = CONICAL_SURFACE('',#33,0.,1.215935959847);
#33 = AXIS2_PLACEMENT_3D('',#34,#35,#36);
#34 = CARTESIAN_POINT('',(0.,0.,0.));
#35 = DIRECTION('',(0.,0.,1.));
#36 = DIRECTION('',(1.,0.,-0.));
#37 = DEFINITIONAL_REPRESENTATION('',(#38),#42);
#38 = LINE('',#39,#40);
#39 = CARTESIAN_POINT('',(0.,0.));
#40 = VECTOR('',#41,1.);
#41 = DIRECTION('',(0.,1.));
#42 = ( GEOMETRIC_REPRESENTATION_CONTEXT(2) 
PARAMETRIC_REPRESENTATION_CONTEXT() REPRESENTATION_CONTEXT('2D SPACE',''
  ) );
#43 = PCURVE('',#32,#44);
#44 = DEFINITIONAL_REPRESENTATION('',(#45),#49);
#45 = LINE('',#46,#47);
#46 = CARTESIAN_POINT('',(6.28318530718,0.));
#47 = VECTOR('',#48,1.);
#48 = DIRECTION('',(0.,1.));
#49 = ( GEOMETRIC_REPRESENTATION_CONTEXT(2) 
PARAMETRIC_REPRESENTATION_CONTEXT() REPRESENTATION_CONTEXT('2D SPACE',''
  ) );
#50 = ORIENTED_EDGE('',*,*,#51,.F.);
#51 = EDGE_CURVE('',#24,#24,#52,.T.);
#52 = SURFACE_CURVE('',#53,(#58,#65),.PCURVE_S1.);
#53 = CIRCLE('',#54,2.105E+03);
#54 = AXIS2_PLACEMENT_3D('',#55,#56,#57);
#55 = CARTESIAN_POINT('',(0.,0.,780.));
#56 = DIRECTION('',(0.,0.,1.));
#57 = DIRECTION('',(1.,0.,-0.));
#58 = PCURVE('',#32,#59);
#59 = DEFINITIONAL_REPRESENTATION('',(#60),#64);
#60 = LINE('',#61,#62);
#61 = CARTESIAN_POINT('',(0.,780.));
#62 = VECTOR('',#63,1.);
#63 = DIRECTION('',(1.,0.));
#64 = ( GEOMETRIC_REPRESENTATION_CONTEXT(2) 
PARAMETRIC_REPRESENTATION_CONTEXT() REPRESENTATION_CONTEXT('2D SPACE',''
  ) );
#65 = PCURVE('',#66,#71);
#66 = CYLINDRICAL_SURFACE('',#67,2.105E+03);
#67 = AXIS2_PLACEMENT_3D('',#68,#69,#70);
#68 = CARTESIAN_POINT('',(0.,0.,780.));
#69 = DIRECTION('',(0.,0.,1.));
#70 = DIRECTION('',(1.,0.,-0.));
#71 = DEFINITIONAL_REPRESENTATION('',(#72),#76);
#72 = LINE('',#73,#74);
#73 = CARTESIAN_POINT('',(0.,0.));
#74 = VECTOR('',#75,1.);
#75 = DIRECTION('',(1.,0.));
#76 = ( GEOMETRIC_REPRESENTATION_CONTEXT(2) 
PARAMETRIC_REPRESENTATION_CONTEXT() REPRESENTATION_CONTEXT('2D SPACE',''
  ) );
#77 = ORIENTED_EDGE('',*,*,#21,.F.);
#78 = ADVANCED_FACE('',(#79),#66,.T.);
#79 = FACE_BOUND('',#80,.T.);
#80 = EDGE_LOOP('',(#81,#82,#105,#310,#333,#538,#561,#588,#589,#698,#805
    ,#806,#915,#1022));
#81 = ORIENTED_EDGE('',*,*,#51,.T.);
#82 = ORIENTED_EDGE('',*,*,#83,.T.);
#83 = EDGE_CURVE('',#24,#84,#86,.T.);
#84 = VERTEX_POINT('',#85);
#85 = CARTESIAN_POINT('',(2.105E+03,7.258585580074E-13,825.));
#86 = SEAM_CURVE('',#87,(#91,#98),.PCURVE_S1.);
#87 = LINE('',#88,#89);
#88 = CARTESIAN_POINT('',(2.105E+03,0.,780.));
#89 = VECTOR('',#90,1.);
#90 = DIRECTION('',(0.,0.,1.));
#91 = PCURVE('',#66,#92);
#92 = DEFINITIONAL_REPRESENTATION('',(#93),#97);
#93 = LINE('',#94,#95);
#94 = CARTESIAN_POINT('',(0.,0.));
#95 = VECTOR('',#96,1.);
#96 = DIRECTION('',(0.,1.));
#97 = ( GEOMETRIC_REPRESENTATION_CONTEXT(2) 
PARAMETRIC_REPRESENTATION_CONTEXT() REPRESENTATION_CONTEXT('2D SPACE',''
  ) );
#98 = PCURVE('',#66,#99);
#99 = DEFINITIONAL_REPRESENTATION('',(#100),#104);
#100 = LINE('',#101,#102);
#101 = CARTESIAN_POINT('',(6.28318530718,0.));
#102 = VECTOR('',#103,1.);
#103 = DIRECTION('',(0.,1.));
#104 = ( GEOMETRIC_REPRESENTATION_CONTEXT(2) 
PARAMETRIC_REPRESENTATION_CONTEXT() REPRESENTATION_CONTEXT('2D SPACE',''
  ) );
#105 = ORIENTED_EDGE('',*,*,#106,.F.);
#106 = EDGE_CURVE('',#107,#84,#109,.T.);
#107 = VERTEX_POINT('',#108);
#108 = CARTESIAN_POINT('',(2.105E+03,7.183900636316E-13,975.));
#109 = SURFACE_CURVE('',#110,(#173,#239),.PCURVE_S1.);
#110 = B_SPLINE_CURVE_WITH_KNOTS('',7,(#111,#112,#113,#114,#115,#116,
    #117,#118,#119,#120,#121,#122,#123,#124,#125,#126,#127,#128,#129,
    #130,#131,#132,#133,#134,#135,#136,#137,#138,#139,#140,#141,#142,
    #143,#144,#145,#146,#147,#148,#149,#150,#151,#152,#153,#154,#155,
    #156,#157,#158,#159,#160,#161,#162,#163,#164,#165,#166,#167,#168,
    #169,#170,#171,#172),.UNSPECIFIED.,.F.,.F.,(8,6,6,6,6,6,6,6,6,6,8),(
    0.,9.813337564318E-02,0.159082341161,0.242765628027,0.310393894128,
    0.500043510435,0.638659168473,0.757280901454,0.840945227667,
    0.904970884499,1.),.UNSPECIFIED.);
#111 = CARTESIAN_POINT('',(2.105E+03,-1.847411112976E-13,975.));
#112 = CARTESIAN_POINT('',(2.105E+03,-4.028737393691,975.));
#113 = CARTESIAN_POINT('',(2.104991004607E+03,-8.049131428778,
    974.74752218474));
#114 = CARTESIAN_POINT('',(2.104973079487E+03,-12.02958875408,
    974.24444793824));
#115 = CARTESIAN_POINT('',(2.104946717699E+03,-15.93893564746,
    973.49918218833));
#116 = CARTESIAN_POINT('',(2.104912814598E+03,-19.74745339435,
    972.52647291077));
#117 = CARTESIAN_POINT('',(2.104872582199E+03,-23.42776638963,
    971.3472589031));
#118 = CARTESIAN_POINT('',(2.104799343019E+03,-29.14664965406,
    969.14467231604));
#119 = CARTESIAN_POINT('',(2.104769335599E+03,-31.28195898529,
    968.23037697774));
#120 = CARTESIAN_POINT('',(2.104737651656E+03,-33.359401266,
    967.25023635923));
#121 = CARTESIAN_POINT('',(2.104704564201E+03,-35.37714148261,
    966.20884611233));
#122 = CARTESIAN_POINT('',(2.104670343741E+03,-37.33361928201,
    965.11082109864));
#123 = CARTESIAN_POINT('',(2.104635253657E+03,-39.22754895508,
    963.96079549355));
#124 = CARTESIAN_POINT('',(2.10455051818E+03,-43.57102879627,
    961.11942328803));
#125 = CARTESIAN_POINT('',(2.104500315114E+03,-45.96485628522,
    959.38581670317));
#126 = CARTESIAN_POINT('',(2.104449523304E+03,-48.24003565134,
    957.57238848319));
#127 = CARTESIAN_POINT('',(2.104398670259E+03,-50.39765826086,
    955.68801416794));
#128 = CARTESIAN_POINT('',(2.104348225278E+03,-52.43917508981,
    953.74074283447));
#129 = CARTESIAN_POINT('',(2.104298600652E+03,-54.36629873181,
    951.73788044206));
#130 = CARTESIAN_POINT('',(2.104211000022E+03,-57.64737150234,
    948.02791450666));
#131 = CARTESIAN_POINT('',(2.104172607354E+03,-59.04067456045,
    946.33742658675));
#132 = CARTESIAN_POINT('',(2.104135156617E+03,-60.3620317584,
    944.61777078251));
#133 = CARTESIAN_POINT('',(2.104098807511E+03,-61.61266080948,
    942.87178474344));
#134 = CARTESIAN_POINT('',(2.104063699914E+03,-62.79375810701,
    941.10201259494));
#135 = CARTESIAN_POINT('',(2.104029956102E+03,-63.90647686917,
    939.31073512985));
#136 = CARTESIAN_POINT('',(2.103907179634E+03,-67.8835950808,
    932.42216431962));
#137 = CARTESIAN_POINT('',(2.103828213135E+03,-70.28704227173,
    927.18969618286));
#138 = CARTESIAN_POINT('',(2.103763180553E+03,-72.18480963281,
    921.84901901842));
#139 = CARTESIAN_POINT('',(2.103713550412E+03,-73.59533591079,
    916.43447598285));
#140 = CARTESIAN_POINT('',(2.103680172785E+03,-74.53153925475,
    910.97315275366));
#141 = CARTESIAN_POINT('',(2.103663471185E+03,-75.,905.48774337471));
#142 = CARTESIAN_POINT('',(2.103663471185E+03,-75.,895.98898656459));
#143 = CARTESIAN_POINT('',(2.103672393538E+03,-74.74973884304,
    891.97845521321));
#144 = CARTESIAN_POINT('',(2.103690234321E+03,-74.24932349326,
    887.97732772829));
#145 = CARTESIAN_POINT('',(2.103716870457E+03,-73.49694599692,
    883.99474334264));
#146 = CARTESIAN_POINT('',(2.103752054739E+03,-72.48900644246,
    880.04067665315));
#147 = CARTESIAN_POINT('',(2.103795389055E+03,-71.220249285,
    876.12663074074));
#148 = CARTESIAN_POINT('',(2.103889822669E+03,-68.36917795452,
    868.96297921238));
#149 = CARTESIAN_POINT('',(2.103938899671E+03,-66.85851127143,
    865.69902573069));
#150 = CARTESIAN_POINT('',(2.103993141394E+03,-65.14739497552,
    862.48245905574));
#151 = CARTESIAN_POINT('',(2.10405207944E+03,-63.23038500263,
    859.32283083966));
#152 = CARTESIAN_POINT('',(2.10411511068E+03,-61.10133835152,
    856.23168820731));
#153 = CARTESIAN_POINT('',(2.104181462192E+03,-58.75370796935,
    853.22303934067));
#154 = CARTESIAN_POINT('',(2.104298600653E+03,-54.36629869316,
    848.26211951423));
#155 = CARTESIAN_POINT('',(2.104348225277E+03,-52.43917513769,
    846.25925720476));
#156 = CARTESIAN_POINT('',(2.104398670258E+03,-50.39765829251,
    844.31198586689));
#157 = CARTESIAN_POINT('',(2.104449523305E+03,-48.24003560836,
    842.42761148796));
#158 = CARTESIAN_POINT('',(2.104500315115E+03,-45.96485623966,
    840.61418325631));
#159 = CARTESIAN_POINT('',(2.104550518179E+03,-43.57102885041,
    838.88057674738));
#160 = CARTESIAN_POINT('',(2.104637064695E+03,-39.1347164346,
    835.97847629932));
#161 = CARTESIAN_POINT('',(2.104673903861E+03,-37.1412239365,
    834.77256872539));
#162 = CARTESIAN_POINT('',(2.104709769727E+03,-35.07866814686,
    833.62430928705));
#163 = CARTESIAN_POINT('',(2.104744354748E+03,-32.94861500183,
    832.5391144295));
#164 = CARTESIAN_POINT('',(2.104777343288E+03,-30.75297012969,
    831.52236226209));
#165 = CARTESIAN_POINT('',(2.104808417708E+03,-28.49397882786,
    830.57939267611));
#166 = CARTESIAN_POINT('',(2.104880079835E+03,-22.73116795129,
    828.43329886419));
#167 = CARTESIAN_POINT('',(2.104918067727E+03,-19.14781921896,
    827.32291312118));
#168 = CARTESIAN_POINT('',(2.104949983877E+03,-15.44686791261,
    826.40849972405));
#169 = CARTESIAN_POINT('',(2.10497474727E+03,-11.65368036225,
    825.70874635506));
#170 = CARTESIAN_POINT('',(2.104991564127E+03,-7.795649873035,
    825.23677252587));
#171 = CARTESIAN_POINT('',(2.105E+03,-3.901422516729,825.));
#172 = CARTESIAN_POINT('',(2.105E+03,-1.278976924368E-13,825.));
#173 = PCURVE('',#66,#174);
#174 = DEFINITIONAL_REPRESENTATION('',(#175),#238);
#175 = B_SPLINE_CURVE_WITH_KNOTS('',7,(#176,#177,#178,#179,#180,#181,
    #182,#183,#184,#185,#186,#187,#188,#189,#190,#191,#192,#193,#194,
    #195,#196,#197,#198,#199,#200,#201,#202,#203,#204,#205,#206,#207,
    #208,#209,#210,#211,#212,#213,#214,#215,#216,#217,#218,#219,#220,
    #221,#222,#223,#224,#225,#226,#227,#228,#229,#230,#231,#232,#233,
    #234,#235,#236,#237),.UNSPECIFIED.,.F.,.F.,(8,6,6,6,6,6,6,6,6,6,8),(
    0.,9.813337564318E-02,0.159082341161,0.242765628027,0.310393894128,
    0.500043510435,0.638659168473,0.757280901454,0.840945227667,
    0.904970884499,1.),.UNSPECIFIED.);
#176 = CARTESIAN_POINT('',(6.28318530718,195.));
#177 = CARTESIAN_POINT('',(6.281271417681,195.));
#178 = CARTESIAN_POINT('',(6.279361491766,194.74752218474));
#179 = CARTESIAN_POINT('',(6.277470526746,194.24444793824));
#180 = CARTESIAN_POINT('',(6.27561332064,193.49918218833));
#181 = CARTESIAN_POINT('',(6.273803982992,192.52647291077));
#182 = CARTESIAN_POINT('',(6.272055514371,191.3472589031));
#183 = CARTESIAN_POINT('',(6.26933848244,189.14467231604));
#184 = CARTESIAN_POINT('',(6.268323984338,188.23037697774));
#185 = CARTESIAN_POINT('',(6.26733696222,187.25023635923));
#186 = CARTESIAN_POINT('',(6.266378288005,186.20884611233));
#187 = CARTESIAN_POINT('',(6.265448703528,185.11082109864));
#188 = CARTESIAN_POINT('',(6.264548820485,183.96079549355));
#189 = CARTESIAN_POINT('',(6.262485017017,181.11942328803));
#190 = CARTESIAN_POINT('',(6.261347557965,179.38581670317));
#191 = CARTESIAN_POINT('',(6.260266444868,177.57238848318));
#192 = CARTESIAN_POINT('',(6.25924116264,175.68801416794));
#193 = CARTESIAN_POINT('',(6.25827102575,173.74074283447));
#194 = CARTESIAN_POINT('',(6.257355224516,171.73788044206));
#195 = CARTESIAN_POINT('',(6.25579596467,168.02791450666));
#196 = CARTESIAN_POINT('',(6.255133811982,166.33742658675));
#197 = CARTESIAN_POINT('',(6.254505837069,164.61777078251));
#198 = CARTESIAN_POINT('',(6.253911463363,162.87178474344));
#199 = CARTESIAN_POINT('',(6.253350124355,161.10201259494));
#200 = CARTESIAN_POINT('',(6.252821273938,159.31073512985));
#201 = CARTESIAN_POINT('',(6.250931006547,152.42216431962));
#202 = CARTESIAN_POINT('',(6.249788612551,147.18969618286));
#203 = CARTESIAN_POINT('',(6.24888653196,141.84901901842));
#204 = CARTESIAN_POINT('',(6.248216033661,136.43447598285));
#205 = CARTESIAN_POINT('',(6.247770998901,130.97315275366));
#206 = CARTESIAN_POINT('',(6.247548310839,125.48774337471));
#207 = CARTESIAN_POINT('',(6.247548310839,115.98898656459));
#208 = CARTESIAN_POINT('',(6.247667275286,111.97845521321));
#209 = CARTESIAN_POINT('',(6.247905153323,107.97732772829));
#210 = CARTESIAN_POINT('',(6.248262801224,103.99474334264));
#211 = CARTESIAN_POINT('',(6.248741923875,100.04067665315));
#212 = CARTESIAN_POINT('',(6.249345010008,96.126630740743));
#213 = CARTESIAN_POINT('',(6.250700180946,88.962979212386));
#214 = CARTESIAN_POINT('',(6.251418215793,85.699025730698));
#215 = CARTESIAN_POINT('',(6.252231505533,82.482459055747));
#216 = CARTESIAN_POINT('',(6.253142628585,79.322830839662));
#217 = CARTESIAN_POINT('',(6.254154494033,76.23168820731));
#218 = CARTESIAN_POINT('',(6.255270201863,73.223039340678));
#219 = CARTESIAN_POINT('',(6.257355224535,68.262119514235));
#220 = CARTESIAN_POINT('',(6.258271025727,66.259257204769));
#221 = CARTESIAN_POINT('',(6.259241162625,64.311985866897));
#222 = CARTESIAN_POINT('',(6.260266444888,62.427611487967));
#223 = CARTESIAN_POINT('',(6.261347557987,60.614183256313));
#224 = CARTESIAN_POINT('',(6.262485016991,58.880576747384));
#225 = CARTESIAN_POINT('',(6.264592929836,55.978476299322));
#226 = CARTESIAN_POINT('',(6.265540118344,54.772568725393));
#227 = CARTESIAN_POINT('',(6.266520101995,53.624309287051));
#228 = CARTESIAN_POINT('',(6.267532135836,52.539114429508));
#229 = CARTESIAN_POINT('',(6.268575313951,51.522362262091));
#230 = CARTESIAN_POINT('',(6.269648569554,50.579392676119));
#231 = CARTESIAN_POINT('',(6.272386458594,48.433298864197));
#232 = CARTESIAN_POINT('',(6.274088854829,47.322913121187));
#233 = CARTESIAN_POINT('',(6.275847086204,46.408499724058));
#234 = CARTESIAN_POINT('',(6.277649106602,45.708746355061));
#235 = CARTESIAN_POINT('',(6.279481910559,45.236772525877));
#236 = CARTESIAN_POINT('',(6.281331899808,45.));
#237 = CARTESIAN_POINT('',(6.28318530718,45.));
#238 = ( GEOMETRIC_REPRESENTATION_CONTEXT(2) 
PARAMETRIC_REPRESENTATION_CONTEXT() REPRESENTATION_CONTEXT('2D SPACE',''
  ) );
#239 = PCURVE('',#240,#245);
#240 = CYLINDRICAL_SURFACE('',#241,75.);
#241 = AXIS2_PLACEMENT_3D('',#242,#243,#244);
#242 = CARTESIAN_POINT('',(2.105E+03,0.,900.));
#243 = DIRECTION('',(1.,0.,0.));
#244 = DIRECTION('',(0.,1.,0.));
#245 = DEFINITIONAL_REPRESENTATION('',(#246),#309);
#246 = B_SPLINE_CURVE_WITH_KNOTS('',7,(#247,#248,#249,#250,#251,#252,
    #253,#254,#255,#256,#257,#258,#259,#260,#261,#262,#263,#264,#265,
    #266,#267,#268,#269,#270,#271,#272,#273,#274,#275,#276,#277,#278,
    #279,#280,#281,#282,#283,#284,#285,#286,#287,#288,#289,#290,#291,
    #292,#293,#294,#295,#296,#297,#298,#299,#300,#301,#302,#303,#304,
    #305,#306,#307,#308),.UNSPECIFIED.,.F.,.F.,(8,6,6,6,6,6,6,6,6,6,8),(
    0.,9.813337564318E-02,0.159082341161,0.242765628027,0.310393894128,
    0.500043510435,0.638659168473,0.757280901454,0.840945227667,
    0.904970884499,1.),.UNSPECIFIED.);
#247 = CARTESIAN_POINT('',(1.570796326795,0.));
#248 = CARTESIAN_POINT('',(1.624512825377,-3.806478941572E-16));
#249 = CARTESIAN_POINT('',(1.678118074424,-8.99539257648E-03));
#250 = CARTESIAN_POINT('',(1.731444019469,-2.692051326425E-02));
#251 = CARTESIAN_POINT('',(1.784323375927,-5.3282300584E-02));
#252 = CARTESIAN_POINT('',(1.836581012061,-8.718540180152E-02));
#253 = CARTESIAN_POINT('',(1.88802388212,-0.127417801038));
#254 = CARTESIAN_POINT('',(1.969735585039,-0.200656980682));
#255 = CARTESIAN_POINT('',(2.000685380417,-0.23066440087));
#256 = CARTESIAN_POINT('',(2.031280800944,-0.262348343518));
#257 = CARTESIAN_POINT('',(2.061522009897,-0.295435798989));
#258 = CARTESIAN_POINT('',(2.091407487151,-0.32965625943));
#259 = CARTESIAN_POINT('',(2.120934087634,-0.364746343423));
#260 = CARTESIAN_POINT('',(2.190138086416,-0.449481819917));
#261 = CARTESIAN_POINT('',(2.229502245811,-0.499684886314));
#262 = CARTESIAN_POINT('',(2.268229861639,-0.550476696217));
#263 = CARTESIAN_POINT('',(2.306357518385,-0.601329740955));
#264 = CARTESIAN_POINT('',(2.343918844027,-0.651774722271));
#265 = CARTESIAN_POINT('',(2.380945252696,-0.701399347808));
#266 = CARTESIAN_POINT('',(2.446981317949,-0.788999977752));
#267 = CARTESIAN_POINT('',(2.476172598186,-0.827392646152));
#268 = CARTESIAN_POINT('',(2.505061662478,-0.864843383069));
#269 = CARTESIAN_POINT('',(2.533668825891,-0.901192488614));
#270 = CARTESIAN_POINT('',(2.562013779695,-0.9363000863));
#271 = CARTESIAN_POINT('',(2.590115786934,-0.970043897594));
#272 = CARTESIAN_POINT('',(2.696172272577,-1.092820366158));
#273 = CARTESIAN_POINT('',(2.772614606148,-1.171786865404));
#274 = CARTESIAN_POINT('',(2.847715563737,-1.236819446683));
#275 = CARTESIAN_POINT('',(2.921826425262,-1.286449587792));
#276 = CARTESIAN_POINT('',(2.995283960363,-1.319827215314));
#277 = CARTESIAN_POINT('',(3.068422741927,-1.336528814554));
#278 = CARTESIAN_POINT('',(3.195072832728,-1.336528814554));
#279 = CARTESIAN_POINT('',(3.248546609381,-1.327606461622));
#280 = CARTESIAN_POINT('',(3.302144723021,-1.309765679023));
#281 = CARTESIAN_POINT('',(3.355995206158,-1.283129542953));
#282 = CARTESIAN_POINT('',(3.410226305726,-1.247945260622));
#283 = CARTESIAN_POINT('',(3.464970017843,-1.204610944706));
#284 = CARTESIAN_POINT('',(3.567772102518,-1.110177330931));
#285 = CARTESIAN_POINT('',(3.615655012555,-1.061100328507));
#286 = CARTESIAN_POINT('',(3.664113112518,-1.006858605685));
#287 = CARTESIAN_POINT('',(3.713244905189,-0.947920560442));
#288 = CARTESIAN_POINT('',(3.763151100776,-0.884889319723));
#289 = CARTESIAN_POINT('',(3.813937458666,-0.818537808278));
#290 = CARTESIAN_POINT('',(3.902240055262,-0.701399346776));
#291 = CARTESIAN_POINT('',(3.939266462322,-0.651774723331));
#292 = CARTESIAN_POINT('',(3.976827788167,-0.60132974179));
#293 = CARTESIAN_POINT('',(4.014955446231,-0.550476695364));
#294 = CARTESIAN_POINT('',(4.053683062187,-0.499684885257));
#295 = CARTESIAN_POINT('',(4.093047219901,-0.449481820973));
#296 = CARTESIAN_POINT('',(4.16373030587,-0.362935305236));
#297 = CARTESIAN_POINT('',(4.194775713232,-0.326096138861));
#298 = CARTESIAN_POINT('',(4.226217958577,-0.290230273361));
#299 = CARTESIAN_POINT('',(4.258052553523,-0.255645251644));
#300 = CARTESIAN_POINT('',(4.290277035399,-0.222656711878));
#301 = CARTESIAN_POINT('',(4.322891010445,-0.191582291706));
#302 = CARTESIAN_POINT('',(4.404883647348,-0.119920165111));
#303 = CARTESIAN_POINT('',(4.454824505113,-8.193227275208E-02));
#304 = CARTESIAN_POINT('',(4.505514929646,-5.001612327236E-02));
#305 = CARTESIAN_POINT('',(4.556776652986,-2.525272955562E-02));
#306 = CARTESIAN_POINT('',(4.608446985899,-8.435872589673E-03));
#307 = CARTESIAN_POINT('',(4.660370013495,-1.903239470786E-16));
#308 = CARTESIAN_POINT('',(4.712388980385,0.));
#309 = ( GEOMETRIC_REPRESENTATION_CONTEXT(2) 
PARAMETRIC_REPRESENTATION_CONTEXT() REPRESENTATION_CONTEXT('2D SPACE',''
  ) );
#310 = ORIENTED_EDGE('',*,*,#311,.T.);
#311 = EDGE_CURVE('',#107,#312,#314,.T.);
#312 = VERTEX_POINT('',#313);
#313 = CARTESIAN_POINT('',(2.105E+03,7.258585580074E-13,2.125E+03));
#314 = SEAM_CURVE('',#315,(#319,#326),.PCURVE_S1.);
#315 = LINE('',#316,#317);
#316 = CARTESIAN_POINT('',(2.105E+03,0.,780.));
#317 = VECTOR('',#318,1.);
#318 = DIRECTION('',(0.,0.,1.));
#319 = PCURVE('',#66,#320);
#320 = DEFINITIONAL_REPRESENTATION('',(#321),#325);
#321 = LINE('',#322,#323);
#322 = CARTESIAN_POINT('',(0.,0.));
#323 = VECTOR('',#324,1.);
#324 = DIRECTION('',(0.,1.));
#325 = ( GEOMETRIC_REPRESENTATION_CONTEXT(2) 
PARAMETRIC_REPRESENTATION_CONTEXT() REPRESENTATION_CONTEXT('2D SPACE',''
  ) );
#326 = PCURVE('',#66,#327);
#327 = DEFINITIONAL_REPRESENTATION('',(#328),#332);
#328 = LINE('',#329,#330);
#329 = CARTESIAN_POINT('',(6.28318530718,0.));
#330 = VECTOR('',#331,1.);
#331 = DIRECTION('',(0.,1.));
#332 = ( GEOMETRIC_REPRESENTATION_CONTEXT(2) 
PARAMETRIC_REPRESENTATION_CONTEXT() REPRESENTATION_CONTEXT('2D SPACE',''
  ) );
#333 = ORIENTED_EDGE('',*,*,#334,.F.);
#334 = EDGE_CURVE('',#335,#312,#337,.T.);
#335 = VERTEX_POINT('',#336);
#336 = CARTESIAN_POINT('',(2.105E+03,7.183900636316E-13,2.275E+03));
#337 = SURFACE_CURVE('',#338,(#401,#467),.PCURVE_S1.);
#338 = B_SPLINE_CURVE_WITH_KNOTS('',7,(#339,#340,#341,#342,#343,#344,
    #345,#346,#347,#348,#349,#350,#351,#352,#353,#354,#355,#356,#357,
    #358,#359,#360,#361,#362,#363,#364,#365,#366,#367,#368,#369,#370,
    #371,#372,#373,#374,#375,#376,#377,#378,#379,#380,#381,#382,#383,
    #384,#385,#386,#387,#388,#389,#390,#391,#392,#393,#394,#395,#396,
    #397,#398,#399,#400),.UNSPECIFIED.,.F.,.F.,(8,6,6,6,6,6,6,6,6,6,8),(
    0.,9.813337537826E-02,0.159082340849,0.242765629454,0.310393896099,
    0.500043512321,0.638659170373,0.757280903355,0.840945227733,
    0.904970884539,1.),.UNSPECIFIED.);
#339 = CARTESIAN_POINT('',(2.105E+03,-1.847411112976E-13,2.275E+03));
#340 = CARTESIAN_POINT('',(2.105E+03,-4.028737401639,2.275E+03));
#341 = CARTESIAN_POINT('',(2.104991004607E+03,-8.049131410657,
    2.274747522187E+03));
#342 = CARTESIAN_POINT('',(2.104973079487E+03,-12.02958876437,
    2.274244447935E+03));
#343 = CARTESIAN_POINT('',(2.104946717699E+03,-15.93893565852,
    2.273499182187E+03));
#344 = CARTESIAN_POINT('',(2.104912814598E+03,-19.74745337716,
    2.272526472915E+03));
#345 = CARTESIAN_POINT('',(2.104872582199E+03,-23.42776639654,
    2.2713472589E+03));
#346 = CARTESIAN_POINT('',(2.104799343019E+03,-29.146649654,
    2.269144672316E+03));
#347 = CARTESIAN_POINT('',(2.104769335599E+03,-31.28195898528,
    2.268230376978E+03));
#348 = CARTESIAN_POINT('',(2.104737651656E+03,-33.35940126604,
    2.267250236359E+03));
#349 = CARTESIAN_POINT('',(2.104704564201E+03,-35.37714148265,
    2.266208846112E+03));
#350 = CARTESIAN_POINT('',(2.104670343741E+03,-37.33361928201,
    2.265110821099E+03));
#351 = CARTESIAN_POINT('',(2.104635253657E+03,-39.22754895503,
    2.263960795494E+03));
#352 = CARTESIAN_POINT('',(2.104550518179E+03,-43.57102885046,
    2.261119423253E+03));
#353 = CARTESIAN_POINT('',(2.104500315115E+03,-45.96485623967,
    2.259385816744E+03));
#354 = CARTESIAN_POINT('',(2.104449523305E+03,-48.24003560833,
    2.257572388512E+03));
#355 = CARTESIAN_POINT('',(2.104398670258E+03,-50.39765829247,
    2.255688014133E+03));
#356 = CARTESIAN_POINT('',(2.104348225277E+03,-52.43917513769,
    2.253740742795E+03));
#357 = CARTESIAN_POINT('',(2.104298600653E+03,-54.3662986932,
    2.251737880486E+03));
#358 = CARTESIAN_POINT('',(2.104211000022E+03,-57.64737151488,
    2.248027914492E+03));
#359 = CARTESIAN_POINT('',(2.104172607354E+03,-59.04067455,
    2.246337426602E+03));
#360 = CARTESIAN_POINT('',(2.104135156617E+03,-60.36203174848,
    2.244617770794E+03));
#361 = CARTESIAN_POINT('',(2.104098807511E+03,-61.61266081673,
    2.242871784731E+03));
#362 = CARTESIAN_POINT('',(2.104063699913E+03,-62.79375811803,
    2.24110201258E+03));
#363 = CARTESIAN_POINT('',(2.104029956103E+03,-63.90647686029,
    2.239310735145E+03));
#364 = CARTESIAN_POINT('',(2.103907179634E+03,-67.8835950808,
    2.23242216432E+03));
#365 = CARTESIAN_POINT('',(2.103828213135E+03,-70.28704227173,
    2.227189696183E+03));
#366 = CARTESIAN_POINT('',(2.103763180553E+03,-72.18480963281,
    2.221849019018E+03));
#367 = CARTESIAN_POINT('',(2.103713550412E+03,-73.59533591079,
    2.216434475983E+03));
#368 = CARTESIAN_POINT('',(2.103680172785E+03,-74.53153925475,
    2.210973152754E+03));
#369 = CARTESIAN_POINT('',(2.103663471185E+03,-75.,2.205487743375E+03));
#370 = CARTESIAN_POINT('',(2.103663471185E+03,-75.,2.195988986562E+03));
#371 = CARTESIAN_POINT('',(2.103672393538E+03,-74.74973884366,
    2.191978455218E+03));
#372 = CARTESIAN_POINT('',(2.103690234321E+03,-74.24932349235,
    2.187977327725E+03));
#373 = CARTESIAN_POINT('',(2.103716870457E+03,-73.49694599664,
    2.18399474334E+03));
#374 = CARTESIAN_POINT('',(2.103752054739E+03,-72.48900644383,
    2.180040676658E+03));
#375 = CARTESIAN_POINT('',(2.103795389055E+03,-71.22024928415,
    2.176126630739E+03));
#376 = CARTESIAN_POINT('',(2.103889822669E+03,-68.36917795537,
    2.168962979215E+03));
#377 = CARTESIAN_POINT('',(2.103938899672E+03,-66.85851126882,
    2.165699025726E+03));
#378 = CARTESIAN_POINT('',(2.103993141394E+03,-65.14739497762,
    2.162482459059E+03));
#379 = CARTESIAN_POINT('',(2.10405207944E+03,-63.23038500411,
    2.159322830843E+03));
#380 = CARTESIAN_POINT('',(2.10411511068E+03,-61.10133834817,
    2.156231688203E+03));
#381 = CARTESIAN_POINT('',(2.104181462192E+03,-58.75370797104,
    2.153223039343E+03));
#382 = CARTESIAN_POINT('',(2.104298600652E+03,-54.36629873177,
    2.148262119558E+03));
#383 = CARTESIAN_POINT('',(2.104348225278E+03,-52.43917508981,
    2.146259257166E+03));
#384 = CARTESIAN_POINT('',(2.104398670259E+03,-50.3976582609,
    2.144311985832E+03));
#385 = CARTESIAN_POINT('',(2.104449523304E+03,-48.24003565137,
    2.142427611517E+03));
#386 = CARTESIAN_POINT('',(2.104500315114E+03,-45.96485628521,
    2.140614183297E+03));
#387 = CARTESIAN_POINT('',(2.10455051818E+03,-43.57102879622,
    2.138880576712E+03));
#388 = CARTESIAN_POINT('',(2.104637064695E+03,-39.13471643468,
    2.135978476299E+03));
#389 = CARTESIAN_POINT('',(2.104673903861E+03,-37.14122393651,
    2.134772568725E+03));
#390 = CARTESIAN_POINT('',(2.104709769727E+03,-35.0786681468,
    2.133624309287E+03));
#391 = CARTESIAN_POINT('',(2.104744354748E+03,-32.94861500175,
    2.132539114429E+03));
#392 = CARTESIAN_POINT('',(2.104777343288E+03,-30.7529701297,
    2.131522362262E+03));
#393 = CARTESIAN_POINT('',(2.104808417708E+03,-28.49397882796,
    2.130579392676E+03));
#394 = CARTESIAN_POINT('',(2.104880079835E+03,-22.73116795121,
    2.128433298864E+03));
#395 = CARTESIAN_POINT('',(2.104918067727E+03,-19.14781921904,
    2.127322913121E+03));
#396 = CARTESIAN_POINT('',(2.104949983877E+03,-15.44686791267,
    2.126408499724E+03));
#397 = CARTESIAN_POINT('',(2.10497474727E+03,-11.65368036219,
    2.125708746355E+03));
#398 = CARTESIAN_POINT('',(2.104991564127E+03,-7.795649872951,
    2.125236772526E+03));
#399 = CARTESIAN_POINT('',(2.105E+03,-3.901422516812,2.125E+03));
#400 = CARTESIAN_POINT('',(2.105E+03,-1.278976924368E-13,2.125E+03));
#401 = PCURVE('',#66,#402);
#402 = DEFINITIONAL_REPRESENTATION('',(#403),#466);
#403 = B_SPLINE_CURVE_WITH_KNOTS('',7,(#404,#405,#406,#407,#408,#409,
    #410,#411,#412,#413,#414,#415,#416,#417,#418,#419,#420,#421,#422,
    #423,#424,#425,#426,#427,#428,#429,#430,#431,#432,#433,#434,#435,
    #436,#437,#438,#439,#440,#441,#442,#443,#444,#445,#446,#447,#448,
    #449,#450,#451,#452,#453,#454,#455,#456,#457,#458,#459,#460,#461,
    #462,#463,#464,#465),.UNSPECIFIED.,.F.,.F.,(8,6,6,6,6,6,6,6,6,6,8),(
    0.,9.813337537826E-02,0.159082340849,0.242765629454,0.310393896099,
    0.500043512321,0.638659170373,0.757280903355,0.840945227733,
    0.904970884539,1.),.UNSPECIFIED.);
#404 = CARTESIAN_POINT('',(6.28318530718,1.495E+03));
#405 = CARTESIAN_POINT('',(6.281271417678,1.495E+03));
#406 = CARTESIAN_POINT('',(6.279361491775,1.494747522187E+03));
#407 = CARTESIAN_POINT('',(6.277470526741,1.494244447935E+03));
#408 = CARTESIAN_POINT('',(6.275613320635,1.493499182187E+03));
#409 = CARTESIAN_POINT('',(6.273803983,1.492526472915E+03));
#410 = CARTESIAN_POINT('',(6.272055514368,1.4913472589E+03));
#411 = CARTESIAN_POINT('',(6.26933848244,1.489144672316E+03));
#412 = CARTESIAN_POINT('',(6.268323984338,1.488230376978E+03));
#413 = CARTESIAN_POINT('',(6.26733696222,1.487250236359E+03));
#414 = CARTESIAN_POINT('',(6.266378288005,1.486208846112E+03));
#415 = CARTESIAN_POINT('',(6.265448703528,1.485110821099E+03));
#416 = CARTESIAN_POINT('',(6.264548820485,1.483960795494E+03));
#417 = CARTESIAN_POINT('',(6.262485016991,1.481119423253E+03));
#418 = CARTESIAN_POINT('',(6.261347557987,1.479385816744E+03));
#419 = CARTESIAN_POINT('',(6.260266444888,1.477572388512E+03));
#420 = CARTESIAN_POINT('',(6.259241162625,1.475688014133E+03));
#421 = CARTESIAN_POINT('',(6.258271025727,1.473740742795E+03));
#422 = CARTESIAN_POINT('',(6.257355224535,1.471737880486E+03));
#423 = CARTESIAN_POINT('',(6.255795964664,1.468027914492E+03));
#424 = CARTESIAN_POINT('',(6.255133811987,1.466337426602E+03));
#425 = CARTESIAN_POINT('',(6.254505837073,1.464617770794E+03));
#426 = CARTESIAN_POINT('',(6.25391146336,1.462871784731E+03));
#427 = CARTESIAN_POINT('',(6.253350124349,1.46110201258E+03));
#428 = CARTESIAN_POINT('',(6.252821273942,1.459310735145E+03));
#429 = CARTESIAN_POINT('',(6.250931006547,1.45242216432E+03));
#430 = CARTESIAN_POINT('',(6.249788612551,1.447189696183E+03));
#431 = CARTESIAN_POINT('',(6.24888653196,1.441849019018E+03));
#432 = CARTESIAN_POINT('',(6.248216033661,1.436434475983E+03));
#433 = CARTESIAN_POINT('',(6.247770998901,1.430973152754E+03));
#434 = CARTESIAN_POINT('',(6.247548310839,1.425487743375E+03));
#435 = CARTESIAN_POINT('',(6.247548310839,1.415988986562E+03));
#436 = CARTESIAN_POINT('',(6.247667275286,1.411978455218E+03));
#437 = CARTESIAN_POINT('',(6.247905153323,1.407977327725E+03));
#438 = CARTESIAN_POINT('',(6.248262801224,1.40399474334E+03));
#439 = CARTESIAN_POINT('',(6.248741923874,1.400040676658E+03));
#440 = CARTESIAN_POINT('',(6.249345010009,1.396126630739E+03));
#441 = CARTESIAN_POINT('',(6.250700180946,1.388962979215E+03));
#442 = CARTESIAN_POINT('',(6.251418215794,1.385699025726E+03));
#443 = CARTESIAN_POINT('',(6.252231505532,1.382482459059E+03));
#444 = CARTESIAN_POINT('',(6.253142628584,1.379322830843E+03));
#445 = CARTESIAN_POINT('',(6.254154494035,1.376231688203E+03));
#446 = CARTESIAN_POINT('',(6.255270201862,1.373223039343E+03));
#447 = CARTESIAN_POINT('',(6.257355224516,1.368262119558E+03));
#448 = CARTESIAN_POINT('',(6.25827102575,1.366259257166E+03));
#449 = CARTESIAN_POINT('',(6.25924116264,1.364311985832E+03));
#450 = CARTESIAN_POINT('',(6.260266444868,1.362427611517E+03));
#451 = CARTESIAN_POINT('',(6.261347557965,1.360614183297E+03));
#452 = CARTESIAN_POINT('',(6.262485017017,1.358880576712E+03));
#453 = CARTESIAN_POINT('',(6.264592929836,1.355978476299E+03));
#454 = CARTESIAN_POINT('',(6.265540118344,1.354772568725E+03));
#455 = CARTESIAN_POINT('',(6.266520101995,1.353624309287E+03));
#456 = CARTESIAN_POINT('',(6.267532135836,1.352539114429E+03));
#457 = CARTESIAN_POINT('',(6.268575313951,1.351522362262E+03));
#458 = CARTESIAN_POINT('',(6.269648569554,1.350579392676E+03));
#459 = CARTESIAN_POINT('',(6.272386458594,1.348433298864E+03));
#460 = CARTESIAN_POINT('',(6.274088854829,1.347322913121E+03));
#461 = CARTESIAN_POINT('',(6.275847086204,1.346408499724E+03));
#462 = CARTESIAN_POINT('',(6.277649106602,1.345708746355E+03));
#463 = CARTESIAN_POINT('',(6.279481910559,1.345236772526E+03));
#464 = CARTESIAN_POINT('',(6.281331899808,1.345E+03));
#465 = CARTESIAN_POINT('',(6.28318530718,1.345E+03));
#466 = ( GEOMETRIC_REPRESENTATION_CONTEXT(2) 
PARAMETRIC_REPRESENTATION_CONTEXT() REPRESENTATION_CONTEXT('2D SPACE',''
  ) );
#467 = PCURVE('',#468,#473);
#468 = CYLINDRICAL_SURFACE('',#469,75.);
#469 = AXIS2_PLACEMENT_3D('',#470,#471,#472);
#470 = CARTESIAN_POINT('',(2.105E+03,0.,2.2E+03));
#471 = DIRECTION('',(1.,0.,0.));
#472 = DIRECTION('',(0.,1.,0.));
#473 = DEFINITIONAL_REPRESENTATION('',(#474),#537);
#474 = B_SPLINE_CURVE_WITH_KNOTS('',7,(#475,#476,#477,#478,#479,#480,
    #481,#482,#483,#484,#485,#486,#487,#488,#489,#490,#491,#492,#493,
    #494,#495,#496,#497,#498,#499,#500,#501,#502,#503,#504,#505,#506,
    #507,#508,#509,#510,#511,#512,#513,#514,#515,#516,#517,#518,#519,
    #520,#521,#522,#523,#524,#525,#526,#527,#528,#529,#530,#531,#532,
    #533,#534,#535,#536),.UNSPECIFIED.,.F.,.F.,(8,6,6,6,6,6,6,6,6,6,8),(
    0.,9.813337537826E-02,0.159082340849,0.242765629454,0.310393896099,
    0.500043512321,0.638659170373,0.757280903355,0.840945227733,
    0.904970884539,1.),.UNSPECIFIED.);
#475 = CARTESIAN_POINT('',(1.570796326795,0.));
#476 = CARTESIAN_POINT('',(1.624512825483,-3.806478941572E-16));
#477 = CARTESIAN_POINT('',(1.678118074179,-8.995392509296E-03));
#478 = CARTESIAN_POINT('',(1.731444019613,-2.692051336157E-02));
#479 = CARTESIAN_POINT('',(1.784323376077,-5.328230061636E-02));
#480 = CARTESIAN_POINT('',(1.836581011822,-8.718540165557E-02));
#481 = CARTESIAN_POINT('',(1.888023882219,-0.127417801127));
#482 = CARTESIAN_POINT('',(1.969735585038,-0.200656980681));
#483 = CARTESIAN_POINT('',(2.000685380417,-0.230664400869));
#484 = CARTESIAN_POINT('',(2.031280800944,-0.262348343519));
#485 = CARTESIAN_POINT('',(2.061522009898,-0.295435798989));
#486 = CARTESIAN_POINT('',(2.091407487151,-0.32965625943));
#487 = CARTESIAN_POINT('',(2.120934087634,-0.364746343422));
#488 = CARTESIAN_POINT('',(2.190138087279,-0.449481820974));
#489 = CARTESIAN_POINT('',(2.229502244993,-0.499684885258));
#490 = CARTESIAN_POINT('',(2.268229860948,-0.550476695364));
#491 = CARTESIAN_POINT('',(2.306357519012,-0.601329741789));
#492 = CARTESIAN_POINT('',(2.343918844858,-0.651774723331));
#493 = CARTESIAN_POINT('',(2.380945251919,-0.701399346778));
#494 = CARTESIAN_POINT('',(2.446981318202,-0.788999978087));
#495 = CARTESIAN_POINT('',(2.476172597942,-0.827392645851));
#496 = CARTESIAN_POINT('',(2.505061662276,-0.864843382802));
#497 = CARTESIAN_POINT('',(2.533668826081,-0.901192488837));
#498 = CARTESIAN_POINT('',(2.562013779941,-0.93630008661));
#499 = CARTESIAN_POINT('',(2.590115786697,-0.970043897319));
#500 = CARTESIAN_POINT('',(2.696172272577,-1.092820366158));
#501 = CARTESIAN_POINT('',(2.772614606148,-1.171786865404));
#502 = CARTESIAN_POINT('',(2.847715563736,-1.236819446683));
#503 = CARTESIAN_POINT('',(2.921826425263,-1.286449587792));
#504 = CARTESIAN_POINT('',(2.995283960363,-1.319827215314));
#505 = CARTESIAN_POINT('',(3.068422741927,-1.336528814554));
#506 = CARTESIAN_POINT('',(3.195072832758,-1.336528814554));
#507 = CARTESIAN_POINT('',(3.248546609311,-1.327606461643));
#508 = CARTESIAN_POINT('',(3.302144723064,-1.309765678992));
#509 = CARTESIAN_POINT('',(3.3559952062,-1.283129542944));
#510 = CARTESIAN_POINT('',(3.410226305655,-1.247945260668));
#511 = CARTESIAN_POINT('',(3.464970017874,-1.204610944678));
#512 = CARTESIAN_POINT('',(3.567772102488,-1.11017733096));
#513 = CARTESIAN_POINT('',(3.615655012629,-1.061100328427));
#514 = CARTESIAN_POINT('',(3.664113112471,-1.006858605743));
#515 = CARTESIAN_POINT('',(3.713244905145,-0.947920560489));
#516 = CARTESIAN_POINT('',(3.763151100853,-0.884889319629));
#517 = CARTESIAN_POINT('',(3.813937458632,-0.818537808324));
#518 = CARTESIAN_POINT('',(3.902240054485,-0.701399347807));
#519 = CARTESIAN_POINT('',(3.939266463153,-0.651774722271));
#520 = CARTESIAN_POINT('',(3.976827788794,-0.601329740956));
#521 = CARTESIAN_POINT('',(4.01495544554,-0.550476696218));
#522 = CARTESIAN_POINT('',(4.053683061369,-0.499684886314));
#523 = CARTESIAN_POINT('',(4.093047220765,-0.449481819916));
#524 = CARTESIAN_POINT('',(4.163730305868,-0.362935305238));
#525 = CARTESIAN_POINT('',(4.194775713232,-0.326096138861));
#526 = CARTESIAN_POINT('',(4.226217958578,-0.29023027336));
#527 = CARTESIAN_POINT('',(4.258052553524,-0.255645251643));
#528 = CARTESIAN_POINT('',(4.290277035399,-0.222656711878));
#529 = CARTESIAN_POINT('',(4.322891010443,-0.191582291708));
#530 = CARTESIAN_POINT('',(4.404883647349,-0.119920165111));
#531 = CARTESIAN_POINT('',(4.454824505111,-8.193227275335E-02));
#532 = CARTESIAN_POINT('',(4.505514929645,-5.001612327236E-02));
#533 = CARTESIAN_POINT('',(4.556776652986,-2.525272955486E-02));
#534 = CARTESIAN_POINT('',(4.6084469859,-8.435872589983E-03));
#535 = CARTESIAN_POINT('',(4.660370013494,-1.903239470786E-16));
#536 = CARTESIAN_POINT('',(4.712388980385,0.));
#537 = ( GEOMETRIC_REPRESENTATION_CONTEXT(2) 
PARAMETRIC_REPRESENTATION_CONTEXT() REPRESENTATION_CONTEXT('2D SPACE',''
  ) );
#538 = ORIENTED_EDGE('',*,*,#539,.T.);
#539 = EDGE_CURVE('',#335,#540,#542,.T.);
#540 = VERTEX_POINT('',#541);
#541 = CARTESIAN_POINT('',(2.105E+03,0.,5.5E+03));
#542 = SEAM_CURVE('',#543,(#547,#554),.PCURVE_S1.);
#543 = LINE('',#544,#545);
#544 = CARTESIAN_POINT('',(2.105E+03,0.,780.));
#545 = VECTOR('',#546,1.);
#546 = DIRECTION('',(0.,0.,1.));
#547 = PCURVE('',#66,#548);
#548 = DEFINITIONAL_REPRESENTATION('',(#549),#553);
#549 = LINE('',#550,#551);
#550 = CARTESIAN_POINT('',(0.,0.));
#551 = VECTOR('',#552,1.);
#552 = DIRECTION('',(0.,1.));
#553 = ( GEOMETRIC_REPRESENTATION_CONTEXT(2) 
PARAMETRIC_REPRESENTATION_CONTEXT() REPRESENTATION_CONTEXT('2D SPACE',''
  ) );
#554 = PCURVE('',#66,#555);
#555 = DEFINITIONAL_REPRESENTATION('',(#556),#560);
#556 = LINE('',#557,#558);
#557 = CARTESIAN_POINT('',(6.28318530718,0.));
#558 = VECTOR('',#559,1.);
#559 = DIRECTION('',(0.,1.));
#560 = ( GEOMETRIC_REPRESENTATION_CONTEXT(2) 
PARAMETRIC_REPRESENTATION_CONTEXT() REPRESENTATION_CONTEXT('2D SPACE',''
  ) );
#561 = ORIENTED_EDGE('',*,*,#562,.F.);
#562 = EDGE_CURVE('',#540,#540,#563,.T.);
#563 = SURFACE_CURVE('',#564,(#569,#576),.PCURVE_S1.);
#564 = CIRCLE('',#565,2.105E+03);
#565 = AXIS2_PLACEMENT_3D('',#566,#567,#568);
#566 = CARTESIAN_POINT('',(0.,0.,5.5E+03));
#567 = DIRECTION('',(0.,0.,1.));
#568 = DIRECTION('',(1.,0.,-0.));
#569 = PCURVE('',#66,#570);
#570 = DEFINITIONAL_REPRESENTATION('',(#571),#575);
#571 = LINE('',#572,#573);
#572 = CARTESIAN_POINT('',(0.,4.72E+03));
#573 = VECTOR('',#574,1.);
#574 = DIRECTION('',(1.,0.));
#575 = ( GEOMETRIC_REPRESENTATION_CONTEXT(2) 
PARAMETRIC_REPRESENTATION_CONTEXT() REPRESENTATION_CONTEXT('2D SPACE',''
  ) );
#576 = PCURVE('',#577,#582);
#577 = PLANE('',#578);
#578 = AXIS2_PLACEMENT_3D('',#579,#580,#581);
#579 = CARTESIAN_POINT('',(0.,0.,5.5E+03));
#580 = DIRECTION('',(0.,0.,1.));
#581 = DIRECTION('',(1.,0.,-0.));
#582 = DEFINITIONAL_REPRESENTATION('',(#583),#587);
#583 = CIRCLE('',#584,2.105E+03);
#584 = AXIS2_PLACEMENT_2D('',#585,#586);
#585 = CARTESIAN_POINT('',(0.,0.));
#586 = DIRECTION('',(1.,0.));
#587 = ( GEOMETRIC_REPRESENTATION_CONTEXT(2) 
PARAMETRIC_REPRESENTATION_CONTEXT() REPRESENTATION_CONTEXT('2D SPACE',''
  ) );
#588 = ORIENTED_EDGE('',*,*,#539,.F.);
#589 = ORIENTED_EDGE('',*,*,#590,.F.);
#590 = EDGE_CURVE('',#591,#335,#593,.T.);
#591 = VERTEX_POINT('',#592);
#592 = CARTESIAN_POINT('',(2.103663471185E+03,75.,2.2E+03));
#593 = SURFACE_CURVE('',#594,(#625,#659),.PCURVE_S1.);
#594 = B_SPLINE_CURVE_WITH_KNOTS('',8,(#595,#596,#597,#598,#599,#600,
    #601,#602,#603,#604,#605,#606,#607,#608,#609,#610,#611,#612,#613,
    #614,#615,#616,#617,#618,#619,#620,#621,#622,#623,#624),
  .UNSPECIFIED.,.F.,.F.,(9,7,7,7,9),(0.,0.51443039106,0.681804338279,
    0.809890317372,1.),.UNSPECIFIED.);
#595 = CARTESIAN_POINT('',(2.103663471185E+03,75.,2.2E+03));
#596 = CARTESIAN_POINT('',(2.103663471185E+03,75.,2.206517016172E+03));
#597 = CARTESIAN_POINT('',(2.103686544752E+03,74.352815626062,
    2.213025944333E+03));
#598 = CARTESIAN_POINT('',(2.103732591075E+03,73.061254349519,
    2.219496238215E+03));
#599 = CARTESIAN_POINT('',(2.103800905158E+03,71.113854558306,
    2.225894941339E+03));
#600 = CARTESIAN_POINT('',(2.103890096897E+03,68.487455926479,
    2.232180462246E+03));
#601 = CARTESIAN_POINT('',(2.103997756241E+03,65.149582472074,
    2.238296878361E+03));
#602 = CARTESIAN_POINT('',(2.104119859994E+03,61.061012088775,
    2.244168051841E+03));
#603 = CARTESIAN_POINT('',(2.10429254468E+03,54.593124566079,
    2.251481404534E+03));
#604 = CARTESIAN_POINT('',(2.104335819121E+03,52.920956000326,
    2.253240027236E+03));
#605 = CARTESIAN_POINT('',(2.104379753391E+03,51.16322707173,
    2.254957787418E+03));
#606 = CARTESIAN_POINT('',(2.104424096781E+03,49.318846956099,
    2.256630201326E+03));
#607 = CARTESIAN_POINT('',(2.104468570232E+03,47.386843389033,
    2.258252424066E+03));
#608 = CARTESIAN_POINT('',(2.10451286588E+03,45.366399412978,
    2.259819218349E+03));
#609 = CARTESIAN_POINT('',(2.104556646605E+03,43.256890124274,
    2.261324923238E+03));
#610 = CARTESIAN_POINT('',(2.104632374805E+03,39.375116807804,
    2.263864261099E+03));
#611 = CARTESIAN_POINT('',(2.10466469407E+03,37.63959706103,
    2.264925954381E+03));
#612 = CARTESIAN_POINT('',(2.104696320027E+03,35.852126567982,
    2.265945093424E+03));
#613 = CARTESIAN_POINT('',(2.104727062237E+03,34.01364157435,
    2.266918288142E+03));
#614 = CARTESIAN_POINT('',(2.104756725451E+03,32.125248174781,
    2.267842167633E+03));
#615 = CARTESIAN_POINT('',(2.104785111893E+03,30.188222304239,
    2.268713380134E+03));
#616 = CARTESIAN_POINT('',(2.104812023553E+03,28.204009729361,
    2.269528592976E+03));
#617 = CARTESIAN_POINT('',(2.104874727914E+03,23.161550212592,
    2.271406425061E+03));
#618 = CARTESIAN_POINT('',(2.104908570754E+03,20.043656401917,
    2.272399490443E+03));
#619 = CARTESIAN_POINT('',(2.104938015321E+03,16.834724652259,
    2.273248595252E+03));
#620 = CARTESIAN_POINT('',(2.104962365574E+03,13.550274137432,
    2.27394137696E+03));
#621 = CARTESIAN_POINT('',(2.104981053592E+03,10.206918929038,
    2.274468243831E+03));
#622 = CARTESIAN_POINT('',(2.104993673096E+03,6.822093034099,
    2.274822420606E+03));
#623 = CARTESIAN_POINT('',(2.105E+03,3.413744701897,2.275E+03));
#624 = CARTESIAN_POINT('',(2.105E+03,7.809444521952E-14,2.275E+03));
#625 = PCURVE('',#66,#626);
#626 = DEFINITIONAL_REPRESENTATION('',(#627),#658);
#627 = B_SPLINE_CURVE_WITH_KNOTS('',8,(#628,#629,#630,#631,#632,#633,
    #634,#635,#636,#637,#638,#639,#640,#641,#642,#643,#644,#645,#646,
    #647,#648,#649,#650,#651,#652,#653,#654,#655,#656,#657),
  .UNSPECIFIED.,.F.,.F.,(9,7,7,7,9),(0.,0.51443039106,0.681804338279,
    0.809890317372,1.),.UNSPECIFIED.);
#628 = CARTESIAN_POINT('',(3.563699634028E-02,1.42E+03));
#629 = CARTESIAN_POINT('',(3.563699634028E-02,1.426517016172E+03));
#630 = CARTESIAN_POINT('',(3.532934999695E-02,1.433025944333E+03));
#631 = CARTESIAN_POINT('',(3.471539187558E-02,1.439496238215E+03));
#632 = CARTESIAN_POINT('',(3.378969245671E-02,1.445894941339E+03));
#633 = CARTESIAN_POINT('',(3.254127963238E-02,1.452180462246E+03));
#634 = CARTESIAN_POINT('',(3.09547723602E-02,1.458296878361E+03));
#635 = CARTESIAN_POINT('',(2.901160238309E-02,1.464168051841E+03));
#636 = CARTESIAN_POINT('',(2.593787680257E-02,1.471481404534E+03));
#637 = CARTESIAN_POINT('',(2.514323173811E-02,1.473240027236E+03));
#638 = CARTESIAN_POINT('',(2.43079458735E-02,1.474957787418E+03));
#639 = CARTESIAN_POINT('',(2.343150342571E-02,1.476630201326E+03));
#640 = CARTESIAN_POINT('',(2.251344490032E-02,1.478252424066E+03));
#641 = CARTESIAN_POINT('',(2.155338445176E-02,1.479819218349E+03));
#642 = CARTESIAN_POINT('',(2.055102724363E-02,1.481324923238E+03));
#643 = CARTESIAN_POINT('',(1.870660352672E-02,1.483864261099E+03));
#644 = CARTESIAN_POINT('',(1.788198596288E-02,1.484925954381E+03));
#645 = CARTESIAN_POINT('',(1.703269905402E-02,1.485945093424E+03));
#646 = CARTESIAN_POINT('',(1.615918826431E-02,1.486918288142E+03));
#647 = CARTESIAN_POINT('',(1.52619795507E-02,1.487842167633E+03));
#648 = CARTESIAN_POINT('',(1.434167932807E-02,1.488713380134E+03));
#649 = CARTESIAN_POINT('',(1.339897443441E-02,1.489528592976E+03));
#650 = CARTESIAN_POINT('',(1.100332152485E-02,1.491406425061E+03));
#651 = CARTESIAN_POINT('',(9.522051409718E-03,1.492399490443E+03));
#652 = CARTESIAN_POINT('',(7.997557740985E-03,1.493248595252E+03));
#653 = CARTESIAN_POINT('',(6.437210776144E-03,1.49394137696E+03));
#654 = CARTESIAN_POINT('',(4.84889909364E-03,1.494468243831E+03));
#655 = CARTESIAN_POINT('',(3.240899308511E-03,1.494822420606E+03));
#656 = CARTESIAN_POINT('',(1.621731449832E-03,1.495E+03));
#657 = CARTESIAN_POINT('',(0.,1.495E+03));
#658 = ( GEOMETRIC_REPRESENTATION_CONTEXT(2) 
PARAMETRIC_REPRESENTATION_CONTEXT() REPRESENTATION_CONTEXT('2D SPACE',''
  ) );
#659 = PCURVE('',#660,#665);
#660 = CYLINDRICAL_SURFACE('',#661,75.);
#661 = AXIS2_PLACEMENT_3D('',#662,#663,#664);
#662 = CARTESIAN_POINT('',(2.105E+03,0.,2.2E+03));
#663 = DIRECTION('',(1.,0.,0.));
#664 = DIRECTION('',(0.,1.,0.));
#665 = DEFINITIONAL_REPRESENTATION('',(#666),#697);
#666 = B_SPLINE_CURVE_WITH_KNOTS('',8,(#667,#668,#669,#670,#671,#672,
    #673,#674,#675,#676,#677,#678,#679,#680,#681,#682,#683,#684,#685,
    #686,#687,#688,#689,#690,#691,#692,#693,#694,#695,#696),
  .UNSPECIFIED.,.F.,.F.,(9,7,7,7,9),(0.,0.51443039106,0.681804338279,
    0.809890317372,1.),.UNSPECIFIED.);
#667 = CARTESIAN_POINT('',(0.,-1.336528814554));
#668 = CARTESIAN_POINT('',(8.689354896136E-02,-1.336528814554));
#669 = CARTESIAN_POINT('',(0.173679289357,-1.313455247631));
#670 = CARTESIAN_POINT('',(0.260949445245,-1.267408924617));
#671 = CARTESIAN_POINT('',(0.349254872062,-1.199094842434));
#672 = CARTESIAN_POINT('',(0.439136515773,-1.109903102531));
#673 = CARTESIAN_POINT('',(0.531152840791,-1.002243759071));
#674 = CARTESIAN_POINT('',(0.625907162254,-0.880140006239));
#675 = CARTESIAN_POINT('',(0.756082221564,-0.707455320156));
#676 = CARTESIAN_POINT('',(0.788417207396,-0.664180878656));
#677 = CARTESIAN_POINT('',(0.821149638089,-0.620246608949));
#678 = CARTESIAN_POINT('',(0.854298963578,-0.575903218586));
#679 = CARTESIAN_POINT('',(0.887885647886,-0.531429767503));
#680 = CARTESIAN_POINT('',(0.921931447628,-0.487134119714));
#681 = CARTESIAN_POINT('',(0.956459690501,-0.443353395006));
#682 = CARTESIAN_POINT('',(1.018307389969,-0.36762519466));
#683 = CARTESIAN_POINT('',(1.045421707802,-0.335305930455));
#684 = CARTESIAN_POINT('',(1.072834462983,-0.303679972924));
#685 = CARTESIAN_POINT('',(1.10054260246,-0.272937762502));
#686 = CARTESIAN_POINT('',(1.128544080637,-0.243274549231));
#687 = CARTESIAN_POINT('',(1.156837875571,-0.214888106835));
#688 = CARTESIAN_POINT('',(1.185424005174,-0.1879764468));
#689 = CARTESIAN_POINT('',(1.257167562462,-0.125272086032));
#690 = CARTESIAN_POINT('',(1.300746637084,-9.14292458394E-02));
#691 = CARTESIAN_POINT('',(1.34491336686,-6.198467932559E-02));
#692 = CARTESIAN_POINT('',(1.389553137726,-3.763442641533E-02));
#693 = CARTESIAN_POINT('',(1.434560374235,-1.894640819465E-02));
#694 = CARTESIAN_POINT('',(1.479835089207,-6.326904441424E-03));
#695 = CARTESIAN_POINT('',(1.52527973077,-1.665334536938E-16));
#696 = CARTESIAN_POINT('',(1.570796326795,0.));
#697 = ( GEOMETRIC_REPRESENTATION_CONTEXT(2) 
PARAMETRIC_REPRESENTATION_CONTEXT() REPRESENTATION_CONTEXT('2D SPACE',''
  ) );
#698 = ORIENTED_EDGE('',*,*,#699,.F.);
#699 = EDGE_CURVE('',#312,#591,#700,.T.);
#700 = SURFACE_CURVE('',#701,(#732,#766),.PCURVE_S1.);
#701 = B_SPLINE_CURVE_WITH_KNOTS('',8,(#702,#703,#704,#705,#706,#707,
    #708,#709,#710,#711,#712,#713,#714,#715,#716,#717,#718,#719,#720,
    #721,#722,#723,#724,#725,#726,#727,#728,#729,#730,#731),
  .UNSPECIFIED.,.F.,.F.,(9,7,7,7,9),(0.,0.1962787932,0.318184203322,
    0.485561045879,1.),.UNSPECIFIED.);
#702 = CARTESIAN_POINT('',(2.105E+03,1.263381247098E-13,2.125E+03));
#703 = CARTESIAN_POINT('',(2.105E+03,3.525145221133,2.125E+03));
#704 = CARTESIAN_POINT('',(2.104993253456E+03,7.044032920656,
    2.125189358362E+03));
#705 = CARTESIAN_POINT('',(2.104979801407E+03,10.536917256251,
    2.125566899219E+03));
#706 = CARTESIAN_POINT('',(2.104959898593E+03,13.984262199282,
    2.126128184936E+03));
#707 = CARTESIAN_POINT('',(2.104934004036E+03,17.367129801691,
    2.12686558379E+03));
#708 = CARTESIAN_POINT('',(2.104902756498E+03,20.667531643774,
    2.127768330591E+03));
#709 = CARTESIAN_POINT('',(2.104866934803E+03,23.868743462851,
    2.128822580232E+03));
#710 = CARTESIAN_POINT('',(2.104802850521E+03,28.872766317605,
    2.130749843495E+03));
#711 = CARTESIAN_POINT('',(2.104776837454E+03,30.748131652467,
    2.131541049188E+03));
#712 = CARTESIAN_POINT('',(2.104749533135E+03,32.580360410763,
    2.132382210909E+03));
#713 = CARTESIAN_POINT('',(2.104721107929E+03,34.368271374353,
    2.133270458764E+03));
#714 = CARTESIAN_POINT('',(2.104691731528E+03,36.110820657414,
    2.134202913268E+03));
#715 = CARTESIAN_POINT('',(2.10466157122E+03,37.807101700265,
    2.135176685303E+03));
#716 = CARTESIAN_POINT('',(2.104630790147E+03,39.456345263177,
    2.136188876082E+03));
#717 = CARTESIAN_POINT('',(2.104556646605E+03,43.25689012427,
    2.138675076762E+03));
#718 = CARTESIAN_POINT('',(2.10451286588E+03,45.36639941298,
    2.140180781651E+03));
#719 = CARTESIAN_POINT('',(2.104468570232E+03,47.386843389037,
    2.141747575934E+03));
#720 = CARTESIAN_POINT('',(2.104424096781E+03,49.3188469561,
    2.143369798674E+03));
#721 = CARTESIAN_POINT('',(2.104379753391E+03,51.163227071728,
    2.145042212582E+03));
#722 = CARTESIAN_POINT('',(2.104335819121E+03,52.920956000323,
    2.146759972764E+03));
#723 = CARTESIAN_POINT('',(2.10429254468E+03,54.593124566079,
    2.148518595466E+03));
#724 = CARTESIAN_POINT('',(2.104119860079E+03,61.061008902586,
    2.155831944557E+03));
#725 = CARTESIAN_POINT('',(2.103997756267E+03,65.149582115111,
    2.161703119613E+03));
#726 = CARTESIAN_POINT('',(2.103890096851E+03,68.487457338862,
    2.167819539189E+03));
#727 = CARTESIAN_POINT('',(2.103800905098E+03,71.113856286555,
    2.174105062592E+03));
#728 = CARTESIAN_POINT('',(2.103732591046E+03,73.061255147305,
    2.180503766017E+03));
#729 = CARTESIAN_POINT('',(2.103686544757E+03,74.352815513656,
    2.186974057841E+03));
#730 = CARTESIAN_POINT('',(2.103663471185E+03,75.,2.193482983244E+03));
#731 = CARTESIAN_POINT('',(2.103663471185E+03,75.,2.2E+03));
#732 = PCURVE('',#66,#733);
#733 = DEFINITIONAL_REPRESENTATION('',(#734),#765);
#734 = B_SPLINE_CURVE_WITH_KNOTS('',8,(#735,#736,#737,#738,#739,#740,
    #741,#742,#743,#744,#745,#746,#747,#748,#749,#750,#751,#752,#753,
    #754,#755,#756,#757,#758,#759,#760,#761,#762,#763,#764),
  .UNSPECIFIED.,.F.,.F.,(9,7,7,7,9),(0.,0.1962787932,0.318184203322,
    0.485561045879,1.),.UNSPECIFIED.);
#735 = CARTESIAN_POINT('',(0.,1.345E+03));
#736 = CARTESIAN_POINT('',(1.674653311702E-03,1.345E+03));
#737 = CARTESIAN_POINT('',(3.346333934869E-03,1.345189358362E+03));
#738 = CARTESIAN_POINT('',(5.005668550765E-03,1.345566899219E+03));
#739 = CARTESIAN_POINT('',(6.643383485955E-03,1.346128184936E+03));
#740 = CARTESIAN_POINT('',(8.250488157294E-03,1.34686558379E+03));
#741 = CARTESIAN_POINT('',(9.818441343398E-03,1.347768330591E+03));
#742 = CARTESIAN_POINT('',(1.133930028259E-02,1.348822580232E+03));
#743 = CARTESIAN_POINT('',(1.371670322192E-02,1.350749843495E+03));
#744 = CARTESIAN_POINT('',(1.460769831645E-02,1.351541049188E+03));
#745 = CARTESIAN_POINT('',(1.547821166566E-02,1.352382210909E+03));
#746 = CARTESIAN_POINT('',(1.632768206724E-02,1.353270458764E+03));
#747 = CARTESIAN_POINT('',(1.715561335332E-02,1.354202913268E+03));
#748 = CARTESIAN_POINT('',(1.796157441202E-02,1.355176685303E+03));
#749 = CARTESIAN_POINT('',(1.874519920899E-02,1.356188876082E+03));
#750 = CARTESIAN_POINT('',(2.055102724363E-02,1.358675076762E+03));
#751 = CARTESIAN_POINT('',(2.155338445176E-02,1.360180781651E+03));
#752 = CARTESIAN_POINT('',(2.251344490032E-02,1.361747575934E+03));
#753 = CARTESIAN_POINT('',(2.343150342571E-02,1.363369798674E+03));
#754 = CARTESIAN_POINT('',(2.43079458735E-02,1.365042212582E+03));
#755 = CARTESIAN_POINT('',(2.514323173811E-02,1.366759972764E+03));
#756 = CARTESIAN_POINT('',(2.593787680257E-02,1.368518595466E+03));
#757 = CARTESIAN_POINT('',(2.901160086892E-02,1.375831944557E+03));
#758 = CARTESIAN_POINT('',(3.095477219036E-02,1.381703119613E+03));
#759 = CARTESIAN_POINT('',(3.254128030365E-02,1.387819539189E+03));
#760 = CARTESIAN_POINT('',(3.378969327827E-02,1.394105062593E+03));
#761 = CARTESIAN_POINT('',(3.471539225481E-02,1.400503766017E+03));
#762 = CARTESIAN_POINT('',(3.532934994352E-02,1.406974057841E+03));
#763 = CARTESIAN_POINT('',(3.563699634028E-02,1.413482983244E+03));
#764 = CARTESIAN_POINT('',(3.563699634028E-02,1.42E+03));
#765 = ( GEOMETRIC_REPRESENTATION_CONTEXT(2) 
PARAMETRIC_REPRESENTATION_CONTEXT() REPRESENTATION_CONTEXT('2D SPACE',''
  ) );
#766 = PCURVE('',#767,#772);
#767 = CYLINDRICAL_SURFACE('',#768,75.);
#768 = AXIS2_PLACEMENT_3D('',#769,#770,#771);
#769 = CARTESIAN_POINT('',(2.105E+03,0.,2.2E+03));
#770 = DIRECTION('',(1.,0.,0.));
#771 = DIRECTION('',(0.,1.,0.));
#772 = DEFINITIONAL_REPRESENTATION('',(#773),#804);
#773 = B_SPLINE_CURVE_WITH_KNOTS('',8,(#774,#775,#776,#777,#778,#779,
    #780,#781,#782,#783,#784,#785,#786,#787,#788,#789,#790,#791,#792,
    #793,#794,#795,#796,#797,#798,#799,#800,#801,#802,#803),
  .UNSPECIFIED.,.F.,.F.,(9,7,7,7,9),(0.,0.1962787932,0.318184203322,
    0.485561045879,1.),.UNSPECIFIED.);
#774 = CARTESIAN_POINT('',(4.712388980385,0.));
#775 = CARTESIAN_POINT('',(4.759390916666,-1.665334536938E-16));
#776 = CARTESIAN_POINT('',(4.806309415761,-6.746544438865E-03));
#777 = CARTESIAN_POINT('',(4.853039443656,-2.019859300723E-02));
#778 = CARTESIAN_POINT('',(4.899476351268,-4.010140691405E-02));
#779 = CARTESIAN_POINT('',(4.945512643055,-6.599596352859E-02));
#780 = CARTESIAN_POINT('',(4.991034383174,-9.724350161297E-02));
#781 = CARTESIAN_POINT('',(5.035917239175,-0.133065197145));
#782 = CARTESIAN_POINT('',(5.107414979206,-0.197149479313));
#783 = CARTESIAN_POINT('',(5.134540585162,-0.223162545822));
#784 = CARTESIAN_POINT('',(5.161400171836,-0.250466865025));
#785 = CARTESIAN_POINT('',(5.187994059011,-0.278892071254));
#786 = CARTESIAN_POINT('',(5.214321717458,-0.308268471655));
#787 = CARTESIAN_POINT('',(5.240381790861,-0.338428780428));
#788 = CARTESIAN_POINT('',(5.266172117744,-0.369209853073));
#789 = CARTESIAN_POINT('',(5.326725616678,-0.443353395006));
#790 = CARTESIAN_POINT('',(5.361253859552,-0.487134119715));
#791 = CARTESIAN_POINT('',(5.395299659293,-0.531429767503));
#792 = CARTESIAN_POINT('',(5.428886343602,-0.575903218586));
#793 = CARTESIAN_POINT('',(5.46203566909,-0.620246608949));
#794 = CARTESIAN_POINT('',(5.494768099784,-0.664180878656));
#795 = CARTESIAN_POINT('',(5.527103085616,-0.707455320156));
#796 = CARTESIAN_POINT('',(5.657278080799,-0.880139921172));
#797 = CARTESIAN_POINT('',(5.752032442968,-1.002243732855));
#798 = CARTESIAN_POINT('',(5.844048815547,-1.10990314903));
#799 = CARTESIAN_POINT('',(5.933930491253,-1.199094902234));
#800 = CARTESIAN_POINT('',(6.022235917877,-1.26740895394));
#801 = CARTESIAN_POINT('',(6.109506046863,-1.31345524344));
#802 = CARTESIAN_POINT('',(6.196291750438,-1.336528814554));
#803 = CARTESIAN_POINT('',(6.28318530718,-1.336528814554));
#804 = ( GEOMETRIC_REPRESENTATION_CONTEXT(2) 
PARAMETRIC_REPRESENTATION_CONTEXT() REPRESENTATION_CONTEXT('2D SPACE',''
  ) );
#805 = ORIENTED_EDGE('',*,*,#311,.F.);
#806 = ORIENTED_EDGE('',*,*,#807,.F.);
#807 = EDGE_CURVE('',#808,#107,#810,.T.);
#808 = VERTEX_POINT('',#809);
#809 = CARTESIAN_POINT('',(2.103663471185E+03,75.,900.));
#810 = SURFACE_CURVE('',#811,(#842,#876),.PCURVE_S1.);
#811 = B_SPLINE_CURVE_WITH_KNOTS('',8,(#812,#813,#814,#815,#816,#817,
    #818,#819,#820,#821,#822,#823,#824,#825,#826,#827,#828,#829,#830,
    #831,#832,#833,#834,#835,#836,#837,#838,#839,#840,#841),
  .UNSPECIFIED.,.F.,.F.,(9,7,7,7,9),(0.,0.514430391127,0.681804338384,
    0.809890317502,1.),.UNSPECIFIED.);
#812 = CARTESIAN_POINT('',(2.103663471185E+03,75.,900.));
#813 = CARTESIAN_POINT('',(2.103663471185E+03,75.,906.51701617267));
#814 = CARTESIAN_POINT('',(2.103686544752E+03,74.352815626452,
    913.0259443309));
#815 = CARTESIAN_POINT('',(2.103732591075E+03,73.061254347972,
    919.49623822044));
#816 = CARTESIAN_POINT('',(2.103800905157E+03,71.113854561108,
    925.894941332));
#817 = CARTESIAN_POINT('',(2.103890096898E+03,68.487455923633,
    932.1804622511));
#818 = CARTESIAN_POINT('',(2.103997756241E+03,65.149582473714,
    938.29687835814));
#819 = CARTESIAN_POINT('',(2.104119859994E+03,61.061012088323,
    944.16805184118));
#820 = CARTESIAN_POINT('',(2.10429254468E+03,54.593124566079,
    951.48140453395));
#821 = CARTESIAN_POINT('',(2.104335819121E+03,52.920956000325,
    953.24002723636));
#822 = CARTESIAN_POINT('',(2.104379753391E+03,51.16322707173,
    954.95778741788));
#823 = CARTESIAN_POINT('',(2.104424096781E+03,49.3188469561,
    956.63020132556));
#824 = CARTESIAN_POINT('',(2.104468570232E+03,47.386843389035,
    958.25242406569));
#825 = CARTESIAN_POINT('',(2.10451286588E+03,45.366399412979,
    959.81921834939));
#826 = CARTESIAN_POINT('',(2.104556646605E+03,43.256890124272,
    961.32492323829));
#827 = CARTESIAN_POINT('',(2.104632374805E+03,39.375116807849,
    963.86426109932));
#828 = CARTESIAN_POINT('',(2.10466469407E+03,37.63959706105,
    964.92595438111));
#829 = CARTESIAN_POINT('',(2.104696320027E+03,35.852126567958,
    965.94509342358));
#830 = CARTESIAN_POINT('',(2.104727062237E+03,34.013641574304,
    966.91828814174));
#831 = CARTESIAN_POINT('',(2.104756725451E+03,32.125248174753,
    967.84216763328));
#832 = CARTESIAN_POINT('',(2.104785111893E+03,30.188222304257,
    968.71338013439));
#833 = CARTESIAN_POINT('',(2.104812023553E+03,28.204009729415,
    969.52859297553));
#834 = CARTESIAN_POINT('',(2.104874727914E+03,23.161550215173,
    971.40642505993));
#835 = CARTESIAN_POINT('',(2.104908570754E+03,20.043656397179,
    972.39949044421));
#836 = CARTESIAN_POINT('',(2.104938015321E+03,16.834724652426,
    973.24859525249));
#837 = CARTESIAN_POINT('',(2.104962365574E+03,13.550274141951,
    973.9413769596));
#838 = CARTESIAN_POINT('',(2.104981053592E+03,10.206918928926,
    974.4682438304));
#839 = CARTESIAN_POINT('',(2.104993673096E+03,6.822093029212,
    974.82242060623));
#840 = CARTESIAN_POINT('',(2.105E+03,3.413744704778,975.));
#841 = CARTESIAN_POINT('',(2.105E+03,7.809444521952E-14,975.));
#842 = PCURVE('',#66,#843);
#843 = DEFINITIONAL_REPRESENTATION('',(#844),#875);
#844 = B_SPLINE_CURVE_WITH_KNOTS('',8,(#845,#846,#847,#848,#849,#850,
    #851,#852,#853,#854,#855,#856,#857,#858,#859,#860,#861,#862,#863,
    #864,#865,#866,#867,#868,#869,#870,#871,#872,#873,#874),
  .UNSPECIFIED.,.F.,.F.,(9,7,7,7,9),(0.,0.514430391127,0.681804338384,
    0.809890317502,1.),.UNSPECIFIED.);
#845 = CARTESIAN_POINT('',(3.563699634028E-02,120.));
#846 = CARTESIAN_POINT('',(3.563699634028E-02,126.51701617267));
#847 = CARTESIAN_POINT('',(3.532934999714E-02,133.0259443309));
#848 = CARTESIAN_POINT('',(3.471539187481E-02,139.49623822043));
#849 = CARTESIAN_POINT('',(3.37896924581E-02,145.89494133201));
#850 = CARTESIAN_POINT('',(3.254127963099E-02,152.18046225109));
#851 = CARTESIAN_POINT('',(3.095477236099E-02,158.29687835814));
#852 = CARTESIAN_POINT('',(2.901160238287E-02,164.16805184118));
#853 = CARTESIAN_POINT('',(2.593787680257E-02,171.48140453395));
#854 = CARTESIAN_POINT('',(2.514323173811E-02,173.24002723636));
#855 = CARTESIAN_POINT('',(2.43079458735E-02,174.95778741788));
#856 = CARTESIAN_POINT('',(2.343150342571E-02,176.63020132556));
#857 = CARTESIAN_POINT('',(2.251344490032E-02,178.25242406569));
#858 = CARTESIAN_POINT('',(2.155338445176E-02,179.81921834939));
#859 = CARTESIAN_POINT('',(2.055102724363E-02,181.32492323829));
#860 = CARTESIAN_POINT('',(1.870660352674E-02,183.86426109932));
#861 = CARTESIAN_POINT('',(1.788198596289E-02,184.92595438111));
#862 = CARTESIAN_POINT('',(1.703269905401E-02,185.94509342358));
#863 = CARTESIAN_POINT('',(1.615918826429E-02,186.91828814174));
#864 = CARTESIAN_POINT('',(1.526197955069E-02,187.84216763328));
#865 = CARTESIAN_POINT('',(1.434167932808E-02,188.71338013439));
#866 = CARTESIAN_POINT('',(1.339897443443E-02,189.52859297553));
#867 = CARTESIAN_POINT('',(1.100332152607E-02,191.40642505993));
#868 = CARTESIAN_POINT('',(9.522051407467E-03,192.39949044421));
#869 = CARTESIAN_POINT('',(7.997557741064E-03,193.24859525249));
#870 = CARTESIAN_POINT('',(6.43721077829E-03,193.9413769596));
#871 = CARTESIAN_POINT('',(4.848899093587E-03,194.4682438304));
#872 = CARTESIAN_POINT('',(3.240899306189E-03,194.82242060623));
#873 = CARTESIAN_POINT('',(1.621731451201E-03,195.));
#874 = CARTESIAN_POINT('',(0.,195.));
#875 = ( GEOMETRIC_REPRESENTATION_CONTEXT(2) 
PARAMETRIC_REPRESENTATION_CONTEXT() REPRESENTATION_CONTEXT('2D SPACE',''
  ) );
#876 = PCURVE('',#877,#882);
#877 = CYLINDRICAL_SURFACE('',#878,75.);
#878 = AXIS2_PLACEMENT_3D('',#879,#880,#881);
#879 = CARTESIAN_POINT('',(2.105E+03,0.,900.));
#880 = DIRECTION('',(1.,0.,0.));
#881 = DIRECTION('',(0.,1.,0.));
#882 = DEFINITIONAL_REPRESENTATION('',(#883),#914);
#883 = B_SPLINE_CURVE_WITH_KNOTS('',8,(#884,#885,#886,#887,#888,#889,
    #890,#891,#892,#893,#894,#895,#896,#897,#898,#899,#900,#901,#902,
    #903,#904,#905,#906,#907,#908,#909,#910,#911,#912,#913),
  .UNSPECIFIED.,.F.,.F.,(9,7,7,7,9),(0.,0.514430391127,0.681804338384,
    0.809890317502,1.),.UNSPECIFIED.);
#884 = CARTESIAN_POINT('',(0.,-1.336528814554));
#885 = CARTESIAN_POINT('',(8.689354896896E-02,-1.336528814554));
#886 = CARTESIAN_POINT('',(0.173679289321,-1.313455247643));
#887 = CARTESIAN_POINT('',(0.260949445327,-1.26740892457));
#888 = CARTESIAN_POINT('',(0.349254871955,-1.199094842516));
#889 = CARTESIAN_POINT('',(0.439136515859,-1.10990310245));
#890 = CARTESIAN_POINT('',(0.53115284075,-1.002243759116));
#891 = CARTESIAN_POINT('',(0.625907162264,-0.880140006227));
#892 = CARTESIAN_POINT('',(0.756082221564,-0.707455320156));
#893 = CARTESIAN_POINT('',(0.788417207396,-0.664180878656));
#894 = CARTESIAN_POINT('',(0.821149638089,-0.620246608949));
#895 = CARTESIAN_POINT('',(0.854298963578,-0.575903218586));
#896 = CARTESIAN_POINT('',(0.887885647886,-0.531429767503));
#897 = CARTESIAN_POINT('',(0.921931447628,-0.487134119714));
#898 = CARTESIAN_POINT('',(0.956459690501,-0.443353395006));
#899 = CARTESIAN_POINT('',(1.018307389968,-0.367625194661));
#900 = CARTESIAN_POINT('',(1.045421707802,-0.335305930455));
#901 = CARTESIAN_POINT('',(1.072834462983,-0.303679972923));
#902 = CARTESIAN_POINT('',(1.100542602461,-0.272937762502));
#903 = CARTESIAN_POINT('',(1.128544080637,-0.243274549231));
#904 = CARTESIAN_POINT('',(1.156837875571,-0.214888106835));
#905 = CARTESIAN_POINT('',(1.185424005173,-0.187976446801));
#906 = CARTESIAN_POINT('',(1.257167562425,-0.125272086064));
#907 = CARTESIAN_POINT('',(1.300746637149,-9.14292458032E-02));
#908 = CARTESIAN_POINT('',(1.344913366858,-6.198467931127E-02));
#909 = CARTESIAN_POINT('',(1.389553137664,-3.763442644219E-02));
#910 = CARTESIAN_POINT('',(1.434560374236,-1.894640820943E-02));
#911 = CARTESIAN_POINT('',(1.479835089273,-6.326904420568E-03));
#912 = CARTESIAN_POINT('',(1.525279730731,-1.665334536938E-16));
#913 = CARTESIAN_POINT('',(1.570796326795,0.));
#914 = ( GEOMETRIC_REPRESENTATION_CONTEXT(2) 
PARAMETRIC_REPRESENTATION_CONTEXT() REPRESENTATION_CONTEXT('2D SPACE',''
  ) );
#915 = ORIENTED_EDGE('',*,*,#916,.F.);
#916 = EDGE_CURVE('',#84,#808,#917,.T.);
#917 = SURFACE_CURVE('',#918,(#949,#983),.PCURVE_S1.);
#918 = B_SPLINE_CURVE_WITH_KNOTS('',8,(#919,#920,#921,#922,#923,#924,
    #925,#926,#927,#928,#929,#930,#931,#932,#933,#934,#935,#936,#937,
    #938,#939,#940,#941,#942,#943,#944,#945,#946,#947,#948),
  .UNSPECIFIED.,.F.,.F.,(9,7,7,7,9),(0.,0.196278792187,0.318184201794,
    0.485561047299,1.),.UNSPECIFIED.);
#919 = CARTESIAN_POINT('',(2.105E+03,1.263381247098E-13,825.));
#920 = CARTESIAN_POINT('',(2.105E+03,3.525145224559,825.));
#921 = CARTESIAN_POINT('',(2.104993253456E+03,7.044032914801,
    825.18935836086));
#922 = CARTESIAN_POINT('',(2.104979801407E+03,10.53691725608,
    825.56689921987));
#923 = CARTESIAN_POINT('',(2.104959898593E+03,13.984262204697,
    826.1281849374));
#924 = CARTESIAN_POINT('',(2.104934004036E+03,17.367129801998,
    826.8655837899));
#925 = CARTESIAN_POINT('',(2.104902756498E+03,20.667531638177,
    827.76833058989));
#926 = CARTESIAN_POINT('',(2.104866934803E+03,23.868743465764,
    828.82258023299));
#927 = CARTESIAN_POINT('',(2.104802850521E+03,28.872766317605,
    830.74984349492));
#928 = CARTESIAN_POINT('',(2.104776837454E+03,30.748131652467,
    831.54104918766));
#929 = CARTESIAN_POINT('',(2.104749533135E+03,32.580360410763,
    832.38221090883));
#930 = CARTESIAN_POINT('',(2.104721107929E+03,34.368271374352,
    833.27045876424));
#931 = CARTESIAN_POINT('',(2.104691731528E+03,36.110820657414,
    834.20291326781));
#932 = CARTESIAN_POINT('',(2.10466157122E+03,37.807101700264,
    835.17668530261));
#933 = CARTESIAN_POINT('',(2.104630790147E+03,39.456345263177,
    836.18887608185));
#934 = CARTESIAN_POINT('',(2.104556646604E+03,43.256890172278,
    838.67507679311));
#935 = CARTESIAN_POINT('',(2.104512865881E+03,45.36639939257,
    840.18078162929));
#936 = CARTESIAN_POINT('',(2.104468570233E+03,47.386843344778,
    841.74757590089));
#937 = CARTESIAN_POINT('',(2.104424096781E+03,49.318846949921,
    843.36979867697));
#938 = CARTESIAN_POINT('',(2.10437975339E+03,51.163227109186,
    845.04221261827));
#939 = CARTESIAN_POINT('',(2.104335819121E+03,52.920956026777,
    846.75997278229));
#940 = CARTESIAN_POINT('',(2.104292544681E+03,54.593124532762,
    848.51859542837));
#941 = CARTESIAN_POINT('',(2.104119860079E+03,61.061008905571,
    855.83194456001));
#942 = CARTESIAN_POINT('',(2.103997756267E+03,65.149582104104,
    861.70311959679));
#943 = CARTESIAN_POINT('',(2.10389009685E+03,68.487457358278,
    867.81953922516));
#944 = CARTESIAN_POINT('',(2.103800905098E+03,71.113856267163,
    874.1050625449));
#945 = CARTESIAN_POINT('',(2.103732591046E+03,73.061255158162,
    880.50376605481));
#946 = CARTESIAN_POINT('',(2.103686544757E+03,74.352815510877,
    886.97405782352));
#947 = CARTESIAN_POINT('',(2.103663471185E+03,75.,893.48298324821));
#948 = CARTESIAN_POINT('',(2.103663471185E+03,75.,900.));
#949 = PCURVE('',#66,#950);
#950 = DEFINITIONAL_REPRESENTATION('',(#951),#982);
#951 = B_SPLINE_CURVE_WITH_KNOTS('',8,(#952,#953,#954,#955,#956,#957,
    #958,#959,#960,#961,#962,#963,#964,#965,#966,#967,#968,#969,#970,
    #971,#972,#973,#974,#975,#976,#977,#978,#979,#980,#981),
  .UNSPECIFIED.,.F.,.F.,(9,7,7,7,9),(0.,0.196278792187,0.318184201794,
    0.485561047299,1.),.UNSPECIFIED.);
#952 = CARTESIAN_POINT('',(0.,45.));
#953 = CARTESIAN_POINT('',(1.67465331333E-03,45.));
#954 = CARTESIAN_POINT('',(3.346333932087E-03,45.189358360868));
#955 = CARTESIAN_POINT('',(5.005668550684E-03,45.566899219879));
#956 = CARTESIAN_POINT('',(6.643383488527E-03,46.128184937406));
#957 = CARTESIAN_POINT('',(8.25048815744E-03,46.865583789902));
#958 = CARTESIAN_POINT('',(9.818441340739E-03,47.768330589896));
#959 = CARTESIAN_POINT('',(1.133930028397E-02,48.822580232993));
#960 = CARTESIAN_POINT('',(1.371670322192E-02,50.749843494926));
#961 = CARTESIAN_POINT('',(1.460769831645E-02,51.541049187668));
#962 = CARTESIAN_POINT('',(1.547821166566E-02,52.382210908834));
#963 = CARTESIAN_POINT('',(1.632768206724E-02,53.27045876424));
#964 = CARTESIAN_POINT('',(1.715561335332E-02,54.202913267816));
#965 = CARTESIAN_POINT('',(1.796157441202E-02,55.176685302618));
#966 = CARTESIAN_POINT('',(1.874519920899E-02,56.18887608185));
#967 = CARTESIAN_POINT('',(2.055102726644E-02,58.675076793113));
#968 = CARTESIAN_POINT('',(2.155338444206E-02,60.180781629296));
#969 = CARTESIAN_POINT('',(2.251344487929E-02,61.747575900898));
#970 = CARTESIAN_POINT('',(2.343150342278E-02,63.36979867698));
#971 = CARTESIAN_POINT('',(2.43079458913E-02,65.042212618279));
#972 = CARTESIAN_POINT('',(2.514323175068E-02,66.759972782295));
#973 = CARTESIAN_POINT('',(2.593787678674E-02,68.518595428376));
#974 = CARTESIAN_POINT('',(2.901160087034E-02,75.831944560018));
#975 = CARTESIAN_POINT('',(3.095477218512E-02,81.703119596793));
#976 = CARTESIAN_POINT('',(3.254128031289E-02,87.819539225176));
#977 = CARTESIAN_POINT('',(3.378969326904E-02,94.105062544888));
#978 = CARTESIAN_POINT('',(3.471539225997E-02,100.50376605482));
#979 = CARTESIAN_POINT('',(3.53293499422E-02,106.97405782352));
#980 = CARTESIAN_POINT('',(3.563699634028E-02,113.48298324821));
#981 = CARTESIAN_POINT('',(3.563699634028E-02,120.));
#982 = ( GEOMETRIC_REPRESENTATION_CONTEXT(2) 
PARAMETRIC_REPRESENTATION_CONTEXT() REPRESENTATION_CONTEXT('2D SPACE',''
  ) );
#983 = PCURVE('',#984,#989);
#984 = CYLINDRICAL_SURFACE('',#985,75.);
#985 = AXIS2_PLACEMENT_3D('',#986,#987,#988);
#986 = CARTESIAN_POINT('',(2.105E+03,0.,900.));
#987 = DIRECTION('',(1.,0.,0.));
#988 = DIRECTION('',(0.,1.,0.));
#989 = DEFINITIONAL_REPRESENTATION('',(#990),#1021);
#990 = B_SPLINE_CURVE_WITH_KNOTS('',8,(#991,#992,#993,#994,#995,#996,
    #997,#998,#999,#1000,#1001,#1002,#1003,#1004,#1005,#1006,#1007,#1008
    ,#1009,#1010,#1011,#1012,#1013,#1014,#1015,#1016,#1017,#1018,#1019,
    #1020),.UNSPECIFIED.,.F.,.F.,(9,7,7,7,9),(0.,0.196278792187,
    0.318184201794,0.485561047299,1.),.UNSPECIFIED.);
#991 = CARTESIAN_POINT('',(4.712388980385,0.));
#992 = CARTESIAN_POINT('',(4.759390916712,-1.665334536938E-16));
#993 = CARTESIAN_POINT('',(4.806309415682,-6.746544413444E-03));
#994 = CARTESIAN_POINT('',(4.853039443655,-2.019859302483E-02));
#995 = CARTESIAN_POINT('',(4.899476351342,-4.010140694681E-02));
#996 = CARTESIAN_POINT('',(4.945512643058,-6.599596351217E-02));
#997 = CARTESIAN_POINT('',(4.991034383096,-9.724350156952E-02));
#998 = CARTESIAN_POINT('',(5.035917239217,-0.133065197183));
#999 = CARTESIAN_POINT('',(5.107414979206,-0.197149479313));
#1000 = CARTESIAN_POINT('',(5.134540585162,-0.223162545822));
#1001 = CARTESIAN_POINT('',(5.161400171837,-0.250466865025));
#1002 = CARTESIAN_POINT('',(5.187994059011,-0.278892071254));
#1003 = CARTESIAN_POINT('',(5.214321717458,-0.308268471655));
#1004 = CARTESIAN_POINT('',(5.240381790861,-0.338428780428));
#1005 = CARTESIAN_POINT('',(5.266172117744,-0.369209853073));
#1006 = CARTESIAN_POINT('',(5.326725617443,-0.443353395943));
#1007 = CARTESIAN_POINT('',(5.361253859158,-0.487134119192));
#1008 = CARTESIAN_POINT('',(5.39529965855,-0.531429766568));
#1009 = CARTESIAN_POINT('',(5.428886343561,-0.575903218565));
#1010 = CARTESIAN_POINT('',(5.462035669789,-0.62024660986));
#1011 = CARTESIAN_POINT('',(5.494768100216,-0.664180879197));
#1012 = CARTESIAN_POINT('',(5.527103084945,-0.707455319267));
#1013 = CARTESIAN_POINT('',(5.657278080859,-0.880139921251));
#1014 = CARTESIAN_POINT('',(5.752032442699,-1.002243732554));
#1015 = CARTESIAN_POINT('',(5.844048816123,-1.10990314957));
#1016 = CARTESIAN_POINT('',(5.933930490532,-1.199094901687));
#1017 = CARTESIAN_POINT('',(6.022235918426,-1.26740895425));
#1018 = CARTESIAN_POINT('',(6.10950604662,-1.31345524336));
#1019 = CARTESIAN_POINT('',(6.196291750489,-1.336528814554));
#1020 = CARTESIAN_POINT('',(6.28318530718,-1.336528814554));
#1021 = ( GEOMETRIC_REPRESENTATION_CONTEXT(2) 
PARAMETRIC_REPRESENTATION_CONTEXT() REPRESENTATION_CONTEXT('2D SPACE',''
  ) );
#1022 = ORIENTED_EDGE('',*,*,#83,.F.);
#1023 = ADVANCED_FACE('',(#1024),#984,.T.);
#1024 = FACE_BOUND('',#1025,.T.);
#1025 = EDGE_LOOP('',(#1026,#1049,#1075));
#1026 = ORIENTED_EDGE('',*,*,#1027,.F.);
#1027 = EDGE_CURVE('',#1028,#808,#1030,.T.);
#1028 = VERTEX_POINT('',#1029);
#1029 = CARTESIAN_POINT('',(2.105E+03,75.,900.));
#1030 = SURFACE_CURVE('',#1031,(#1035,#1042),.PCURVE_S1.);
#1031 = LINE('',#1032,#1033);
#1032 = CARTESIAN_POINT('',(2.105E+03,75.,900.));
#1033 = VECTOR('',#1034,1.);
#1034 = DIRECTION('',(-1.,-0.,-0.));
#1035 = PCURVE('',#984,#1036);
#1036 = DEFINITIONAL_REPRESENTATION('',(#1037),#1041);
#1037 = LINE('',#1038,#1039);
#1038 = CARTESIAN_POINT('',(6.28318530718,0.));
#1039 = VECTOR('',#1040,1.);
#1040 = DIRECTION('',(0.,-1.));
#1041 = ( GEOMETRIC_REPRESENTATION_CONTEXT(2) 
PARAMETRIC_REPRESENTATION_CONTEXT() REPRESENTATION_CONTEXT('2D SPACE',''
  ) );
#1042 = PCURVE('',#877,#1043);
#1043 = DEFINITIONAL_REPRESENTATION('',(#1044),#1048);
#1044 = LINE('',#1045,#1046);
#1045 = CARTESIAN_POINT('',(0.,0.));
#1046 = VECTOR('',#1047,1.);
#1047 = DIRECTION('',(0.,-1.));
#1048 = ( GEOMETRIC_REPRESENTATION_CONTEXT(2) 
PARAMETRIC_REPRESENTATION_CONTEXT() REPRESENTATION_CONTEXT('2D SPACE',''
  ) );
#1049 = ORIENTED_EDGE('',*,*,#1050,.F.);
#1050 = EDGE_CURVE('',#84,#1028,#1051,.T.);
#1051 = SURFACE_CURVE('',#1052,(#1057,#1063),.PCURVE_S1.);
#1052 = CIRCLE('',#1053,75.);
#1053 = AXIS2_PLACEMENT_3D('',#1054,#1055,#1056);
#1054 = CARTESIAN_POINT('',(2.105E+03,0.,900.));
#1055 = DIRECTION('',(1.,0.,0.));
#1056 = DIRECTION('',(0.,1.,0.));
#1057 = PCURVE('',#984,#1058);
#1058 = DEFINITIONAL_REPRESENTATION('',(#1059),#1062);
#1059 = B_SPLINE_CURVE_WITH_KNOTS('',1,(#1060,#1061),.UNSPECIFIED.,.F.,
  .F.,(2,2),(0.,6.28318530718),.PIECEWISE_BEZIER_KNOTS.);
#1060 = CARTESIAN_POINT('',(0.,0.));
#1061 = CARTESIAN_POINT('',(6.28318530718,0.));
#1062 = ( GEOMETRIC_REPRESENTATION_CONTEXT(2) 
PARAMETRIC_REPRESENTATION_CONTEXT() REPRESENTATION_CONTEXT('2D SPACE',''
  ) );
#1063 = PCURVE('',#1064,#1069);
#1064 = CYLINDRICAL_SURFACE('',#1065,75.);
#1065 = AXIS2_PLACEMENT_3D('',#1066,#1067,#1068);
#1066 = CARTESIAN_POINT('',(2.105E+03,0.,900.));
#1067 = DIRECTION('',(-1.,-0.,-0.));
#1068 = DIRECTION('',(0.,1.,0.));
#1069 = DEFINITIONAL_REPRESENTATION('',(#1070),#1074);
#1070 = LINE('',#1071,#1072);
#1071 = CARTESIAN_POINT('',(-0.,0.));
#1072 = VECTOR('',#1073,1.);
#1073 = DIRECTION('',(-1.,0.));
#1074 = ( GEOMETRIC_REPRESENTATION_CONTEXT(2) 
PARAMETRIC_REPRESENTATION_CONTEXT() REPRESENTATION_CONTEXT('2D SPACE',''
  ) );
#1075 = ORIENTED_EDGE('',*,*,#916,.T.);
#1076 = ADVANCED_FACE('',(#1077),#877,.T.);
#1077 = FACE_BOUND('',#1078,.T.);
#1078 = EDGE_LOOP('',(#1079,#1100,#1101));
#1079 = ORIENTED_EDGE('',*,*,#1080,.F.);
#1080 = EDGE_CURVE('',#1028,#107,#1081,.T.);
#1081 = SURFACE_CURVE('',#1082,(#1087,#1093),.PCURVE_S1.);
#1082 = CIRCLE('',#1083,75.);
#1083 = AXIS2_PLACEMENT_3D('',#1084,#1085,#1086);
#1084 = CARTESIAN_POINT('',(2.105E+03,0.,900.));
#1085 = DIRECTION('',(1.,0.,0.));
#1086 = DIRECTION('',(0.,1.,0.));
#1087 = PCURVE('',#877,#1088);
#1088 = DEFINITIONAL_REPRESENTATION('',(#1089),#1092);
#1089 = B_SPLINE_CURVE_WITH_KNOTS('',1,(#1090,#1091),.UNSPECIFIED.,.F.,
  .F.,(2,2),(0.,6.28318530718),.PIECEWISE_BEZIER_KNOTS.);
#1090 = CARTESIAN_POINT('',(0.,0.));
#1091 = CARTESIAN_POINT('',(6.28318530718,0.));
#1092 = ( GEOMETRIC_REPRESENTATION_CONTEXT(2) 
PARAMETRIC_REPRESENTATION_CONTEXT() REPRESENTATION_CONTEXT('2D SPACE',''
  ) );
#1093 = PCURVE('',#1064,#1094);
#1094 = DEFINITIONAL_REPRESENTATION('',(#1095),#1099);
#1095 = LINE('',#1096,#1097);
#1096 = CARTESIAN_POINT('',(-0.,0.));
#1097 = VECTOR('',#1098,1.);
#1098 = DIRECTION('',(-1.,0.));
#1099 = ( GEOMETRIC_REPRESENTATION_CONTEXT(2) 
PARAMETRIC_REPRESENTATION_CONTEXT() REPRESENTATION_CONTEXT('2D SPACE',''
  ) );
#1100 = ORIENTED_EDGE('',*,*,#1027,.T.);
#1101 = ORIENTED_EDGE('',*,*,#807,.T.);
#1102 = ADVANCED_FACE('',(#1103),#767,.T.);
#1103 = FACE_BOUND('',#1104,.T.);
#1104 = EDGE_LOOP('',(#1105,#1128,#1154));
#1105 = ORIENTED_EDGE('',*,*,#1106,.F.);
#1106 = EDGE_CURVE('',#1107,#591,#1109,.T.);
#1107 = VERTEX_POINT('',#1108);
#1108 = CARTESIAN_POINT('',(2.105E+03,75.,2.2E+03));
#1109 = SURFACE_CURVE('',#1110,(#1114,#1121),.PCURVE_S1.);
#1110 = LINE('',#1111,#1112);
#1111 = CARTESIAN_POINT('',(2.105E+03,75.,2.2E+03));
#1112 = VECTOR('',#1113,1.);
#1113 = DIRECTION('',(-1.,-0.,-0.));
#1114 = PCURVE('',#767,#1115);
#1115 = DEFINITIONAL_REPRESENTATION('',(#1116),#1120);
#1116 = LINE('',#1117,#1118);
#1117 = CARTESIAN_POINT('',(6.28318530718,0.));
#1118 = VECTOR('',#1119,1.);
#1119 = DIRECTION('',(0.,-1.));
#1120 = ( GEOMETRIC_REPRESENTATION_CONTEXT(2) 
PARAMETRIC_REPRESENTATION_CONTEXT() REPRESENTATION_CONTEXT('2D SPACE',''
  ) );
#1121 = PCURVE('',#660,#1122);
#1122 = DEFINITIONAL_REPRESENTATION('',(#1123),#1127);
#1123 = LINE('',#1124,#1125);
#1124 = CARTESIAN_POINT('',(0.,0.));
#1125 = VECTOR('',#1126,1.);
#1126 = DIRECTION('',(0.,-1.));
#1127 = ( GEOMETRIC_REPRESENTATION_CONTEXT(2) 
PARAMETRIC_REPRESENTATION_CONTEXT() REPRESENTATION_CONTEXT('2D SPACE',''
  ) );
#1128 = ORIENTED_EDGE('',*,*,#1129,.F.);
#1129 = EDGE_CURVE('',#312,#1107,#1130,.T.);
#1130 = SURFACE_CURVE('',#1131,(#1136,#1142),.PCURVE_S1.);
#1131 = CIRCLE('',#1132,75.);
#1132 = AXIS2_PLACEMENT_3D('',#1133,#1134,#1135);
#1133 = CARTESIAN_POINT('',(2.105E+03,0.,2.2E+03));
#1134 = DIRECTION('',(1.,0.,0.));
#1135 = DIRECTION('',(0.,1.,0.));
#1136 = PCURVE('',#767,#1137);
#1137 = DEFINITIONAL_REPRESENTATION('',(#1138),#1141);
#1138 = B_SPLINE_CURVE_WITH_KNOTS('',1,(#1139,#1140),.UNSPECIFIED.,.F.,
  .F.,(2,2),(0.,6.28318530718),.PIECEWISE_BEZIER_KNOTS.);
#1139 = CARTESIAN_POINT('',(0.,0.));
#1140 = CARTESIAN_POINT('',(6.28318530718,0.));
#1141 = ( GEOMETRIC_REPRESENTATION_CONTEXT(2) 
PARAMETRIC_REPRESENTATION_CONTEXT() REPRESENTATION_CONTEXT('2D SPACE',''
  ) );
#1142 = PCURVE('',#1143,#1148);
#1143 = CYLINDRICAL_SURFACE('',#1144,75.);
#1144 = AXIS2_PLACEMENT_3D('',#1145,#1146,#1147);
#1145 = CARTESIAN_POINT('',(2.105E+03,0.,2.2E+03));
#1146 = DIRECTION('',(-1.,-0.,-0.));
#1147 = DIRECTION('',(0.,1.,0.));
#1148 = DEFINITIONAL_REPRESENTATION('',(#1149),#1153);
#1149 = LINE('',#1150,#1151);
#1150 = CARTESIAN_POINT('',(-0.,0.));
#1151 = VECTOR('',#1152,1.);
#1152 = DIRECTION('',(-1.,0.));
#1153 = ( GEOMETRIC_REPRESENTATION_CONTEXT(2) 
PARAMETRIC_REPRESENTATION_CONTEXT() REPRESENTATION_CONTEXT('2D SPACE',''
  ) );
#1154 = ORIENTED_EDGE('',*,*,#699,.T.);
#1155 = ADVANCED_FACE('',(#1156),#660,.T.);
#1156 = FACE_BOUND('',#1157,.T.);
#1157 = EDGE_LOOP('',(#1158,#1179,#1180));
#1158 = ORIENTED_EDGE('',*,*,#1159,.F.);
#1159 = EDGE_CURVE('',#1107,#335,#1160,.T.);
#1160 = SURFACE_CURVE('',#1161,(#1166,#1172),.PCURVE_S1.);
#1161 = CIRCLE('',#1162,75.);
#1162 = AXIS2_PLACEMENT_3D('',#1163,#1164,#1165);
#1163 = CARTESIAN_POINT('',(2.105E+03,0.,2.2E+03));
#1164 = DIRECTION('',(1.,0.,0.));
#1165 = DIRECTION('',(0.,1.,0.));
#1166 = PCURVE('',#660,#1167);
#1167 = DEFINITIONAL_REPRESENTATION('',(#1168),#1171);
#1168 = B_SPLINE_CURVE_WITH_KNOTS('',1,(#1169,#1170),.UNSPECIFIED.,.F.,
  .F.,(2,2),(0.,6.28318530718),.PIECEWISE_BEZIER_KNOTS.);
#1169 = CARTESIAN_POINT('',(0.,0.));
#1170 = CARTESIAN_POINT('',(6.28318530718,0.));
#1171 = ( GEOMETRIC_REPRESENTATION_CONTEXT(2) 
PARAMETRIC_REPRESENTATION_CONTEXT() REPRESENTATION_CONTEXT('2D SPACE',''
  ) );
#1172 = PCURVE('',#1143,#1173);
#1173 = DEFINITIONAL_REPRESENTATION('',(#1174),#1178);
#1174 = LINE('',#1175,#1176);
#1175 = CARTESIAN_POINT('',(-0.,0.));
#1176 = VECTOR('',#1177,1.);
#1177 = DIRECTION('',(-1.,0.));
#1178 = ( GEOMETRIC_REPRESENTATION_CONTEXT(2) 
PARAMETRIC_REPRESENTATION_CONTEXT() REPRESENTATION_CONTEXT('2D SPACE',''
  ) );
#1179 = ORIENTED_EDGE('',*,*,#1106,.T.);
#1180 = ORIENTED_EDGE('',*,*,#590,.T.);
#1181 = ADVANCED_FACE('',(#1182),#577,.T.);
#1182 = FACE_BOUND('',#1183,.T.);
#1183 = EDGE_LOOP('',(#1184));
#1184 = ORIENTED_EDGE('',*,*,#562,.T.);
#1185 = ADVANCED_FACE('',(#1186),#468,.T.);
#1186 = FACE_BOUND('',#1187,.T.);
#1187 = EDGE_LOOP('',(#1188,#1209));
#1188 = ORIENTED_EDGE('',*,*,#1189,.F.);
#1189 = EDGE_CURVE('',#335,#312,#1190,.T.);
#1190 = SURFACE_CURVE('',#1191,(#1196,#1202),.PCURVE_S1.);
#1191 = CIRCLE('',#1192,75.);
#1192 = AXIS2_PLACEMENT_3D('',#1193,#1194,#1195);
#1193 = CARTESIAN_POINT('',(2.105E+03,0.,2.2E+03));
#1194 = DIRECTION('',(1.,0.,0.));
#1195 = DIRECTION('',(0.,1.,0.));
#1196 = PCURVE('',#468,#1197);
#1197 = DEFINITIONAL_REPRESENTATION('',(#1198),#1201);
#1198 = B_SPLINE_CURVE_WITH_KNOTS('',1,(#1199,#1200),.UNSPECIFIED.,.F.,
  .F.,(2,2),(0.,6.28318530718),.PIECEWISE_BEZIER_KNOTS.);
#1199 = CARTESIAN_POINT('',(0.,0.));
#1200 = CARTESIAN_POINT('',(6.28318530718,0.));
#1201 = ( GEOMETRIC_REPRESENTATION_CONTEXT(2) 
PARAMETRIC_REPRESENTATION_CONTEXT() REPRESENTATION_CONTEXT('2D SPACE',''
  ) );
#1202 = PCURVE('',#1143,#1203);
#1203 = DEFINITIONAL_REPRESENTATION('',(#1204),#1208);
#1204 = LINE('',#1205,#1206);
#1205 = CARTESIAN_POINT('',(-0.,0.));
#1206 = VECTOR('',#1207,1.);
#1207 = DIRECTION('',(-1.,0.));
#1208 = ( GEOMETRIC_REPRESENTATION_CONTEXT(2) 
PARAMETRIC_REPRESENTATION_CONTEXT() REPRESENTATION_CONTEXT('2D SPACE',''
  ) );
#1209 = ORIENTED_EDGE('',*,*,#334,.T.);
#1210 = ADVANCED_FACE('',(#1211),#240,.T.);
#1211 = FACE_BOUND('',#1212,.T.);
#1212 = EDGE_LOOP('',(#1213,#1234));
#1213 = ORIENTED_EDGE('',*,*,#1214,.F.);
#1214 = EDGE_CURVE('',#107,#84,#1215,.T.);
#1215 = SURFACE_CURVE('',#1216,(#1221,#1227),.PCURVE_S1.);
#1216 = CIRCLE('',#1217,75.);
#1217 = AXIS2_PLACEMENT_3D('',#1218,#1219,#1220);
#1218 = CARTESIAN_POINT('',(2.105E+03,0.,900.));
#1219 = DIRECTION('',(1.,0.,0.));
#1220 = DIRECTION('',(0.,1.,0.));
#1221 = PCURVE('',#240,#1222);
#1222 = DEFINITIONAL_REPRESENTATION('',(#1223),#1226);
#1223 = B_SPLINE_CURVE_WITH_KNOTS('',1,(#1224,#1225),.UNSPECIFIED.,.F.,
  .F.,(2,2),(0.,6.28318530718),.PIECEWISE_BEZIER_KNOTS.);
#1224 = CARTESIAN_POINT('',(0.,0.));
#1225 = CARTESIAN_POINT('',(6.28318530718,0.));
#1226 = ( GEOMETRIC_REPRESENTATION_CONTEXT(2) 
PARAMETRIC_REPRESENTATION_CONTEXT() REPRESENTATION_CONTEXT('2D SPACE',''
  ) );
#1227 = PCURVE('',#1064,#1228);
#1228 = DEFINITIONAL_REPRESENTATION('',(#1229),#1233);
#1229 = LINE('',#1230,#1231);
#1230 = CARTESIAN_POINT('',(-0.,0.));
#1231 = VECTOR('',#1232,1.);
#1232 = DIRECTION('',(-1.,0.));
#1233 = ( GEOMETRIC_REPRESENTATION_CONTEXT(2) 
PARAMETRIC_REPRESENTATION_CONTEXT() REPRESENTATION_CONTEXT('2D SPACE',''
  ) );
#1234 = ORIENTED_EDGE('',*,*,#106,.T.);
#1235 = ADVANCED_FACE('',(#1236),#1064,.T.);
#1236 = FACE_BOUND('',#1237,.F.);
#1237 = EDGE_LOOP('',(#1238,#1239,#1262,#1289,#1290,#1291));
#1238 = ORIENTED_EDGE('',*,*,#1080,.F.);
#1239 = ORIENTED_EDGE('',*,*,#1240,.T.);
#1240 = EDGE_CURVE('',#1028,#1241,#1243,.T.);
#1241 = VERTEX_POINT('',#1242);
#1242 = CARTESIAN_POINT('',(2.305E+03,75.,900.));
#1243 = SEAM_CURVE('',#1244,(#1248,#1255),.PCURVE_S1.);
#1244 = LINE('',#1245,#1246);
#1245 = CARTESIAN_POINT('',(2.105E+03,75.,900.));
#1246 = VECTOR('',#1247,1.);
#1247 = DIRECTION('',(1.,0.,0.));
#1248 = PCURVE('',#1064,#1249);
#1249 = DEFINITIONAL_REPRESENTATION('',(#1250),#1254);
#1250 = LINE('',#1251,#1252);
#1251 = CARTESIAN_POINT('',(-6.28318530718,0.));
#1252 = VECTOR('',#1253,1.);
#1253 = DIRECTION('',(-0.,-1.));
#1254 = ( GEOMETRIC_REPRESENTATION_CONTEXT(2) 
PARAMETRIC_REPRESENTATION_CONTEXT() REPRESENTATION_CONTEXT('2D SPACE',''
  ) );
#1255 = PCURVE('',#1064,#1256);
#1256 = DEFINITIONAL_REPRESENTATION('',(#1257),#1261);
#1257 = LINE('',#1258,#1259);
#1258 = CARTESIAN_POINT('',(-0.,0.));
#1259 = VECTOR('',#1260,1.);
#1260 = DIRECTION('',(-0.,-1.));
#1261 = ( GEOMETRIC_REPRESENTATION_CONTEXT(2) 
PARAMETRIC_REPRESENTATION_CONTEXT() REPRESENTATION_CONTEXT('2D SPACE',''
  ) );
#1262 = ORIENTED_EDGE('',*,*,#1263,.T.);
#1263 = EDGE_CURVE('',#1241,#1241,#1264,.T.);
#1264 = SURFACE_CURVE('',#1265,(#1270,#1277),.PCURVE_S1.);
#1265 = CIRCLE('',#1266,75.);
#1266 = AXIS2_PLACEMENT_3D('',#1267,#1268,#1269);
#1267 = CARTESIAN_POINT('',(2.305E+03,0.,900.));
#1268 = DIRECTION('',(1.,0.,0.));
#1269 = DIRECTION('',(0.,1.,0.));
#1270 = PCURVE('',#1064,#1271);
#1271 = DEFINITIONAL_REPRESENTATION('',(#1272),#1276);
#1272 = LINE('',#1273,#1274);
#1273 = CARTESIAN_POINT('',(-0.,-200.));
#1274 = VECTOR('',#1275,1.);
#1275 = DIRECTION('',(-1.,0.));
#1276 = ( GEOMETRIC_REPRESENTATION_CONTEXT(2) 
PARAMETRIC_REPRESENTATION_CONTEXT() REPRESENTATION_CONTEXT('2D SPACE',''
  ) );
#1277 = PCURVE('',#1278,#1283);
#1278 = PLANE('',#1279);
#1279 = AXIS2_PLACEMENT_3D('',#1280,#1281,#1282);
#1280 = CARTESIAN_POINT('',(2.305E+03,-7.001293478602E-15,900.));
#1281 = DIRECTION('',(1.,0.,0.));
#1282 = DIRECTION('',(-0.,0.,1.));
#1283 = DEFINITIONAL_REPRESENTATION('',(#1284),#1288);
#1284 = CIRCLE('',#1285,75.);
#1285 = AXIS2_PLACEMENT_2D('',#1286,#1287);
#1286 = CARTESIAN_POINT('',(0.,-7.001293478602E-15));
#1287 = DIRECTION('',(0.,-1.));
#1288 = ( GEOMETRIC_REPRESENTATION_CONTEXT(2) 
PARAMETRIC_REPRESENTATION_CONTEXT() REPRESENTATION_CONTEXT('2D SPACE',''
  ) );
#1289 = ORIENTED_EDGE('',*,*,#1240,.F.);
#1290 = ORIENTED_EDGE('',*,*,#1050,.F.);
#1291 = ORIENTED_EDGE('',*,*,#1214,.F.);
#1292 = ADVANCED_FACE('',(#1293),#1143,.T.);
#1293 = FACE_BOUND('',#1294,.F.);
#1294 = EDGE_LOOP('',(#1295,#1296,#1319,#1346,#1347,#1348));
#1295 = ORIENTED_EDGE('',*,*,#1159,.F.);
#1296 = ORIENTED_EDGE('',*,*,#1297,.T.);
#1297 = EDGE_CURVE('',#1107,#1298,#1300,.T.);
#1298 = VERTEX_POINT('',#1299);
#1299 = CARTESIAN_POINT('',(2.305E+03,75.,2.2E+03));
#1300 = SEAM_CURVE('',#1301,(#1305,#1312),.PCURVE_S1.);
#1301 = LINE('',#1302,#1303);
#1302 = CARTESIAN_POINT('',(2.105E+03,75.,2.2E+03));
#1303 = VECTOR('',#1304,1.);
#1304 = DIRECTION('',(1.,0.,0.));
#1305 = PCURVE('',#1143,#1306);
#1306 = DEFINITIONAL_REPRESENTATION('',(#1307),#1311);
#1307 = LINE('',#1308,#1309);
#1308 = CARTESIAN_POINT('',(-6.28318530718,0.));
#1309 = VECTOR('',#1310,1.);
#1310 = DIRECTION('',(-0.,-1.));
#1311 = ( GEOMETRIC_REPRESENTATION_CONTEXT(2) 
PARAMETRIC_REPRESENTATION_CONTEXT() REPRESENTATION_CONTEXT('2D SPACE',''
  ) );
#1312 = PCURVE('',#1143,#1313);
#1313 = DEFINITIONAL_REPRESENTATION('',(#1314),#1318);
#1314 = LINE('',#1315,#1316);
#1315 = CARTESIAN_POINT('',(-0.,0.));
#1316 = VECTOR('',#1317,1.);
#1317 = DIRECTION('',(-0.,-1.));
#1318 = ( GEOMETRIC_REPRESENTATION_CONTEXT(2) 
PARAMETRIC_REPRESENTATION_CONTEXT() REPRESENTATION_CONTEXT('2D SPACE',''
  ) );
#1319 = ORIENTED_EDGE('',*,*,#1320,.T.);
#1320 = EDGE_CURVE('',#1298,#1298,#1321,.T.);
#1321 = SURFACE_CURVE('',#1322,(#1327,#1334),.PCURVE_S1.);
#1322 = CIRCLE('',#1323,75.);
#1323 = AXIS2_PLACEMENT_3D('',#1324,#1325,#1326);
#1324 = CARTESIAN_POINT('',(2.305E+03,0.,2.2E+03));
#1325 = DIRECTION('',(1.,0.,0.));
#1326 = DIRECTION('',(0.,1.,0.));
#1327 = PCURVE('',#1143,#1328);
#1328 = DEFINITIONAL_REPRESENTATION('',(#1329),#1333);
#1329 = LINE('',#1330,#1331);
#1330 = CARTESIAN_POINT('',(-0.,-200.));
#1331 = VECTOR('',#1332,1.);
#1332 = DIRECTION('',(-1.,0.));
#1333 = ( GEOMETRIC_REPRESENTATION_CONTEXT(2) 
PARAMETRIC_REPRESENTATION_CONTEXT() REPRESENTATION_CONTEXT('2D SPACE',''
  ) );
#1334 = PCURVE('',#1335,#1340);
#1335 = PLANE('',#1336);
#1336 = AXIS2_PLACEMENT_3D('',#1337,#1338,#1339);
#1337 = CARTESIAN_POINT('',(2.305E+03,1.867011594294E-14,2.2E+03));
#1338 = DIRECTION('',(1.,0.,0.));
#1339 = DIRECTION('',(-0.,0.,1.));
#1340 = DEFINITIONAL_REPRESENTATION('',(#1341),#1345);
#1341 = CIRCLE('',#1342,75.);
#1342 = AXIS2_PLACEMENT_2D('',#1343,#1344);
#1343 = CARTESIAN_POINT('',(0.,1.867011594294E-14));
#1344 = DIRECTION('',(0.,-1.));
#1345 = ( GEOMETRIC_REPRESENTATION_CONTEXT(2) 
PARAMETRIC_REPRESENTATION_CONTEXT() REPRESENTATION_CONTEXT('2D SPACE',''
  ) );
#1346 = ORIENTED_EDGE('',*,*,#1297,.F.);
#1347 = ORIENTED_EDGE('',*,*,#1129,.F.);
#1348 = ORIENTED_EDGE('',*,*,#1189,.F.);
#1349 = ADVANCED_FACE('',(#1350),#1278,.T.);
#1350 = FACE_BOUND('',#1351,.T.);
#1351 = EDGE_LOOP('',(#1352));
#1352 = ORIENTED_EDGE('',*,*,#1263,.T.);
#1353 = ADVANCED_FACE('',(#1354),#1335,.T.);
#1354 = FACE_BOUND('',#1355,.T.);
#1355 = EDGE_LOOP('',(#1356));
#1356 = ORIENTED_EDGE('',*,*,#1320,.T.);
#1357 = ( GEOMETRIC_REPRESENTATION_CONTEXT(3) 
GLOBAL_UNCERTAINTY_ASSIGNED_CONTEXT((#1361)) 
GLOBAL_UNIT_ASSIGNED_CONTEXT((#1358,#1359,#1360)) REPRESENTATION_CONTEXT
('Context #1','3D Context with UNIT and UNCERTAINTY') );
#1358 = ( LENGTH_UNIT() NAMED_UNIT(*) SI_UNIT(.MILLI.,.METRE.) );
#1359 = ( NAMED_UNIT(*) PLANE_ANGLE_UNIT() SI_UNIT($,.RADIAN.) );
#1360 = ( NAMED_UNIT(*) SI_UNIT($,.STERADIAN.) SOLID_ANGLE_UNIT() );
#1361 = UNCERTAINTY_MEASURE_WITH_UNIT(LENGTH_MEASURE(2.E-07),#1358,
  'distance_accuracy_value','confusion accuracy');
#1362 = PRODUCT_RELATED_PRODUCT_CATEGORY('part',$,(#7));
ENDSEC;
END-ISO-10303-21;
