ISO-10303-21;
HEADER;
FILE_DESCRIPTION(('Open CASCADE Model'),'2;1');
FILE_NAME('Open CASCADE Shape Model','2026-06-25T13:40:03',('Author'),(
    'Open CASCADE'),'Open CASCADE STEP processor 7.8','Open CASCADE 7.8'
  ,'Unknown');
FILE_SCHEMA(('AUTOMOTIVE_DESIGN { 1 0 10303 214 1 1 1 1 }'));
ENDSEC;
DATA;
#1 = APPLICATION_PROTOCOL_DEFINITION('international standard',
  'automotive_design',2000,#2);
#2 = APPLICATION_CONTEXT(
  'core data for automotive mechanical design processes');
#3 = SHAPE_DEFINITION_REPRESENTATION(#4,#10);
#4 = PRODUCT_DEFINITION_SHAPE('','',#5);
#5 = PRODUCT_DEFINITION('design','',#6,#9);
#6 = PRODUCT_DEFINITION_FORMATION('','',#7);
#7 = PRODUCT('Open CASCADE STEP translator 7.8 1',
  'Open CASCADE STEP translator 7.8 1','',(#8));
#8 = PRODUCT_CONTEXT('',#2,'mechanical');
#9 = PRODUCT_DEFINITION_CONTEXT('part definition',#2,'design');
#10 = ADVANCED_BREP_SHAPE_REPRESENTATION('',(#11,#15),#887);
#11 = AXIS2_PLACEMENT_3D('',#12,#13,#14);
#12 = CARTESIAN_POINT('',(0.,0.,0.));
#13 = DIRECTION('',(0.,0.,1.));
#14 = DIRECTION('',(1.,0.,-0.));
#15 = MANIFOLD_SOLID_BREP('',#16);
#16 = CLOSED_SHELL('',(#17,#105,#159,#659,#714,#767,#793,#797,#822,#826,
    #883));
#17 = ADVANCED_FACE('',(#18),#31,.T.);
#18 = FACE_BOUND('',#19,.T.);
#19 = EDGE_LOOP('',(#20,#54,#77,#104));
#20 = ORIENTED_EDGE('',*,*,#21,.F.);
#21 = EDGE_CURVE('',#22,#22,#24,.T.);
#22 = VERTEX_POINT('',#23);
#23 = CARTESIAN_POINT('',(75.,0.,27.790973871734));
#24 = SURFACE_CURVE('',#25,(#30,#42),.PCURVE_S1.);
#25 = CIRCLE('',#26,75.);
#26 = AXIS2_PLACEMENT_3D('',#27,#28,#29);
#27 = CARTESIAN_POINT('',(0.,0.,27.790973871734));
#28 = DIRECTION('',(0.,-0.,-1.));
#29 = DIRECTION('',(0.,1.,-0.));
#30 = PCURVE('',#31,#36);
#31 = CONICAL_SURFACE('',#32,0.,1.215935959847);
#32 = AXIS2_PLACEMENT_3D('',#33,#34,#35);
#33 = CARTESIAN_POINT('',(0.,0.,0.));
#34 = DIRECTION('',(0.,0.,1.));
#35 = DIRECTION('',(1.,0.,-0.));
#36 = DEFINITIONAL_REPRESENTATION('',(#37),#41);
#37 = LINE('',#38,#39);
#38 = CARTESIAN_POINT('',(7.853981633974,27.790973871734));
#39 = VECTOR('',#40,1.);
#40 = DIRECTION('',(-1.,0.));
#41 = ( GEOMETRIC_REPRESENTATION_CONTEXT(2) 
PARAMETRIC_REPRESENTATION_CONTEXT() REPRESENTATION_CONTEXT('2D SPACE',''
  ) );
#42 = PCURVE('',#43,#48);
#43 = CYLINDRICAL_SURFACE('',#44,75.);
#44 = AXIS2_PLACEMENT_3D('',#45,#46,#47);
#45 = CARTESIAN_POINT('',(0.,0.,0.));
#46 = DIRECTION('',(-0.,-0.,-1.));
#47 = DIRECTION('',(1.,0.,0.));
#48 = DEFINITIONAL_REPRESENTATION('',(#49),#53);
#49 = LINE('',#50,#51);
#50 = CARTESIAN_POINT('',(-7.853981633974,-27.79097387173));
#51 = VECTOR('',#52,1.);
#52 = DIRECTION('',(1.,-0.));
#53 = ( GEOMETRIC_REPRESENTATION_CONTEXT(2) 
PARAMETRIC_REPRESENTATION_CONTEXT() REPRESENTATION_CONTEXT('2D SPACE',''
  ) );
#54 = ORIENTED_EDGE('',*,*,#55,.T.);
#55 = EDGE_CURVE('',#22,#56,#58,.T.);
#56 = VERTEX_POINT('',#57);
#57 = CARTESIAN_POINT('',(2.105E+03,0.,780.));
#58 = SEAM_CURVE('',#59,(#63,#70),.PCURVE_S1.);
#59 = LINE('',#60,#61);
#60 = CARTESIAN_POINT('',(0.,0.,0.));
#61 = VECTOR('',#62,1.);
#62 = DIRECTION('',(0.937695014782,0.,0.347459435406));
#63 = PCURVE('',#31,#64);
#64 = DEFINITIONAL_REPRESENTATION('',(#65),#69);
#65 = LINE('',#66,#67);
#66 = CARTESIAN_POINT('',(0.,0.));
#67 = VECTOR('',#68,1.);
#68 = DIRECTION('',(0.,1.));
#69 = ( GEOMETRIC_REPRESENTATION_CONTEXT(2) 
PARAMETRIC_REPRESENTATION_CONTEXT() REPRESENTATION_CONTEXT('2D SPACE',''
  ) );
#70 = PCURVE('',#31,#71);
#71 = DEFINITIONAL_REPRESENTATION('',(#72),#76);
#72 = LINE('',#73,#74);
#73 = CARTESIAN_POINT('',(6.28318530718,0.));
#74 = VECTOR('',#75,1.);
#75 = DIRECTION('',(0.,1.));
#76 = ( GEOMETRIC_REPRESENTATION_CONTEXT(2) 
PARAMETRIC_REPRESENTATION_CONTEXT() REPRESENTATION_CONTEXT('2D SPACE',''
  ) );
#77 = ORIENTED_EDGE('',*,*,#78,.F.);
#78 = EDGE_CURVE('',#56,#56,#79,.T.);
#79 = SURFACE_CURVE('',#80,(#85,#92),.PCURVE_S1.);
#80 = CIRCLE('',#81,2.105E+03);
#81 = AXIS2_PLACEMENT_3D('',#82,#83,#84);
#82 = CARTESIAN_POINT('',(0.,0.,780.));
#83 = DIRECTION('',(0.,0.,1.));
#84 = DIRECTION('',(1.,0.,-0.));
#85 = PCURVE('',#31,#86);
#86 = DEFINITIONAL_REPRESENTATION('',(#87),#91);
#87 = LINE('',#88,#89);
#88 = CARTESIAN_POINT('',(0.,780.));
#89 = VECTOR('',#90,1.);
#90 = DIRECTION('',(1.,0.));
#91 = ( GEOMETRIC_REPRESENTATION_CONTEXT(2) 
PARAMETRIC_REPRESENTATION_CONTEXT() REPRESENTATION_CONTEXT('2D SPACE',''
  ) );
#92 = PCURVE('',#93,#98);
#93 = CYLINDRICAL_SURFACE('',#94,2.105E+03);
#94 = AXIS2_PLACEMENT_3D('',#95,#96,#97);
#95 = CARTESIAN_POINT('',(0.,0.,780.));
#96 = DIRECTION('',(0.,0.,1.));
#97 = DIRECTION('',(1.,0.,-0.));
#98 = DEFINITIONAL_REPRESENTATION('',(#99),#103);
#99 = LINE('',#100,#101);
#100 = CARTESIAN_POINT('',(0.,0.));
#101 = VECTOR('',#102,1.);
#102 = DIRECTION('',(1.,0.));
#103 = ( GEOMETRIC_REPRESENTATION_CONTEXT(2) 
PARAMETRIC_REPRESENTATION_CONTEXT() REPRESENTATION_CONTEXT('2D SPACE',''
  ) );
#104 = ORIENTED_EDGE('',*,*,#55,.F.);
#105 = ADVANCED_FACE('',(#106),#43,.T.);
#106 = FACE_BOUND('',#107,.F.);
#107 = EDGE_LOOP('',(#108,#136,#157,#158));
#108 = ORIENTED_EDGE('',*,*,#109,.F.);
#109 = EDGE_CURVE('',#110,#110,#112,.T.);
#110 = VERTEX_POINT('',#111);
#111 = CARTESIAN_POINT('',(75.,0.,0.));
#112 = SURFACE_CURVE('',#113,(#118,#125),.PCURVE_S1.);
#113 = CIRCLE('',#114,75.);
#114 = AXIS2_PLACEMENT_3D('',#115,#116,#117);
#115 = CARTESIAN_POINT('',(0.,0.,0.));
#116 = DIRECTION('',(0.,0.,1.));
#117 = DIRECTION('',(1.,0.,0.));
#118 = PCURVE('',#43,#119);
#119 = DEFINITIONAL_REPRESENTATION('',(#120),#124);
#120 = LINE('',#121,#122);
#121 = CARTESIAN_POINT('',(-0.,0.));
#122 = VECTOR('',#123,1.);
#123 = DIRECTION('',(-1.,0.));
#124 = ( GEOMETRIC_REPRESENTATION_CONTEXT(2) 
PARAMETRIC_REPRESENTATION_CONTEXT() REPRESENTATION_CONTEXT('2D SPACE',''
  ) );
#125 = PCURVE('',#126,#131);
#126 = CYLINDRICAL_SURFACE('',#127,75.);
#127 = AXIS2_PLACEMENT_3D('',#128,#129,#130);
#128 = CARTESIAN_POINT('',(0.,0.,0.));
#129 = DIRECTION('',(0.,0.,1.));
#130 = DIRECTION('',(1.,0.,0.));
#131 = DEFINITIONAL_REPRESENTATION('',(#132),#135);
#132 = B_SPLINE_CURVE_WITH_KNOTS('',1,(#133,#134),.UNSPECIFIED.,.F.,.F.,
  (2,2),(0.,6.28318530718),.PIECEWISE_BEZIER_KNOTS.);
#133 = CARTESIAN_POINT('',(0.,0.));
#134 = CARTESIAN_POINT('',(6.28318530718,0.));
#135 = ( GEOMETRIC_REPRESENTATION_CONTEXT(2) 
PARAMETRIC_REPRESENTATION_CONTEXT() REPRESENTATION_CONTEXT('2D SPACE',''
  ) );
#136 = ORIENTED_EDGE('',*,*,#137,.T.);
#137 = EDGE_CURVE('',#110,#22,#138,.T.);
#138 = SEAM_CURVE('',#139,(#143,#150),.PCURVE_S1.);
#139 = LINE('',#140,#141);
#140 = CARTESIAN_POINT('',(75.,0.,0.));
#141 = VECTOR('',#142,1.);
#142 = DIRECTION('',(0.,0.,1.));
#143 = PCURVE('',#43,#144);
#144 = DEFINITIONAL_REPRESENTATION('',(#145),#149);
#145 = LINE('',#146,#147);
#146 = CARTESIAN_POINT('',(-6.28318530718,0.));
#147 = VECTOR('',#148,1.);
#148 = DIRECTION('',(-0.,-1.));
#149 = ( GEOMETRIC_REPRESENTATION_CONTEXT(2) 
PARAMETRIC_REPRESENTATION_CONTEXT() REPRESENTATION_CONTEXT('2D SPACE',''
  ) );
#150 = PCURVE('',#43,#151);
#151 = DEFINITIONAL_REPRESENTATION('',(#152),#156);
#152 = LINE('',#153,#154);
#153 = CARTESIAN_POINT('',(-0.,0.));
#154 = VECTOR('',#155,1.);
#155 = DIRECTION('',(-0.,-1.));
#156 = ( GEOMETRIC_REPRESENTATION_CONTEXT(2) 
PARAMETRIC_REPRESENTATION_CONTEXT() REPRESENTATION_CONTEXT('2D SPACE',''
  ) );
#157 = ORIENTED_EDGE('',*,*,#21,.F.);
#158 = ORIENTED_EDGE('',*,*,#137,.F.);
#159 = ADVANCED_FACE('',(#160),#93,.T.);
#160 = FACE_BOUND('',#161,.T.);
#161 = EDGE_LOOP('',(#162,#185,#186,#187,#392,#415,#442,#443,#552));
#162 = ORIENTED_EDGE('',*,*,#163,.F.);
#163 = EDGE_CURVE('',#56,#164,#166,.T.);
#164 = VERTEX_POINT('',#165);
#165 = CARTESIAN_POINT('',(2.105E+03,7.258585580074E-13,2.125E+03));
#166 = SEAM_CURVE('',#167,(#171,#178),.PCURVE_S1.);
#167 = LINE('',#168,#169);
#168 = CARTESIAN_POINT('',(2.105E+03,0.,780.));
#169 = VECTOR('',#170,1.);
#170 = DIRECTION('',(0.,0.,1.));
#171 = PCURVE('',#93,#172);
#172 = DEFINITIONAL_REPRESENTATION('',(#173),#177);
#173 = LINE('',#174,#175);
#174 = CARTESIAN_POINT('',(0.,0.));
#175 = VECTOR('',#176,1.);
#176 = DIRECTION('',(0.,1.));
#177 = ( GEOMETRIC_REPRESENTATION_CONTEXT(2) 
PARAMETRIC_REPRESENTATION_CONTEXT() REPRESENTATION_CONTEXT('2D SPACE',''
  ) );
#178 = PCURVE('',#93,#179);
#179 = DEFINITIONAL_REPRESENTATION('',(#180),#184);
#180 = LINE('',#181,#182);
#181 = CARTESIAN_POINT('',(6.28318530718,0.));
#182 = VECTOR('',#183,1.);
#183 = DIRECTION('',(0.,1.));
#184 = ( GEOMETRIC_REPRESENTATION_CONTEXT(2) 
PARAMETRIC_REPRESENTATION_CONTEXT() REPRESENTATION_CONTEXT('2D SPACE',''
  ) );
#185 = ORIENTED_EDGE('',*,*,#78,.T.);
#186 = ORIENTED_EDGE('',*,*,#163,.T.);
#187 = ORIENTED_EDGE('',*,*,#188,.F.);
#188 = EDGE_CURVE('',#189,#164,#191,.T.);
#189 = VERTEX_POINT('',#190);
#190 = CARTESIAN_POINT('',(2.105E+03,7.183900636316E-13,2.275E+03));
#191 = SURFACE_CURVE('',#192,(#255,#321),.PCURVE_S1.);
#192 = B_SPLINE_CURVE_WITH_KNOTS('',7,(#193,#194,#195,#196,#197,#198,
    #199,#200,#201,#202,#203,#204,#205,#206,#207,#208,#209,#210,#211,
    #212,#213,#214,#215,#216,#217,#218,#219,#220,#221,#222,#223,#224,
    #225,#226,#227,#228,#229,#230,#231,#232,#233,#234,#235,#236,#237,
    #238,#239,#240,#241,#242,#243,#244,#245,#246,#247,#248,#249,#250,
    #251,#252,#253,#254),.UNSPECIFIED.,.F.,.F.,(8,6,6,6,6,6,6,6,6,6,8),(
    0.,9.813337537826E-02,0.159082340849,0.242765629454,0.310393896099,
    0.500043512321,0.638659170373,0.757280903355,0.840945227733,
    0.904970884539,1.),.UNSPECIFIED.);
#193 = CARTESIAN_POINT('',(2.105E+03,-1.847411112976E-13,2.275E+03));
#194 = CARTESIAN_POINT('',(2.105E+03,-4.028737401639,2.275E+03));
#195 = CARTESIAN_POINT('',(2.104991004607E+03,-8.049131410657,
    2.274747522187E+03));
#196 = CARTESIAN_POINT('',(2.104973079487E+03,-12.02958876437,
    2.274244447935E+03));
#197 = CARTESIAN_POINT('',(2.104946717699E+03,-15.93893565852,
    2.273499182187E+03));
#198 = CARTESIAN_POINT('',(2.104912814598E+03,-19.74745337716,
    2.272526472915E+03));
#199 = CARTESIAN_POINT('',(2.104872582199E+03,-23.42776639654,
    2.2713472589E+03));
#200 = CARTESIAN_POINT('',(2.104799343019E+03,-29.146649654,
    2.269144672316E+03));
#201 = CARTESIAN_POINT('',(2.104769335599E+03,-31.28195898528,
    2.268230376978E+03));
#202 = CARTESIAN_POINT('',(2.104737651656E+03,-33.35940126604,
    2.267250236359E+03));
#203 = CARTESIAN_POINT('',(2.104704564201E+03,-35.37714148265,
    2.266208846112E+03));
#204 = CARTESIAN_POINT('',(2.104670343741E+03,-37.33361928201,
    2.265110821099E+03));
#205 = CARTESIAN_POINT('',(2.104635253657E+03,-39.22754895503,
    2.263960795494E+03));
#206 = CARTESIAN_POINT('',(2.104550518179E+03,-43.57102885046,
    2.261119423253E+03));
#207 = CARTESIAN_POINT('',(2.104500315115E+03,-45.96485623967,
    2.259385816744E+03));
#208 = CARTESIAN_POINT('',(2.104449523305E+03,-48.24003560833,
    2.257572388512E+03));
#209 = CARTESIAN_POINT('',(2.104398670258E+03,-50.39765829247,
    2.255688014133E+03));
#210 = CARTESIAN_POINT('',(2.104348225277E+03,-52.43917513769,
    2.253740742795E+03));
#211 = CARTESIAN_POINT('',(2.104298600653E+03,-54.3662986932,
    2.251737880486E+03));
#212 = CARTESIAN_POINT('',(2.104211000022E+03,-57.64737151488,
    2.248027914492E+03));
#213 = CARTESIAN_POINT('',(2.104172607354E+03,-59.04067455,
    2.246337426602E+03));
#214 = CARTESIAN_POINT('',(2.104135156617E+03,-60.36203174848,
    2.244617770794E+03));
#215 = CARTESIAN_POINT('',(2.104098807511E+03,-61.61266081673,
    2.242871784731E+03));
#216 = CARTESIAN_POINT('',(2.104063699913E+03,-62.79375811803,
    2.24110201258E+03));
#217 = CARTESIAN_POINT('',(2.104029956103E+03,-63.90647686029,
    2.239310735145E+03));
#218 = CARTESIAN_POINT('',(2.103907179634E+03,-67.8835950808,
    2.23242216432E+03));
#219 = CARTESIAN_POINT('',(2.103828213135E+03,-70.28704227173,
    2.227189696183E+03));
#220 = CARTESIAN_POINT('',(2.103763180553E+03,-72.18480963281,
    2.221849019018E+03));
#221 = CARTESIAN_POINT('',(2.103713550412E+03,-73.59533591079,
    2.216434475983E+03));
#222 = CARTESIAN_POINT('',(2.103680172785E+03,-74.53153925475,
    2.210973152754E+03));
#223 = CARTESIAN_POINT('',(2.103663471185E+03,-75.,2.205487743375E+03));
#224 = CARTESIAN_POINT('',(2.103663471185E+03,-75.,2.195988986562E+03));
#225 = CARTESIAN_POINT('',(2.103672393538E+03,-74.74973884366,
    2.191978455218E+03));
#226 = CARTESIAN_POINT('',(2.103690234321E+03,-74.24932349235,
    2.187977327725E+03));
#227 = CARTESIAN_POINT('',(2.103716870457E+03,-73.49694599664,
    2.18399474334E+03));
#228 = CARTESIAN_POINT('',(2.103752054739E+03,-72.48900644383,
    2.180040676658E+03));
#229 = CARTESIAN_POINT('',(2.103795389055E+03,-71.22024928415,
    2.176126630739E+03));
#230 = CARTESIAN_POINT('',(2.103889822669E+03,-68.36917795537,
    2.168962979215E+03));
#231 = CARTESIAN_POINT('',(2.103938899672E+03,-66.85851126882,
    2.165699025726E+03));
#232 = CARTESIAN_POINT('',(2.103993141394E+03,-65.14739497762,
    2.162482459059E+03));
#233 = CARTESIAN_POINT('',(2.10405207944E+03,-63.23038500411,
    2.159322830843E+03));
#234 = CARTESIAN_POINT('',(2.10411511068E+03,-61.10133834817,
    2.156231688203E+03));
#235 = CARTESIAN_POINT('',(2.104181462192E+03,-58.75370797104,
    2.153223039343E+03));
#236 = CARTESIAN_POINT('',(2.104298600652E+03,-54.36629873177,
    2.148262119558E+03));
#237 = CARTESIAN_POINT('',(2.104348225278E+03,-52.43917508981,
    2.146259257166E+03));
#238 = CARTESIAN_POINT('',(2.104398670259E+03,-50.3976582609,
    2.144311985832E+03));
#239 = CARTESIAN_POINT('',(2.104449523304E+03,-48.24003565137,
    2.142427611517E+03));
#240 = CARTESIAN_POINT('',(2.104500315114E+03,-45.96485628521,
    2.140614183297E+03));
#241 = CARTESIAN_POINT('',(2.10455051818E+03,-43.57102879622,
    2.138880576712E+03));
#242 = CARTESIAN_POINT('',(2.104637064695E+03,-39.13471643468,
    2.135978476299E+03));
#243 = CARTESIAN_POINT('',(2.104673903861E+03,-37.14122393651,
    2.134772568725E+03));
#244 = CARTESIAN_POINT('',(2.104709769727E+03,-35.0786681468,
    2.133624309287E+03));
#245 = CARTESIAN_POINT('',(2.104744354748E+03,-32.94861500175,
    2.132539114429E+03));
#246 = CARTESIAN_POINT('',(2.104777343288E+03,-30.7529701297,
    2.131522362262E+03));
#247 = CARTESIAN_POINT('',(2.104808417708E+03,-28.49397882796,
    2.130579392676E+03));
#248 = CARTESIAN_POINT('',(2.104880079835E+03,-22.73116795121,
    2.128433298864E+03));
#249 = CARTESIAN_POINT('',(2.104918067727E+03,-19.14781921904,
    2.127322913121E+03));
#250 = CARTESIAN_POINT('',(2.104949983877E+03,-15.44686791267,
    2.126408499724E+03));
#251 = CARTESIAN_POINT('',(2.10497474727E+03,-11.65368036219,
    2.125708746355E+03));
#252 = CARTESIAN_POINT('',(2.104991564127E+03,-7.795649872951,
    2.125236772526E+03));
#253 = CARTESIAN_POINT('',(2.105E+03,-3.901422516812,2.125E+03));
#254 = CARTESIAN_POINT('',(2.105E+03,-1.278976924368E-13,2.125E+03));
#255 = PCURVE('',#93,#256);
#256 = DEFINITIONAL_REPRESENTATION('',(#257),#320);
#257 = B_SPLINE_CURVE_WITH_KNOTS('',7,(#258,#259,#260,#261,#262,#263,
    #264,#265,#266,#267,#268,#269,#270,#271,#272,#273,#274,#275,#276,
    #277,#278,#279,#280,#281,#282,#283,#284,#285,#286,#287,#288,#289,
    #290,#291,#292,#293,#294,#295,#296,#297,#298,#299,#300,#301,#302,
    #303,#304,#305,#306,#307,#308,#309,#310,#311,#312,#313,#314,#315,
    #316,#317,#318,#319),.UNSPECIFIED.,.F.,.F.,(8,6,6,6,6,6,6,6,6,6,8),(
    0.,9.813337537826E-02,0.159082340849,0.242765629454,0.310393896099,
    0.500043512321,0.638659170373,0.757280903355,0.840945227733,
    0.904970884539,1.),.UNSPECIFIED.);
#258 = CARTESIAN_POINT('',(6.28318530718,1.495E+03));
#259 = CARTESIAN_POINT('',(6.281271417678,1.495E+03));
#260 = CARTESIAN_POINT('',(6.279361491775,1.494747522187E+03));
#261 = CARTESIAN_POINT('',(6.277470526741,1.494244447935E+03));
#262 = CARTESIAN_POINT('',(6.275613320635,1.493499182187E+03));
#263 = CARTESIAN_POINT('',(6.273803983,1.492526472915E+03));
#264 = CARTESIAN_POINT('',(6.272055514368,1.4913472589E+03));
#265 = CARTESIAN_POINT('',(6.26933848244,1.489144672316E+03));
#266 = CARTESIAN_POINT('',(6.268323984338,1.488230376978E+03));
#267 = CARTESIAN_POINT('',(6.26733696222,1.487250236359E+03));
#268 = CARTESIAN_POINT('',(6.266378288005,1.486208846112E+03));
#269 = CARTESIAN_POINT('',(6.265448703528,1.485110821099E+03));
#270 = CARTESIAN_POINT('',(6.264548820485,1.483960795494E+03));
#271 = CARTESIAN_POINT('',(6.262485016991,1.481119423253E+03));
#272 = CARTESIAN_POINT('',(6.261347557987,1.479385816744E+03));
#273 = CARTESIAN_POINT('',(6.260266444888,1.477572388512E+03));
#274 = CARTESIAN_POINT('',(6.259241162625,1.475688014133E+03));
#275 = CARTESIAN_POINT('',(6.258271025727,1.473740742795E+03));
#276 = CARTESIAN_POINT('',(6.257355224535,1.471737880486E+03));
#277 = CARTESIAN_POINT('',(6.255795964664,1.468027914492E+03));
#278 = CARTESIAN_POINT('',(6.255133811987,1.466337426602E+03));
#279 = CARTESIAN_POINT('',(6.254505837073,1.464617770794E+03));
#280 = CARTESIAN_POINT('',(6.25391146336,1.462871784731E+03));
#281 = CARTESIAN_POINT('',(6.253350124349,1.46110201258E+03));
#282 = CARTESIAN_POINT('',(6.252821273942,1.459310735145E+03));
#283 = CARTESIAN_POINT('',(6.250931006547,1.45242216432E+03));
#284 = CARTESIAN_POINT('',(6.249788612551,1.447189696183E+03));
#285 = CARTESIAN_POINT('',(6.24888653196,1.441849019018E+03));
#286 = CARTESIAN_POINT('',(6.248216033661,1.436434475983E+03));
#287 = CARTESIAN_POINT('',(6.247770998901,1.430973152754E+03));
#288 = CARTESIAN_POINT('',(6.247548310839,1.425487743375E+03));
#289 = CARTESIAN_POINT('',(6.247548310839,1.415988986562E+03));
#290 = CARTESIAN_POINT('',(6.247667275286,1.411978455218E+03));
#291 = CARTESIAN_POINT('',(6.247905153323,1.407977327725E+03));
#292 = CARTESIAN_POINT('',(6.248262801224,1.40399474334E+03));
#293 = CARTESIAN_POINT('',(6.248741923874,1.400040676658E+03));
#294 = CARTESIAN_POINT('',(6.249345010009,1.396126630739E+03));
#295 = CARTESIAN_POINT('',(6.250700180946,1.388962979215E+03));
#296 = CARTESIAN_POINT('',(6.251418215794,1.385699025726E+03));
#297 = CARTESIAN_POINT('',(6.252231505532,1.382482459059E+03));
#298 = CARTESIAN_POINT('',(6.253142628584,1.379322830843E+03));
#299 = CARTESIAN_POINT('',(6.254154494035,1.376231688203E+03));
#300 = CARTESIAN_POINT('',(6.255270201862,1.373223039343E+03));
#301 = CARTESIAN_POINT('',(6.257355224516,1.368262119558E+03));
#302 = CARTESIAN_POINT('',(6.25827102575,1.366259257166E+03));
#303 = CARTESIAN_POINT('',(6.25924116264,1.364311985832E+03));
#304 = CARTESIAN_POINT('',(6.260266444868,1.362427611517E+03));
#305 = CARTESIAN_POINT('',(6.261347557965,1.360614183297E+03));
#306 = CARTESIAN_POINT('',(6.262485017017,1.358880576712E+03));
#307 = CARTESIAN_POINT('',(6.264592929836,1.355978476299E+03));
#308 = CARTESIAN_POINT('',(6.265540118344,1.354772568725E+03));
#309 = CARTESIAN_POINT('',(6.266520101995,1.353624309287E+03));
#310 = CARTESIAN_POINT('',(6.267532135836,1.352539114429E+03));
#311 = CARTESIAN_POINT('',(6.268575313951,1.351522362262E+03));
#312 = CARTESIAN_POINT('',(6.269648569554,1.350579392676E+03));
#313 = CARTESIAN_POINT('',(6.272386458594,1.348433298864E+03));
#314 = CARTESIAN_POINT('',(6.274088854829,1.347322913121E+03));
#315 = CARTESIAN_POINT('',(6.275847086204,1.346408499724E+03));
#316 = CARTESIAN_POINT('',(6.277649106602,1.345708746355E+03));
#317 = CARTESIAN_POINT('',(6.279481910559,1.345236772526E+03));
#318 = CARTESIAN_POINT('',(6.281331899808,1.345E+03));
#319 = CARTESIAN_POINT('',(6.28318530718,1.345E+03));
#320 = ( GEOMETRIC_REPRESENTATION_CONTEXT(2) 
PARAMETRIC_REPRESENTATION_CONTEXT() REPRESENTATION_CONTEXT('2D SPACE',''
  ) );
#321 = PCURVE('',#322,#327);
#322 = CYLINDRICAL_SURFACE('',#323,75.);
#323 = AXIS2_PLACEMENT_3D('',#324,#325,#326);
#324 = CARTESIAN_POINT('',(2.105E+03,0.,2.2E+03));
#325 = DIRECTION('',(1.,0.,0.));
#326 = DIRECTION('',(0.,1.,0.));
#327 = DEFINITIONAL_REPRESENTATION('',(#328),#391);
#328 = B_SPLINE_CURVE_WITH_KNOTS('',7,(#329,#330,#331,#332,#333,#334,
    #335,#336,#337,#338,#339,#340,#341,#342,#343,#344,#345,#346,#347,
    #348,#349,#350,#351,#352,#353,#354,#355,#356,#357,#358,#359,#360,
    #361,#362,#363,#364,#365,#366,#367,#368,#369,#370,#371,#372,#373,
    #374,#375,#376,#377,#378,#379,#380,#381,#382,#383,#384,#385,#386,
    #387,#388,#389,#390),.UNSPECIFIED.,.F.,.F.,(8,6,6,6,6,6,6,6,6,6,8),(
    0.,9.813337537826E-02,0.159082340849,0.242765629454,0.310393896099,
    0.500043512321,0.638659170373,0.757280903355,0.840945227733,
    0.904970884539,1.),.UNSPECIFIED.);
#329 = CARTESIAN_POINT('',(1.570796326795,0.));
#330 = CARTESIAN_POINT('',(1.624512825483,-3.806478941572E-16));
#331 = CARTESIAN_POINT('',(1.678118074179,-8.995392509296E-03));
#332 = CARTESIAN_POINT('',(1.731444019613,-2.692051336157E-02));
#333 = CARTESIAN_POINT('',(1.784323376077,-5.328230061636E-02));
#334 = CARTESIAN_POINT('',(1.836581011822,-8.718540165557E-02));
#335 = CARTESIAN_POINT('',(1.888023882219,-0.127417801127));
#336 = CARTESIAN_POINT('',(1.969735585038,-0.200656980681));
#337 = CARTESIAN_POINT('',(2.000685380417,-0.230664400869));
#338 = CARTESIAN_POINT('',(2.031280800944,-0.262348343519));
#339 = CARTESIAN_POINT('',(2.061522009898,-0.295435798989));
#340 = CARTESIAN_POINT('',(2.091407487151,-0.32965625943));
#341 = CARTESIAN_POINT('',(2.120934087634,-0.364746343422));
#342 = CARTESIAN_POINT('',(2.190138087279,-0.449481820974));
#343 = CARTESIAN_POINT('',(2.229502244993,-0.499684885258));
#344 = CARTESIAN_POINT('',(2.268229860948,-0.550476695364));
#345 = CARTESIAN_POINT('',(2.306357519012,-0.601329741789));
#346 = CARTESIAN_POINT('',(2.343918844858,-0.651774723331));
#347 = CARTESIAN_POINT('',(2.380945251919,-0.701399346778));
#348 = CARTESIAN_POINT('',(2.446981318202,-0.788999978087));
#349 = CARTESIAN_POINT('',(2.476172597942,-0.827392645851));
#350 = CARTESIAN_POINT('',(2.505061662276,-0.864843382802));
#351 = CARTESIAN_POINT('',(2.533668826081,-0.901192488837));
#352 = CARTESIAN_POINT('',(2.562013779941,-0.93630008661));
#353 = CARTESIAN_POINT('',(2.590115786697,-0.970043897319));
#354 = CARTESIAN_POINT('',(2.696172272577,-1.092820366158));
#355 = CARTESIAN_POINT('',(2.772614606148,-1.171786865404));
#356 = CARTESIAN_POINT('',(2.847715563736,-1.236819446683));
#357 = CARTESIAN_POINT('',(2.921826425263,-1.286449587792));
#358 = CARTESIAN_POINT('',(2.995283960363,-1.319827215314));
#359 = CARTESIAN_POINT('',(3.068422741927,-1.336528814554));
#360 = CARTESIAN_POINT('',(3.195072832758,-1.336528814554));
#361 = CARTESIAN_POINT('',(3.248546609311,-1.327606461643));
#362 = CARTESIAN_POINT('',(3.302144723064,-1.309765678992));
#363 = CARTESIAN_POINT('',(3.3559952062,-1.283129542944));
#364 = CARTESIAN_POINT('',(3.410226305655,-1.247945260668));
#365 = CARTESIAN_POINT('',(3.464970017874,-1.204610944678));
#366 = CARTESIAN_POINT('',(3.567772102488,-1.11017733096));
#367 = CARTESIAN_POINT('',(3.615655012629,-1.061100328427));
#368 = CARTESIAN_POINT('',(3.664113112471,-1.006858605743));
#369 = CARTESIAN_POINT('',(3.713244905145,-0.947920560489));
#370 = CARTESIAN_POINT('',(3.763151100853,-0.884889319629));
#371 = CARTESIAN_POINT('',(3.813937458632,-0.818537808324));
#372 = CARTESIAN_POINT('',(3.902240054485,-0.701399347807));
#373 = CARTESIAN_POINT('',(3.939266463153,-0.651774722271));
#374 = CARTESIAN_POINT('',(3.976827788794,-0.601329740956));
#375 = CARTESIAN_POINT('',(4.01495544554,-0.550476696218));
#376 = CARTESIAN_POINT('',(4.053683061369,-0.499684886314));
#377 = CARTESIAN_POINT('',(4.093047220765,-0.449481819916));
#378 = CARTESIAN_POINT('',(4.163730305868,-0.362935305238));
#379 = CARTESIAN_POINT('',(4.194775713232,-0.326096138861));
#380 = CARTESIAN_POINT('',(4.226217958578,-0.29023027336));
#381 = CARTESIAN_POINT('',(4.258052553524,-0.255645251643));
#382 = CARTESIAN_POINT('',(4.290277035399,-0.222656711878));
#383 = CARTESIAN_POINT('',(4.322891010443,-0.191582291708));
#384 = CARTESIAN_POINT('',(4.404883647349,-0.119920165111));
#385 = CARTESIAN_POINT('',(4.454824505111,-8.193227275335E-02));
#386 = CARTESIAN_POINT('',(4.505514929645,-5.001612327236E-02));
#387 = CARTESIAN_POINT('',(4.556776652986,-2.525272955486E-02));
#388 = CARTESIAN_POINT('',(4.6084469859,-8.435872589983E-03));
#389 = CARTESIAN_POINT('',(4.660370013494,-1.903239470786E-16));
#390 = CARTESIAN_POINT('',(4.712388980385,0.));
#391 = ( GEOMETRIC_REPRESENTATION_CONTEXT(2) 
PARAMETRIC_REPRESENTATION_CONTEXT() REPRESENTATION_CONTEXT('2D SPACE',''
  ) );
#392 = ORIENTED_EDGE('',*,*,#393,.T.);
#393 = EDGE_CURVE('',#189,#394,#396,.T.);
#394 = VERTEX_POINT('',#395);
#395 = CARTESIAN_POINT('',(2.105E+03,0.,5.5E+03));
#396 = SEAM_CURVE('',#397,(#401,#408),.PCURVE_S1.);
#397 = LINE('',#398,#399);
#398 = CARTESIAN_POINT('',(2.105E+03,0.,780.));
#399 = VECTOR('',#400,1.);
#400 = DIRECTION('',(0.,0.,1.));
#401 = PCURVE('',#93,#402);
#402 = DEFINITIONAL_REPRESENTATION('',(#403),#407);
#403 = LINE('',#404,#405);
#404 = CARTESIAN_POINT('',(0.,0.));
#405 = VECTOR('',#406,1.);
#406 = DIRECTION('',(0.,1.));
#407 = ( GEOMETRIC_REPRESENTATION_CONTEXT(2) 
PARAMETRIC_REPRESENTATION_CONTEXT() REPRESENTATION_CONTEXT('2D SPACE',''
  ) );
#408 = PCURVE('',#93,#409);
#409 = DEFINITIONAL_REPRESENTATION('',(#410),#414);
#410 = LINE('',#411,#412);
#411 = CARTESIAN_POINT('',(6.28318530718,0.));
#412 = VECTOR('',#413,1.);
#413 = DIRECTION('',(0.,1.));
#414 = ( GEOMETRIC_REPRESENTATION_CONTEXT(2) 
PARAMETRIC_REPRESENTATION_CONTEXT() REPRESENTATION_CONTEXT('2D SPACE',''
  ) );
#415 = ORIENTED_EDGE('',*,*,#416,.F.);
#416 = EDGE_CURVE('',#394,#394,#417,.T.);
#417 = SURFACE_CURVE('',#418,(#423,#430),.PCURVE_S1.);
#418 = CIRCLE('',#419,2.105E+03);
#419 = AXIS2_PLACEMENT_3D('',#420,#421,#422);
#420 = CARTESIAN_POINT('',(0.,0.,5.5E+03));
#421 = DIRECTION('',(0.,0.,1.));
#422 = DIRECTION('',(1.,0.,-0.));
#423 = PCURVE('',#93,#424);
#424 = DEFINITIONAL_REPRESENTATION('',(#425),#429);
#425 = LINE('',#426,#427);
#426 = CARTESIAN_POINT('',(0.,4.72E+03));
#427 = VECTOR('',#428,1.);
#428 = DIRECTION('',(1.,0.));
#429 = ( GEOMETRIC_REPRESENTATION_CONTEXT(2) 
PARAMETRIC_REPRESENTATION_CONTEXT() REPRESENTATION_CONTEXT('2D SPACE',''
  ) );
#430 = PCURVE('',#431,#436);
#431 = PLANE('',#432);
#432 = AXIS2_PLACEMENT_3D('',#433,#434,#435);
#433 = CARTESIAN_POINT('',(0.,0.,5.5E+03));
#434 = DIRECTION('',(0.,0.,1.));
#435 = DIRECTION('',(1.,0.,-0.));
#436 = DEFINITIONAL_REPRESENTATION('',(#437),#441);
#437 = CIRCLE('',#438,2.105E+03);
#438 = AXIS2_PLACEMENT_2D('',#439,#440);
#439 = CARTESIAN_POINT('',(0.,0.));
#440 = DIRECTION('',(1.,0.));
#441 = ( GEOMETRIC_REPRESENTATION_CONTEXT(2) 
PARAMETRIC_REPRESENTATION_CONTEXT() REPRESENTATION_CONTEXT('2D SPACE',''
  ) );
#442 = ORIENTED_EDGE('',*,*,#393,.F.);
#443 = ORIENTED_EDGE('',*,*,#444,.F.);
#444 = EDGE_CURVE('',#445,#189,#447,.T.);
#445 = VERTEX_POINT('',#446);
#446 = CARTESIAN_POINT('',(2.103663471185E+03,75.,2.2E+03));
#447 = SURFACE_CURVE('',#448,(#479,#513),.PCURVE_S1.);
#448 = B_SPLINE_CURVE_WITH_KNOTS('',8,(#449,#450,#451,#452,#453,#454,
    #455,#456,#457,#458,#459,#460,#461,#462,#463,#464,#465,#466,#467,
    #468,#469,#470,#471,#472,#473,#474,#475,#476,#477,#478),
  .UNSPECIFIED.,.F.,.F.,(9,7,7,7,9),(0.,0.51443039106,0.681804338279,
    0.809890317372,1.),.UNSPECIFIED.);
#449 = CARTESIAN_POINT('',(2.103663471185E+03,75.,2.2E+03));
#450 = CARTESIAN_POINT('',(2.103663471185E+03,75.,2.206517016172E+03));
#451 = CARTESIAN_POINT('',(2.103686544752E+03,74.352815626062,
    2.213025944333E+03));
#452 = CARTESIAN_POINT('',(2.103732591075E+03,73.061254349519,
    2.219496238215E+03));
#453 = CARTESIAN_POINT('',(2.103800905158E+03,71.113854558306,
    2.225894941339E+03));
#454 = CARTESIAN_POINT('',(2.103890096897E+03,68.487455926479,
    2.232180462246E+03));
#455 = CARTESIAN_POINT('',(2.103997756241E+03,65.149582472074,
    2.238296878361E+03));
#456 = CARTESIAN_POINT('',(2.104119859994E+03,61.061012088775,
    2.244168051841E+03));
#457 = CARTESIAN_POINT('',(2.10429254468E+03,54.593124566079,
    2.251481404534E+03));
#458 = CARTESIAN_POINT('',(2.104335819121E+03,52.920956000326,
    2.253240027236E+03));
#459 = CARTESIAN_POINT('',(2.104379753391E+03,51.16322707173,
    2.254957787418E+03));
#460 = CARTESIAN_POINT('',(2.104424096781E+03,49.318846956099,
    2.256630201326E+03));
#461 = CARTESIAN_POINT('',(2.104468570232E+03,47.386843389033,
    2.258252424066E+03));
#462 = CARTESIAN_POINT('',(2.10451286588E+03,45.366399412978,
    2.259819218349E+03));
#463 = CARTESIAN_POINT('',(2.104556646605E+03,43.256890124274,
    2.261324923238E+03));
#464 = CARTESIAN_POINT('',(2.104632374805E+03,39.375116807804,
    2.263864261099E+03));
#465 = CARTESIAN_POINT('',(2.10466469407E+03,37.63959706103,
    2.264925954381E+03));
#466 = CARTESIAN_POINT('',(2.104696320027E+03,35.852126567982,
    2.265945093424E+03));
#467 = CARTESIAN_POINT('',(2.104727062237E+03,34.01364157435,
    2.266918288142E+03));
#468 = CARTESIAN_POINT('',(2.104756725451E+03,32.125248174781,
    2.267842167633E+03));
#469 = CARTESIAN_POINT('',(2.104785111893E+03,30.188222304239,
    2.268713380134E+03));
#470 = CARTESIAN_POINT('',(2.104812023553E+03,28.204009729361,
    2.269528592976E+03));
#471 = CARTESIAN_POINT('',(2.104874727914E+03,23.161550212592,
    2.271406425061E+03));
#472 = CARTESIAN_POINT('',(2.104908570754E+03,20.043656401917,
    2.272399490443E+03));
#473 = CARTESIAN_POINT('',(2.104938015321E+03,16.834724652259,
    2.273248595252E+03));
#474 = CARTESIAN_POINT('',(2.104962365574E+03,13.550274137432,
    2.27394137696E+03));
#475 = CARTESIAN_POINT('',(2.104981053592E+03,10.206918929038,
    2.274468243831E+03));
#476 = CARTESIAN_POINT('',(2.104993673096E+03,6.822093034099,
    2.274822420606E+03));
#477 = CARTESIAN_POINT('',(2.105E+03,3.413744701897,2.275E+03));
#478 = CARTESIAN_POINT('',(2.105E+03,7.809444521952E-14,2.275E+03));
#479 = PCURVE('',#93,#480);
#480 = DEFINITIONAL_REPRESENTATION('',(#481),#512);
#481 = B_SPLINE_CURVE_WITH_KNOTS('',8,(#482,#483,#484,#485,#486,#487,
    #488,#489,#490,#491,#492,#493,#494,#495,#496,#497,#498,#499,#500,
    #501,#502,#503,#504,#505,#506,#507,#508,#509,#510,#511),
  .UNSPECIFIED.,.F.,.F.,(9,7,7,7,9),(0.,0.51443039106,0.681804338279,
    0.809890317372,1.),.UNSPECIFIED.);
#482 = CARTESIAN_POINT('',(3.563699634028E-02,1.42E+03));
#483 = CARTESIAN_POINT('',(3.563699634028E-02,1.426517016172E+03));
#484 = CARTESIAN_POINT('',(3.532934999695E-02,1.433025944333E+03));
#485 = CARTESIAN_POINT('',(3.471539187558E-02,1.439496238215E+03));
#486 = CARTESIAN_POINT('',(3.378969245671E-02,1.445894941339E+03));
#487 = CARTESIAN_POINT('',(3.254127963238E-02,1.452180462246E+03));
#488 = CARTESIAN_POINT('',(3.09547723602E-02,1.458296878361E+03));
#489 = CARTESIAN_POINT('',(2.901160238309E-02,1.464168051841E+03));
#490 = CARTESIAN_POINT('',(2.593787680257E-02,1.471481404534E+03));
#491 = CARTESIAN_POINT('',(2.514323173811E-02,1.473240027236E+03));
#492 = CARTESIAN_POINT('',(2.43079458735E-02,1.474957787418E+03));
#493 = CARTESIAN_POINT('',(2.343150342571E-02,1.476630201326E+03));
#494 = CARTESIAN_POINT('',(2.251344490032E-02,1.478252424066E+03));
#495 = CARTESIAN_POINT('',(2.155338445176E-02,1.479819218349E+03));
#496 = CARTESIAN_POINT('',(2.055102724363E-02,1.481324923238E+03));
#497 = CARTESIAN_POINT('',(1.870660352672E-02,1.483864261099E+03));
#498 = CARTESIAN_POINT('',(1.788198596288E-02,1.484925954381E+03));
#499 = CARTESIAN_POINT('',(1.703269905402E-02,1.485945093424E+03));
#500 = CARTESIAN_POINT('',(1.615918826431E-02,1.486918288142E+03));
#501 = CARTESIAN_POINT('',(1.52619795507E-02,1.487842167633E+03));
#502 = CARTESIAN_POINT('',(1.434167932807E-02,1.488713380134E+03));
#503 = CARTESIAN_POINT('',(1.339897443441E-02,1.489528592976E+03));
#504 = CARTESIAN_POINT('',(1.100332152485E-02,1.491406425061E+03));
#505 = CARTESIAN_POINT('',(9.522051409718E-03,1.492399490443E+03));
#506 = CARTESIAN_POINT('',(7.997557740985E-03,1.493248595252E+03));
#507 = CARTESIAN_POINT('',(6.437210776144E-03,1.49394137696E+03));
#508 = CARTESIAN_POINT('',(4.84889909364E-03,1.494468243831E+03));
#509 = CARTESIAN_POINT('',(3.240899308511E-03,1.494822420606E+03));
#510 = CARTESIAN_POINT('',(1.621731449832E-03,1.495E+03));
#511 = CARTESIAN_POINT('',(0.,1.495E+03));
#512 = ( GEOMETRIC_REPRESENTATION_CONTEXT(2) 
PARAMETRIC_REPRESENTATION_CONTEXT() REPRESENTATION_CONTEXT('2D SPACE',''
  ) );
#513 = PCURVE('',#514,#519);
#514 = CYLINDRICAL_SURFACE('',#515,75.);
#515 = AXIS2_PLACEMENT_3D('',#516,#517,#518);
#516 = CARTESIAN_POINT('',(2.105E+03,0.,2.2E+03));
#517 = DIRECTION('',(1.,0.,0.));
#518 = DIRECTION('',(0.,1.,0.));
#519 = DEFINITIONAL_REPRESENTATION('',(#520),#551);
#520 = B_SPLINE_CURVE_WITH_KNOTS('',8,(#521,#522,#523,#524,#525,#526,
    #527,#528,#529,#530,#531,#532,#533,#534,#535,#536,#537,#538,#539,
    #540,#541,#542,#543,#544,#545,#546,#547,#548,#549,#550),
  .UNSPECIFIED.,.F.,.F.,(9,7,7,7,9),(0.,0.51443039106,0.681804338279,
    0.809890317372,1.),.UNSPECIFIED.);
#521 = CARTESIAN_POINT('',(0.,-1.336528814554));
#522 = CARTESIAN_POINT('',(8.689354896136E-02,-1.336528814554));
#523 = CARTESIAN_POINT('',(0.173679289357,-1.313455247631));
#524 = CARTESIAN_POINT('',(0.260949445245,-1.267408924617));
#525 = CARTESIAN_POINT('',(0.349254872062,-1.199094842434));
#526 = CARTESIAN_POINT('',(0.439136515773,-1.109903102531));
#527 = CARTESIAN_POINT('',(0.531152840791,-1.002243759071));
#528 = CARTESIAN_POINT('',(0.625907162254,-0.880140006239));
#529 = CARTESIAN_POINT('',(0.756082221564,-0.707455320156));
#530 = CARTESIAN_POINT('',(0.788417207396,-0.664180878656));
#531 = CARTESIAN_POINT('',(0.821149638089,-0.620246608949));
#532 = CARTESIAN_POINT('',(0.854298963578,-0.575903218586));
#533 = CARTESIAN_POINT('',(0.887885647886,-0.531429767503));
#534 = CARTESIAN_POINT('',(0.921931447628,-0.487134119714));
#535 = CARTESIAN_POINT('',(0.956459690501,-0.443353395006));
#536 = CARTESIAN_POINT('',(1.018307389969,-0.36762519466));
#537 = CARTESIAN_POINT('',(1.045421707802,-0.335305930455));
#538 = CARTESIAN_POINT('',(1.072834462983,-0.303679972924));
#539 = CARTESIAN_POINT('',(1.10054260246,-0.272937762502));
#540 = CARTESIAN_POINT('',(1.128544080637,-0.243274549231));
#541 = CARTESIAN_POINT('',(1.156837875571,-0.214888106835));
#542 = CARTESIAN_POINT('',(1.185424005174,-0.1879764468));
#543 = CARTESIAN_POINT('',(1.257167562462,-0.125272086032));
#544 = CARTESIAN_POINT('',(1.300746637084,-9.14292458394E-02));
#545 = CARTESIAN_POINT('',(1.34491336686,-6.198467932559E-02));
#546 = CARTESIAN_POINT('',(1.389553137726,-3.763442641533E-02));
#547 = CARTESIAN_POINT('',(1.434560374235,-1.894640819465E-02));
#548 = CARTESIAN_POINT('',(1.479835089207,-6.326904441424E-03));
#549 = CARTESIAN_POINT('',(1.52527973077,-1.665334536938E-16));
#550 = CARTESIAN_POINT('',(1.570796326795,0.));
#551 = ( GEOMETRIC_REPRESENTATION_CONTEXT(2) 
PARAMETRIC_REPRESENTATION_CONTEXT() REPRESENTATION_CONTEXT('2D SPACE',''
  ) );
#552 = ORIENTED_EDGE('',*,*,#553,.F.);
#553 = EDGE_CURVE('',#164,#445,#554,.T.);
#554 = SURFACE_CURVE('',#555,(#586,#620),.PCURVE_S1.);
#555 = B_SPLINE_CURVE_WITH_KNOTS('',8,(#556,#557,#558,#559,#560,#561,
    #562,#563,#564,#565,#566,#567,#568,#569,#570,#571,#572,#573,#574,
    #575,#576,#577,#578,#579,#580,#581,#582,#583,#584,#585),
  .UNSPECIFIED.,.F.,.F.,(9,7,7,7,9),(0.,0.1962787932,0.318184203322,
    0.485561045879,1.),.UNSPECIFIED.);
#556 = CARTESIAN_POINT('',(2.105E+03,1.263381247098E-13,2.125E+03));
#557 = CARTESIAN_POINT('',(2.105E+03,3.525145221133,2.125E+03));
#558 = CARTESIAN_POINT('',(2.104993253456E+03,7.044032920656,
    2.125189358362E+03));
#559 = CARTESIAN_POINT('',(2.104979801407E+03,10.536917256251,
    2.125566899219E+03));
#560 = CARTESIAN_POINT('',(2.104959898593E+03,13.984262199282,
    2.126128184936E+03));
#561 = CARTESIAN_POINT('',(2.104934004036E+03,17.367129801691,
    2.12686558379E+03));
#562 = CARTESIAN_POINT('',(2.104902756498E+03,20.667531643774,
    2.127768330591E+03));
#563 = CARTESIAN_POINT('',(2.104866934803E+03,23.868743462851,
    2.128822580232E+03));
#564 = CARTESIAN_POINT('',(2.104802850521E+03,28.872766317605,
    2.130749843495E+03));
#565 = CARTESIAN_POINT('',(2.104776837454E+03,30.748131652467,
    2.131541049188E+03));
#566 = CARTESIAN_POINT('',(2.104749533135E+03,32.580360410763,
    2.132382210909E+03));
#567 = CARTESIAN_POINT('',(2.104721107929E+03,34.368271374353,
    2.133270458764E+03));
#568 = CARTESIAN_POINT('',(2.104691731528E+03,36.110820657414,
    2.134202913268E+03));
#569 = CARTESIAN_POINT('',(2.10466157122E+03,37.807101700265,
    2.135176685303E+03));
#570 = CARTESIAN_POINT('',(2.104630790147E+03,39.456345263177,
    2.136188876082E+03));
#571 = CARTESIAN_POINT('',(2.104556646605E+03,43.25689012427,
    2.138675076762E+03));
#572 = CARTESIAN_POINT('',(2.10451286588E+03,45.36639941298,
    2.140180781651E+03));
#573 = CARTESIAN_POINT('',(2.104468570232E+03,47.386843389037,
    2.141747575934E+03));
#574 = CARTESIAN_POINT('',(2.104424096781E+03,49.3188469561,
    2.143369798674E+03));
#575 = CARTESIAN_POINT('',(2.104379753391E+03,51.163227071728,
    2.145042212582E+03));
#576 = CARTESIAN_POINT('',(2.104335819121E+03,52.920956000323,
    2.146759972764E+03));
#577 = CARTESIAN_POINT('',(2.10429254468E+03,54.593124566079,
    2.148518595466E+03));
#578 = CARTESIAN_POINT('',(2.104119860079E+03,61.061008902586,
    2.155831944557E+03));
#579 = CARTESIAN_POINT('',(2.103997756267E+03,65.149582115111,
    2.161703119613E+03));
#580 = CARTESIAN_POINT('',(2.103890096851E+03,68.487457338862,
    2.167819539189E+03));
#581 = CARTESIAN_POINT('',(2.103800905098E+03,71.113856286555,
    2.174105062592E+03));
#582 = CARTESIAN_POINT('',(2.103732591046E+03,73.061255147305,
    2.180503766017E+03));
#583 = CARTESIAN_POINT('',(2.103686544757E+03,74.352815513656,
    2.186974057841E+03));
#584 = CARTESIAN_POINT('',(2.103663471185E+03,75.,2.193482983244E+03));
#585 = CARTESIAN_POINT('',(2.103663471185E+03,75.,2.2E+03));
#586 = PCURVE('',#93,#587);
#587 = DEFINITIONAL_REPRESENTATION('',(#588),#619);
#588 = B_SPLINE_CURVE_WITH_KNOTS('',8,(#589,#590,#591,#592,#593,#594,
    #595,#596,#597,#598,#599,#600,#601,#602,#603,#604,#605,#606,#607,
    #608,#609,#610,#611,#612,#613,#614,#615,#616,#617,#618),
  .UNSPECIFIED.,.F.,.F.,(9,7,7,7,9),(0.,0.1962787932,0.318184203322,
    0.485561045879,1.),.UNSPECIFIED.);
#589 = CARTESIAN_POINT('',(0.,1.345E+03));
#590 = CARTESIAN_POINT('',(1.674653311702E-03,1.345E+03));
#591 = CARTESIAN_POINT('',(3.346333934869E-03,1.345189358362E+03));
#592 = CARTESIAN_POINT('',(5.005668550765E-03,1.345566899219E+03));
#593 = CARTESIAN_POINT('',(6.643383485955E-03,1.346128184936E+03));
#594 = CARTESIAN_POINT('',(8.250488157294E-03,1.34686558379E+03));
#595 = CARTESIAN_POINT('',(9.818441343398E-03,1.347768330591E+03));
#596 = CARTESIAN_POINT('',(1.133930028259E-02,1.348822580232E+03));
#597 = CARTESIAN_POINT('',(1.371670322192E-02,1.350749843495E+03));
#598 = CARTESIAN_POINT('',(1.460769831645E-02,1.351541049188E+03));
#599 = CARTESIAN_POINT('',(1.547821166566E-02,1.352382210909E+03));
#600 = CARTESIAN_POINT('',(1.632768206724E-02,1.353270458764E+03));
#601 = CARTESIAN_POINT('',(1.715561335332E-02,1.354202913268E+03));
#602 = CARTESIAN_POINT('',(1.796157441202E-02,1.355176685303E+03));
#603 = CARTESIAN_POINT('',(1.874519920899E-02,1.356188876082E+03));
#604 = CARTESIAN_POINT('',(2.055102724363E-02,1.358675076762E+03));
#605 = CARTESIAN_POINT('',(2.155338445176E-02,1.360180781651E+03));
#606 = CARTESIAN_POINT('',(2.251344490032E-02,1.361747575934E+03));
#607 = CARTESIAN_POINT('',(2.343150342571E-02,1.363369798674E+03));
#608 = CARTESIAN_POINT('',(2.43079458735E-02,1.365042212582E+03));
#609 = CARTESIAN_POINT('',(2.514323173811E-02,1.366759972764E+03));
#610 = CARTESIAN_POINT('',(2.593787680257E-02,1.368518595466E+03));
#611 = CARTESIAN_POINT('',(2.901160086892E-02,1.375831944557E+03));
#612 = CARTESIAN_POINT('',(3.095477219036E-02,1.381703119613E+03));
#613 = CARTESIAN_POINT('',(3.254128030365E-02,1.387819539189E+03));
#614 = CARTESIAN_POINT('',(3.378969327827E-02,1.394105062593E+03));
#615 = CARTESIAN_POINT('',(3.471539225481E-02,1.400503766017E+03));
#616 = CARTESIAN_POINT('',(3.532934994352E-02,1.406974057841E+03));
#617 = CARTESIAN_POINT('',(3.563699634028E-02,1.413482983244E+03));
#618 = CARTESIAN_POINT('',(3.563699634028E-02,1.42E+03));
#619 = ( GEOMETRIC_REPRESENTATION_CONTEXT(2) 
PARAMETRIC_REPRESENTATION_CONTEXT() REPRESENTATION_CONTEXT('2D SPACE',''
  ) );
#620 = PCURVE('',#621,#626);
#621 = CYLINDRICAL_SURFACE('',#622,75.);
#622 = AXIS2_PLACEMENT_3D('',#623,#624,#625);
#623 = CARTESIAN_POINT('',(2.105E+03,0.,2.2E+03));
#624 = DIRECTION('',(1.,0.,0.));
#625 = DIRECTION('',(0.,1.,0.));
#626 = DEFINITIONAL_REPRESENTATION('',(#627),#658);
#627 = B_SPLINE_CURVE_WITH_KNOTS('',8,(#628,#629,#630,#631,#632,#633,
    #634,#635,#636,#637,#638,#639,#640,#641,#642,#643,#644,#645,#646,
    #647,#648,#649,#650,#651,#652,#653,#654,#655,#656,#657),
  .UNSPECIFIED.,.F.,.F.,(9,7,7,7,9),(0.,0.1962787932,0.318184203322,
    0.485561045879,1.),.UNSPECIFIED.);
#628 = CARTESIAN_POINT('',(4.712388980385,0.));
#629 = CARTESIAN_POINT('',(4.759390916666,-1.665334536938E-16));
#630 = CARTESIAN_POINT('',(4.806309415761,-6.746544438865E-03));
#631 = CARTESIAN_POINT('',(4.853039443656,-2.019859300723E-02));
#632 = CARTESIAN_POINT('',(4.899476351268,-4.010140691405E-02));
#633 = CARTESIAN_POINT('',(4.945512643055,-6.599596352859E-02));
#634 = CARTESIAN_POINT('',(4.991034383174,-9.724350161297E-02));
#635 = CARTESIAN_POINT('',(5.035917239175,-0.133065197145));
#636 = CARTESIAN_POINT('',(5.107414979206,-0.197149479313));
#637 = CARTESIAN_POINT('',(5.134540585162,-0.223162545822));
#638 = CARTESIAN_POINT('',(5.161400171836,-0.250466865025));
#639 = CARTESIAN_POINT('',(5.187994059011,-0.278892071254));
#640 = CARTESIAN_POINT('',(5.214321717458,-0.308268471655));
#641 = CARTESIAN_POINT('',(5.240381790861,-0.338428780428));
#642 = CARTESIAN_POINT('',(5.266172117744,-0.369209853073));
#643 = CARTESIAN_POINT('',(5.326725616678,-0.443353395006));
#644 = CARTESIAN_POINT('',(5.361253859552,-0.487134119715));
#645 = CARTESIAN_POINT('',(5.395299659293,-0.531429767503));
#646 = CARTESIAN_POINT('',(5.428886343602,-0.575903218586));
#647 = CARTESIAN_POINT('',(5.46203566909,-0.620246608949));
#648 = CARTESIAN_POINT('',(5.494768099784,-0.664180878656));
#649 = CARTESIAN_POINT('',(5.527103085616,-0.707455320156));
#650 = CARTESIAN_POINT('',(5.657278080799,-0.880139921172));
#651 = CARTESIAN_POINT('',(5.752032442968,-1.002243732855));
#652 = CARTESIAN_POINT('',(5.844048815547,-1.10990314903));
#653 = CARTESIAN_POINT('',(5.933930491253,-1.199094902234));
#654 = CARTESIAN_POINT('',(6.022235917877,-1.26740895394));
#655 = CARTESIAN_POINT('',(6.109506046863,-1.31345524344));
#656 = CARTESIAN_POINT('',(6.196291750438,-1.336528814554));
#657 = CARTESIAN_POINT('',(6.28318530718,-1.336528814554));
#658 = ( GEOMETRIC_REPRESENTATION_CONTEXT(2) 
PARAMETRIC_REPRESENTATION_CONTEXT() REPRESENTATION_CONTEXT('2D SPACE',''
  ) );
#659 = ADVANCED_FACE('',(#660),#126,.T.);
#660 = FACE_BOUND('',#661,.T.);
#661 = EDGE_LOOP('',(#662,#685,#712,#713));
#662 = ORIENTED_EDGE('',*,*,#663,.T.);
#663 = EDGE_CURVE('',#110,#664,#666,.T.);
#664 = VERTEX_POINT('',#665);
#665 = CARTESIAN_POINT('',(75.,0.,-200.));
#666 = SEAM_CURVE('',#667,(#671,#678),.PCURVE_S1.);
#667 = LINE('',#668,#669);
#668 = CARTESIAN_POINT('',(75.,0.,0.));
#669 = VECTOR('',#670,1.);
#670 = DIRECTION('',(-0.,-0.,-1.));
#671 = PCURVE('',#126,#672);
#672 = DEFINITIONAL_REPRESENTATION('',(#673),#677);
#673 = LINE('',#674,#675);
#674 = CARTESIAN_POINT('',(0.,0.));
#675 = VECTOR('',#676,1.);
#676 = DIRECTION('',(0.,-1.));
#677 = ( GEOMETRIC_REPRESENTATION_CONTEXT(2) 
PARAMETRIC_REPRESENTATION_CONTEXT() REPRESENTATION_CONTEXT('2D SPACE',''
  ) );
#678 = PCURVE('',#126,#679);
#679 = DEFINITIONAL_REPRESENTATION('',(#680),#684);
#680 = LINE('',#681,#682);
#681 = CARTESIAN_POINT('',(6.28318530718,0.));
#682 = VECTOR('',#683,1.);
#683 = DIRECTION('',(0.,-1.));
#684 = ( GEOMETRIC_REPRESENTATION_CONTEXT(2) 
PARAMETRIC_REPRESENTATION_CONTEXT() REPRESENTATION_CONTEXT('2D SPACE',''
  ) );
#685 = ORIENTED_EDGE('',*,*,#686,.T.);
#686 = EDGE_CURVE('',#664,#664,#687,.T.);
#687 = SURFACE_CURVE('',#688,(#693,#700),.PCURVE_S1.);
#688 = CIRCLE('',#689,75.);
#689 = AXIS2_PLACEMENT_3D('',#690,#691,#692);
#690 = CARTESIAN_POINT('',(0.,0.,-200.));
#691 = DIRECTION('',(0.,0.,1.));
#692 = DIRECTION('',(1.,0.,0.));
#693 = PCURVE('',#126,#694);
#694 = DEFINITIONAL_REPRESENTATION('',(#695),#699);
#695 = LINE('',#696,#697);
#696 = CARTESIAN_POINT('',(0.,-200.));
#697 = VECTOR('',#698,1.);
#698 = DIRECTION('',(1.,0.));
#699 = ( GEOMETRIC_REPRESENTATION_CONTEXT(2) 
PARAMETRIC_REPRESENTATION_CONTEXT() REPRESENTATION_CONTEXT('2D SPACE',''
  ) );
#700 = PCURVE('',#701,#706);
#701 = PLANE('',#702);
#702 = AXIS2_PLACEMENT_3D('',#703,#704,#705);
#703 = CARTESIAN_POINT('',(-7.001293478602E-15,1.605911987866E-15,-200.)
  );
#704 = DIRECTION('',(0.,0.,1.));
#705 = DIRECTION('',(1.,0.,-0.));
#706 = DEFINITIONAL_REPRESENTATION('',(#707),#711);
#707 = CIRCLE('',#708,75.);
#708 = AXIS2_PLACEMENT_2D('',#709,#710);
#709 = CARTESIAN_POINT('',(7.001293478602E-15,-1.605911987866E-15));
#710 = DIRECTION('',(1.,0.));
#711 = ( GEOMETRIC_REPRESENTATION_CONTEXT(2) 
PARAMETRIC_REPRESENTATION_CONTEXT() REPRESENTATION_CONTEXT('2D SPACE',''
  ) );
#712 = ORIENTED_EDGE('',*,*,#663,.F.);
#713 = ORIENTED_EDGE('',*,*,#109,.F.);
#714 = ADVANCED_FACE('',(#715),#621,.T.);
#715 = FACE_BOUND('',#716,.T.);
#716 = EDGE_LOOP('',(#717,#740,#766));
#717 = ORIENTED_EDGE('',*,*,#718,.F.);
#718 = EDGE_CURVE('',#719,#445,#721,.T.);
#719 = VERTEX_POINT('',#720);
#720 = CARTESIAN_POINT('',(2.105E+03,75.,2.2E+03));
#721 = SURFACE_CURVE('',#722,(#726,#733),.PCURVE_S1.);
#722 = LINE('',#723,#724);
#723 = CARTESIAN_POINT('',(2.105E+03,75.,2.2E+03));
#724 = VECTOR('',#725,1.);
#725 = DIRECTION('',(-1.,-0.,-0.));
#726 = PCURVE('',#621,#727);
#727 = DEFINITIONAL_REPRESENTATION('',(#728),#732);
#728 = LINE('',#729,#730);
#729 = CARTESIAN_POINT('',(6.28318530718,0.));
#730 = VECTOR('',#731,1.);
#731 = DIRECTION('',(0.,-1.));
#732 = ( GEOMETRIC_REPRESENTATION_CONTEXT(2) 
PARAMETRIC_REPRESENTATION_CONTEXT() REPRESENTATION_CONTEXT('2D SPACE',''
  ) );
#733 = PCURVE('',#514,#734);
#734 = DEFINITIONAL_REPRESENTATION('',(#735),#739);
#735 = LINE('',#736,#737);
#736 = CARTESIAN_POINT('',(0.,0.));
#737 = VECTOR('',#738,1.);
#738 = DIRECTION('',(0.,-1.));
#739 = ( GEOMETRIC_REPRESENTATION_CONTEXT(2) 
PARAMETRIC_REPRESENTATION_CONTEXT() REPRESENTATION_CONTEXT('2D SPACE',''
  ) );
#740 = ORIENTED_EDGE('',*,*,#741,.F.);
#741 = EDGE_CURVE('',#164,#719,#742,.T.);
#742 = SURFACE_CURVE('',#743,(#748,#754),.PCURVE_S1.);
#743 = CIRCLE('',#744,75.);
#744 = AXIS2_PLACEMENT_3D('',#745,#746,#747);
#745 = CARTESIAN_POINT('',(2.105E+03,0.,2.2E+03));
#746 = DIRECTION('',(1.,0.,0.));
#747 = DIRECTION('',(0.,1.,0.));
#748 = PCURVE('',#621,#749);
#749 = DEFINITIONAL_REPRESENTATION('',(#750),#753);
#750 = B_SPLINE_CURVE_WITH_KNOTS('',1,(#751,#752),.UNSPECIFIED.,.F.,.F.,
  (2,2),(0.,6.28318530718),.PIECEWISE_BEZIER_KNOTS.);
#751 = CARTESIAN_POINT('',(0.,0.));
#752 = CARTESIAN_POINT('',(6.28318530718,0.));
#753 = ( GEOMETRIC_REPRESENTATION_CONTEXT(2) 
PARAMETRIC_REPRESENTATION_CONTEXT() REPRESENTATION_CONTEXT('2D SPACE',''
  ) );
#754 = PCURVE('',#755,#760);
#755 = CYLINDRICAL_SURFACE('',#756,75.);
#756 = AXIS2_PLACEMENT_3D('',#757,#758,#759);
#757 = CARTESIAN_POINT('',(2.105E+03,0.,2.2E+03));
#758 = DIRECTION('',(-1.,-0.,-0.));
#759 = DIRECTION('',(0.,1.,0.));
#760 = DEFINITIONAL_REPRESENTATION('',(#761),#765);
#761 = LINE('',#762,#763);
#762 = CARTESIAN_POINT('',(-0.,0.));
#763 = VECTOR('',#764,1.);
#764 = DIRECTION('',(-1.,0.));
#765 = ( GEOMETRIC_REPRESENTATION_CONTEXT(2) 
PARAMETRIC_REPRESENTATION_CONTEXT() REPRESENTATION_CONTEXT('2D SPACE',''
  ) );
#766 = ORIENTED_EDGE('',*,*,#553,.T.);
#767 = ADVANCED_FACE('',(#768),#514,.T.);
#768 = FACE_BOUND('',#769,.T.);
#769 = EDGE_LOOP('',(#770,#791,#792));
#770 = ORIENTED_EDGE('',*,*,#771,.F.);
#771 = EDGE_CURVE('',#719,#189,#772,.T.);
#772 = SURFACE_CURVE('',#773,(#778,#784),.PCURVE_S1.);
#773 = CIRCLE('',#774,75.);
#774 = AXIS2_PLACEMENT_3D('',#775,#776,#777);
#775 = CARTESIAN_POINT('',(2.105E+03,0.,2.2E+03));
#776 = DIRECTION('',(1.,0.,0.));
#777 = DIRECTION('',(0.,1.,0.));
#778 = PCURVE('',#514,#779);
#779 = DEFINITIONAL_REPRESENTATION('',(#780),#783);
#780 = B_SPLINE_CURVE_WITH_KNOTS('',1,(#781,#782),.UNSPECIFIED.,.F.,.F.,
  (2,2),(0.,6.28318530718),.PIECEWISE_BEZIER_KNOTS.);
#781 = CARTESIAN_POINT('',(0.,0.));
#782 = CARTESIAN_POINT('',(6.28318530718,0.));
#783 = ( GEOMETRIC_REPRESENTATION_CONTEXT(2) 
PARAMETRIC_REPRESENTATION_CONTEXT() REPRESENTATION_CONTEXT('2D SPACE',''
  ) );
#784 = PCURVE('',#755,#785);
#785 = DEFINITIONAL_REPRESENTATION('',(#786),#790);
#786 = LINE('',#787,#788);
#787 = CARTESIAN_POINT('',(-0.,0.));
#788 = VECTOR('',#789,1.);
#789 = DIRECTION('',(-1.,0.));
#790 = ( GEOMETRIC_REPRESENTATION_CONTEXT(2) 
PARAMETRIC_REPRESENTATION_CONTEXT() REPRESENTATION_CONTEXT('2D SPACE',''
  ) );
#791 = ORIENTED_EDGE('',*,*,#718,.T.);
#792 = ORIENTED_EDGE('',*,*,#444,.T.);
#793 = ADVANCED_FACE('',(#794),#431,.T.);
#794 = FACE_BOUND('',#795,.T.);
#795 = EDGE_LOOP('',(#796));
#796 = ORIENTED_EDGE('',*,*,#416,.T.);
#797 = ADVANCED_FACE('',(#798),#322,.T.);
#798 = FACE_BOUND('',#799,.T.);
#799 = EDGE_LOOP('',(#800,#821));
#800 = ORIENTED_EDGE('',*,*,#801,.F.);
#801 = EDGE_CURVE('',#189,#164,#802,.T.);
#802 = SURFACE_CURVE('',#803,(#808,#814),.PCURVE_S1.);
#803 = CIRCLE('',#804,75.);
#804 = AXIS2_PLACEMENT_3D('',#805,#806,#807);
#805 = CARTESIAN_POINT('',(2.105E+03,0.,2.2E+03));
#806 = DIRECTION('',(1.,0.,0.));
#807 = DIRECTION('',(0.,1.,0.));
#808 = PCURVE('',#322,#809);
#809 = DEFINITIONAL_REPRESENTATION('',(#810),#813);
#810 = B_SPLINE_CURVE_WITH_KNOTS('',1,(#811,#812),.UNSPECIFIED.,.F.,.F.,
  (2,2),(0.,6.28318530718),.PIECEWISE_BEZIER_KNOTS.);
#811 = CARTESIAN_POINT('',(0.,0.));
#812 = CARTESIAN_POINT('',(6.28318530718,0.));
#813 = ( GEOMETRIC_REPRESENTATION_CONTEXT(2) 
PARAMETRIC_REPRESENTATION_CONTEXT() REPRESENTATION_CONTEXT('2D SPACE',''
  ) );
#814 = PCURVE('',#755,#815);
#815 = DEFINITIONAL_REPRESENTATION('',(#816),#820);
#816 = LINE('',#817,#818);
#817 = CARTESIAN_POINT('',(-0.,0.));
#818 = VECTOR('',#819,1.);
#819 = DIRECTION('',(-1.,0.));
#820 = ( GEOMETRIC_REPRESENTATION_CONTEXT(2) 
PARAMETRIC_REPRESENTATION_CONTEXT() REPRESENTATION_CONTEXT('2D SPACE',''
  ) );
#821 = ORIENTED_EDGE('',*,*,#188,.T.);
#822 = ADVANCED_FACE('',(#823),#701,.F.);
#823 = FACE_BOUND('',#824,.F.);
#824 = EDGE_LOOP('',(#825));
#825 = ORIENTED_EDGE('',*,*,#686,.T.);
#826 = ADVANCED_FACE('',(#827),#755,.T.);
#827 = FACE_BOUND('',#828,.F.);
#828 = EDGE_LOOP('',(#829,#830,#853,#880,#881,#882));
#829 = ORIENTED_EDGE('',*,*,#771,.F.);
#830 = ORIENTED_EDGE('',*,*,#831,.T.);
#831 = EDGE_CURVE('',#719,#832,#834,.T.);
#832 = VERTEX_POINT('',#833);
#833 = CARTESIAN_POINT('',(2.305E+03,75.,2.2E+03));
#834 = SEAM_CURVE('',#835,(#839,#846),.PCURVE_S1.);
#835 = LINE('',#836,#837);
#836 = CARTESIAN_POINT('',(2.105E+03,75.,2.2E+03));
#837 = VECTOR('',#838,1.);
#838 = DIRECTION('',(1.,0.,0.));
#839 = PCURVE('',#755,#840);
#840 = DEFINITIONAL_REPRESENTATION('',(#841),#845);
#841 = LINE('',#842,#843);
#842 = CARTESIAN_POINT('',(-6.28318530718,0.));
#843 = VECTOR('',#844,1.);
#844 = DIRECTION('',(-0.,-1.));
#845 = ( GEOMETRIC_REPRESENTATION_CONTEXT(2) 
PARAMETRIC_REPRESENTATION_CONTEXT() REPRESENTATION_CONTEXT('2D SPACE',''
  ) );
#846 = PCURVE('',#755,#847);
#847 = DEFINITIONAL_REPRESENTATION('',(#848),#852);
#848 = LINE('',#849,#850);
#849 = CARTESIAN_POINT('',(-0.,0.));
#850 = VECTOR('',#851,1.);
#851 = DIRECTION('',(-0.,-1.));
#852 = ( GEOMETRIC_REPRESENTATION_CONTEXT(2) 
PARAMETRIC_REPRESENTATION_CONTEXT() REPRESENTATION_CONTEXT('2D SPACE',''
  ) );
#853 = ORIENTED_EDGE('',*,*,#854,.T.);
#854 = EDGE_CURVE('',#832,#832,#855,.T.);
#855 = SURFACE_CURVE('',#856,(#861,#868),.PCURVE_S1.);
#856 = CIRCLE('',#857,75.);
#857 = AXIS2_PLACEMENT_3D('',#858,#859,#860);
#858 = CARTESIAN_POINT('',(2.305E+03,0.,2.2E+03));
#859 = DIRECTION('',(1.,0.,0.));
#860 = DIRECTION('',(0.,1.,0.));
#861 = PCURVE('',#755,#862);
#862 = DEFINITIONAL_REPRESENTATION('',(#863),#867);
#863 = LINE('',#864,#865);
#864 = CARTESIAN_POINT('',(-0.,-200.));
#865 = VECTOR('',#866,1.);
#866 = DIRECTION('',(-1.,0.));
#867 = ( GEOMETRIC_REPRESENTATION_CONTEXT(2) 
PARAMETRIC_REPRESENTATION_CONTEXT() REPRESENTATION_CONTEXT('2D SPACE',''
  ) );
#868 = PCURVE('',#869,#874);
#869 = PLANE('',#870);
#870 = AXIS2_PLACEMENT_3D('',#871,#872,#873);
#871 = CARTESIAN_POINT('',(2.305E+03,1.867011594294E-14,2.2E+03));
#872 = DIRECTION('',(1.,0.,0.));
#873 = DIRECTION('',(-0.,0.,1.));
#874 = DEFINITIONAL_REPRESENTATION('',(#875),#879);
#875 = CIRCLE('',#876,75.);
#876 = AXIS2_PLACEMENT_2D('',#877,#878);
#877 = CARTESIAN_POINT('',(0.,1.867011594294E-14));
#878 = DIRECTION('',(0.,-1.));
#879 = ( GEOMETRIC_REPRESENTATION_CONTEXT(2) 
PARAMETRIC_REPRESENTATION_CONTEXT() REPRESENTATION_CONTEXT('2D SPACE',''
  ) );
#880 = ORIENTED_EDGE('',*,*,#831,.F.);
#881 = ORIENTED_EDGE('',*,*,#741,.F.);
#882 = ORIENTED_EDGE('',*,*,#801,.F.);
#883 = ADVANCED_FACE('',(#884),#869,.T.);
#884 = FACE_BOUND('',#885,.T.);
#885 = EDGE_LOOP('',(#886));
#886 = ORIENTED_EDGE('',*,*,#854,.T.);
#887 = ( GEOMETRIC_REPRESENTATION_CONTEXT(3) 
GLOBAL_UNCERTAINTY_ASSIGNED_CONTEXT((#891)) GLOBAL_UNIT_ASSIGNED_CONTEXT
((#888,#889,#890)) REPRESENTATION_CONTEXT('Context #1',
  '3D Context with UNIT and UNCERTAINTY') );
#888 = ( LENGTH_UNIT() NAMED_UNIT(*) SI_UNIT(.MILLI.,.METRE.) );
#889 = ( NAMED_UNIT(*) PLANE_ANGLE_UNIT() SI_UNIT($,.RADIAN.) );
#890 = ( NAMED_UNIT(*) SI_UNIT($,.STERADIAN.) SOLID_ANGLE_UNIT() );
#891 = UNCERTAINTY_MEASURE_WITH_UNIT(LENGTH_MEASURE(2.E-07),#888,
  'distance_accuracy_value','confusion accuracy');
#892 = PRODUCT_RELATED_PRODUCT_CATEGORY('part',$,(#7));
ENDSEC;
END-ISO-10303-21;
