ISO-10303-21;
HEADER;
/* Generated by software containing ST-Developer
 * from STEP Tools, Inc. (www.steptools.com) 
 */

FILE_DESCRIPTION(
/* description */ (
'CAx-IF Rec.Pracs.---Representation and Presentation of Product Manufa
cturing Information (PMI)---4.0---2014-10-13',
'CAx-IF Rec.Pracs.---3D Tessellated Geometry---0.4---2014-09-14','2;1'),

/* implementation_level */ '2;1');

FILE_NAME(
/* name */ 'Cone_fundo_aerador',
/* time_stamp */ '2026-07-01T19:34:25-03:00',
/* author */ (''),
/* organization */ ('Siemens PLM Software'),
/* preprocessor_version */ 'ST-DEVELOPER v20',
/* originating_system */ 'DEX',
/* authorisation */ $);

FILE_SCHEMA (('AP242_MANAGED_MODEL_BASED_3D_ENGINEERING_MIM_LF { 1 0 10303 442 1 1 4 }'));
ENDSEC;

DATA;
#10=SHAPE_REPRESENTATION_RELATIONSHIP('','',#103,#11);
#11=ADVANCED_BREP_SHAPE_REPRESENTATION('',(#101),#441);
#12=PLANE('',#107);
#13=PLANE('',#109);
#14=ORIENTED_EDGE('',*,*,#38,.T.);
#15=ORIENTED_EDGE('',*,*,#39,.F.);
#16=ORIENTED_EDGE('',*,*,#40,.T.);
#17=ORIENTED_EDGE('',*,*,#41,.T.);
#18=ORIENTED_EDGE('',*,*,#42,.T.);
#19=ORIENTED_EDGE('',*,*,#43,.F.);
#20=ORIENTED_EDGE('',*,*,#44,.T.);
#21=ORIENTED_EDGE('',*,*,#39,.T.);
#22=ORIENTED_EDGE('',*,*,#44,.F.);
#23=ORIENTED_EDGE('',*,*,#45,.F.);
#24=ORIENTED_EDGE('',*,*,#46,.F.);
#25=ORIENTED_EDGE('',*,*,#40,.F.);
#26=ORIENTED_EDGE('',*,*,#47,.T.);
#27=ORIENTED_EDGE('',*,*,#41,.F.);
#28=ORIENTED_EDGE('',*,*,#46,.T.);
#29=ORIENTED_EDGE('',*,*,#48,.T.);
#30=ORIENTED_EDGE('',*,*,#49,.F.);
#31=ORIENTED_EDGE('',*,*,#42,.F.);
#32=ORIENTED_EDGE('',*,*,#38,.F.);
#33=ORIENTED_EDGE('',*,*,#47,.F.);
#34=ORIENTED_EDGE('',*,*,#49,.T.);
#35=ORIENTED_EDGE('',*,*,#48,.F.);
#36=ORIENTED_EDGE('',*,*,#45,.T.);
#37=ORIENTED_EDGE('',*,*,#43,.T.);
#38=EDGE_CURVE('',#50,#51,#58,.F.);
#39=EDGE_CURVE('',#52,#51,#59,.F.);
#40=EDGE_CURVE('',#52,#53,#60,.F.);
#41=EDGE_CURVE('',#53,#50,#61,.T.);
#42=EDGE_CURVE('',#51,#54,#62,.F.);
#43=EDGE_CURVE('',#55,#54,#63,.F.);
#44=EDGE_CURVE('',#55,#52,#64,.F.);
#45=EDGE_CURVE('',#56,#55,#65,.F.);
#46=EDGE_CURVE('',#53,#56,#66,.F.);
#47=EDGE_CURVE('',#57,#50,#67,.F.);
#48=EDGE_CURVE('',#56,#57,#68,.T.);
#49=EDGE_CURVE('',#54,#57,#69,.F.);
#50=VERTEX_POINT('',#131);
#51=VERTEX_POINT('',#132);
#52=VERTEX_POINT('',#200);
#53=VERTEX_POINT('',#205);
#54=VERTEX_POINT('',#278);
#55=VERTEX_POINT('',#346);
#56=VERTEX_POINT('',#356);
#57=VERTEX_POINT('',#366);
#58=B_SPLINE_CURVE_WITH_KNOTS('',3,(#127,#128,#129,#130),.UNSPECIFIED.,
 .F.,.F.,(4,4),(-7.04819177795159,0.),.UNSPECIFIED.);
#59=B_SPLINE_CURVE_WITH_KNOTS('',3,(#133,#134,#135,#136,#137,#138,#139,
#140,#141,#142,#143,#144,#145,#146,#147,#148,#149,#150,#151,#152,#153,#154,
#155,#156,#157,#158,#159,#160,#161,#162,#163,#164,#165,#166,#167,#168,#169,
#170,#171,#172,#173,#174,#175,#176,#177,#178,#179,#180,#181,#182,#183,#184,
#185,#186,#187,#188,#189,#190,#191,#192,#193,#194,#195,#196,#197,#198,#199),
 .UNSPECIFIED.,.F.,.F.,(4,1,1,1,1,1,1,1,1,1,1,1,1,1,1,1,1,1,1,1,1,1,1,1,
1,1,1,1,1,1,1,1,1,1,1,1,1,1,1,1,1,1,1,1,1,1,1,1,1,1,1,1,1,1,1,1,1,1,1,1,
1,1,1,1,4),(0.,0.015625,0.03125,0.046875,0.0625,0.078125,0.09375,0.109375,
0.125,0.140625,0.15625,0.171875,0.1875,0.203125,0.21875,0.234375,0.25,0.265625,
0.28125,0.296875,0.3125,0.328125,0.34375,0.359375,0.375,0.390625,0.40625,
0.421875,0.4375,0.453125,0.46875,0.484375,0.5,0.515625,0.53125,0.546875,
0.5625,0.578125,0.59375,0.609375,0.625,0.640625,0.65625,0.671875,0.6875,
0.703125,0.71875,0.734375,0.75,0.765625,0.78125,0.796875,0.8125,0.828125,
0.84375,0.859375,0.875,0.890625,0.90625,0.921875,0.9375,0.953125,0.96875,
0.984375,1.),.UNSPECIFIED.);
#60=B_SPLINE_CURVE_WITH_KNOTS('',3,(#201,#202,#203,#204),.UNSPECIFIED.,
 .F.,.F.,(4,4),(-7.04819177795162,0.),.UNSPECIFIED.);
#61=B_SPLINE_CURVE_WITH_KNOTS('',3,(#206,#207,#208,#209,#210,#211,#212,
#213,#214,#215,#216,#217,#218,#219,#220,#221,#222,#223,#224,#225,#226,#227,
#228,#229,#230,#231,#232,#233,#234,#235,#236,#237,#238,#239,#240,#241,#242,
#243,#244,#245,#246,#247,#248,#249,#250,#251,#252,#253,#254,#255,#256,#257,
#258,#259,#260,#261,#262,#263,#264,#265,#266,#267,#268,#269,#270,#271,#272),
 .UNSPECIFIED.,.F.,.F.,(4,1,1,1,1,1,1,1,1,1,1,1,1,1,1,1,1,1,1,1,1,1,1,1,
1,1,1,1,1,1,1,1,1,1,1,1,1,1,1,1,1,1,1,1,1,1,1,1,1,1,1,1,1,1,1,1,1,1,1,1,
1,1,1,1,4),(0.,0.015625,0.03125,0.046875,0.0625,0.078125,0.09375,0.109375,
0.125,0.140625,0.15625,0.171875,0.1875,0.203125,0.21875,0.234375,0.25,0.265625,
0.28125,0.296875,0.3125,0.328125,0.34375,0.359375,0.375,0.390625,0.40625,
0.421875,0.4375,0.453125,0.46875,0.484375,0.5,0.515625,0.53125,0.546875,
0.5625,0.578125,0.59375,0.609375,0.625,0.640625,0.65625,0.671875,0.6875,
0.703125,0.71875,0.734375,0.75,0.765625,0.78125,0.796875,0.8125,0.828125,
0.84375,0.859375,0.875,0.890625,0.90625,0.921875,0.9375,0.953125,0.96875,
0.984375,1.),.UNSPECIFIED.);
#62=B_SPLINE_CURVE_WITH_KNOTS('',3,(#274,#275,#276,#277),.UNSPECIFIED.,
 .F.,.F.,(4,4),(-494.337646830675,0.),.UNSPECIFIED.);
#63=B_SPLINE_CURVE_WITH_KNOTS('',3,(#279,#280,#281,#282,#283,#284,#285,
#286,#287,#288,#289,#290,#291,#292,#293,#294,#295,#296,#297,#298,#299,#300,
#301,#302,#303,#304,#305,#306,#307,#308,#309,#310,#311,#312,#313,#314,#315,
#316,#317,#318,#319,#320,#321,#322,#323,#324,#325,#326,#327,#328,#329,#330,
#331,#332,#333,#334,#335,#336,#337,#338,#339,#340,#341,#342,#343,#344,#345),
 .UNSPECIFIED.,.F.,.F.,(4,1,1,1,1,1,1,1,1,1,1,1,1,1,1,1,1,1,1,1,1,1,1,1,
1,1,1,1,1,1,1,1,1,1,1,1,1,1,1,1,1,1,1,1,1,1,1,1,1,1,1,1,1,1,1,1,1,1,1,1,
1,1,1,1,4),(0.,0.015625,0.03125,0.046875,0.0625,0.078125,0.09375,0.109375,
0.125,0.140625,0.15625,0.171875,0.1875,0.203125,0.21875,0.234375,0.25,0.265625,
0.28125,0.296875,0.3125,0.328125,0.34375,0.359375,0.375,0.390625,0.40625,
0.421875,0.4375,0.453125,0.46875,0.484375,0.5,0.515625,0.53125,0.546875,
0.5625,0.578125,0.59375,0.609375,0.625,0.640625,0.65625,0.671875,0.6875,
0.703125,0.71875,0.734375,0.75,0.765625,0.78125,0.796875,0.8125,0.828125,
0.84375,0.859375,0.875,0.890625,0.90625,0.921875,0.9375,0.953125,0.96875,
0.984375,1.),.UNSPECIFIED.);
#64=B_SPLINE_CURVE_WITH_KNOTS('',3,(#347,#348,#349,#350),.UNSPECIFIED.,
 .F.,.F.,(4,4),(-494.33764683069,0.),.UNSPECIFIED.);
#65=B_SPLINE_CURVE_WITH_KNOTS('',3,(#352,#353,#354,#355),.UNSPECIFIED.,
 .F.,.F.,(4,4),(-7.04819177795093,0.),.UNSPECIFIED.);
#66=B_SPLINE_CURVE_WITH_KNOTS('',3,(#357,#358,#359,#360),.UNSPECIFIED.,
 .F.,.F.,(4,4),(-494.337646830679,0.),.UNSPECIFIED.);
#67=B_SPLINE_CURVE_WITH_KNOTS('',3,(#362,#363,#364,#365),.UNSPECIFIED.,
 .F.,.F.,(4,4),(-494.337646830682,0.),.UNSPECIFIED.);
#68=B_SPLINE_CURVE_WITH_KNOTS('',3,(#367,#368,#369,#370,#371,#372,#373,
#374,#375,#376,#377,#378,#379,#380,#381,#382,#383,#384,#385,#386,#387,#388,
#389,#390,#391,#392,#393,#394,#395,#396,#397,#398,#399,#400,#401,#402,#403,
#404,#405,#406,#407,#408,#409,#410,#411,#412,#413,#414,#415,#416,#417,#418,
#419,#420,#421,#422,#423,#424,#425,#426,#427,#428,#429,#430,#431,#432,#433),
 .UNSPECIFIED.,.F.,.F.,(4,1,1,1,1,1,1,1,1,1,1,1,1,1,1,1,1,1,1,1,1,1,1,1,
1,1,1,1,1,1,1,1,1,1,1,1,1,1,1,1,1,1,1,1,1,1,1,1,1,1,1,1,1,1,1,1,1,1,1,1,
1,1,1,1,4),(0.,0.015625,0.03125,0.046875,0.0625,0.078125,0.09375,0.109375,
0.125,0.140625,0.15625,0.171875,0.1875,0.203125,0.21875,0.234375,0.25,0.265625,
0.28125,0.296875,0.3125,0.328125,0.34375,0.359375,0.375,0.390625,0.40625,
0.421875,0.4375,0.453125,0.46875,0.484375,0.5,0.515625,0.53125,0.546875,
0.5625,0.578125,0.59375,0.609375,0.625,0.640625,0.65625,0.671875,0.6875,
0.703125,0.71875,0.734375,0.75,0.765625,0.78125,0.796875,0.8125,0.828125,
0.84375,0.859375,0.875,0.890625,0.90625,0.921875,0.9375,0.953125,0.96875,
0.984375,1.),.UNSPECIFIED.);
#69=B_SPLINE_CURVE_WITH_KNOTS('',3,(#435,#436,#437,#438),.UNSPECIFIED.,
 .F.,.F.,(4,4),(-7.04819177795082,0.),.UNSPECIFIED.);
#70=EDGE_LOOP('',(#14,#15,#16,#17));
#71=EDGE_LOOP('',(#18,#19,#20,#21));
#72=EDGE_LOOP('',(#22,#23,#24,#25));
#73=EDGE_LOOP('',(#26,#27,#28,#29));
#74=EDGE_LOOP('',(#30,#31,#32,#33));
#75=EDGE_LOOP('',(#34,#35,#36,#37));
#76=FACE_BOUND('',#70,.T.);
#77=FACE_BOUND('',#71,.T.);
#78=FACE_BOUND('',#72,.T.);
#79=FACE_BOUND('',#73,.T.);
#80=FACE_BOUND('',#74,.T.);
#81=FACE_BOUND('',#75,.T.);
#82=CONICAL_SURFACE('',#105,10.3757488467596,1.10644091958739);
#83=CONICAL_SURFACE('',#106,2.79638884675915,0.464355407208162);
#84=CONICAL_SURFACE('',#108,10.1599999999998,0.464355407208164);
#85=CONICAL_SURFACE('',#110,2.58063999999991,1.10644091958703);
#86=ADVANCED_FACE('',(#76),#82,.T.);
#87=ADVANCED_FACE('',(#77),#83,.T.);
#88=ADVANCED_FACE('',(#78),#12,.T.);
#89=ADVANCED_FACE('',(#79),#84,.F.);
#90=ADVANCED_FACE('',(#80),#13,.T.);
#91=ADVANCED_FACE('',(#81),#85,.F.);
#92=CLOSED_SHELL('',(#86,#87,#88,#89,#90,#91));
#93=STYLED_ITEM('',(#94),#101);
#94=PRESENTATION_STYLE_ASSIGNMENT((#95));
#95=SURFACE_STYLE_USAGE(.BOTH.,#96);
#96=SURFACE_SIDE_STYLE('',(#97));
#97=SURFACE_STYLE_FILL_AREA(#98);
#98=FILL_AREA_STYLE('',(#99));
#99=FILL_AREA_STYLE_COLOUR('',#100);
#100=COLOUR_RGB('',0.650980392156863,0.,0.650980392156863);
#101=MANIFOLD_SOLID_BREP('28A',#92);
#102=SHAPE_DEFINITION_REPRESENTATION(#446,#103);
#103=SHAPE_REPRESENTATION('28A',(#104),#441);
#104=AXIS2_PLACEMENT_3D('',#125,#111,#112);
#105=AXIS2_PLACEMENT_3D('',#126,#113,#114);
#106=AXIS2_PLACEMENT_3D('',#273,#115,#116);
#107=AXIS2_PLACEMENT_3D('',#351,#117,#118);
#108=AXIS2_PLACEMENT_3D('',#361,#119,#120);
#109=AXIS2_PLACEMENT_3D('',#434,#121,#122);
#110=AXIS2_PLACEMENT_3D('',#439,#123,#124);
#111=DIRECTION('',(0.,0.,1.));
#112=DIRECTION('',(1.,0.,0.));
#113=DIRECTION('',(0.,0.,-1.));
#114=DIRECTION('',(-1.,0.,0.));
#115=DIRECTION('',(2.54092964888599E-15,-2.54126227757016E-15,1.));
#116=DIRECTION('',(0.,-1.,-2.54126227757016E-15));
#117=DIRECTION('',(8.72664625091351E-5,0.999999996192282,1.15888693752635E-18));
#118=DIRECTION('',(0.999999996192282,-8.72664625091351E-5,0.));
#119=DIRECTION('',(6.9935308371499E-16,-6.99444634811709E-16,1.));
#120=DIRECTION('',(0.,-1.,-6.99444634811709E-16));
#121=DIRECTION('',(8.72664625091351E-5,-0.999999996192282,0.));
#122=DIRECTION('',(-0.999999996192282,-8.72664625091351E-5,0.));
#123=DIRECTION('',(0.,0.,-1.));
#124=DIRECTION('',(-1.,0.,0.));
#125=CARTESIAN_POINT('',(0.,0.,0.));
#126=CARTESIAN_POINT('',(1.99999999999981,-4.40262399999974,-43.7848893742976));
#127=CARTESIAN_POINT('',(12.3757488072512,-4.40171854510219,-43.7848893742976));
#128=CARTESIAN_POINT('',(12.303832525272,-4.40172482098174,-43.748867582865));
#129=CARTESIAN_POINT('',(12.2319162432927,-4.40173109686129,-43.7128457914325));
#130=CARTESIAN_POINT('',(12.1599999613135,-4.40173737274084,-43.676824));
#131=CARTESIAN_POINT('',(12.1599999613135,-4.40173737201932,-43.676824));
#132=CARTESIAN_POINT('',(12.3757488072514,-4.40171854510218,-43.7848893742976));
#133=CARTESIAN_POINT('',(12.3757488072514,-4.40171854510217,-43.7848893742975));
#134=CARTESIAN_POINT('',(12.3757191771322,-4.06218239121197,-43.7848893742975));
#135=CARTESIAN_POINT('',(12.3423001791105,-3.38311360226824,-43.7848893742975));
#136=CARTESIAN_POINT('',(12.192575206557,-2.37432782860628,-43.7848893742975));
#137=CARTESIAN_POINT('',(11.9446956118285,-1.38507470221297,-43.7848893742975));
#138=CARTESIAN_POINT('',(11.6010484783978,-0.424880576942917,-43.7848893742975));
#139=CARTESIAN_POINT('',(11.1649431323089,0.497007821799995,-43.7848893742975));
#140=CARTESIAN_POINT('',(10.6405792733041,1.37171270951133,-43.7848893742975));
#141=CARTESIAN_POINT('',(10.0330065316709,2.19081066438391,-43.7848893742975));
#142=CARTESIAN_POINT('',(9.34807584024012,2.94641376408606,-43.7848893742975));
#143=CARTESIAN_POINT('',(8.5923830898321,3.63124554142439,-43.7848893742975));
#144=CARTESIAN_POINT('',(7.77320561074878,4.23871105818371,-43.7848893742975));
#145=CARTESIAN_POINT('',(6.89843209199502,4.76296041409369,-43.7848893742975));
#146=CARTESIAN_POINT('',(5.97648661310831,5.19894508153758,-43.7848893742975));
#147=CARTESIAN_POINT('',(5.01624752017125,5.54246652290769,-43.7848893742975));
#148=CARTESIAN_POINT('',(4.02696192723162,5.79021662258023,-43.7848893742975));
#149=CARTESIAN_POINT('',(3.01815666648266,5.93980954410681,-43.7848893742975));
#150=CARTESIAN_POINT('',(1.99954654475402,5.98980470584867,-43.7848893742975));
#151=CARTESIAN_POINT('',(0.98094078980486,5.93972065379519,-43.7848893742975));
#152=CARTESIAN_POINT('',(-0.0278514126577794,5.79003969797178,-43.7848893742975));
#153=CARTESIAN_POINT('',(-1.0171153815557,5.54220326778852,-43.7848893742975));
#154=CARTESIAN_POINT('',(-1.97732449293546,5.19859803105761,-43.7848893742975));
#155=CARTESIAN_POINT('',(-2.89923192147204,4.76253291035346,-43.7848893742975));
#156=CARTESIAN_POINT('',(-3.77395968750816,4.23820721804848,-43.7848893742975));
#157=CARTESIAN_POINT('',(-4.59308415210555,3.6306702168842,-43.7848893742975));
#158=CARTESIAN_POINT('',(-5.34871713678949,2.94577249551021,-43.7848893742975));
#159=CARTESIAN_POINT('',(-6.03358188680271,2.1901096272449,-43.7848893742975));
#160=CARTESIAN_POINT('',(-6.64108314634144,1.37095865462477,-43.7848893742975));
#161=CARTESIAN_POINT('',(-7.16537067094836,0.496208011397132,-43.7848893742975));
#162=CARTESIAN_POINT('',(-7.60139556543735,-0.425718443192121,-43.7848893742975));
#163=CARTESIAN_POINT('',(-7.94495890481494,-1.3859425462646,-43.7848893742975));
#164=CARTESIAN_POINT('',(-8.19275216997871,-2.37521732812509,-43.7848893742975));
#165=CARTESIAN_POINT('',(-8.34238910879615,-3.3840160606912,-43.7848893742975));
#166=CARTESIAN_POINT('',(-8.39242871574146,-4.40262399999974,-43.7848893742975));
#167=CARTESIAN_POINT('',(-8.34238910879615,-5.42123193930828,-43.7848893742975));
#168=CARTESIAN_POINT('',(-8.19275216997871,-6.43003067187439,-43.7848893742975));
#169=CARTESIAN_POINT('',(-7.94495890481494,-7.41930545373488,-43.7848893742975));
#170=CARTESIAN_POINT('',(-7.60139556543735,-8.37952955680736,-43.7848893742975));
#171=CARTESIAN_POINT('',(-7.16537067094837,-9.30145601139661,-43.7848893742975));
#172=CARTESIAN_POINT('',(-6.64108314634144,-10.1762066546243,-43.7848893742975));
#173=CARTESIAN_POINT('',(-6.03358188680271,-10.9953576272444,-43.7848893742975));
#174=CARTESIAN_POINT('',(-5.34871713678949,-11.7510204955097,-43.7848893742975));
#175=CARTESIAN_POINT('',(-4.59308415210555,-12.4359182168837,-43.7848893742975));
#176=CARTESIAN_POINT('',(-3.77395968750817,-13.043455218048,-43.7848893742975));
#177=CARTESIAN_POINT('',(-2.89923192147204,-13.5677809103529,-43.7848893742975));
#178=CARTESIAN_POINT('',(-1.97732449293547,-14.0038460310571,-43.7848893742975));
#179=CARTESIAN_POINT('',(-1.0171153815557,-14.347451267788,-43.7848893742975));
#180=CARTESIAN_POINT('',(-0.0278514126577808,-14.5952876979713,-43.7848893742975));
#181=CARTESIAN_POINT('',(0.980940789804858,-14.7449686537947,-43.7848893742975));
#182=CARTESIAN_POINT('',(1.99954654475402,-14.7950527058482,-43.7848893742975));
#183=CARTESIAN_POINT('',(3.01815666648266,-14.7450575441063,-43.7848893742975));
#184=CARTESIAN_POINT('',(4.02696192723162,-14.5954646225797,-43.7848893742975));
#185=CARTESIAN_POINT('',(5.01624752017124,-14.3477145229072,-43.7848893742975));
#186=CARTESIAN_POINT('',(5.97648661310831,-14.0041930815371,-43.7848893742975));
#187=CARTESIAN_POINT('',(6.89843209199501,-13.5682084140932,-43.7848893742975));
#188=CARTESIAN_POINT('',(7.77320561074878,-13.0439590581832,-43.7848893742975));
#189=CARTESIAN_POINT('',(8.5923830898321,-12.4364935414239,-43.7848893742975));
#190=CARTESIAN_POINT('',(9.34807584024012,-11.7516617640855,-43.7848893742975));
#191=CARTESIAN_POINT('',(10.0330065316709,-10.9960586643834,-43.7848893742975));
#192=CARTESIAN_POINT('',(10.6405792733041,-10.1769607095108,-43.7848893742975));
#193=CARTESIAN_POINT('',(11.1649431323089,-9.30225582179948,-43.7848893742975));
#194=CARTESIAN_POINT('',(11.6010484783978,-8.38036742305657,-43.7848893742975));
#195=CARTESIAN_POINT('',(11.9446956118285,-7.42017329778652,-43.7848893742975));
#196=CARTESIAN_POINT('',(12.192575206557,-6.43092017139321,-43.7848893742975));
#197=CARTESIAN_POINT('',(12.3423001791105,-5.42213439773125,-43.7848893742975));
#198=CARTESIAN_POINT('',(12.3757191771322,-4.74306560878752,-43.7848893742975));
#199=CARTESIAN_POINT('',(12.3757488072514,-4.40352945489732,-43.7848893742975));
#200=CARTESIAN_POINT('',(12.3757488072514,-4.4035294548973,-43.7848893742976));
#201=CARTESIAN_POINT('',(12.1599999613135,-4.40351062725865,-43.676824));
#202=CARTESIAN_POINT('',(12.2319162432927,-4.4035169031382,-43.7128457914325));
#203=CARTESIAN_POINT('',(12.303832525272,-4.40352317901775,-43.748867582865));
#204=CARTESIAN_POINT('',(12.3757488072512,-4.4035294548973,-43.7848893742976));
#205=CARTESIAN_POINT('',(12.1599999613136,-4.40351062725864,-43.676824));
#206=CARTESIAN_POINT('',(12.1599999613137,-4.40351062725861,-43.6768240000001));
#207=CARTESIAN_POINT('',(12.1599709473104,-4.73598661279694,-43.6768240000001));
#208=CARTESIAN_POINT('',(12.1272468495209,-5.40093513820611,-43.6768240000001));
#209=CARTESIAN_POINT('',(11.9806351934747,-6.38874465555066,-43.6768240000001));
#210=CARTESIAN_POINT('',(11.7379099001357,-7.35742767906999,-43.6768240000001));
#211=CARTESIAN_POINT('',(11.4014084169924,-8.29765594180314,-43.6768240000001));
#212=CARTESIAN_POINT('',(10.9743712573905,-9.20037499076639,-43.6768240000001));
#213=CARTESIAN_POINT('',(10.4609107943268,-10.0568916422776,-43.6768240000001));
#214=CARTESIAN_POINT('',(9.86597165825465,-10.8589576275298,-43.6768240000001));
#215=CARTESIAN_POINT('',(9.19528312023068,-11.5988490422465,-43.6768240000001));
#216=CARTESIAN_POINT('',(8.45530391896621,-12.269440722955,-43.6768240000001));
#217=CARTESIAN_POINT('',(7.65316006309541,-12.8642748637411,-43.6768240000001));
#218=CARTESIAN_POINT('',(6.79657620762609,-13.3776232046379,-43.6768240000001));
#219=CARTESIAN_POINT('',(5.89380126541896,-13.8045421949345,-43.6768240000001));
#220=CARTESIAN_POINT('',(4.95352897005707,-14.1409205996036,-43.6768240000001));
#221=CARTESIAN_POINT('',(3.98481415508679,-14.383519090551,-43.6768240000001));
#222=CARTESIAN_POINT('',(2.99698555586132,-14.5300014413825,-43.6768240000001));
#223=CARTESIAN_POINT('',(1.99955597370682,-14.5789570252925,-43.6768240000001));
#224=CARTESIAN_POINT('',(1.00213066753088,-14.5299143994177,-43.6768240000001));
#225=CARTESIAN_POINT('',(0.014314855063348,-14.3833458448366,-43.6768240000001));
#226=CARTESIAN_POINT('',(-0.954378785506221,-14.1406628184979,-43.6768240000001));
#227=CARTESIAN_POINT('',(-1.89462172273438,-13.8042023608725,-43.6768240000001));
#228=CARTESIAN_POINT('',(-2.79735940579395,-13.377204590226,-43.6768240000001));
#229=CARTESIAN_POINT('',(-3.6538984599079,-12.8637815002403,-43.6768240000001));
#230=CARTESIAN_POINT('',(-4.45599040365313,-12.2688773614651,-43.6768240000001));
#231=CARTESIAN_POINT('',(-5.1959110819362,-11.5982211079328,-43.6768240000001));
#232=CARTESIAN_POINT('',(-5.8665350497,-10.8582711674547,-43.6768240000001));
#233=CARTESIAN_POINT('',(-6.46140419004559,-10.0561532668831,-43.6768240000001));
#234=CARTESIAN_POINT('',(-6.97478990597588,-9.19959181127607,-43.6768240000001));
#235=CARTESIAN_POINT('',(-7.40174828685377,-8.29683549778335,-43.6768240000001));
#236=CARTESIAN_POINT('',(-7.73816771832128,-7.35657788059325,-43.6768240000001));
#237=CARTESIAN_POINT('',(-7.98080847719528,-6.3878736519012,-43.6768240000001));
#238=CARTESIAN_POINT('',(-8.12733393004103,-5.40005144511434,-43.6768240000001));
#239=CARTESIAN_POINT('',(-8.17633303498014,-4.40262399999965,-43.6768240000001));
#240=CARTESIAN_POINT('',(-8.12733393004102,-3.40519655488497,-43.6768240000001));
#241=CARTESIAN_POINT('',(-7.98080847719525,-2.41737434809811,-43.6768240000001));
#242=CARTESIAN_POINT('',(-7.73816771832122,-1.44867011940606,-43.6768240000001));
#243=CARTESIAN_POINT('',(-7.4017482868537,-0.508412502215968,-43.6768240000001));
#244=CARTESIAN_POINT('',(-6.97478990597579,0.394343811276743,-43.6768240000001));
#245=CARTESIAN_POINT('',(-6.46140419004549,1.25090526688374,-43.6768240000001));
#246=CARTESIAN_POINT('',(-5.86653504969988,2.05302316745532,-43.6768240000001));
#247=CARTESIAN_POINT('',(-5.19591108193608,2.79297310793346,-43.6768240000001));
#248=CARTESIAN_POINT('',(-4.455990403653,3.46362936146575,-43.6768240000001));
#249=CARTESIAN_POINT('',(-3.65389845990775,4.05853350024095,-43.6768240000001));
#250=CARTESIAN_POINT('',(-2.79735940579381,4.57195659022662,-43.6768240000001));
#251=CARTESIAN_POINT('',(-1.89462172273421,4.99895436087311,-43.6768240000001));
#252=CARTESIAN_POINT('',(-0.954378785506072,5.33541481849842,-43.6768240000001));
#253=CARTESIAN_POINT('',(0.01431485506354,5.57809784483712,-43.6768240000001));
#254=CARTESIAN_POINT('',(1.00213066753105,5.7246663994182,-43.6768240000001));
#255=CARTESIAN_POINT('',(1.999555973707,5.77370902529307,-43.6768240000001));
#256=CARTESIAN_POINT('',(2.99698555586149,5.72475344138297,-43.6768240000001));
#257=CARTESIAN_POINT('',(3.98481415508696,5.57827109055151,-43.6768240000001));
#258=CARTESIAN_POINT('',(4.95352897005726,5.33567259960409,-43.6768240000001));
#259=CARTESIAN_POINT('',(5.89380126541909,4.99929419493497,-43.6768240000001));
#260=CARTESIAN_POINT('',(6.79657620762628,4.57237520463829,-43.6768240000001));
#261=CARTESIAN_POINT('',(7.65316006309555,4.05902686374153,-43.6768240000001));
#262=CARTESIAN_POINT('',(8.45530391896635,3.46419272295538,-43.6768240000001));
#263=CARTESIAN_POINT('',(9.1952831202308,2.79360104224687,-43.6768240000001));
#264=CARTESIAN_POINT('',(9.86597165825476,2.05370962753015,-43.6768240000001));
#265=CARTESIAN_POINT('',(10.4609107943269,1.25164364227792,-43.6768240000001));
#266=CARTESIAN_POINT('',(10.9743712573906,0.395126990766767,-43.6768240000001));
#267=CARTESIAN_POINT('',(11.4014084169925,-0.507592058196503,-43.6768240000001));
#268=CARTESIAN_POINT('',(11.7379099001357,-1.44782032092964,-43.6768240000001));
#269=CARTESIAN_POINT('',(11.9806351934747,-2.41650334444903,-43.6768240000001));
#270=CARTESIAN_POINT('',(12.1272468495209,-3.40431286179354,-43.6768240000001));
#271=CARTESIAN_POINT('',(12.1599709473104,-4.06926138720271,-43.6768240000001));
#272=CARTESIAN_POINT('',(12.1599999613137,-4.40173737274104,-43.6768240000001));
#273=CARTESIAN_POINT('',(2.00000000000003,-4.40262399999972,-58.916824));
#274=CARTESIAN_POINT('',(4.79638883611132,-4.40237996903747,-58.916824));
#275=CARTESIAN_POINT('',(7.32284215982467,-4.40215949439238,-53.8728457914325));
#276=CARTESIAN_POINT('',(9.84929548353801,-4.40193901974729,-48.828867582865));
#277=CARTESIAN_POINT('',(12.3757488072514,-4.40171854510219,-43.7848893742976));
#278=CARTESIAN_POINT('',(4.79638883611142,-4.40237996903735,-58.916824));
#279=CARTESIAN_POINT('',(4.79638883611136,-4.40237996903744,-58.9168239999999));
#280=CARTESIAN_POINT('',(4.79638085043862,-4.31087090035883,-58.9168239999999));
#281=CARTESIAN_POINT('',(4.78737402936786,-4.12785371137034,-58.9168239999999));
#282=CARTESIAN_POINT('',(4.74702135222492,-3.85597383764742,-58.9168239999999));
#283=CARTESIAN_POINT('',(4.68021482632734,-3.58935824679955,-58.9168239999999));
#284=CARTESIAN_POINT('',(4.58759779932148,-3.33057440552842,-58.9168239999999));
#285=CARTESIAN_POINT('',(4.47006217429565,-3.08211441731209,-58.9168239999999));
#286=CARTESIAN_POINT('',(4.32873982073631,-2.8463709516281,-58.9168239999999));
#287=CARTESIAN_POINT('',(4.16499167461302,-2.62561422175367,-58.9168239999999));
#288=CARTESIAN_POINT('',(3.98039463254812,-2.42197011743017,-58.9168239999999));
#289=CARTESIAN_POINT('',(3.7767263662834,-2.23739973390037,-58.9168239999999));
#290=CARTESIAN_POINT('',(3.55594820367972,-2.0736804861675,-58.9168239999999));
#291=CARTESIAN_POINT('',(3.32018624110607,-1.93238899256651,-58.9168239999999));
#292=CARTESIAN_POINT('',(3.07171086910591,-1.8148858918839,-58.9168239999999));
#293=CARTESIAN_POINT('',(2.81291490850881,-1.72230274039694,-58.9168239999999));
#294=CARTESIAN_POINT('',(2.54629056753704,-1.65553111497115,-58.9168239999999));
#295=CARTESIAN_POINT('',(2.27440544181029,-1.61521402716483,-58.9168239999999));
#296=CARTESIAN_POINT('',(1.99987778836891,-1.60173973101987,-58.9168239999999));
#297=CARTESIAN_POINT('',(1.72535131182701,-1.61523798417068,-58.9168239999999));
#298=CARTESIAN_POINT('',(1.45346970546516,-1.65557879827659,-58.9168239999999));
#299=CARTESIAN_POINT('',(1.18685119243215,-1.72237369081115,-58.9168239999999));
#300=CARTESIAN_POINT('',(0.928063312224588,-1.81497942615356,-58.9168239999999));
#301=CARTESIAN_POINT('',(0.679598195250469,-1.9325042099554,-58.9168239999999));
#302=CARTESIAN_POINT('',(0.443848563583353,-2.07381627713104,-58.9168239999999));
#303=CARTESIAN_POINT('',(0.223084689019913,-2.23755479076901,-58.9168239999999));
#304=CARTESIAN_POINT('',(0.0194325303351377,-2.42214294700787,-58.9168239999999));
#305=CARTESIAN_POINT('',(-0.165146739726292,-2.62580315967649,-58.9168239999999));
#306=CARTESIAN_POINT('',(-0.328875620567206,-2.8465741784702,-58.9168239999999));
#307=CARTESIAN_POINT('',(-0.47017740109014,-3.08232997581499,-58.9168239999999));
#308=CARTESIAN_POINT('',(-0.587691343444217,-3.33080022053866,-58.9168239999999));
#309=CARTESIAN_POINT('',(-0.680285786947056,-3.58959214118734,-58.9168239999999));
#310=CARTESIAN_POINT('',(-0.747069045990817,-3.85621356844353,-58.9168239999999));
#311=CARTESIAN_POINT('',(-0.787397996985334,-4.12809693474664,-58.9168239999999));
#312=CARTESIAN_POINT('',(-0.800884271646067,-4.40262399999961,-58.9168239999999));
#313=CARTESIAN_POINT('',(-0.787397996985357,-4.67715106525258,-58.9168239999999));
#314=CARTESIAN_POINT('',(-0.747069045990859,-4.9490344315557,-58.9168239999999));
#315=CARTESIAN_POINT('',(-0.680285786947122,-5.2156558588119,-58.9168239999999));
#316=CARTESIAN_POINT('',(-0.587691343444302,-5.47444777946058,-58.9168239999999));
#317=CARTESIAN_POINT('',(-0.470177401090245,-5.72291802418425,-58.9168239999999));
#318=CARTESIAN_POINT('',(-0.32887562056733,-5.95867382152906,-58.9168239999999));
#319=CARTESIAN_POINT('',(-0.16514673972643,-6.17944484032279,-58.9168239999999));
#320=CARTESIAN_POINT('',(0.0194325303349799,-6.38310505299141,-58.9168239999999));
#321=CARTESIAN_POINT('',(0.223084689019741,-6.5676932092303,-58.9168239999999));
#322=CARTESIAN_POINT('',(0.443848563583169,-6.73143172286828,-58.9168239999999));
#323=CARTESIAN_POINT('',(0.679598195250271,-6.87274379004394,-58.9168239999999));
#324=CARTESIAN_POINT('',(0.928063312224383,-6.9902685738458,-58.9168239999999));
#325=CARTESIAN_POINT('',(1.18685119243194,-7.08287430918823,-58.9168239999999));
#326=CARTESIAN_POINT('',(1.45346970546494,-7.14966920172282,-58.9168239999999));
#327=CARTESIAN_POINT('',(1.72535131182679,-7.19001001582875,-58.9168239999999));
#328=CARTESIAN_POINT('',(1.99987778836869,-7.20350826897957,-58.9168239999999));
#329=CARTESIAN_POINT('',(2.27440544181007,-7.19003397283463,-58.9168239999999));
#330=CARTESIAN_POINT('',(2.54629056753683,-7.14971688502833,-58.9168239999999));
#331=CARTESIAN_POINT('',(2.8129149085086,-7.08294525960257,-58.9168239999999));
#332=CARTESIAN_POINT('',(3.0717108691057,-6.99036210811563,-58.9168239999999));
#333=CARTESIAN_POINT('',(3.32018624110588,-6.87285900743304,-58.9168239999999));
#334=CARTESIAN_POINT('',(3.55594820367953,-6.73156751383207,-58.9168239999999));
#335=CARTESIAN_POINT('',(3.77672636628323,-6.56784826609921,-58.9168239999999));
#336=CARTESIAN_POINT('',(3.98039463254796,-6.38327788256943,-58.9168239999999));
#337=CARTESIAN_POINT('',(4.16499167461287,-6.17963377824595,-58.9168239999999));
#338=CARTESIAN_POINT('',(4.32873982073618,-5.95887704837153,-58.9168239999999));
#339=CARTESIAN_POINT('',(4.47006217429554,-5.72313358268755,-58.9168239999999));
#340=CARTESIAN_POINT('',(4.5875977993214,-5.47467359447123,-58.9168239999999));
#341=CARTESIAN_POINT('',(4.68021482632727,-5.21588975320011,-58.9168239999999));
#342=CARTESIAN_POINT('',(4.74702135222487,-4.94927416235224,-58.9168239999999));
#343=CARTESIAN_POINT('',(4.78737402936784,-4.67739428862933,-58.9168239999999));
#344=CARTESIAN_POINT('',(4.79638085043862,-4.49437709964083,-58.9168239999999));
#345=CARTESIAN_POINT('',(4.79638883611136,-4.40286803096223,-58.9168239999999));
#346=CARTESIAN_POINT('',(4.79638883611142,-4.40286803096212,-58.916824));
#347=CARTESIAN_POINT('',(12.3757488072516,-4.4035294548973,-43.7848893742977));
#348=CARTESIAN_POINT('',(9.84929548353817,-4.4033089802522,-48.8288675828651));
#349=CARTESIAN_POINT('',(7.32284215982475,-4.40308850560711,-53.8728457914326));
#350=CARTESIAN_POINT('',(4.79638883611132,-4.40286803096202,-58.916824));
#351=CARTESIAN_POINT('',(4.58038599017452,-4.40284918115769,-43.67657));
#352=CARTESIAN_POINT('',(4.79638883611132,-4.40286803096202,-58.916824));
#353=CARTESIAN_POINT('',(4.7244725541321,-4.40286175508247,-58.8808022085675));
#354=CARTESIAN_POINT('',(4.65255627215288,-4.40285547920292,-58.8447804171349));
#355=CARTESIAN_POINT('',(4.58063999017366,-4.40284920332337,-58.8087586257024));
#356=CARTESIAN_POINT('',(4.58063999017369,-4.40284920332345,-58.8087586257025));
#357=CARTESIAN_POINT('',(4.58063999017372,-4.40284920332337,-58.8087586257025));
#358=CARTESIAN_POINT('',(7.10709331388698,-4.40306967796846,-53.764780417135));
#359=CARTESIAN_POINT('',(9.63354663760024,-4.40329015261356,-48.7208022085675));
#360=CARTESIAN_POINT('',(12.1599999613135,-4.40351062725865,-43.676824));
#361=CARTESIAN_POINT('',(2.00000000000028,-4.40262399999975,-43.676824));
#362=CARTESIAN_POINT('',(12.1599999613142,-4.40173737274084,-43.6768240000004));
#363=CARTESIAN_POINT('',(9.63354663760062,-4.40195784738593,-48.7208022085677));
#364=CARTESIAN_POINT('',(7.10709331388705,-4.40217832203103,-53.7647804171351));
#365=CARTESIAN_POINT('',(4.58063999017348,-4.40239879667612,-58.8087586257024));
#366=CARTESIAN_POINT('',(4.58063999017357,-4.40239879667594,-58.8087586257024));
#367=CARTESIAN_POINT('',(4.58063999017366,-4.40284920332353,-58.8087586257024));
#368=CARTESIAN_POINT('',(4.58063262061683,-4.48729810365025,-58.8087586257024));
#369=CARTESIAN_POINT('',(4.57232069977829,-4.65619502910416,-58.8087586257024));
#370=CARTESIAN_POINT('',(4.53508133914255,-4.90709864650964,-58.8087586257024));
#371=CARTESIAN_POINT('',(4.47342911463445,-5.15314413448352,-58.8087586257024));
#372=CARTESIAN_POINT('',(4.38795773791608,-5.39196211321771,-58.8087586257024));
#373=CARTESIAN_POINT('',(4.2794902993772,-5.62125275165434,-58.8087586257024));
#374=CARTESIAN_POINT('',(4.14907134175904,-5.83880798113815,-58.8087586257024));
#375=CARTESIAN_POINT('',(3.99795680119673,-6.04253274139218,-58.8087586257024));
#376=CARTESIAN_POINT('',(3.82760191253866,-6.2304651607302,-58.8087586257024));
#377=CARTESIAN_POINT('',(3.63964719541751,-6.40079544763013,-58.8087586257024));
#378=CARTESIAN_POINT('',(3.43590265602635,-6.55188331938979,-58.8087586257024));
#379=CARTESIAN_POINT('',(3.21833035673717,-6.68227379797755,-58.8087586257024));
#380=CARTESIAN_POINT('',(2.98902552141659,-6.79071122151288,-58.8087586257024));
#381=CARTESIAN_POINT('',(2.7501963583947,-6.87615133629882,-58.8087586257024));
#382=CARTESIAN_POINT('',(2.50414279539228,-6.93777135299946,-58.8087586257024));
#383=CARTESIAN_POINT('',(2.25323433118905,-6.97497787011064,-58.8087586257024));
#384=CARTESIAN_POINT('',(1.99988721732184,-6.98741258842379,-58.8087586257024));
#385=CARTESIAN_POINT('',(1.74654118955318,-6.97495576145157,-58.8087586257024));
#386=CARTESIAN_POINT('',(1.49563597318646,-6.93772734858798,-58.8087586257024));
#387=CARTESIAN_POINT('',(1.24958778848182,-6.87608585989795,-58.8087586257024));
#388=CARTESIAN_POINT('',(1.0107660824259,-6.79062490366113,-58.8087586257024));
#389=CARTESIAN_POINT('',(0.7814707109288,-6.68216746991693,-58.8087586257024));
#390=CARTESIAN_POINT('',(0.563909791183886,-6.55175800506059,-58.8087586257024));
#391=CARTESIAN_POINT('',(0.360178437472627,-6.4006523538117,-58.8087586257024));
#392=CARTESIAN_POINT('',(0.17223858518875,-6.23030566541452,-58.8087586257024));
#393=CARTESIAN_POINT('',(0.00190009737676946,-6.04235838053309,-58.8087586257024));
#394=CARTESIAN_POINT('',(-0.149196664270993,-5.83862043378794,-58.8087586257024));
#395=CARTESIAN_POINT('',(-0.279596636117271,-5.62105382406379,-58.8087586257024));
#396=CARTESIAN_POINT('',(-0.388044064860241,-5.39175372043666,-58.8087586257024));
#397=CARTESIAN_POINT('',(-0.473494600452976,-5.15292828567042,-58.8087586257024));
#398=CARTESIAN_POINT('',(-0.53512535320697,-4.90687741158266,-58.8087586257024));
#399=CARTESIAN_POINT('',(-0.572342818229786,-4.65597057105884,-58.8087586257024));
#400=CARTESIAN_POINT('',(-0.58478859088432,-4.40262399999974,-58.8087586257024));
#401=CARTESIAN_POINT('',(-0.572342818229785,-4.14927742894064,-58.8087586257024));
#402=CARTESIAN_POINT('',(-0.535125353206969,-3.89837058841682,-58.8087586257024));
#403=CARTESIAN_POINT('',(-0.473494600452975,-3.65231971432906,-58.8087586257024));
#404=CARTESIAN_POINT('',(-0.38804406486024,-3.41349427956282,-58.8087586257024));
#405=CARTESIAN_POINT('',(-0.279596636117269,-3.18419417593569,-58.8087586257024));
#406=CARTESIAN_POINT('',(-0.149196664270991,-2.96662756621154,-58.8087586257024));
#407=CARTESIAN_POINT('',(0.00190009737677354,-2.76288961946638,-58.8087586257024));
#408=CARTESIAN_POINT('',(0.172238585188753,-2.57494233458496,-58.8087586257024));
#409=CARTESIAN_POINT('',(0.36017843747263,-2.40459564618778,-58.8087586257024));
#410=CARTESIAN_POINT('',(0.56390979118389,-2.2534899949389,-58.8087586257024));
#411=CARTESIAN_POINT('',(0.781470710928803,-2.12308053008255,-58.8087586257024));
#412=CARTESIAN_POINT('',(1.01076608242591,-2.01462309633835,-58.8087586257024));
#413=CARTESIAN_POINT('',(1.24958778848183,-1.92916214010153,-58.8087586257024));
#414=CARTESIAN_POINT('',(1.49563597318647,-1.86752065141151,-58.8087586257024));
#415=CARTESIAN_POINT('',(1.74654118955319,-1.83029223854791,-58.8087586257024));
#416=CARTESIAN_POINT('',(1.99988721732184,-1.81783541157569,-58.8087586257024));
#417=CARTESIAN_POINT('',(2.25323433118905,-1.83027012988885,-58.8087586257024));
#418=CARTESIAN_POINT('',(2.50414279539229,-1.86747664700003,-58.8087586257024));
#419=CARTESIAN_POINT('',(2.75019635839471,-1.92909666370066,-58.8087586257024));
#420=CARTESIAN_POINT('',(2.98902552141659,-2.0145367784866,-58.8087586257024));
#421=CARTESIAN_POINT('',(3.21833035673718,-2.12297420202194,-58.8087586257024));
#422=CARTESIAN_POINT('',(3.43590265602636,-2.2533646806097,-58.8087586257024));
#423=CARTESIAN_POINT('',(3.63964719541752,-2.40445255236935,-58.8087586257024));
#424=CARTESIAN_POINT('',(3.82760191253866,-2.57478283926929,-58.8087586257024));
#425=CARTESIAN_POINT('',(3.99795680119673,-2.7627152586073,-58.8087586257024));
#426=CARTESIAN_POINT('',(4.14907134175905,-2.96644001886134,-58.8087586257024));
#427=CARTESIAN_POINT('',(4.2794902993772,-3.18399524834515,-58.8087586257024));
#428=CARTESIAN_POINT('',(4.38795773791609,-3.41328588678178,-58.8087586257024));
#429=CARTESIAN_POINT('',(4.47342911463445,-3.65210386551597,-58.8087586257024));
#430=CARTESIAN_POINT('',(4.53508133914255,-3.89814935348985,-58.8087586257024));
#431=CARTESIAN_POINT('',(4.57232069977829,-4.14905297089533,-58.8087586257024));
#432=CARTESIAN_POINT('',(4.58063262061683,-4.31794989634923,-58.8087586257024));
#433=CARTESIAN_POINT('',(4.58063999017366,-4.40239879667596,-58.8087586257024));
#434=CARTESIAN_POINT('',(12.3760028072503,-4.40171852293651,-43.67657));
#435=CARTESIAN_POINT('',(4.58063999017365,-4.40239879667612,-58.8087586257024));
#436=CARTESIAN_POINT('',(4.65255627215287,-4.40239252079657,-58.844780417135));
#437=CARTESIAN_POINT('',(4.7244725541321,-4.40238624491702,-58.8808022085675));
#438=CARTESIAN_POINT('',(4.79638883611132,-4.40237996903747,-58.916824));
#439=CARTESIAN_POINT('',(2.0000000000001,-4.40262399999973,-58.8087586257024));
#440=MECHANICAL_DESIGN_GEOMETRIC_PRESENTATION_REPRESENTATION('',(#93),#441);
#441=(
GEOMETRIC_REPRESENTATION_CONTEXT(3)
GLOBAL_UNCERTAINTY_ASSIGNED_CONTEXT((#442))
GLOBAL_UNIT_ASSIGNED_CONTEXT((#445,#444,#443))
REPRESENTATION_CONTEXT('28A','TOP_LEVEL_ASSEMBLY_PART')
);
#442=UNCERTAINTY_MEASURE_WITH_UNIT(LENGTH_MEASURE(2.E-5),#445,
'DISTANCE_ACCURACY_VALUE','Maximum Tolerance applied to model');
#443=(
NAMED_UNIT(*)
SI_UNIT($,.STERADIAN.)
SOLID_ANGLE_UNIT()
);
#444=(
NAMED_UNIT(*)
PLANE_ANGLE_UNIT()
SI_UNIT($,.RADIAN.)
);
#445=(
LENGTH_UNIT()
NAMED_UNIT(*)
SI_UNIT($,.METRE.)
);
#446=PRODUCT_DEFINITION_SHAPE('','',#447);
#447=PRODUCT_DEFINITION('','',#449,#448);
#448=PRODUCT_DEFINITION_CONTEXT('',#455,'design');
#449=PRODUCT_DEFINITION_FORMATION_WITH_SPECIFIED_SOURCE('','',#451,
 .NOT_KNOWN.);
#450=PRODUCT_RELATED_PRODUCT_CATEGORY('','',(#451));
#451=PRODUCT('28A','28A','28A',(#453));
#452=PRODUCT_CATEGORY('','');
#453=PRODUCT_CONTEXT('',#455,'mechanical');
#454=APPLICATION_PROTOCOL_DEFINITION('international standard',
'ap242_managed_model_based_3d_engineering',2011,#455);
#455=APPLICATION_CONTEXT('managed model based 3d engineering');
ENDSEC;
END-ISO-10303-21;
