ISO-10303-21;
HEADER;
FILE_DESCRIPTION(('Open CASCADE Model'),'2;1');
FILE_NAME('Open CASCADE Shape Model','2026-07-24T19:05:48',('Author'),(
    'Open CASCADE'),'Open CASCADE STEP processor 7.9','Open CASCADE 7.9'
  ,'Unknown');
FILE_SCHEMA(('AUTOMOTIVE_DESIGN { 1 0 10303 214 1 1 1 1 }'));
ENDSEC;
DATA;
#1 = APPLICATION_PROTOCOL_DEFINITION('international standard',
  'automotive_design',2000,#2);
#2 = APPLICATION_CONTEXT(
  'core data for automotive mechanical design processes');
#3 = SHAPE_DEFINITION_REPRESENTATION(#4,#10);
#4 = PRODUCT_DEFINITION_SHAPE('','',#5);
#5 = PRODUCT_DEFINITION('design','',#6,#9);
#6 = PRODUCT_DEFINITION_FORMATION('','',#7);
#7 = PRODUCT('Open CASCADE STEP translator 7.9 2',
  'Open CASCADE STEP translator 7.9 2','',(#8));
#8 = PRODUCT_CONTEXT('',#2,'mechanical');
#9 = PRODUCT_DEFINITION_CONTEXT('part definition',#2,'design');
#10 = ADVANCED_BREP_SHAPE_REPRESENTATION('',(#11,#15),#1260);
#11 = AXIS2_PLACEMENT_3D('',#12,#13,#14);
#12 = CARTESIAN_POINT('',(0.,0.,0.));
#13 = DIRECTION('',(0.,0.,1.));
#14 = DIRECTION('',(1.,0.,-0.));
#15 = MANIFOLD_SOLID_BREP('',#16);
#16 = CLOSED_SHELL('',(#17,#105,#109,#237,#292,#342,#392,#442,#486,#540,
    #594,#1196,#1252,#1256));
#17 = ADVANCED_FACE('',(#18),#31,.T.);
#18 = FACE_BOUND('',#19,.T.);
#19 = EDGE_LOOP('',(#20,#54,#77,#104));
#20 = ORIENTED_EDGE('',*,*,#21,.F.);
#21 = EDGE_CURVE('',#22,#22,#24,.T.);
#22 = VERTEX_POINT('',#23);
#23 = CARTESIAN_POINT('',(60.,-1.469576158977E-14,500.));
#24 = SURFACE_CURVE('',#25,(#30,#42),.PCURVE_S1.);
#25 = CIRCLE('',#26,60.);
#26 = AXIS2_PLACEMENT_3D('',#27,#28,#29);
#27 = CARTESIAN_POINT('',(0.,0.,500.));
#28 = DIRECTION('',(0.,0.,1.));
#29 = DIRECTION('',(1.,0.,-0.));
#30 = PCURVE('',#31,#36);
#31 = CYLINDRICAL_SURFACE('',#32,60.);
#32 = AXIS2_PLACEMENT_3D('',#33,#34,#35);
#33 = CARTESIAN_POINT('',(0.,0.,380.));
#34 = DIRECTION('',(0.,0.,1.));
#35 = DIRECTION('',(1.,0.,-0.));
#36 = DEFINITIONAL_REPRESENTATION('',(#37),#41);
#37 = LINE('',#38,#39);
#38 = CARTESIAN_POINT('',(0.,120.));
#39 = VECTOR('',#40,1.);
#40 = DIRECTION('',(1.,0.));
#41 = ( GEOMETRIC_REPRESENTATION_CONTEXT(2) 
PARAMETRIC_REPRESENTATION_CONTEXT() REPRESENTATION_CONTEXT('2D SPACE',''
  ) );
#42 = PCURVE('',#43,#48);
#43 = PLANE('',#44);
#44 = AXIS2_PLACEMENT_3D('',#45,#46,#47);
#45 = CARTESIAN_POINT('',(0.,0.,500.));
#46 = DIRECTION('',(0.,0.,1.));
#47 = DIRECTION('',(1.,0.,-0.));
#48 = DEFINITIONAL_REPRESENTATION('',(#49),#53);
#49 = CIRCLE('',#50,60.);
#50 = AXIS2_PLACEMENT_2D('',#51,#52);
#51 = CARTESIAN_POINT('',(0.,0.));
#52 = DIRECTION('',(1.,0.));
#53 = ( GEOMETRIC_REPRESENTATION_CONTEXT(2) 
PARAMETRIC_REPRESENTATION_CONTEXT() REPRESENTATION_CONTEXT('2D SPACE',''
  ) );
#54 = ORIENTED_EDGE('',*,*,#55,.F.);
#55 = EDGE_CURVE('',#56,#22,#58,.T.);
#56 = VERTEX_POINT('',#57);
#57 = CARTESIAN_POINT('',(60.,-1.469576158977E-14,380.));
#58 = SEAM_CURVE('',#59,(#63,#70),.PCURVE_S1.);
#59 = LINE('',#60,#61);
#60 = CARTESIAN_POINT('',(60.,-1.469576158977E-14,380.));
#61 = VECTOR('',#62,1.);
#62 = DIRECTION('',(0.,0.,1.));
#63 = PCURVE('',#31,#64);
#64 = DEFINITIONAL_REPRESENTATION('',(#65),#69);
#65 = LINE('',#66,#67);
#66 = CARTESIAN_POINT('',(6.28318530718,-0.));
#67 = VECTOR('',#68,1.);
#68 = DIRECTION('',(0.,1.));
#69 = ( GEOMETRIC_REPRESENTATION_CONTEXT(2) 
PARAMETRIC_REPRESENTATION_CONTEXT() REPRESENTATION_CONTEXT('2D SPACE',''
  ) );
#70 = PCURVE('',#31,#71);
#71 = DEFINITIONAL_REPRESENTATION('',(#72),#76);
#72 = LINE('',#73,#74);
#73 = CARTESIAN_POINT('',(0.,-0.));
#74 = VECTOR('',#75,1.);
#75 = DIRECTION('',(0.,1.));
#76 = ( GEOMETRIC_REPRESENTATION_CONTEXT(2) 
PARAMETRIC_REPRESENTATION_CONTEXT() REPRESENTATION_CONTEXT('2D SPACE',''
  ) );
#77 = ORIENTED_EDGE('',*,*,#78,.T.);
#78 = EDGE_CURVE('',#56,#56,#79,.T.);
#79 = SURFACE_CURVE('',#80,(#85,#92),.PCURVE_S1.);
#80 = CIRCLE('',#81,60.);
#81 = AXIS2_PLACEMENT_3D('',#82,#83,#84);
#82 = CARTESIAN_POINT('',(0.,0.,380.));
#83 = DIRECTION('',(0.,0.,1.));
#84 = DIRECTION('',(1.,0.,-0.));
#85 = PCURVE('',#31,#86);
#86 = DEFINITIONAL_REPRESENTATION('',(#87),#91);
#87 = LINE('',#88,#89);
#88 = CARTESIAN_POINT('',(0.,0.));
#89 = VECTOR('',#90,1.);
#90 = DIRECTION('',(1.,0.));
#91 = ( GEOMETRIC_REPRESENTATION_CONTEXT(2) 
PARAMETRIC_REPRESENTATION_CONTEXT() REPRESENTATION_CONTEXT('2D SPACE',''
  ) );
#92 = PCURVE('',#93,#98);
#93 = PLANE('',#94);
#94 = AXIS2_PLACEMENT_3D('',#95,#96,#97);
#95 = CARTESIAN_POINT('',(0.,0.,380.));
#96 = DIRECTION('',(0.,0.,1.));
#97 = DIRECTION('',(1.,0.,-0.));
#98 = DEFINITIONAL_REPRESENTATION('',(#99),#103);
#99 = CIRCLE('',#100,60.);
#100 = AXIS2_PLACEMENT_2D('',#101,#102);
#101 = CARTESIAN_POINT('',(0.,0.));
#102 = DIRECTION('',(1.,0.));
#103 = ( GEOMETRIC_REPRESENTATION_CONTEXT(2) 
PARAMETRIC_REPRESENTATION_CONTEXT() REPRESENTATION_CONTEXT('2D SPACE',''
  ) );
#104 = ORIENTED_EDGE('',*,*,#55,.T.);
#105 = ADVANCED_FACE('',(#106),#43,.T.);
#106 = FACE_BOUND('',#107,.T.);
#107 = EDGE_LOOP('',(#108));
#108 = ORIENTED_EDGE('',*,*,#21,.T.);
#109 = ADVANCED_FACE('',(#110,#113,#144,#175,#206),#93,.F.);
#110 = FACE_BOUND('',#111,.F.);
#111 = EDGE_LOOP('',(#112));
#112 = ORIENTED_EDGE('',*,*,#78,.T.);
#113 = FACE_BOUND('',#114,.F.);
#114 = EDGE_LOOP('',(#115));
#115 = ORIENTED_EDGE('',*,*,#116,.F.);
#116 = EDGE_CURVE('',#117,#117,#119,.T.);
#117 = VERTEX_POINT('',#118);
#118 = CARTESIAN_POINT('',(7.5,-12.,380.));
#119 = SURFACE_CURVE('',#120,(#125,#132),.PCURVE_S1.);
#120 = CIRCLE('',#121,7.5);
#121 = AXIS2_PLACEMENT_3D('',#122,#123,#124);
#122 = CARTESIAN_POINT('',(-2.204364238465E-15,-12.,380.));
#123 = DIRECTION('',(0.,0.,1.));
#124 = DIRECTION('',(1.,0.,-0.));
#125 = PCURVE('',#93,#126);
#126 = DEFINITIONAL_REPRESENTATION('',(#127),#131);
#127 = CIRCLE('',#128,7.5);
#128 = AXIS2_PLACEMENT_2D('',#129,#130);
#129 = CARTESIAN_POINT('',(-2.204364238465E-15,-12.));
#130 = DIRECTION('',(1.,0.));
#131 = ( GEOMETRIC_REPRESENTATION_CONTEXT(2) 
PARAMETRIC_REPRESENTATION_CONTEXT() REPRESENTATION_CONTEXT('2D SPACE',''
  ) );
#132 = PCURVE('',#133,#138);
#133 = CYLINDRICAL_SURFACE('',#134,7.5);
#134 = AXIS2_PLACEMENT_3D('',#135,#136,#137);
#135 = CARTESIAN_POINT('',(-2.204364238465E-15,-12.,335.));
#136 = DIRECTION('',(0.,0.,1.));
#137 = DIRECTION('',(1.,0.,-0.));
#138 = DEFINITIONAL_REPRESENTATION('',(#139),#143);
#139 = LINE('',#140,#141);
#140 = CARTESIAN_POINT('',(0.,45.));
#141 = VECTOR('',#142,1.);
#142 = DIRECTION('',(1.,0.));
#143 = ( GEOMETRIC_REPRESENTATION_CONTEXT(2) 
PARAMETRIC_REPRESENTATION_CONTEXT() REPRESENTATION_CONTEXT('2D SPACE',''
  ) );
#144 = FACE_BOUND('',#145,.F.);
#145 = EDGE_LOOP('',(#146));
#146 = ORIENTED_EDGE('',*,*,#147,.F.);
#147 = EDGE_CURVE('',#148,#148,#150,.T.);
#148 = VERTEX_POINT('',#149);
#149 = CARTESIAN_POINT('',(-4.5,-3.673940397442E-16,380.));
#150 = SURFACE_CURVE('',#151,(#156,#163),.PCURVE_S1.);
#151 = CIRCLE('',#152,7.5);
#152 = AXIS2_PLACEMENT_3D('',#153,#154,#155);
#153 = CARTESIAN_POINT('',(-12.,1.469576158977E-15,380.));
#154 = DIRECTION('',(0.,0.,1.));
#155 = DIRECTION('',(1.,0.,-0.));
#156 = PCURVE('',#93,#157);
#157 = DEFINITIONAL_REPRESENTATION('',(#158),#162);
#158 = CIRCLE('',#159,7.5);
#159 = AXIS2_PLACEMENT_2D('',#160,#161);
#160 = CARTESIAN_POINT('',(-12.,1.469576158977E-15));
#161 = DIRECTION('',(1.,0.));
#162 = ( GEOMETRIC_REPRESENTATION_CONTEXT(2) 
PARAMETRIC_REPRESENTATION_CONTEXT() REPRESENTATION_CONTEXT('2D SPACE',''
  ) );
#163 = PCURVE('',#164,#169);
#164 = CYLINDRICAL_SURFACE('',#165,7.5);
#165 = AXIS2_PLACEMENT_3D('',#166,#167,#168);
#166 = CARTESIAN_POINT('',(-12.,1.469576158977E-15,335.));
#167 = DIRECTION('',(0.,0.,1.));
#168 = DIRECTION('',(1.,0.,-0.));
#169 = DEFINITIONAL_REPRESENTATION('',(#170),#174);
#170 = LINE('',#171,#172);
#171 = CARTESIAN_POINT('',(0.,45.));
#172 = VECTOR('',#173,1.);
#173 = DIRECTION('',(1.,0.));
#174 = ( GEOMETRIC_REPRESENTATION_CONTEXT(2) 
PARAMETRIC_REPRESENTATION_CONTEXT() REPRESENTATION_CONTEXT('2D SPACE',''
  ) );
#175 = FACE_BOUND('',#176,.F.);
#176 = EDGE_LOOP('',(#177));
#177 = ORIENTED_EDGE('',*,*,#178,.F.);
#178 = EDGE_CURVE('',#179,#179,#181,.T.);
#179 = VERTEX_POINT('',#180);
#180 = CARTESIAN_POINT('',(19.5,-1.836970198721E-15,380.));
#181 = SURFACE_CURVE('',#182,(#187,#194),.PCURVE_S1.);
#182 = CIRCLE('',#183,7.5);
#183 = AXIS2_PLACEMENT_3D('',#184,#185,#186);
#184 = CARTESIAN_POINT('',(12.,0.,380.));
#185 = DIRECTION('',(0.,0.,1.));
#186 = DIRECTION('',(1.,0.,-0.));
#187 = PCURVE('',#93,#188);
#188 = DEFINITIONAL_REPRESENTATION('',(#189),#193);
#189 = CIRCLE('',#190,7.5);
#190 = AXIS2_PLACEMENT_2D('',#191,#192);
#191 = CARTESIAN_POINT('',(12.,0.));
#192 = DIRECTION('',(1.,0.));
#193 = ( GEOMETRIC_REPRESENTATION_CONTEXT(2) 
PARAMETRIC_REPRESENTATION_CONTEXT() REPRESENTATION_CONTEXT('2D SPACE',''
  ) );
#194 = PCURVE('',#195,#200);
#195 = CYLINDRICAL_SURFACE('',#196,7.5);
#196 = AXIS2_PLACEMENT_3D('',#197,#198,#199);
#197 = CARTESIAN_POINT('',(12.,0.,335.));
#198 = DIRECTION('',(0.,0.,1.));
#199 = DIRECTION('',(1.,0.,-0.));
#200 = DEFINITIONAL_REPRESENTATION('',(#201),#205);
#201 = LINE('',#202,#203);
#202 = CARTESIAN_POINT('',(0.,45.));
#203 = VECTOR('',#204,1.);
#204 = DIRECTION('',(1.,0.));
#205 = ( GEOMETRIC_REPRESENTATION_CONTEXT(2) 
PARAMETRIC_REPRESENTATION_CONTEXT() REPRESENTATION_CONTEXT('2D SPACE',''
  ) );
#206 = FACE_BOUND('',#207,.F.);
#207 = EDGE_LOOP('',(#208));
#208 = ORIENTED_EDGE('',*,*,#209,.F.);
#209 = EDGE_CURVE('',#210,#210,#212,.T.);
#210 = VERTEX_POINT('',#211);
#211 = CARTESIAN_POINT('',(7.5,12.,380.));
#212 = SURFACE_CURVE('',#213,(#218,#225),.PCURVE_S1.);
#213 = CIRCLE('',#214,7.5);
#214 = AXIS2_PLACEMENT_3D('',#215,#216,#217);
#215 = CARTESIAN_POINT('',(7.347880794884E-16,12.,380.));
#216 = DIRECTION('',(0.,0.,1.));
#217 = DIRECTION('',(1.,0.,-0.));
#218 = PCURVE('',#93,#219);
#219 = DEFINITIONAL_REPRESENTATION('',(#220),#224);
#220 = CIRCLE('',#221,7.5);
#221 = AXIS2_PLACEMENT_2D('',#222,#223);
#222 = CARTESIAN_POINT('',(7.347880794884E-16,12.));
#223 = DIRECTION('',(1.,0.));
#224 = ( GEOMETRIC_REPRESENTATION_CONTEXT(2) 
PARAMETRIC_REPRESENTATION_CONTEXT() REPRESENTATION_CONTEXT('2D SPACE',''
  ) );
#225 = PCURVE('',#226,#231);
#226 = CYLINDRICAL_SURFACE('',#227,7.5);
#227 = AXIS2_PLACEMENT_3D('',#228,#229,#230);
#228 = CARTESIAN_POINT('',(7.347880794884E-16,12.,335.));
#229 = DIRECTION('',(0.,0.,1.));
#230 = DIRECTION('',(1.,0.,-0.));
#231 = DEFINITIONAL_REPRESENTATION('',(#232),#236);
#232 = LINE('',#233,#234);
#233 = CARTESIAN_POINT('',(0.,45.));
#234 = VECTOR('',#235,1.);
#235 = DIRECTION('',(1.,0.));
#236 = ( GEOMETRIC_REPRESENTATION_CONTEXT(2) 
PARAMETRIC_REPRESENTATION_CONTEXT() REPRESENTATION_CONTEXT('2D SPACE',''
  ) );
#237 = ADVANCED_FACE('',(#238),#133,.T.);
#238 = FACE_BOUND('',#239,.T.);
#239 = EDGE_LOOP('',(#240,#241,#264,#291));
#240 = ORIENTED_EDGE('',*,*,#116,.F.);
#241 = ORIENTED_EDGE('',*,*,#242,.F.);
#242 = EDGE_CURVE('',#243,#117,#245,.T.);
#243 = VERTEX_POINT('',#244);
#244 = CARTESIAN_POINT('',(7.5,-12.,335.));
#245 = SEAM_CURVE('',#246,(#250,#257),.PCURVE_S1.);
#246 = LINE('',#247,#248);
#247 = CARTESIAN_POINT('',(7.5,-12.,335.));
#248 = VECTOR('',#249,1.);
#249 = DIRECTION('',(0.,0.,1.));
#250 = PCURVE('',#133,#251);
#251 = DEFINITIONAL_REPRESENTATION('',(#252),#256);
#252 = LINE('',#253,#254);
#253 = CARTESIAN_POINT('',(6.28318530718,-0.));
#254 = VECTOR('',#255,1.);
#255 = DIRECTION('',(0.,1.));
#256 = ( GEOMETRIC_REPRESENTATION_CONTEXT(2) 
PARAMETRIC_REPRESENTATION_CONTEXT() REPRESENTATION_CONTEXT('2D SPACE',''
  ) );
#257 = PCURVE('',#133,#258);
#258 = DEFINITIONAL_REPRESENTATION('',(#259),#263);
#259 = LINE('',#260,#261);
#260 = CARTESIAN_POINT('',(0.,-0.));
#261 = VECTOR('',#262,1.);
#262 = DIRECTION('',(0.,1.));
#263 = ( GEOMETRIC_REPRESENTATION_CONTEXT(2) 
PARAMETRIC_REPRESENTATION_CONTEXT() REPRESENTATION_CONTEXT('2D SPACE',''
  ) );
#264 = ORIENTED_EDGE('',*,*,#265,.T.);
#265 = EDGE_CURVE('',#243,#243,#266,.T.);
#266 = SURFACE_CURVE('',#267,(#272,#279),.PCURVE_S1.);
#267 = CIRCLE('',#268,7.5);
#268 = AXIS2_PLACEMENT_3D('',#269,#270,#271);
#269 = CARTESIAN_POINT('',(-2.204364238465E-15,-12.,335.));
#270 = DIRECTION('',(0.,0.,1.));
#271 = DIRECTION('',(1.,0.,-0.));
#272 = PCURVE('',#133,#273);
#273 = DEFINITIONAL_REPRESENTATION('',(#274),#278);
#274 = LINE('',#275,#276);
#275 = CARTESIAN_POINT('',(0.,0.));
#276 = VECTOR('',#277,1.);
#277 = DIRECTION('',(1.,0.));
#278 = ( GEOMETRIC_REPRESENTATION_CONTEXT(2) 
PARAMETRIC_REPRESENTATION_CONTEXT() REPRESENTATION_CONTEXT('2D SPACE',''
  ) );
#279 = PCURVE('',#280,#285);
#280 = PLANE('',#281);
#281 = AXIS2_PLACEMENT_3D('',#282,#283,#284);
#282 = CARTESIAN_POINT('',(0.,0.,335.));
#283 = DIRECTION('',(0.,0.,1.));
#284 = DIRECTION('',(1.,0.,-0.));
#285 = DEFINITIONAL_REPRESENTATION('',(#286),#290);
#286 = CIRCLE('',#287,7.5);
#287 = AXIS2_PLACEMENT_2D('',#288,#289);
#288 = CARTESIAN_POINT('',(-2.204364238465E-15,-12.));
#289 = DIRECTION('',(1.,0.));
#290 = ( GEOMETRIC_REPRESENTATION_CONTEXT(2) 
PARAMETRIC_REPRESENTATION_CONTEXT() REPRESENTATION_CONTEXT('2D SPACE',''
  ) );
#291 = ORIENTED_EDGE('',*,*,#242,.T.);
#292 = ADVANCED_FACE('',(#293),#164,.T.);
#293 = FACE_BOUND('',#294,.T.);
#294 = EDGE_LOOP('',(#295,#296,#319,#341));
#295 = ORIENTED_EDGE('',*,*,#147,.F.);
#296 = ORIENTED_EDGE('',*,*,#297,.F.);
#297 = EDGE_CURVE('',#298,#148,#300,.T.);
#298 = VERTEX_POINT('',#299);
#299 = CARTESIAN_POINT('',(-4.5,-3.673940397442E-16,335.));
#300 = SEAM_CURVE('',#301,(#305,#312),.PCURVE_S1.);
#301 = LINE('',#302,#303);
#302 = CARTESIAN_POINT('',(-4.5,-3.673940397442E-16,335.));
#303 = VECTOR('',#304,1.);
#304 = DIRECTION('',(0.,0.,1.));
#305 = PCURVE('',#164,#306);
#306 = DEFINITIONAL_REPRESENTATION('',(#307),#311);
#307 = LINE('',#308,#309);
#308 = CARTESIAN_POINT('',(6.28318530718,-0.));
#309 = VECTOR('',#310,1.);
#310 = DIRECTION('',(0.,1.));
#311 = ( GEOMETRIC_REPRESENTATION_CONTEXT(2) 
PARAMETRIC_REPRESENTATION_CONTEXT() REPRESENTATION_CONTEXT('2D SPACE',''
  ) );
#312 = PCURVE('',#164,#313);
#313 = DEFINITIONAL_REPRESENTATION('',(#314),#318);
#314 = LINE('',#315,#316);
#315 = CARTESIAN_POINT('',(0.,-0.));
#316 = VECTOR('',#317,1.);
#317 = DIRECTION('',(0.,1.));
#318 = ( GEOMETRIC_REPRESENTATION_CONTEXT(2) 
PARAMETRIC_REPRESENTATION_CONTEXT() REPRESENTATION_CONTEXT('2D SPACE',''
  ) );
#319 = ORIENTED_EDGE('',*,*,#320,.T.);
#320 = EDGE_CURVE('',#298,#298,#321,.T.);
#321 = SURFACE_CURVE('',#322,(#327,#334),.PCURVE_S1.);
#322 = CIRCLE('',#323,7.5);
#323 = AXIS2_PLACEMENT_3D('',#324,#325,#326);
#324 = CARTESIAN_POINT('',(-12.,1.469576158977E-15,335.));
#325 = DIRECTION('',(0.,0.,1.));
#326 = DIRECTION('',(1.,0.,-0.));
#327 = PCURVE('',#164,#328);
#328 = DEFINITIONAL_REPRESENTATION('',(#329),#333);
#329 = LINE('',#330,#331);
#330 = CARTESIAN_POINT('',(0.,0.));
#331 = VECTOR('',#332,1.);
#332 = DIRECTION('',(1.,0.));
#333 = ( GEOMETRIC_REPRESENTATION_CONTEXT(2) 
PARAMETRIC_REPRESENTATION_CONTEXT() REPRESENTATION_CONTEXT('2D SPACE',''
  ) );
#334 = PCURVE('',#280,#335);
#335 = DEFINITIONAL_REPRESENTATION('',(#336),#340);
#336 = CIRCLE('',#337,7.5);
#337 = AXIS2_PLACEMENT_2D('',#338,#339);
#338 = CARTESIAN_POINT('',(-12.,1.469576158977E-15));
#339 = DIRECTION('',(1.,0.));
#340 = ( GEOMETRIC_REPRESENTATION_CONTEXT(2) 
PARAMETRIC_REPRESENTATION_CONTEXT() REPRESENTATION_CONTEXT('2D SPACE',''
  ) );
#341 = ORIENTED_EDGE('',*,*,#297,.T.);
#342 = ADVANCED_FACE('',(#343),#195,.T.);
#343 = FACE_BOUND('',#344,.T.);
#344 = EDGE_LOOP('',(#345,#346,#369,#391));
#345 = ORIENTED_EDGE('',*,*,#178,.F.);
#346 = ORIENTED_EDGE('',*,*,#347,.F.);
#347 = EDGE_CURVE('',#348,#179,#350,.T.);
#348 = VERTEX_POINT('',#349);
#349 = CARTESIAN_POINT('',(19.5,-1.836970198721E-15,335.));
#350 = SEAM_CURVE('',#351,(#355,#362),.PCURVE_S1.);
#351 = LINE('',#352,#353);
#352 = CARTESIAN_POINT('',(19.5,-1.836970198721E-15,335.));
#353 = VECTOR('',#354,1.);
#354 = DIRECTION('',(0.,0.,1.));
#355 = PCURVE('',#195,#356);
#356 = DEFINITIONAL_REPRESENTATION('',(#357),#361);
#357 = LINE('',#358,#359);
#358 = CARTESIAN_POINT('',(6.28318530718,-0.));
#359 = VECTOR('',#360,1.);
#360 = DIRECTION('',(0.,1.));
#361 = ( GEOMETRIC_REPRESENTATION_CONTEXT(2) 
PARAMETRIC_REPRESENTATION_CONTEXT() REPRESENTATION_CONTEXT('2D SPACE',''
  ) );
#362 = PCURVE('',#195,#363);
#363 = DEFINITIONAL_REPRESENTATION('',(#364),#368);
#364 = LINE('',#365,#366);
#365 = CARTESIAN_POINT('',(0.,-0.));
#366 = VECTOR('',#367,1.);
#367 = DIRECTION('',(0.,1.));
#368 = ( GEOMETRIC_REPRESENTATION_CONTEXT(2) 
PARAMETRIC_REPRESENTATION_CONTEXT() REPRESENTATION_CONTEXT('2D SPACE',''
  ) );
#369 = ORIENTED_EDGE('',*,*,#370,.T.);
#370 = EDGE_CURVE('',#348,#348,#371,.T.);
#371 = SURFACE_CURVE('',#372,(#377,#384),.PCURVE_S1.);
#372 = CIRCLE('',#373,7.5);
#373 = AXIS2_PLACEMENT_3D('',#374,#375,#376);
#374 = CARTESIAN_POINT('',(12.,0.,335.));
#375 = DIRECTION('',(0.,0.,1.));
#376 = DIRECTION('',(1.,0.,-0.));
#377 = PCURVE('',#195,#378);
#378 = DEFINITIONAL_REPRESENTATION('',(#379),#383);
#379 = LINE('',#380,#381);
#380 = CARTESIAN_POINT('',(0.,0.));
#381 = VECTOR('',#382,1.);
#382 = DIRECTION('',(1.,0.));
#383 = ( GEOMETRIC_REPRESENTATION_CONTEXT(2) 
PARAMETRIC_REPRESENTATION_CONTEXT() REPRESENTATION_CONTEXT('2D SPACE',''
  ) );
#384 = PCURVE('',#280,#385);
#385 = DEFINITIONAL_REPRESENTATION('',(#386),#390);
#386 = CIRCLE('',#387,7.5);
#387 = AXIS2_PLACEMENT_2D('',#388,#389);
#388 = CARTESIAN_POINT('',(12.,0.));
#389 = DIRECTION('',(1.,0.));
#390 = ( GEOMETRIC_REPRESENTATION_CONTEXT(2) 
PARAMETRIC_REPRESENTATION_CONTEXT() REPRESENTATION_CONTEXT('2D SPACE',''
  ) );
#391 = ORIENTED_EDGE('',*,*,#347,.T.);
#392 = ADVANCED_FACE('',(#393),#226,.T.);
#393 = FACE_BOUND('',#394,.T.);
#394 = EDGE_LOOP('',(#395,#396,#419,#441));
#395 = ORIENTED_EDGE('',*,*,#209,.F.);
#396 = ORIENTED_EDGE('',*,*,#397,.F.);
#397 = EDGE_CURVE('',#398,#210,#400,.T.);
#398 = VERTEX_POINT('',#399);
#399 = CARTESIAN_POINT('',(7.5,12.,335.));
#400 = SEAM_CURVE('',#401,(#405,#412),.PCURVE_S1.);
#401 = LINE('',#402,#403);
#402 = CARTESIAN_POINT('',(7.5,12.,335.));
#403 = VECTOR('',#404,1.);
#404 = DIRECTION('',(0.,0.,1.));
#405 = PCURVE('',#226,#406);
#406 = DEFINITIONAL_REPRESENTATION('',(#407),#411);
#407 = LINE('',#408,#409);
#408 = CARTESIAN_POINT('',(6.28318530718,-0.));
#409 = VECTOR('',#410,1.);
#410 = DIRECTION('',(0.,1.));
#411 = ( GEOMETRIC_REPRESENTATION_CONTEXT(2) 
PARAMETRIC_REPRESENTATION_CONTEXT() REPRESENTATION_CONTEXT('2D SPACE',''
  ) );
#412 = PCURVE('',#226,#413);
#413 = DEFINITIONAL_REPRESENTATION('',(#414),#418);
#414 = LINE('',#415,#416);
#415 = CARTESIAN_POINT('',(0.,-0.));
#416 = VECTOR('',#417,1.);
#417 = DIRECTION('',(0.,1.));
#418 = ( GEOMETRIC_REPRESENTATION_CONTEXT(2) 
PARAMETRIC_REPRESENTATION_CONTEXT() REPRESENTATION_CONTEXT('2D SPACE',''
  ) );
#419 = ORIENTED_EDGE('',*,*,#420,.T.);
#420 = EDGE_CURVE('',#398,#398,#421,.T.);
#421 = SURFACE_CURVE('',#422,(#427,#434),.PCURVE_S1.);
#422 = CIRCLE('',#423,7.5);
#423 = AXIS2_PLACEMENT_3D('',#424,#425,#426);
#424 = CARTESIAN_POINT('',(7.347880794884E-16,12.,335.));
#425 = DIRECTION('',(0.,0.,1.));
#426 = DIRECTION('',(1.,0.,-0.));
#427 = PCURVE('',#226,#428);
#428 = DEFINITIONAL_REPRESENTATION('',(#429),#433);
#429 = LINE('',#430,#431);
#430 = CARTESIAN_POINT('',(0.,0.));
#431 = VECTOR('',#432,1.);
#432 = DIRECTION('',(1.,0.));
#433 = ( GEOMETRIC_REPRESENTATION_CONTEXT(2) 
PARAMETRIC_REPRESENTATION_CONTEXT() REPRESENTATION_CONTEXT('2D SPACE',''
  ) );
#434 = PCURVE('',#280,#435);
#435 = DEFINITIONAL_REPRESENTATION('',(#436),#440);
#436 = CIRCLE('',#437,7.5);
#437 = AXIS2_PLACEMENT_2D('',#438,#439);
#438 = CARTESIAN_POINT('',(7.347880794884E-16,12.));
#439 = DIRECTION('',(1.,0.));
#440 = ( GEOMETRIC_REPRESENTATION_CONTEXT(2) 
PARAMETRIC_REPRESENTATION_CONTEXT() REPRESENTATION_CONTEXT('2D SPACE',''
  ) );
#441 = ORIENTED_EDGE('',*,*,#397,.T.);
#442 = ADVANCED_FACE('',(#443,#474,#477,#480,#483),#280,.T.);
#443 = FACE_BOUND('',#444,.T.);
#444 = EDGE_LOOP('',(#445));
#445 = ORIENTED_EDGE('',*,*,#446,.T.);
#446 = EDGE_CURVE('',#447,#447,#449,.T.);
#447 = VERTEX_POINT('',#448);
#448 = CARTESIAN_POINT('',(26.,-6.368163355566E-15,335.));
#449 = SURFACE_CURVE('',#450,(#455,#462),.PCURVE_S1.);
#450 = CIRCLE('',#451,26.);
#451 = AXIS2_PLACEMENT_3D('',#452,#453,#454);
#452 = CARTESIAN_POINT('',(0.,0.,335.));
#453 = DIRECTION('',(0.,0.,1.));
#454 = DIRECTION('',(1.,0.,-0.));
#455 = PCURVE('',#280,#456);
#456 = DEFINITIONAL_REPRESENTATION('',(#457),#461);
#457 = CIRCLE('',#458,26.);
#458 = AXIS2_PLACEMENT_2D('',#459,#460);
#459 = CARTESIAN_POINT('',(0.,0.));
#460 = DIRECTION('',(1.,0.));
#461 = ( GEOMETRIC_REPRESENTATION_CONTEXT(2) 
PARAMETRIC_REPRESENTATION_CONTEXT() REPRESENTATION_CONTEXT('2D SPACE',''
  ) );
#462 = PCURVE('',#463,#468);
#463 = CYLINDRICAL_SURFACE('',#464,26.);
#464 = AXIS2_PLACEMENT_3D('',#465,#466,#467);
#465 = CARTESIAN_POINT('',(0.,0.,330.));
#466 = DIRECTION('',(0.,0.,1.));
#467 = DIRECTION('',(1.,0.,-0.));
#468 = DEFINITIONAL_REPRESENTATION('',(#469),#473);
#469 = LINE('',#470,#471);
#470 = CARTESIAN_POINT('',(0.,5.));
#471 = VECTOR('',#472,1.);
#472 = DIRECTION('',(1.,0.));
#473 = ( GEOMETRIC_REPRESENTATION_CONTEXT(2) 
PARAMETRIC_REPRESENTATION_CONTEXT() REPRESENTATION_CONTEXT('2D SPACE',''
  ) );
#474 = FACE_BOUND('',#475,.T.);
#475 = EDGE_LOOP('',(#476));
#476 = ORIENTED_EDGE('',*,*,#265,.F.);
#477 = FACE_BOUND('',#478,.T.);
#478 = EDGE_LOOP('',(#479));
#479 = ORIENTED_EDGE('',*,*,#320,.F.);
#480 = FACE_BOUND('',#481,.T.);
#481 = EDGE_LOOP('',(#482));
#482 = ORIENTED_EDGE('',*,*,#370,.F.);
#483 = FACE_BOUND('',#484,.T.);
#484 = EDGE_LOOP('',(#485));
#485 = ORIENTED_EDGE('',*,*,#420,.F.);
#486 = ADVANCED_FACE('',(#487),#463,.T.);
#487 = FACE_BOUND('',#488,.T.);
#488 = EDGE_LOOP('',(#489,#490,#513,#539));
#489 = ORIENTED_EDGE('',*,*,#446,.F.);
#490 = ORIENTED_EDGE('',*,*,#491,.F.);
#491 = EDGE_CURVE('',#492,#447,#494,.T.);
#492 = VERTEX_POINT('',#493);
#493 = CARTESIAN_POINT('',(26.,-6.368163355566E-15,330.));
#494 = SEAM_CURVE('',#495,(#499,#506),.PCURVE_S1.);
#495 = LINE('',#496,#497);
#496 = CARTESIAN_POINT('',(26.,-6.368163355566E-15,330.));
#497 = VECTOR('',#498,1.);
#498 = DIRECTION('',(0.,0.,1.));
#499 = PCURVE('',#463,#500);
#500 = DEFINITIONAL_REPRESENTATION('',(#501),#505);
#501 = LINE('',#502,#503);
#502 = CARTESIAN_POINT('',(6.28318530718,-0.));
#503 = VECTOR('',#504,1.);
#504 = DIRECTION('',(0.,1.));
#505 = ( GEOMETRIC_REPRESENTATION_CONTEXT(2) 
PARAMETRIC_REPRESENTATION_CONTEXT() REPRESENTATION_CONTEXT('2D SPACE',''
  ) );
#506 = PCURVE('',#463,#507);
#507 = DEFINITIONAL_REPRESENTATION('',(#508),#512);
#508 = LINE('',#509,#510);
#509 = CARTESIAN_POINT('',(0.,-0.));
#510 = VECTOR('',#511,1.);
#511 = DIRECTION('',(0.,1.));
#512 = ( GEOMETRIC_REPRESENTATION_CONTEXT(2) 
PARAMETRIC_REPRESENTATION_CONTEXT() REPRESENTATION_CONTEXT('2D SPACE',''
  ) );
#513 = ORIENTED_EDGE('',*,*,#514,.T.);
#514 = EDGE_CURVE('',#492,#492,#515,.T.);
#515 = SURFACE_CURVE('',#516,(#521,#527),.PCURVE_S1.);
#516 = CIRCLE('',#517,26.);
#517 = AXIS2_PLACEMENT_3D('',#518,#519,#520);
#518 = CARTESIAN_POINT('',(0.,0.,330.));
#519 = DIRECTION('',(0.,0.,1.));
#520 = DIRECTION('',(1.,0.,-0.));
#521 = PCURVE('',#463,#522);
#522 = DEFINITIONAL_REPRESENTATION('',(#523),#526);
#523 = B_SPLINE_CURVE_WITH_KNOTS('',1,(#524,#525),.UNSPECIFIED.,.F.,.F.,
  (2,2),(0.,6.28318530718),.PIECEWISE_BEZIER_KNOTS.);
#524 = CARTESIAN_POINT('',(0.,0.));
#525 = CARTESIAN_POINT('',(6.28318530718,0.));
#526 = ( GEOMETRIC_REPRESENTATION_CONTEXT(2) 
PARAMETRIC_REPRESENTATION_CONTEXT() REPRESENTATION_CONTEXT('2D SPACE',''
  ) );
#527 = PCURVE('',#528,#533);
#528 = CONICAL_SURFACE('',#529,51.15,0.466044727861);
#529 = AXIS2_PLACEMENT_3D('',#530,#531,#532);
#530 = CARTESIAN_POINT('',(0.,0.,280.));
#531 = DIRECTION('',(-0.,-0.,-1.));
#532 = DIRECTION('',(1.,0.,-0.));
#533 = DEFINITIONAL_REPRESENTATION('',(#534),#538);
#534 = LINE('',#535,#536);
#535 = CARTESIAN_POINT('',(-0.,-50.));
#536 = VECTOR('',#537,1.);
#537 = DIRECTION('',(-1.,-0.));
#538 = ( GEOMETRIC_REPRESENTATION_CONTEXT(2) 
PARAMETRIC_REPRESENTATION_CONTEXT() REPRESENTATION_CONTEXT('2D SPACE',''
  ) );
#539 = ORIENTED_EDGE('',*,*,#491,.T.);
#540 = ADVANCED_FACE('',(#541),#528,.T.);
#541 = FACE_BOUND('',#542,.T.);
#542 = EDGE_LOOP('',(#543,#544,#567,#593));
#543 = ORIENTED_EDGE('',*,*,#514,.F.);
#544 = ORIENTED_EDGE('',*,*,#545,.F.);
#545 = EDGE_CURVE('',#546,#492,#548,.T.);
#546 = VERTEX_POINT('',#547);
#547 = CARTESIAN_POINT('',(51.15,-1.252813675528E-14,280.));
#548 = SEAM_CURVE('',#549,(#553,#560),.PCURVE_S1.);
#549 = LINE('',#550,#551);
#550 = CARTESIAN_POINT('',(51.15,-1.252813675528E-14,280.));
#551 = VECTOR('',#552,1.);
#552 = DIRECTION('',(-0.449356356851,1.100605648189E-16,0.893352598114)
  );
#553 = PCURVE('',#528,#554);
#554 = DEFINITIONAL_REPRESENTATION('',(#555),#559);
#555 = LINE('',#556,#557);
#556 = CARTESIAN_POINT('',(-6.28318530718,0.));
#557 = VECTOR('',#558,1.);
#558 = DIRECTION('',(-0.,-1.));
#559 = ( GEOMETRIC_REPRESENTATION_CONTEXT(2) 
PARAMETRIC_REPRESENTATION_CONTEXT() REPRESENTATION_CONTEXT('2D SPACE',''
  ) );
#560 = PCURVE('',#528,#561);
#561 = DEFINITIONAL_REPRESENTATION('',(#562),#566);
#562 = LINE('',#563,#564);
#563 = CARTESIAN_POINT('',(0.,-0.));
#564 = VECTOR('',#565,1.);
#565 = DIRECTION('',(-0.,-1.));
#566 = ( GEOMETRIC_REPRESENTATION_CONTEXT(2) 
PARAMETRIC_REPRESENTATION_CONTEXT() REPRESENTATION_CONTEXT('2D SPACE',''
  ) );
#567 = ORIENTED_EDGE('',*,*,#568,.T.);
#568 = EDGE_CURVE('',#546,#546,#569,.T.);
#569 = SURFACE_CURVE('',#570,(#575,#581),.PCURVE_S1.);
#570 = CIRCLE('',#571,51.15);
#571 = AXIS2_PLACEMENT_3D('',#572,#573,#574);
#572 = CARTESIAN_POINT('',(0.,0.,280.));
#573 = DIRECTION('',(0.,0.,1.));
#574 = DIRECTION('',(1.,0.,-0.));
#575 = PCURVE('',#528,#576);
#576 = DEFINITIONAL_REPRESENTATION('',(#577),#580);
#577 = B_SPLINE_CURVE_WITH_KNOTS('',1,(#578,#579),.UNSPECIFIED.,.F.,.F.,
  (2,2),(0.,6.28318530718),.PIECEWISE_BEZIER_KNOTS.);
#578 = CARTESIAN_POINT('',(0.,0.));
#579 = CARTESIAN_POINT('',(-6.28318530718,0.));
#580 = ( GEOMETRIC_REPRESENTATION_CONTEXT(2) 
PARAMETRIC_REPRESENTATION_CONTEXT() REPRESENTATION_CONTEXT('2D SPACE',''
  ) );
#581 = PCURVE('',#582,#587);
#582 = CYLINDRICAL_SURFACE('',#583,51.15);
#583 = AXIS2_PLACEMENT_3D('',#584,#585,#586);
#584 = CARTESIAN_POINT('',(0.,0.,0.));
#585 = DIRECTION('',(0.,0.,1.));
#586 = DIRECTION('',(1.,0.,-0.));
#587 = DEFINITIONAL_REPRESENTATION('',(#588),#592);
#588 = LINE('',#589,#590);
#589 = CARTESIAN_POINT('',(0.,280.));
#590 = VECTOR('',#591,1.);
#591 = DIRECTION('',(1.,0.));
#592 = ( GEOMETRIC_REPRESENTATION_CONTEXT(2) 
PARAMETRIC_REPRESENTATION_CONTEXT() REPRESENTATION_CONTEXT('2D SPACE',''
  ) );
#593 = ORIENTED_EDGE('',*,*,#545,.T.);
#594 = ADVANCED_FACE('',(#595),#582,.T.);
#595 = FACE_BOUND('',#596,.T.);
#596 = EDGE_LOOP('',(#597,#620,#621,#622,#887,#910,#937,#938));
#597 = ORIENTED_EDGE('',*,*,#598,.T.);
#598 = EDGE_CURVE('',#599,#546,#601,.T.);
#599 = VERTEX_POINT('',#600);
#600 = CARTESIAN_POINT('',(51.15,-1.252813675528E-14,59.05));
#601 = SEAM_CURVE('',#602,(#606,#613),.PCURVE_S1.);
#602 = LINE('',#603,#604);
#603 = CARTESIAN_POINT('',(51.15,-1.252813675528E-14,0.));
#604 = VECTOR('',#605,1.);
#605 = DIRECTION('',(0.,0.,1.));
#606 = PCURVE('',#582,#607);
#607 = DEFINITIONAL_REPRESENTATION('',(#608),#612);
#608 = LINE('',#609,#610);
#609 = CARTESIAN_POINT('',(6.28318530718,-0.));
#610 = VECTOR('',#611,1.);
#611 = DIRECTION('',(0.,1.));
#612 = ( GEOMETRIC_REPRESENTATION_CONTEXT(2) 
PARAMETRIC_REPRESENTATION_CONTEXT() REPRESENTATION_CONTEXT('2D SPACE',''
  ) );
#613 = PCURVE('',#582,#614);
#614 = DEFINITIONAL_REPRESENTATION('',(#615),#619);
#615 = LINE('',#616,#617);
#616 = CARTESIAN_POINT('',(0.,-0.));
#617 = VECTOR('',#618,1.);
#618 = DIRECTION('',(0.,1.));
#619 = ( GEOMETRIC_REPRESENTATION_CONTEXT(2) 
PARAMETRIC_REPRESENTATION_CONTEXT() REPRESENTATION_CONTEXT('2D SPACE',''
  ) );
#620 = ORIENTED_EDGE('',*,*,#568,.F.);
#621 = ORIENTED_EDGE('',*,*,#598,.F.);
#622 = ORIENTED_EDGE('',*,*,#623,.T.);
#623 = EDGE_CURVE('',#599,#624,#626,.T.);
#624 = VERTEX_POINT('',#625);
#625 = CARTESIAN_POINT('',(51.15,-3.931116225263E-15,20.95));
#626 = SURFACE_CURVE('',#627,(#710,#796),.PCURVE_S1.);
#627 = B_SPLINE_CURVE_WITH_KNOTS('',6,(#628,#629,#630,#631,#632,#633,
    #634,#635,#636,#637,#638,#639,#640,#641,#642,#643,#644,#645,#646,
    #647,#648,#649,#650,#651,#652,#653,#654,#655,#656,#657,#658,#659,
    #660,#661,#662,#663,#664,#665,#666,#667,#668,#669,#670,#671,#672,
    #673,#674,#675,#676,#677,#678,#679,#680,#681,#682,#683,#684,#685,
    #686,#687,#688,#689,#690,#691,#692,#693,#694,#695,#696,#697,#698,
    #699,#700,#701,#702,#703,#704,#705,#706,#707,#708,#709),
  .UNSPECIFIED.,.F.,.F.,(7,5,5,5,5,5,5,5,5,5,5,5,5,5,5,5,7),(0.,
    7.804466439959E-02,0.128981881143,0.193202642107,0.246886402547,
    0.292576392192,0.331634010091,0.364274268172,0.50000275724,
    0.635365605866,0.66894197626,0.707884197714,0.753370143487,
    0.806644119433,0.871350277012,0.920836985547,1.),.UNSPECIFIED.);
#628 = CARTESIAN_POINT('',(51.15,-1.166476076188E-15,59.05));
#629 = CARTESIAN_POINT('',(51.15,0.960227974853,59.05));
#630 = CARTESIAN_POINT('',(51.128368651636,1.918667727729,
    58.991918737096));
#631 = CARTESIAN_POINT('',(51.085256776427,2.867055005267,
    58.876162783005));
#632 = CARTESIAN_POINT('',(51.021988317307,3.797213827827,
    58.705137792846));
#633 = CARTESIAN_POINT('',(50.941020281528,4.701325053784,
    58.483219332699));
#634 = CARTESIAN_POINT('',(50.783293358941,6.140566202837,
    58.042982867212));
#635 = CARTESIAN_POINT('',(50.714764581062,6.695475929298,
    57.849974610858));
#636 = CARTESIAN_POINT('',(50.64071843427,7.236193906728,57.639104506707
    ));
#637 = CARTESIAN_POINT('',(50.561906536597,7.762085270033,
    57.411688076244));
#638 = CARTESIAN_POINT('',(50.479091722423,8.272599652769,
    57.169072515213));
#639 = CARTESIAN_POINT('',(50.284524666555,9.390943518138,
    56.589339118381));
#640 = CARTESIAN_POINT('',(50.170829456421,9.989595441083,
    56.243991930025));
#641 = CARTESIAN_POINT('',(50.053283262541,10.56325800733,
    55.878839578314));
#642 = CARTESIAN_POINT('',(49.933121388525,11.112092974677,
    55.495895052176));
#643 = CARTESIAN_POINT('',(49.811470366179,11.636359195533,
    55.096968668748));
#644 = CARTESIAN_POINT('',(49.587253390665,12.554359018339,
    54.338222530496));
#645 = CARTESIAN_POINT('',(49.48481049265,12.955480790542,
    53.982656080844));
#646 = CARTESIAN_POINT('',(49.382580247009,13.340026031683,
    53.617848350193));
#647 = CARTESIAN_POINT('',(49.281076382141,13.708276254232,
    53.244560103771));
#648 = CARTESIAN_POINT('',(49.180762876834,14.060513619498,
    52.863456379474));
#649 = CARTESIAN_POINT('',(48.998048089893,14.683421461841,
    52.144583343771));
#650 = CARTESIAN_POINT('',(48.915203815644,14.958427573413,
    51.808811291406));
#651 = CARTESIAN_POINT('',(48.833784829061,15.222199972537,
    51.468155885841));
#652 = CARTESIAN_POINT('',(48.754030961914,15.474890220827,
    51.122948006861));
#653 = CARTESIAN_POINT('',(48.676162097447,15.716641608348,
    50.773483543835));
#654 = CARTESIAN_POINT('',(48.535597491923,16.145013126501,
    50.117871462442));
#655 = CARTESIAN_POINT('',(48.472340832548,16.334539880891,
    49.81280303577));
#656 = CARTESIAN_POINT('',(48.410738024847,16.516245122239,
    49.504995226452));
#657 = CARTESIAN_POINT('',(48.350908761004,16.690198823714,
    49.194612760298));
#658 = CARTESIAN_POINT('',(48.292963904199,16.856465678115,
    48.881807892099));
#659 = CARTESIAN_POINT('',(48.190241317499,17.147679276265,
    48.303403351758));
#660 = CARTESIAN_POINT('',(48.144865245656,17.274924558155,
    48.038496394386));
#661 = CARTESIAN_POINT('',(48.100937664043,17.396873498776,
    47.772085292602));
#662 = CARTESIAN_POINT('',(48.05851530604,17.513555388885,
    47.504253626248));
#663 = CARTESIAN_POINT('',(48.017651247444,17.624996254771,
    47.235082795917));
#664 = CARTESIAN_POINT('',(47.815154657758,18.172925950119,
    45.840115564945));
#665 = CARTESIAN_POINT('',(47.679648594765,18.524580553251,
    44.693341125592));
#666 = CARTESIAN_POINT('',(47.575559844953,18.787459150662,
    43.530616967726));
#667 = CARTESIAN_POINT('',(47.505333794267,18.962454103795,
    42.357441535576));
#668 = CARTESIAN_POINT('',(47.470201179266,19.05,41.178893199381));
#669 = CARTESIAN_POINT('',(47.470201179266,19.05,38.824282633729));
#670 = CARTESIAN_POINT('',(47.505144755705,18.962925149787,
    37.648905658436));
#671 = CARTESIAN_POINT('',(47.574993362215,18.788870781277,
    36.478858359464));
#672 = CARTESIAN_POINT('',(47.67852925515,18.527407382401,
    35.319179757127));
#673 = CARTESIAN_POINT('',(47.813332892311,18.177653067927,
    34.175323100156));
#674 = CARTESIAN_POINT('',(48.016049996962,17.629377191454,
    32.775260373319));
#675 = CARTESIAN_POINT('',(48.058043269563,17.514887508192,
    32.498329889747));
#676 = CARTESIAN_POINT('',(48.101686490285,17.39485234182,
    32.222815059571));
#677 = CARTESIAN_POINT('',(48.146921903763,17.269243376457,
    31.948804480434));
#678 = CARTESIAN_POINT('',(48.193687658434,17.138028639009,
    31.676389196491));
#679 = CARTESIAN_POINT('',(48.297855630868,16.842445333535,
    31.091671307503));
#680 = CARTESIAN_POINT('',(48.35576216611,16.676132418407,30.77995763692
    ));
#681 = CARTESIAN_POINT('',(48.415535949697,16.502174542034,
    30.470660515815));
#682 = CARTESIAN_POINT('',(48.477066778965,16.320507274216,
    30.163931162445));
#683 = CARTESIAN_POINT('',(48.540235711159,16.131060966304,
    29.859933184159));
#684 = CARTESIAN_POINT('',(48.680462923835,15.703306849236,
    29.207157683719));
#685 = CARTESIAN_POINT('',(48.758070392866,15.462140695117,
    28.859443787746));
#686 = CARTESIAN_POINT('',(48.837538416944,15.210128219148,
    28.515958937423));
#687 = CARTESIAN_POINT('',(48.918649595845,14.947127698691,
    28.176995741784));
#688 = CARTESIAN_POINT('',(49.001166897791,14.672989316319,
    27.842881285732));
#689 = CARTESIAN_POINT('',(49.182822919112,14.053248468677,
    27.128758350958));
#690 = CARTESIAN_POINT('',(49.282388489009,13.703446568627,
    26.750686536066));
#691 = CARTESIAN_POINT('',(49.383121098642,13.337872168304,
    26.380318993362));
#692 = CARTESIAN_POINT('',(49.484567001748,12.956249470352,
    26.018306204594));
#693 = CARTESIAN_POINT('',(49.586224191519,12.558303326391,
    25.66539151591));
#694 = CARTESIAN_POINT('',(49.810597174523,11.64025631161,
    24.905829337129));
#695 = CARTESIAN_POINT('',(49.933181154736,11.112141548248,
    24.503799249522));
#696 = CARTESIAN_POINT('',(50.054256538835,10.559085022532,
    24.117988839363));
#697 = CARTESIAN_POINT('',(50.172670754754,9.980822851193,
    23.750250369916));
#698 = CARTESIAN_POINT('',(50.287159273152,9.377191185122,23.40264458955
    ));
#699 = CARTESIAN_POINT('',(50.479859744623,8.267083469856,
    22.828770718755));
#700 = CARTESIAN_POINT('',(50.560285144602,7.771066250063,22.59315016582
    ));
#701 = CARTESIAN_POINT('',(50.636934472311,7.260534982878,
    22.371870258759));
#702 = CARTESIAN_POINT('',(50.709108914401,6.735990502468,
    22.166165615845));
#703 = CARTESIAN_POINT('',(50.776119127369,6.198008868803,
    21.977243379334));
#704 = CARTESIAN_POINT('',(50.935172233102,4.766189427896,21.53281342765
    ));
#705 = CARTESIAN_POINT('',(51.018332120686,3.850587563962,21.30474676807
    ));
#706 = CARTESIAN_POINT('',(51.083385730984,2.907891074805,
    21.128860947429));
#707 = CARTESIAN_POINT('',(51.12774133558,1.946213590723,21.009765657539
    ));
#708 = CARTESIAN_POINT('',(51.15,0.974051991859,20.95));
#709 = CARTESIAN_POINT('',(51.15,2.332952152376E-15,20.95));
#710 = PCURVE('',#582,#711);
#711 = DEFINITIONAL_REPRESENTATION('',(#712),#795);
#712 = B_SPLINE_CURVE_WITH_KNOTS('',6,(#713,#714,#715,#716,#717,#718,
    #719,#720,#721,#722,#723,#724,#725,#726,#727,#728,#729,#730,#731,
    #732,#733,#734,#735,#736,#737,#738,#739,#740,#741,#742,#743,#744,
    #745,#746,#747,#748,#749,#750,#751,#752,#753,#754,#755,#756,#757,
    #758,#759,#760,#761,#762,#763,#764,#765,#766,#767,#768,#769,#770,
    #771,#772,#773,#774,#775,#776,#777,#778,#779,#780,#781,#782,#783,
    #784,#785,#786,#787,#788,#789,#790,#791,#792,#793,#794),
  .UNSPECIFIED.,.F.,.F.,(7,5,5,5,5,5,5,5,5,5,5,5,5,5,5,5,7),(0.,
    7.804466439959E-02,0.128981881143,0.193202642107,0.246886402547,
    0.292576392192,0.331634010091,0.364274268172,0.50000275724,
    0.635365605866,0.66894197626,0.707884197714,0.753370143487,
    0.806644119433,0.871350277012,0.920836985547,1.),.UNSPECIFIED.);
#713 = CARTESIAN_POINT('',(0.,59.05));
#714 = CARTESIAN_POINT('',(1.877278543211E-02,59.05));
#715 = CARTESIAN_POINT('',(3.751061379317E-02,58.991918737096));
#716 = CARTESIAN_POINT('',(5.606380177175E-02,58.876162783005));
#717 = CARTESIAN_POINT('',(7.428427430816E-02,58.705137792846));
#718 = CARTESIAN_POINT('',(9.202720895718E-02,58.483219332699));
#719 = CARTESIAN_POINT('',(0.120333328748,58.042982867212));
#720 = CARTESIAN_POINT('',(0.131263387988,57.849974610858));
#721 = CARTESIAN_POINT('',(0.141931914975,57.639104506707));
#722 = CARTESIAN_POINT('',(0.152326914128,57.411688076244));
#723 = CARTESIAN_POINT('',(0.162437452719,57.169072515213));
#724 = CARTESIAN_POINT('',(0.184629884239,56.589339118381));
#725 = CARTESIAN_POINT('',(0.196541520546,56.243991930025));
#726 = CARTESIAN_POINT('',(0.207988151806,55.878839578314));
#727 = CARTESIAN_POINT('',(0.218970888156,55.495895052176));
#728 = CARTESIAN_POINT('',(0.229492085859,55.096968668748));
#729 = CARTESIAN_POINT('',(0.247966868778,54.338222530496));
#730 = CARTESIAN_POINT('',(0.256060199957,53.982656080844));
#731 = CARTESIAN_POINT('',(0.263838791772,53.617848350193));
#732 = CARTESIAN_POINT('',(0.271306278206,53.244560103771));
#733 = CARTESIAN_POINT('',(0.278466232183,52.863456379474));
#734 = CARTESIAN_POINT('',(0.291157384225,52.144583343771));
#735 = CARTESIAN_POINT('',(0.296772355894,51.808811291406));
#736 = CARTESIAN_POINT('',(0.302169097772,51.468155885841));
#737 = CARTESIAN_POINT('',(0.307349357603,51.122948006861));
#738 = CARTESIAN_POINT('',(0.31231473533,50.773483543835));
#739 = CARTESIAN_POINT('',(0.321128895275,50.117871462442));
#740 = CARTESIAN_POINT('',(0.325035091448,49.81280303577));
#741 = CARTESIAN_POINT('',(0.328786031918,49.504995226452));
#742 = CARTESIAN_POINT('',(0.332382365789,49.194612760298));
#743 = CARTESIAN_POINT('',(0.335824662503,48.881807892099));
#744 = CARTESIAN_POINT('',(0.341861803391,48.303403351758));
#745 = CARTESIAN_POINT('',(0.344502919583,48.038496394386));
#746 = CARTESIAN_POINT('',(0.347037003252,47.772085292602));
#747 = CARTESIAN_POINT('',(0.349464249666,47.504253626248));
#748 = CARTESIAN_POINT('',(0.351784806521,47.235082795917));
#749 = CARTESIAN_POINT('',(0.363205148874,45.840115564945));
#750 = CARTESIAN_POINT('',(0.370572226126,44.693341125592));
#751 = CARTESIAN_POINT('',(0.376099603,43.530616967726));
#752 = CARTESIAN_POINT('',(0.379786166798,42.357441535576));
#753 = CARTESIAN_POINT('',(0.381630342916,41.178893199381));
#754 = CARTESIAN_POINT('',(0.381630342916,38.824282633729));
#755 = CARTESIAN_POINT('',(0.379796088982,37.648905658436));
#756 = CARTESIAN_POINT('',(0.37612934165,36.478858359464));
#757 = CARTESIAN_POINT('',(0.370631665014,35.319179757127));
#758 = CARTESIAN_POINT('',(0.363304181738,34.175323100156));
#759 = CARTESIAN_POINT('',(0.351875996491,32.775260373319));
#760 = CARTESIAN_POINT('',(0.349491878043,32.498329889747));
#761 = CARTESIAN_POINT('',(0.346994865445,32.222815059571));
#762 = CARTESIAN_POINT('',(0.344384798104,31.948804480434));
#763 = CARTESIAN_POINT('',(0.341661462112,31.676389196491));
#764 = CARTESIAN_POINT('',(0.335534356911,31.091671307503));
#765 = CARTESIAN_POINT('',(0.332091456326,30.77995763692));
#766 = CARTESIAN_POINT('',(0.328495397881,30.470660515815));
#767 = CARTESIAN_POINT('',(0.32474561207,30.163931162445));
#768 = CARTESIAN_POINT('',(0.320841450483,29.859933184159));
#769 = CARTESIAN_POINT('',(0.312040815475,29.207157683719));
#770 = CARTESIAN_POINT('',(0.307087894384,28.859443787746));
#771 = CARTESIAN_POINT('',(0.301921951531,28.515958937423));
#772 = CARTESIAN_POINT('',(0.296541401952,28.176995741784));
#773 = CARTESIAN_POINT('',(0.290944515811,27.842881285732));
#774 = CARTESIAN_POINT('',(0.278318602313,27.128758350958));
#775 = CARTESIAN_POINT('',(0.271208442347,26.750686536066));
#776 = CARTESIAN_POINT('',(0.263795386309,26.380318993362));
#777 = CARTESIAN_POINT('',(0.256075940815,26.018306204594));
#778 = CARTESIAN_POINT('',(0.248046553553,25.66539151591));
#779 = CARTESIAN_POINT('',(0.229570150483,24.905829337129));
#780 = CARTESIAN_POINT('',(0.218971551509,24.503799249522));
#781 = CARTESIAN_POINT('',(0.207904402374,24.117988839363));
#782 = CARTESIAN_POINT('',(0.196366312258,23.750250369916));
#783 = CARTESIAN_POINT('',(0.184356172679,23.40264458955));
#784 = CARTESIAN_POINT('',(0.162328631101,22.828770718755));
#785 = CARTESIAN_POINT('',(0.152505287534,22.59315016582));
#786 = CARTESIAN_POINT('',(0.142413434309,22.371870258759));
#787 = CARTESIAN_POINT('',(0.132063025099,22.166165615845));
#788 = CARTESIAN_POINT('',(0.121464960741,21.977243379334));
#789 = CARTESIAN_POINT('',(9.330021917719E-02,21.53281342765));
#790 = CARTESIAN_POINT('',(7.532981966393E-02,21.30474676807));
#791 = CARTESIAN_POINT('',(5.686268152005E-02,21.128860947429));
#792 = CARTESIAN_POINT('',(3.80491451149E-02,21.009765657539));
#793 = CARTESIAN_POINT('',(1.904304969421E-02,20.95));
#794 = CARTESIAN_POINT('',(0.,20.95));
#795 = ( GEOMETRIC_REPRESENTATION_CONTEXT(2) 
PARAMETRIC_REPRESENTATION_CONTEXT() REPRESENTATION_CONTEXT('2D SPACE',''
  ) );
#796 = PCURVE('',#797,#802);
#797 = CYLINDRICAL_SURFACE('',#798,19.05);
#798 = AXIS2_PLACEMENT_3D('',#799,#800,#801);
#799 = CARTESIAN_POINT('',(106.15,0.,40.));
#800 = DIRECTION('',(-1.,0.,0.));
#801 = DIRECTION('',(0.,0.,-1.));
#802 = DEFINITIONAL_REPRESENTATION('',(#803),#886);
#803 = B_SPLINE_CURVE_WITH_KNOTS('',6,(#804,#805,#806,#807,#808,#809,
    #810,#811,#812,#813,#814,#815,#816,#817,#818,#819,#820,#821,#822,
    #823,#824,#825,#826,#827,#828,#829,#830,#831,#832,#833,#834,#835,
    #836,#837,#838,#839,#840,#841,#842,#843,#844,#845,#846,#847,#848,
    #849,#850,#851,#852,#853,#854,#855,#856,#857,#858,#859,#860,#861,
    #862,#863,#864,#865,#866,#867,#868,#869,#870,#871,#872,#873,#874,
    #875,#876,#877,#878,#879,#880,#881,#882,#883,#884,#885),
  .UNSPECIFIED.,.F.,.F.,(7,5,5,5,5,5,5,5,5,5,5,5,5,5,5,5,7),(0.,
    7.804466439959E-02,0.128981881143,0.193202642107,0.246886402547,
    0.292576392192,0.331634010091,0.364274268172,0.50000275724,
    0.635365605866,0.66894197626,0.707884197714,0.753370143487,
    0.806644119433,0.871350277012,0.920836985547,1.),.UNSPECIFIED.);
#804 = CARTESIAN_POINT('',(3.14159265359,55.));
#805 = CARTESIAN_POINT('',(3.191998321561,55.));
#806 = CARTESIAN_POINT('',(3.24231011532,55.021631348364));
#807 = CARTESIAN_POINT('',(3.292324769012,55.064743223573));
#808 = CARTESIAN_POINT('',(3.341839196982,55.128011682693));
#809 = CARTESIAN_POINT('',(3.390630865516,55.208979718472));
#810 = CARTESIAN_POINT('',(3.469636947192,55.366706641059));
#811 = CARTESIAN_POINT('',(3.500455642315,55.435235418938));
#812 = CARTESIAN_POINT('',(3.530890855313,55.50928156573));
#813 = CARTESIAN_POINT('',(3.560938551458,55.588093463403));
#814 = CARTESIAN_POINT('',(3.590591754209,55.670908277577));
#815 = CARTESIAN_POINT('',(3.656716482528,55.865475333445));
#816 = CARTESIAN_POINT('',(3.692959127704,55.979170543579));
#817 = CARTESIAN_POINT('',(3.728605813549,56.096716737459));
#818 = CARTESIAN_POINT('',(3.763690437756,56.216878611475));
#819 = CARTESIAN_POINT('',(3.798244286257,56.338529633821));
#820 = CARTESIAN_POINT('',(3.860762613261,56.562746609335));
#821 = CARTESIAN_POINT('',(3.888883773487,56.66518950735));
#822 = CARTESIAN_POINT('',(3.916684767877,56.767419752991));
#823 = CARTESIAN_POINT('',(3.944188092478,56.868923617859));
#824 = CARTESIAN_POINT('',(3.971415667609,56.969237123166));
#825 = CARTESIAN_POINT('',(4.021347734672,57.151951910107));
#826 = CARTESIAN_POINT('',(4.044122028827,57.234796184356));
#827 = CARTESIAN_POINT('',(4.066725661015,57.316215170939));
#828 = CARTESIAN_POINT('',(4.08917076738,57.395969038086));
#829 = CARTESIAN_POINT('',(4.111469237225,57.473837902553));
#830 = CARTESIAN_POINT('',(4.15257965564,57.614402508077));
#831 = CARTESIAN_POINT('',(4.171427661392,57.677659167452));
#832 = CARTESIAN_POINT('',(4.190183660328,57.739261975153));
#833 = CARTESIAN_POINT('',(4.208854081064,57.799091238996));
#834 = CARTESIAN_POINT('',(4.22744524068,57.857036095801));
#835 = CARTESIAN_POINT('',(4.261438832669,57.959758682501));
#836 = CARTESIAN_POINT('',(4.276863078232,58.005134754344));
#837 = CARTESIAN_POINT('',(4.292239476746,58.049062335957));
#838 = CARTESIAN_POINT('',(4.307571268028,58.09148469396));
#839 = CARTESIAN_POINT('',(4.322861536375,58.132348752556));
#840 = CARTESIAN_POINT('',(4.401534482782,58.334845342242));
#841 = CARTESIAN_POINT('',(4.464314163965,58.470351405235));
#842 = CARTESIAN_POINT('',(4.526628073522,58.574440155047));
#843 = CARTESIAN_POINT('',(4.588638843622,58.644666205733));
#844 = CARTESIAN_POINT('',(4.650504822937,58.679798820734));
#845 = CARTESIAN_POINT('',(4.774106427433,58.679798820734));
#846 = CARTESIAN_POINT('',(4.83580593261,58.644855244295));
#847 = CARTESIAN_POINT('',(4.897649054568,58.575006637785));
#848 = CARTESIAN_POINT('',(4.95979280041,58.47147074485));
#849 = CARTESIAN_POINT('',(5.022398399229,58.336667107689));
#850 = CARTESIAN_POINT('',(5.101326993974,58.133950003038));
#851 = CARTESIAN_POINT('',(5.117054613084,58.091956730437));
#852 = CARTESIAN_POINT('',(5.132826115549,58.048313509714));
#853 = CARTESIAN_POINT('',(5.14864485813,58.003078096237));
#854 = CARTESIAN_POINT('',(5.164514371774,57.956312341566));
#855 = CARTESIAN_POINT('',(5.198907169625,57.852144369132));
#856 = CARTESIAN_POINT('',(5.21744894329,57.79423783389));
#857 = CARTESIAN_POINT('',(5.236069847766,57.734464050303));
#858 = CARTESIAN_POINT('',(5.254776158736,57.672933221035));
#859 = CARTESIAN_POINT('',(5.273574262406,57.609764288841));
#860 = CARTESIAN_POINT('',(5.31454233709,57.469537076165));
#861 = CARTESIAN_POINT('',(5.336747869819,57.391929607135));
#862 = CARTESIAN_POINT('',(5.359099141335,57.312461583056));
#863 = CARTESIAN_POINT('',(5.381607899723,57.231350404155));
#864 = CARTESIAN_POINT('',(5.404286135771,57.148833102209));
#865 = CARTESIAN_POINT('',(5.453920903372,56.967177080888));
#866 = CARTESIAN_POINT('',(5.48094513614,56.867611510991));
#867 = CARTESIAN_POINT('',(5.50824116259,56.766878901358));
#868 = CARTESIAN_POINT('',(5.535830415777,56.665432998252));
#869 = CARTESIAN_POINT('',(5.56373488721,56.563775808481));
#870 = CARTESIAN_POINT('',(5.626282422052,56.339402825477));
#871 = CARTESIAN_POINT('',(5.661095078924,56.216818845264));
#872 = CARTESIAN_POINT('',(5.696446491308,56.095743461165));
#873 = CARTESIAN_POINT('',(5.732368592789,55.977329245246));
#874 = CARTESIAN_POINT('',(5.76889602959,55.862840726848));
#875 = CARTESIAN_POINT('',(5.834495404895,55.670140255377));
#876 = CARTESIAN_POINT('',(5.863305108595,55.589714855398));
#877 = CARTESIAN_POINT('',(5.892487292519,55.513065527689));
#878 = CARTESIAN_POINT('',(5.922035702394,55.440891085599));
#879 = CARTESIAN_POINT('',(5.951946695988,55.373880872631));
#880 = CARTESIAN_POINT('',(6.030645283323,55.214827766898));
#881 = CARTESIAN_POINT('',(6.080096974768,55.131667879314));
#882 = CARTESIAN_POINT('',(6.13029946411,55.066614269016));
#883 = CARTESIAN_POINT('',(6.181021868749,55.02225866442));
#884 = CARTESIAN_POINT('',(6.232053969024,55.));
#885 = CARTESIAN_POINT('',(6.28318530718,55.));
#886 = ( GEOMETRIC_REPRESENTATION_CONTEXT(2) 
PARAMETRIC_REPRESENTATION_CONTEXT() REPRESENTATION_CONTEXT('2D SPACE',''
  ) );
#887 = ORIENTED_EDGE('',*,*,#888,.F.);
#888 = EDGE_CURVE('',#889,#624,#891,.T.);
#889 = VERTEX_POINT('',#890);
#890 = CARTESIAN_POINT('',(51.15,-1.252813675528E-14,0.));
#891 = SEAM_CURVE('',#892,(#896,#903),.PCURVE_S1.);
#892 = LINE('',#893,#894);
#893 = CARTESIAN_POINT('',(51.15,-1.252813675528E-14,0.));
#894 = VECTOR('',#895,1.);
#895 = DIRECTION('',(0.,0.,1.));
#896 = PCURVE('',#582,#897);
#897 = DEFINITIONAL_REPRESENTATION('',(#898),#902);
#898 = LINE('',#899,#900);
#899 = CARTESIAN_POINT('',(6.28318530718,-0.));
#900 = VECTOR('',#901,1.);
#901 = DIRECTION('',(0.,1.));
#902 = ( GEOMETRIC_REPRESENTATION_CONTEXT(2) 
PARAMETRIC_REPRESENTATION_CONTEXT() REPRESENTATION_CONTEXT('2D SPACE',''
  ) );
#903 = PCURVE('',#582,#904);
#904 = DEFINITIONAL_REPRESENTATION('',(#905),#909);
#905 = LINE('',#906,#907);
#906 = CARTESIAN_POINT('',(0.,-0.));
#907 = VECTOR('',#908,1.);
#908 = DIRECTION('',(0.,1.));
#909 = ( GEOMETRIC_REPRESENTATION_CONTEXT(2) 
PARAMETRIC_REPRESENTATION_CONTEXT() REPRESENTATION_CONTEXT('2D SPACE',''
  ) );
#910 = ORIENTED_EDGE('',*,*,#911,.T.);
#911 = EDGE_CURVE('',#889,#889,#912,.T.);
#912 = SURFACE_CURVE('',#913,(#918,#925),.PCURVE_S1.);
#913 = CIRCLE('',#914,51.15);
#914 = AXIS2_PLACEMENT_3D('',#915,#916,#917);
#915 = CARTESIAN_POINT('',(0.,0.,0.));
#916 = DIRECTION('',(0.,0.,1.));
#917 = DIRECTION('',(1.,0.,-0.));
#918 = PCURVE('',#582,#919);
#919 = DEFINITIONAL_REPRESENTATION('',(#920),#924);
#920 = LINE('',#921,#922);
#921 = CARTESIAN_POINT('',(0.,0.));
#922 = VECTOR('',#923,1.);
#923 = DIRECTION('',(1.,0.));
#924 = ( GEOMETRIC_REPRESENTATION_CONTEXT(2) 
PARAMETRIC_REPRESENTATION_CONTEXT() REPRESENTATION_CONTEXT('2D SPACE',''
  ) );
#925 = PCURVE('',#926,#931);
#926 = PLANE('',#927);
#927 = AXIS2_PLACEMENT_3D('',#928,#929,#930);
#928 = CARTESIAN_POINT('',(0.,0.,0.));
#929 = DIRECTION('',(0.,0.,1.));
#930 = DIRECTION('',(1.,0.,-0.));
#931 = DEFINITIONAL_REPRESENTATION('',(#932),#936);
#932 = CIRCLE('',#933,51.15);
#933 = AXIS2_PLACEMENT_2D('',#934,#935);
#934 = CARTESIAN_POINT('',(0.,0.));
#935 = DIRECTION('',(1.,0.));
#936 = ( GEOMETRIC_REPRESENTATION_CONTEXT(2) 
PARAMETRIC_REPRESENTATION_CONTEXT() REPRESENTATION_CONTEXT('2D SPACE',''
  ) );
#937 = ORIENTED_EDGE('',*,*,#888,.T.);
#938 = ORIENTED_EDGE('',*,*,#939,.T.);
#939 = EDGE_CURVE('',#624,#599,#940,.T.);
#940 = SURFACE_CURVE('',#941,(#1024,#1110),.PCURVE_S1.);
#941 = B_SPLINE_CURVE_WITH_KNOTS('',6,(#942,#943,#944,#945,#946,#947,
    #948,#949,#950,#951,#952,#953,#954,#955,#956,#957,#958,#959,#960,
    #961,#962,#963,#964,#965,#966,#967,#968,#969,#970,#971,#972,#973,
    #974,#975,#976,#977,#978,#979,#980,#981,#982,#983,#984,#985,#986,
    #987,#988,#989,#990,#991,#992,#993,#994,#995,#996,#997,#998,#999,
    #1000,#1001,#1002,#1003,#1004,#1005,#1006,#1007,#1008,#1009,#1010,
    #1011,#1012,#1013,#1014,#1015,#1016,#1017,#1018,#1019,#1020,#1021,
    #1022,#1023),.UNSPECIFIED.,.F.,.F.,(7,5,5,5,5,5,5,5,5,5,5,5,5,5,5,5,
    7),(0.,7.80446625703E-02,0.128981878115,0.19320263755,0.246886396737
    ,0.292576385329,0.331634002329,0.364274259658,0.500002752357,
    0.635365597974,0.668941967623,0.707884188212,0.753370132975,
    0.806644107737,0.871350263878,0.920836971316,1.),.UNSPECIFIED.);
#942 = CARTESIAN_POINT('',(51.15,-3.552713678801E-15,20.95));
#943 = CARTESIAN_POINT('',(51.15,-0.960227975088,20.95));
#944 = CARTESIAN_POINT('',(51.128368651625,-1.918667727667,
    21.008081262932));
#945 = CARTESIAN_POINT('',(51.08525677644,-2.867055005037,
    21.123837216961));
#946 = CARTESIAN_POINT('',(51.021988317324,-3.797213827763,
    21.294862207106));
#947 = CARTESIAN_POINT('',(50.941020281503,-4.70132505401,
    21.516780667371));
#948 = CARTESIAN_POINT('',(50.783293358962,-6.140566202645,
    21.957017132729));
#949 = CARTESIAN_POINT('',(50.714764581061,-6.69547592935,
    22.150025389143));
#950 = CARTESIAN_POINT('',(50.640718434246,-7.236193906901,
    22.360895493363));
#951 = CARTESIAN_POINT('',(50.561906536585,-7.762085270075,
    22.588311923793));
#952 = CARTESIAN_POINT('',(50.47909172245,-8.272599652619,22.83092748471
    ));
#953 = CARTESIAN_POINT('',(50.284524666555,-9.390943518139,
    23.410660881619));
#954 = CARTESIAN_POINT('',(50.170829456422,-9.989595441082,
    23.756008069975));
#955 = CARTESIAN_POINT('',(50.053283262542,-10.56325800732,
    24.121160421685));
#956 = CARTESIAN_POINT('',(49.933121388525,-11.11209297467,
    24.504104947824));
#957 = CARTESIAN_POINT('',(49.811470366179,-11.63635919553,
    24.903031331253));
#958 = CARTESIAN_POINT('',(49.587253390617,-12.55435901853,
    25.661777469666));
#959 = CARTESIAN_POINT('',(49.484810492645,-12.95548079054,
    26.017343919185));
#960 = CARTESIAN_POINT('',(49.382580247048,-13.34002603153,
    26.382151649666));
#961 = CARTESIAN_POINT('',(49.281076382167,-13.70827625415,
    26.755439896125));
#962 = CARTESIAN_POINT('',(49.180762876804,-14.0605136196,
    27.136543620645));
#963 = CARTESIAN_POINT('',(48.998048089894,-14.68342146184,
    27.855416656228));
#964 = CARTESIAN_POINT('',(48.915203815644,-14.95842757341,
    28.191188708593));
#965 = CARTESIAN_POINT('',(48.833784829061,-15.22219997253,
    28.531844114159));
#966 = CARTESIAN_POINT('',(48.754030961914,-15.47489022082,
    28.877051993139));
#967 = CARTESIAN_POINT('',(48.676162097447,-15.71664160834,
    29.226516456165));
#968 = CARTESIAN_POINT('',(48.535597491923,-16.1450131265,
    29.882128537556));
#969 = CARTESIAN_POINT('',(48.472340832548,-16.33453988089,
    30.187196964229));
#970 = CARTESIAN_POINT('',(48.410738024847,-16.51624512223,
    30.495004773548));
#971 = CARTESIAN_POINT('',(48.350908761004,-16.69019882371,
    30.805387239703));
#972 = CARTESIAN_POINT('',(48.292963904199,-16.85646567811,
    31.118192107903));
#973 = CARTESIAN_POINT('',(48.1902413175,-17.14767927626,31.696596648241
    ));
#974 = CARTESIAN_POINT('',(48.144865245656,-17.27492455815,
    31.961503605613));
#975 = CARTESIAN_POINT('',(48.100937664043,-17.39687349877,
    32.227914707397));
#976 = CARTESIAN_POINT('',(48.05851530604,-17.51355538888,
    32.495746373752));
#977 = CARTESIAN_POINT('',(48.017651247444,-17.62499625477,
    32.764917204083));
#978 = CARTESIAN_POINT('',(47.815154649631,-18.17292597211,
    34.159884491043));
#979 = CARTESIAN_POINT('',(47.679648602196,-18.52458053332,
    35.306658782978));
#980 = CARTESIAN_POINT('',(47.575559848728,-18.78745914045,
    36.469383033064));
#981 = CARTESIAN_POINT('',(47.505333788617,-18.9624541189,
    37.642558556196));
#982 = CARTESIAN_POINT('',(47.470201179266,-19.05,38.821106742853));
#983 = CARTESIAN_POINT('',(47.470201179266,-19.05,41.175717366291));
#984 = CARTESIAN_POINT('',(47.505144755706,-18.96292514978,
    42.351094341558));
#985 = CARTESIAN_POINT('',(47.574993362213,-18.78887078128,
    43.521141640516));
#986 = CARTESIAN_POINT('',(47.678529255148,-18.5274073824,
    44.680820242869));
#987 = CARTESIAN_POINT('',(47.813332892313,-18.17765306791,
    45.824676899863));
#988 = CARTESIAN_POINT('',(48.016049996962,-17.62937719145,
    47.224739626681));
#989 = CARTESIAN_POINT('',(48.058043269563,-17.51488750819,
    47.501670110253));
#990 = CARTESIAN_POINT('',(48.101686490286,-17.39485234182,
    47.777184940429));
#991 = CARTESIAN_POINT('',(48.146921903763,-17.26924337645,
    48.051195519566));
#992 = CARTESIAN_POINT('',(48.193687658434,-17.138028639,48.323610803509
    ));
#993 = CARTESIAN_POINT('',(48.297855630869,-16.84244533353,
    48.908328692499));
#994 = CARTESIAN_POINT('',(48.35576216611,-16.6761324184,49.220042363083
    ));
#995 = CARTESIAN_POINT('',(48.415535949697,-16.50217454203,
    49.529339484185));
#996 = CARTESIAN_POINT('',(48.477066778965,-16.32050727421,
    49.836068837554));
#997 = CARTESIAN_POINT('',(48.540235711158,-16.1310609663,
    50.140066815839));
#998 = CARTESIAN_POINT('',(48.680462923834,-15.70330684923,
    50.792842316279));
#999 = CARTESIAN_POINT('',(48.758070392865,-15.46214069511,
    51.140556212253));
#1000 = CARTESIAN_POINT('',(48.837538416944,-15.21012821914,
    51.484041062578));
#1001 = CARTESIAN_POINT('',(48.918649595846,-14.94712769868,
    51.823004258219));
#1002 = CARTESIAN_POINT('',(49.001166897791,-14.67298931631,
    52.157118714271));
#1003 = CARTESIAN_POINT('',(49.182822919112,-14.05324846867,
    52.87124164904));
#1004 = CARTESIAN_POINT('',(49.282388489009,-13.70344656862,
    53.249313463934));
#1005 = CARTESIAN_POINT('',(49.383121098642,-13.3378721683,
    53.619681006641));
#1006 = CARTESIAN_POINT('',(49.484567001748,-12.95624947035,
    53.981693795407));
#1007 = CARTESIAN_POINT('',(49.586224191518,-12.55830332639,
    54.334608484087));
#1008 = CARTESIAN_POINT('',(49.810597174523,-11.6402563116,
    55.094170662872));
#1009 = CARTESIAN_POINT('',(49.933181154736,-11.11214154824,
    55.496200750478));
#1010 = CARTESIAN_POINT('',(50.054256538834,-10.55908502253,
    55.882011160637));
#1011 = CARTESIAN_POINT('',(50.172670754754,-9.980822851193,
    56.249749630084));
#1012 = CARTESIAN_POINT('',(50.287159273152,-9.37719118512,
    56.597355410451));
#1013 = CARTESIAN_POINT('',(50.479859744627,-8.267083469829,
    57.171229281259));
#1014 = CARTESIAN_POINT('',(50.5602851446,-7.771066250069,
    57.406849834174));
#1015 = CARTESIAN_POINT('',(50.636934472307,-7.260534982907,
    57.628129741229));
#1016 = CARTESIAN_POINT('',(50.709108914401,-6.735990502477,
    57.833834384154));
#1017 = CARTESIAN_POINT('',(50.776119127373,-6.198008868771,
    58.022756620676));
#1018 = CARTESIAN_POINT('',(50.935172252859,-4.766189250045,
    58.467186627554));
#1019 = CARTESIAN_POINT('',(51.01833212518,-3.850587456036,
    58.695253242688));
#1020 = CARTESIAN_POINT('',(51.0833857155,-2.907891184148,
    58.871139010782));
#1021 = CARTESIAN_POINT('',(51.127741319014,-1.946213916923,
    58.990234298036));
#1022 = CARTESIAN_POINT('',(51.15,-0.974052354406,59.05));
#1023 = CARTESIAN_POINT('',(51.15,-7.105427357601E-15,59.05));
#1024 = PCURVE('',#582,#1025);
#1025 = DEFINITIONAL_REPRESENTATION('',(#1026),#1109);
#1026 = B_SPLINE_CURVE_WITH_KNOTS('',6,(#1027,#1028,#1029,#1030,#1031,
    #1032,#1033,#1034,#1035,#1036,#1037,#1038,#1039,#1040,#1041,#1042,
    #1043,#1044,#1045,#1046,#1047,#1048,#1049,#1050,#1051,#1052,#1053,
    #1054,#1055,#1056,#1057,#1058,#1059,#1060,#1061,#1062,#1063,#1064,
    #1065,#1066,#1067,#1068,#1069,#1070,#1071,#1072,#1073,#1074,#1075,
    #1076,#1077,#1078,#1079,#1080,#1081,#1082,#1083,#1084,#1085,#1086,
    #1087,#1088,#1089,#1090,#1091,#1092,#1093,#1094,#1095,#1096,#1097,
    #1098,#1099,#1100,#1101,#1102,#1103,#1104,#1105,#1106,#1107,#1108),
  .UNSPECIFIED.,.F.,.F.,(7,5,5,5,5,5,5,5,5,5,5,5,5,5,5,5,7),(0.,
    7.80446625703E-02,0.128981878115,0.19320263755,0.246886396737,
    0.292576385329,0.331634002329,0.364274259658,0.500002752357,
    0.635365597974,0.668941967623,0.707884188212,0.753370132975,
    0.806644107737,0.871350263878,0.920836971316,1.),.UNSPECIFIED.);
#1027 = CARTESIAN_POINT('',(6.28318530718,20.95));
#1028 = CARTESIAN_POINT('',(6.264412521743,20.95));
#1029 = CARTESIAN_POINT('',(6.245674693388,21.008081262932));
#1030 = CARTESIAN_POINT('',(6.227121505412,21.123837216961));
#1031 = CARTESIAN_POINT('',(6.208901032873,21.294862207106));
#1032 = CARTESIAN_POINT('',(6.191158098218,21.516780667371));
#1033 = CARTESIAN_POINT('',(6.162851978435,21.957017132729));
#1034 = CARTESIAN_POINT('',(6.15192191919,22.150025389143));
#1035 = CARTESIAN_POINT('',(6.141253392201,22.360895493363));
#1036 = CARTESIAN_POINT('',(6.130858393051,22.588311923793));
#1037 = CARTESIAN_POINT('',(6.120747854463,22.83092748471));
#1038 = CARTESIAN_POINT('',(6.09855542294,23.410660881619));
#1039 = CARTESIAN_POINT('',(6.086643786634,23.756008069975));
#1040 = CARTESIAN_POINT('',(6.075197155374,24.121160421685));
#1041 = CARTESIAN_POINT('',(6.064214419024,24.504104947824));
#1042 = CARTESIAN_POINT('',(6.053693221321,24.903031331253));
#1043 = CARTESIAN_POINT('',(6.035218438397,25.661777469666));
#1044 = CARTESIAN_POINT('',(6.027125107223,26.017343919185));
#1045 = CARTESIAN_POINT('',(6.019346515411,26.382151649666));
#1046 = CARTESIAN_POINT('',(6.011879028975,26.755439896125));
#1047 = CARTESIAN_POINT('',(6.004719074994,27.136543620645));
#1048 = CARTESIAN_POINT('',(5.992027922954,27.855416656228));
#1049 = CARTESIAN_POINT('',(5.986412951285,28.191188708593));
#1050 = CARTESIAN_POINT('',(5.981016209407,28.531844114159));
#1051 = CARTESIAN_POINT('',(5.975835949576,28.877051993139));
#1052 = CARTESIAN_POINT('',(5.97087057185,29.226516456165));
#1053 = CARTESIAN_POINT('',(5.962056411904,29.882128537556));
#1054 = CARTESIAN_POINT('',(5.958150215731,30.187196964229));
#1055 = CARTESIAN_POINT('',(5.954399275262,30.495004773548));
#1056 = CARTESIAN_POINT('',(5.950802941391,30.805387239703));
#1057 = CARTESIAN_POINT('',(5.947360644676,31.118192107903));
#1058 = CARTESIAN_POINT('',(5.941323503788,31.696596648241));
#1059 = CARTESIAN_POINT('',(5.938682387596,31.961503605613));
#1060 = CARTESIAN_POINT('',(5.936148303927,32.227914707397));
#1061 = CARTESIAN_POINT('',(5.933721057514,32.495746373752));
#1062 = CARTESIAN_POINT('',(5.931400500658,32.764917204083));
#1063 = CARTESIAN_POINT('',(5.919980157848,34.159884491043));
#1064 = CARTESIAN_POINT('',(5.912613081469,35.306658782978));
#1065 = CARTESIAN_POINT('',(5.907085704393,36.469383033064));
#1066 = CARTESIAN_POINT('',(5.903399140066,37.642558556196));
#1067 = CARTESIAN_POINT('',(5.901554964264,38.821106742853));
#1068 = CARTESIAN_POINT('',(5.901554964264,41.175717366291));
#1069 = CARTESIAN_POINT('',(5.903389218197,42.351094341558));
#1070 = CARTESIAN_POINT('',(5.907055965529,43.521141640516));
#1071 = CARTESIAN_POINT('',(5.912553642165,44.680820242869));
#1072 = CARTESIAN_POINT('',(5.919881125441,45.824676899863));
#1073 = CARTESIAN_POINT('',(5.931309310689,47.224739626681));
#1074 = CARTESIAN_POINT('',(5.933693429136,47.501670110253));
#1075 = CARTESIAN_POINT('',(5.936190441735,47.777184940429));
#1076 = CARTESIAN_POINT('',(5.938800509075,48.051195519566));
#1077 = CARTESIAN_POINT('',(5.941523845068,48.323610803509));
#1078 = CARTESIAN_POINT('',(5.947650950268,48.908328692499));
#1079 = CARTESIAN_POINT('',(5.951093850854,49.220042363083));
#1080 = CARTESIAN_POINT('',(5.954689909299,49.529339484185));
#1081 = CARTESIAN_POINT('',(5.958439695109,49.836068837554));
#1082 = CARTESIAN_POINT('',(5.962343856696,50.140066815839));
#1083 = CARTESIAN_POINT('',(5.971144491704,50.792842316279));
#1084 = CARTESIAN_POINT('',(5.976097412795,51.140556212253));
#1085 = CARTESIAN_POINT('',(5.981263355648,51.484041062578));
#1086 = CARTESIAN_POINT('',(5.986643905228,51.823004258219));
#1087 = CARTESIAN_POINT('',(5.992240791368,52.157118714271));
#1088 = CARTESIAN_POINT('',(6.004866704867,52.87124164904));
#1089 = CARTESIAN_POINT('',(6.011976864832,53.249313463934));
#1090 = CARTESIAN_POINT('',(6.01938992087,53.619681006641));
#1091 = CARTESIAN_POINT('',(6.027109366364,53.981693795407));
#1092 = CARTESIAN_POINT('',(6.035138753626,54.334608484087));
#1093 = CARTESIAN_POINT('',(6.053615156697,55.094170662872));
#1094 = CARTESIAN_POINT('',(6.064213755671,55.496200750478));
#1095 = CARTESIAN_POINT('',(6.075280904805,55.882011160637));
#1096 = CARTESIAN_POINT('',(6.086818994921,56.249749630084));
#1097 = CARTESIAN_POINT('',(6.098829134501,56.597355410451));
#1098 = CARTESIAN_POINT('',(6.120856676079,57.171229281259));
#1099 = CARTESIAN_POINT('',(6.130680019646,57.406849834174));
#1100 = CARTESIAN_POINT('',(6.14077187287,57.628129741229));
#1101 = CARTESIAN_POINT('',(6.15112228208,57.833834384154));
#1102 = CARTESIAN_POINT('',(6.161720346439,58.022756620676));
#1103 = CARTESIAN_POINT('',(6.189885091501,58.467186627554));
#1104 = CARTESIAN_POINT('',(6.207855489622,58.695253242688));
#1105 = CARTESIAN_POINT('',(6.226322623508,58.871139010782));
#1106 = CARTESIAN_POINT('',(6.245136155687,58.990234298036));
#1107 = CARTESIAN_POINT('',(6.264142250397,59.05));
#1108 = CARTESIAN_POINT('',(6.28318530718,59.05));
#1109 = ( GEOMETRIC_REPRESENTATION_CONTEXT(2) 
PARAMETRIC_REPRESENTATION_CONTEXT() REPRESENTATION_CONTEXT('2D SPACE',''
  ) );
#1110 = PCURVE('',#797,#1111);
#1111 = DEFINITIONAL_REPRESENTATION('',(#1112),#1195);
#1112 = B_SPLINE_CURVE_WITH_KNOTS('',6,(#1113,#1114,#1115,#1116,#1117,
    #1118,#1119,#1120,#1121,#1122,#1123,#1124,#1125,#1126,#1127,#1128,
    #1129,#1130,#1131,#1132,#1133,#1134,#1135,#1136,#1137,#1138,#1139,
    #1140,#1141,#1142,#1143,#1144,#1145,#1146,#1147,#1148,#1149,#1150,
    #1151,#1152,#1153,#1154,#1155,#1156,#1157,#1158,#1159,#1160,#1161,
    #1162,#1163,#1164,#1165,#1166,#1167,#1168,#1169,#1170,#1171,#1172,
    #1173,#1174,#1175,#1176,#1177,#1178,#1179,#1180,#1181,#1182,#1183,
    #1184,#1185,#1186,#1187,#1188,#1189,#1190,#1191,#1192,#1193,#1194),
  .UNSPECIFIED.,.F.,.F.,(7,5,5,5,5,5,5,5,5,5,5,5,5,5,5,5,7),(0.,
    7.80446625703E-02,0.128981878115,0.19320263755,0.246886396737,
    0.292576385329,0.331634002329,0.364274259658,0.500002752357,
    0.635365597974,0.668941967623,0.707884188212,0.753370132975,
    0.806644107737,0.871350263878,0.920836971316,1.),.UNSPECIFIED.);
#1113 = CARTESIAN_POINT('',(0.,55.));
#1114 = CARTESIAN_POINT('',(5.040566798362E-02,55.));
#1115 = CARTESIAN_POINT('',(0.100717461727,55.021631348375));
#1116 = CARTESIAN_POINT('',(0.150732115411,55.06474322356));
#1117 = CARTESIAN_POINT('',(0.200246543388,55.128011682676));
#1118 = CARTESIAN_POINT('',(0.249038211938,55.208979718497));
#1119 = CARTESIAN_POINT('',(0.328044293591,55.366706641038));
#1120 = CARTESIAN_POINT('',(0.358862988728,55.435235418939));
#1121 = CARTESIAN_POINT('',(0.389298201733,55.509281565754));
#1122 = CARTESIAN_POINT('',(0.419345897871,55.588093463415));
#1123 = CARTESIAN_POINT('',(0.44899910061,55.67090827755));
#1124 = CARTESIAN_POINT('',(0.515123828938,55.865475333445));
#1125 = CARTESIAN_POINT('',(0.551366474114,55.979170543578));
#1126 = CARTESIAN_POINT('',(0.587013159959,56.096716737458));
#1127 = CARTESIAN_POINT('',(0.622097784166,56.216878611475));
#1128 = CARTESIAN_POINT('',(0.656651632667,56.338529633821));
#1129 = CARTESIAN_POINT('',(0.719169959685,56.562746609383));
#1130 = CARTESIAN_POINT('',(0.747291119899,56.665189507355));
#1131 = CARTESIAN_POINT('',(0.775092114277,56.767419752952));
#1132 = CARTESIAN_POINT('',(0.802595438881,56.868923617833));
#1133 = CARTESIAN_POINT('',(0.829823014027,56.969237123196));
#1134 = CARTESIAN_POINT('',(0.879755081083,57.151951910107));
#1135 = CARTESIAN_POINT('',(0.902529375237,57.234796184356));
#1136 = CARTESIAN_POINT('',(0.925133007425,57.316215170939));
#1137 = CARTESIAN_POINT('',(0.947578113791,57.395969038086));
#1138 = CARTESIAN_POINT('',(0.969876583635,57.473837902553));
#1139 = CARTESIAN_POINT('',(1.01098700205,57.614402508077));
#1140 = CARTESIAN_POINT('',(1.029835007802,57.677659167452));
#1141 = CARTESIAN_POINT('',(1.048591006738,57.739261975153));
#1142 = CARTESIAN_POINT('',(1.067261427474,57.799091238996));
#1143 = CARTESIAN_POINT('',(1.08585258709,57.857036095801));
#1144 = CARTESIAN_POINT('',(1.119846179079,57.9597586825));
#1145 = CARTESIAN_POINT('',(1.135270424642,58.005134754344));
#1146 = CARTESIAN_POINT('',(1.150646823156,58.049062335957));
#1147 = CARTESIAN_POINT('',(1.165978614438,58.09148469396));
#1148 = CARTESIAN_POINT('',(1.181268882785,58.132348752556));
#1149 = CARTESIAN_POINT('',(1.25994183235,58.334845350369));
#1150 = CARTESIAN_POINT('',(1.322721505392,58.470351397804));
#1151 = CARTESIAN_POINT('',(1.385035419872,58.574440151272));
#1152 = CARTESIAN_POINT('',(1.447046194986,58.644666211383));
#1153 = CARTESIAN_POINT('',(1.508912166315,58.679798820734));
#1154 = CARTESIAN_POINT('',(1.632513773844,58.679798820734));
#1155 = CARTESIAN_POINT('',(1.69421327902,58.644855244294));
#1156 = CARTESIAN_POINT('',(1.756056400977,58.575006637787));
#1157 = CARTESIAN_POINT('',(1.81820014682,58.471470744852));
#1158 = CARTESIAN_POINT('',(1.880805745641,58.336667107687));
#1159 = CARTESIAN_POINT('',(1.959734340384,58.133950003038));
#1160 = CARTESIAN_POINT('',(1.975461959494,58.091956730437));
#1161 = CARTESIAN_POINT('',(1.991233461959,58.048313509714));
#1162 = CARTESIAN_POINT('',(2.00705220454,58.003078096237));
#1163 = CARTESIAN_POINT('',(2.022921718184,57.956312341566));
#1164 = CARTESIAN_POINT('',(2.057314516035,57.852144369131));
#1165 = CARTESIAN_POINT('',(2.075856289701,57.79423783389));
#1166 = CARTESIAN_POINT('',(2.094477194177,57.734464050303));
#1167 = CARTESIAN_POINT('',(2.113183505146,57.672933221035));
#1168 = CARTESIAN_POINT('',(2.131981608816,57.609764288842));
#1169 = CARTESIAN_POINT('',(2.1729496835,57.469537076165));
#1170 = CARTESIAN_POINT('',(2.195155216229,57.391929607135));
#1171 = CARTESIAN_POINT('',(2.217506487745,57.312461583056));
#1172 = CARTESIAN_POINT('',(2.240015246133,57.231350404154));
#1173 = CARTESIAN_POINT('',(2.262693482181,57.148833102209));
#1174 = CARTESIAN_POINT('',(2.312328249782,56.967177080888));
#1175 = CARTESIAN_POINT('',(2.33935248255,56.867611510991));
#1176 = CARTESIAN_POINT('',(2.366648509,56.766878901358));
#1177 = CARTESIAN_POINT('',(2.394237762188,56.665432998252));
#1178 = CARTESIAN_POINT('',(2.42214223362,56.563775808482));
#1179 = CARTESIAN_POINT('',(2.484689768463,56.339402825477));
#1180 = CARTESIAN_POINT('',(2.519502425334,56.216818845264));
#1181 = CARTESIAN_POINT('',(2.554853837718,56.095743461166));
#1182 = CARTESIAN_POINT('',(2.590775939199,55.977329245246));
#1183 = CARTESIAN_POINT('',(2.627303376,55.862840726848));
#1184 = CARTESIAN_POINT('',(2.692902751307,55.670140255373));
#1185 = CARTESIAN_POINT('',(2.721712455005,55.5897148554));
#1186 = CARTESIAN_POINT('',(2.750894638928,55.513065527693));
#1187 = CARTESIAN_POINT('',(2.780443048804,55.440891085599));
#1188 = CARTESIAN_POINT('',(2.8103540424,55.373880872627));
#1189 = CARTESIAN_POINT('',(2.889052639508,55.214827747141));
#1190 = CARTESIAN_POINT('',(2.938504326757,55.13166787482));
#1191 = CARTESIAN_POINT('',(2.988706804511,55.0666142845));
#1192 = CARTESIAN_POINT('',(3.039429198036,55.022258680986));
#1193 = CARTESIAN_POINT('',(3.090461296403,55.));
#1194 = CARTESIAN_POINT('',(3.14159265359,55.));
#1195 = ( GEOMETRIC_REPRESENTATION_CONTEXT(2) 
PARAMETRIC_REPRESENTATION_CONTEXT() REPRESENTATION_CONTEXT('2D SPACE',''
  ) );
#1196 = ADVANCED_FACE('',(#1197),#797,.T.);
#1197 = FACE_BOUND('',#1198,.T.);
#1198 = EDGE_LOOP('',(#1199,#1200,#1223,#1250,#1251));
#1199 = ORIENTED_EDGE('',*,*,#939,.F.);
#1200 = ORIENTED_EDGE('',*,*,#1201,.F.);
#1201 = EDGE_CURVE('',#1202,#624,#1204,.T.);
#1202 = VERTEX_POINT('',#1203);
#1203 = CARTESIAN_POINT('',(106.15,4.665904304751E-15,20.95));
#1204 = SEAM_CURVE('',#1205,(#1209,#1216),.PCURVE_S1.);
#1205 = LINE('',#1206,#1207);
#1206 = CARTESIAN_POINT('',(106.15,4.665904304751E-15,20.95));
#1207 = VECTOR('',#1208,1.);
#1208 = DIRECTION('',(-1.,0.,0.));
#1209 = PCURVE('',#797,#1210);
#1210 = DEFINITIONAL_REPRESENTATION('',(#1211),#1215);
#1211 = LINE('',#1212,#1213);
#1212 = CARTESIAN_POINT('',(6.28318530718,-0.));
#1213 = VECTOR('',#1214,1.);
#1214 = DIRECTION('',(0.,1.));
#1215 = ( GEOMETRIC_REPRESENTATION_CONTEXT(2) 
PARAMETRIC_REPRESENTATION_CONTEXT() REPRESENTATION_CONTEXT('2D SPACE',''
  ) );
#1216 = PCURVE('',#797,#1217);
#1217 = DEFINITIONAL_REPRESENTATION('',(#1218),#1222);
#1218 = LINE('',#1219,#1220);
#1219 = CARTESIAN_POINT('',(0.,-0.));
#1220 = VECTOR('',#1221,1.);
#1221 = DIRECTION('',(0.,1.));
#1222 = ( GEOMETRIC_REPRESENTATION_CONTEXT(2) 
PARAMETRIC_REPRESENTATION_CONTEXT() REPRESENTATION_CONTEXT('2D SPACE',''
  ) );
#1223 = ORIENTED_EDGE('',*,*,#1224,.T.);
#1224 = EDGE_CURVE('',#1202,#1202,#1225,.T.);
#1225 = SURFACE_CURVE('',#1226,(#1231,#1238),.PCURVE_S1.);
#1226 = CIRCLE('',#1227,19.05);
#1227 = AXIS2_PLACEMENT_3D('',#1228,#1229,#1230);
#1228 = CARTESIAN_POINT('',(106.15,0.,40.));
#1229 = DIRECTION('',(-1.,0.,0.));
#1230 = DIRECTION('',(0.,0.,-1.));
#1231 = PCURVE('',#797,#1232);
#1232 = DEFINITIONAL_REPRESENTATION('',(#1233),#1237);
#1233 = LINE('',#1234,#1235);
#1234 = CARTESIAN_POINT('',(0.,0.));
#1235 = VECTOR('',#1236,1.);
#1236 = DIRECTION('',(1.,0.));
#1237 = ( GEOMETRIC_REPRESENTATION_CONTEXT(2) 
PARAMETRIC_REPRESENTATION_CONTEXT() REPRESENTATION_CONTEXT('2D SPACE',''
  ) );
#1238 = PCURVE('',#1239,#1244);
#1239 = PLANE('',#1240);
#1240 = AXIS2_PLACEMENT_3D('',#1241,#1242,#1243);
#1241 = CARTESIAN_POINT('',(106.15,0.,40.));
#1242 = DIRECTION('',(-1.,0.,0.));
#1243 = DIRECTION('',(0.,0.,-1.));
#1244 = DEFINITIONAL_REPRESENTATION('',(#1245),#1249);
#1245 = CIRCLE('',#1246,19.05);
#1246 = AXIS2_PLACEMENT_2D('',#1247,#1248);
#1247 = CARTESIAN_POINT('',(0.,0.));
#1248 = DIRECTION('',(1.,0.));
#1249 = ( GEOMETRIC_REPRESENTATION_CONTEXT(2) 
PARAMETRIC_REPRESENTATION_CONTEXT() REPRESENTATION_CONTEXT('2D SPACE',''
  ) );
#1250 = ORIENTED_EDGE('',*,*,#1201,.T.);
#1251 = ORIENTED_EDGE('',*,*,#623,.F.);
#1252 = ADVANCED_FACE('',(#1253),#926,.F.);
#1253 = FACE_BOUND('',#1254,.T.);
#1254 = EDGE_LOOP('',(#1255));
#1255 = ORIENTED_EDGE('',*,*,#911,.F.);
#1256 = ADVANCED_FACE('',(#1257),#1239,.F.);
#1257 = FACE_BOUND('',#1258,.T.);
#1258 = EDGE_LOOP('',(#1259));
#1259 = ORIENTED_EDGE('',*,*,#1224,.F.);
#1260 = ( GEOMETRIC_REPRESENTATION_CONTEXT(3) 
GLOBAL_UNCERTAINTY_ASSIGNED_CONTEXT((#1264)) 
GLOBAL_UNIT_ASSIGNED_CONTEXT((#1261,#1262,#1263)) REPRESENTATION_CONTEXT
('Context #1','3D Context with UNIT and UNCERTAINTY') );
#1261 = ( LENGTH_UNIT() NAMED_UNIT(*) SI_UNIT(.MILLI.,.METRE.) );
#1262 = ( NAMED_UNIT(*) PLANE_ANGLE_UNIT() SI_UNIT($,.RADIAN.) );
#1263 = ( NAMED_UNIT(*) SI_UNIT($,.STERADIAN.) SOLID_ANGLE_UNIT() );
#1264 = UNCERTAINTY_MEASURE_WITH_UNIT(LENGTH_MEASURE(1.E-07),#1261,
  'distance_accuracy_value','confusion accuracy');
#1265 = PRODUCT_RELATED_PRODUCT_CATEGORY('part',$,(#7));
ENDSEC;
END-ISO-10303-21;
