ISO-10303-21;
HEADER;
/* Generated by software containing ST-Developer
 * from STEP Tools, Inc. (www.steptools.com) 
 */

FILE_DESCRIPTION(
/* description */ (
'CAx-IF Rec.Pracs.---Representation and Presentation of Product Manufa
cturing Information (PMI)---4.0---2014-10-13',
'CAx-IF Rec.Pracs.---3D Tessellated Geometry---0.4---2014-09-14','2;1'),

/* implementation_level */ '2;1');

FILE_NAME(
/* name */ 'Injetor_1',
/* time_stamp */ '2026-07-01T19:29:47-03:00',
/* author */ (''),
/* organization */ ('Siemens PLM Software'),
/* preprocessor_version */ 'ST-DEVELOPER v20',
/* originating_system */ 'DEX',
/* authorisation */ $);

FILE_SCHEMA (('AP242_MANAGED_MODEL_BASED_3D_ENGINEERING_MIM_LF { 1 0 10303 442 1 1 4 }'));
ENDSEC;

DATA;
#10=SHAPE_REPRESENTATION_RELATIONSHIP('','',#71,#11);
#11=ADVANCED_BREP_SHAPE_REPRESENTATION('',(#69),#437);
#12=PLANE('',#74);
#13=PLANE('',#75);
#14=ORIENTED_EDGE('',*,*,#26,.T.);
#15=ORIENTED_EDGE('',*,*,#27,.T.);
#16=ORIENTED_EDGE('',*,*,#28,.F.);
#17=ORIENTED_EDGE('',*,*,#27,.F.);
#18=ORIENTED_EDGE('',*,*,#29,.T.);
#19=ORIENTED_EDGE('',*,*,#26,.F.);
#20=ORIENTED_EDGE('',*,*,#30,.T.);
#21=ORIENTED_EDGE('',*,*,#28,.T.);
#22=ORIENTED_EDGE('',*,*,#30,.F.);
#23=ORIENTED_EDGE('',*,*,#31,.T.);
#24=ORIENTED_EDGE('',*,*,#29,.F.);
#25=ORIENTED_EDGE('',*,*,#31,.F.);
#26=EDGE_CURVE('',#32,#32,#36,.F.);
#27=EDGE_CURVE('',#32,#33,#37,.T.);
#28=EDGE_CURVE('',#33,#33,#38,.T.);
#29=EDGE_CURVE('',#34,#34,#39,.T.);
#30=EDGE_CURVE('',#35,#35,#40,.T.);
#31=EDGE_CURVE('',#35,#34,#41,.T.);
#32=VERTEX_POINT('',#172);
#33=VERTEX_POINT('',#177);
#34=VERTEX_POINT('',#345);
#35=VERTEX_POINT('',#430);
#36=B_SPLINE_CURVE_WITH_KNOTS('',3,(#89,#90,#91,#92,#93,#94,#95,#96,#97,
#98,#99,#100,#101,#102,#103,#104,#105,#106,#107,#108,#109,#110,#111,#112,
#113,#114,#115,#116,#117,#118,#119,#120,#121,#122,#123,#124,#125,#126,#127,
#128,#129,#130,#131,#132,#133,#134,#135,#136,#137,#138,#139,#140,#141,#142,
#143,#144,#145,#146,#147,#148,#149,#150,#151,#152,#153,#154,#155,#156,#157,
#158,#159,#160,#161,#162,#163,#164,#165,#166,#167,#168,#169,#170,#171),
 .UNSPECIFIED.,.T.,.F.,(1,1,1,1,1,1,1,1,1,1,1,1,1,1,1,1,1,1,1,1,1,1,1,1,
1,1,1,1,1,1,1,1,1,1,1,1,1,1,1,1,1,1,1,1,1,1,1,1,1,1,1,1,1,1,1,1,1,1,1,1,
1,1,1,1,1,1,1,1,1,1,1,1,1,1,1,1,1,1,1,1,1,1,1,1,1,1,1),(-0.372778835624842,
-0.186389417812421,-0.0931947089062106,0.,0.0931947089062101,0.18638941781242,
0.37277883562484,0.55916825343726,0.745557671249681,1.11833650687452,1.49111534249936,
1.8638941781242,2.23667301374904,2.98223068499872,3.7277883562484,4.10056719187324,
4.47334602749808,4.84612486312292,5.21890369874776,5.40529311656018,5.5916825343726,
5.77807195218502,5.87126666109123,5.96446136999744,6.05765607890365,6.15085078780986,
6.33724020562228,6.5236296234347,6.71001904124712,7.08279787687196,7.45557671249681,
7.82835554812165,8.20113438374648,8.94669205499617,9.69224972624585,10.0650285618707,
10.4378073974955,10.8105862331204,11.1833650687452,11.3697544865576,11.55614390437,
11.7425333221825,11.8357280310887,11.9289227399949,12.0221174489011,12.1153121578073,
12.3017015756197,12.4880909934321,12.6744804112446,13.0472592468694,13.4200380824942,
13.7928169181191,14.1655957537439,14.9111534249936,15.6567110962433,16.0294899318681,
16.402268767493,16.7750476031178,17.1478264387427,17.3342158565551,17.5206052743675,
17.7069946921799,17.8001894010861,17.8933841099923,17.9865788188985,18.0797735278048,
18.2661629456172,18.4525523634296,18.638941781242,19.0117206168669,19.3844994524917,
19.7572782881165,20.1300571237414,20.8756147949911,21.6211724662407,21.9939513018656,
22.3667301374904,22.7395089731153,23.1122878087401,23.2986772265525,23.4850666443649,
23.6714560621774,23.7646507710836,23.8578454799898,23.951040188896,24.0442348978022,
24.2306243156146),.UNSPECIFIED.);
#37=B_SPLINE_CURVE_WITH_KNOTS('',3,(#173,#174,#175,#176),.UNSPECIFIED.,
 .F.,.F.,(4,4),(0.,1.),.UNSPECIFIED.);
#38=B_SPLINE_CURVE_WITH_KNOTS('',3,(#178,#179,#180,#181,#182,#183,#184,
#185,#186,#187,#188,#189,#190,#191,#192,#193,#194,#195,#196,#197,#198,#199,
#200,#201,#202,#203,#204,#205,#206,#207,#208,#209,#210,#211,#212,#213,#214,
#215,#216,#217,#218,#219,#220,#221,#222,#223,#224,#225,#226,#227,#228,#229,
#230,#231,#232,#233,#234,#235,#236,#237,#238,#239,#240,#241,#242,#243,#244,
#245,#246,#247,#248,#249,#250,#251,#252,#253,#254,#255,#256,#257,#258,#259,
#260),.UNSPECIFIED.,.T.,.F.,(1,1,1,1,1,1,1,1,1,1,1,1,1,1,1,1,1,1,1,1,1,
1,1,1,1,1,1,1,1,1,1,1,1,1,1,1,1,1,1,1,1,1,1,1,1,1,1,1,1,1,1,1,1,1,1,1,1,
1,1,1,1,1,1,1,1,1,1,1,1,1,1,1,1,1,1,1,1,1,1,1,1,1,1,1,1,1,1),(-0.372778835624842,
-0.186389417812421,-0.0931947089062106,0.,0.0931947089062101,0.18638941781242,
0.37277883562484,0.55916825343726,0.745557671249681,1.11833650687452,1.49111534249936,
1.8638941781242,2.23667301374904,2.98223068499872,3.7277883562484,4.10056719187324,
4.47334602749808,4.84612486312292,5.21890369874776,5.40529311656018,5.5916825343726,
5.77807195218502,5.87126666109123,5.96446136999744,6.05765607890365,6.15085078780986,
6.33724020562228,6.5236296234347,6.71001904124712,7.08279787687196,7.45557671249681,
7.82835554812165,8.20113438374648,8.94669205499617,9.69224972624585,10.0650285618707,
10.4378073974955,10.8105862331204,11.1833650687452,11.3697544865576,11.55614390437,
11.7425333221825,11.8357280310887,11.9289227399949,12.0221174489011,12.1153121578073,
12.3017015756197,12.4880909934321,12.6744804112446,13.0472592468694,13.4200380824942,
13.7928169181191,14.1655957537439,14.9111534249936,15.6567110962433,16.0294899318681,
16.402268767493,16.7750476031178,17.1478264387427,17.3342158565551,17.5206052743675,
17.7069946921799,17.8001894010861,17.8933841099923,17.9865788188985,18.0797735278048,
18.2661629456172,18.4525523634296,18.638941781242,19.0117206168669,19.3844994524917,
19.7572782881165,20.1300571237414,20.8756147949911,21.6211724662407,21.9939513018656,
22.3667301374904,22.7395089731153,23.1122878087401,23.2986772265525,23.4850666443649,
23.6714560621774,23.7646507710836,23.8578454799898,23.951040188896,24.0442348978022,
24.2306243156146),.UNSPECIFIED.);
#39=B_SPLINE_CURVE_WITH_KNOTS('',3,(#262,#263,#264,#265,#266,#267,#268,
#269,#270,#271,#272,#273,#274,#275,#276,#277,#278,#279,#280,#281,#282,#283,
#284,#285,#286,#287,#288,#289,#290,#291,#292,#293,#294,#295,#296,#297,#298,
#299,#300,#301,#302,#303,#304,#305,#306,#307,#308,#309,#310,#311,#312,#313,
#314,#315,#316,#317,#318,#319,#320,#321,#322,#323,#324,#325,#326,#327,#328,
#329,#330,#331,#332,#333,#334,#335,#336,#337,#338,#339,#340,#341,#342,#343,
#344),.UNSPECIFIED.,.T.,.F.,(1,1,1,1,1,1,1,1,1,1,1,1,1,1,1,1,1,1,1,1,1,
1,1,1,1,1,1,1,1,1,1,1,1,1,1,1,1,1,1,1,1,1,1,1,1,1,1,1,1,1,1,1,1,1,1,1,1,
1,1,1,1,1,1,1,1,1,1,1,1,1,1,1,1,1,1,1,1,1,1,1,1,1,1,1,1,1,1),(-0.310979758692294,
-0.155489879346145,-0.0777449396730709,0.,0.0777449396730735,0.155489879346147,
0.310979758692294,0.466469638038441,0.621959517384588,0.932939276076882,
1.24391903476918,1.55489879346147,1.86587855215376,2.48783806953835,3.10979758692294,
3.42077734561523,3.73175710430753,4.04273686299982,4.35371662169212,4.50920650103826,
4.66469638038441,4.82018625973056,4.89793119940363,4.9756761390767,5.05342107874978,
5.13116601842285,5.286655897769,5.44214577711514,5.59763565646129,5.90861541515358,
6.21959517384588,6.53057493253817,6.84155469123047,7.46351420861505,8.08547372599964,
8.39645348469194,8.70743324338423,9.01841300207652,9.32939276076882,9.48488264011497,
9.64037251946111,9.79586239880726,9.87360733848033,9.95135227815341,10.0290972178265,
10.1068421574996,10.2623320368457,10.4178219161918,10.573311795538,10.8842915542303,
11.1952713129226,11.5062510716149,11.8172308303072,12.4391903476918,13.0611498650763,
13.3721296237686,13.6831093824609,13.9940891411532,14.3050688998455,14.4605587791917,
14.6160486585378,14.771538537884,14.849283477557,14.9270284172301,15.0047733569032,
15.0825182965763,15.2380081759224,15.3934980552685,15.5489879346147,15.859967693307,
16.1709474519993,16.4819272106916,16.7929069693839,17.4148664867685,18.036826004153,
18.3478057628453,18.6587855215376,18.9697652802299,19.2807450389222,19.4362349182684,
19.5917247976145,19.7472146769607,19.8249596166337,19.9027045563068,19.9804494959799,
20.058194435653,20.2136843149991),.UNSPECIFIED.);
#40=B_SPLINE_CURVE_WITH_KNOTS('',3,(#347,#348,#349,#350,#351,#352,#353,
#354,#355,#356,#357,#358,#359,#360,#361,#362,#363,#364,#365,#366,#367,#368,
#369,#370,#371,#372,#373,#374,#375,#376,#377,#378,#379,#380,#381,#382,#383,
#384,#385,#386,#387,#388,#389,#390,#391,#392,#393,#394,#395,#396,#397,#398,
#399,#400,#401,#402,#403,#404,#405,#406,#407,#408,#409,#410,#411,#412,#413,
#414,#415,#416,#417,#418,#419,#420,#421,#422,#423,#424,#425,#426,#427,#428,
#429),.UNSPECIFIED.,.T.,.F.,(1,1,1,1,1,1,1,1,1,1,1,1,1,1,1,1,1,1,1,1,1,
1,1,1,1,1,1,1,1,1,1,1,1,1,1,1,1,1,1,1,1,1,1,1,1,1,1,1,1,1,1,1,1,1,1,1,1,
1,1,1,1,1,1,1,1,1,1,1,1,1,1,1,1,1,1,1,1,1,1,1,1,1,1,1,1,1,1),(-0.310979758692294,
-0.155489879346149,-0.0777449396730745,0.,0.0777449396730735,0.155489879346147,
0.310979758692294,0.466469638038441,0.621959517384588,0.932939276076882,
1.24391903476918,1.55489879346147,1.86587855215376,2.48783806953835,3.10979758692294,
3.42077734561523,3.73175710430753,4.04273686299982,4.35371662169211,4.50920650103826,
4.66469638038441,4.82018625973055,4.89793119940363,4.9756761390767,5.05342107874978,
5.13116601842285,5.286655897769,5.44214577711514,5.59763565646129,5.90861541515358,
6.21959517384588,6.53057493253817,6.84155469123047,7.46351420861505,8.08547372599964,
8.39645348469194,8.70743324338423,9.01841300207652,9.32939276076882,9.48488264011496,
9.64037251946111,9.79586239880726,9.87360733848033,9.9513522781534,10.0290972178265,
10.1068421574996,10.2623320368457,10.4178219161918,10.573311795538,10.8842915542303,
11.1952713129226,11.5062510716149,11.8172308303072,12.4391903476918,13.0611498650763,
13.3721296237686,13.6831093824609,13.9940891411532,14.3050688998455,14.4605587791917,
14.6160486585378,14.771538537884,14.849283477557,14.9270284172301,15.0047733569032,
15.0825182965763,15.2380081759224,15.3934980552685,15.5489879346147,15.859967693307,
16.1709474519993,16.4819272106916,16.7929069693839,17.4148664867685,18.036826004153,
18.3478057628453,18.6587855215376,18.9697652802299,19.2807450389222,19.4362349182684,
19.5917247976145,19.7472146769607,19.8249596166337,19.9027045563068,19.9804494959799,
20.058194435653,20.2136843149991),.UNSPECIFIED.);
#41=B_SPLINE_CURVE_WITH_KNOTS('',3,(#432,#433,#434,#435),.UNSPECIFIED.,
 .F.,.F.,(4,4),(0.,1.),.UNSPECIFIED.);
#42=EDGE_LOOP('',(#14,#15,#16,#17));
#43=EDGE_LOOP('',(#18));
#44=EDGE_LOOP('',(#19));
#45=EDGE_LOOP('',(#20));
#46=EDGE_LOOP('',(#21));
#47=EDGE_LOOP('',(#22,#23,#24,#25));
#48=FACE_BOUND('',#42,.T.);
#49=FACE_BOUND('',#43,.T.);
#50=FACE_BOUND('',#44,.T.);
#51=FACE_BOUND('',#45,.T.);
#52=FACE_BOUND('',#46,.T.);
#53=FACE_BOUND('',#47,.T.);
#54=CYLINDRICAL_SURFACE('',#73,0.424192700000078);
#55=CYLINDRICAL_SURFACE('',#76,0.353870260000034);
#56=ADVANCED_FACE('',(#48),#54,.T.);
#57=ADVANCED_FACE('',(#49,#50),#12,.T.);
#58=ADVANCED_FACE('',(#51,#52),#13,.T.);
#59=ADVANCED_FACE('',(#53),#55,.F.);
#60=CLOSED_SHELL('',(#56,#57,#58,#59));
#61=STYLED_ITEM('',(#62),#69);
#62=PRESENTATION_STYLE_ASSIGNMENT((#63));
#63=SURFACE_STYLE_USAGE(.BOTH.,#64);
#64=SURFACE_SIDE_STYLE('',(#65));
#65=SURFACE_STYLE_FILL_AREA(#66);
#66=FILL_AREA_STYLE('',(#67));
#67=FILL_AREA_STYLE_COLOUR('',#68);
#68=COLOUR_RGB('',0.650980392156863,0.,0.650980392156863);
#69=MANIFOLD_SOLID_BREP('Injetor 1',#60);
#70=SHAPE_DEFINITION_REPRESENTATION(#442,#71);
#71=SHAPE_REPRESENTATION('Injetor 1',(#72),#437);
#72=AXIS2_PLACEMENT_3D('',#87,#77,#78);
#73=AXIS2_PLACEMENT_3D('',#88,#79,#80);
#74=AXIS2_PLACEMENT_3D('',#261,#81,#82);
#75=AXIS2_PLACEMENT_3D('',#346,#83,#84);
#76=AXIS2_PLACEMENT_3D('',#431,#85,#86);
#77=DIRECTION('',(0.,0.,1.));
#78=DIRECTION('',(1.,0.,0.));
#79=DIRECTION('',(2.28815683891467E-14,-6.13109777142606E-15,1.));
#80=DIRECTION('',(1.,0.,-2.28815683891467E-14));
#81=DIRECTION('',(0.,0.,-1.));
#82=DIRECTION('',(0.500000000000006,-0.866025403784435,0.));
#83=DIRECTION('',(0.,0.,1.));
#84=DIRECTION('',(-0.500000000000006,0.866025403784435,0.));
#85=DIRECTION('',(0.,0.,-1.));
#86=DIRECTION('',(-1.,0.,0.));
#87=CARTESIAN_POINT('',(0.,0.,0.));
#88=CARTESIAN_POINT('',(4.63964543073499,-2.87864215454719,-52.464589));
#89=CARTESIAN_POINT('',(4.27704271604795,-3.09884313502368,-52.464589));
#90=CARTESIAN_POINT('',(4.27225387805042,-3.09075576638767,-52.464589));
#91=CARTESIAN_POINT('',(4.26764443036063,-3.08256482670919,-52.464589));
#92=CARTESIAN_POINT('',(4.26167586608759,-3.0713834705828,-52.464589));
#93=CARTESIAN_POINT('',(4.2546005213432,-3.05698314429084,-52.464589));
#94=CARTESIAN_POINT('',(4.24677891712722,-3.03903276985363,-52.464589));
#95=CARTESIAN_POINT('',(4.2373279928696,-3.0142564420708,-52.464589));
#96=CARTESIAN_POINT('',(4.22749914843741,-2.98179896461857,-52.464589));
#97=CARTESIAN_POINT('',(4.21933524032604,-2.94086892880102,-52.464589));
#98=CARTESIAN_POINT('',(4.21519179799197,-2.89846318836718,-52.464589));
#99=CARTESIAN_POINT('',(4.21540675816486,-2.84075052333013,-52.464589));
#100=CARTESIAN_POINT('',(4.22694294227688,-2.76805885605055,-52.464589));
#101=CARTESIAN_POINT('',(4.25329814741291,-2.69933793348698,-52.464589));
#102=CARTESIAN_POINT('',(4.28196831896089,-2.64924981935834,-52.464589));
#103=CARTESIAN_POINT('',(4.30675951549822,-2.61459709204338,-52.464589));
#104=CARTESIAN_POINT('',(4.3342946852256,-2.58323259530325,-52.464589));
#105=CARTESIAN_POINT('',(4.35903545291983,-2.56003801750295,-52.464589));
#106=CARTESIAN_POINT('',(4.37960835730758,-2.54330655035934,-52.464589));
#107=CARTESIAN_POINT('',(4.39535725247557,-2.53167187219726,-52.464589));
#108=CARTESIAN_POINT('',(4.40868484391072,-2.52273849617782,-52.464589));
#109=CARTESIAN_POINT('',(4.41944445025848,-2.51603943986013,-52.464589));
#110=CARTESIAN_POINT('',(4.42753181889449,-2.5112506018626,-52.464589));
#111=CARTESIAN_POINT('',(4.43572275857297,-2.50664115417281,-52.464589));
#112=CARTESIAN_POINT('',(4.44690411469936,-2.50067258989977,-52.464589));
#113=CARTESIAN_POINT('',(4.46130444099132,-2.49359724515538,-52.464589));
#114=CARTESIAN_POINT('',(4.47925481542853,-2.4857756409394,-52.464589));
#115=CARTESIAN_POINT('',(4.50403114321135,-2.47632471668178,-52.464589));
#116=CARTESIAN_POINT('',(4.53648862066359,-2.46649587224959,-52.464589));
#117=CARTESIAN_POINT('',(4.57741865648114,-2.45833196413822,-52.464589));
#118=CARTESIAN_POINT('',(4.61982439691498,-2.45418852180415,-52.464589));
#119=CARTESIAN_POINT('',(4.67753706195202,-2.45440348197704,-52.464589));
#120=CARTESIAN_POINT('',(4.75022872923161,-2.46593966608906,-52.464589));
#121=CARTESIAN_POINT('',(4.81894965179518,-2.4922948712251,-52.464589));
#122=CARTESIAN_POINT('',(4.86903776592382,-2.52096504277308,-52.464589));
#123=CARTESIAN_POINT('',(4.90369049323878,-2.54575623931041,-52.464589));
#124=CARTESIAN_POINT('',(4.93505498997891,-2.57329140903779,-52.464589));
#125=CARTESIAN_POINT('',(4.95824956777921,-2.59803217673203,-52.464589));
#126=CARTESIAN_POINT('',(4.97498103492282,-2.61860508111978,-52.464589));
#127=CARTESIAN_POINT('',(4.9866157130849,-2.63435397628776,-52.464589));
#128=CARTESIAN_POINT('',(4.99554908910434,-2.64768156772291,-52.464589));
#129=CARTESIAN_POINT('',(5.00224814542203,-2.65844117407068,-52.464589));
#130=CARTESIAN_POINT('',(5.00703698341957,-2.66652854270669,-52.464589));
#131=CARTESIAN_POINT('',(5.01164643110936,-2.67471948238517,-52.464589));
#132=CARTESIAN_POINT('',(5.0176149953824,-2.68590083851156,-52.464589));
#133=CARTESIAN_POINT('',(5.02469034012679,-2.70030116480352,-52.464589));
#134=CARTESIAN_POINT('',(5.03251194434276,-2.71825153924072,-52.464589));
#135=CARTESIAN_POINT('',(5.04196286860038,-2.74302786702355,-52.464589));
#136=CARTESIAN_POINT('',(5.05179171303257,-2.77548534447578,-52.464589));
#137=CARTESIAN_POINT('',(5.05995562114394,-2.81641538029333,-52.464589));
#138=CARTESIAN_POINT('',(5.06409906347801,-2.85882112072717,-52.464589));
#139=CARTESIAN_POINT('',(5.06388410330512,-2.91653378576421,-52.464589));
#140=CARTESIAN_POINT('',(5.0523479191931,-2.98922545304378,-52.464589));
#141=CARTESIAN_POINT('',(5.02599271405707,-3.05794637560736,-52.464589));
#142=CARTESIAN_POINT('',(4.99732254250908,-3.10803448973599,-52.464589));
#143=CARTESIAN_POINT('',(4.97253134597175,-3.14268721705096,-52.464589));
#144=CARTESIAN_POINT('',(4.94499617624437,-3.17405171379109,-52.464589));
#145=CARTESIAN_POINT('',(4.92025540855014,-3.19724629159139,-52.464589));
#146=CARTESIAN_POINT('',(4.89968250416238,-3.213977758735,-52.464589));
#147=CARTESIAN_POINT('',(4.8839336089944,-3.22561243689708,-52.464589));
#148=CARTESIAN_POINT('',(4.87060601755925,-3.23454581291651,-52.464589));
#149=CARTESIAN_POINT('',(4.85984641121148,-3.2412448692342,-52.464589));
#150=CARTESIAN_POINT('',(4.85175904257546,-3.24603370723174,-52.464589));
#151=CARTESIAN_POINT('',(4.843568102897,-3.25064315492153,-52.464589));
#152=CARTESIAN_POINT('',(4.8323867467706,-3.25661171919457,-52.464589));
#153=CARTESIAN_POINT('',(4.81798642047864,-3.26368706393896,-52.464589));
#154=CARTESIAN_POINT('',(4.80003604604144,-3.27150866815493,-52.464589));
#155=CARTESIAN_POINT('',(4.77525971825861,-3.28095959241255,-52.464589));
#156=CARTESIAN_POINT('',(4.74280224080638,-3.29078843684475,-52.464589));
#157=CARTESIAN_POINT('',(4.70187220498883,-3.29895234495612,-52.464589));
#158=CARTESIAN_POINT('',(4.65946646455499,-3.30309578729019,-52.464589));
#159=CARTESIAN_POINT('',(4.60175379951795,-3.3028808271173,-52.464589));
#160=CARTESIAN_POINT('',(4.52906213223838,-3.29134464300528,-52.464589));
#161=CARTESIAN_POINT('',(4.4603412096748,-3.26498943786925,-52.464589));
#162=CARTESIAN_POINT('',(4.41025309554617,-3.23631926632127,-52.464589));
#163=CARTESIAN_POINT('',(4.3756003682312,-3.21152806978394,-52.464589));
#164=CARTESIAN_POINT('',(4.34423587149107,-3.18399290005656,-52.464589));
#165=CARTESIAN_POINT('',(4.32104129369077,-3.15925213236233,-52.464589));
#166=CARTESIAN_POINT('',(4.30430982654716,-3.13867922797458,-52.464589));
#167=CARTESIAN_POINT('',(4.29267514838508,-3.1229303328066,-52.464589));
#168=CARTESIAN_POINT('',(4.28374177236565,-3.10960274137144,-52.464589));
#169=CARTESIAN_POINT('',(4.27704271604795,-3.09884313502368,-52.464589));
#170=CARTESIAN_POINT('',(4.27225387805042,-3.09075576638767,-52.464589));
#171=CARTESIAN_POINT('',(4.26764443036063,-3.08256482670919,-52.464589));
#172=CARTESIAN_POINT('',(4.27228377643504,-3.09073850454726,-52.464589));
#173=CARTESIAN_POINT('',(4.27228377643503,-3.09073850454726,-52.464589));
#174=CARTESIAN_POINT('',(4.27228377643538,-3.09073850454706,-28.7579223333334));
#175=CARTESIAN_POINT('',(4.27228377643572,-3.09073850454686,-5.05125566666671));
#176=CARTESIAN_POINT('',(4.27228377643606,-3.09073850454667,18.6554109999999));
#177=CARTESIAN_POINT('',(4.27228377643504,-3.09073850454726,18.6554109999999));
#178=CARTESIAN_POINT('',(4.26764443036063,-3.08256482670919,18.6554109999999));
#179=CARTESIAN_POINT('',(4.27225387805042,-3.09075576638767,18.6554109999999));
#180=CARTESIAN_POINT('',(4.27704271604795,-3.09884313502368,18.6554109999999));
#181=CARTESIAN_POINT('',(4.28374177236565,-3.10960274137144,18.6554109999999));
#182=CARTESIAN_POINT('',(4.29267514838508,-3.1229303328066,18.6554109999999));
#183=CARTESIAN_POINT('',(4.30430982654716,-3.13867922797458,18.6554109999999));
#184=CARTESIAN_POINT('',(4.32104129369077,-3.15925213236233,18.6554109999999));
#185=CARTESIAN_POINT('',(4.34423587149107,-3.18399290005656,18.6554109999999));
#186=CARTESIAN_POINT('',(4.3756003682312,-3.21152806978394,18.6554109999999));
#187=CARTESIAN_POINT('',(4.41025309554617,-3.23631926632127,18.6554109999999));
#188=CARTESIAN_POINT('',(4.4603412096748,-3.26498943786925,18.6554109999999));
#189=CARTESIAN_POINT('',(4.52906213223837,-3.29134464300528,18.6554109999999));
#190=CARTESIAN_POINT('',(4.60175379951795,-3.3028808271173,18.6554109999999));
#191=CARTESIAN_POINT('',(4.65946646455499,-3.30309578729019,18.6554109999999));
#192=CARTESIAN_POINT('',(4.70187220498883,-3.29895234495612,18.6554109999999));
#193=CARTESIAN_POINT('',(4.74280224080638,-3.29078843684475,18.6554109999999));
#194=CARTESIAN_POINT('',(4.77525971825861,-3.28095959241255,18.6554109999999));
#195=CARTESIAN_POINT('',(4.80003604604144,-3.27150866815493,18.6554109999999));
#196=CARTESIAN_POINT('',(4.81798642047864,-3.26368706393896,18.6554109999999));
#197=CARTESIAN_POINT('',(4.8323867467706,-3.25661171919457,18.6554109999999));
#198=CARTESIAN_POINT('',(4.84356810289699,-3.25064315492153,18.6554109999999));
#199=CARTESIAN_POINT('',(4.85175904257547,-3.24603370723174,18.6554109999999));
#200=CARTESIAN_POINT('',(4.85984641121148,-3.24124486923421,18.6554109999999));
#201=CARTESIAN_POINT('',(4.87060601755925,-3.23454581291651,18.6554109999999));
#202=CARTESIAN_POINT('',(4.8839336089944,-3.22561243689708,18.6554109999999));
#203=CARTESIAN_POINT('',(4.89968250416238,-3.213977758735,18.6554109999999));
#204=CARTESIAN_POINT('',(4.92025540855014,-3.19724629159139,18.6554109999999));
#205=CARTESIAN_POINT('',(4.94499617624437,-3.17405171379109,18.6554109999999));
#206=CARTESIAN_POINT('',(4.97253134597175,-3.14268721705096,18.6554109999999));
#207=CARTESIAN_POINT('',(4.99732254250908,-3.10803448973599,18.6554109999999));
#208=CARTESIAN_POINT('',(5.02599271405706,-3.05794637560736,18.6554109999999));
#209=CARTESIAN_POINT('',(5.0523479191931,-2.98922545304378,18.6554109999999));
#210=CARTESIAN_POINT('',(5.06388410330512,-2.91653378576421,18.6554109999999));
#211=CARTESIAN_POINT('',(5.06409906347801,-2.85882112072717,18.6554109999999));
#212=CARTESIAN_POINT('',(5.05995562114394,-2.81641538029333,18.6554109999999));
#213=CARTESIAN_POINT('',(5.05179171303258,-2.77548534447578,18.6554109999999));
#214=CARTESIAN_POINT('',(5.04196286860038,-2.74302786702355,18.6554109999999));
#215=CARTESIAN_POINT('',(5.03251194434276,-2.71825153924073,18.6554109999999));
#216=CARTESIAN_POINT('',(5.02469034012678,-2.70030116480352,18.6554109999999));
#217=CARTESIAN_POINT('',(5.0176149953824,-2.68590083851155,18.6554109999999));
#218=CARTESIAN_POINT('',(5.01164643110936,-2.67471948238517,18.6554109999999));
#219=CARTESIAN_POINT('',(5.00703698341957,-2.66652854270669,18.6554109999999));
#220=CARTESIAN_POINT('',(5.00224814542203,-2.65844117407068,18.6554109999999));
#221=CARTESIAN_POINT('',(4.99554908910434,-2.64768156772291,18.6554109999999));
#222=CARTESIAN_POINT('',(4.9866157130849,-2.63435397628776,18.6554109999999));
#223=CARTESIAN_POINT('',(4.97498103492282,-2.61860508111978,18.6554109999999));
#224=CARTESIAN_POINT('',(4.95824956777921,-2.59803217673203,18.6554109999999));
#225=CARTESIAN_POINT('',(4.93505498997891,-2.57329140903779,18.6554109999999));
#226=CARTESIAN_POINT('',(4.90369049323878,-2.54575623931041,18.6554109999999));
#227=CARTESIAN_POINT('',(4.86903776592382,-2.52096504277308,18.6554109999999));
#228=CARTESIAN_POINT('',(4.81894965179518,-2.49229487122509,18.6554109999999));
#229=CARTESIAN_POINT('',(4.75022872923161,-2.46593966608906,18.6554109999999));
#230=CARTESIAN_POINT('',(4.67753706195203,-2.45440348197704,18.6554109999999));
#231=CARTESIAN_POINT('',(4.61982439691498,-2.45418852180415,18.6554109999999));
#232=CARTESIAN_POINT('',(4.57741865648114,-2.45833196413822,18.6554109999999));
#233=CARTESIAN_POINT('',(4.53648862066359,-2.46649587224959,18.6554109999999));
#234=CARTESIAN_POINT('',(4.50403114321136,-2.47632471668178,18.6554109999999));
#235=CARTESIAN_POINT('',(4.47925481542853,-2.4857756409394,18.6554109999999));
#236=CARTESIAN_POINT('',(4.46130444099132,-2.49359724515538,18.6554109999999));
#237=CARTESIAN_POINT('',(4.44690411469936,-2.50067258989977,18.6554109999999));
#238=CARTESIAN_POINT('',(4.43572275857297,-2.5066411541728,18.6554109999999));
#239=CARTESIAN_POINT('',(4.42753181889449,-2.5112506018626,18.6554109999999));
#240=CARTESIAN_POINT('',(4.41944445025849,-2.51603943986013,18.6554109999999));
#241=CARTESIAN_POINT('',(4.40868484391071,-2.52273849617783,18.6554109999999));
#242=CARTESIAN_POINT('',(4.39535725247556,-2.53167187219726,18.6554109999999));
#243=CARTESIAN_POINT('',(4.37960835730758,-2.54330655035934,18.6554109999999));
#244=CARTESIAN_POINT('',(4.35903545291983,-2.56003801750295,18.6554109999999));
#245=CARTESIAN_POINT('',(4.3342946852256,-2.58323259530325,18.6554109999999));
#246=CARTESIAN_POINT('',(4.30675951549822,-2.61459709204338,18.6554109999999));
#247=CARTESIAN_POINT('',(4.28196831896089,-2.64924981935834,18.6554109999999));
#248=CARTESIAN_POINT('',(4.25329814741291,-2.69933793348698,18.6554109999999));
#249=CARTESIAN_POINT('',(4.22694294227688,-2.76805885605055,18.6554109999999));
#250=CARTESIAN_POINT('',(4.21540675816486,-2.84075052333014,18.6554109999999));
#251=CARTESIAN_POINT('',(4.21519179799197,-2.89846318836718,18.6554109999999));
#252=CARTESIAN_POINT('',(4.21933524032604,-2.94086892880102,18.6554109999999));
#253=CARTESIAN_POINT('',(4.22749914843741,-2.98179896461857,18.6554109999999));
#254=CARTESIAN_POINT('',(4.23732799286961,-3.0142564420708,18.6554109999999));
#255=CARTESIAN_POINT('',(4.24677891712722,-3.03903276985363,18.6554109999999));
#256=CARTESIAN_POINT('',(4.2546005213432,-3.05698314429084,18.6554109999999));
#257=CARTESIAN_POINT('',(4.26167586608759,-3.0713834705828,18.6554109999999));
#258=CARTESIAN_POINT('',(4.26764443036063,-3.08256482670919,18.6554109999999));
#259=CARTESIAN_POINT('',(4.27225387805042,-3.09075576638767,18.6554109999999));
#260=CARTESIAN_POINT('',(4.27704271604795,-3.09884313502368,18.6554109999999));
#261=CARTESIAN_POINT('',(4.79500370548735,-2.29883717979442,-52.464589));
#262=CARTESIAN_POINT('',(4.32931455817932,-3.04875863467004,-52.464589));
#263=CARTESIAN_POINT('',(4.3331598540848,-3.05559168472882,-52.464589));
#264=CARTESIAN_POINT('',(4.3371548010683,-3.06233833369744,-52.464589));
#265=CARTESIAN_POINT('',(4.3427432913957,-3.07131421823244,-52.464589));
#266=CARTESIAN_POINT('',(4.35019569709405,-3.08243236865402,-52.464589));
#267=CARTESIAN_POINT('',(4.3599015845038,-3.09557042036452,-52.464589));
#268=CARTESIAN_POINT('',(4.37385931793084,-3.11273275961425,-52.464589));
#269=CARTESIAN_POINT('',(4.39320871097034,-3.13337201601015,-52.464589));
#270=CARTESIAN_POINT('',(4.41937361813682,-3.15634241995765,-52.464589));
#271=CARTESIAN_POINT('',(4.44828163476382,-3.17702374512987,-52.464589));
#272=CARTESIAN_POINT('',(4.49006616799505,-3.20094099090032,-52.464589));
#273=CARTESIAN_POINT('',(4.54739457259745,-3.22292704415829,-52.464589));
#274=CARTESIAN_POINT('',(4.60803545397054,-3.23255076580915,-52.464589));
#275=CARTESIAN_POINT('',(4.65618054411927,-3.23273008999901,-52.464589));
#276=CARTESIAN_POINT('',(4.69155628347737,-3.22927354532945,-52.464589));
#277=CARTESIAN_POINT('',(4.72570095974493,-3.22246304555897,-52.464589));
#278=CARTESIAN_POINT('',(4.75277765386288,-3.21426362172466,-52.464589));
#279=CARTESIAN_POINT('',(4.7734465752148,-3.20637946665955,-52.464589));
#280=CARTESIAN_POINT('',(4.78842114613316,-3.1998545238269,-52.464589));
#281=CARTESIAN_POINT('',(4.80043419399802,-3.19395212596789,-52.464589));
#282=CARTESIAN_POINT('',(4.80976191085784,-3.18897302710284,-52.464589));
#283=CARTESIAN_POINT('',(4.81659496091662,-3.18512773119736,-52.464589));
#284=CARTESIAN_POINT('',(4.82334160988524,-3.18113278421386,-52.464589));
#285=CARTESIAN_POINT('',(4.83231749442024,-3.17554429388646,-52.464589));
#286=CARTESIAN_POINT('',(4.84343564484183,-3.16809188818811,-52.464589));
#287=CARTESIAN_POINT('',(4.85657369655233,-3.15838600077836,-52.464589));
#288=CARTESIAN_POINT('',(4.87373603580206,-3.14442826735132,-52.464589));
#289=CARTESIAN_POINT('',(4.89437529219796,-3.12507887431182,-52.464589));
#290=CARTESIAN_POINT('',(4.91734569614546,-3.09891396714533,-52.464589));
#291=CARTESIAN_POINT('',(4.93802702131768,-3.07000595051834,-52.464589));
#292=CARTESIAN_POINT('',(4.96194426708814,-3.02822141728711,-52.464589));
#293=CARTESIAN_POINT('',(4.98393032034611,-2.9708930126847,-52.464589));
#294=CARTESIAN_POINT('',(4.99355404199698,-2.91025213131162,-52.464589));
#295=CARTESIAN_POINT('',(4.99373336618683,-2.86210704116289,-52.464589));
#296=CARTESIAN_POINT('',(4.99027682151727,-2.82673130180479,-52.464589));
#297=CARTESIAN_POINT('',(4.9834663217468,-2.79258662553723,-52.464589));
#298=CARTESIAN_POINT('',(4.97526689791248,-2.76550993141928,-52.464589));
#299=CARTESIAN_POINT('',(4.96738274284737,-2.74484101006736,-52.464589));
#300=CARTESIAN_POINT('',(4.96085780001473,-2.72986643914901,-52.464589));
#301=CARTESIAN_POINT('',(4.95495540215571,-2.71785339128414,-52.464589));
#302=CARTESIAN_POINT('',(4.94997630329067,-2.70852567442432,-52.464589));
#303=CARTESIAN_POINT('',(4.94613100738518,-2.70169262436553,-52.464589));
#304=CARTESIAN_POINT('',(4.94213606040168,-2.69494597539692,-52.464589));
#305=CARTESIAN_POINT('',(4.93654757007429,-2.68597009086192,-52.464589));
#306=CARTESIAN_POINT('',(4.92909516437593,-2.67485194044033,-52.464589));
#307=CARTESIAN_POINT('',(4.91938927696618,-2.66171388872983,-52.464589));
#308=CARTESIAN_POINT('',(4.90543154353914,-2.6445515494801,-52.464589));
#309=CARTESIAN_POINT('',(4.88608215049964,-2.6239122930842,-52.464589));
#310=CARTESIAN_POINT('',(4.85991724333316,-2.6009418891367,-52.464589));
#311=CARTESIAN_POINT('',(4.83100922670616,-2.58026056396448,-52.464589));
#312=CARTESIAN_POINT('',(4.78922469347493,-2.55634331819402,-52.464589));
#313=CARTESIAN_POINT('',(4.73189628887252,-2.53435726493605,-52.464589));
#314=CARTESIAN_POINT('',(4.67125540749943,-2.52473354328519,-52.464589));
#315=CARTESIAN_POINT('',(4.6231103173507,-2.52455421909532,-52.464589));
#316=CARTESIAN_POINT('',(4.5877345779926,-2.52801076376489,-52.464589));
#317=CARTESIAN_POINT('',(4.55358990172503,-2.53482126353536,-52.464589));
#318=CARTESIAN_POINT('',(4.52651320760709,-2.54302068736967,-52.464589));
#319=CARTESIAN_POINT('',(4.50584428625516,-2.55090484243478,-52.464589));
#320=CARTESIAN_POINT('',(4.49086971533681,-2.55742978526743,-52.464589));
#321=CARTESIAN_POINT('',(4.47885666747194,-2.56333218312644,-52.464589));
#322=CARTESIAN_POINT('',(4.46952895061212,-2.56831128199149,-52.464589));
#323=CARTESIAN_POINT('',(4.46269590055334,-2.57215657789697,-52.464589));
#324=CARTESIAN_POINT('',(4.45594925158472,-2.57615152488047,-52.464589));
#325=CARTESIAN_POINT('',(4.44697336704972,-2.58174001520787,-52.464589));
#326=CARTESIAN_POINT('',(4.43585521662814,-2.58919242090623,-52.464589));
#327=CARTESIAN_POINT('',(4.42271716491764,-2.59889830831598,-52.464589));
#328=CARTESIAN_POINT('',(4.40555482566791,-2.61285604174301,-52.464589));
#329=CARTESIAN_POINT('',(4.38491556927201,-2.63220543478252,-52.464589));
#330=CARTESIAN_POINT('',(4.36194516532451,-2.658370341949,-52.464589));
#331=CARTESIAN_POINT('',(4.34126384015229,-2.68727835857599,-52.464589));
#332=CARTESIAN_POINT('',(4.31734659438184,-2.72906289180723,-52.464589));
#333=CARTESIAN_POINT('',(4.29536054112387,-2.78639129640963,-52.464589));
#334=CARTESIAN_POINT('',(4.28573681947301,-2.84703217778272,-52.464589));
#335=CARTESIAN_POINT('',(4.28555749528315,-2.89517726793146,-52.464589));
#336=CARTESIAN_POINT('',(4.28901403995271,-2.93055300728956,-52.464589));
#337=CARTESIAN_POINT('',(4.29582453972318,-2.96469768355712,-52.464589));
#338=CARTESIAN_POINT('',(4.3040239635575,-2.99177437767508,-52.464589));
#339=CARTESIAN_POINT('',(4.31190811862261,-3.01244329902699,-52.464589));
#340=CARTESIAN_POINT('',(4.31843306145526,-3.02741786994535,-52.464589));
#341=CARTESIAN_POINT('',(4.32433545931427,-3.03943091781022,-52.464589));
#342=CARTESIAN_POINT('',(4.32931455817932,-3.04875863467004,-52.464589));
#343=CARTESIAN_POINT('',(4.3331598540848,-3.05559168472882,-52.464589));
#344=CARTESIAN_POINT('',(4.3371548010683,-3.06233833369744,-52.464589));
#345=CARTESIAN_POINT('',(4.33318479593113,-3.05557728454713,-52.464589));
#346=CARTESIAN_POINT('',(5.21945040548756,-3.03400042929971,18.6554109999999));
#347=CARTESIAN_POINT('',(4.3371548010683,-3.06233833369744,18.6554109999999));
#348=CARTESIAN_POINT('',(4.3331598540848,-3.05559168472882,18.6554109999999));
#349=CARTESIAN_POINT('',(4.32931455817932,-3.04875863467004,18.6554109999999));
#350=CARTESIAN_POINT('',(4.32433545931427,-3.03943091781022,18.6554109999999));
#351=CARTESIAN_POINT('',(4.31843306145526,-3.02741786994535,18.6554109999999));
#352=CARTESIAN_POINT('',(4.31190811862261,-3.012443299027,18.6554109999999));
#353=CARTESIAN_POINT('',(4.3040239635575,-2.99177437767508,18.6554109999999));
#354=CARTESIAN_POINT('',(4.29582453972318,-2.96469768355712,18.6554109999999));
#355=CARTESIAN_POINT('',(4.28901403995271,-2.93055300728956,18.6554109999999));
#356=CARTESIAN_POINT('',(4.28555749528315,-2.89517726793146,18.6554109999999));
#357=CARTESIAN_POINT('',(4.28573681947301,-2.84703217778272,18.6554109999999));
#358=CARTESIAN_POINT('',(4.29536054112387,-2.78639129640963,18.6554109999999));
#359=CARTESIAN_POINT('',(4.31734659438184,-2.72906289180723,18.6554109999999));
#360=CARTESIAN_POINT('',(4.34126384015229,-2.68727835857599,18.6554109999999));
#361=CARTESIAN_POINT('',(4.36194516532451,-2.658370341949,18.6554109999999));
#362=CARTESIAN_POINT('',(4.38491556927201,-2.63220543478251,18.6554109999999));
#363=CARTESIAN_POINT('',(4.40555482566791,-2.61285604174302,18.6554109999999));
#364=CARTESIAN_POINT('',(4.42271716491764,-2.59889830831597,18.6554109999999));
#365=CARTESIAN_POINT('',(4.43585521662814,-2.58919242090623,18.6554109999999));
#366=CARTESIAN_POINT('',(4.44697336704973,-2.58174001520787,18.6554109999999));
#367=CARTESIAN_POINT('',(4.45594925158472,-2.57615152488047,18.6554109999999));
#368=CARTESIAN_POINT('',(4.46269590055334,-2.57215657789697,18.6554109999999));
#369=CARTESIAN_POINT('',(4.46952895061212,-2.56831128199149,18.6554109999999));
#370=CARTESIAN_POINT('',(4.47885666747194,-2.56333218312644,18.6554109999999));
#371=CARTESIAN_POINT('',(4.49086971533681,-2.55742978526743,18.6554109999999));
#372=CARTESIAN_POINT('',(4.50584428625516,-2.55090484243478,18.6554109999999));
#373=CARTESIAN_POINT('',(4.52651320760708,-2.54302068736967,18.6554109999999));
#374=CARTESIAN_POINT('',(4.55358990172504,-2.53482126353536,18.6554109999999));
#375=CARTESIAN_POINT('',(4.5877345779926,-2.52801076376489,18.6554109999999));
#376=CARTESIAN_POINT('',(4.6231103173507,-2.52455421909532,18.6554109999999));
#377=CARTESIAN_POINT('',(4.67125540749944,-2.52473354328518,18.6554109999999));
#378=CARTESIAN_POINT('',(4.73189628887252,-2.53435726493605,18.6554109999999));
#379=CARTESIAN_POINT('',(4.78922469347493,-2.55634331819402,18.6554109999999));
#380=CARTESIAN_POINT('',(4.83100922670616,-2.58026056396448,18.6554109999999));
#381=CARTESIAN_POINT('',(4.85991724333316,-2.6009418891367,18.6554109999999));
#382=CARTESIAN_POINT('',(4.88608215049964,-2.6239122930842,18.6554109999999));
#383=CARTESIAN_POINT('',(4.90543154353914,-2.6445515494801,18.6554109999999));
#384=CARTESIAN_POINT('',(4.91938927696618,-2.66171388872983,18.6554109999999));
#385=CARTESIAN_POINT('',(4.92909516437593,-2.67485194044033,18.6554109999999));
#386=CARTESIAN_POINT('',(4.93654757007429,-2.68597009086192,18.6554109999999));
#387=CARTESIAN_POINT('',(4.94213606040168,-2.69494597539692,18.6554109999999));
#388=CARTESIAN_POINT('',(4.94613100738519,-2.70169262436554,18.6554109999999));
#389=CARTESIAN_POINT('',(4.94997630329066,-2.70852567442432,18.6554109999999));
#390=CARTESIAN_POINT('',(4.95495540215571,-2.71785339128414,18.6554109999999));
#391=CARTESIAN_POINT('',(4.96085780001473,-2.72986643914901,18.6554109999999));
#392=CARTESIAN_POINT('',(4.96738274284737,-2.74484101006736,18.6554109999999));
#393=CARTESIAN_POINT('',(4.97526689791249,-2.76550993141928,18.6554109999999));
#394=CARTESIAN_POINT('',(4.9834663217468,-2.79258662553722,18.6554109999999));
#395=CARTESIAN_POINT('',(4.99027682151727,-2.82673130180479,18.6554109999999));
#396=CARTESIAN_POINT('',(4.99373336618683,-2.86210704116289,18.6554109999999));
#397=CARTESIAN_POINT('',(4.99355404199698,-2.91025213131162,18.6554109999999));
#398=CARTESIAN_POINT('',(4.98393032034611,-2.97089301268471,18.6554109999999));
#399=CARTESIAN_POINT('',(4.96194426708814,-3.02822141728711,18.6554109999999));
#400=CARTESIAN_POINT('',(4.93802702131768,-3.07000595051834,18.6554109999999));
#401=CARTESIAN_POINT('',(4.91734569614546,-3.09891396714534,18.6554109999999));
#402=CARTESIAN_POINT('',(4.89437529219796,-3.12507887431182,18.6554109999999));
#403=CARTESIAN_POINT('',(4.87373603580206,-3.14442826735132,18.6554109999999));
#404=CARTESIAN_POINT('',(4.85657369655233,-3.15838600077836,18.6554109999999));
#405=CARTESIAN_POINT('',(4.84343564484183,-3.16809188818811,18.6554109999999));
#406=CARTESIAN_POINT('',(4.83231749442024,-3.17554429388646,18.6554109999999));
#407=CARTESIAN_POINT('',(4.82334160988524,-3.18113278421386,18.6554109999999));
#408=CARTESIAN_POINT('',(4.81659496091663,-3.18512773119736,18.6554109999999));
#409=CARTESIAN_POINT('',(4.80976191085784,-3.18897302710284,18.6554109999999));
#410=CARTESIAN_POINT('',(4.80043419399802,-3.19395212596789,18.6554109999999));
#411=CARTESIAN_POINT('',(4.78842114613315,-3.1998545238269,18.6554109999999));
#412=CARTESIAN_POINT('',(4.7734465752148,-3.20637946665955,18.6554109999999));
#413=CARTESIAN_POINT('',(4.75277765386288,-3.21426362172466,18.6554109999999));
#414=CARTESIAN_POINT('',(4.72570095974493,-3.22246304555897,18.6554109999999));
#415=CARTESIAN_POINT('',(4.69155628347737,-3.22927354532945,18.6554109999999));
#416=CARTESIAN_POINT('',(4.65618054411927,-3.23273008999901,18.6554109999999));
#417=CARTESIAN_POINT('',(4.60803545397054,-3.23255076580915,18.6554109999999));
#418=CARTESIAN_POINT('',(4.54739457259745,-3.22292704415829,18.6554109999999));
#419=CARTESIAN_POINT('',(4.49006616799505,-3.20094099090032,18.6554109999999));
#420=CARTESIAN_POINT('',(4.44828163476382,-3.17702374512987,18.6554109999999));
#421=CARTESIAN_POINT('',(4.41937361813683,-3.15634241995765,18.6554109999999));
#422=CARTESIAN_POINT('',(4.39320871097034,-3.13337201601015,18.6554109999999));
#423=CARTESIAN_POINT('',(4.37385931793084,-3.11273275961425,18.6554109999999));
#424=CARTESIAN_POINT('',(4.35990158450381,-3.09557042036452,18.6554109999999));
#425=CARTESIAN_POINT('',(4.35019569709405,-3.08243236865402,18.6554109999999));
#426=CARTESIAN_POINT('',(4.3427432913957,-3.07131421823243,18.6554109999999));
#427=CARTESIAN_POINT('',(4.3371548010683,-3.06233833369744,18.6554109999999));
#428=CARTESIAN_POINT('',(4.3331598540848,-3.05559168472882,18.6554109999999));
#429=CARTESIAN_POINT('',(4.32931455817932,-3.04875863467004,18.6554109999999));
#430=CARTESIAN_POINT('',(4.33318479593114,-3.05557728454713,18.6554109999999));
#431=CARTESIAN_POINT('',(4.639645430735,-2.87864215454718,18.6554109999999));
#432=CARTESIAN_POINT('',(4.33318479593113,-3.05557728454713,18.6554109999999));
#433=CARTESIAN_POINT('',(4.33318479593113,-3.05557728454713,-5.05125566666671));
#434=CARTESIAN_POINT('',(4.33318479593113,-3.05557728454713,-28.7579223333334));
#435=CARTESIAN_POINT('',(4.33318479593113,-3.05557728454713,-52.464589));
#436=MECHANICAL_DESIGN_GEOMETRIC_PRESENTATION_REPRESENTATION('',(#61),#437);
#437=(
GEOMETRIC_REPRESENTATION_CONTEXT(3)
GLOBAL_UNCERTAINTY_ASSIGNED_CONTEXT((#438))
GLOBAL_UNIT_ASSIGNED_CONTEXT((#441,#440,#439))
REPRESENTATION_CONTEXT('Injetor 1','TOP_LEVEL_ASSEMBLY_PART')
);
#438=UNCERTAINTY_MEASURE_WITH_UNIT(LENGTH_MEASURE(2.E-5),#441,
'DISTANCE_ACCURACY_VALUE','Maximum Tolerance applied to model');
#439=(
NAMED_UNIT(*)
SI_UNIT($,.STERADIAN.)
SOLID_ANGLE_UNIT()
);
#440=(
NAMED_UNIT(*)
PLANE_ANGLE_UNIT()
SI_UNIT($,.RADIAN.)
);
#441=(
LENGTH_UNIT()
NAMED_UNIT(*)
SI_UNIT($,.METRE.)
);
#442=PRODUCT_DEFINITION_SHAPE('','',#443);
#443=PRODUCT_DEFINITION('','',#445,#444);
#444=PRODUCT_DEFINITION_CONTEXT('',#451,'design');
#445=PRODUCT_DEFINITION_FORMATION_WITH_SPECIFIED_SOURCE('','',#447,
 .NOT_KNOWN.);
#446=PRODUCT_RELATED_PRODUCT_CATEGORY('','',(#447));
#447=PRODUCT('Injetor 1','Injetor 1','Injetor 1',(#449));
#448=PRODUCT_CATEGORY('','');
#449=PRODUCT_CONTEXT('',#451,'mechanical');
#450=APPLICATION_PROTOCOL_DEFINITION('international standard',
'ap242_managed_model_based_3d_engineering',2011,#451);
#451=APPLICATION_CONTEXT('managed model based 3d engineering');
ENDSEC;
END-ISO-10303-21;
