ISO-10303-21;
HEADER;
/* Generated by software containing ST-Developer
 * from STEP Tools, Inc. (www.steptools.com) 
 */

FILE_DESCRIPTION(
/* description */ (
'CAx-IF Rec.Pracs.---Representation and Presentation of Product Manufa
cturing Information (PMI)---4.0---2014-10-13',
'CAx-IF Rec.Pracs.---3D Tessellated Geometry---0.4---2014-09-14','2;1'),

/* implementation_level */ '2;1');

FILE_NAME(
/* name */ 'Injetor_3',
/* time_stamp */ '2026-07-01T19:30:09-03:00',
/* author */ (''),
/* organization */ ('Siemens PLM Software'),
/* preprocessor_version */ 'ST-DEVELOPER v20',
/* originating_system */ 'DEX',
/* authorisation */ $);

FILE_SCHEMA (('AP242_MANAGED_MODEL_BASED_3D_ENGINEERING_MIM_LF { 1 0 10303 442 1 1 4 }'));
ENDSEC;

DATA;
#10=SHAPE_REPRESENTATION_RELATIONSHIP('','',#71,#11);
#11=ADVANCED_BREP_SHAPE_REPRESENTATION('',(#69),#437);
#12=PLANE('',#74);
#13=PLANE('',#75);
#14=ORIENTED_EDGE('',*,*,#26,.T.);
#15=ORIENTED_EDGE('',*,*,#27,.T.);
#16=ORIENTED_EDGE('',*,*,#28,.F.);
#17=ORIENTED_EDGE('',*,*,#27,.F.);
#18=ORIENTED_EDGE('',*,*,#29,.T.);
#19=ORIENTED_EDGE('',*,*,#26,.F.);
#20=ORIENTED_EDGE('',*,*,#30,.T.);
#21=ORIENTED_EDGE('',*,*,#28,.T.);
#22=ORIENTED_EDGE('',*,*,#30,.F.);
#23=ORIENTED_EDGE('',*,*,#31,.T.);
#24=ORIENTED_EDGE('',*,*,#29,.F.);
#25=ORIENTED_EDGE('',*,*,#31,.F.);
#26=EDGE_CURVE('',#32,#32,#36,.F.);
#27=EDGE_CURVE('',#32,#33,#37,.T.);
#28=EDGE_CURVE('',#33,#33,#38,.T.);
#29=EDGE_CURVE('',#34,#34,#39,.T.);
#30=EDGE_CURVE('',#35,#35,#40,.T.);
#31=EDGE_CURVE('',#35,#34,#41,.T.);
#32=VERTEX_POINT('',#172);
#33=VERTEX_POINT('',#177);
#34=VERTEX_POINT('',#345);
#35=VERTEX_POINT('',#430);
#36=B_SPLINE_CURVE_WITH_KNOTS('',3,(#89,#90,#91,#92,#93,#94,#95,#96,#97,
#98,#99,#100,#101,#102,#103,#104,#105,#106,#107,#108,#109,#110,#111,#112,
#113,#114,#115,#116,#117,#118,#119,#120,#121,#122,#123,#124,#125,#126,#127,
#128,#129,#130,#131,#132,#133,#134,#135,#136,#137,#138,#139,#140,#141,#142,
#143,#144,#145,#146,#147,#148,#149,#150,#151,#152,#153,#154,#155,#156,#157,
#158,#159,#160,#161,#162,#163,#164,#165,#166,#167,#168,#169,#170,#171),
 .UNSPECIFIED.,.T.,.F.,(1,1,1,1,1,1,1,1,1,1,1,1,1,1,1,1,1,1,1,1,1,1,1,1,
1,1,1,1,1,1,1,1,1,1,1,1,1,1,1,1,1,1,1,1,1,1,1,1,1,1,1,1,1,1,1,1,1,1,1,1,
1,1,1,1,1,1,1,1,1,1,1,1,1,1,1,1,1,1,1,1,1,1,1,1,1,1,1),(-0.372778835624754,
-0.186389417812375,-0.0931947089061858,0.,0.093194708906189,0.186389417812378,
0.372778835624756,0.559168253437134,0.745557671249512,1.11833650687427,
1.49111534249902,1.86389417812378,2.23667301374853,2.98223068499805,3.72778835624756,
4.10056719187231,4.47334602749707,4.84612486312183,5.21890369874658,5.40529311655896,
5.59168253437134,5.77807195218372,5.8712666610899,5.96446136999609,6.05765607890228,
6.15085078780847,6.33724020562085,6.52362962343323,6.71001904124561,7.08279787687036,
7.45557671249512,7.82835554811987,8.20113438374463,8.94669205499414,9.69224972624365,
10.0650285618684,10.4378073974932,10.8105862331179,11.1833650687427,11.3697544865551,
11.5561439043674,11.7425333221798,11.835728031086,11.9289227399922,12.0221174488984,
12.1153121578046,12.3017015756169,12.4880909934293,12.6744804112417,13.0472592468665,
13.4200380824912,13.792816918116,14.1655957537407,14.9111534249902,15.6567110962397,
16.0294899318645,16.4022687674893,16.775047603114,17.1478264387388,17.3342158565511,
17.5206052743635,17.7069946921759,17.8001894010821,17.8933841099883,17.9865788188945,
18.0797735278007,18.266162945613,18.4525523634254,18.6389417812378,19.0117206168625,
19.3844994524873,19.7572782881121,20.1300571237368,20.8756147949863,21.6211724662358,
21.9939513018606,22.3667301374853,22.7395089731101,23.1122878087349,23.2986772265472,
23.4850666443596,23.671456062172,23.7646507710782,23.8578454799844,23.9510401888906,
24.0442348977968,24.2306243156091),.UNSPECIFIED.);
#37=B_SPLINE_CURVE_WITH_KNOTS('',3,(#173,#174,#175,#176),.UNSPECIFIED.,
 .F.,.F.,(4,4),(0.,1.),.UNSPECIFIED.);
#38=B_SPLINE_CURVE_WITH_KNOTS('',3,(#178,#179,#180,#181,#182,#183,#184,
#185,#186,#187,#188,#189,#190,#191,#192,#193,#194,#195,#196,#197,#198,#199,
#200,#201,#202,#203,#204,#205,#206,#207,#208,#209,#210,#211,#212,#213,#214,
#215,#216,#217,#218,#219,#220,#221,#222,#223,#224,#225,#226,#227,#228,#229,
#230,#231,#232,#233,#234,#235,#236,#237,#238,#239,#240,#241,#242,#243,#244,
#245,#246,#247,#248,#249,#250,#251,#252,#253,#254,#255,#256,#257,#258,#259,
#260),.UNSPECIFIED.,.T.,.F.,(1,1,1,1,1,1,1,1,1,1,1,1,1,1,1,1,1,1,1,1,1,
1,1,1,1,1,1,1,1,1,1,1,1,1,1,1,1,1,1,1,1,1,1,1,1,1,1,1,1,1,1,1,1,1,1,1,1,
1,1,1,1,1,1,1,1,1,1,1,1,1,1,1,1,1,1,1,1,1,1,1,1,1,1,1,1,1,1),(-0.372778835624754,
-0.186389417812375,-0.0931947089061858,0.,0.093194708906189,0.186389417812378,
0.372778835624756,0.559168253437134,0.745557671249512,1.11833650687427,
1.49111534249902,1.86389417812378,2.23667301374853,2.98223068499805,3.72778835624756,
4.10056719187231,4.47334602749707,4.84612486312183,5.21890369874658,5.40529311655896,
5.59168253437134,5.77807195218372,5.8712666610899,5.96446136999609,6.05765607890228,
6.15085078780847,6.33724020562085,6.52362962343323,6.71001904124561,7.08279787687036,
7.45557671249512,7.82835554811987,8.20113438374463,8.94669205499414,9.69224972624365,
10.0650285618684,10.4378073974932,10.8105862331179,11.1833650687427,11.3697544865551,
11.5561439043674,11.7425333221798,11.835728031086,11.9289227399922,12.0221174488984,
12.1153121578046,12.3017015756169,12.4880909934293,12.6744804112417,13.0472592468665,
13.4200380824912,13.792816918116,14.1655957537407,14.9111534249902,15.6567110962397,
16.0294899318645,16.4022687674893,16.775047603114,17.1478264387388,17.3342158565511,
17.5206052743635,17.7069946921759,17.8001894010821,17.8933841099883,17.9865788188945,
18.0797735278007,18.266162945613,18.4525523634254,18.6389417812378,19.0117206168625,
19.3844994524873,19.7572782881121,20.1300571237368,20.8756147949863,21.6211724662358,
21.9939513018606,22.3667301374853,22.7395089731101,23.1122878087349,23.2986772265472,
23.4850666443596,23.671456062172,23.7646507710782,23.8578454799844,23.9510401888906,
24.0442348977968,24.2306243156091),.UNSPECIFIED.);
#39=B_SPLINE_CURVE_WITH_KNOTS('',3,(#262,#263,#264,#265,#266,#267,#268,
#269,#270,#271,#272,#273,#274,#275,#276,#277,#278,#279,#280,#281,#282,#283,
#284,#285,#286,#287,#288,#289,#290,#291,#292,#293,#294,#295,#296,#297,#298,
#299,#300,#301,#302,#303,#304,#305,#306,#307,#308,#309,#310,#311,#312,#313,
#314,#315,#316,#317,#318,#319,#320,#321,#322,#323,#324,#325,#326,#327,#328,
#329,#330,#331,#332,#333,#334,#335,#336,#337,#338,#339,#340,#341,#342,#343,
#344),.UNSPECIFIED.,.T.,.F.,(1,1,1,1,1,1,1,1,1,1,1,1,1,1,1,1,1,1,1,1,1,
1,1,1,1,1,1,1,1,1,1,1,1,1,1,1,1,1,1,1,1,1,1,1,1,1,1,1,1,1,1,1,1,1,1,1,1,
1,1,1,1,1,1,1,1,1,1,1,1,1,1,1,1,1,1,1,1,1,1,1,1,1,1,1,1,1,1),(-0.310979758692376,
-0.155489879346188,-0.0777449396730958,0.,0.0777449396730938,0.155489879346188,
0.310979758692375,0.466469638038563,0.621959517384751,0.932939276077126,
1.2439190347695,1.55489879346188,1.86587855215425,2.487838069539,3.10979758692375,
3.42077734561613,3.7317571043085,4.04273686300088,4.35371662169325,4.50920650103944,
4.66469638038563,4.82018625973182,4.89793119940491,4.975676139078,5.0534210787511,
5.13116601842419,5.28665589777038,5.44214577711657,5.59763565646275,5.90861541515513,
6.21959517384751,6.53057493253988,6.84155469123226,7.46351420861701,8.08547372600176,
8.39645348469413,8.70743324338651,9.01841300207888,9.32939276077126,9.48488264011744,
9.64037251946363,9.79586239880982,9.87360733848291,9.95135227815601,10.0290972178291,
10.1068421575022,10.2623320368484,10.4178219161946,10.5733117955408,10.8842915542331,
11.1952713129255,11.5062510716179,11.8172308303103,12.439190347695,13.0611498650798,
13.3721296237721,13.6831093824645,13.9940891411569,14.3050688998493,14.4605587791954,
14.6160486585416,14.7715385378878,14.8492834775609,14.927028417234,15.0047733569071,
15.0825182965802,15.2380081759264,15.3934980552726,15.5489879346188,15.8599676933111,
16.1709474520035,16.4819272106959,16.7929069693883,17.414866486773,18.0368260041578,
18.3478057628501,18.6587855215425,18.9697652802349,19.2807450389273,19.4362349182735,
19.5917247976196,19.7472146769658,19.8249596166389,19.902704556312,19.9804494959851,
20.0581944356582,20.2136843150044),.UNSPECIFIED.);
#40=B_SPLINE_CURVE_WITH_KNOTS('',3,(#347,#348,#349,#350,#351,#352,#353,
#354,#355,#356,#357,#358,#359,#360,#361,#362,#363,#364,#365,#366,#367,#368,
#369,#370,#371,#372,#373,#374,#375,#376,#377,#378,#379,#380,#381,#382,#383,
#384,#385,#386,#387,#388,#389,#390,#391,#392,#393,#394,#395,#396,#397,#398,
#399,#400,#401,#402,#403,#404,#405,#406,#407,#408,#409,#410,#411,#412,#413,
#414,#415,#416,#417,#418,#419,#420,#421,#422,#423,#424,#425,#426,#427,#428,
#429),.UNSPECIFIED.,.T.,.F.,(1,1,1,1,1,1,1,1,1,1,1,1,1,1,1,1,1,1,1,1,1,
1,1,1,1,1,1,1,1,1,1,1,1,1,1,1,1,1,1,1,1,1,1,1,1,1,1,1,1,1,1,1,1,1,1,1,1,
1,1,1,1,1,1,1,1,1,1,1,1,1,1,1,1,1,1,1,1,1,1,1,1,1,1,1,1,1,1),(-0.310979758692376,
-0.155489879346188,-0.0777449396730958,0.,0.0777449396730938,0.155489879346188,
0.310979758692375,0.466469638038563,0.621959517384751,0.932939276077126,
1.2439190347695,1.55489879346188,1.86587855215425,2.487838069539,3.10979758692375,
3.42077734561613,3.7317571043085,4.04273686300088,4.35371662169325,4.50920650103944,
4.66469638038563,4.82018625973182,4.89793119940491,4.975676139078,5.0534210787511,
5.13116601842419,5.28665589777038,5.44214577711657,5.59763565646275,5.90861541515513,
6.21959517384751,6.53057493253988,6.84155469123226,7.46351420861701,8.08547372600176,
8.39645348469413,8.70743324338651,9.01841300207888,9.32939276077126,9.48488264011744,
9.64037251946363,9.79586239880982,9.87360733848291,9.95135227815601,10.0290972178291,
10.1068421575022,10.2623320368484,10.4178219161946,10.5733117955408,10.8842915542331,
11.1952713129255,11.5062510716179,11.8172308303103,12.439190347695,13.0611498650798,
13.3721296237721,13.6831093824645,13.9940891411569,14.3050688998493,14.4605587791954,
14.6160486585416,14.7715385378878,14.8492834775609,14.927028417234,15.0047733569071,
15.0825182965802,15.2380081759264,15.3934980552726,15.5489879346188,15.8599676933111,
16.1709474520035,16.4819272106959,16.7929069693883,17.414866486773,18.0368260041578,
18.3478057628501,18.6587855215425,18.9697652802349,19.2807450389273,19.4362349182735,
19.5917247976196,19.7472146769658,19.8249596166389,19.902704556312,19.9804494959851,
20.0581944356582,20.2136843150044),.UNSPECIFIED.);
#41=B_SPLINE_CURVE_WITH_KNOTS('',3,(#432,#433,#434,#435),.UNSPECIFIED.,
 .F.,.F.,(4,4),(0.,1.),.UNSPECIFIED.);
#42=EDGE_LOOP('',(#14,#15,#16,#17));
#43=EDGE_LOOP('',(#18));
#44=EDGE_LOOP('',(#19));
#45=EDGE_LOOP('',(#20));
#46=EDGE_LOOP('',(#21));
#47=EDGE_LOOP('',(#22,#23,#24,#25));
#48=FACE_BOUND('',#42,.T.);
#49=FACE_BOUND('',#43,.T.);
#50=FACE_BOUND('',#44,.T.);
#51=FACE_BOUND('',#45,.T.);
#52=FACE_BOUND('',#46,.T.);
#53=FACE_BOUND('',#47,.T.);
#54=CYLINDRICAL_SURFACE('',#73,0.424192699999975);
#55=CYLINDRICAL_SURFACE('',#76,0.35387026000008);
#56=ADVANCED_FACE('',(#48),#54,.T.);
#57=ADVANCED_FACE('',(#49,#50),#12,.T.);
#58=ADVANCED_FACE('',(#51,#52),#13,.T.);
#59=ADVANCED_FACE('',(#53),#55,.F.);
#60=CLOSED_SHELL('',(#56,#57,#58,#59));
#61=STYLED_ITEM('',(#62),#69);
#62=PRESENTATION_STYLE_ASSIGNMENT((#63));
#63=SURFACE_STYLE_USAGE(.BOTH.,#64);
#64=SURFACE_SIDE_STYLE('',(#65));
#65=SURFACE_STYLE_FILL_AREA(#66);
#66=FILL_AREA_STYLE('',(#67));
#67=FILL_AREA_STYLE_COLOUR('',#68);
#68=COLOUR_RGB('',0.650980392156863,0.,0.650980392156863);
#69=MANIFOLD_SOLID_BREP('Injetor 3',#60);
#70=SHAPE_DEFINITION_REPRESENTATION(#442,#71);
#71=SHAPE_REPRESENTATION('Injetor 3',(#72),#437);
#72=AXIS2_PLACEMENT_3D('',#87,#77,#78);
#73=AXIS2_PLACEMENT_3D('',#88,#79,#80);
#74=AXIS2_PLACEMENT_3D('',#261,#81,#82);
#75=AXIS2_PLACEMENT_3D('',#346,#83,#84);
#76=AXIS2_PLACEMENT_3D('',#431,#85,#86);
#77=DIRECTION('',(0.,0.,1.));
#78=DIRECTION('',(1.,0.,0.));
#79=DIRECTION('',(-1.67504706177202E-14,-1.67504706177203E-14,1.));
#80=DIRECTION('',(0.,-1.,-1.67504706177203E-14));
#81=DIRECTION('',(0.,0.,-1.));
#82=DIRECTION('',(-1.,0.,0.));
#83=DIRECTION('',(0.,0.,1.));
#84=DIRECTION('',(1.,0.,0.));
#85=DIRECTION('',(0.,0.,-1.));
#86=DIRECTION('',(-1.,0.,0.));
#87=CARTESIAN_POINT('',(0.,0.,0.));
#88=CARTESIAN_POINT('',(2.00000000000001,-7.45064215454718,-52.464589));
#89=CARTESIAN_POINT('',(1.99060171431268,-7.02651850190885,-52.464589));
#90=CARTESIAN_POINT('',(2.00000000000001,-7.02641493086638,-52.464589));
#91=CARTESIAN_POINT('',(2.00939828568733,-7.02651850190885,-52.464589));
#92=CARTESIAN_POINT('',(2.02206590627807,-7.02694025168747,-52.464589));
#93=CARTESIAN_POINT('',(2.03807462704189,-7.02801298654428,-52.464589));
#94=CARTESIAN_POINT('',(2.05753090941995,-7.0302144658135,-52.464589));
#95=CARTESIAN_POINT('',(2.08371330082117,-7.03441788920857,-52.464589));
#96=CARTESIAN_POINT('',(2.11673672305366,-7.04213459896657,-52.464589));
#97=CARTESIAN_POINT('',(2.15626512790515,-7.05552946505673,-52.464589));
#98=CARTESIAN_POINT('',(2.19506129755417,-7.07314400895323,-52.464589));
#99=CARTESIAN_POINT('',(2.24493445150988,-7.10218650244227,-52.464589));
#100=CARTESIAN_POINT('',(2.3021191899614,-7.14852296458578,-52.464589));
#101=CARTESIAN_POINT('',(2.34845565210492,-7.20570770303731,-52.464589));
#102=CARTESIAN_POINT('',(2.37749814559396,-7.25558085699302,-52.464589));
#103=CARTESIAN_POINT('',(2.39511268949046,-7.29437702664204,-52.464589));
#104=CARTESIAN_POINT('',(2.40850755558062,-7.33390543149353,-52.464589));
#105=CARTESIAN_POINT('',(2.41622426533861,-7.36692885372601,-52.464589));
#106=CARTESIAN_POINT('',(2.42042768873368,-7.39311124512724,-52.464589));
#107=CARTESIAN_POINT('',(2.42262916800291,-7.4125675275053,-52.464589));
#108=CARTESIAN_POINT('',(2.42370190285972,-7.42857624826912,-52.464589));
#109=CARTESIAN_POINT('',(2.42412365263834,-7.44124386885985,-52.464589));
#110=CARTESIAN_POINT('',(2.4242272236808,-7.45064215454718,-52.464589));
#111=CARTESIAN_POINT('',(2.42412365263834,-7.4600404402345,-52.464589));
#112=CARTESIAN_POINT('',(2.42370190285972,-7.47270806082524,-52.464589));
#113=CARTESIAN_POINT('',(2.42262916800291,-7.48871678158907,-52.464589));
#114=CARTESIAN_POINT('',(2.42042768873368,-7.50817306396712,-52.464589));
#115=CARTESIAN_POINT('',(2.41622426533861,-7.53435545536835,-52.464589));
#116=CARTESIAN_POINT('',(2.40850755558062,-7.56737887760083,-52.464589));
#117=CARTESIAN_POINT('',(2.39511268949045,-7.60690728245232,-52.464589));
#118=CARTESIAN_POINT('',(2.37749814559396,-7.64570345210134,-52.464589));
#119=CARTESIAN_POINT('',(2.34845565210492,-7.69557660605705,-52.464589));
#120=CARTESIAN_POINT('',(2.3021191899614,-7.75276134450857,-52.464589));
#121=CARTESIAN_POINT('',(2.24493445150988,-7.79909780665209,-52.464589));
#122=CARTESIAN_POINT('',(2.19506129755416,-7.82814030014113,-52.464589));
#123=CARTESIAN_POINT('',(2.15626512790514,-7.84575484403762,-52.464589));
#124=CARTESIAN_POINT('',(2.11673672305366,-7.85914971012779,-52.464589));
#125=CARTESIAN_POINT('',(2.08371330082117,-7.86686641988578,-52.464589));
#126=CARTESIAN_POINT('',(2.05753090941995,-7.87106984328085,-52.464589));
#127=CARTESIAN_POINT('',(2.03807462704189,-7.87327132255008,-52.464589));
#128=CARTESIAN_POINT('',(2.02206590627807,-7.87434405740689,-52.464589));
#129=CARTESIAN_POINT('',(2.00939828568733,-7.87476580718551,-52.464589));
#130=CARTESIAN_POINT('',(2.00000000000001,-7.87486937822797,-52.464589));
#131=CARTESIAN_POINT('',(1.99060171431268,-7.87476580718551,-52.464589));
#132=CARTESIAN_POINT('',(1.97793409372194,-7.87434405740689,-52.464589));
#133=CARTESIAN_POINT('',(1.96192537295812,-7.87327132255008,-52.464589));
#134=CARTESIAN_POINT('',(1.94246909058007,-7.87106984328085,-52.464589));
#135=CARTESIAN_POINT('',(1.91628669917884,-7.86686641988578,-52.464589));
#136=CARTESIAN_POINT('',(1.88326327694635,-7.85914971012779,-52.464589));
#137=CARTESIAN_POINT('',(1.84373487209487,-7.84575484403762,-52.464589));
#138=CARTESIAN_POINT('',(1.80493870244585,-7.82814030014113,-52.464589));
#139=CARTESIAN_POINT('',(1.75506554849013,-7.79909780665209,-52.464589));
#140=CARTESIAN_POINT('',(1.69788081003861,-7.75276134450857,-52.464589));
#141=CARTESIAN_POINT('',(1.6515443478951,-7.69557660605705,-52.464589));
#142=CARTESIAN_POINT('',(1.62250185440606,-7.64570345210134,-52.464589));
#143=CARTESIAN_POINT('',(1.60488731050956,-7.60690728245232,-52.464589));
#144=CARTESIAN_POINT('',(1.59149244441939,-7.56737887760083,-52.464589));
#145=CARTESIAN_POINT('',(1.5837757346614,-7.53435545536835,-52.464589));
#146=CARTESIAN_POINT('',(1.57957231126633,-7.50817306396712,-52.464589));
#147=CARTESIAN_POINT('',(1.57737083199711,-7.48871678158906,-52.464589));
#148=CARTESIAN_POINT('',(1.5762980971403,-7.47270806082524,-52.464589));
#149=CARTESIAN_POINT('',(1.57587634736167,-7.4600404402345,-52.464589));
#150=CARTESIAN_POINT('',(1.57577277631921,-7.45064215454718,-52.464589));
#151=CARTESIAN_POINT('',(1.57587634736167,-7.44124386885985,-52.464589));
#152=CARTESIAN_POINT('',(1.5762980971403,-7.42857624826912,-52.464589));
#153=CARTESIAN_POINT('',(1.57737083199711,-7.4125675275053,-52.464589));
#154=CARTESIAN_POINT('',(1.57957231126633,-7.39311124512724,-52.464589));
#155=CARTESIAN_POINT('',(1.5837757346614,-7.36692885372601,-52.464589));
#156=CARTESIAN_POINT('',(1.59149244441939,-7.33390543149353,-52.464589));
#157=CARTESIAN_POINT('',(1.60488731050956,-7.29437702664204,-52.464589));
#158=CARTESIAN_POINT('',(1.62250185440605,-7.25558085699302,-52.464589));
#159=CARTESIAN_POINT('',(1.6515443478951,-7.20570770303731,-52.464589));
#160=CARTESIAN_POINT('',(1.69788081003861,-7.14852296458578,-52.464589));
#161=CARTESIAN_POINT('',(1.75506554849013,-7.10218650244227,-52.464589));
#162=CARTESIAN_POINT('',(1.80493870244585,-7.07314400895323,-52.464589));
#163=CARTESIAN_POINT('',(1.84373487209487,-7.05552946505674,-52.464589));
#164=CARTESIAN_POINT('',(1.88326327694635,-7.04213459896656,-52.464589));
#165=CARTESIAN_POINT('',(1.91628669917884,-7.03441788920858,-52.464589));
#166=CARTESIAN_POINT('',(1.94246909058007,-7.0302144658135,-52.464589));
#167=CARTESIAN_POINT('',(1.96192537295812,-7.02801298654428,-52.464589));
#168=CARTESIAN_POINT('',(1.97793409372195,-7.02694025168747,-52.464589));
#169=CARTESIAN_POINT('',(1.99060171431268,-7.02651850190885,-52.464589));
#170=CARTESIAN_POINT('',(2.00000000000001,-7.02641493086638,-52.464589));
#171=CARTESIAN_POINT('',(2.00939828568733,-7.02651850190885,-52.464589));
#172=CARTESIAN_POINT('',(2.00000000000001,-7.0264494545472,-52.464589));
#173=CARTESIAN_POINT('',(2.00000000000001,-7.0264494545472,-52.464589));
#174=CARTESIAN_POINT('',(2.00000000000001,-7.0264494545476,-28.7579223333334));
#175=CARTESIAN_POINT('',(2.00000000000001,-7.026449454548,-5.05125566666671));
#176=CARTESIAN_POINT('',(2.00000000000001,-7.02644945454839,18.6554109999999));
#177=CARTESIAN_POINT('',(2.00000000000001,-7.0264494545472,18.6554109999999));
#178=CARTESIAN_POINT('',(2.00939828568733,-7.02651850190885,18.6554109999999));
#179=CARTESIAN_POINT('',(2.00000000000001,-7.02641493086638,18.6554109999999));
#180=CARTESIAN_POINT('',(1.99060171431268,-7.02651850190885,18.6554109999999));
#181=CARTESIAN_POINT('',(1.97793409372195,-7.02694025168747,18.6554109999999));
#182=CARTESIAN_POINT('',(1.96192537295812,-7.02801298654428,18.6554109999999));
#183=CARTESIAN_POINT('',(1.94246909058007,-7.0302144658135,18.6554109999999));
#184=CARTESIAN_POINT('',(1.91628669917884,-7.03441788920857,18.6554109999999));
#185=CARTESIAN_POINT('',(1.88326327694635,-7.04213459896657,18.6554109999999));
#186=CARTESIAN_POINT('',(1.84373487209487,-7.05552946505673,18.6554109999999));
#187=CARTESIAN_POINT('',(1.80493870244585,-7.07314400895323,18.6554109999999));
#188=CARTESIAN_POINT('',(1.75506554849013,-7.10218650244227,18.6554109999999));
#189=CARTESIAN_POINT('',(1.69788081003861,-7.14852296458578,18.6554109999999));
#190=CARTESIAN_POINT('',(1.6515443478951,-7.20570770303731,18.6554109999999));
#191=CARTESIAN_POINT('',(1.62250185440606,-7.25558085699302,18.6554109999999));
#192=CARTESIAN_POINT('',(1.60488731050956,-7.29437702664204,18.6554109999999));
#193=CARTESIAN_POINT('',(1.59149244441939,-7.33390543149353,18.6554109999999));
#194=CARTESIAN_POINT('',(1.5837757346614,-7.36692885372601,18.6554109999999));
#195=CARTESIAN_POINT('',(1.57957231126633,-7.39311124512724,18.6554109999999));
#196=CARTESIAN_POINT('',(1.57737083199711,-7.4125675275053,18.6554109999999));
#197=CARTESIAN_POINT('',(1.5762980971403,-7.42857624826912,18.6554109999999));
#198=CARTESIAN_POINT('',(1.57587634736167,-7.44124386885985,18.6554109999999));
#199=CARTESIAN_POINT('',(1.57577277631921,-7.45064215454718,18.6554109999999));
#200=CARTESIAN_POINT('',(1.57587634736167,-7.4600404402345,18.6554109999999));
#201=CARTESIAN_POINT('',(1.5762980971403,-7.47270806082524,18.6554109999999));
#202=CARTESIAN_POINT('',(1.57737083199711,-7.48871678158907,18.6554109999999));
#203=CARTESIAN_POINT('',(1.57957231126633,-7.50817306396712,18.6554109999999));
#204=CARTESIAN_POINT('',(1.5837757346614,-7.53435545536835,18.6554109999999));
#205=CARTESIAN_POINT('',(1.59149244441939,-7.56737887760083,18.6554109999999));
#206=CARTESIAN_POINT('',(1.60488731050956,-7.60690728245232,18.6554109999999));
#207=CARTESIAN_POINT('',(1.62250185440606,-7.64570345210134,18.6554109999999));
#208=CARTESIAN_POINT('',(1.6515443478951,-7.69557660605705,18.6554109999999));
#209=CARTESIAN_POINT('',(1.69788081003861,-7.75276134450857,18.6554109999999));
#210=CARTESIAN_POINT('',(1.75506554849013,-7.79909780665209,18.6554109999999));
#211=CARTESIAN_POINT('',(1.80493870244585,-7.82814030014113,18.6554109999999));
#212=CARTESIAN_POINT('',(1.84373487209487,-7.84575484403762,18.6554109999999));
#213=CARTESIAN_POINT('',(1.88326327694635,-7.85914971012779,18.6554109999999));
#214=CARTESIAN_POINT('',(1.91628669917884,-7.86686641988578,18.6554109999999));
#215=CARTESIAN_POINT('',(1.94246909058007,-7.87106984328085,18.6554109999999));
#216=CARTESIAN_POINT('',(1.96192537295812,-7.87327132255008,18.6554109999999));
#217=CARTESIAN_POINT('',(1.97793409372195,-7.87434405740689,18.6554109999999));
#218=CARTESIAN_POINT('',(1.99060171431268,-7.87476580718551,18.6554109999999));
#219=CARTESIAN_POINT('',(2.00000000000001,-7.87486937822797,18.6554109999999));
#220=CARTESIAN_POINT('',(2.00939828568733,-7.87476580718551,18.6554109999999));
#221=CARTESIAN_POINT('',(2.02206590627807,-7.87434405740689,18.6554109999999));
#222=CARTESIAN_POINT('',(2.03807462704189,-7.87327132255008,18.6554109999999));
#223=CARTESIAN_POINT('',(2.05753090941995,-7.87106984328085,18.6554109999999));
#224=CARTESIAN_POINT('',(2.08371330082117,-7.86686641988578,18.6554109999999));
#225=CARTESIAN_POINT('',(2.11673672305366,-7.85914971012779,18.6554109999999));
#226=CARTESIAN_POINT('',(2.15626512790515,-7.84575484403762,18.6554109999999));
#227=CARTESIAN_POINT('',(2.19506129755416,-7.82814030014113,18.6554109999999));
#228=CARTESIAN_POINT('',(2.24493445150988,-7.79909780665209,18.6554109999999));
#229=CARTESIAN_POINT('',(2.3021191899614,-7.75276134450857,18.6554109999999));
#230=CARTESIAN_POINT('',(2.34845565210492,-7.69557660605705,18.6554109999999));
#231=CARTESIAN_POINT('',(2.37749814559396,-7.64570345210134,18.6554109999999));
#232=CARTESIAN_POINT('',(2.39511268949046,-7.60690728245232,18.6554109999999));
#233=CARTESIAN_POINT('',(2.40850755558062,-7.56737887760083,18.6554109999999));
#234=CARTESIAN_POINT('',(2.41622426533861,-7.53435545536835,18.6554109999999));
#235=CARTESIAN_POINT('',(2.42042768873369,-7.50817306396712,18.6554109999999));
#236=CARTESIAN_POINT('',(2.42262916800291,-7.48871678158906,18.6554109999999));
#237=CARTESIAN_POINT('',(2.42370190285972,-7.47270806082524,18.6554109999999));
#238=CARTESIAN_POINT('',(2.42412365263834,-7.4600404402345,18.6554109999999));
#239=CARTESIAN_POINT('',(2.4242272236808,-7.45064215454718,18.6554109999999));
#240=CARTESIAN_POINT('',(2.42412365263834,-7.44124386885985,18.6554109999999));
#241=CARTESIAN_POINT('',(2.42370190285972,-7.42857624826912,18.6554109999999));
#242=CARTESIAN_POINT('',(2.42262916800291,-7.41256752750529,18.6554109999999));
#243=CARTESIAN_POINT('',(2.42042768873368,-7.39311124512724,18.6554109999999));
#244=CARTESIAN_POINT('',(2.41622426533861,-7.36692885372601,18.6554109999999));
#245=CARTESIAN_POINT('',(2.40850755558062,-7.33390543149353,18.6554109999999));
#246=CARTESIAN_POINT('',(2.39511268949045,-7.29437702664204,18.6554109999999));
#247=CARTESIAN_POINT('',(2.37749814559396,-7.25558085699302,18.6554109999999));
#248=CARTESIAN_POINT('',(2.34845565210492,-7.20570770303731,18.6554109999999));
#249=CARTESIAN_POINT('',(2.3021191899614,-7.14852296458578,18.6554109999999));
#250=CARTESIAN_POINT('',(2.24493445150988,-7.10218650244227,18.6554109999999));
#251=CARTESIAN_POINT('',(2.19506129755417,-7.07314400895323,18.6554109999999));
#252=CARTESIAN_POINT('',(2.15626512790515,-7.05552946505674,18.6554109999999));
#253=CARTESIAN_POINT('',(2.11673672305366,-7.04213459896656,18.6554109999999));
#254=CARTESIAN_POINT('',(2.08371330082117,-7.03441788920857,18.6554109999999));
#255=CARTESIAN_POINT('',(2.05753090941994,-7.0302144658135,18.6554109999999));
#256=CARTESIAN_POINT('',(2.03807462704189,-7.02801298654428,18.6554109999999));
#257=CARTESIAN_POINT('',(2.02206590627807,-7.02694025168747,18.6554109999999));
#258=CARTESIAN_POINT('',(2.00939828568733,-7.02651850190885,18.6554109999999));
#259=CARTESIAN_POINT('',(2.00000000000001,-7.02641493086638,18.6554109999999));
#260=CARTESIAN_POINT('',(1.99060171431268,-7.02651850190885,18.6554109999999));
#261=CARTESIAN_POINT('',(2.42444670000003,-7.8750888545472,-52.464589));
#262=CARTESIAN_POINT('',(2.00784024288898,-7.09682949527389,-52.464589));
#263=CARTESIAN_POINT('',(2.00000000000001,-7.09674309418371,-52.464589));
#264=CARTESIAN_POINT('',(1.99215975711103,-7.09682949527389,-52.464589));
#265=CARTESIAN_POINT('',(1.9815921679186,-7.09718132759871,-52.464589));
#266=CARTESIAN_POINT('',(1.96823736436125,-7.098076225042,-52.464589));
#267=CARTESIAN_POINT('',(1.95200653411886,-7.09991274424986,-52.464589));
#268=CARTESIAN_POINT('',(1.93016464562673,-7.10341932635206,-52.464589));
#269=CARTESIAN_POINT('',(1.90261582875292,-7.10985676407413,-52.464589));
#270=CARTESIAN_POINT('',(1.86964042181597,-7.12103103639422,-52.464589));
#271=CARTESIAN_POINT('',(1.8372758605194,-7.13572545058012,-52.464589));
#272=CARTESIAN_POINT('',(1.79567065147801,-7.15995329495844,-52.464589));
#273=CARTESIAN_POINT('',(1.74796596852642,-7.1986081230736,-52.464589));
#274=CARTESIAN_POINT('',(1.70931114041126,-7.24631280602518,-52.464589));
#275=CARTESIAN_POINT('',(1.68508329603294,-7.28791801506658,-52.464589));
#276=CARTESIAN_POINT('',(1.67038888184704,-7.32028257636315,-52.464589));
#277=CARTESIAN_POINT('',(1.65921460952695,-7.3532579833001,-52.464589));
#278=CARTESIAN_POINT('',(1.65277717180489,-7.3808068001739,-52.464589));
#279=CARTESIAN_POINT('',(1.64927058970269,-7.40264868866604,-52.464589));
#280=CARTESIAN_POINT('',(1.64743407049482,-7.41887951890842,-52.464589));
#281=CARTESIAN_POINT('',(1.64653917305154,-7.43223432246578,-52.464589));
#282=CARTESIAN_POINT('',(1.64618734072671,-7.44280191165821,-52.464589));
#283=CARTESIAN_POINT('',(1.64610093963653,-7.45064215454718,-52.464589));
#284=CARTESIAN_POINT('',(1.64618734072671,-7.45848239743615,-52.464589));
#285=CARTESIAN_POINT('',(1.64653917305154,-7.46904998662858,-52.464589));
#286=CARTESIAN_POINT('',(1.64743407049482,-7.48240479018594,-52.464589));
#287=CARTESIAN_POINT('',(1.64927058970269,-7.49863562042832,-52.464589));
#288=CARTESIAN_POINT('',(1.65277717180489,-7.52047750892046,-52.464589));
#289=CARTESIAN_POINT('',(1.65921460952695,-7.54802632579426,-52.464589));
#290=CARTESIAN_POINT('',(1.67038888184704,-7.58100173273121,-52.464589));
#291=CARTESIAN_POINT('',(1.68508329603294,-7.61336629402778,-52.464589));
#292=CARTESIAN_POINT('',(1.70931114041126,-7.65497150306917,-52.464589));
#293=CARTESIAN_POINT('',(1.74796596852643,-7.70267618602076,-52.464589));
#294=CARTESIAN_POINT('',(1.79567065147801,-7.74133101413592,-52.464589));
#295=CARTESIAN_POINT('',(1.8372758605194,-7.76555885851424,-52.464589));
#296=CARTESIAN_POINT('',(1.86964042181597,-7.78025327270014,-52.464589));
#297=CARTESIAN_POINT('',(1.90261582875293,-7.79142754502023,-52.464589));
#298=CARTESIAN_POINT('',(1.93016464562673,-7.79786498274229,-52.464589));
#299=CARTESIAN_POINT('',(1.95200653411886,-7.8013715648445,-52.464589));
#300=CARTESIAN_POINT('',(1.96823736436125,-7.80320808405236,-52.464589));
#301=CARTESIAN_POINT('',(1.9815921679186,-7.80410298149564,-52.464589));
#302=CARTESIAN_POINT('',(1.99215975711103,-7.80445481382047,-52.464589));
#303=CARTESIAN_POINT('',(2.00000000000001,-7.80454121491065,-52.464589));
#304=CARTESIAN_POINT('',(2.00784024288898,-7.80445481382047,-52.464589));
#305=CARTESIAN_POINT('',(2.01840783208141,-7.80410298149564,-52.464589));
#306=CARTESIAN_POINT('',(2.03176263563877,-7.80320808405236,-52.464589));
#307=CARTESIAN_POINT('',(2.04799346588115,-7.80137156484449,-52.464589));
#308=CARTESIAN_POINT('',(2.06983535437329,-7.79786498274229,-52.464589));
#309=CARTESIAN_POINT('',(2.09738417124709,-7.79142754502023,-52.464589));
#310=CARTESIAN_POINT('',(2.13035957818404,-7.78025327270014,-52.464589));
#311=CARTESIAN_POINT('',(2.16272413948061,-7.76555885851424,-52.464589));
#312=CARTESIAN_POINT('',(2.204329348522,-7.74133101413593,-52.464589));
#313=CARTESIAN_POINT('',(2.25203403147359,-7.70267618602076,-52.464589));
#314=CARTESIAN_POINT('',(2.29068885958876,-7.65497150306917,-52.464589));
#315=CARTESIAN_POINT('',(2.31491670396707,-7.61336629402778,-52.464589));
#316=CARTESIAN_POINT('',(2.32961111815297,-7.58100173273121,-52.464589));
#317=CARTESIAN_POINT('',(2.34078539047306,-7.54802632579426,-52.464589));
#318=CARTESIAN_POINT('',(2.34722282819513,-7.52047750892046,-52.464589));
#319=CARTESIAN_POINT('',(2.35072941029733,-7.49863562042832,-52.464589));
#320=CARTESIAN_POINT('',(2.35256592950519,-7.48240479018594,-52.464589));
#321=CARTESIAN_POINT('',(2.35346082694848,-7.46904998662858,-52.464589));
#322=CARTESIAN_POINT('',(2.3538126592733,-7.45848239743615,-52.464589));
#323=CARTESIAN_POINT('',(2.35389906036348,-7.45064215454718,-52.464589));
#324=CARTESIAN_POINT('',(2.35381265927331,-7.44280191165821,-52.464589));
#325=CARTESIAN_POINT('',(2.35346082694848,-7.43223432246578,-52.464589));
#326=CARTESIAN_POINT('',(2.35256592950519,-7.41887951890842,-52.464589));
#327=CARTESIAN_POINT('',(2.35072941029733,-7.40264868866604,-52.464589));
#328=CARTESIAN_POINT('',(2.34722282819513,-7.3808068001739,-52.464589));
#329=CARTESIAN_POINT('',(2.34078539047306,-7.3532579833001,-52.464589));
#330=CARTESIAN_POINT('',(2.32961111815297,-7.32028257636315,-52.464589));
#331=CARTESIAN_POINT('',(2.31491670396707,-7.28791801506658,-52.464589));
#332=CARTESIAN_POINT('',(2.29068885958876,-7.24631280602519,-52.464589));
#333=CARTESIAN_POINT('',(2.25203403147359,-7.1986081230736,-52.464589));
#334=CARTESIAN_POINT('',(2.204329348522,-7.15995329495844,-52.464589));
#335=CARTESIAN_POINT('',(2.16272413948061,-7.13572545058012,-52.464589));
#336=CARTESIAN_POINT('',(2.13035957818404,-7.12103103639422,-52.464589));
#337=CARTESIAN_POINT('',(2.09738417124709,-7.10985676407413,-52.464589));
#338=CARTESIAN_POINT('',(2.06983535437329,-7.10341932635207,-52.464589));
#339=CARTESIAN_POINT('',(2.04799346588115,-7.09991274424986,-52.464589));
#340=CARTESIAN_POINT('',(2.03176263563876,-7.098076225042,-52.464589));
#341=CARTESIAN_POINT('',(2.01840783208141,-7.09718132759871,-52.464589));
#342=CARTESIAN_POINT('',(2.00784024288898,-7.09682949527389,-52.464589));
#343=CARTESIAN_POINT('',(2.00000000000001,-7.09674309418371,-52.464589));
#344=CARTESIAN_POINT('',(1.99215975711103,-7.09682949527389,-52.464589));
#345=CARTESIAN_POINT('',(2.00000000000001,-7.0967718945471,-52.464589));
#346=CARTESIAN_POINT('',(1.5755532999998,-7.8750888545472,18.6554109999999));
#347=CARTESIAN_POINT('',(1.99215975711103,-7.09682949527389,18.6554109999999));
#348=CARTESIAN_POINT('',(2.00000000000001,-7.09674309418371,18.6554109999999));
#349=CARTESIAN_POINT('',(2.00784024288898,-7.09682949527389,18.6554109999999));
#350=CARTESIAN_POINT('',(2.01840783208141,-7.09718132759871,18.6554109999999));
#351=CARTESIAN_POINT('',(2.03176263563877,-7.098076225042,18.6554109999999));
#352=CARTESIAN_POINT('',(2.04799346588115,-7.09991274424986,18.6554109999999));
#353=CARTESIAN_POINT('',(2.06983535437328,-7.10341932635206,18.6554109999999));
#354=CARTESIAN_POINT('',(2.09738417124709,-7.10985676407413,18.6554109999999));
#355=CARTESIAN_POINT('',(2.13035957818404,-7.12103103639422,18.6554109999999));
#356=CARTESIAN_POINT('',(2.16272413948061,-7.13572545058012,18.6554109999999));
#357=CARTESIAN_POINT('',(2.20432934852201,-7.15995329495844,18.6554109999999));
#358=CARTESIAN_POINT('',(2.25203403147359,-7.1986081230736,18.6554109999999));
#359=CARTESIAN_POINT('',(2.29068885958876,-7.24631280602518,18.6554109999999));
#360=CARTESIAN_POINT('',(2.31491670396707,-7.28791801506658,18.6554109999999));
#361=CARTESIAN_POINT('',(2.32961111815297,-7.32028257636315,18.6554109999999));
#362=CARTESIAN_POINT('',(2.34078539047306,-7.3532579833001,18.6554109999999));
#363=CARTESIAN_POINT('',(2.34722282819513,-7.3808068001739,18.6554109999999));
#364=CARTESIAN_POINT('',(2.35072941029733,-7.40264868866604,18.6554109999999));
#365=CARTESIAN_POINT('',(2.35256592950519,-7.41887951890842,18.6554109999999));
#366=CARTESIAN_POINT('',(2.35346082694848,-7.43223432246578,18.6554109999999));
#367=CARTESIAN_POINT('',(2.35381265927331,-7.44280191165821,18.6554109999999));
#368=CARTESIAN_POINT('',(2.35389906036348,-7.45064215454718,18.6554109999999));
#369=CARTESIAN_POINT('',(2.35381265927331,-7.45848239743615,18.6554109999999));
#370=CARTESIAN_POINT('',(2.35346082694848,-7.46904998662858,18.6554109999999));
#371=CARTESIAN_POINT('',(2.35256592950519,-7.48240479018594,18.6554109999999));
#372=CARTESIAN_POINT('',(2.35072941029733,-7.49863562042832,18.6554109999999));
#373=CARTESIAN_POINT('',(2.34722282819513,-7.52047750892046,18.6554109999999));
#374=CARTESIAN_POINT('',(2.34078539047306,-7.54802632579426,18.6554109999999));
#375=CARTESIAN_POINT('',(2.32961111815297,-7.58100173273121,18.6554109999999));
#376=CARTESIAN_POINT('',(2.31491670396707,-7.61336629402778,18.6554109999999));
#377=CARTESIAN_POINT('',(2.29068885958876,-7.65497150306917,18.6554109999999));
#378=CARTESIAN_POINT('',(2.25203403147359,-7.70267618602076,18.6554109999999));
#379=CARTESIAN_POINT('',(2.204329348522,-7.74133101413592,18.6554109999999));
#380=CARTESIAN_POINT('',(2.16272413948061,-7.76555885851424,18.6554109999999));
#381=CARTESIAN_POINT('',(2.13035957818404,-7.78025327270014,18.6554109999999));
#382=CARTESIAN_POINT('',(2.09738417124709,-7.79142754502023,18.6554109999999));
#383=CARTESIAN_POINT('',(2.06983535437329,-7.79786498274229,18.6554109999999));
#384=CARTESIAN_POINT('',(2.04799346588115,-7.8013715648445,18.6554109999999));
#385=CARTESIAN_POINT('',(2.03176263563877,-7.80320808405236,18.6554109999999));
#386=CARTESIAN_POINT('',(2.01840783208141,-7.80410298149564,18.6554109999999));
#387=CARTESIAN_POINT('',(2.00784024288898,-7.80445481382047,18.6554109999999));
#388=CARTESIAN_POINT('',(2.00000000000001,-7.80454121491065,18.6554109999999));
#389=CARTESIAN_POINT('',(1.99215975711103,-7.80445481382047,18.6554109999999));
#390=CARTESIAN_POINT('',(1.9815921679186,-7.80410298149564,18.6554109999999));
#391=CARTESIAN_POINT('',(1.96823736436125,-7.80320808405236,18.6554109999999));
#392=CARTESIAN_POINT('',(1.95200653411886,-7.80137156484449,18.6554109999999));
#393=CARTESIAN_POINT('',(1.93016464562673,-7.79786498274229,18.6554109999999));
#394=CARTESIAN_POINT('',(1.90261582875293,-7.79142754502023,18.6554109999999));
#395=CARTESIAN_POINT('',(1.86964042181597,-7.78025327270014,18.6554109999999));
#396=CARTESIAN_POINT('',(1.8372758605194,-7.76555885851424,18.6554109999999));
#397=CARTESIAN_POINT('',(1.79567065147801,-7.74133101413593,18.6554109999999));
#398=CARTESIAN_POINT('',(1.74796596852643,-7.70267618602076,18.6554109999999));
#399=CARTESIAN_POINT('',(1.70931114041126,-7.65497150306917,18.6554109999999));
#400=CARTESIAN_POINT('',(1.68508329603294,-7.61336629402778,18.6554109999999));
#401=CARTESIAN_POINT('',(1.67038888184704,-7.58100173273121,18.6554109999999));
#402=CARTESIAN_POINT('',(1.65921460952695,-7.54802632579426,18.6554109999999));
#403=CARTESIAN_POINT('',(1.65277717180489,-7.52047750892046,18.6554109999999));
#404=CARTESIAN_POINT('',(1.64927058970269,-7.49863562042832,18.6554109999999));
#405=CARTESIAN_POINT('',(1.64743407049482,-7.48240479018594,18.6554109999999));
#406=CARTESIAN_POINT('',(1.64653917305154,-7.46904998662858,18.6554109999999));
#407=CARTESIAN_POINT('',(1.64618734072671,-7.45848239743615,18.6554109999999));
#408=CARTESIAN_POINT('',(1.64610093963653,-7.45064215454718,18.6554109999999));
#409=CARTESIAN_POINT('',(1.64618734072671,-7.44280191165821,18.6554109999999));
#410=CARTESIAN_POINT('',(1.64653917305154,-7.43223432246578,18.6554109999999));
#411=CARTESIAN_POINT('',(1.64743407049482,-7.41887951890842,18.6554109999999));
#412=CARTESIAN_POINT('',(1.64927058970268,-7.40264868866604,18.6554109999999));
#413=CARTESIAN_POINT('',(1.65277717180489,-7.3808068001739,18.6554109999999));
#414=CARTESIAN_POINT('',(1.65921460952695,-7.3532579833001,18.6554109999999));
#415=CARTESIAN_POINT('',(1.67038888184704,-7.32028257636315,18.6554109999999));
#416=CARTESIAN_POINT('',(1.68508329603294,-7.28791801506658,18.6554109999999));
#417=CARTESIAN_POINT('',(1.70931114041126,-7.24631280602519,18.6554109999999));
#418=CARTESIAN_POINT('',(1.74796596852642,-7.1986081230736,18.6554109999999));
#419=CARTESIAN_POINT('',(1.79567065147801,-7.15995329495844,18.6554109999999));
#420=CARTESIAN_POINT('',(1.8372758605194,-7.13572545058012,18.6554109999999));
#421=CARTESIAN_POINT('',(1.86964042181597,-7.12103103639422,18.6554109999999));
#422=CARTESIAN_POINT('',(1.90261582875293,-7.10985676407413,18.6554109999999));
#423=CARTESIAN_POINT('',(1.93016464562672,-7.10341932635207,18.6554109999999));
#424=CARTESIAN_POINT('',(1.95200653411886,-7.09991274424986,18.6554109999999));
#425=CARTESIAN_POINT('',(1.96823736436125,-7.098076225042,18.6554109999999));
#426=CARTESIAN_POINT('',(1.9815921679186,-7.09718132759871,18.6554109999999));
#427=CARTESIAN_POINT('',(1.99215975711103,-7.09682949527389,18.6554109999999));
#428=CARTESIAN_POINT('',(2.00000000000001,-7.09674309418371,18.6554109999999));
#429=CARTESIAN_POINT('',(2.00784024288898,-7.09682949527389,18.6554109999999));
#430=CARTESIAN_POINT('',(2.00000000000001,-7.0967718945471,18.6554109999999));
#431=CARTESIAN_POINT('',(2.00000000000001,-7.45064215454718,18.6554109999999));
#432=CARTESIAN_POINT('',(2.00000000000001,-7.0967718945471,18.6554109999999));
#433=CARTESIAN_POINT('',(2.00000000000001,-7.0967718945471,-5.05125566666671));
#434=CARTESIAN_POINT('',(2.00000000000001,-7.0967718945471,-28.7579223333334));
#435=CARTESIAN_POINT('',(2.00000000000001,-7.0967718945471,-52.464589));
#436=MECHANICAL_DESIGN_GEOMETRIC_PRESENTATION_REPRESENTATION('',(#61),#437);
#437=(
GEOMETRIC_REPRESENTATION_CONTEXT(3)
GLOBAL_UNCERTAINTY_ASSIGNED_CONTEXT((#438))
GLOBAL_UNIT_ASSIGNED_CONTEXT((#441,#440,#439))
REPRESENTATION_CONTEXT('Injetor 3','TOP_LEVEL_ASSEMBLY_PART')
);
#438=UNCERTAINTY_MEASURE_WITH_UNIT(LENGTH_MEASURE(2.E-5),#441,
'DISTANCE_ACCURACY_VALUE','Maximum Tolerance applied to model');
#439=(
NAMED_UNIT(*)
SI_UNIT($,.STERADIAN.)
SOLID_ANGLE_UNIT()
);
#440=(
NAMED_UNIT(*)
PLANE_ANGLE_UNIT()
SI_UNIT($,.RADIAN.)
);
#441=(
LENGTH_UNIT()
NAMED_UNIT(*)
SI_UNIT($,.METRE.)
);
#442=PRODUCT_DEFINITION_SHAPE('','',#443);
#443=PRODUCT_DEFINITION('','',#445,#444);
#444=PRODUCT_DEFINITION_CONTEXT('',#451,'design');
#445=PRODUCT_DEFINITION_FORMATION_WITH_SPECIFIED_SOURCE('','',#447,
 .NOT_KNOWN.);
#446=PRODUCT_RELATED_PRODUCT_CATEGORY('','',(#447));
#447=PRODUCT('Injetor 3','Injetor 3','Injetor 3',(#449));
#448=PRODUCT_CATEGORY('','');
#449=PRODUCT_CONTEXT('',#451,'mechanical');
#450=APPLICATION_PROTOCOL_DEFINITION('international standard',
'ap242_managed_model_based_3d_engineering',2011,#451);
#451=APPLICATION_CONTEXT('managed model based 3d engineering');
ENDSEC;
END-ISO-10303-21;
