ISO-10303-21;
HEADER;
/* Generated by software containing ST-Developer
 * from STEP Tools, Inc. (www.steptools.com) 
 */

FILE_DESCRIPTION(
/* description */ (
'CAx-IF Rec.Pracs.---Representation and Presentation of Product Manufa
cturing Information (PMI)---4.0---2014-10-13',
'CAx-IF Rec.Pracs.---3D Tessellated Geometry---0.4---2014-09-14','2;1'),

/* implementation_level */ '2;1');

FILE_NAME(
/* name */ 'Baffles',
/* time_stamp */ '2026-07-01T15:44:15-03:00',
/* author */ (''),
/* organization */ ('Siemens PLM Software'),
/* preprocessor_version */ 'ST-DEVELOPER v20',
/* originating_system */ 'DEX',
/* authorisation */ $);

FILE_SCHEMA (('AP242_MANAGED_MODEL_BASED_3D_ENGINEERING_MIM_LF { 1 0 10303 442 1 1 4 }'));
ENDSEC;

DATA;
#10=SHAPE_REPRESENTATION_RELATIONSHIP('','',#471,#15);
#11=SHAPE_REPRESENTATION_RELATIONSHIP('','',#472,#16);
#12=SHAPE_REPRESENTATION_RELATIONSHIP('','',#473,#17);
#13=SHAPE_REPRESENTATION_RELATIONSHIP('','',#474,#18);
#14=SHAPE_REPRESENTATION_RELATIONSHIP('','',#475,#19);
#15=ADVANCED_BREP_SHAPE_REPRESENTATION('',(#461),#901);
#16=ADVANCED_BREP_SHAPE_REPRESENTATION('',(#462),#902);
#17=ADVANCED_BREP_SHAPE_REPRESENTATION('',(#463),#903);
#18=ADVANCED_BREP_SHAPE_REPRESENTATION('',(#464),#904);
#19=ADVANCED_BREP_SHAPE_REPRESENTATION('',(#465),#905);
#20=ORIENTED_EDGE('',*,*,#140,.T.);
#21=ORIENTED_EDGE('',*,*,#141,.T.);
#22=ORIENTED_EDGE('',*,*,#142,.T.);
#23=ORIENTED_EDGE('',*,*,#143,.T.);
#24=ORIENTED_EDGE('',*,*,#144,.T.);
#25=ORIENTED_EDGE('',*,*,#141,.F.);
#26=ORIENTED_EDGE('',*,*,#145,.F.);
#27=ORIENTED_EDGE('',*,*,#146,.F.);
#28=ORIENTED_EDGE('',*,*,#147,.T.);
#29=ORIENTED_EDGE('',*,*,#142,.F.);
#30=ORIENTED_EDGE('',*,*,#144,.F.);
#31=ORIENTED_EDGE('',*,*,#148,.F.);
#32=ORIENTED_EDGE('',*,*,#149,.F.);
#33=ORIENTED_EDGE('',*,*,#143,.F.);
#34=ORIENTED_EDGE('',*,*,#147,.F.);
#35=ORIENTED_EDGE('',*,*,#150,.F.);
#36=ORIENTED_EDGE('',*,*,#145,.T.);
#37=ORIENTED_EDGE('',*,*,#140,.F.);
#38=ORIENTED_EDGE('',*,*,#149,.T.);
#39=ORIENTED_EDGE('',*,*,#151,.F.);
#40=ORIENTED_EDGE('',*,*,#151,.T.);
#41=ORIENTED_EDGE('',*,*,#150,.T.);
#42=ORIENTED_EDGE('',*,*,#148,.T.);
#43=ORIENTED_EDGE('',*,*,#146,.T.);
#44=ORIENTED_EDGE('',*,*,#152,.T.);
#45=ORIENTED_EDGE('',*,*,#153,.T.);
#46=ORIENTED_EDGE('',*,*,#154,.T.);
#47=ORIENTED_EDGE('',*,*,#155,.T.);
#48=ORIENTED_EDGE('',*,*,#156,.T.);
#49=ORIENTED_EDGE('',*,*,#153,.F.);
#50=ORIENTED_EDGE('',*,*,#157,.F.);
#51=ORIENTED_EDGE('',*,*,#158,.F.);
#52=ORIENTED_EDGE('',*,*,#159,.T.);
#53=ORIENTED_EDGE('',*,*,#154,.F.);
#54=ORIENTED_EDGE('',*,*,#156,.F.);
#55=ORIENTED_EDGE('',*,*,#160,.F.);
#56=ORIENTED_EDGE('',*,*,#161,.F.);
#57=ORIENTED_EDGE('',*,*,#155,.F.);
#58=ORIENTED_EDGE('',*,*,#159,.F.);
#59=ORIENTED_EDGE('',*,*,#162,.F.);
#60=ORIENTED_EDGE('',*,*,#157,.T.);
#61=ORIENTED_EDGE('',*,*,#152,.F.);
#62=ORIENTED_EDGE('',*,*,#161,.T.);
#63=ORIENTED_EDGE('',*,*,#163,.F.);
#64=ORIENTED_EDGE('',*,*,#163,.T.);
#65=ORIENTED_EDGE('',*,*,#162,.T.);
#66=ORIENTED_EDGE('',*,*,#160,.T.);
#67=ORIENTED_EDGE('',*,*,#158,.T.);
#68=ORIENTED_EDGE('',*,*,#164,.T.);
#69=ORIENTED_EDGE('',*,*,#165,.T.);
#70=ORIENTED_EDGE('',*,*,#166,.T.);
#71=ORIENTED_EDGE('',*,*,#167,.T.);
#72=ORIENTED_EDGE('',*,*,#168,.T.);
#73=ORIENTED_EDGE('',*,*,#165,.F.);
#74=ORIENTED_EDGE('',*,*,#169,.F.);
#75=ORIENTED_EDGE('',*,*,#170,.F.);
#76=ORIENTED_EDGE('',*,*,#171,.T.);
#77=ORIENTED_EDGE('',*,*,#166,.F.);
#78=ORIENTED_EDGE('',*,*,#168,.F.);
#79=ORIENTED_EDGE('',*,*,#172,.F.);
#80=ORIENTED_EDGE('',*,*,#173,.F.);
#81=ORIENTED_EDGE('',*,*,#167,.F.);
#82=ORIENTED_EDGE('',*,*,#171,.F.);
#83=ORIENTED_EDGE('',*,*,#174,.F.);
#84=ORIENTED_EDGE('',*,*,#169,.T.);
#85=ORIENTED_EDGE('',*,*,#164,.F.);
#86=ORIENTED_EDGE('',*,*,#173,.T.);
#87=ORIENTED_EDGE('',*,*,#175,.F.);
#88=ORIENTED_EDGE('',*,*,#175,.T.);
#89=ORIENTED_EDGE('',*,*,#174,.T.);
#90=ORIENTED_EDGE('',*,*,#172,.T.);
#91=ORIENTED_EDGE('',*,*,#170,.T.);
#92=ORIENTED_EDGE('',*,*,#176,.T.);
#93=ORIENTED_EDGE('',*,*,#177,.T.);
#94=ORIENTED_EDGE('',*,*,#178,.T.);
#95=ORIENTED_EDGE('',*,*,#179,.T.);
#96=ORIENTED_EDGE('',*,*,#180,.T.);
#97=ORIENTED_EDGE('',*,*,#177,.F.);
#98=ORIENTED_EDGE('',*,*,#181,.F.);
#99=ORIENTED_EDGE('',*,*,#182,.F.);
#100=ORIENTED_EDGE('',*,*,#183,.T.);
#101=ORIENTED_EDGE('',*,*,#178,.F.);
#102=ORIENTED_EDGE('',*,*,#180,.F.);
#103=ORIENTED_EDGE('',*,*,#184,.F.);
#104=ORIENTED_EDGE('',*,*,#185,.F.);
#105=ORIENTED_EDGE('',*,*,#179,.F.);
#106=ORIENTED_EDGE('',*,*,#183,.F.);
#107=ORIENTED_EDGE('',*,*,#186,.F.);
#108=ORIENTED_EDGE('',*,*,#181,.T.);
#109=ORIENTED_EDGE('',*,*,#176,.F.);
#110=ORIENTED_EDGE('',*,*,#185,.T.);
#111=ORIENTED_EDGE('',*,*,#187,.F.);
#112=ORIENTED_EDGE('',*,*,#187,.T.);
#113=ORIENTED_EDGE('',*,*,#186,.T.);
#114=ORIENTED_EDGE('',*,*,#184,.T.);
#115=ORIENTED_EDGE('',*,*,#182,.T.);
#116=ORIENTED_EDGE('',*,*,#188,.T.);
#117=ORIENTED_EDGE('',*,*,#189,.T.);
#118=ORIENTED_EDGE('',*,*,#190,.T.);
#119=ORIENTED_EDGE('',*,*,#191,.T.);
#120=ORIENTED_EDGE('',*,*,#192,.T.);
#121=ORIENTED_EDGE('',*,*,#189,.F.);
#122=ORIENTED_EDGE('',*,*,#193,.F.);
#123=ORIENTED_EDGE('',*,*,#194,.F.);
#124=ORIENTED_EDGE('',*,*,#195,.T.);
#125=ORIENTED_EDGE('',*,*,#190,.F.);
#126=ORIENTED_EDGE('',*,*,#192,.F.);
#127=ORIENTED_EDGE('',*,*,#196,.F.);
#128=ORIENTED_EDGE('',*,*,#197,.F.);
#129=ORIENTED_EDGE('',*,*,#191,.F.);
#130=ORIENTED_EDGE('',*,*,#195,.F.);
#131=ORIENTED_EDGE('',*,*,#198,.F.);
#132=ORIENTED_EDGE('',*,*,#193,.T.);
#133=ORIENTED_EDGE('',*,*,#188,.F.);
#134=ORIENTED_EDGE('',*,*,#197,.T.);
#135=ORIENTED_EDGE('',*,*,#199,.F.);
#136=ORIENTED_EDGE('',*,*,#199,.T.);
#137=ORIENTED_EDGE('',*,*,#198,.T.);
#138=ORIENTED_EDGE('',*,*,#196,.T.);
#139=ORIENTED_EDGE('',*,*,#194,.T.);
#140=EDGE_CURVE('',#200,#201,#240,.T.);
#141=EDGE_CURVE('',#201,#202,#241,.T.);
#142=EDGE_CURVE('',#202,#203,#242,.T.);
#143=EDGE_CURVE('',#203,#200,#243,.T.);
#144=EDGE_CURVE('',#204,#202,#244,.T.);
#145=EDGE_CURVE('',#205,#201,#245,.F.);
#146=EDGE_CURVE('',#204,#205,#246,.F.);
#147=EDGE_CURVE('',#206,#203,#247,.T.);
#148=EDGE_CURVE('',#206,#204,#248,.F.);
#149=EDGE_CURVE('',#200,#207,#249,.F.);
#150=EDGE_CURVE('',#207,#206,#250,.F.);
#151=EDGE_CURVE('',#205,#207,#251,.F.);
#152=EDGE_CURVE('',#208,#209,#252,.T.);
#153=EDGE_CURVE('',#209,#210,#253,.T.);
#154=EDGE_CURVE('',#210,#211,#254,.T.);
#155=EDGE_CURVE('',#211,#208,#255,.T.);
#156=EDGE_CURVE('',#212,#210,#256,.T.);
#157=EDGE_CURVE('',#213,#209,#257,.F.);
#158=EDGE_CURVE('',#212,#213,#258,.F.);
#159=EDGE_CURVE('',#214,#211,#259,.T.);
#160=EDGE_CURVE('',#214,#212,#260,.F.);
#161=EDGE_CURVE('',#208,#215,#261,.F.);
#162=EDGE_CURVE('',#215,#214,#262,.F.);
#163=EDGE_CURVE('',#213,#215,#263,.F.);
#164=EDGE_CURVE('',#216,#217,#264,.T.);
#165=EDGE_CURVE('',#217,#218,#265,.T.);
#166=EDGE_CURVE('',#218,#219,#266,.T.);
#167=EDGE_CURVE('',#219,#216,#267,.T.);
#168=EDGE_CURVE('',#220,#218,#268,.T.);
#169=EDGE_CURVE('',#221,#217,#269,.F.);
#170=EDGE_CURVE('',#220,#221,#270,.F.);
#171=EDGE_CURVE('',#222,#219,#271,.T.);
#172=EDGE_CURVE('',#222,#220,#272,.F.);
#173=EDGE_CURVE('',#216,#223,#273,.F.);
#174=EDGE_CURVE('',#223,#222,#274,.F.);
#175=EDGE_CURVE('',#221,#223,#275,.F.);
#176=EDGE_CURVE('',#224,#225,#276,.T.);
#177=EDGE_CURVE('',#225,#226,#277,.T.);
#178=EDGE_CURVE('',#226,#227,#278,.T.);
#179=EDGE_CURVE('',#227,#224,#279,.T.);
#180=EDGE_CURVE('',#228,#226,#280,.T.);
#181=EDGE_CURVE('',#229,#225,#281,.F.);
#182=EDGE_CURVE('',#228,#229,#282,.F.);
#183=EDGE_CURVE('',#230,#227,#283,.T.);
#184=EDGE_CURVE('',#230,#228,#284,.F.);
#185=EDGE_CURVE('',#224,#231,#285,.F.);
#186=EDGE_CURVE('',#231,#230,#286,.F.);
#187=EDGE_CURVE('',#229,#231,#287,.F.);
#188=EDGE_CURVE('',#232,#233,#288,.T.);
#189=EDGE_CURVE('',#233,#234,#289,.T.);
#190=EDGE_CURVE('',#234,#235,#290,.T.);
#191=EDGE_CURVE('',#235,#232,#291,.T.);
#192=EDGE_CURVE('',#236,#234,#292,.T.);
#193=EDGE_CURVE('',#237,#233,#293,.F.);
#194=EDGE_CURVE('',#236,#237,#294,.F.);
#195=EDGE_CURVE('',#238,#235,#295,.T.);
#196=EDGE_CURVE('',#238,#236,#296,.F.);
#197=EDGE_CURVE('',#232,#239,#297,.F.);
#198=EDGE_CURVE('',#239,#238,#298,.F.);
#199=EDGE_CURVE('',#237,#239,#299,.F.);
#200=VERTEX_POINT('',#587);
#201=VERTEX_POINT('',#588);
#202=VERTEX_POINT('',#593);
#203=VERTEX_POINT('',#598);
#204=VERTEX_POINT('',#608);
#205=VERTEX_POINT('',#613);
#206=VERTEX_POINT('',#623);
#207=VERTEX_POINT('',#633);
#208=VERTEX_POINT('',#650);
#209=VERTEX_POINT('',#651);
#210=VERTEX_POINT('',#656);
#211=VERTEX_POINT('',#661);
#212=VERTEX_POINT('',#671);
#213=VERTEX_POINT('',#676);
#214=VERTEX_POINT('',#686);
#215=VERTEX_POINT('',#696);
#216=VERTEX_POINT('',#713);
#217=VERTEX_POINT('',#714);
#218=VERTEX_POINT('',#719);
#219=VERTEX_POINT('',#724);
#220=VERTEX_POINT('',#734);
#221=VERTEX_POINT('',#739);
#222=VERTEX_POINT('',#749);
#223=VERTEX_POINT('',#759);
#224=VERTEX_POINT('',#776);
#225=VERTEX_POINT('',#777);
#226=VERTEX_POINT('',#782);
#227=VERTEX_POINT('',#787);
#228=VERTEX_POINT('',#797);
#229=VERTEX_POINT('',#802);
#230=VERTEX_POINT('',#812);
#231=VERTEX_POINT('',#822);
#232=VERTEX_POINT('',#839);
#233=VERTEX_POINT('',#840);
#234=VERTEX_POINT('',#845);
#235=VERTEX_POINT('',#850);
#236=VERTEX_POINT('',#860);
#237=VERTEX_POINT('',#865);
#238=VERTEX_POINT('',#875);
#239=VERTEX_POINT('',#885);
#240=B_SPLINE_CURVE_WITH_KNOTS('',3,(#583,#584,#585,#586),.UNSPECIFIED.,
 .F.,.F.,(4,4),(0.,1699.99999999961),.UNSPECIFIED.);
#241=B_SPLINE_CURVE_WITH_KNOTS('',3,(#589,#590,#591,#592),.UNSPECIFIED.,
 .F.,.F.,(4,4),(0.,200.),.UNSPECIFIED.);
#242=B_SPLINE_CURVE_WITH_KNOTS('',3,(#594,#595,#596,#597),.UNSPECIFIED.,
 .F.,.F.,(4,4),(0.,1700.),.UNSPECIFIED.);
#243=B_SPLINE_CURVE_WITH_KNOTS('',3,(#599,#600,#601,#602),.UNSPECIFIED.,
 .F.,.F.,(4,4),(0.,199.999999999999),.UNSPECIFIED.);
#244=B_SPLINE_CURVE_WITH_KNOTS('',3,(#604,#605,#606,#607),.UNSPECIFIED.,
 .F.,.F.,(4,4),(0.,6.4),.UNSPECIFIED.);
#245=B_SPLINE_CURVE_WITH_KNOTS('',3,(#609,#610,#611,#612),.UNSPECIFIED.,
 .F.,.F.,(4,4),(-6.4,0.),.UNSPECIFIED.);
#246=B_SPLINE_CURVE_WITH_KNOTS('',3,(#614,#615,#616,#617),.UNSPECIFIED.,
 .F.,.F.,(4,4),(-200.,0.),.UNSPECIFIED.);
#247=B_SPLINE_CURVE_WITH_KNOTS('',3,(#619,#620,#621,#622),.UNSPECIFIED.,
 .F.,.F.,(4,4),(0.,6.4),.UNSPECIFIED.);
#248=B_SPLINE_CURVE_WITH_KNOTS('',3,(#624,#625,#626,#627),.UNSPECIFIED.,
 .F.,.F.,(4,4),(-1700.00000000038,0.),.UNSPECIFIED.);
#249=B_SPLINE_CURVE_WITH_KNOTS('',3,(#629,#630,#631,#632),.UNSPECIFIED.,
 .F.,.F.,(4,4),(-6.40000000000001,0.),.UNSPECIFIED.);
#250=B_SPLINE_CURVE_WITH_KNOTS('',3,(#634,#635,#636,#637),.UNSPECIFIED.,
 .F.,.F.,(4,4),(-199.999999999999,0.),.UNSPECIFIED.);
#251=B_SPLINE_CURVE_WITH_KNOTS('',3,(#639,#640,#641,#642),.UNSPECIFIED.,
 .F.,.F.,(4,4),(-1700.00000000038,0.),.UNSPECIFIED.);
#252=B_SPLINE_CURVE_WITH_KNOTS('',3,(#646,#647,#648,#649),.UNSPECIFIED.,
 .F.,.F.,(4,4),(0.,1699.99999999961),.UNSPECIFIED.);
#253=B_SPLINE_CURVE_WITH_KNOTS('',3,(#652,#653,#654,#655),.UNSPECIFIED.,
 .F.,.F.,(4,4),(0.,200.),.UNSPECIFIED.);
#254=B_SPLINE_CURVE_WITH_KNOTS('',3,(#657,#658,#659,#660),.UNSPECIFIED.,
 .F.,.F.,(4,4),(0.,1700.),.UNSPECIFIED.);
#255=B_SPLINE_CURVE_WITH_KNOTS('',3,(#662,#663,#664,#665),.UNSPECIFIED.,
 .F.,.F.,(4,4),(0.,199.999999999999),.UNSPECIFIED.);
#256=B_SPLINE_CURVE_WITH_KNOTS('',3,(#667,#668,#669,#670),.UNSPECIFIED.,
 .F.,.F.,(4,4),(0.,6.4),.UNSPECIFIED.);
#257=B_SPLINE_CURVE_WITH_KNOTS('',3,(#672,#673,#674,#675),.UNSPECIFIED.,
 .F.,.F.,(4,4),(-6.4,0.),.UNSPECIFIED.);
#258=B_SPLINE_CURVE_WITH_KNOTS('',3,(#677,#678,#679,#680),.UNSPECIFIED.,
 .F.,.F.,(4,4),(-200.,0.),.UNSPECIFIED.);
#259=B_SPLINE_CURVE_WITH_KNOTS('',3,(#682,#683,#684,#685),.UNSPECIFIED.,
 .F.,.F.,(4,4),(0.,6.4),.UNSPECIFIED.);
#260=B_SPLINE_CURVE_WITH_KNOTS('',3,(#687,#688,#689,#690),.UNSPECIFIED.,
 .F.,.F.,(4,4),(-1700.00000000038,0.),.UNSPECIFIED.);
#261=B_SPLINE_CURVE_WITH_KNOTS('',3,(#692,#693,#694,#695),.UNSPECIFIED.,
 .F.,.F.,(4,4),(-6.40000000000001,0.),.UNSPECIFIED.);
#262=B_SPLINE_CURVE_WITH_KNOTS('',3,(#697,#698,#699,#700),.UNSPECIFIED.,
 .F.,.F.,(4,4),(-199.999999999999,0.),.UNSPECIFIED.);
#263=B_SPLINE_CURVE_WITH_KNOTS('',3,(#702,#703,#704,#705),.UNSPECIFIED.,
 .F.,.F.,(4,4),(-1700.00000000038,0.),.UNSPECIFIED.);
#264=B_SPLINE_CURVE_WITH_KNOTS('',3,(#709,#710,#711,#712),.UNSPECIFIED.,
 .F.,.F.,(4,4),(0.,1699.99999999961),.UNSPECIFIED.);
#265=B_SPLINE_CURVE_WITH_KNOTS('',3,(#715,#716,#717,#718),.UNSPECIFIED.,
 .F.,.F.,(4,4),(0.,200.),.UNSPECIFIED.);
#266=B_SPLINE_CURVE_WITH_KNOTS('',3,(#720,#721,#722,#723),.UNSPECIFIED.,
 .F.,.F.,(4,4),(0.,1700.),.UNSPECIFIED.);
#267=B_SPLINE_CURVE_WITH_KNOTS('',3,(#725,#726,#727,#728),.UNSPECIFIED.,
 .F.,.F.,(4,4),(0.,199.999999999999),.UNSPECIFIED.);
#268=B_SPLINE_CURVE_WITH_KNOTS('',3,(#730,#731,#732,#733),.UNSPECIFIED.,
 .F.,.F.,(4,4),(0.,6.4),.UNSPECIFIED.);
#269=B_SPLINE_CURVE_WITH_KNOTS('',3,(#735,#736,#737,#738),.UNSPECIFIED.,
 .F.,.F.,(4,4),(-6.4,0.),.UNSPECIFIED.);
#270=B_SPLINE_CURVE_WITH_KNOTS('',3,(#740,#741,#742,#743),.UNSPECIFIED.,
 .F.,.F.,(4,4),(-200.,0.),.UNSPECIFIED.);
#271=B_SPLINE_CURVE_WITH_KNOTS('',3,(#745,#746,#747,#748),.UNSPECIFIED.,
 .F.,.F.,(4,4),(0.,6.4),.UNSPECIFIED.);
#272=B_SPLINE_CURVE_WITH_KNOTS('',3,(#750,#751,#752,#753),.UNSPECIFIED.,
 .F.,.F.,(4,4),(-1700.00000000038,0.),.UNSPECIFIED.);
#273=B_SPLINE_CURVE_WITH_KNOTS('',3,(#755,#756,#757,#758),.UNSPECIFIED.,
 .F.,.F.,(4,4),(-6.40000000000001,0.),.UNSPECIFIED.);
#274=B_SPLINE_CURVE_WITH_KNOTS('',3,(#760,#761,#762,#763),.UNSPECIFIED.,
 .F.,.F.,(4,4),(-199.999999999999,0.),.UNSPECIFIED.);
#275=B_SPLINE_CURVE_WITH_KNOTS('',3,(#765,#766,#767,#768),.UNSPECIFIED.,
 .F.,.F.,(4,4),(-1700.00000000038,0.),.UNSPECIFIED.);
#276=B_SPLINE_CURVE_WITH_KNOTS('',3,(#772,#773,#774,#775),.UNSPECIFIED.,
 .F.,.F.,(4,4),(0.,1699.99999999961),.UNSPECIFIED.);
#277=B_SPLINE_CURVE_WITH_KNOTS('',3,(#778,#779,#780,#781),.UNSPECIFIED.,
 .F.,.F.,(4,4),(0.,200.),.UNSPECIFIED.);
#278=B_SPLINE_CURVE_WITH_KNOTS('',3,(#783,#784,#785,#786),.UNSPECIFIED.,
 .F.,.F.,(4,4),(0.,1700.),.UNSPECIFIED.);
#279=B_SPLINE_CURVE_WITH_KNOTS('',3,(#788,#789,#790,#791),.UNSPECIFIED.,
 .F.,.F.,(4,4),(0.,199.999999999999),.UNSPECIFIED.);
#280=B_SPLINE_CURVE_WITH_KNOTS('',3,(#793,#794,#795,#796),.UNSPECIFIED.,
 .F.,.F.,(4,4),(0.,6.4),.UNSPECIFIED.);
#281=B_SPLINE_CURVE_WITH_KNOTS('',3,(#798,#799,#800,#801),.UNSPECIFIED.,
 .F.,.F.,(4,4),(-6.4,0.),.UNSPECIFIED.);
#282=B_SPLINE_CURVE_WITH_KNOTS('',3,(#803,#804,#805,#806),.UNSPECIFIED.,
 .F.,.F.,(4,4),(-200.,0.),.UNSPECIFIED.);
#283=B_SPLINE_CURVE_WITH_KNOTS('',3,(#808,#809,#810,#811),.UNSPECIFIED.,
 .F.,.F.,(4,4),(0.,6.4),.UNSPECIFIED.);
#284=B_SPLINE_CURVE_WITH_KNOTS('',3,(#813,#814,#815,#816),.UNSPECIFIED.,
 .F.,.F.,(4,4),(-1700.00000000038,0.),.UNSPECIFIED.);
#285=B_SPLINE_CURVE_WITH_KNOTS('',3,(#818,#819,#820,#821),.UNSPECIFIED.,
 .F.,.F.,(4,4),(-6.40000000000001,0.),.UNSPECIFIED.);
#286=B_SPLINE_CURVE_WITH_KNOTS('',3,(#823,#824,#825,#826),.UNSPECIFIED.,
 .F.,.F.,(4,4),(-199.999999999999,0.),.UNSPECIFIED.);
#287=B_SPLINE_CURVE_WITH_KNOTS('',3,(#828,#829,#830,#831),.UNSPECIFIED.,
 .F.,.F.,(4,4),(-1700.00000000038,0.),.UNSPECIFIED.);
#288=B_SPLINE_CURVE_WITH_KNOTS('',3,(#835,#836,#837,#838),.UNSPECIFIED.,
 .F.,.F.,(4,4),(0.,1699.99999999961),.UNSPECIFIED.);
#289=B_SPLINE_CURVE_WITH_KNOTS('',3,(#841,#842,#843,#844),.UNSPECIFIED.,
 .F.,.F.,(4,4),(0.,200.),.UNSPECIFIED.);
#290=B_SPLINE_CURVE_WITH_KNOTS('',3,(#846,#847,#848,#849),.UNSPECIFIED.,
 .F.,.F.,(4,4),(0.,1700.),.UNSPECIFIED.);
#291=B_SPLINE_CURVE_WITH_KNOTS('',3,(#851,#852,#853,#854),.UNSPECIFIED.,
 .F.,.F.,(4,4),(0.,199.999999999999),.UNSPECIFIED.);
#292=B_SPLINE_CURVE_WITH_KNOTS('',3,(#856,#857,#858,#859),.UNSPECIFIED.,
 .F.,.F.,(4,4),(0.,6.4),.UNSPECIFIED.);
#293=B_SPLINE_CURVE_WITH_KNOTS('',3,(#861,#862,#863,#864),.UNSPECIFIED.,
 .F.,.F.,(4,4),(-6.4,0.),.UNSPECIFIED.);
#294=B_SPLINE_CURVE_WITH_KNOTS('',3,(#866,#867,#868,#869),.UNSPECIFIED.,
 .F.,.F.,(4,4),(-200.,0.),.UNSPECIFIED.);
#295=B_SPLINE_CURVE_WITH_KNOTS('',3,(#871,#872,#873,#874),.UNSPECIFIED.,
 .F.,.F.,(4,4),(0.,6.4),.UNSPECIFIED.);
#296=B_SPLINE_CURVE_WITH_KNOTS('',3,(#876,#877,#878,#879),.UNSPECIFIED.,
 .F.,.F.,(4,4),(-1700.00000000038,0.),.UNSPECIFIED.);
#297=B_SPLINE_CURVE_WITH_KNOTS('',3,(#881,#882,#883,#884),.UNSPECIFIED.,
 .F.,.F.,(4,4),(-6.40000000000001,0.),.UNSPECIFIED.);
#298=B_SPLINE_CURVE_WITH_KNOTS('',3,(#886,#887,#888,#889),.UNSPECIFIED.,
 .F.,.F.,(4,4),(-199.999999999999,0.),.UNSPECIFIED.);
#299=B_SPLINE_CURVE_WITH_KNOTS('',3,(#891,#892,#893,#894),.UNSPECIFIED.,
 .F.,.F.,(4,4),(-1700.00000000038,0.),.UNSPECIFIED.);
#300=EDGE_LOOP('',(#20,#21,#22,#23));
#301=EDGE_LOOP('',(#24,#25,#26,#27));
#302=EDGE_LOOP('',(#28,#29,#30,#31));
#303=EDGE_LOOP('',(#32,#33,#34,#35));
#304=EDGE_LOOP('',(#36,#37,#38,#39));
#305=EDGE_LOOP('',(#40,#41,#42,#43));
#306=EDGE_LOOP('',(#44,#45,#46,#47));
#307=EDGE_LOOP('',(#48,#49,#50,#51));
#308=EDGE_LOOP('',(#52,#53,#54,#55));
#309=EDGE_LOOP('',(#56,#57,#58,#59));
#310=EDGE_LOOP('',(#60,#61,#62,#63));
#311=EDGE_LOOP('',(#64,#65,#66,#67));
#312=EDGE_LOOP('',(#68,#69,#70,#71));
#313=EDGE_LOOP('',(#72,#73,#74,#75));
#314=EDGE_LOOP('',(#76,#77,#78,#79));
#315=EDGE_LOOP('',(#80,#81,#82,#83));
#316=EDGE_LOOP('',(#84,#85,#86,#87));
#317=EDGE_LOOP('',(#88,#89,#90,#91));
#318=EDGE_LOOP('',(#92,#93,#94,#95));
#319=EDGE_LOOP('',(#96,#97,#98,#99));
#320=EDGE_LOOP('',(#100,#101,#102,#103));
#321=EDGE_LOOP('',(#104,#105,#106,#107));
#322=EDGE_LOOP('',(#108,#109,#110,#111));
#323=EDGE_LOOP('',(#112,#113,#114,#115));
#324=EDGE_LOOP('',(#116,#117,#118,#119));
#325=EDGE_LOOP('',(#120,#121,#122,#123));
#326=EDGE_LOOP('',(#124,#125,#126,#127));
#327=EDGE_LOOP('',(#128,#129,#130,#131));
#328=EDGE_LOOP('',(#132,#133,#134,#135));
#329=EDGE_LOOP('',(#136,#137,#138,#139));
#330=FACE_BOUND('',#300,.T.);
#331=FACE_BOUND('',#301,.T.);
#332=FACE_BOUND('',#302,.T.);
#333=FACE_BOUND('',#303,.T.);
#334=FACE_BOUND('',#304,.T.);
#335=FACE_BOUND('',#305,.T.);
#336=FACE_BOUND('',#306,.T.);
#337=FACE_BOUND('',#307,.T.);
#338=FACE_BOUND('',#308,.T.);
#339=FACE_BOUND('',#309,.T.);
#340=FACE_BOUND('',#310,.T.);
#341=FACE_BOUND('',#311,.T.);
#342=FACE_BOUND('',#312,.T.);
#343=FACE_BOUND('',#313,.T.);
#344=FACE_BOUND('',#314,.T.);
#345=FACE_BOUND('',#315,.T.);
#346=FACE_BOUND('',#316,.T.);
#347=FACE_BOUND('',#317,.T.);
#348=FACE_BOUND('',#318,.T.);
#349=FACE_BOUND('',#319,.T.);
#350=FACE_BOUND('',#320,.T.);
#351=FACE_BOUND('',#321,.T.);
#352=FACE_BOUND('',#322,.T.);
#353=FACE_BOUND('',#323,.T.);
#354=FACE_BOUND('',#324,.T.);
#355=FACE_BOUND('',#325,.T.);
#356=FACE_BOUND('',#326,.T.);
#357=FACE_BOUND('',#327,.T.);
#358=FACE_BOUND('',#328,.T.);
#359=FACE_BOUND('',#329,.T.);
#360=PLANE('',#477);
#361=PLANE('',#478);
#362=PLANE('',#479);
#363=PLANE('',#480);
#364=PLANE('',#481);
#365=PLANE('',#482);
#366=PLANE('',#484);
#367=PLANE('',#485);
#368=PLANE('',#486);
#369=PLANE('',#487);
#370=PLANE('',#488);
#371=PLANE('',#489);
#372=PLANE('',#491);
#373=PLANE('',#492);
#374=PLANE('',#493);
#375=PLANE('',#494);
#376=PLANE('',#495);
#377=PLANE('',#496);
#378=PLANE('',#498);
#379=PLANE('',#499);
#380=PLANE('',#500);
#381=PLANE('',#501);
#382=PLANE('',#502);
#383=PLANE('',#503);
#384=PLANE('',#505);
#385=PLANE('',#506);
#386=PLANE('',#507);
#387=PLANE('',#508);
#388=PLANE('',#509);
#389=PLANE('',#510);
#390=ADVANCED_FACE('',(#330),#360,.T.);
#391=ADVANCED_FACE('',(#331),#361,.T.);
#392=ADVANCED_FACE('',(#332),#362,.T.);
#393=ADVANCED_FACE('',(#333),#363,.T.);
#394=ADVANCED_FACE('',(#334),#364,.T.);
#395=ADVANCED_FACE('',(#335),#365,.T.);
#396=ADVANCED_FACE('',(#336),#366,.T.);
#397=ADVANCED_FACE('',(#337),#367,.T.);
#398=ADVANCED_FACE('',(#338),#368,.T.);
#399=ADVANCED_FACE('',(#339),#369,.T.);
#400=ADVANCED_FACE('',(#340),#370,.T.);
#401=ADVANCED_FACE('',(#341),#371,.T.);
#402=ADVANCED_FACE('',(#342),#372,.T.);
#403=ADVANCED_FACE('',(#343),#373,.T.);
#404=ADVANCED_FACE('',(#344),#374,.T.);
#405=ADVANCED_FACE('',(#345),#375,.T.);
#406=ADVANCED_FACE('',(#346),#376,.T.);
#407=ADVANCED_FACE('',(#347),#377,.T.);
#408=ADVANCED_FACE('',(#348),#378,.T.);
#409=ADVANCED_FACE('',(#349),#379,.T.);
#410=ADVANCED_FACE('',(#350),#380,.T.);
#411=ADVANCED_FACE('',(#351),#381,.T.);
#412=ADVANCED_FACE('',(#352),#382,.T.);
#413=ADVANCED_FACE('',(#353),#383,.T.);
#414=ADVANCED_FACE('',(#354),#384,.T.);
#415=ADVANCED_FACE('',(#355),#385,.T.);
#416=ADVANCED_FACE('',(#356),#386,.T.);
#417=ADVANCED_FACE('',(#357),#387,.T.);
#418=ADVANCED_FACE('',(#358),#388,.T.);
#419=ADVANCED_FACE('',(#359),#389,.T.);
#420=CLOSED_SHELL('',(#390,#391,#392,#393,#394,#395));
#421=CLOSED_SHELL('',(#396,#397,#398,#399,#400,#401));
#422=CLOSED_SHELL('',(#402,#403,#404,#405,#406,#407));
#423=CLOSED_SHELL('',(#408,#409,#410,#411,#412,#413));
#424=CLOSED_SHELL('',(#414,#415,#416,#417,#418,#419));
#425=STYLED_ITEM('',(#430),#461);
#426=STYLED_ITEM('',(#431),#462);
#427=STYLED_ITEM('',(#432),#463);
#428=STYLED_ITEM('',(#433),#464);
#429=STYLED_ITEM('',(#434),#465);
#430=PRESENTATION_STYLE_ASSIGNMENT((#435));
#431=PRESENTATION_STYLE_ASSIGNMENT((#436));
#432=PRESENTATION_STYLE_ASSIGNMENT((#437));
#433=PRESENTATION_STYLE_ASSIGNMENT((#438));
#434=PRESENTATION_STYLE_ASSIGNMENT((#439));
#435=SURFACE_STYLE_USAGE(.BOTH.,#440);
#436=SURFACE_STYLE_USAGE(.BOTH.,#441);
#437=SURFACE_STYLE_USAGE(.BOTH.,#442);
#438=SURFACE_STYLE_USAGE(.BOTH.,#443);
#439=SURFACE_STYLE_USAGE(.BOTH.,#444);
#440=SURFACE_SIDE_STYLE('',(#445));
#441=SURFACE_SIDE_STYLE('',(#446));
#442=SURFACE_SIDE_STYLE('',(#447));
#443=SURFACE_SIDE_STYLE('',(#448));
#444=SURFACE_SIDE_STYLE('',(#449));
#445=SURFACE_STYLE_FILL_AREA(#450);
#446=SURFACE_STYLE_FILL_AREA(#451);
#447=SURFACE_STYLE_FILL_AREA(#452);
#448=SURFACE_STYLE_FILL_AREA(#453);
#449=SURFACE_STYLE_FILL_AREA(#454);
#450=FILL_AREA_STYLE('',(#455));
#451=FILL_AREA_STYLE('',(#456));
#452=FILL_AREA_STYLE('',(#457));
#453=FILL_AREA_STYLE('',(#458));
#454=FILL_AREA_STYLE('',(#459));
#455=FILL_AREA_STYLE_COLOUR('',#460);
#456=FILL_AREA_STYLE_COLOUR('',#460);
#457=FILL_AREA_STYLE_COLOUR('',#460);
#458=FILL_AREA_STYLE_COLOUR('',#460);
#459=FILL_AREA_STYLE_COLOUR('',#460);
#460=COLOUR_RGB('',0.87843137254902,0.874509803921569,0.858823529411765);
#461=MANIFOLD_SOLID_BREP('QUEBRA VORTEX 5',#420);
#462=MANIFOLD_SOLID_BREP('QUEBRA VORTEX 4',#421);
#463=MANIFOLD_SOLID_BREP('QUEBRA VORTEX 3',#422);
#464=MANIFOLD_SOLID_BREP('QUEBRA VORTEX 2',#423);
#465=MANIFOLD_SOLID_BREP('QUEBRA VORTEX',#424);
#466=SHAPE_DEFINITION_REPRESENTATION(#926,#471);
#467=SHAPE_DEFINITION_REPRESENTATION(#927,#472);
#468=SHAPE_DEFINITION_REPRESENTATION(#928,#473);
#469=SHAPE_DEFINITION_REPRESENTATION(#929,#474);
#470=SHAPE_DEFINITION_REPRESENTATION(#930,#475);
#471=SHAPE_REPRESENTATION('QUEBRA VORTEX 5',(#476),#901);
#472=SHAPE_REPRESENTATION('QUEBRA VORTEX 4',(#483),#902);
#473=SHAPE_REPRESENTATION('QUEBRA VORTEX 3',(#490),#903);
#474=SHAPE_REPRESENTATION('QUEBRA VORTEX 2',(#497),#904);
#475=SHAPE_REPRESENTATION('QUEBRA VORTEX',(#504),#905);
#476=AXIS2_PLACEMENT_3D('',#581,#511,#512);
#477=AXIS2_PLACEMENT_3D('',#582,#513,#514);
#478=AXIS2_PLACEMENT_3D('',#603,#515,#516);
#479=AXIS2_PLACEMENT_3D('',#618,#517,#518);
#480=AXIS2_PLACEMENT_3D('',#628,#519,#520);
#481=AXIS2_PLACEMENT_3D('',#638,#521,#522);
#482=AXIS2_PLACEMENT_3D('',#643,#523,#524);
#483=AXIS2_PLACEMENT_3D('',#644,#525,#526);
#484=AXIS2_PLACEMENT_3D('',#645,#527,#528);
#485=AXIS2_PLACEMENT_3D('',#666,#529,#530);
#486=AXIS2_PLACEMENT_3D('',#681,#531,#532);
#487=AXIS2_PLACEMENT_3D('',#691,#533,#534);
#488=AXIS2_PLACEMENT_3D('',#701,#535,#536);
#489=AXIS2_PLACEMENT_3D('',#706,#537,#538);
#490=AXIS2_PLACEMENT_3D('',#707,#539,#540);
#491=AXIS2_PLACEMENT_3D('',#708,#541,#542);
#492=AXIS2_PLACEMENT_3D('',#729,#543,#544);
#493=AXIS2_PLACEMENT_3D('',#744,#545,#546);
#494=AXIS2_PLACEMENT_3D('',#754,#547,#548);
#495=AXIS2_PLACEMENT_3D('',#764,#549,#550);
#496=AXIS2_PLACEMENT_3D('',#769,#551,#552);
#497=AXIS2_PLACEMENT_3D('',#770,#553,#554);
#498=AXIS2_PLACEMENT_3D('',#771,#555,#556);
#499=AXIS2_PLACEMENT_3D('',#792,#557,#558);
#500=AXIS2_PLACEMENT_3D('',#807,#559,#560);
#501=AXIS2_PLACEMENT_3D('',#817,#561,#562);
#502=AXIS2_PLACEMENT_3D('',#827,#563,#564);
#503=AXIS2_PLACEMENT_3D('',#832,#565,#566);
#504=AXIS2_PLACEMENT_3D('',#833,#567,#568);
#505=AXIS2_PLACEMENT_3D('',#834,#569,#570);
#506=AXIS2_PLACEMENT_3D('',#855,#571,#572);
#507=AXIS2_PLACEMENT_3D('',#870,#573,#574);
#508=AXIS2_PLACEMENT_3D('',#880,#575,#576);
#509=AXIS2_PLACEMENT_3D('',#890,#577,#578);
#510=AXIS2_PLACEMENT_3D('',#895,#579,#580);
#511=DIRECTION('',(0.,0.,1.));
#512=DIRECTION('',(1.,0.,0.));
#513=DIRECTION('',(2.22044604925031E-16,-1.,2.22045E-16));
#514=DIRECTION('',(2.22044604925028E-16,2.22045E-16,1.));
#515=DIRECTION('',(-2.22044604925028E-16,-2.22045E-16,-1.));
#516=DIRECTION('',(1.,2.22044604925031E-16,-2.22044604925028E-16));
#517=DIRECTION('',(1.,2.22044604925031E-16,7.88876016062321E-17));
#518=DIRECTION('',(-7.88876016062321E-17,2.22045E-16,1.));
#519=DIRECTION('',(2.22044604925028E-16,2.22045E-16,1.));
#520=DIRECTION('',(-1.,-2.22044604925031E-16,2.22044604925028E-16));
#521=DIRECTION('',(-1.,-2.22044604925031E-16,3.8086993614986E-16));
#522=DIRECTION('',(-3.8086993614986E-16,-2.22045E-16,-1.));
#523=DIRECTION('',(-2.22044604925031E-16,1.,-2.22045E-16));
#524=DIRECTION('',(-2.22044604925028E-16,-2.22045E-16,-1.));
#525=DIRECTION('',(0.,0.,1.));
#526=DIRECTION('',(1.,0.,0.));
#527=DIRECTION('',(0.57357616436401,-0.819152234736298,-1.70192853756952E-16));
#528=DIRECTION('',(4.72554604925032E-16,1.23119E-16,1.));
#529=DIRECTION('',(-4.72554604925032E-16,-1.23119E-16,-1.));
#530=DIRECTION('',(0.819152234736298,0.57357616436401,-4.577122844396E-16));
#531=DIRECTION('',(0.819152234736298,0.57357616436401,-1.5678007790834E-16));
#532=DIRECTION('',(2.26045315440825E-16,-4.94885407557983E-17,1.));
#533=DIRECTION('',(4.72554604925032E-16,1.23119E-16,1.));
#534=DIRECTION('',(-0.819152234736298,-0.57357616436401,4.577122844396E-16));
#535=DIRECTION('',(-0.819152234736298,-0.57357616436401,6.16537615664432E-16));
#536=DIRECTION('',(-6.02656729930585E-16,-2.14217424287783E-16,-1.));
#537=DIRECTION('',(-0.57357616436401,0.819152234736298,1.70192853756952E-16));
#538=DIRECTION('',(-4.72554604925032E-16,-1.23119E-16,-1.));
#539=DIRECTION('',(0.,0.,1.));
#540=DIRECTION('',(1.,0.,0.));
#541=DIRECTION('',(0.573576164364009,0.819152234736299,-3.02128125244327E-16));
#542=DIRECTION('',(6.02910604925032E-16,-5.3332E-17,1.));
#543=DIRECTION('',(-6.02910604925032E-16,5.3332E-17,-1.));
#544=DIRECTION('',(-0.819152234736299,0.573576164364009,5.24465533368414E-16));
#545=DIRECTION('',(-0.819152234736299,0.573576164364009,8.25397739899674E-16));
#546=DIRECTION('',(8.49419894409239E-16,-2.25939540755798E-16,1.));
#547=DIRECTION('',(6.02910604925032E-16,-5.3332E-17,1.));
#548=DIRECTION('',(0.819152234736299,-0.573576164364009,-5.24465533368414E-16));
#549=DIRECTION('',(0.819152234736299,-0.573576164364009,-3.65640202143582E-16));
#550=DIRECTION('',(-4.72808479919478E-16,-3.77664242877822E-17,-1.));
#551=DIRECTION('',(-0.573576164364009,-0.819152234736299,3.02128125244327E-16));
#552=DIRECTION('',(-6.02910604925032E-16,5.3332E-17,-1.));
#553=DIRECTION('',(0.,0.,1.));
#554=DIRECTION('',(1.,0.,0.));
#555=DIRECTION('',(2.22044604925031E-16,1.,-2.22045E-16));
#556=DIRECTION('',(2.22044604925035E-16,2.22045E-16,1.));
#557=DIRECTION('',(-2.22044604925035E-16,-2.22045E-16,-1.));
#558=DIRECTION('',(-1.,2.22044604925031E-16,2.22044604925035E-16));
#559=DIRECTION('',(-1.,2.22044604925031E-16,5.22976811456296E-16));
#560=DIRECTION('',(5.22976811456296E-16,2.22045E-16,1.));
#561=DIRECTION('',(2.22044604925035E-16,2.22045E-16,1.));
#562=DIRECTION('',(1.,-2.22044604925031E-16,-2.22044604925035E-16));
#563=DIRECTION('',(1.,-2.22044604925031E-16,-6.32192737002034E-17));
#564=DIRECTION('',(-6.32192737002034E-17,-2.22045E-16,-1.));
#565=DIRECTION('',(-2.22044604925031E-16,-1.,2.22045E-16));
#566=DIRECTION('',(-2.22044604925035E-16,-2.22045E-16,-1.));
#567=DIRECTION('',(0.,0.,1.));
#568=DIRECTION('',(1.,0.,0.));
#569=DIRECTION('',(-1.,0.,2.2204460492504E-16));
#570=DIRECTION('',(2.2204460492504E-16,2.22045E-16,1.));
#571=DIRECTION('',(-2.2204460492504E-16,-2.22045E-16,-1.));
#572=DIRECTION('',(4.93038943005807E-32,-1.,2.22045E-16));
#573=DIRECTION('',(1.16124267209035E-31,-1.,5.22977206531261E-16));
#574=DIRECTION('',(2.2204460492504E-16,5.22977206531261E-16,1.));
#575=DIRECTION('',(2.2204460492504E-16,2.22045E-16,1.));
#576=DIRECTION('',(-4.93038943005807E-32,1.,-2.22045E-16));
#577=DIRECTION('',(-1.40375863766742E-32,1.,-6.32196687751684E-17));
#578=DIRECTION('',(-2.2204460492504E-16,-6.32196687751684E-17,-1.));
#579=DIRECTION('',(1.,0.,-2.2204460492504E-16));
#580=DIRECTION('',(-2.2204460492504E-16,-2.22045E-16,-1.));
#581=CARTESIAN_POINT('',(0.,0.,0.));
#582=CARTESIAN_POINT('',(-17.049746,-62.9039039999996,-53.8370780000003));
#583=CARTESIAN_POINT('',(-22.13,-62.9039039999996,-10.6568240000004));
#584=CARTESIAN_POINT('',(-22.13,-62.9039039999996,-25.0501573333337));
#585=CARTESIAN_POINT('',(-22.13,-62.9039039999996,-39.443490666667));
#586=CARTESIAN_POINT('',(-22.13,-62.9039039999996,-53.8368240000003));
#587=CARTESIAN_POINT('',(-22.13,-62.9039039999996,-10.6568240000004));
#588=CARTESIAN_POINT('',(-22.13,-62.9039039999996,-53.8368240000003));
#589=CARTESIAN_POINT('',(-22.13,-62.9039039999996,-53.8368240000003));
#590=CARTESIAN_POINT('',(-20.4366666666667,-62.9039039999996,-53.8368240000003));
#591=CARTESIAN_POINT('',(-18.7433333333333,-62.9039039999996,-53.8368240000003));
#592=CARTESIAN_POINT('',(-17.05,-62.9039039999996,-53.8368240000003));
#593=CARTESIAN_POINT('',(-17.05,-62.9039039999996,-53.8368240000003));
#594=CARTESIAN_POINT('',(-17.05,-62.9039039999996,-53.8368240000003));
#595=CARTESIAN_POINT('',(-17.05,-62.9039039999996,-39.443490666667));
#596=CARTESIAN_POINT('',(-17.05,-62.9039039999996,-25.0501573333337));
#597=CARTESIAN_POINT('',(-17.05,-62.9039039999996,-10.6568240000004));
#598=CARTESIAN_POINT('',(-17.05,-62.9039039999996,-10.6568240000004));
#599=CARTESIAN_POINT('',(-17.05,-62.9039039999996,-10.6568240000004));
#600=CARTESIAN_POINT('',(-18.7433333333333,-62.9039039999996,-10.6568240000004));
#601=CARTESIAN_POINT('',(-20.4366666666667,-62.9039039999996,-10.6568240000004));
#602=CARTESIAN_POINT('',(-22.13,-62.9039039999996,-10.6568240000004));
#603=CARTESIAN_POINT('',(-22.130254,-62.7410899999996,-53.8368240000003));
#604=CARTESIAN_POINT('',(-17.05,-62.7413439999996,-53.8368240000003));
#605=CARTESIAN_POINT('',(-17.05,-62.7955306666662,-53.8368240000003));
#606=CARTESIAN_POINT('',(-17.05,-62.8497173333329,-53.8368240000003));
#607=CARTESIAN_POINT('',(-17.05,-62.9039039999996,-53.8368240000003));
#608=CARTESIAN_POINT('',(-17.05,-62.7413439999996,-53.8368240000003));
#609=CARTESIAN_POINT('',(-22.13,-62.9039039999996,-53.8368240000003));
#610=CARTESIAN_POINT('',(-22.13,-62.8497173333329,-53.8368240000003));
#611=CARTESIAN_POINT('',(-22.13,-62.7955306666662,-53.8368240000003));
#612=CARTESIAN_POINT('',(-22.13,-62.7413439999996,-53.8368240000003));
#613=CARTESIAN_POINT('',(-22.13,-62.7413439999996,-53.8368240000003));
#614=CARTESIAN_POINT('',(-22.13,-62.7413439999996,-53.8368240000003));
#615=CARTESIAN_POINT('',(-20.4366666666667,-62.7413439999996,-53.8368240000003));
#616=CARTESIAN_POINT('',(-18.7433333333333,-62.7413439999996,-53.8368240000003));
#617=CARTESIAN_POINT('',(-17.05,-62.7413439999996,-53.8368240000003));
#618=CARTESIAN_POINT('',(-17.05,-62.7410899999996,-53.8370780000003));
#619=CARTESIAN_POINT('',(-17.05,-62.7413439999996,-10.6568240000004));
#620=CARTESIAN_POINT('',(-17.05,-62.7955306666662,-10.6568240000004));
#621=CARTESIAN_POINT('',(-17.05,-62.8497173333329,-10.6568240000004));
#622=CARTESIAN_POINT('',(-17.05,-62.9039039999996,-10.6568240000004));
#623=CARTESIAN_POINT('',(-17.05,-62.7413439999996,-10.6568240000004));
#624=CARTESIAN_POINT('',(-17.05,-62.7413439999996,-53.8368240000003));
#625=CARTESIAN_POINT('',(-17.05,-62.7413439999996,-39.443490666667));
#626=CARTESIAN_POINT('',(-17.05,-62.7413439999996,-25.0501573333337));
#627=CARTESIAN_POINT('',(-17.05,-62.7413439999996,-10.6568240000004));
#628=CARTESIAN_POINT('',(-17.049746,-62.7410899999996,-10.6568240000004));
#629=CARTESIAN_POINT('',(-22.13,-62.7413439999996,-10.6568240000004));
#630=CARTESIAN_POINT('',(-22.13,-62.7955306666662,-10.6568240000004));
#631=CARTESIAN_POINT('',(-22.13,-62.8497173333329,-10.6568240000004));
#632=CARTESIAN_POINT('',(-22.13,-62.9039039999996,-10.6568240000004));
#633=CARTESIAN_POINT('',(-22.13,-62.7413439999996,-10.6568240000004));
#634=CARTESIAN_POINT('',(-17.05,-62.7413439999996,-10.6568240000004));
#635=CARTESIAN_POINT('',(-18.7433333333333,-62.7413439999996,-10.6568240000004));
#636=CARTESIAN_POINT('',(-20.4366666666667,-62.7413439999996,-10.6568240000004));
#637=CARTESIAN_POINT('',(-22.13,-62.7413439999996,-10.6568240000004));
#638=CARTESIAN_POINT('',(-22.13,-62.7410899999996,-10.6565700000004));
#639=CARTESIAN_POINT('',(-22.13,-62.7413439999996,-10.6568240000004));
#640=CARTESIAN_POINT('',(-22.13,-62.7413439999996,-25.0501573333337));
#641=CARTESIAN_POINT('',(-22.13,-62.7413439999996,-39.443490666667));
#642=CARTESIAN_POINT('',(-22.13,-62.7413439999996,-53.8368240000003));
#643=CARTESIAN_POINT('',(-17.049746,-62.7413439999996,-10.6565700000004));
#644=CARTESIAN_POINT('',(0.,0.,0.));
#645=CARTESIAN_POINT('',(-13.5580115884627,-73.8156915478088,-53.8370780000003));
#646=CARTESIAN_POINT('',(-17.7195130055907,-76.7296041511238,-10.6568240000004));
#647=CARTESIAN_POINT('',(-17.7195130055907,-76.7296041511238,-25.0501573333337));
#648=CARTESIAN_POINT('',(-17.7195130055907,-76.7296041511238,-39.443490666667));
#649=CARTESIAN_POINT('',(-17.7195130055907,-76.7296041511238,-53.8368240000003));
#650=CARTESIAN_POINT('',(-17.7195130055907,-76.7296041511238,-10.6568240000004));
#651=CARTESIAN_POINT('',(-17.7195130055907,-76.7296041511238,-53.8368240000003));
#652=CARTESIAN_POINT('',(-17.7195130055907,-76.7296041511238,-53.8368240000003));
#653=CARTESIAN_POINT('',(-16.3324152214373,-75.7583485128007,-53.8368240000003));
#654=CARTESIAN_POINT('',(-14.9453174372838,-74.7870928744777,-53.8368240000003));
#655=CARTESIAN_POINT('',(-13.5582196531304,-73.8158372361546,-53.8368240000003));
#656=CARTESIAN_POINT('',(-13.5582196531304,-73.8158372361546,-53.8368240000003));
#657=CARTESIAN_POINT('',(-13.5582196531304,-73.8158372361546,-53.8368240000003));
#658=CARTESIAN_POINT('',(-13.5582196531304,-73.8158372361546,-39.443490666667));
#659=CARTESIAN_POINT('',(-13.5582196531304,-73.8158372361546,-25.0501573333337));
#660=CARTESIAN_POINT('',(-13.5582196531303,-73.8158372361546,-10.6568240000004));
#661=CARTESIAN_POINT('',(-13.5582196531303,-73.8158372361546,-10.6568240000004));
#662=CARTESIAN_POINT('',(-13.5582196531303,-73.8158372361546,-10.6568240000004));
#663=CARTESIAN_POINT('',(-14.9453174372838,-74.7870928744777,-10.6568240000004));
#664=CARTESIAN_POINT('',(-16.3324152214373,-75.7583485128007,-10.6568240000004));
#665=CARTESIAN_POINT('',(-17.7195130055907,-76.7296041511238,-10.6568240000004));
#666=CARTESIAN_POINT('',(-17.8131072998831,-76.5963803875232,-53.8368240000003));
#667=CARTESIAN_POINT('',(-13.6514601944094,-73.6826758488758,-53.8368240000003));
#668=CARTESIAN_POINT('',(-13.620380013983,-73.7270629779688,-53.8368240000003));
#669=CARTESIAN_POINT('',(-13.5892998335567,-73.7714501070617,-53.8368240000003));
#670=CARTESIAN_POINT('',(-13.5582196531304,-73.8158372361546,-53.8368240000003));
#671=CARTESIAN_POINT('',(-13.6514601944094,-73.6826758488758,-53.8368240000003));
#672=CARTESIAN_POINT('',(-17.7195130055907,-76.7296041511238,-53.8368240000003));
#673=CARTESIAN_POINT('',(-17.7505931860171,-76.6852170220308,-53.8368240000003));
#674=CARTESIAN_POINT('',(-17.7816733664434,-76.6408298929379,-53.8368240000003));
#675=CARTESIAN_POINT('',(-17.8127535468698,-76.596442763845,-53.8368240000003));
#676=CARTESIAN_POINT('',(-17.8127535468698,-76.596442763845,-53.8368240000003));
#677=CARTESIAN_POINT('',(-17.8127535468698,-76.596442763845,-53.8368240000003));
#678=CARTESIAN_POINT('',(-16.4256557627163,-75.625187125522,-53.8368240000003));
#679=CARTESIAN_POINT('',(-15.0385579785628,-74.6539314871989,-53.8368240000003));
#680=CARTESIAN_POINT('',(-13.6514601944094,-73.6826758488758,-53.8368240000003));
#681=CARTESIAN_POINT('',(-13.6516058827551,-73.6824677842082,-53.8370780000003));
#682=CARTESIAN_POINT('',(-13.6514601944094,-73.6826758488758,-10.6568240000004));
#683=CARTESIAN_POINT('',(-13.620380013983,-73.7270629779688,-10.6568240000004));
#684=CARTESIAN_POINT('',(-13.5892998335567,-73.7714501070617,-10.6568240000004));
#685=CARTESIAN_POINT('',(-13.5582196531303,-73.8158372361546,-10.6568240000004));
#686=CARTESIAN_POINT('',(-13.6514601944094,-73.6826758488759,-10.6568240000004));
#687=CARTESIAN_POINT('',(-13.6514601944094,-73.6826758488758,-53.8368240000003));
#688=CARTESIAN_POINT('',(-13.6514601944094,-73.6826758488758,-39.443490666667));
#689=CARTESIAN_POINT('',(-13.6514601944094,-73.6826758488758,-25.0501573333337));
#690=CARTESIAN_POINT('',(-13.6514601944094,-73.6826758488758,-10.6568240000004));
#691=CARTESIAN_POINT('',(-13.6513978180875,-73.6823220958625,-10.6568240000004));
#692=CARTESIAN_POINT('',(-17.8127535468697,-76.596442763845,-10.6568240000004));
#693=CARTESIAN_POINT('',(-17.7816733664434,-76.6408298929379,-10.6568240000004));
#694=CARTESIAN_POINT('',(-17.7505931860171,-76.6852170220309,-10.6568240000004));
#695=CARTESIAN_POINT('',(-17.7195130055907,-76.7296041511238,-10.6568240000004));
#696=CARTESIAN_POINT('',(-17.8127535468697,-76.596442763845,-10.6568240000004));
#697=CARTESIAN_POINT('',(-13.6514601944094,-73.6826758488759,-10.6568240000004));
#698=CARTESIAN_POINT('',(-15.0385579785628,-74.6539314871989,-10.6568240000004));
#699=CARTESIAN_POINT('',(-16.4256557627163,-75.625187125522,-10.6568240000004));
#700=CARTESIAN_POINT('',(-17.8127535468697,-76.596442763845,-10.6568240000004));
#701=CARTESIAN_POINT('',(-17.8128992352155,-76.5962346991774,-10.6565700000004));
#702=CARTESIAN_POINT('',(-17.8127535468697,-76.596442763845,-10.6568240000004));
#703=CARTESIAN_POINT('',(-17.8127535468697,-76.596442763845,-25.0501573333337));
#704=CARTESIAN_POINT('',(-17.8127535468697,-76.596442763845,-39.443490666667));
#705=CARTESIAN_POINT('',(-17.8127535468698,-76.596442763845,-53.8368240000003));
#706=CARTESIAN_POINT('',(-13.6512521297417,-73.6825301605301,-10.6565700000004));
#707=CARTESIAN_POINT('',(0.,0.,0.));
#708=CARTESIAN_POINT('',(17.6512521297415,-73.6825301605301,-53.8370780000003));
#709=CARTESIAN_POINT('',(21.8127535468696,-76.596442763845,-10.6568240000004));
#710=CARTESIAN_POINT('',(21.8127535468696,-76.596442763845,-25.0501573333337));
#711=CARTESIAN_POINT('',(21.8127535468696,-76.596442763845,-39.443490666667));
#712=CARTESIAN_POINT('',(21.8127535468696,-76.596442763845,-53.8368240000003));
#713=CARTESIAN_POINT('',(21.8127535468696,-76.596442763845,-10.6568240000004));
#714=CARTESIAN_POINT('',(21.8127535468696,-76.596442763845,-53.8368240000003));
#715=CARTESIAN_POINT('',(21.8127535468696,-76.596442763845,-53.8368240000003));
#716=CARTESIAN_POINT('',(20.4256557627161,-75.625187125522,-53.8368240000003));
#717=CARTESIAN_POINT('',(19.0385579785626,-74.6539314871989,-53.8368240000003));
#718=CARTESIAN_POINT('',(17.6514601944092,-73.6826758488759,-53.8368240000003));
#719=CARTESIAN_POINT('',(17.6514601944092,-73.6826758488759,-53.8368240000003));
#720=CARTESIAN_POINT('',(17.6514601944092,-73.6826758488759,-53.8368240000003));
#721=CARTESIAN_POINT('',(17.6514601944092,-73.6826758488759,-39.443490666667));
#722=CARTESIAN_POINT('',(17.6514601944092,-73.6826758488759,-25.0501573333337));
#723=CARTESIAN_POINT('',(17.6514601944092,-73.6826758488759,-10.6568240000004));
#724=CARTESIAN_POINT('',(17.6514601944092,-73.6826758488759,-10.6568240000004));
#725=CARTESIAN_POINT('',(17.6514601944092,-73.6826758488759,-10.6568240000004));
#726=CARTESIAN_POINT('',(19.0385579785627,-74.6539314871989,-10.6568240000004));
#727=CARTESIAN_POINT('',(20.4256557627161,-75.625187125522,-10.6568240000004));
#728=CARTESIAN_POINT('',(21.8127535468696,-76.596442763845,-10.6568240000004));
#729=CARTESIAN_POINT('',(21.7195753819124,-76.7299579041371,-53.8368240000003));
#730=CARTESIAN_POINT('',(17.5582196531302,-73.8158372361546,-53.8368240000003));
#731=CARTESIAN_POINT('',(17.5892998335565,-73.7714501070617,-53.8368240000003));
#732=CARTESIAN_POINT('',(17.6203800139828,-73.7270629779688,-53.8368240000003));
#733=CARTESIAN_POINT('',(17.6514601944092,-73.6826758488759,-53.8368240000003));
#734=CARTESIAN_POINT('',(17.5582196531301,-73.8158372361546,-53.8368240000003));
#735=CARTESIAN_POINT('',(21.8127535468696,-76.596442763845,-53.8368240000003));
#736=CARTESIAN_POINT('',(21.7816733664432,-76.6408298929379,-53.8368240000003));
#737=CARTESIAN_POINT('',(21.7505931860169,-76.6852170220308,-53.8368240000003));
#738=CARTESIAN_POINT('',(21.7195130055905,-76.7296041511238,-53.8368240000003));
#739=CARTESIAN_POINT('',(21.7195130055905,-76.7296041511238,-53.8368240000003));
#740=CARTESIAN_POINT('',(21.7195130055905,-76.7296041511238,-53.8368240000003));
#741=CARTESIAN_POINT('',(20.3324152214371,-75.7583485128007,-53.8368240000003));
#742=CARTESIAN_POINT('',(18.9453174372836,-74.7870928744777,-53.8368240000003));
#743=CARTESIAN_POINT('',(17.5582196531302,-73.8158372361546,-53.8368240000003));
#744=CARTESIAN_POINT('',(17.5580739647844,-73.8160453008222,-53.8370780000003));
#745=CARTESIAN_POINT('',(17.5582196531302,-73.8158372361546,-10.6568240000004));
#746=CARTESIAN_POINT('',(17.5892998335565,-73.7714501070617,-10.6568240000004));
#747=CARTESIAN_POINT('',(17.6203800139829,-73.7270629779688,-10.6568240000004));
#748=CARTESIAN_POINT('',(17.6514601944092,-73.6826758488759,-10.6568240000004));
#749=CARTESIAN_POINT('',(17.5582196531302,-73.8158372361546,-10.6568240000004));
#750=CARTESIAN_POINT('',(17.5582196531302,-73.8158372361546,-53.8368240000003));
#751=CARTESIAN_POINT('',(17.5582196531302,-73.8158372361546,-39.443490666667));
#752=CARTESIAN_POINT('',(17.5582196531302,-73.8158372361546,-25.0501573333337));
#753=CARTESIAN_POINT('',(17.5582196531302,-73.8158372361546,-10.6568240000004));
#754=CARTESIAN_POINT('',(17.5578659001168,-73.8158996124765,-10.6568240000004));
#755=CARTESIAN_POINT('',(21.7195130055906,-76.7296041511238,-10.6568240000004));
#756=CARTESIAN_POINT('',(21.7505931860169,-76.6852170220309,-10.6568240000004));
#757=CARTESIAN_POINT('',(21.7816733664432,-76.6408298929379,-10.6568240000004));
#758=CARTESIAN_POINT('',(21.8127535468696,-76.596442763845,-10.6568240000004));
#759=CARTESIAN_POINT('',(21.7195130055906,-76.7296041511238,-10.6568240000004));
#760=CARTESIAN_POINT('',(17.5582196531302,-73.8158372361546,-10.6568240000004));
#761=CARTESIAN_POINT('',(18.9453174372836,-74.7870928744777,-10.6568240000004));
#762=CARTESIAN_POINT('',(20.3324152214371,-75.7583485128007,-10.6568240000004));
#763=CARTESIAN_POINT('',(21.7195130055906,-76.7296041511238,-10.6568240000004));
#764=CARTESIAN_POINT('',(21.7193673172448,-76.7298122157914,-10.6565700000004));
#765=CARTESIAN_POINT('',(21.7195130055906,-76.7296041511238,-10.6568240000004));
#766=CARTESIAN_POINT('',(21.7195130055906,-76.7296041511237,-25.0501573333337));
#767=CARTESIAN_POINT('',(21.7195130055905,-76.7296041511237,-39.443490666667));
#768=CARTESIAN_POINT('',(21.7195130055905,-76.7296041511238,-53.8368240000003));
#769=CARTESIAN_POINT('',(17.5580115884626,-73.8156915478088,-10.6565700000004));
#770=CARTESIAN_POINT('',(0.,0.,0.));
#771=CARTESIAN_POINT('',(21.049746,-62.7413439999996,-53.8370780000003));
#772=CARTESIAN_POINT('',(26.13,-62.7413439999996,-10.6568240000004));
#773=CARTESIAN_POINT('',(26.13,-62.7413439999996,-25.0501573333337));
#774=CARTESIAN_POINT('',(26.13,-62.7413439999996,-39.443490666667));
#775=CARTESIAN_POINT('',(26.13,-62.7413439999996,-53.8368240000003));
#776=CARTESIAN_POINT('',(26.13,-62.7413439999996,-10.6568240000004));
#777=CARTESIAN_POINT('',(26.13,-62.7413439999996,-53.8368240000003));
#778=CARTESIAN_POINT('',(26.13,-62.7413439999996,-53.8368240000003));
#779=CARTESIAN_POINT('',(24.4366666666667,-62.7413439999996,-53.8368240000003));
#780=CARTESIAN_POINT('',(22.7433333333333,-62.7413439999996,-53.8368240000003));
#781=CARTESIAN_POINT('',(21.05,-62.7413439999996,-53.8368240000003));
#782=CARTESIAN_POINT('',(21.05,-62.7413439999996,-53.8368240000003));
#783=CARTESIAN_POINT('',(21.05,-62.7413439999996,-53.8368240000003));
#784=CARTESIAN_POINT('',(21.05,-62.7413439999996,-39.443490666667));
#785=CARTESIAN_POINT('',(21.05,-62.7413439999996,-25.0501573333337));
#786=CARTESIAN_POINT('',(21.05,-62.7413439999996,-10.6568240000004));
#787=CARTESIAN_POINT('',(21.05,-62.7413439999996,-10.6568240000004));
#788=CARTESIAN_POINT('',(21.05,-62.7413439999996,-10.6568240000004));
#789=CARTESIAN_POINT('',(22.7433333333333,-62.7413439999996,-10.6568240000004));
#790=CARTESIAN_POINT('',(24.4366666666667,-62.7413439999996,-10.6568240000004));
#791=CARTESIAN_POINT('',(26.13,-62.7413439999996,-10.6568240000004));
#792=CARTESIAN_POINT('',(26.130254,-62.9041579999996,-53.8368240000003));
#793=CARTESIAN_POINT('',(21.05,-62.9039039999996,-53.8368240000003));
#794=CARTESIAN_POINT('',(21.05,-62.8497173333329,-53.8368240000003));
#795=CARTESIAN_POINT('',(21.05,-62.7955306666662,-53.8368240000003));
#796=CARTESIAN_POINT('',(21.05,-62.7413439999996,-53.8368240000003));
#797=CARTESIAN_POINT('',(21.05,-62.9039039999996,-53.8368240000003));
#798=CARTESIAN_POINT('',(26.13,-62.7413439999996,-53.8368240000003));
#799=CARTESIAN_POINT('',(26.13,-62.7955306666662,-53.8368240000003));
#800=CARTESIAN_POINT('',(26.13,-62.8497173333329,-53.8368240000003));
#801=CARTESIAN_POINT('',(26.13,-62.9039039999996,-53.8368240000003));
#802=CARTESIAN_POINT('',(26.13,-62.9039039999996,-53.8368240000003));
#803=CARTESIAN_POINT('',(26.13,-62.9039039999996,-53.8368240000003));
#804=CARTESIAN_POINT('',(24.4366666666667,-62.9039039999996,-53.8368240000003));
#805=CARTESIAN_POINT('',(22.7433333333333,-62.9039039999996,-53.8368240000003));
#806=CARTESIAN_POINT('',(21.05,-62.9039039999996,-53.8368240000003));
#807=CARTESIAN_POINT('',(21.05,-62.9041579999996,-53.8370780000003));
#808=CARTESIAN_POINT('',(21.05,-62.9039039999996,-10.6568240000004));
#809=CARTESIAN_POINT('',(21.05,-62.8497173333329,-10.6568240000004));
#810=CARTESIAN_POINT('',(21.05,-62.7955306666662,-10.6568240000004));
#811=CARTESIAN_POINT('',(21.05,-62.7413439999996,-10.6568240000004));
#812=CARTESIAN_POINT('',(21.05,-62.9039039999996,-10.6568240000004));
#813=CARTESIAN_POINT('',(21.05,-62.9039039999996,-53.8368240000003));
#814=CARTESIAN_POINT('',(21.05,-62.9039039999996,-39.443490666667));
#815=CARTESIAN_POINT('',(21.05,-62.9039039999996,-25.0501573333337));
#816=CARTESIAN_POINT('',(21.05,-62.9039039999996,-10.6568240000004));
#817=CARTESIAN_POINT('',(21.049746,-62.9041579999996,-10.6568240000004));
#818=CARTESIAN_POINT('',(26.13,-62.9039039999996,-10.6568240000004));
#819=CARTESIAN_POINT('',(26.13,-62.8497173333329,-10.6568240000004));
#820=CARTESIAN_POINT('',(26.13,-62.7955306666662,-10.6568240000004));
#821=CARTESIAN_POINT('',(26.13,-62.7413439999996,-10.6568240000004));
#822=CARTESIAN_POINT('',(26.13,-62.9039039999996,-10.6568240000004));
#823=CARTESIAN_POINT('',(21.05,-62.9039039999996,-10.6568240000004));
#824=CARTESIAN_POINT('',(22.7433333333334,-62.9039039999996,-10.6568240000004));
#825=CARTESIAN_POINT('',(24.4366666666667,-62.9039039999996,-10.6568240000004));
#826=CARTESIAN_POINT('',(26.13,-62.9039039999996,-10.6568240000004));
#827=CARTESIAN_POINT('',(26.13,-62.9041579999996,-10.6565700000004));
#828=CARTESIAN_POINT('',(26.13,-62.9039039999996,-10.6568240000004));
#829=CARTESIAN_POINT('',(26.13,-62.9039039999996,-25.0501573333337));
#830=CARTESIAN_POINT('',(26.13,-62.9039039999996,-39.443490666667));
#831=CARTESIAN_POINT('',(26.13,-62.9039039999996,-53.8368240000003));
#832=CARTESIAN_POINT('',(21.049746,-62.9039039999996,-10.6565700000004));
#833=CARTESIAN_POINT('',(0.,0.,0.));
#834=CARTESIAN_POINT('',(1.91871999999982,-43.7728780000003,-53.8370780000003));
#835=CARTESIAN_POINT('',(1.91871999999983,-38.6926240000003,-10.6568240000004));
#836=CARTESIAN_POINT('',(1.91871999999982,-38.6926240000003,-25.0501573333337));
#837=CARTESIAN_POINT('',(1.91871999999982,-38.6926240000003,-39.443490666667));
#838=CARTESIAN_POINT('',(1.91871999999982,-38.6926240000003,-53.8368240000003));
#839=CARTESIAN_POINT('',(1.91871999999983,-38.6926240000003,-10.6568240000004));
#840=CARTESIAN_POINT('',(1.91871999999982,-38.6926240000003,-53.8368240000003));
#841=CARTESIAN_POINT('',(1.91871999999982,-38.6926240000003,-53.8368240000003));
#842=CARTESIAN_POINT('',(1.91871999999982,-40.3859573333337,-53.8368240000003));
#843=CARTESIAN_POINT('',(1.91871999999982,-42.079290666667,-53.8368240000003));
#844=CARTESIAN_POINT('',(1.91871999999982,-43.7726240000003,-53.8368240000003));
#845=CARTESIAN_POINT('',(1.91871999999982,-43.7726240000003,-53.8368240000003));
#846=CARTESIAN_POINT('',(1.91871999999982,-43.7726240000003,-53.8368240000003));
#847=CARTESIAN_POINT('',(1.91871999999982,-43.7726240000003,-39.443490666667));
#848=CARTESIAN_POINT('',(1.91871999999982,-43.7726240000003,-25.0501573333337));
#849=CARTESIAN_POINT('',(1.91871999999983,-43.7726240000003,-10.6568240000004));
#850=CARTESIAN_POINT('',(1.91871999999983,-43.7726240000003,-10.6568240000004));
#851=CARTESIAN_POINT('',(1.91871999999983,-43.7726240000003,-10.6568240000004));
#852=CARTESIAN_POINT('',(1.91871999999983,-42.079290666667,-10.6568240000004));
#853=CARTESIAN_POINT('',(1.91871999999983,-40.3859573333336,-10.6568240000004));
#854=CARTESIAN_POINT('',(1.91871999999983,-38.6926240000003,-10.6568240000004));
#855=CARTESIAN_POINT('',(2.08153399999982,-38.6923700000003,-53.8368240000003));
#856=CARTESIAN_POINT('',(2.08127999999982,-43.7726240000003,-53.8368240000003));
#857=CARTESIAN_POINT('',(2.02709333333315,-43.7726240000003,-53.8368240000003));
#858=CARTESIAN_POINT('',(1.97290666666648,-43.7726240000003,-53.8368240000003));
#859=CARTESIAN_POINT('',(1.91871999999982,-43.7726240000003,-53.8368240000003));
#860=CARTESIAN_POINT('',(2.08127999999982,-43.7726240000003,-53.8368240000003));
#861=CARTESIAN_POINT('',(1.91871999999982,-38.6926240000003,-53.8368240000003));
#862=CARTESIAN_POINT('',(1.97290666666648,-38.6926240000003,-53.8368240000003));
#863=CARTESIAN_POINT('',(2.02709333333315,-38.6926240000003,-53.8368240000003));
#864=CARTESIAN_POINT('',(2.08127999999982,-38.6926240000003,-53.8368240000003));
#865=CARTESIAN_POINT('',(2.08127999999982,-38.6926240000003,-53.8368240000003));
#866=CARTESIAN_POINT('',(2.08127999999982,-38.6926240000003,-53.8368240000003));
#867=CARTESIAN_POINT('',(2.08127999999982,-40.3859573333337,-53.8368240000003));
#868=CARTESIAN_POINT('',(2.08127999999982,-42.079290666667,-53.8368240000003));
#869=CARTESIAN_POINT('',(2.08127999999982,-43.7726240000003,-53.8368240000003));
#870=CARTESIAN_POINT('',(2.08153399999982,-43.7726240000003,-53.8370780000003));
#871=CARTESIAN_POINT('',(2.08127999999983,-43.7726240000003,-10.6568240000004));
#872=CARTESIAN_POINT('',(2.02709333333316,-43.7726240000003,-10.6568240000004));
#873=CARTESIAN_POINT('',(1.97290666666649,-43.7726240000003,-10.6568240000004));
#874=CARTESIAN_POINT('',(1.91871999999983,-43.7726240000003,-10.6568240000004));
#875=CARTESIAN_POINT('',(2.08127999999983,-43.7726240000003,-10.6568240000004));
#876=CARTESIAN_POINT('',(2.08127999999982,-43.7726240000003,-53.8368240000003));
#877=CARTESIAN_POINT('',(2.08127999999982,-43.7726240000003,-39.443490666667));
#878=CARTESIAN_POINT('',(2.08127999999982,-43.7726240000003,-25.0501573333337));
#879=CARTESIAN_POINT('',(2.08127999999983,-43.7726240000003,-10.6568240000004));
#880=CARTESIAN_POINT('',(2.08153399999983,-43.7728780000003,-10.6568240000004));
#881=CARTESIAN_POINT('',(2.08127999999983,-38.6926240000003,-10.6568240000004));
#882=CARTESIAN_POINT('',(2.02709333333316,-38.6926240000003,-10.6568240000004));
#883=CARTESIAN_POINT('',(1.97290666666649,-38.6926240000003,-10.6568240000004));
#884=CARTESIAN_POINT('',(1.91871999999983,-38.6926240000003,-10.6568240000004));
#885=CARTESIAN_POINT('',(2.08127999999983,-38.6926240000003,-10.6568240000004));
#886=CARTESIAN_POINT('',(2.08127999999983,-43.7726240000003,-10.6568240000004));
#887=CARTESIAN_POINT('',(2.08127999999983,-42.079290666667,-10.6568240000004));
#888=CARTESIAN_POINT('',(2.08127999999983,-40.3859573333336,-10.6568240000004));
#889=CARTESIAN_POINT('',(2.08127999999983,-38.6926240000003,-10.6568240000004));
#890=CARTESIAN_POINT('',(2.08153399999983,-38.6926240000003,-10.6565700000004));
#891=CARTESIAN_POINT('',(2.08127999999983,-38.6926240000003,-10.6568240000004));
#892=CARTESIAN_POINT('',(2.08127999999982,-38.6926240000003,-25.0501573333337));
#893=CARTESIAN_POINT('',(2.08127999999982,-38.6926240000003,-39.443490666667));
#894=CARTESIAN_POINT('',(2.08127999999982,-38.6926240000003,-53.8368240000003));
#895=CARTESIAN_POINT('',(2.08127999999983,-43.7728780000003,-10.6565700000004));
#896=MECHANICAL_DESIGN_GEOMETRIC_PRESENTATION_REPRESENTATION('',(#425),
#901);
#897=MECHANICAL_DESIGN_GEOMETRIC_PRESENTATION_REPRESENTATION('',(#426),
#902);
#898=MECHANICAL_DESIGN_GEOMETRIC_PRESENTATION_REPRESENTATION('',(#427),
#903);
#899=MECHANICAL_DESIGN_GEOMETRIC_PRESENTATION_REPRESENTATION('',(#428),
#904);
#900=MECHANICAL_DESIGN_GEOMETRIC_PRESENTATION_REPRESENTATION('',(#429),
#905);
#901=(
GEOMETRIC_REPRESENTATION_CONTEXT(3)
GLOBAL_UNCERTAINTY_ASSIGNED_CONTEXT((#906))
GLOBAL_UNIT_ASSIGNED_CONTEXT((#921,#916,#911))
REPRESENTATION_CONTEXT('QUEBRA VORTEX 5','TOP_LEVEL_ASSEMBLY_PART')
);
#902=(
GEOMETRIC_REPRESENTATION_CONTEXT(3)
GLOBAL_UNCERTAINTY_ASSIGNED_CONTEXT((#907))
GLOBAL_UNIT_ASSIGNED_CONTEXT((#922,#917,#912))
REPRESENTATION_CONTEXT('QUEBRA VORTEX 4','TOP_LEVEL_ASSEMBLY_PART')
);
#903=(
GEOMETRIC_REPRESENTATION_CONTEXT(3)
GLOBAL_UNCERTAINTY_ASSIGNED_CONTEXT((#908))
GLOBAL_UNIT_ASSIGNED_CONTEXT((#923,#918,#913))
REPRESENTATION_CONTEXT('QUEBRA VORTEX 3','TOP_LEVEL_ASSEMBLY_PART')
);
#904=(
GEOMETRIC_REPRESENTATION_CONTEXT(3)
GLOBAL_UNCERTAINTY_ASSIGNED_CONTEXT((#909))
GLOBAL_UNIT_ASSIGNED_CONTEXT((#924,#919,#914))
REPRESENTATION_CONTEXT('QUEBRA VORTEX 2','TOP_LEVEL_ASSEMBLY_PART')
);
#905=(
GEOMETRIC_REPRESENTATION_CONTEXT(3)
GLOBAL_UNCERTAINTY_ASSIGNED_CONTEXT((#910))
GLOBAL_UNIT_ASSIGNED_CONTEXT((#925,#920,#915))
REPRESENTATION_CONTEXT('QUEBRA VORTEX','TOP_LEVEL_ASSEMBLY_PART')
);
#906=UNCERTAINTY_MEASURE_WITH_UNIT(LENGTH_MEASURE(0.0002),#921,
'DISTANCE_ACCURACY_VALUE','Maximum Tolerance applied to model');
#907=UNCERTAINTY_MEASURE_WITH_UNIT(LENGTH_MEASURE(0.0002),#922,
'DISTANCE_ACCURACY_VALUE','Maximum Tolerance applied to model');
#908=UNCERTAINTY_MEASURE_WITH_UNIT(LENGTH_MEASURE(0.0002),#923,
'DISTANCE_ACCURACY_VALUE','Maximum Tolerance applied to model');
#909=UNCERTAINTY_MEASURE_WITH_UNIT(LENGTH_MEASURE(0.0002),#924,
'DISTANCE_ACCURACY_VALUE','Maximum Tolerance applied to model');
#910=UNCERTAINTY_MEASURE_WITH_UNIT(LENGTH_MEASURE(0.0002),#925,
'DISTANCE_ACCURACY_VALUE','Maximum Tolerance applied to model');
#911=(
NAMED_UNIT(*)
SI_UNIT($,.STERADIAN.)
SOLID_ANGLE_UNIT()
);
#912=(
NAMED_UNIT(*)
SI_UNIT($,.STERADIAN.)
SOLID_ANGLE_UNIT()
);
#913=(
NAMED_UNIT(*)
SI_UNIT($,.STERADIAN.)
SOLID_ANGLE_UNIT()
);
#914=(
NAMED_UNIT(*)
SI_UNIT($,.STERADIAN.)
SOLID_ANGLE_UNIT()
);
#915=(
NAMED_UNIT(*)
SI_UNIT($,.STERADIAN.)
SOLID_ANGLE_UNIT()
);
#916=(
NAMED_UNIT(*)
PLANE_ANGLE_UNIT()
SI_UNIT($,.RADIAN.)
);
#917=(
NAMED_UNIT(*)
PLANE_ANGLE_UNIT()
SI_UNIT($,.RADIAN.)
);
#918=(
NAMED_UNIT(*)
PLANE_ANGLE_UNIT()
SI_UNIT($,.RADIAN.)
);
#919=(
NAMED_UNIT(*)
PLANE_ANGLE_UNIT()
SI_UNIT($,.RADIAN.)
);
#920=(
NAMED_UNIT(*)
PLANE_ANGLE_UNIT()
SI_UNIT($,.RADIAN.)
);
#921=(
LENGTH_UNIT()
NAMED_UNIT(*)
SI_UNIT($,.METRE.)
);
#922=(
LENGTH_UNIT()
NAMED_UNIT(*)
SI_UNIT($,.METRE.)
);
#923=(
LENGTH_UNIT()
NAMED_UNIT(*)
SI_UNIT($,.METRE.)
);
#924=(
LENGTH_UNIT()
NAMED_UNIT(*)
SI_UNIT($,.METRE.)
);
#925=(
LENGTH_UNIT()
NAMED_UNIT(*)
SI_UNIT($,.METRE.)
);
#926=PRODUCT_DEFINITION_SHAPE('','',#931);
#927=PRODUCT_DEFINITION_SHAPE('','',#932);
#928=PRODUCT_DEFINITION_SHAPE('','',#933);
#929=PRODUCT_DEFINITION_SHAPE('','',#934);
#930=PRODUCT_DEFINITION_SHAPE('','',#935);
#931=PRODUCT_DEFINITION('','',#941,#936);
#932=PRODUCT_DEFINITION('','',#942,#937);
#933=PRODUCT_DEFINITION('','',#943,#938);
#934=PRODUCT_DEFINITION('','',#944,#939);
#935=PRODUCT_DEFINITION('','',#945,#940);
#936=PRODUCT_DEFINITION_CONTEXT('',#971,'design');
#937=PRODUCT_DEFINITION_CONTEXT('',#972,'design');
#938=PRODUCT_DEFINITION_CONTEXT('',#973,'design');
#939=PRODUCT_DEFINITION_CONTEXT('',#974,'design');
#940=PRODUCT_DEFINITION_CONTEXT('',#975,'design');
#941=PRODUCT_DEFINITION_FORMATION_WITH_SPECIFIED_SOURCE('','',#951,
 .NOT_KNOWN.);
#942=PRODUCT_DEFINITION_FORMATION_WITH_SPECIFIED_SOURCE('','',#952,
 .NOT_KNOWN.);
#943=PRODUCT_DEFINITION_FORMATION_WITH_SPECIFIED_SOURCE('','',#953,
 .NOT_KNOWN.);
#944=PRODUCT_DEFINITION_FORMATION_WITH_SPECIFIED_SOURCE('','',#954,
 .NOT_KNOWN.);
#945=PRODUCT_DEFINITION_FORMATION_WITH_SPECIFIED_SOURCE('','',#955,
 .NOT_KNOWN.);
#946=PRODUCT_RELATED_PRODUCT_CATEGORY('','',(#951));
#947=PRODUCT_RELATED_PRODUCT_CATEGORY('','',(#952));
#948=PRODUCT_RELATED_PRODUCT_CATEGORY('','',(#953));
#949=PRODUCT_RELATED_PRODUCT_CATEGORY('','',(#954));
#950=PRODUCT_RELATED_PRODUCT_CATEGORY('','',(#955));
#951=PRODUCT('QUEBRA VORTEX 5','QUEBRA VORTEX 5','QUEBRA VORTEX 5',(#961));
#952=PRODUCT('QUEBRA VORTEX 4','QUEBRA VORTEX 4','QUEBRA VORTEX 4',(#962));
#953=PRODUCT('QUEBRA VORTEX 3','QUEBRA VORTEX 3','QUEBRA VORTEX 3',(#963));
#954=PRODUCT('QUEBRA VORTEX 2','QUEBRA VORTEX 2','QUEBRA VORTEX 2',(#964));
#955=PRODUCT('QUEBRA VORTEX','QUEBRA VORTEX','QUEBRA VORTEX',(#965));
#956=PRODUCT_CATEGORY('','');
#957=PRODUCT_CATEGORY('','');
#958=PRODUCT_CATEGORY('','');
#959=PRODUCT_CATEGORY('','');
#960=PRODUCT_CATEGORY('','');
#961=PRODUCT_CONTEXT('',#971,'mechanical');
#962=PRODUCT_CONTEXT('',#972,'mechanical');
#963=PRODUCT_CONTEXT('',#973,'mechanical');
#964=PRODUCT_CONTEXT('',#974,'mechanical');
#965=PRODUCT_CONTEXT('',#975,'mechanical');
#966=APPLICATION_PROTOCOL_DEFINITION('international standard',
'ap242_managed_model_based_3d_engineering',2011,#971);
#967=APPLICATION_PROTOCOL_DEFINITION('international standard',
'ap242_managed_model_based_3d_engineering',2011,#972);
#968=APPLICATION_PROTOCOL_DEFINITION('international standard',
'ap242_managed_model_based_3d_engineering',2011,#973);
#969=APPLICATION_PROTOCOL_DEFINITION('international standard',
'ap242_managed_model_based_3d_engineering',2011,#974);
#970=APPLICATION_PROTOCOL_DEFINITION('international standard',
'ap242_managed_model_based_3d_engineering',2011,#975);
#971=APPLICATION_CONTEXT('managed model based 3d engineering');
#972=APPLICATION_CONTEXT('managed model based 3d engineering');
#973=APPLICATION_CONTEXT('managed model based 3d engineering');
#974=APPLICATION_CONTEXT('managed model based 3d engineering');
#975=APPLICATION_CONTEXT('managed model based 3d engineering');
ENDSEC;
END-ISO-10303-21;
