ISO-10303-21;
HEADER;
/* Generated by software containing ST-Developer
 * from STEP Tools, Inc. (www.steptools.com) 
 */

FILE_DESCRIPTION(
/* description */ (
'CAx-IF Rec.Pracs.---Representation and Presentation of Product Manufa
cturing Information (PMI)---4.0---2014-10-13',
'CAx-IF Rec.Pracs.---3D Tessellated Geometry---0.4---2014-09-14','2;1'),

/* implementation_level */ '2;1');

FILE_NAME(
/* name */ 'Cone_inferior_tanque',
/* time_stamp */ '2026-07-01T19:14:29-03:00',
/* author */ (''),
/* organization */ ('Siemens PLM Software'),
/* preprocessor_version */ 'ST-DEVELOPER v20',
/* originating_system */ 'DEX',
/* authorisation */ $);

FILE_SCHEMA (('AP242_MANAGED_MODEL_BASED_3D_ENGINEERING_MIM_LF { 1 0 10303 442 1 1 4 }'));
ENDSEC;

DATA;
#10=SHAPE_REPRESENTATION_RELATIONSHIP('','',#101,#11);
#11=ADVANCED_BREP_SHAPE_REPRESENTATION('',(#99),#340);
#12=VERTEX_LOOP('',#55);
#13=PLANE('',#105);
#14=PLANE('',#106);
#15=ORIENTED_EDGE('',*,*,#37,.T.);
#16=ORIENTED_EDGE('',*,*,#38,.F.);
#17=ORIENTED_EDGE('',*,*,#39,.T.);
#18=ORIENTED_EDGE('',*,*,#40,.T.);
#19=ORIENTED_EDGE('',*,*,#41,.T.);
#20=ORIENTED_EDGE('',*,*,#42,.F.);
#21=ORIENTED_EDGE('',*,*,#43,.T.);
#22=ORIENTED_EDGE('',*,*,#38,.T.);
#23=ORIENTED_EDGE('',*,*,#43,.F.);
#24=ORIENTED_EDGE('',*,*,#44,.F.);
#25=ORIENTED_EDGE('',*,*,#45,.F.);
#26=ORIENTED_EDGE('',*,*,#39,.F.);
#27=ORIENTED_EDGE('',*,*,#46,.F.);
#28=ORIENTED_EDGE('',*,*,#41,.F.);
#29=ORIENTED_EDGE('',*,*,#37,.F.);
#30=ORIENTED_EDGE('',*,*,#47,.F.);
#31=ORIENTED_EDGE('',*,*,#46,.T.);
#32=ORIENTED_EDGE('',*,*,#44,.T.);
#33=ORIENTED_EDGE('',*,*,#42,.T.);
#34=ORIENTED_EDGE('',*,*,#40,.F.);
#35=ORIENTED_EDGE('',*,*,#45,.T.);
#36=ORIENTED_EDGE('',*,*,#47,.T.);
#37=EDGE_CURVE('',#48,#49,#56,.F.);
#38=EDGE_CURVE('',#50,#49,#57,.F.);
#39=EDGE_CURVE('',#50,#51,#58,.F.);
#40=EDGE_CURVE('',#51,#48,#59,.T.);
#41=EDGE_CURVE('',#49,#52,#60,.F.);
#42=EDGE_CURVE('',#53,#52,#61,.F.);
#43=EDGE_CURVE('',#53,#50,#62,.F.);
#44=EDGE_CURVE('',#54,#53,#63,.F.);
#45=EDGE_CURVE('',#51,#54,#64,.F.);
#46=EDGE_CURVE('',#52,#54,#65,.F.);
#47=EDGE_CURVE('',#54,#48,#66,.F.);
#48=VERTEX_POINT('',#129);
#49=VERTEX_POINT('',#130);
#50=VERTEX_POINT('',#198);
#51=VERTEX_POINT('',#203);
#52=VERTEX_POINT('',#276);
#53=VERTEX_POINT('',#312);
#54=VERTEX_POINT('',#322);
#55=VERTEX_POINT('',#338);
#56=B_SPLINE_CURVE_WITH_KNOTS('',3,(#125,#126,#127,#128),.UNSPECIFIED.,
 .F.,.F.,(4,4),(-6.35000000000036,-2.27089972435209E-6),.UNSPECIFIED.);
#57=B_SPLINE_CURVE_WITH_KNOTS('',3,(#131,#132,#133,#134,#135,#136,#137,
#138,#139,#140,#141,#142,#143,#144,#145,#146,#147,#148,#149,#150,#151,#152,
#153,#154,#155,#156,#157,#158,#159,#160,#161,#162,#163,#164,#165,#166,#167,
#168,#169,#170,#171,#172,#173,#174,#175,#176,#177,#178,#179,#180,#181,#182,
#183,#184,#185,#186,#187,#188,#189,#190,#191,#192,#193,#194,#195,#196,#197),
 .UNSPECIFIED.,.F.,.F.,(4,1,1,1,1,1,1,1,1,1,1,1,1,1,1,1,1,1,1,1,1,1,1,1,
1,1,1,1,1,1,1,1,1,1,1,1,1,1,1,1,1,1,1,1,1,1,1,1,1,1,1,1,1,1,1,1,1,1,1,1,
1,1,1,1,4),(0.,0.015625,0.03125,0.046875,0.0625,0.078125,0.09375,0.109375,
0.125,0.140625,0.15625,0.171875,0.1875,0.203125,0.21875,0.234375,0.25,0.265625,
0.28125,0.296875,0.3125,0.328125,0.34375,0.359375,0.375,0.390625,0.40625,
0.421875,0.4375,0.453125,0.46875,0.484375,0.5,0.515625,0.53125,0.546875,
0.5625,0.578125,0.59375,0.609375,0.625,0.640625,0.65625,0.671875,0.6875,
0.703125,0.71875,0.734375,0.75,0.765625,0.78125,0.796875,0.8125,0.828125,
0.84375,0.859375,0.875,0.890625,0.90625,0.921875,0.9375,0.953125,0.96875,
0.984375,1.),.UNSPECIFIED.);
#58=B_SPLINE_CURVE_WITH_KNOTS('',3,(#199,#200,#201,#202),.UNSPECIFIED.,
 .F.,.F.,(4,4),(-6.35000000000011,0.),.UNSPECIFIED.);
#59=B_SPLINE_CURVE_WITH_KNOTS('',3,(#204,#205,#206,#207,#208,#209,#210,
#211,#212,#213,#214,#215,#216,#217,#218,#219,#220,#221,#222,#223,#224,#225,
#226,#227,#228,#229,#230,#231,#232,#233,#234,#235,#236,#237,#238,#239,#240,
#241,#242,#243,#244,#245,#246,#247,#248,#249,#250,#251,#252,#253,#254,#255,
#256,#257,#258,#259,#260,#261,#262,#263,#264,#265,#266,#267,#268,#269,#270),
 .UNSPECIFIED.,.F.,.F.,(4,1,1,1,1,1,1,1,1,1,1,1,1,1,1,1,1,1,1,1,1,1,1,1,
1,1,1,1,1,1,1,1,1,1,1,1,1,1,1,1,1,1,1,1,1,1,1,1,1,1,1,1,1,1,1,1,1,1,1,1,
1,1,1,1,4),(0.,0.015625,0.03125,0.046875,0.0625,0.078125,0.09375,0.109375,
0.125,0.140625,0.15625,0.171875,0.1875,0.203125,0.21875,0.234375,0.25,0.265625,
0.28125,0.296875,0.3125,0.328125,0.34375,0.359375,0.375,0.390625,0.40625,
0.421875,0.4375,0.453125,0.46875,0.484375,0.5,0.515625,0.53125,0.546875,
0.5625,0.578125,0.59375,0.609375,0.625,0.640625,0.65625,0.671875,0.6875,
0.703125,0.71875,0.734375,0.75,0.765625,0.78125,0.796875,0.8125,0.828125,
0.84375,0.859375,0.875,0.890625,0.90625,0.921875,0.9375,0.953125,0.96875,
0.984375,1.),.UNSPECIFIED.);
#60=B_SPLINE_CURVE_WITH_KNOTS('',3,(#272,#273,#274,#275),.UNSPECIFIED.,
 .F.,.F.,(4,4),(-985.840267523636,0.),.UNSPECIFIED.);
#61=B_SPLINE_CURVE_WITH_KNOTS('',3,(#277,#278,#279,#280,#281,#282,#283,
#284,#285,#286,#287,#288,#289,#290,#291,#292,#293,#294,#295,#296,#297,#298,
#299,#300,#301,#302,#303,#304,#305,#306,#307,#308,#309,#310,#311),
 .UNSPECIFIED.,.F.,.F.,(4,1,1,1,1,1,1,1,1,1,1,1,1,1,1,1,1,1,1,1,1,1,1,1,
1,1,1,1,1,1,1,1,4),(0.,0.03125,0.0625,0.09375,0.125,0.15625,0.1875,0.21875,
0.25,0.28125,0.3125,0.34375,0.375,0.40625,0.4375,0.46875,0.5,0.53125,0.5625,
0.59375,0.625,0.65625,0.6875,0.71875,0.75,0.78125,0.8125,0.84375,0.875,
0.90625,0.9375,0.96875,1.),.UNSPECIFIED.);
#62=B_SPLINE_CURVE_WITH_KNOTS('',3,(#313,#314,#315,#316),.UNSPECIFIED.,
 .F.,.F.,(4,4),(-985.840267523615,0.),.UNSPECIFIED.);
#63=B_SPLINE_CURVE_WITH_KNOTS('',3,(#318,#319,#320,#321),.UNSPECIFIED.,
 .F.,.F.,(4,4),(-6.34999999999782,0.),.UNSPECIFIED.);
#64=B_SPLINE_CURVE_WITH_KNOTS('',3,(#323,#324,#325,#326),.UNSPECIFIED.,
 .F.,.F.,(4,4),(0.,1.),.UNSPECIFIED.);
#65=B_SPLINE_CURVE_WITH_KNOTS('',3,(#328,#329,#330,#331),.UNSPECIFIED.,
 .F.,.F.,(4,4),(-6.3499999999975,0.),.UNSPECIFIED.);
#66=B_SPLINE_CURVE_WITH_KNOTS('',3,(#332,#333,#334,#335),.UNSPECIFIED.,
 .F.,.F.,(4,4),(0.,1.),.UNSPECIFIED.);
#67=EDGE_LOOP('',(#15,#16,#17,#18));
#68=EDGE_LOOP('',(#19,#20,#21,#22));
#69=EDGE_LOOP('',(#23,#24,#25,#26));
#70=EDGE_LOOP('',(#27,#28,#29,#30));
#71=EDGE_LOOP('',(#31,#32,#33));
#72=EDGE_LOOP('',(#34,#35,#36));
#73=FACE_BOUND('',#67,.T.);
#74=FACE_BOUND('',#68,.T.);
#75=FACE_BOUND('',#69,.T.);
#76=FACE_BOUND('',#70,.T.);
#77=FACE_BOUND('',#71,.T.);
#78=FACE_BOUND('',#12,.T.);
#79=FACE_BOUND('',#72,.T.);
#80=CONICAL_SURFACE('',#103,25.4480903394889,0.30276512794244);
#81=CONICAL_SURFACE('',#104,1.54669033948885,1.26803119885268);
#82=CONICAL_SURFACE('',#107,1.4986,0.302765127942337);
#83=CONICAL_SURFACE('',#108,21.9650273684399,1.26803119885268);
#84=ADVANCED_FACE('',(#73),#80,.T.);
#85=ADVANCED_FACE('',(#74),#81,.T.);
#86=ADVANCED_FACE('',(#75),#13,.T.);
#87=ADVANCED_FACE('',(#76),#14,.T.);
#88=ADVANCED_FACE('',(#77),#82,.F.);
#89=ADVANCED_FACE('',(#78,#79),#83,.F.);
#90=CLOSED_SHELL('',(#84,#85,#86,#87,#88,#89));
#91=STYLED_ITEM('',(#92),#99);
#92=PRESENTATION_STYLE_ASSIGNMENT((#93));
#93=SURFACE_STYLE_USAGE(.BOTH.,#94);
#94=SURFACE_SIDE_STYLE('',(#95));
#95=SURFACE_STYLE_FILL_AREA(#96);
#96=FILL_AREA_STYLE('',(#97));
#97=FILL_AREA_STYLE_COLOUR('',#98);
#98=COLOUR_RGB('',0.87843137254902,0.874509803921569,0.858823529411765);
#99=MANIFOLD_SOLID_BREP('CONE INFERIOR TQ REACAO A',#90);
#100=SHAPE_DEFINITION_REPRESENTATION(#345,#101);
#101=SHAPE_REPRESENTATION('CONE INFERIOR TQ REACAO A',(#102),#340);
#102=AXIS2_PLACEMENT_3D('',#123,#109,#110);
#103=AXIS2_PLACEMENT_3D('',#124,#111,#112);
#104=AXIS2_PLACEMENT_3D('',#271,#113,#114);
#105=AXIS2_PLACEMENT_3D('',#317,#115,#116);
#106=AXIS2_PLACEMENT_3D('',#327,#117,#118);
#107=AXIS2_PLACEMENT_3D('',#336,#119,#120);
#108=AXIS2_PLACEMENT_3D('',#337,#121,#122);
#109=DIRECTION('',(0.,0.,1.));
#110=DIRECTION('',(1.,0.,0.));
#111=DIRECTION('',(1.21598957270438E-16,-2.21551164025456E-16,-1.));
#112=DIRECTION('',(6.12323399573678E-17,1.,-2.21551164025456E-16));
#113=DIRECTION('',(-1.22464679914735E-16,2.22417E-16,1.));
#114=DIRECTION('',(-6.12323399573678E-17,-1.,2.22417E-16));
#115=DIRECTION('',(8.72664624891325E-5,0.999999996192282,-2.22391917856014E-16));
#116=DIRECTION('',(0.999999996192283,-8.72664624891326E-5,1.22484088993212E-16));
#117=DIRECTION('',(8.72664624890101E-5,-0.999999996192282,2.22427686212495E-16));
#118=DIRECTION('',(-0.999999996192283,-8.72664624890101E-5,-1.22445269903637E-16));
#119=DIRECTION('',(1.22464679914735E-16,-2.22417E-16,-1.));
#120=DIRECTION('',(6.12323399573678E-17,1.,-2.22417E-16));
#121=DIRECTION('',(-8.79844967509202E-16,2.21603213908033E-16,1.));
#122=DIRECTION('',(1.,-6.12323399573675E-17,8.79844967509202E-16));
#123=CARTESIAN_POINT('',(0.,0.,0.));
#124=CARTESIAN_POINT('',(1.99999999999977,-62.8226239999996,-56.5307778351192));
#125=CARTESIAN_POINT('',(27.4480902425895,-62.8204032351785,-56.5307778351192));
#126=CARTESIAN_POINT('',(27.4320601352203,-62.8204046340693,-56.479459908432));
#127=CARTESIAN_POINT('',(27.4160300278511,-62.8204060329601,-56.4281419817448));
#128=CARTESIAN_POINT('',(27.3999999204819,-62.8204074318508,-56.3768240550575));
#129=CARTESIAN_POINT('',(27.3999999151427,-62.8204073017788,-56.3768240379117));
#130=CARTESIAN_POINT('',(27.4480902425895,-62.8204032351785,-56.5307778351192));
#131=CARTESIAN_POINT('',(27.4480902425896,-62.8204032351785,-56.5307778351192));
#132=CARTESIAN_POINT('',(27.4480175702495,-61.9876395623744,-56.5307778351192));
#133=CARTESIAN_POINT('',(27.3660524327665,-60.3221208472443,-56.5307778351193));
#134=CARTESIAN_POINT('',(26.9988293355336,-57.8479214539776,-56.5307778351193));
#135=CARTESIAN_POINT('',(26.3908672102807,-55.4216288267287,-56.5307778351193));
#136=CARTESIAN_POINT('',(25.548020739572,-53.0666077863967,-56.5307778351193));
#137=CARTESIAN_POINT('',(24.4784065450967,-50.8055373228934,-56.5307778351193));
#138=CARTESIAN_POINT('',(23.1923250244472,-48.6601915428803,-56.5307778351193));
#139=CARTESIAN_POINT('',(21.7021611581813,-46.6512301599149,-56.5307778351192));
#140=CARTESIAN_POINT('',(20.0222652423059,-44.7979994942533,-56.5307778351193));
#141=CARTESIAN_POINT('',(18.1688146947547,-43.1183461801214,-56.5307778351192));
#142=CARTESIAN_POINT('',(16.1596582666577,-41.6284452990449,-56.5307778351192));
#143=CARTESIAN_POINT('',(14.0141441586528,-40.3426446145206,-56.5307778351192));
#144=CARTESIAN_POINT('',(11.7529336974802,-39.2733264026395,-56.5307778351193));
#145=CARTESIAN_POINT('',(9.39780236715663,-38.4307882106835,-56.5307778351193));
#146=CARTESIAN_POINT('',(6.97143011080186,-37.8231436916035,-56.5307778351192));
#147=CARTESIAN_POINT('',(4.4971829225125,-37.456244469448,-56.5307778351193));
#148=CARTESIAN_POINT('',(1.99888783255722,-37.3336237881522,-56.5307778351192));
#149=CARTESIAN_POINT('',(-0.499396547212156,-37.4564624863559,-56.5307778351193));
#150=CARTESIAN_POINT('',(-2.97361170808308,-37.8235776259137,-56.5307778351192));
#151=CARTESIAN_POINT('',(-5.39993092821128,-38.4314338836035,-56.5307778351193));
#152=CARTESIAN_POINT('',(-7.75498872423959,-39.2741775963313,-56.5307778351192));
#153=CARTESIAN_POINT('',(-10.0161058611846,-40.3436931319782,-56.5307778351193));
#154=CARTESIAN_POINT('',(-12.1615077537428,-41.6296810430348,-56.5307778351192));
#155=CARTESIAN_POINT('',(-14.1705341558101,-43.1197572504055,-56.5307778351193));
#156=CARTESIAN_POINT('',(-16.023838118901,-44.7995723022395,-56.5307778351192));
#157=CARTESIAN_POINT('',(-17.7035723034954,-46.6529495593247,-56.5307778351193));
#158=CARTESIAN_POINT('',(-19.193560849134,-48.6620409763195,-56.5307778351192));
#159=CARTESIAN_POINT('',(-20.4794551481495,-50.8074989786433,-56.5307778351193));
#160=CARTESIAN_POINT('',(-21.5488720229312,-53.0686627798546,-56.5307778351192));
#161=CARTESIAN_POINT('',(-22.3915129760753,-55.4237573452724,-56.5307778351193));
#162=CARTESIAN_POINT('',(-22.9992633650387,-57.8501030858236,-56.5307778351192));
#163=CARTESIAN_POINT('',(-23.3662705462447,-60.324334262759,-56.5307778351193));
#164=CARTESIAN_POINT('',(-23.4890002361114,-62.8226239999995,-56.5307778351192));
#165=CARTESIAN_POINT('',(-23.3662705462447,-65.3209137372401,-56.5307778351193));
#166=CARTESIAN_POINT('',(-22.9992633650387,-67.7951449141755,-56.5307778351192));
#167=CARTESIAN_POINT('',(-22.3915129760753,-70.2214906547267,-56.5307778351193));
#168=CARTESIAN_POINT('',(-21.5488720229312,-72.5765852201445,-56.5307778351192));
#169=CARTESIAN_POINT('',(-20.4794551481495,-74.8377490213557,-56.5307778351193));
#170=CARTESIAN_POINT('',(-19.193560849134,-76.9832070236797,-56.5307778351192));
#171=CARTESIAN_POINT('',(-17.7035723034954,-78.9922984406744,-56.5307778351193));
#172=CARTESIAN_POINT('',(-16.023838118901,-80.8456756977597,-56.5307778351192));
#173=CARTESIAN_POINT('',(-14.1705341558101,-82.5254907495936,-56.5307778351193));
#174=CARTESIAN_POINT('',(-12.1615077537428,-84.0155669569644,-56.5307778351192));
#175=CARTESIAN_POINT('',(-10.0161058611846,-85.301554868021,-56.5307778351193));
#176=CARTESIAN_POINT('',(-7.75498872423961,-86.3710704036678,-56.5307778351192));
#177=CARTESIAN_POINT('',(-5.39993092821131,-87.2138141163957,-56.5307778351192));
#178=CARTESIAN_POINT('',(-2.9736117080831,-87.8216703740854,-56.5307778351192));
#179=CARTESIAN_POINT('',(-0.499396547212201,-88.1887855136433,-56.5307778351192));
#180=CARTESIAN_POINT('',(1.99888783255721,-88.3116242118469,-56.5307778351192));
#181=CARTESIAN_POINT('',(4.49718292251249,-88.1890035305511,-56.5307778351192));
#182=CARTESIAN_POINT('',(6.97143011080183,-87.8221043083957,-56.5307778351192));
#183=CARTESIAN_POINT('',(9.39780236715662,-87.2144597893156,-56.5307778351192));
#184=CARTESIAN_POINT('',(11.7529336974801,-86.3719215973597,-56.5307778351192));
#185=CARTESIAN_POINT('',(14.0141441586528,-85.3026033854786,-56.5307778351192));
#186=CARTESIAN_POINT('',(16.1596582666577,-84.0168027009542,-56.5307778351192));
#187=CARTESIAN_POINT('',(18.1688146947547,-82.5269018198777,-56.5307778351192));
#188=CARTESIAN_POINT('',(20.0222652423059,-80.8472485057459,-56.5307778351192));
#189=CARTESIAN_POINT('',(21.7021611581813,-78.9940178400842,-56.5307778351192));
#190=CARTESIAN_POINT('',(23.1923250244471,-76.9850564571188,-56.5307778351192));
#191=CARTESIAN_POINT('',(24.4784065450967,-74.8397106771058,-56.5307778351192));
#192=CARTESIAN_POINT('',(25.548020739572,-72.5786402136025,-56.5307778351192));
#193=CARTESIAN_POINT('',(26.3908672102807,-70.2236191732705,-56.5307778351192));
#194=CARTESIAN_POINT('',(26.9988293355336,-67.7973265460216,-56.5307778351192));
#195=CARTESIAN_POINT('',(27.3660524327665,-65.3231271527549,-56.5307778351193));
#196=CARTESIAN_POINT('',(27.4480175702495,-63.6576084376247,-56.5307778351192));
#197=CARTESIAN_POINT('',(27.4480902425896,-62.8248447648206,-56.5307778351192));
#198=CARTESIAN_POINT('',(27.4480902425893,-62.8248447648206,-56.5307778351184));
#199=CARTESIAN_POINT('',(27.3999999032838,-62.8248405681468,-56.3768240000003));
#200=CARTESIAN_POINT('',(27.4160300163857,-62.8248419670381,-56.4281419450399));
#201=CARTESIAN_POINT('',(27.4320601294876,-62.8248433659293,-56.4794598900796));
#202=CARTESIAN_POINT('',(27.4480902425895,-62.8248447648206,-56.5307778351193));
#203=CARTESIAN_POINT('',(27.3999999032838,-62.8248405681468,-56.3768240000002));
#204=CARTESIAN_POINT('',(27.3999999032838,-62.8248405681468,-56.3768240000002));
#205=CARTESIAN_POINT('',(27.3999273682758,-63.6560305311576,-56.3768240000002));
#206=CARTESIAN_POINT('',(27.3181171239662,-65.3184018430104,-56.3768240000002));
#207=CARTESIAN_POINT('',(26.9515879845852,-67.7879256339389,-56.3768240000002));
#208=CARTESIAN_POINT('',(26.3447747524459,-70.209633190448,-56.3768240000002));
#209=CARTESIAN_POINT('',(25.5035210462465,-72.560203845204,-56.3768240000002));
#210=CARTESIAN_POINT('',(24.4359281493184,-74.8170014658132,-56.3768240000002));
#211=CARTESIAN_POINT('',(23.1522769941135,-76.9582930931309,-56.3768240000002));
#212=CARTESIAN_POINT('',(21.6649291567165,-78.9634580551956,-56.3768240000002));
#213=CARTESIAN_POINT('',(19.9882078147134,-80.8131865913648,-56.3768240000002));
#214=CARTESIAN_POINT('',(18.1382598148208,-82.4896657929985,-56.3768240000002));
#215=CARTESIAN_POINT('',(16.1329001785567,-83.9767511453452,-56.3768240000002));
#216=CARTESIAN_POINT('',(13.9914405433691,-85.2601219985123,-56.3768240000002));
#217=CARTESIAN_POINT('',(11.7345031913347,-86.3274194757389,-56.3768240000002));
#218=CARTESIAN_POINT('',(9.38382245633412,-87.1683654894629,-56.3768240000002));
#219=CARTESIAN_POINT('',(6.96203542215489,-87.7748617194451,-56.3768240000002));
#220=CARTESIAN_POINT('',(4.49246392710202,-88.1410675996867,-56.3768240000002));
#221=CARTESIAN_POINT('',(1.99888997441412,-88.2634565631506,-56.3768240000002));
#222=CARTESIAN_POINT('',(-0.494673288714011,-88.1408500026448,-56.3768240000002));
#223=CARTESIAN_POINT('',(-2.9642128180282,-87.7744286208235,-56.3768240000002));
#224=CARTESIAN_POINT('',(-5.38594691812027,-87.1677210600065,-56.3768240000002));
#225=CARTESIAN_POINT('',(-7.73655426044112,-86.326569921311,-56.3768240000002));
#226=CARTESIAN_POINT('',(-9.99339846797556,-85.2590755003329,-56.3768240000002));
#227=CARTESIAN_POINT('',(-12.1347461038257,-83.9755177812021,-56.3768240000002));
#228=CARTESIAN_POINT('',(-14.1399759644697,-82.4882574402117,-56.3768240000002));
#229=CARTESIAN_POINT('',(-15.9897776622005,-80.8116168123569,-56.3768240000002));
#230=CARTESIAN_POINT('',(-17.6663375843916,-78.9617419670757,-56.3768240000002));
#231=CARTESIAN_POINT('',(-19.1535104388012,-76.9564472214065,-56.3768240000002));
#232=CARTESIAN_POINT('',(-20.4369747329312,-74.8150435879001,-56.3768240000002));
#233=CARTESIAN_POINT('',(-21.5043706901723,-72.5581528093362,-56.3768240000002));
#234=CARTESIAN_POINT('',(-22.3454192746015,-70.2075087710924,-56.3768240000002));
#235=CARTESIAN_POINT('',(-22.9520211782218,-67.7857482035661,-56.3768240000002));
#236=CARTESIAN_POINT('',(-23.318334817396,-65.316192690188,-56.3768240000002));
#237=CARTESIAN_POINT('',(-23.4408325873674,-62.8226240802931,-56.3768240000002));
#238=CARTESIAN_POINT('',(-23.3183348331359,-60.329055469625,-56.3768240000002));
#239=CARTESIAN_POINT('',(-22.9520212095499,-57.8594999539346,-56.3768240000002));
#240=CARTESIAN_POINT('',(-22.3454193212162,-55.4377393825793,-56.3768240000002));
#241=CARTESIAN_POINT('',(-21.5043707516247,-53.0870953390267,-56.3768240000002));
#242=CARTESIAN_POINT('',(-20.4369748086295,-50.8302045537252,-56.3768240000002));
#243=CARTESIAN_POINT('',(-19.1535105280164,-48.6888009121173,-56.3768240000002));
#244=CARTESIAN_POINT('',(-17.6663376862646,-46.6835061570609,-56.3768240000002));
#245=CARTESIAN_POINT('',(-15.9897777757502,-44.8336313011969,-56.3768240000002));
#246=CARTESIAN_POINT('',(-14.1399760886027,-43.1569906616658,-56.3768240000002));
#247=CARTESIAN_POINT('',(-12.1347462373465,-41.6697303080181,-56.3768240000002));
#248=CARTESIAN_POINT('',(-9.99339860959842,-40.3861725753707,-56.3768240000002));
#249=CARTESIAN_POINT('',(-7.73655440880221,-39.318678140147,-56.3768240000002));
#250=CARTESIAN_POINT('',(-5.38594707179083,-38.4775269866141,-56.3768240000002));
#251=CARTESIAN_POINT('',(-2.96421297552843,-37.8708194105106,-56.3768240000002));
#252=CARTESIAN_POINT('',(-0.494673448527157,-37.5043980131011,-56.3768240000002));
#253=CARTESIAN_POINT('',(1.99888981382709,-37.3817914368555,-56.3768240000002));
#254=CARTESIAN_POINT('',(4.4924637672875,-37.5041803845796,-56.3768240000002));
#255=CARTESIAN_POINT('',(6.96203526465193,-37.8703862492327,-56.3768240000002));
#256=CARTESIAN_POINT('',(9.3838223026595,-38.4768824639283,-56.3768240000002));
#257=CARTESIAN_POINT('',(11.7345030429683,-39.3178284628143,-56.3768240000002));
#258=CARTESIAN_POINT('',(13.9914404017397,-40.3851259257947,-56.3768240000002));
#259=CARTESIAN_POINT('',(16.132900045028,-41.6684967654445,-56.3768240000002));
#260=CARTESIAN_POINT('',(18.1382596906789,-43.155582105133,-56.3768240000002));
#261=CARTESIAN_POINT('',(19.9882077011538,-44.8320612950896,-56.3768240000002));
#262=CARTESIAN_POINT('',(21.6649290548326,-46.681789820675,-56.3768240000002));
#263=CARTESIAN_POINT('',(23.1522769048867,-48.6869547733512,-56.3768240000002));
#264=CARTESIAN_POINT('',(24.4359280736077,-50.8282463925664,-56.3768240000002));
#265=CARTESIAN_POINT('',(25.5035209847812,-53.0850440064367,-56.3768240000002));
#266=CARTESIAN_POINT('',(26.3447747058178,-55.4356146558826,-56.3768240000002));
#267=CARTESIAN_POINT('',(26.9515879532433,-57.8573222085613,-56.3768240000002));
#268=CARTESIAN_POINT('',(27.3181171082124,-60.3268459971763,-56.3768240000002));
#269=CARTESIAN_POINT('',(27.3999273630151,-61.9892173085127,-56.3768240000002));
#270=CARTESIAN_POINT('',(27.3999999032698,-62.820407271523,-56.3768240000002));
#271=CARTESIAN_POINT('',(1.99999999999983,-62.8226239999996,-63.9968240000002));
#272=CARTESIAN_POINT('',(3.54669033359932,-62.8224890258051,-63.9968240000002));
#273=CARTESIAN_POINT('',(11.5138236365961,-62.8217937622629,-61.5081419450399));
#274=CARTESIAN_POINT('',(19.4809569395928,-62.8210984987207,-59.0194598900796));
#275=CARTESIAN_POINT('',(27.4480902425895,-62.8204032351785,-56.5307778351193));
#276=CARTESIAN_POINT('',(3.5466903349866,-62.8224890256888,-63.9968239973353));
#277=CARTESIAN_POINT('',(3.54669033359932,-62.8224890258051,-63.9968240000002));
#278=CARTESIAN_POINT('',(3.54668149980434,-62.7212611921546,-63.9968240000002));
#279=CARTESIAN_POINT('',(3.52672441253547,-62.5188101734859,-63.9968240000002));
#280=CARTESIAN_POINT('',(3.43812086743836,-62.2268060708276,-63.9968240000002));
#281=CARTESIAN_POINT('',(3.29425420439804,-61.9576982715726,-63.9968240000002));
#282=CARTESIAN_POINT('',(3.10065283236572,-61.7218270755871,-63.9968240000002));
#283=CARTESIAN_POINT('',(2.86475633151569,-61.5282565901844,-63.9968240000002));
#284=CARTESIAN_POINT('',(2.5956295700727,-61.384425151964,-63.9968240000002));
#285=CARTESIAN_POINT('',(2.30361436583005,-61.2958598315344,-63.9968240000002));
#286=CARTESIAN_POINT('',(1.99993207789184,-61.2659639519496,-63.9968240000002));
#287=CARTESIAN_POINT('',(1.69625240001763,-61.2958863325657,-63.9968240000002));
#288=CARTESIAN_POINT('',(1.40424492566911,-61.3844771364612,-63.9968240000002));
#289=CARTESIAN_POINT('',(1.13513071691168,-61.528332057331,-63.9968240000002));
#290=CARTESIAN_POINT('',(0.899251109171386,-61.7219231373541,-63.9968240000002));
#291=CARTESIAN_POINT('',(0.705670321521121,-61.9578111918745,-63.9968240000002));
#292=CARTESIAN_POINT('',(0.561827143114279,-62.2269316772307,-63.9968240000002));
#293=CARTESIAN_POINT('',(0.47324908051962,-62.5189430168043,-63.9968240000002));
#294=CARTESIAN_POINT('',(0.443339950506647,-62.8226239999996,-63.9968240000002));
#295=CARTESIAN_POINT('',(0.473249080519622,-63.1263049831949,-63.9968240000002));
#296=CARTESIAN_POINT('',(0.561827143114283,-63.4183163227685,-63.9968240000002));
#297=CARTESIAN_POINT('',(0.705670321521126,-63.6874368081247,-63.9968240000002));
#298=CARTESIAN_POINT('',(0.899251109171393,-63.9233248626451,-63.9968240000002));
#299=CARTESIAN_POINT('',(1.13513071691169,-64.1169159426682,-63.9968240000002));
#300=CARTESIAN_POINT('',(1.40424492566912,-64.260770863538,-63.9968240000002));
#301=CARTESIAN_POINT('',(1.69625240001765,-64.3493616674335,-63.9968240000002));
#302=CARTESIAN_POINT('',(1.99993207789185,-64.3792840480496,-63.9968240000002));
#303=CARTESIAN_POINT('',(2.30361436583006,-64.3493881684648,-63.9968240000002));
#304=CARTESIAN_POINT('',(2.5956295700727,-64.2608228480352,-63.9968240000002));
#305=CARTESIAN_POINT('',(2.8647563315157,-64.1169914098147,-63.9968240000002));
#306=CARTESIAN_POINT('',(3.10065283236573,-63.9234209244121,-63.9968240000002));
#307=CARTESIAN_POINT('',(3.29425420439805,-63.6875497284265,-63.9968240000002));
#308=CARTESIAN_POINT('',(3.43812086743836,-63.4184419291716,-63.9968240000002));
#309=CARTESIAN_POINT('',(3.52672441253547,-63.1264378265133,-63.9968240000002));
#310=CARTESIAN_POINT('',(3.54668149980434,-62.9239868078445,-63.9968240000002));
#311=CARTESIAN_POINT('',(3.54669033359932,-62.8227589741941,-63.9968240000002));
#312=CARTESIAN_POINT('',(3.5466903349866,-62.8227589743103,-63.9968239973353));
#313=CARTESIAN_POINT('',(27.448090242589,-62.8248447648206,-56.5307778351176));
#314=CARTESIAN_POINT('',(19.4809569395925,-62.8241495012784,-59.0194598900785));
#315=CARTESIAN_POINT('',(11.5138236365959,-62.8234542377362,-61.5081419450393));
#316=CARTESIAN_POINT('',(3.54669033359932,-62.8227589741941,-63.9968240000002));
#317=CARTESIAN_POINT('',(3.49834599429454,-62.8227547553546,-56.3765700000002));
#318=CARTESIAN_POINT('',(3.54669033359932,-62.8227589741941,-63.9968240000002));
#319=CARTESIAN_POINT('',(3.5306602204974,-62.8227575753028,-63.9455060549606));
#320=CARTESIAN_POINT('',(3.51463010739549,-62.8227561764115,-63.8941881099209));
#321=CARTESIAN_POINT('',(3.49859999429358,-62.8227547775202,-63.8428701648813));
#322=CARTESIAN_POINT('',(3.49859998934804,-62.8226239976357,-63.8428701673176));
#323=CARTESIAN_POINT('',(3.49859998389566,-62.8227547775193,-63.8428701681293));
#324=CARTESIAN_POINT('',(11.4657332903584,-62.8234500410618,-61.3541881120863));
#325=CARTESIAN_POINT('',(19.4328665968211,-62.8241453046043,-58.8655060560433));
#326=CARTESIAN_POINT('',(27.3999999032838,-62.8248405681468,-56.3768240000002));
#327=CARTESIAN_POINT('',(27.4483442425886,-62.8204032130129,-56.3765700000002));
#328=CARTESIAN_POINT('',(3.49859999429358,-62.8224932224789,-63.8428701648813));
#329=CARTESIAN_POINT('',(3.51463010739549,-62.8224918235876,-63.8941881099209));
#330=CARTESIAN_POINT('',(3.5306602204974,-62.8224904246963,-63.9455060549606));
#331=CARTESIAN_POINT('',(3.54669033359931,-62.8224890258051,-63.9968240000002));
#332=CARTESIAN_POINT('',(27.3999999377319,-62.8204074318493,-56.3768241101014));
#333=CARTESIAN_POINT('',(19.4328666204629,-62.8211026953928,-58.8655061316097));
#334=CARTESIAN_POINT('',(11.465733303194,-62.8217979589362,-61.3541881531179));
#335=CARTESIAN_POINT('',(3.49859998592508,-62.8224932224796,-63.8428701746262));
#336=CARTESIAN_POINT('',(1.99999999999982,-62.8226239999996,-63.8428701648813));
#337=CARTESIAN_POINT('',(1.99999999999982,-62.8226239999996,-57.4498014926295));
#338=CARTESIAN_POINT('',(1.99999999999983,-62.8226239999996,-64.3109857055061));
#339=MECHANICAL_DESIGN_GEOMETRIC_PRESENTATION_REPRESENTATION('',(#91),#340);
#340=(
GEOMETRIC_REPRESENTATION_CONTEXT(3)
GLOBAL_UNCERTAINTY_ASSIGNED_CONTEXT((#341))
GLOBAL_UNIT_ASSIGNED_CONTEXT((#344,#343,#342))
REPRESENTATION_CONTEXT('CONE INFERIOR TQ REACAO A',
'TOP_LEVEL_ASSEMBLY_PART')
);
#341=UNCERTAINTY_MEASURE_WITH_UNIT(LENGTH_MEASURE(0.0002),#344,
'DISTANCE_ACCURACY_VALUE','Maximum Tolerance applied to model');
#342=(
NAMED_UNIT(*)
SI_UNIT($,.STERADIAN.)
SOLID_ANGLE_UNIT()
);
#343=(
NAMED_UNIT(*)
PLANE_ANGLE_UNIT()
SI_UNIT($,.RADIAN.)
);
#344=(
LENGTH_UNIT()
NAMED_UNIT(*)
SI_UNIT($,.METRE.)
);
#345=PRODUCT_DEFINITION_SHAPE('','',#346);
#346=PRODUCT_DEFINITION('','',#348,#347);
#347=PRODUCT_DEFINITION_CONTEXT('',#354,'design');
#348=PRODUCT_DEFINITION_FORMATION_WITH_SPECIFIED_SOURCE('','',#350,
 .NOT_KNOWN.);
#349=PRODUCT_RELATED_PRODUCT_CATEGORY('','',(#350));
#350=PRODUCT('CONE INFERIOR TQ REACAO A','CONE INFERIOR TQ REACAO A',
'CONE INFERIOR TQ REACAO A',(#352));
#351=PRODUCT_CATEGORY('','');
#352=PRODUCT_CONTEXT('',#354,'mechanical');
#353=APPLICATION_PROTOCOL_DEFINITION('international standard',
'ap242_managed_model_based_3d_engineering',2011,#354);
#354=APPLICATION_CONTEXT('managed model based 3d engineering');
ENDSEC;
END-ISO-10303-21;
