ISO-10303-21;
HEADER;
/* Generated by software containing ST-Developer
 * from STEP Tools, Inc. (www.steptools.com) 
 */

FILE_DESCRIPTION(
/* description */ (
'CAx-IF Rec.Pracs.---Representation and Presentation of Product Manufa
cturing Information (PMI)---4.0---2014-10-13',
'CAx-IF Rec.Pracs.---3D Tessellated Geometry---0.4---2014-09-14','2;1'),

/* implementation_level */ '2;1');

FILE_NAME(
/* name */ 'Defletor',
/* time_stamp */ '2026-07-01T19:15:02-03:00',
/* author */ (''),
/* organization */ ('Siemens PLM Software'),
/* preprocessor_version */ 'ST-DEVELOPER v20',
/* originating_system */ 'DEX',
/* authorisation */ $);

FILE_SCHEMA (('AP242_MANAGED_MODEL_BASED_3D_ENGINEERING_MIM_LF { 1 0 10303 442 1 1 4 }'));
ENDSEC;

DATA;
#10=SHAPE_REPRESENTATION_RELATIONSHIP('','',#103,#11);
#11=ADVANCED_BREP_SHAPE_REPRESENTATION('',(#101),#189);
#12=ORIENTED_EDGE('',*,*,#36,.T.);
#13=ORIENTED_EDGE('',*,*,#37,.F.);
#14=ORIENTED_EDGE('',*,*,#38,.F.);
#15=ORIENTED_EDGE('',*,*,#39,.T.);
#16=ORIENTED_EDGE('',*,*,#40,.T.);
#17=ORIENTED_EDGE('',*,*,#41,.F.);
#18=ORIENTED_EDGE('',*,*,#42,.T.);
#19=ORIENTED_EDGE('',*,*,#37,.T.);
#20=ORIENTED_EDGE('',*,*,#42,.F.);
#21=ORIENTED_EDGE('',*,*,#43,.F.);
#22=ORIENTED_EDGE('',*,*,#44,.T.);
#23=ORIENTED_EDGE('',*,*,#38,.T.);
#24=ORIENTED_EDGE('',*,*,#45,.T.);
#25=ORIENTED_EDGE('',*,*,#39,.F.);
#26=ORIENTED_EDGE('',*,*,#44,.F.);
#27=ORIENTED_EDGE('',*,*,#46,.T.);
#28=ORIENTED_EDGE('',*,*,#47,.F.);
#29=ORIENTED_EDGE('',*,*,#40,.F.);
#30=ORIENTED_EDGE('',*,*,#36,.F.);
#31=ORIENTED_EDGE('',*,*,#45,.F.);
#32=ORIENTED_EDGE('',*,*,#47,.T.);
#33=ORIENTED_EDGE('',*,*,#46,.F.);
#34=ORIENTED_EDGE('',*,*,#43,.T.);
#35=ORIENTED_EDGE('',*,*,#41,.T.);
#36=EDGE_CURVE('',#48,#49,#56,.T.);
#37=EDGE_CURVE('',#50,#49,#57,.F.);
#38=EDGE_CURVE('',#51,#50,#58,.F.);
#39=EDGE_CURVE('',#51,#48,#59,.T.);
#40=EDGE_CURVE('',#49,#52,#60,.T.);
#41=EDGE_CURVE('',#53,#52,#61,.F.);
#42=EDGE_CURVE('',#53,#50,#62,.T.);
#43=EDGE_CURVE('',#54,#53,#63,.F.);
#44=EDGE_CURVE('',#54,#51,#64,.T.);
#45=EDGE_CURVE('',#55,#48,#65,.T.);
#46=EDGE_CURVE('',#54,#55,#66,.T.);
#47=EDGE_CURVE('',#52,#55,#67,.F.);
#48=VERTEX_POINT('',#131);
#49=VERTEX_POINT('',#132);
#50=VERTEX_POINT('',#137);
#51=VERTEX_POINT('',#142);
#52=VERTEX_POINT('',#152);
#53=VERTEX_POINT('',#157);
#54=VERTEX_POINT('',#167);
#55=VERTEX_POINT('',#177);
#56=B_SPLINE_CURVE_WITH_KNOTS('',3,(#127,#128,#129,#130),.UNSPECIFIED.,
 .F.,.F.,(4,4),(0.,1428.28568570857),.UNSPECIFIED.);
#57=B_SPLINE_CURVE_WITH_KNOTS('',3,(#133,#134,#135,#136),.UNSPECIFIED.,
 .F.,.F.,(4,4),(-6.39999999999986,0.),.UNSPECIFIED.);
#58=B_SPLINE_CURVE_WITH_KNOTS('',3,(#138,#139,#140,#141),.UNSPECIFIED.,
 .F.,.F.,(4,4),(-1428.28568570857,0.),.UNSPECIFIED.);
#59=B_SPLINE_CURVE_WITH_KNOTS('',3,(#143,#144,#145,#146),.UNSPECIFIED.,
 .F.,.F.,(4,4),(0.,6.39999999999986),.UNSPECIFIED.);
#60=B_SPLINE_CURVE_WITH_KNOTS('',3,(#148,#149,#150,#151),.UNSPECIFIED.,
 .F.,.F.,(4,4),(0.,1836.5),.UNSPECIFIED.);
#61=B_SPLINE_CURVE_WITH_KNOTS('',3,(#153,#154,#155,#156),.UNSPECIFIED.,
 .F.,.F.,(4,4),(-6.39999999999987,0.),.UNSPECIFIED.);
#62=B_SPLINE_CURVE_WITH_KNOTS('',3,(#158,#159,#160,#161),.UNSPECIFIED.,
 .F.,.F.,(4,4),(0.,1836.49999999958),.UNSPECIFIED.);
#63=B_SPLINE_CURVE_WITH_KNOTS('',3,(#163,#164,#165,#166),.UNSPECIFIED.,
 .F.,.F.,(4,4),(-1428.28568570857,0.),.UNSPECIFIED.);
#64=B_SPLINE_CURVE_WITH_KNOTS('',3,(#168,#169,#170,#171),.UNSPECIFIED.,
 .F.,.F.,(4,4),(0.,1836.5),.UNSPECIFIED.);
#65=B_SPLINE_CURVE_WITH_KNOTS('',3,(#173,#174,#175,#176),.UNSPECIFIED.,
 .F.,.F.,(4,4),(0.,1836.5),.UNSPECIFIED.);
#66=B_SPLINE_CURVE_WITH_KNOTS('',3,(#178,#179,#180,#181),.UNSPECIFIED.,
 .F.,.F.,(4,4),(0.,6.39999999999986),.UNSPECIFIED.);
#67=B_SPLINE_CURVE_WITH_KNOTS('',3,(#183,#184,#185,#186),.UNSPECIFIED.,
 .F.,.F.,(4,4),(-1428.28568570857,0.),.UNSPECIFIED.);
#68=EDGE_LOOP('',(#12,#13,#14,#15));
#69=EDGE_LOOP('',(#16,#17,#18,#19));
#70=EDGE_LOOP('',(#20,#21,#22,#23));
#71=EDGE_LOOP('',(#24,#25,#26,#27));
#72=EDGE_LOOP('',(#28,#29,#30,#31));
#73=EDGE_LOOP('',(#32,#33,#34,#35));
#74=FACE_BOUND('',#68,.T.);
#75=FACE_BOUND('',#69,.T.);
#76=FACE_BOUND('',#70,.T.);
#77=FACE_BOUND('',#71,.T.);
#78=FACE_BOUND('',#72,.T.);
#79=FACE_BOUND('',#73,.T.);
#80=PLANE('',#105);
#81=PLANE('',#106);
#82=PLANE('',#107);
#83=PLANE('',#108);
#84=PLANE('',#109);
#85=PLANE('',#110);
#86=ADVANCED_FACE('',(#74),#80,.T.);
#87=ADVANCED_FACE('',(#75),#81,.T.);
#88=ADVANCED_FACE('',(#76),#82,.T.);
#89=ADVANCED_FACE('',(#77),#83,.T.);
#90=ADVANCED_FACE('',(#78),#84,.T.);
#91=ADVANCED_FACE('',(#79),#85,.T.);
#92=CLOSED_SHELL('',(#86,#87,#88,#89,#90,#91));
#93=STYLED_ITEM('',(#94),#101);
#94=PRESENTATION_STYLE_ASSIGNMENT((#95));
#95=SURFACE_STYLE_USAGE(.BOTH.,#96);
#96=SURFACE_SIDE_STYLE('',(#97));
#97=SURFACE_STYLE_FILL_AREA(#98);
#98=FILL_AREA_STYLE('',(#99));
#99=FILL_AREA_STYLE_COLOUR('',#100);
#100=COLOUR_RGB('',0.87843137254902,0.874509803921569,0.858823529411765);
#101=MANIFOLD_SOLID_BREP('Defletor',#92);
#102=SHAPE_DEFINITION_REPRESENTATION(#194,#103);
#103=SHAPE_REPRESENTATION('Defletor',(#104),#189);
#104=AXIS2_PLACEMENT_3D('',#125,#111,#112);
#105=AXIS2_PLACEMENT_3D('',#126,#113,#114);
#106=AXIS2_PLACEMENT_3D('',#147,#115,#116);
#107=AXIS2_PLACEMENT_3D('',#162,#117,#118);
#108=AXIS2_PLACEMENT_3D('',#172,#119,#120);
#109=AXIS2_PLACEMENT_3D('',#182,#121,#122);
#110=AXIS2_PLACEMENT_3D('',#187,#123,#124);
#111=DIRECTION('',(0.,0.,1.));
#112=DIRECTION('',(1.,0.,0.));
#113=DIRECTION('',(0.,0.,-1.));
#114=DIRECTION('',(2.22044604925031E-16,-1.,0.));
#115=DIRECTION('',(-1.,-2.22044604925031E-16,0.));
#116=DIRECTION('',(0.,0.,1.));
#117=DIRECTION('',(-2.22044604925031E-16,1.,0.));
#118=DIRECTION('',(0.,0.,-1.));
#119=DIRECTION('',(1.,2.22044604925031E-16,0.));
#120=DIRECTION('',(0.,0.,-1.));
#121=DIRECTION('',(2.22044604925031E-16,-1.,0.));
#122=DIRECTION('',(0.,0.,1.));
#123=DIRECTION('',(0.,0.,1.));
#124=DIRECTION('',(-2.22044604925031E-16,1.,0.));
#125=CARTESIAN_POINT('',(0.,0.,0.));
#126=CARTESIAN_POINT('',(20.1394822084989,-80.4398099999995,-43.4228240000002));
#127=CARTESIAN_POINT('',(20.1392282084989,-80.6026239999995,-43.4228240000002));
#128=CARTESIAN_POINT('',(8.04640940283294,-80.6026239999995,-43.4228240000002));
#129=CARTESIAN_POINT('',(-4.04640940283296,-80.6026239999996,-43.4228240000002));
#130=CARTESIAN_POINT('',(-16.1392282084989,-80.6026239999996,-43.4228240000002));
#131=CARTESIAN_POINT('',(20.1392282084989,-80.6026239999995,-43.4228240000002));
#132=CARTESIAN_POINT('',(-16.1392282084989,-80.6026239999996,-43.4228240000002));
#133=CARTESIAN_POINT('',(-16.1392282084989,-80.6026239999996,-43.4228240000002));
#134=CARTESIAN_POINT('',(-16.1392282084989,-80.5484373333329,-43.4228240000002));
#135=CARTESIAN_POINT('',(-16.1392282084989,-80.4942506666662,-43.4228240000002));
#136=CARTESIAN_POINT('',(-16.1392282084989,-80.4400639999996,-43.4228240000002));
#137=CARTESIAN_POINT('',(-16.1392282084989,-80.4400639999996,-43.4228240000002));
#138=CARTESIAN_POINT('',(-16.1392282084989,-80.4400639999996,-43.4228240000002));
#139=CARTESIAN_POINT('',(-4.04640940283296,-80.4400639999996,-43.4228240000002));
#140=CARTESIAN_POINT('',(8.04640940283294,-80.4400639999995,-43.4228240000002));
#141=CARTESIAN_POINT('',(20.1392282084989,-80.4400639999995,-43.4228240000002));
#142=CARTESIAN_POINT('',(20.1392282084989,-80.4400639999995,-43.4228240000002));
#143=CARTESIAN_POINT('',(20.1392282084989,-80.4400639999995,-43.4228240000002));
#144=CARTESIAN_POINT('',(20.1392282084989,-80.4942506666662,-43.4228240000002));
#145=CARTESIAN_POINT('',(20.1392282084989,-80.5484373333329,-43.4228240000002));
#146=CARTESIAN_POINT('',(20.1392282084989,-80.6026239999995,-43.4228240000002));
#147=CARTESIAN_POINT('',(-16.1392282084989,-80.6028779999995,-43.4230780000002));
#148=CARTESIAN_POINT('',(-16.1392282084989,-80.6026239999996,-43.4228240000002));
#149=CARTESIAN_POINT('',(-16.1392282084989,-80.6026239999996,-27.8737906666668));
#150=CARTESIAN_POINT('',(-16.1392282084989,-80.6026239999996,-12.3247573333335));
#151=CARTESIAN_POINT('',(-16.1392282084989,-80.6026239999996,3.22427599999981));
#152=CARTESIAN_POINT('',(-16.1392282084989,-80.6026239999996,3.22427599999982));
#153=CARTESIAN_POINT('',(-16.1392282084989,-80.6026239999996,3.22427599999981));
#154=CARTESIAN_POINT('',(-16.1392282084989,-80.5484373333329,3.22427599999981));
#155=CARTESIAN_POINT('',(-16.1392282084989,-80.4942506666662,3.22427599999981));
#156=CARTESIAN_POINT('',(-16.1392282084989,-80.4400639999996,3.22427599999981));
#157=CARTESIAN_POINT('',(-16.1392282084989,-80.4400639999996,3.22427599999982));
#158=CARTESIAN_POINT('',(-16.1392282084989,-80.4400639999996,3.22427599999981));
#159=CARTESIAN_POINT('',(-16.1392282084989,-80.4400639999996,-12.3247573333335));
#160=CARTESIAN_POINT('',(-16.1392282084989,-80.4400639999996,-27.8737906666668));
#161=CARTESIAN_POINT('',(-16.1392282084989,-80.4400639999996,-43.4228240000002));
#162=CARTESIAN_POINT('',(20.1394822084989,-80.4400639999995,3.22452999999982));
#163=CARTESIAN_POINT('',(-16.1392282084989,-80.4400639999996,3.22427599999982));
#164=CARTESIAN_POINT('',(-4.04640940283296,-80.4400639999996,3.22427599999982));
#165=CARTESIAN_POINT('',(8.04640940283294,-80.4400639999995,3.22427599999982));
#166=CARTESIAN_POINT('',(20.1392282084989,-80.4400639999995,3.22427599999982));
#167=CARTESIAN_POINT('',(20.1392282084989,-80.4400639999995,3.22427599999982));
#168=CARTESIAN_POINT('',(20.1392282084989,-80.4400639999995,3.22427599999982));
#169=CARTESIAN_POINT('',(20.1392282084989,-80.4400639999995,-12.3247573333335));
#170=CARTESIAN_POINT('',(20.1392282084989,-80.4400639999995,-27.8737906666668));
#171=CARTESIAN_POINT('',(20.1392282084989,-80.4400639999995,-43.4228240000002));
#172=CARTESIAN_POINT('',(20.1392282084989,-80.6028779999995,3.22452999999982));
#173=CARTESIAN_POINT('',(20.1392282084989,-80.6026239999995,3.22427599999982));
#174=CARTESIAN_POINT('',(20.1392282084989,-80.6026239999995,-12.3247573333335));
#175=CARTESIAN_POINT('',(20.1392282084989,-80.6026239999995,-27.8737906666668));
#176=CARTESIAN_POINT('',(20.1392282084989,-80.6026239999995,-43.4228240000002));
#177=CARTESIAN_POINT('',(20.1392282084989,-80.6026239999995,3.22427599999982));
#178=CARTESIAN_POINT('',(20.1392282084989,-80.4400639999995,3.22427599999982));
#179=CARTESIAN_POINT('',(20.1392282084989,-80.4942506666662,3.22427599999982));
#180=CARTESIAN_POINT('',(20.1392282084989,-80.5484373333329,3.22427599999982));
#181=CARTESIAN_POINT('',(20.1392282084989,-80.6026239999995,3.22427599999982));
#182=CARTESIAN_POINT('',(20.1394822084989,-80.6026239999995,-43.4230780000002));
#183=CARTESIAN_POINT('',(20.1392282084989,-80.6026239999995,3.22427599999981));
#184=CARTESIAN_POINT('',(8.04640940283294,-80.6026239999995,3.22427599999981));
#185=CARTESIAN_POINT('',(-4.04640940283297,-80.6026239999996,3.22427599999981));
#186=CARTESIAN_POINT('',(-16.1392282084989,-80.6026239999996,3.22427599999981));
#187=CARTESIAN_POINT('',(20.1394822084989,-80.6028779999995,3.22427599999982));
#188=MECHANICAL_DESIGN_GEOMETRIC_PRESENTATION_REPRESENTATION('',(#93),#189);
#189=(
GEOMETRIC_REPRESENTATION_CONTEXT(3)
GLOBAL_UNCERTAINTY_ASSIGNED_CONTEXT((#190))
GLOBAL_UNIT_ASSIGNED_CONTEXT((#193,#192,#191))
REPRESENTATION_CONTEXT('Defletor','TOP_LEVEL_ASSEMBLY_PART')
);
#190=UNCERTAINTY_MEASURE_WITH_UNIT(LENGTH_MEASURE(0.0002),#193,
'DISTANCE_ACCURACY_VALUE','Maximum Tolerance applied to model');
#191=(
NAMED_UNIT(*)
SI_UNIT($,.STERADIAN.)
SOLID_ANGLE_UNIT()
);
#192=(
NAMED_UNIT(*)
PLANE_ANGLE_UNIT()
SI_UNIT($,.RADIAN.)
);
#193=(
LENGTH_UNIT()
NAMED_UNIT(*)
SI_UNIT($,.METRE.)
);
#194=PRODUCT_DEFINITION_SHAPE('','',#195);
#195=PRODUCT_DEFINITION('','',#197,#196);
#196=PRODUCT_DEFINITION_CONTEXT('',#203,'design');
#197=PRODUCT_DEFINITION_FORMATION_WITH_SPECIFIED_SOURCE('','',#199,
 .NOT_KNOWN.);
#198=PRODUCT_RELATED_PRODUCT_CATEGORY('','',(#199));
#199=PRODUCT('Defletor','Defletor','Defletor',(#201));
#200=PRODUCT_CATEGORY('','');
#201=PRODUCT_CONTEXT('',#203,'mechanical');
#202=APPLICATION_PROTOCOL_DEFINITION('international standard',
'ap242_managed_model_based_3d_engineering',2011,#203);
#203=APPLICATION_CONTEXT('managed model based 3d engineering');
ENDSEC;
END-ISO-10303-21;
