ISO-10303-21;
HEADER;
/* Generated by software containing ST-Developer
 * from STEP Tools, Inc. (www.steptools.com) 
 */

FILE_DESCRIPTION(
/* description */ (
'CAx-IF Rec.Pracs.---Representation and Presentation of Product Manufa
cturing Information (PMI)---4.0---2014-10-13',
'CAx-IF Rec.Pracs.---3D Tessellated Geometry---0.4---2014-09-14','2;1'),

/* implementation_level */ '2;1');

FILE_NAME(
/* name */ 'Passagem',
/* time_stamp */ '2026-07-01T19:24:14-03:00',
/* author */ (''),
/* organization */ ('Siemens PLM Software'),
/* preprocessor_version */ 'ST-DEVELOPER v20',
/* originating_system */ 'DEX',
/* authorisation */ $);

FILE_SCHEMA (('AP242_MANAGED_MODEL_BASED_3D_ENGINEERING_MIM_LF { 1 0 10303 442 1 1 4 }'));
ENDSEC;

DATA;
#10=SHAPE_REPRESENTATION_RELATIONSHIP('','',#195,#12);
#11=SHAPE_REPRESENTATION_RELATIONSHIP('','',#196,#13);
#12=ADVANCED_BREP_SHAPE_REPRESENTATION('',(#191),#367);
#13=ADVANCED_BREP_SHAPE_REPRESENTATION('',(#192),#368);
#14=ORIENTED_EDGE('',*,*,#62,.T.);
#15=ORIENTED_EDGE('',*,*,#63,.T.);
#16=ORIENTED_EDGE('',*,*,#64,.T.);
#17=ORIENTED_EDGE('',*,*,#65,.T.);
#18=ORIENTED_EDGE('',*,*,#66,.T.);
#19=ORIENTED_EDGE('',*,*,#63,.F.);
#20=ORIENTED_EDGE('',*,*,#67,.F.);
#21=ORIENTED_EDGE('',*,*,#68,.F.);
#22=ORIENTED_EDGE('',*,*,#69,.T.);
#23=ORIENTED_EDGE('',*,*,#64,.F.);
#24=ORIENTED_EDGE('',*,*,#66,.F.);
#25=ORIENTED_EDGE('',*,*,#70,.F.);
#26=ORIENTED_EDGE('',*,*,#71,.F.);
#27=ORIENTED_EDGE('',*,*,#65,.F.);
#28=ORIENTED_EDGE('',*,*,#69,.F.);
#29=ORIENTED_EDGE('',*,*,#72,.F.);
#30=ORIENTED_EDGE('',*,*,#67,.T.);
#31=ORIENTED_EDGE('',*,*,#62,.F.);
#32=ORIENTED_EDGE('',*,*,#71,.T.);
#33=ORIENTED_EDGE('',*,*,#73,.F.);
#34=ORIENTED_EDGE('',*,*,#73,.T.);
#35=ORIENTED_EDGE('',*,*,#72,.T.);
#36=ORIENTED_EDGE('',*,*,#70,.T.);
#37=ORIENTED_EDGE('',*,*,#68,.T.);
#38=ORIENTED_EDGE('',*,*,#74,.T.);
#39=ORIENTED_EDGE('',*,*,#75,.T.);
#40=ORIENTED_EDGE('',*,*,#76,.T.);
#41=ORIENTED_EDGE('',*,*,#77,.T.);
#42=ORIENTED_EDGE('',*,*,#78,.T.);
#43=ORIENTED_EDGE('',*,*,#75,.F.);
#44=ORIENTED_EDGE('',*,*,#79,.F.);
#45=ORIENTED_EDGE('',*,*,#80,.F.);
#46=ORIENTED_EDGE('',*,*,#81,.T.);
#47=ORIENTED_EDGE('',*,*,#76,.F.);
#48=ORIENTED_EDGE('',*,*,#78,.F.);
#49=ORIENTED_EDGE('',*,*,#82,.F.);
#50=ORIENTED_EDGE('',*,*,#83,.F.);
#51=ORIENTED_EDGE('',*,*,#77,.F.);
#52=ORIENTED_EDGE('',*,*,#81,.F.);
#53=ORIENTED_EDGE('',*,*,#84,.F.);
#54=ORIENTED_EDGE('',*,*,#79,.T.);
#55=ORIENTED_EDGE('',*,*,#74,.F.);
#56=ORIENTED_EDGE('',*,*,#83,.T.);
#57=ORIENTED_EDGE('',*,*,#85,.F.);
#58=ORIENTED_EDGE('',*,*,#85,.T.);
#59=ORIENTED_EDGE('',*,*,#84,.T.);
#60=ORIENTED_EDGE('',*,*,#82,.T.);
#61=ORIENTED_EDGE('',*,*,#80,.T.);
#62=EDGE_CURVE('',#86,#87,#102,.T.);
#63=EDGE_CURVE('',#87,#88,#103,.T.);
#64=EDGE_CURVE('',#88,#89,#104,.T.);
#65=EDGE_CURVE('',#89,#86,#105,.T.);
#66=EDGE_CURVE('',#90,#88,#106,.T.);
#67=EDGE_CURVE('',#91,#87,#107,.F.);
#68=EDGE_CURVE('',#90,#91,#108,.F.);
#69=EDGE_CURVE('',#92,#89,#109,.T.);
#70=EDGE_CURVE('',#92,#90,#110,.F.);
#71=EDGE_CURVE('',#86,#93,#111,.F.);
#72=EDGE_CURVE('',#93,#92,#112,.F.);
#73=EDGE_CURVE('',#91,#93,#113,.F.);
#74=EDGE_CURVE('',#94,#95,#114,.T.);
#75=EDGE_CURVE('',#95,#96,#115,.T.);
#76=EDGE_CURVE('',#96,#97,#116,.T.);
#77=EDGE_CURVE('',#97,#94,#117,.T.);
#78=EDGE_CURVE('',#98,#96,#118,.T.);
#79=EDGE_CURVE('',#99,#95,#119,.F.);
#80=EDGE_CURVE('',#98,#99,#120,.F.);
#81=EDGE_CURVE('',#100,#97,#121,.T.);
#82=EDGE_CURVE('',#100,#98,#122,.F.);
#83=EDGE_CURVE('',#94,#101,#123,.F.);
#84=EDGE_CURVE('',#101,#100,#124,.F.);
#85=EDGE_CURVE('',#99,#101,#125,.F.);
#86=VERTEX_POINT('',#245);
#87=VERTEX_POINT('',#246);
#88=VERTEX_POINT('',#251);
#89=VERTEX_POINT('',#256);
#90=VERTEX_POINT('',#266);
#91=VERTEX_POINT('',#271);
#92=VERTEX_POINT('',#281);
#93=VERTEX_POINT('',#291);
#94=VERTEX_POINT('',#308);
#95=VERTEX_POINT('',#309);
#96=VERTEX_POINT('',#314);
#97=VERTEX_POINT('',#319);
#98=VERTEX_POINT('',#329);
#99=VERTEX_POINT('',#334);
#100=VERTEX_POINT('',#344);
#101=VERTEX_POINT('',#354);
#102=B_SPLINE_CURVE_WITH_KNOTS('',3,(#241,#242,#243,#244),.UNSPECIFIED.,
 .F.,.F.,(4,4),(0.,450.555682300976),.UNSPECIFIED.);
#103=B_SPLINE_CURVE_WITH_KNOTS('',3,(#247,#248,#249,#250),.UNSPECIFIED.,
 .F.,.F.,(4,4),(0.,216.776790541043),.UNSPECIFIED.);
#104=B_SPLINE_CURVE_WITH_KNOTS('',3,(#252,#253,#254,#255),.UNSPECIFIED.,
 .F.,.F.,(4,4),(0.,450.55568230099),.UNSPECIFIED.);
#105=B_SPLINE_CURVE_WITH_KNOTS('',3,(#257,#258,#259,#260),.UNSPECIFIED.,
 .F.,.F.,(4,4),(0.,216.776790541043),.UNSPECIFIED.);
#106=B_SPLINE_CURVE_WITH_KNOTS('',3,(#262,#263,#264,#265),.UNSPECIFIED.,
 .F.,.F.,(4,4),(0.,2.7203361950223),.UNSPECIFIED.);
#107=B_SPLINE_CURVE_WITH_KNOTS('',3,(#267,#268,#269,#270),.UNSPECIFIED.,
 .F.,.F.,(4,4),(-2.7203361950223,0.),.UNSPECIFIED.);
#108=B_SPLINE_CURVE_WITH_KNOTS('',3,(#272,#273,#274,#275),.UNSPECIFIED.,
 .F.,.F.,(4,4),(-216.776790541043,0.),.UNSPECIFIED.);
#109=B_SPLINE_CURVE_WITH_KNOTS('',3,(#277,#278,#279,#280),.UNSPECIFIED.,
 .F.,.F.,(4,4),(0.,2.7203361950223),.UNSPECIFIED.);
#110=B_SPLINE_CURVE_WITH_KNOTS('',3,(#282,#283,#284,#285),.UNSPECIFIED.,
 .F.,.F.,(4,4),(-450.555682300976,0.),.UNSPECIFIED.);
#111=B_SPLINE_CURVE_WITH_KNOTS('',3,(#287,#288,#289,#290),.UNSPECIFIED.,
 .F.,.F.,(4,4),(-2.7203361950223,0.),.UNSPECIFIED.);
#112=B_SPLINE_CURVE_WITH_KNOTS('',3,(#292,#293,#294,#295),.UNSPECIFIED.,
 .F.,.F.,(4,4),(-216.776790541043,0.),.UNSPECIFIED.);
#113=B_SPLINE_CURVE_WITH_KNOTS('',3,(#297,#298,#299,#300),.UNSPECIFIED.,
 .F.,.F.,(4,4),(-450.555682300976,0.),.UNSPECIFIED.);
#114=B_SPLINE_CURVE_WITH_KNOTS('',3,(#304,#305,#306,#307),.UNSPECIFIED.,
 .F.,.F.,(4,4),(0.,450.555682301004),.UNSPECIFIED.);
#115=B_SPLINE_CURVE_WITH_KNOTS('',3,(#310,#311,#312,#313),.UNSPECIFIED.,
 .F.,.F.,(4,4),(0.,216.776790541043),.UNSPECIFIED.);
#116=B_SPLINE_CURVE_WITH_KNOTS('',3,(#315,#316,#317,#318),.UNSPECIFIED.,
 .F.,.F.,(4,4),(0.,450.55568230099),.UNSPECIFIED.);
#117=B_SPLINE_CURVE_WITH_KNOTS('',3,(#320,#321,#322,#323),.UNSPECIFIED.,
 .F.,.F.,(4,4),(0.,216.776790541043),.UNSPECIFIED.);
#118=B_SPLINE_CURVE_WITH_KNOTS('',3,(#325,#326,#327,#328),.UNSPECIFIED.,
 .F.,.F.,(4,4),(0.,2.7203361950223),.UNSPECIFIED.);
#119=B_SPLINE_CURVE_WITH_KNOTS('',3,(#330,#331,#332,#333),.UNSPECIFIED.,
 .F.,.F.,(4,4),(-2.7203361950223,0.),.UNSPECIFIED.);
#120=B_SPLINE_CURVE_WITH_KNOTS('',3,(#335,#336,#337,#338),.UNSPECIFIED.,
 .F.,.F.,(4,4),(-216.776790541043,0.),.UNSPECIFIED.);
#121=B_SPLINE_CURVE_WITH_KNOTS('',3,(#340,#341,#342,#343),.UNSPECIFIED.,
 .F.,.F.,(4,4),(0.,2.7203361950223),.UNSPECIFIED.);
#122=B_SPLINE_CURVE_WITH_KNOTS('',3,(#345,#346,#347,#348),.UNSPECIFIED.,
 .F.,.F.,(4,4),(-450.555682300976,0.),.UNSPECIFIED.);
#123=B_SPLINE_CURVE_WITH_KNOTS('',3,(#350,#351,#352,#353),.UNSPECIFIED.,
 .F.,.F.,(4,4),(-2.7203361950223,0.),.UNSPECIFIED.);
#124=B_SPLINE_CURVE_WITH_KNOTS('',3,(#355,#356,#357,#358),.UNSPECIFIED.,
 .F.,.F.,(4,4),(-216.776790541043,0.),.UNSPECIFIED.);
#125=B_SPLINE_CURVE_WITH_KNOTS('',3,(#360,#361,#362,#363),.UNSPECIFIED.,
 .F.,.F.,(4,4),(-450.555682300976,0.),.UNSPECIFIED.);
#126=EDGE_LOOP('',(#14,#15,#16,#17));
#127=EDGE_LOOP('',(#18,#19,#20,#21));
#128=EDGE_LOOP('',(#22,#23,#24,#25));
#129=EDGE_LOOP('',(#26,#27,#28,#29));
#130=EDGE_LOOP('',(#30,#31,#32,#33));
#131=EDGE_LOOP('',(#34,#35,#36,#37));
#132=EDGE_LOOP('',(#38,#39,#40,#41));
#133=EDGE_LOOP('',(#42,#43,#44,#45));
#134=EDGE_LOOP('',(#46,#47,#48,#49));
#135=EDGE_LOOP('',(#50,#51,#52,#53));
#136=EDGE_LOOP('',(#54,#55,#56,#57));
#137=EDGE_LOOP('',(#58,#59,#60,#61));
#138=FACE_BOUND('',#126,.T.);
#139=FACE_BOUND('',#127,.T.);
#140=FACE_BOUND('',#128,.T.);
#141=FACE_BOUND('',#129,.T.);
#142=FACE_BOUND('',#130,.T.);
#143=FACE_BOUND('',#131,.T.);
#144=FACE_BOUND('',#132,.T.);
#145=FACE_BOUND('',#133,.T.);
#146=FACE_BOUND('',#134,.T.);
#147=FACE_BOUND('',#135,.T.);
#148=FACE_BOUND('',#136,.T.);
#149=FACE_BOUND('',#137,.T.);
#150=PLANE('',#198);
#151=PLANE('',#199);
#152=PLANE('',#200);
#153=PLANE('',#201);
#154=PLANE('',#202);
#155=PLANE('',#203);
#156=PLANE('',#205);
#157=PLANE('',#206);
#158=PLANE('',#207);
#159=PLANE('',#208);
#160=PLANE('',#209);
#161=PLANE('',#210);
#162=ADVANCED_FACE('',(#138),#150,.T.);
#163=ADVANCED_FACE('',(#139),#151,.T.);
#164=ADVANCED_FACE('',(#140),#152,.T.);
#165=ADVANCED_FACE('',(#141),#153,.T.);
#166=ADVANCED_FACE('',(#142),#154,.T.);
#167=ADVANCED_FACE('',(#143),#155,.T.);
#168=ADVANCED_FACE('',(#144),#156,.T.);
#169=ADVANCED_FACE('',(#145),#157,.T.);
#170=ADVANCED_FACE('',(#146),#158,.T.);
#171=ADVANCED_FACE('',(#147),#159,.T.);
#172=ADVANCED_FACE('',(#148),#160,.T.);
#173=ADVANCED_FACE('',(#149),#161,.T.);
#174=CLOSED_SHELL('',(#162,#163,#164,#165,#166,#167));
#175=CLOSED_SHELL('',(#168,#169,#170,#171,#172,#173));
#176=STYLED_ITEM('',(#178),#191);
#177=STYLED_ITEM('',(#179),#192);
#178=PRESENTATION_STYLE_ASSIGNMENT((#180));
#179=PRESENTATION_STYLE_ASSIGNMENT((#181));
#180=SURFACE_STYLE_USAGE(.BOTH.,#182);
#181=SURFACE_STYLE_USAGE(.BOTH.,#183);
#182=SURFACE_SIDE_STYLE('',(#184));
#183=SURFACE_SIDE_STYLE('',(#185));
#184=SURFACE_STYLE_FILL_AREA(#186);
#185=SURFACE_STYLE_FILL_AREA(#187);
#186=FILL_AREA_STYLE('',(#188));
#187=FILL_AREA_STYLE('',(#189));
#188=FILL_AREA_STYLE_COLOUR('',#190);
#189=FILL_AREA_STYLE_COLOUR('',#190);
#190=COLOUR_RGB('',0.745098039215686,0.745098039215686,0.745098039215686);
#191=MANIFOLD_SOLID_BREP('1EA',#174);
#192=MANIFOLD_SOLID_BREP('1EB',#175);
#193=SHAPE_DEFINITION_REPRESENTATION(#377,#195);
#194=SHAPE_DEFINITION_REPRESENTATION(#378,#196);
#195=SHAPE_REPRESENTATION('1EA',(#197),#367);
#196=SHAPE_REPRESENTATION('1EB',(#204),#368);
#197=AXIS2_PLACEMENT_3D('',#239,#211,#212);
#198=AXIS2_PLACEMENT_3D('',#240,#213,#214);
#199=AXIS2_PLACEMENT_3D('',#261,#215,#216);
#200=AXIS2_PLACEMENT_3D('',#276,#217,#218);
#201=AXIS2_PLACEMENT_3D('',#286,#219,#220);
#202=AXIS2_PLACEMENT_3D('',#296,#221,#222);
#203=AXIS2_PLACEMENT_3D('',#301,#223,#224);
#204=AXIS2_PLACEMENT_3D('',#302,#225,#226);
#205=AXIS2_PLACEMENT_3D('',#303,#227,#228);
#206=AXIS2_PLACEMENT_3D('',#324,#229,#230);
#207=AXIS2_PLACEMENT_3D('',#339,#231,#232);
#208=AXIS2_PLACEMENT_3D('',#349,#233,#234);
#209=AXIS2_PLACEMENT_3D('',#359,#235,#236);
#210=AXIS2_PLACEMENT_3D('',#364,#237,#238);
#211=DIRECTION('',(0.,0.,1.));
#212=DIRECTION('',(1.,0.,0.));
#213=DIRECTION('',(1.,0.,0.));
#214=DIRECTION('',(0.,1.,0.));
#215=DIRECTION('',(0.,-1.,0.));
#216=DIRECTION('',(0.,0.,-1.));
#217=DIRECTION('',(0.,0.,-1.));
#218=DIRECTION('',(0.,1.,0.));
#219=DIRECTION('',(0.,1.,0.));
#220=DIRECTION('',(0.,0.,1.));
#221=DIRECTION('',(0.,0.,1.));
#222=DIRECTION('',(0.,-1.,0.));
#223=DIRECTION('',(-1.,0.,0.));
#224=DIRECTION('',(0.,-1.,0.));
#225=DIRECTION('',(0.,0.,1.));
#226=DIRECTION('',(1.,0.,0.));
#227=DIRECTION('',(-1.,0.,0.));
#228=DIRECTION('',(0.,-1.,0.));
#229=DIRECTION('',(0.,1.,0.));
#230=DIRECTION('',(0.,0.,-1.));
#231=DIRECTION('',(0.,0.,-1.));
#232=DIRECTION('',(0.,-1.,0.));
#233=DIRECTION('',(0.,-1.,0.));
#234=DIRECTION('',(0.,0.,1.));
#235=DIRECTION('',(0.,0.,1.));
#236=DIRECTION('',(0.,1.,0.));
#237=DIRECTION('',(1.,0.,0.));
#238=DIRECTION('',(0.,1.,0.));
#239=CARTESIAN_POINT('',(0.,0.,0.));
#240=CARTESIAN_POINT('',(-5.62,-38.422466656057,-2.10997799999981));
#241=CARTESIAN_POINT('',(-5.62,-11.4982126560571,10.8442760000001));
#242=CARTESIAN_POINT('',(-5.62,-20.4728793227237,10.8442760000001));
#243=CARTESIAN_POINT('',(-5.62,-29.4475459893904,10.8442760000001));
#244=CARTESIAN_POINT('',(-5.62,-38.422212656057,10.8442760000001));
#245=CARTESIAN_POINT('',(-5.62,-11.4982126560571,10.8442760000001));
#246=CARTESIAN_POINT('',(-5.62000000000009,-38.422212656057,10.8442760000001));
#247=CARTESIAN_POINT('',(-5.62,-38.422212656057,10.8442760000001));
#248=CARTESIAN_POINT('',(-5.62,-38.422212656057,6.52627600000005));
#249=CARTESIAN_POINT('',(-5.62,-38.422212656057,2.20827600000006));
#250=CARTESIAN_POINT('',(-5.62,-38.422212656057,-2.10972399999994));
#251=CARTESIAN_POINT('',(-5.62000000000009,-38.422212656057,-2.10972399999994));
#252=CARTESIAN_POINT('',(-5.62,-38.422212656057,-2.10972399999994));
#253=CARTESIAN_POINT('',(-5.62,-29.4475459893904,-2.10972399999994));
#254=CARTESIAN_POINT('',(-5.62,-20.4728793227237,-2.10972399999994));
#255=CARTESIAN_POINT('',(-5.62,-11.4982126560571,-2.10972399999994));
#256=CARTESIAN_POINT('',(-5.62,-11.4982126560571,-2.10972399999994));
#257=CARTESIAN_POINT('',(-5.62,-11.4982126560571,-2.10972399999994));
#258=CARTESIAN_POINT('',(-5.62,-11.4982126560571,2.20827600000006));
#259=CARTESIAN_POINT('',(-5.62,-11.4982126560571,6.52627600000005));
#260=CARTESIAN_POINT('',(-5.62,-11.4982126560571,10.8442760000001));
#261=CARTESIAN_POINT('',(-5.78281400000007,-38.422212656057,10.8445299999999));
#262=CARTESIAN_POINT('',(-5.78256000000003,-38.422212656057,-2.10972399999994));
#263=CARTESIAN_POINT('',(-5.72837333333341,-38.422212656057,-2.10972399999994));
#264=CARTESIAN_POINT('',(-5.67418666666679,-38.422212656057,-2.10972399999994));
#265=CARTESIAN_POINT('',(-5.62000000000018,-38.422212656057,-2.10972399999994));
#266=CARTESIAN_POINT('',(-5.78256000000003,-38.422212656057,-2.10972399999994));
#267=CARTESIAN_POINT('',(-5.62000000000018,-38.422212656057,10.8442760000001));
#268=CARTESIAN_POINT('',(-5.67418666666679,-38.422212656057,10.8442760000001));
#269=CARTESIAN_POINT('',(-5.72837333333341,-38.422212656057,10.8442760000001));
#270=CARTESIAN_POINT('',(-5.78256000000003,-38.422212656057,10.8442760000001));
#271=CARTESIAN_POINT('',(-5.78256000000003,-38.422212656057,10.8442760000001));
#272=CARTESIAN_POINT('',(-5.78256000000003,-38.422212656057,10.8442760000001));
#273=CARTESIAN_POINT('',(-5.78256000000003,-38.422212656057,6.52627600000005));
#274=CARTESIAN_POINT('',(-5.78256000000003,-38.422212656057,2.20827600000006));
#275=CARTESIAN_POINT('',(-5.78256000000003,-38.422212656057,-2.10972399999994));
#276=CARTESIAN_POINT('',(-5.78281400000028,-38.422466656057,-2.10972399999994));
#277=CARTESIAN_POINT('',(-5.78255999999985,-11.4982126560571,-2.10972399999994));
#278=CARTESIAN_POINT('',(-5.72837333333323,-11.4982126560571,-2.10972399999994));
#279=CARTESIAN_POINT('',(-5.67418666666661,-11.4982126560571,-2.10972399999994));
#280=CARTESIAN_POINT('',(-5.62,-11.4982126560571,-2.10972399999994));
#281=CARTESIAN_POINT('',(-5.78255999999994,-11.4982126560571,-2.10972399999994));
#282=CARTESIAN_POINT('',(-5.78256000000003,-38.422212656057,-2.10972399999994));
#283=CARTESIAN_POINT('',(-5.78256000000003,-29.4475459893904,-2.10972399999994));
#284=CARTESIAN_POINT('',(-5.78256000000003,-20.4728793227237,-2.10972399999994));
#285=CARTESIAN_POINT('',(-5.78256000000003,-11.4982126560571,-2.10972399999994));
#286=CARTESIAN_POINT('',(-5.78281400000007,-11.4982126560571,-2.10997799999981));
#287=CARTESIAN_POINT('',(-5.78255999999985,-11.4982126560571,10.8442760000001));
#288=CARTESIAN_POINT('',(-5.72837333333323,-11.4982126560571,10.8442760000001));
#289=CARTESIAN_POINT('',(-5.67418666666662,-11.4982126560571,10.8442760000001));
#290=CARTESIAN_POINT('',(-5.62,-11.4982126560571,10.8442760000001));
#291=CARTESIAN_POINT('',(-5.78255999999994,-11.4982126560571,10.8442760000001));
#292=CARTESIAN_POINT('',(-5.78256000000003,-11.4982126560571,-2.10972399999994));
#293=CARTESIAN_POINT('',(-5.78256000000003,-11.4982126560571,2.20827600000005));
#294=CARTESIAN_POINT('',(-5.78256000000003,-11.4982126560571,6.52627600000005));
#295=CARTESIAN_POINT('',(-5.78256000000003,-11.4982126560571,10.8442760000001));
#296=CARTESIAN_POINT('',(-5.78281400000007,-11.497958656057,10.8442760000001));
#297=CARTESIAN_POINT('',(-5.78256000000003,-11.4982126560571,10.8442760000001));
#298=CARTESIAN_POINT('',(-5.78256000000003,-20.4728793227237,10.8442760000001));
#299=CARTESIAN_POINT('',(-5.78256000000003,-29.4475459893904,10.8442760000001));
#300=CARTESIAN_POINT('',(-5.78256000000003,-38.422212656057,10.8442760000001));
#301=CARTESIAN_POINT('',(-5.78256000000003,-11.497958656057,-2.10997799999981));
#302=CARTESIAN_POINT('',(0.,0.,0.));
#303=CARTESIAN_POINT('',(9.61999999999982,-11.497958656057,-2.10997799999981));
#304=CARTESIAN_POINT('',(9.61999999999982,-38.422212656057,10.8442760000001));
#305=CARTESIAN_POINT('',(9.61999999999982,-29.4475459893904,10.844276));
#306=CARTESIAN_POINT('',(9.61999999999982,-20.4728793227237,10.844276));
#307=CARTESIAN_POINT('',(9.61999999999982,-11.4982126560571,10.8442760000001));
#308=CARTESIAN_POINT('',(9.61999999999982,-38.422212656057,10.8442760000001));
#309=CARTESIAN_POINT('',(9.61999999999982,-11.4982126560571,10.8442760000001));
#310=CARTESIAN_POINT('',(9.61999999999982,-11.4982126560571,10.8442760000001));
#311=CARTESIAN_POINT('',(9.61999999999982,-11.4982126560571,6.52627600000005));
#312=CARTESIAN_POINT('',(9.61999999999982,-11.4982126560571,2.20827600000006));
#313=CARTESIAN_POINT('',(9.61999999999982,-11.4982126560571,-2.10972399999994));
#314=CARTESIAN_POINT('',(9.61999999999982,-11.4982126560571,-2.10972399999994));
#315=CARTESIAN_POINT('',(9.61999999999982,-11.4982126560571,-2.10972399999994));
#316=CARTESIAN_POINT('',(9.61999999999982,-20.4728793227237,-2.10972399999994));
#317=CARTESIAN_POINT('',(9.61999999999982,-29.4475459893904,-2.10972399999994));
#318=CARTESIAN_POINT('',(9.61999999999982,-38.422212656057,-2.10972399999994));
#319=CARTESIAN_POINT('',(9.61999999999982,-38.422212656057,-2.10972399999994));
#320=CARTESIAN_POINT('',(9.61999999999982,-38.422212656057,-2.10972399999994));
#321=CARTESIAN_POINT('',(9.61999999999982,-38.422212656057,2.20827600000006));
#322=CARTESIAN_POINT('',(9.61999999999982,-38.422212656057,6.52627600000005));
#323=CARTESIAN_POINT('',(9.61999999999982,-38.422212656057,10.8442760000001));
#324=CARTESIAN_POINT('',(9.7828139999999,-11.4982126560571,10.8445299999999));
#325=CARTESIAN_POINT('',(9.78255999999967,-11.4982126560571,-2.10972399999994));
#326=CARTESIAN_POINT('',(9.72837333333305,-11.4982126560571,-2.10972399999994));
#327=CARTESIAN_POINT('',(9.67418666666644,-11.4982126560571,-2.10972399999994));
#328=CARTESIAN_POINT('',(9.61999999999982,-11.4982126560571,-2.10972399999994));
#329=CARTESIAN_POINT('',(9.78255999999976,-11.4982126560571,-2.10972399999994));
#330=CARTESIAN_POINT('',(9.61999999999982,-11.4982126560571,10.8442760000001));
#331=CARTESIAN_POINT('',(9.67418666666644,-11.4982126560571,10.8442760000001));
#332=CARTESIAN_POINT('',(9.72837333333305,-11.4982126560571,10.8442760000001));
#333=CARTESIAN_POINT('',(9.78255999999967,-11.4982126560571,10.8442760000001));
#334=CARTESIAN_POINT('',(9.78255999999976,-11.4982126560571,10.8442760000001));
#335=CARTESIAN_POINT('',(9.78255999999985,-11.4982126560571,10.8442760000001));
#336=CARTESIAN_POINT('',(9.78255999999985,-11.4982126560571,6.52627600000005));
#337=CARTESIAN_POINT('',(9.78255999999985,-11.4982126560571,2.20827600000006));
#338=CARTESIAN_POINT('',(9.78255999999985,-11.4982126560571,-2.10972399999994));
#339=CARTESIAN_POINT('',(9.7828139999999,-11.497958656057,-2.10972399999994));
#340=CARTESIAN_POINT('',(9.78255999999967,-38.422212656057,-2.10972399999994));
#341=CARTESIAN_POINT('',(9.72837333333305,-38.422212656057,-2.10972399999994));
#342=CARTESIAN_POINT('',(9.67418666666644,-38.422212656057,-2.10972399999994));
#343=CARTESIAN_POINT('',(9.61999999999982,-38.422212656057,-2.10972399999994));
#344=CARTESIAN_POINT('',(9.78255999999976,-38.422212656057,-2.10972399999994));
#345=CARTESIAN_POINT('',(9.78255999999985,-11.4982126560571,-2.10972399999994));
#346=CARTESIAN_POINT('',(9.78255999999985,-20.4728793227237,-2.10972399999994));
#347=CARTESIAN_POINT('',(9.78255999999985,-29.4475459893904,-2.10972399999994));
#348=CARTESIAN_POINT('',(9.78255999999985,-38.422212656057,-2.10972399999994));
#349=CARTESIAN_POINT('',(9.7828139999999,-38.422212656057,-2.10997799999981));
#350=CARTESIAN_POINT('',(9.78255999999967,-38.422212656057,10.8442760000001));
#351=CARTESIAN_POINT('',(9.72837333333305,-38.422212656057,10.8442760000001));
#352=CARTESIAN_POINT('',(9.67418666666644,-38.422212656057,10.8442760000001));
#353=CARTESIAN_POINT('',(9.61999999999982,-38.422212656057,10.8442760000001));
#354=CARTESIAN_POINT('',(9.78255999999976,-38.422212656057,10.8442760000001));
#355=CARTESIAN_POINT('',(9.78255999999985,-38.422212656057,-2.10972399999994));
#356=CARTESIAN_POINT('',(9.78255999999985,-38.422212656057,2.20827600000005));
#357=CARTESIAN_POINT('',(9.78255999999985,-38.422212656057,6.52627600000005));
#358=CARTESIAN_POINT('',(9.78255999999985,-38.422212656057,10.8442760000001));
#359=CARTESIAN_POINT('',(9.7828139999999,-38.422466656057,10.8442760000001));
#360=CARTESIAN_POINT('',(9.78255999999985,-38.422212656057,10.8442760000001));
#361=CARTESIAN_POINT('',(9.78255999999985,-29.4475459893904,10.8442760000001));
#362=CARTESIAN_POINT('',(9.78255999999985,-20.4728793227237,10.8442760000001));
#363=CARTESIAN_POINT('',(9.78255999999985,-11.4982126560571,10.8442760000001));
#364=CARTESIAN_POINT('',(9.78255999999985,-38.422466656057,-2.10997799999981));
#365=MECHANICAL_DESIGN_GEOMETRIC_PRESENTATION_REPRESENTATION('',(#176),
#367);
#366=MECHANICAL_DESIGN_GEOMETRIC_PRESENTATION_REPRESENTATION('',(#177),
#368);
#367=(
GEOMETRIC_REPRESENTATION_CONTEXT(3)
GLOBAL_UNCERTAINTY_ASSIGNED_CONTEXT((#369))
GLOBAL_UNIT_ASSIGNED_CONTEXT((#375,#373,#371))
REPRESENTATION_CONTEXT('1EA','TOP_LEVEL_ASSEMBLY_PART')
);
#368=(
GEOMETRIC_REPRESENTATION_CONTEXT(3)
GLOBAL_UNCERTAINTY_ASSIGNED_CONTEXT((#370))
GLOBAL_UNIT_ASSIGNED_CONTEXT((#376,#374,#372))
REPRESENTATION_CONTEXT('1EB','TOP_LEVEL_ASSEMBLY_PART')
);
#369=UNCERTAINTY_MEASURE_WITH_UNIT(LENGTH_MEASURE(2.E-5),#375,
'DISTANCE_ACCURACY_VALUE','Maximum Tolerance applied to model');
#370=UNCERTAINTY_MEASURE_WITH_UNIT(LENGTH_MEASURE(2.E-5),#376,
'DISTANCE_ACCURACY_VALUE','Maximum Tolerance applied to model');
#371=(
NAMED_UNIT(*)
SI_UNIT($,.STERADIAN.)
SOLID_ANGLE_UNIT()
);
#372=(
NAMED_UNIT(*)
SI_UNIT($,.STERADIAN.)
SOLID_ANGLE_UNIT()
);
#373=(
NAMED_UNIT(*)
PLANE_ANGLE_UNIT()
SI_UNIT($,.RADIAN.)
);
#374=(
NAMED_UNIT(*)
PLANE_ANGLE_UNIT()
SI_UNIT($,.RADIAN.)
);
#375=(
LENGTH_UNIT()
NAMED_UNIT(*)
SI_UNIT($,.METRE.)
);
#376=(
LENGTH_UNIT()
NAMED_UNIT(*)
SI_UNIT($,.METRE.)
);
#377=PRODUCT_DEFINITION_SHAPE('','',#379);
#378=PRODUCT_DEFINITION_SHAPE('','',#380);
#379=PRODUCT_DEFINITION('','',#383,#381);
#380=PRODUCT_DEFINITION('','',#384,#382);
#381=PRODUCT_DEFINITION_CONTEXT('',#395,'design');
#382=PRODUCT_DEFINITION_CONTEXT('',#396,'design');
#383=PRODUCT_DEFINITION_FORMATION_WITH_SPECIFIED_SOURCE('','',#387,
 .NOT_KNOWN.);
#384=PRODUCT_DEFINITION_FORMATION_WITH_SPECIFIED_SOURCE('','',#388,
 .NOT_KNOWN.);
#385=PRODUCT_RELATED_PRODUCT_CATEGORY('','',(#387));
#386=PRODUCT_RELATED_PRODUCT_CATEGORY('','',(#388));
#387=PRODUCT('1EA','1EA','1EA',(#391));
#388=PRODUCT('1EB','1EB','1EB',(#392));
#389=PRODUCT_CATEGORY('','');
#390=PRODUCT_CATEGORY('','');
#391=PRODUCT_CONTEXT('',#395,'mechanical');
#392=PRODUCT_CONTEXT('',#396,'mechanical');
#393=APPLICATION_PROTOCOL_DEFINITION('international standard',
'ap242_managed_model_based_3d_engineering',2011,#395);
#394=APPLICATION_PROTOCOL_DEFINITION('international standard',
'ap242_managed_model_based_3d_engineering',2011,#396);
#395=APPLICATION_CONTEXT('managed model based 3d engineering');
#396=APPLICATION_CONTEXT('managed model based 3d engineering');
ENDSEC;
END-ISO-10303-21;
