ISO-10303-21;
HEADER;
FILE_DESCRIPTION(('Open CASCADE Model'),'2;1');
FILE_NAME('Open CASCADE Shape Model','2026-07-17T00:30:43',('Author'),(
    'Open CASCADE'),'Open CASCADE STEP processor 7.9','Open CASCADE 7.9'
  ,'Unknown');
FILE_SCHEMA(('AUTOMOTIVE_DESIGN { 1 0 10303 214 1 1 1 1 }'));
ENDSEC;
DATA;
#1 = APPLICATION_PROTOCOL_DEFINITION('international standard',
  'automotive_design',2000,#2);
#2 = APPLICATION_CONTEXT(
  'core data for automotive mechanical design processes');
#3 = SHAPE_DEFINITION_REPRESENTATION(#4,#10);
#4 = PRODUCT_DEFINITION_SHAPE('','',#5);
#5 = PRODUCT_DEFINITION('design','',#6,#9);
#6 = PRODUCT_DEFINITION_FORMATION('','',#7);
#7 = PRODUCT('Open CASCADE STEP translator 7.9 1',
  'Open CASCADE STEP translator 7.9 1','',(#8));
#8 = PRODUCT_CONTEXT('',#2,'mechanical');
#9 = PRODUCT_DEFINITION_CONTEXT('part definition',#2,'design');
#10 = ADVANCED_BREP_SHAPE_REPRESENTATION('',(#11,#15),#1399);
#11 = AXIS2_PLACEMENT_3D('',#12,#13,#14);
#12 = CARTESIAN_POINT('',(0.,0.,0.));
#13 = DIRECTION('',(0.,0.,1.));
#14 = DIRECTION('',(1.,0.,-0.));
#15 = MANIFOLD_SOLID_BREP('',#16);
#16 = CLOSED_SHELL('',(#17,#840,#896,#1326,#1383,#1387,#1391,#1395));
#17 = ADVANCED_FACE('',(#18),#91,.T.);
#18 = FACE_BOUND('',#19,.T.);
#19 = EDGE_LOOP('',(#20,#232,#255,#282,#283,#481,#504,#649,#677,#839));
#20 = ORIENTED_EDGE('',*,*,#21,.F.);
#21 = EDGE_CURVE('',#22,#24,#26,.T.);
#22 = VERTEX_POINT('',#23);
#23 = CARTESIAN_POINT('',(829.5,-9.239960099567E-14,1.425E+03));
#24 = VERTEX_POINT('',#25);
#25 = CARTESIAN_POINT('',(829.5,-2.031689039785E-13,1.275E+03));
#26 = SURFACE_CURVE('',#27,(#90,#161),.PCURVE_S1.);
#27 = B_SPLINE_CURVE_WITH_KNOTS('',7,(#28,#29,#30,#31,#32,#33,#34,#35,
    #36,#37,#38,#39,#40,#41,#42,#43,#44,#45,#46,#47,#48,#49,#50,#51,#52,
    #53,#54,#55,#56,#57,#58,#59,#60,#61,#62,#63,#64,#65,#66,#67,#68,#69,
    #70,#71,#72,#73,#74,#75,#76,#77,#78,#79,#80,#81,#82,#83,#84,#85,#86,
    #87,#88,#89),.UNSPECIFIED.,.F.,.F.,(8,6,6,6,6,6,6,6,6,6,8),(0.,
    9.502056181713E-02,0.155762860001,0.239173859429,0.306611247248,
    0.500052406598,0.642581100013,0.760887126787,0.844277776349,
    0.905005255173,1.),.UNSPECIFIED.);
#28 = CARTESIAN_POINT('',(829.5,-5.684341886081E-14,1.425E+03));
#29 = CARTESIAN_POINT('',(829.5,-3.902547455402,1.425E+03));
#30 = CARTESIAN_POINT('',(829.47858014366,-7.797649072721,
    1.424763090877E+03));
#31 = CARTESIAN_POINT('',(829.43588482396,-11.65623382432,
    1.424290899282E+03));
#32 = CARTESIAN_POINT('',(829.37302085777,-15.44958528357,
    1.423590924324E+03));
#33 = CARTESIAN_POINT('',(829.29200687983,-19.15023059012,
    1.422676389561E+03));
#34 = CARTESIAN_POINT('',(829.19559196882,-22.73270985993,
    1.421566126923E+03));
#35 = CARTESIAN_POINT('',(829.01748951325,-28.37422989167,
    1.419465202307E+03));
#36 = CARTESIAN_POINT('',(828.94294681989,-30.51946829133,
    1.418574824702E+03));
#37 = CARTESIAN_POINT('',(828.86399452894,-32.60772194606,
    1.417617904938E+03));
#38 = CARTESIAN_POINT('',(828.78132060406,-34.63704800013,
    1.416599022413E+03));
#39 = CARTESIAN_POINT('',(828.6956098925,-36.60577993627,
    1.415522791441E+03));
#40 = CARTESIAN_POINT('',(828.6075321486,-38.51252747723,
    1.414393861979E+03));
#41 = CARTESIAN_POINT('',(828.39441430521,-42.88786546048,
    1.411600750406E+03));
#42 = CARTESIAN_POINT('',(828.26781961531,-45.30113888236,
    1.409893683751E+03));
#43 = CARTESIAN_POINT('',(828.13943851894,-47.59651651476,
    1.408105544136E+03));
#44 = CARTESIAN_POINT('',(828.01062370248,-49.77499055615,
    1.406245252043E+03));
#45 = CARTESIAN_POINT('',(827.88258008894,-51.83792547137,
    1.404320907899E+03));
#46 = CARTESIAN_POINT('',(827.75636669732,-53.78695951148,
    1.402339873948E+03));
#47 = CARTESIAN_POINT('',(827.53309274859,-57.1090717907,
    1.398666785614E+03));
#48 = CARTESIAN_POINT('',(827.43505531953,-58.52130671042,
    1.396991670112E+03));
#49 = CARTESIAN_POINT('',(827.33926622084,-59.86180950325,
    1.395286696773E+03));
#50 = CARTESIAN_POINT('',(827.24613997405,-61.13178120107,
    1.393554728924E+03));
#51 = CARTESIAN_POINT('',(827.15604087258,-62.33240491526,
    1.391798334918E+03));
#52 = CARTESIAN_POINT('',(827.06928846066,-63.46482370483,
    1.390019818335E+03));
#53 = CARTESIAN_POINT('',(826.74772134564,-67.58586921064,
    1.383062129427E+03));
#54 = CARTESIAN_POINT('',(826.53904047325,-70.09037337028,
    1.37773623295E+03));
#55 = CARTESIAN_POINT('',(826.36684765907,-72.06751891432,
    1.372293776463E+03));
#56 = CARTESIAN_POINT('',(826.23528220011,-73.53684108485,
    1.366771754828E+03));
#57 = CARTESIAN_POINT('',(826.146748508,-74.51201244757,
    1.361199337323E+03));
#58 = CARTESIAN_POINT('',(826.10244522093,-75.,1.35560094818E+03));
#59 = CARTESIAN_POINT('',(826.10244522093,-75.,1.345873185269E+03));
#60 = CARTESIAN_POINT('',(826.12649679519,-74.73507979504,
    1.341746917905E+03));
#61 = CARTESIAN_POINT('',(826.17458828309,-74.20536415621,
    1.337631035829E+03));
#62 = CARTESIAN_POINT('',(826.24636002949,-73.40887967928,
    1.333535623039E+03));
#63 = CARTESIAN_POINT('',(826.34108982527,-72.34169571181,
    1.329471696548E+03));
#64 = CARTESIAN_POINT('',(826.45761573887,-70.99807470153,
    1.325451990279E+03));
#65 = CARTESIAN_POINT('',(826.70756514663,-68.01977215517,
    1.318204707393E+03));
#66 = CARTESIAN_POINT('',(826.83474993566,-66.4733824952,
    1.314958654943E+03));
#67 = CARTESIAN_POINT('',(826.97477943666,-64.72693913349,
    1.31176169431E+03));
#68 = CARTESIAN_POINT('',(827.12641712757,-62.77501847745,
    1.308623493347E+03));
#69 = CARTESIAN_POINT('',(827.28808131436,-60.61152335586,
    1.305555727384E+03));
#70 = CARTESIAN_POINT('',(827.45775824833,-58.22998029699,
    1.302572545153E+03));
#71 = CARTESIAN_POINT('',(827.75636669732,-53.78695951152,
    1.297660126052E+03));
#72 = CARTESIAN_POINT('',(827.88258008894,-51.83792547138,
    1.295679092101E+03));
#73 = CARTESIAN_POINT('',(828.01062370248,-49.77499055611,
    1.293754747957E+03));
#74 = CARTESIAN_POINT('',(828.13943851894,-47.59651651472,
    1.291894455863E+03));
#75 = CARTESIAN_POINT('',(828.26781961531,-45.30113888237,
    1.290106316249E+03));
#76 = CARTESIAN_POINT('',(828.3944143052,-42.88786546054,
    1.288399249594E+03));
#77 = CARTESIAN_POINT('',(828.6075321486,-38.51252747718,
    1.285606138021E+03));
#78 = CARTESIAN_POINT('',(828.6956098925,-36.60577993626,
    1.284477208559E+03));
#79 = CARTESIAN_POINT('',(828.78132060406,-34.63704800017,
    1.283400977587E+03));
#80 = CARTESIAN_POINT('',(828.86399452894,-32.60772194611,
    1.282382095062E+03));
#81 = CARTESIAN_POINT('',(828.94294681989,-30.51946829133,
    1.281425175298E+03));
#82 = CARTESIAN_POINT('',(829.01748951325,-28.37422989161,
    1.280534797693E+03));
#83 = CARTESIAN_POINT('',(829.19558895548,-22.73280530954,
    1.278433908623E+03));
#84 = CARTESIAN_POINT('',(829.29200521989,-19.15031199862,
    1.277323628334E+03));
#85 = CARTESIAN_POINT('',(829.37302185086,-15.44958407924,
    1.276409064138E+03));
#86 = CARTESIAN_POINT('',(829.43588725164,-11.65612909187,
    1.275709073914E+03));
#87 = CARTESIAN_POINT('',(829.47858187914,-7.79747286822,
    1.275236889729E+03));
#88 = CARTESIAN_POINT('',(829.5,-3.902387706676,1.275E+03));
#89 = CARTESIAN_POINT('',(829.5,-7.105427357601E-14,1.275E+03));
#90 = PCURVE('',#91,#96);
#91 = CYLINDRICAL_SURFACE('',#92,829.5);
#92 = AXIS2_PLACEMENT_3D('',#93,#94,#95);
#93 = CARTESIAN_POINT('',(0.,0.,0.));
#94 = DIRECTION('',(0.,0.,1.));
#95 = DIRECTION('',(1.,0.,-0.));
#96 = DEFINITIONAL_REPRESENTATION('',(#97),#160);
#97 = B_SPLINE_CURVE_WITH_KNOTS('',7,(#98,#99,#100,#101,#102,#103,#104,
    #105,#106,#107,#108,#109,#110,#111,#112,#113,#114,#115,#116,#117,
    #118,#119,#120,#121,#122,#123,#124,#125,#126,#127,#128,#129,#130,
    #131,#132,#133,#134,#135,#136,#137,#138,#139,#140,#141,#142,#143,
    #144,#145,#146,#147,#148,#149,#150,#151,#152,#153,#154,#155,#156,
    #157,#158,#159),.UNSPECIFIED.,.F.,.F.,(8,6,6,6,6,6,6,6,6,6,8),(0.,
    9.502056181713E-02,0.155762860001,0.239173859429,0.306611247248,
    0.500052406598,0.642581100013,0.760887126787,0.844277776349,
    0.905005255173,1.),.UNSPECIFIED.);
#98 = CARTESIAN_POINT('',(6.28318530718,1.425E+03));
#99 = CARTESIAN_POINT('',(6.27848060862,1.425E+03));
#100 = CARTESIAN_POINT('',(6.27378488625,1.424763090877E+03));
#101 = CARTESIAN_POINT('',(6.269133017036,1.424290899282E+03));
#102 = CARTESIAN_POINT('',(6.264559451251,1.423590924324E+03));
#103 = CARTESIAN_POINT('',(6.260097178227,1.422676389561E+03));
#104 = CARTESIAN_POINT('',(6.255776819297,1.421566126923E+03));
#105 = CARTESIAN_POINT('',(6.2489723218,1.419465202307E+03));
#106 = CARTESIAN_POINT('',(6.246384591517,1.418574824702E+03));
#107 = CARTESIAN_POINT('',(6.243865326376,1.417617904938E+03));
#108 = CARTESIAN_POINT('',(6.241416870039,1.416599022413E+03));
#109 = CARTESIAN_POINT('',(6.239041239619,1.415522791441E+03));
#110 = CARTESIAN_POINT('',(6.236740124803,1.414393861979E+03));
#111 = CARTESIAN_POINT('',(6.231459202229,1.411600750406E+03));
#112 = CARTESIAN_POINT('',(6.228545911482,1.409893683751E+03));
#113 = CARTESIAN_POINT('',(6.225774429775,1.408105544136E+03));
#114 = CARTESIAN_POINT('',(6.223143614721,1.406245252043E+03));
#115 = CARTESIAN_POINT('',(6.220651881636,1.404320907899E+03));
#116 = CARTESIAN_POINT('',(6.218297317999,1.402339873948E+03));
#117 = CARTESIAN_POINT('',(6.214283325508,1.398666785614E+03));
#118 = CARTESIAN_POINT('',(6.212576718758,1.396991670112E+03));
#119 = CARTESIAN_POINT('',(6.210956566083,1.395286696773E+03));
#120 = CARTESIAN_POINT('',(6.209421450974,1.393554728924E+03));
#121 = CARTESIAN_POINT('',(6.207969977477,1.391798334918E+03));
#122 = CARTESIAN_POINT('',(6.206600796352,1.390019818335E+03));
#123 = CARTESIAN_POINT('',(6.201617586608,1.383062129427E+03));
#124 = CARTESIAN_POINT('',(6.198587871965,1.37773623295E+03));
#125 = CARTESIAN_POINT('',(6.196195325286,1.372293776463E+03));
#126 = CARTESIAN_POINT('',(6.194416905656,1.366771754828E+03));
#127 = CARTESIAN_POINT('',(6.19323645698,1.361199337323E+03));
#128 = CARTESIAN_POINT('',(6.192645746321,1.35560094818E+03));
#129 = CARTESIAN_POINT('',(6.192645746321,1.345873185269E+03));
#130 = CARTESIAN_POINT('',(6.192966433225,1.341746917905E+03));
#131 = CARTESIAN_POINT('',(6.193607655799,1.337631035829E+03));
#132 = CARTESIAN_POINT('',(6.194571744474,1.333535623039E+03));
#133 = CARTESIAN_POINT('',(6.195863339369,1.329471696548E+03));
#134 = CARTESIAN_POINT('',(6.197489209447,1.325451990279E+03));
#135 = CARTESIAN_POINT('',(6.201092310654,1.318204707393E+03));
#136 = CARTESIAN_POINT('',(6.202962845852,1.314958654943E+03));
#137 = CARTESIAN_POINT('',(6.20507501207,1.31176169431E+03));
#138 = CARTESIAN_POINT('',(6.2074352168,1.308623493347E+03));
#139 = CARTESIAN_POINT('',(6.210050657864,1.305555727384E+03));
#140 = CARTESIAN_POINT('',(6.212928970824,1.302572545153E+03));
#141 = CARTESIAN_POINT('',(6.218297317999,1.297660126052E+03));
#142 = CARTESIAN_POINT('',(6.220651881636,1.295679092101E+03));
#143 = CARTESIAN_POINT('',(6.223143614721,1.293754747957E+03));
#144 = CARTESIAN_POINT('',(6.225774429775,1.291894455863E+03));
#145 = CARTESIAN_POINT('',(6.228545911482,1.290106316249E+03));
#146 = CARTESIAN_POINT('',(6.231459202229,1.288399249594E+03));
#147 = CARTESIAN_POINT('',(6.236740124803,1.285606138021E+03));
#148 = CARTESIAN_POINT('',(6.239041239619,1.284477208559E+03));
#149 = CARTESIAN_POINT('',(6.241416870039,1.283400977587E+03));
#150 = CARTESIAN_POINT('',(6.243865326376,1.282382095062E+03));
#151 = CARTESIAN_POINT('',(6.246384591517,1.281425175298E+03));
#152 = CARTESIAN_POINT('',(6.248972321801,1.280534797693E+03));
#153 = CARTESIAN_POINT('',(6.255776704171,1.278433908623E+03));
#154 = CARTESIAN_POINT('',(6.260097080074,1.277323628334E+03));
#155 = CARTESIAN_POINT('',(6.264559452725,1.276409064138E+03));
#156 = CARTESIAN_POINT('',(6.269133143316,1.275709073914E+03));
#157 = CARTESIAN_POINT('',(6.273785098676,1.275236889729E+03));
#158 = CARTESIAN_POINT('',(6.278480801204,1.275E+03));
#159 = CARTESIAN_POINT('',(6.28318530718,1.275E+03));
#160 = ( GEOMETRIC_REPRESENTATION_CONTEXT(2) 
PARAMETRIC_REPRESENTATION_CONTEXT() REPRESENTATION_CONTEXT('2D SPACE',''
  ) );
#161 = PCURVE('',#162,#167);
#162 = CYLINDRICAL_SURFACE('',#163,75.);
#163 = AXIS2_PLACEMENT_3D('',#164,#165,#166);
#164 = CARTESIAN_POINT('',(709.5,0.,1.35E+03));
#165 = DIRECTION('',(1.,0.,0.));
#166 = DIRECTION('',(-0.,0.,1.));
#167 = DEFINITIONAL_REPRESENTATION('',(#168),#231);
#168 = B_SPLINE_CURVE_WITH_KNOTS('',7,(#169,#170,#171,#172,#173,#174,
    #175,#176,#177,#178,#179,#180,#181,#182,#183,#184,#185,#186,#187,
    #188,#189,#190,#191,#192,#193,#194,#195,#196,#197,#198,#199,#200,
    #201,#202,#203,#204,#205,#206,#207,#208,#209,#210,#211,#212,#213,
    #214,#215,#216,#217,#218,#219,#220,#221,#222,#223,#224,#225,#226,
    #227,#228,#229,#230),.UNSPECIFIED.,.F.,.F.,(8,6,6,6,6,6,6,6,6,6,8),(
    0.,9.502056181713E-02,0.155762860001,0.239173859429,0.306611247248,
    0.500052406598,0.642581100013,0.760887126787,0.844277776349,
    0.905005255173,1.),.UNSPECIFIED.);
#169 = CARTESIAN_POINT('',(-8.881784197001E-16,120.));
#170 = CARTESIAN_POINT('',(5.203396607202E-02,120.));
#171 = CARTESIAN_POINT('',(0.103968650041,119.97858014366));
#172 = CARTESIAN_POINT('',(0.155646573741,119.93588482396));
#173 = CARTESIAN_POINT('',(0.20691094118,119.87302085777));
#174 = CARTESIAN_POINT('',(0.257597850634,119.79200687983));
#175 = CARTESIAN_POINT('',(0.307527271142,119.69559196882));
#176 = CARTESIAN_POINT('',(0.387794195297,119.51748951325));
#177 = CARTESIAN_POINT('',(0.418742102317,119.44294681989));
#178 = CARTESIAN_POINT('',(0.449337688436,119.36399452894));
#179 = CARTESIAN_POINT('',(0.479580405382,119.28132060406));
#180 = CARTESIAN_POINT('',(0.509467996383,119.1956098925));
#181 = CARTESIAN_POINT('',(0.538996519926,119.1075321486));
#182 = CARTESIAN_POINT('',(0.608208021508,118.89441430521));
#183 = CARTESIAN_POINT('',(0.647576983817,118.76781961531));
#184 = CARTESIAN_POINT('',(0.686307512858,118.63943851894));
#185 = CARTESIAN_POINT('',(0.724435709724,118.51062370248));
#186 = CARTESIAN_POINT('',(0.76199493287,118.38258008894));
#187 = CARTESIAN_POINT('',(0.799016539699,118.25636669732));
#188 = CARTESIAN_POINT('',(0.865050884846,118.03309274859));
#189 = CARTESIAN_POINT('',(0.894246341625,117.93505531953));
#190 = CARTESIAN_POINT('',(0.923137489391,117.83926622084));
#191 = CARTESIAN_POINT('',(0.951744654543,117.74613997405));
#192 = CARTESIAN_POINT('',(0.98008752747,117.65604087258));
#193 = CARTESIAN_POINT('',(1.008185358145,117.56928846066));
#194 = CARTESIAN_POINT('',(1.116006156798,117.24772134564));
#195 = CARTESIAN_POINT('',(1.194122797528,117.03904047325));
#196 = CARTESIAN_POINT('',(1.270827822934,116.86684765907));
#197 = CARTESIAN_POINT('',(1.346492619504,116.73528220011));
#198 = CARTESIAN_POINT('',(1.421471841334,116.646748508));
#199 = CARTESIAN_POINT('',(1.496117017727,116.60244522093));
#200 = CARTESIAN_POINT('',(1.625820523209,116.60244522093));
#201 = CARTESIAN_POINT('',(1.680837452613,116.62649679519));
#202 = CARTESIAN_POINT('',(1.735987876574,116.67458828309));
#203 = CARTESIAN_POINT('',(1.791409521105,116.74636002949));
#204 = CARTESIAN_POINT('',(1.847240489243,116.84108982527));
#205 = CARTESIAN_POINT('',(1.903623407851,116.95761573887));
#206 = CARTESIAN_POINT('',(2.008095324577,117.20756514663));
#207 = CARTESIAN_POINT('',(2.055964754217,117.33474993566));
#208 = CARTESIAN_POINT('',(2.104416351552,117.47477943666));
#209 = CARTESIAN_POINT('',(2.153548365238,117.62641712757));
#210 = CARTESIAN_POINT('',(2.203461393101,117.78808131436));
#211 = CARTESIAN_POINT('',(2.254261227641,117.95775824833));
#212 = CARTESIAN_POINT('',(2.34257611389,118.25636669732));
#213 = CARTESIAN_POINT('',(2.379597720719,118.38258008894));
#214 = CARTESIAN_POINT('',(2.417156943866,118.51062370248));
#215 = CARTESIAN_POINT('',(2.455285140733,118.63943851894));
#216 = CARTESIAN_POINT('',(2.494015669773,118.76781961531));
#217 = CARTESIAN_POINT('',(2.533384632081,118.8944143052));
#218 = CARTESIAN_POINT('',(2.602596133664,119.1075321486));
#219 = CARTESIAN_POINT('',(2.632124657207,119.1956098925));
#220 = CARTESIAN_POINT('',(2.662012248207,119.28132060406));
#221 = CARTESIAN_POINT('',(2.692254965153,119.36399452894));
#222 = CARTESIAN_POINT('',(2.722850551273,119.44294681989));
#223 = CARTESIAN_POINT('',(2.753798458294,119.51748951325));
#224 = CARTESIAN_POINT('',(2.834064024401,119.69558895548));
#225 = CARTESIAN_POINT('',(2.883993702464,119.79200521989));
#226 = CARTESIAN_POINT('',(2.934681765115,119.87302185086));
#227 = CARTESIAN_POINT('',(2.985947504756,119.93588725164));
#228 = CARTESIAN_POINT('',(3.037626352737,119.97858187914));
#229 = CARTESIAN_POINT('',(3.089560817501,120.));
#230 = CARTESIAN_POINT('',(3.14159265359,120.));
#231 = ( GEOMETRIC_REPRESENTATION_CONTEXT(2) 
PARAMETRIC_REPRESENTATION_CONTEXT() REPRESENTATION_CONTEXT('2D SPACE',''
  ) );
#232 = ORIENTED_EDGE('',*,*,#233,.T.);
#233 = EDGE_CURVE('',#22,#234,#236,.T.);
#234 = VERTEX_POINT('',#235);
#235 = CARTESIAN_POINT('',(829.5,-2.031689039785E-13,1.53E+03));
#236 = SEAM_CURVE('',#237,(#241,#248),.PCURVE_S1.);
#237 = LINE('',#238,#239);
#238 = CARTESIAN_POINT('',(829.5,-2.031689039785E-13,0.));
#239 = VECTOR('',#240,1.);
#240 = DIRECTION('',(0.,0.,1.));
#241 = PCURVE('',#91,#242);
#242 = DEFINITIONAL_REPRESENTATION('',(#243),#247);
#243 = LINE('',#244,#245);
#244 = CARTESIAN_POINT('',(0.,-0.));
#245 = VECTOR('',#246,1.);
#246 = DIRECTION('',(0.,1.));
#247 = ( GEOMETRIC_REPRESENTATION_CONTEXT(2) 
PARAMETRIC_REPRESENTATION_CONTEXT() REPRESENTATION_CONTEXT('2D SPACE',''
  ) );
#248 = PCURVE('',#91,#249);
#249 = DEFINITIONAL_REPRESENTATION('',(#250),#254);
#250 = LINE('',#251,#252);
#251 = CARTESIAN_POINT('',(6.28318530718,-0.));
#252 = VECTOR('',#253,1.);
#253 = DIRECTION('',(0.,1.));
#254 = ( GEOMETRIC_REPRESENTATION_CONTEXT(2) 
PARAMETRIC_REPRESENTATION_CONTEXT() REPRESENTATION_CONTEXT('2D SPACE',''
  ) );
#255 = ORIENTED_EDGE('',*,*,#256,.F.);
#256 = EDGE_CURVE('',#234,#234,#257,.T.);
#257 = SURFACE_CURVE('',#258,(#263,#270),.PCURVE_S1.);
#258 = CIRCLE('',#259,829.5);
#259 = AXIS2_PLACEMENT_3D('',#260,#261,#262);
#260 = CARTESIAN_POINT('',(0.,0.,1.53E+03));
#261 = DIRECTION('',(0.,0.,1.));
#262 = DIRECTION('',(1.,0.,-0.));
#263 = PCURVE('',#91,#264);
#264 = DEFINITIONAL_REPRESENTATION('',(#265),#269);
#265 = LINE('',#266,#267);
#266 = CARTESIAN_POINT('',(0.,1.53E+03));
#267 = VECTOR('',#268,1.);
#268 = DIRECTION('',(1.,0.));
#269 = ( GEOMETRIC_REPRESENTATION_CONTEXT(2) 
PARAMETRIC_REPRESENTATION_CONTEXT() REPRESENTATION_CONTEXT('2D SPACE',''
  ) );
#270 = PCURVE('',#271,#276);
#271 = PLANE('',#272);
#272 = AXIS2_PLACEMENT_3D('',#273,#274,#275);
#273 = CARTESIAN_POINT('',(0.,0.,1.53E+03));
#274 = DIRECTION('',(0.,0.,1.));
#275 = DIRECTION('',(1.,0.,-0.));
#276 = DEFINITIONAL_REPRESENTATION('',(#277),#281);
#277 = CIRCLE('',#278,829.5);
#278 = AXIS2_PLACEMENT_2D('',#279,#280);
#279 = CARTESIAN_POINT('',(0.,0.));
#280 = DIRECTION('',(1.,0.));
#281 = ( GEOMETRIC_REPRESENTATION_CONTEXT(2) 
PARAMETRIC_REPRESENTATION_CONTEXT() REPRESENTATION_CONTEXT('2D SPACE',''
  ) );
#282 = ORIENTED_EDGE('',*,*,#233,.F.);
#283 = ORIENTED_EDGE('',*,*,#284,.F.);
#284 = EDGE_CURVE('',#24,#22,#285,.T.);
#285 = SURFACE_CURVE('',#286,(#349,#415),.PCURVE_S1.);
#286 = B_SPLINE_CURVE_WITH_KNOTS('',7,(#287,#288,#289,#290,#291,#292,
    #293,#294,#295,#296,#297,#298,#299,#300,#301,#302,#303,#304,#305,
    #306,#307,#308,#309,#310,#311,#312,#313,#314,#315,#316,#317,#318,
    #319,#320,#321,#322,#323,#324,#325,#326,#327,#328,#329,#330,#331,
    #332,#333,#334,#335,#336,#337,#338,#339,#340,#341,#342,#343,#344,
    #345,#346,#347,#348),.UNSPECIFIED.,.F.,.F.,(8,6,6,6,6,6,6,6,6,6,8),(
    0.,9.502029918853E-02,0.155762429584,0.239173198604,0.306610400139,
    0.50005111076,0.642579459462,0.760885200227,0.84427564819,
    0.905002980205,1.),.UNSPECIFIED.);
#287 = CARTESIAN_POINT('',(829.5,2.871426524195E-14,1.275E+03));
#288 = CARTESIAN_POINT('',(829.5,3.902547461862,1.275E+03));
#289 = CARTESIAN_POINT('',(829.47858014379,7.797649057956,
    1.275236909122E+03));
#290 = CARTESIAN_POINT('',(829.43588482377,11.656233832747,
    1.27570910072E+03));
#291 = CARTESIAN_POINT('',(829.37302085771,15.449585292574,
    1.276409075677E+03));
#292 = CARTESIAN_POINT('',(829.29200688012,19.150230576066,
    1.277323610435E+03));
#293 = CARTESIAN_POINT('',(829.19559196864,22.732709865602,
    1.278433873079E+03));
#294 = CARTESIAN_POINT('',(829.01748951325,28.374229891617,
    1.280534797693E+03));
#295 = CARTESIAN_POINT('',(828.94294681989,30.519468291334,
    1.281425175298E+03));
#296 = CARTESIAN_POINT('',(828.86399452894,32.607721946116,
    1.282382095062E+03));
#297 = CARTESIAN_POINT('',(828.78132060406,34.637048000173,
    1.283400977587E+03));
#298 = CARTESIAN_POINT('',(828.6956098925,36.605779936263,
    1.284477208559E+03));
#299 = CARTESIAN_POINT('',(828.6075321486,38.512527477183,
    1.285606138021E+03));
#300 = CARTESIAN_POINT('',(828.39441430521,42.887865460475,
    1.288399249594E+03));
#301 = CARTESIAN_POINT('',(828.26781961531,45.301138882387,
    1.290106316249E+03));
#302 = CARTESIAN_POINT('',(828.13943851894,47.596516514768,
    1.291894455864E+03));
#303 = CARTESIAN_POINT('',(828.01062370248,49.774990556136,
    1.293754747957E+03));
#304 = CARTESIAN_POINT('',(827.88258008894,51.837925471372,
    1.295679092101E+03));
#305 = CARTESIAN_POINT('',(827.75636669732,53.786959511495,
    1.297660126052E+03));
#306 = CARTESIAN_POINT('',(827.53309274859,57.1090717907,
    1.301333214386E+03));
#307 = CARTESIAN_POINT('',(827.43505531953,58.521306710431,
    1.303008329888E+03));
#308 = CARTESIAN_POINT('',(827.33926622084,59.861809503261,
    1.304713303227E+03));
#309 = CARTESIAN_POINT('',(827.24613997405,61.131781201073,
    1.306445271076E+03));
#310 = CARTESIAN_POINT('',(827.15604087258,62.33240491526,
    1.308201665082E+03));
#311 = CARTESIAN_POINT('',(827.06928846066,63.464823704831,
    1.309980181665E+03));
#312 = CARTESIAN_POINT('',(826.7477212401,67.585870563146,
    1.316937872857E+03));
#313 = CARTESIAN_POINT('',(826.53904048119,70.090373122661,
    1.322263767596E+03));
#314 = CARTESIAN_POINT('',(826.36684774481,72.067517982109,
    1.327706221599E+03));
#315 = CARTESIAN_POINT('',(826.2352822656,73.536840352954,
    1.333228241985E+03));
#316 = CARTESIAN_POINT('',(826.14674851688,74.512012352426,
    1.338800660185E+03));
#317 = CARTESIAN_POINT('',(826.10244522093,75.,1.344399051261E+03));
#318 = CARTESIAN_POINT('',(826.10244522093,75.,1.354126814735E+03));
#319 = CARTESIAN_POINT('',(826.12649679508,74.735079796255,
    1.358253082086E+03));
#320 = CARTESIAN_POINT('',(826.17458828324,74.20536415444,
    1.362368964176E+03));
#321 = CARTESIAN_POINT('',(826.24636002953,73.40887967872,
    1.366464376967E+03));
#322 = CARTESIAN_POINT('',(826.34108982505,72.341695714488,
    1.370528303442E+03));
#323 = CARTESIAN_POINT('',(826.45761573901,70.99807469988,
    1.374548009725E+03));
#324 = CARTESIAN_POINT('',(826.70756514663,68.01977215519,
    1.381795292607E+03));
#325 = CARTESIAN_POINT('',(826.83474993566,66.4733824952,
    1.385041345057E+03));
#326 = CARTESIAN_POINT('',(826.97477943666,64.726939133484,
    1.38823830569E+03));
#327 = CARTESIAN_POINT('',(827.12641712757,62.775018477456,
    1.391376506653E+03));
#328 = CARTESIAN_POINT('',(827.28808131436,60.611523355876,
    1.394444272616E+03));
#329 = CARTESIAN_POINT('',(827.45775824833,58.229980296998,
    1.397427454847E+03));
#330 = CARTESIAN_POINT('',(827.75636669732,53.786959511496,
    1.402339873948E+03));
#331 = CARTESIAN_POINT('',(827.88258008894,51.837925471376,
    1.404320907899E+03));
#332 = CARTESIAN_POINT('',(828.01062370248,49.77499055613,
    1.406245252043E+03));
#333 = CARTESIAN_POINT('',(828.13943851894,47.596516514764,
    1.408105544136E+03));
#334 = CARTESIAN_POINT('',(828.26781961531,45.301138882393,
    1.409893683751E+03));
#335 = CARTESIAN_POINT('',(828.39441430521,42.887865460474,
    1.411600750406E+03));
#336 = CARTESIAN_POINT('',(828.6075321486,38.512527477185,
    1.414393861979E+03));
#337 = CARTESIAN_POINT('',(828.6956098925,36.605779936262,
    1.415522791441E+03));
#338 = CARTESIAN_POINT('',(828.78132060406,34.637048000171,
    1.416599022413E+03));
#339 = CARTESIAN_POINT('',(828.86399452894,32.607721946117,
    1.417617904938E+03));
#340 = CARTESIAN_POINT('',(828.94294681989,30.519468291336,
    1.418574824702E+03));
#341 = CARTESIAN_POINT('',(829.01748951325,28.374229891617,
    1.419465202307E+03));
#342 = CARTESIAN_POINT('',(829.19559182002,22.732714573339,
    1.421566125168E+03));
#343 = CARTESIAN_POINT('',(829.29200681611,19.150234038221,
    1.422676388888E+03));
#344 = CARTESIAN_POINT('',(829.37302095681,15.449583331747,
    1.423590925471E+03));
#345 = CARTESIAN_POINT('',(829.43588501771,11.656224806397,
    1.424290901435E+03));
#346 = CARTESIAN_POINT('',(829.47858028738,7.797634824298,
    1.424763092463E+03));
#347 = CARTESIAN_POINT('',(829.5,3.902534409771,1.425E+03));
#348 = CARTESIAN_POINT('',(829.5,4.249154173236E-14,1.425E+03));
#349 = PCURVE('',#91,#350);
#350 = DEFINITIONAL_REPRESENTATION('',(#351),#414);
#351 = B_SPLINE_CURVE_WITH_KNOTS('',7,(#352,#353,#354,#355,#356,#357,
    #358,#359,#360,#361,#362,#363,#364,#365,#366,#367,#368,#369,#370,
    #371,#372,#373,#374,#375,#376,#377,#378,#379,#380,#381,#382,#383,
    #384,#385,#386,#387,#388,#389,#390,#391,#392,#393,#394,#395,#396,
    #397,#398,#399,#400,#401,#402,#403,#404,#405,#406,#407,#408,#409,
    #410,#411,#412,#413),.UNSPECIFIED.,.F.,.F.,(8,6,6,6,6,6,6,6,6,6,8),(
    0.,9.502029918853E-02,0.155762429584,0.239173198604,0.306610400139,
    0.50005111076,0.642579459462,0.760885200227,0.84427564819,
    0.905002980205,1.),.UNSPECIFIED.);
#352 = CARTESIAN_POINT('',(0.,1.275E+03));
#353 = CARTESIAN_POINT('',(4.704698567646E-03,1.275E+03));
#354 = CARTESIAN_POINT('',(9.400420911642E-03,1.275236909122E+03));
#355 = CARTESIAN_POINT('',(1.40522901536E-02,1.27570910072E+03));
#356 = CARTESIAN_POINT('',(1.862585593993E-02,1.276409075677E+03));
#357 = CARTESIAN_POINT('',(2.308812893558E-02,1.277323610435E+03));
#358 = CARTESIAN_POINT('',(2.740848788916E-02,1.278433873079E+03));
#359 = CARTESIAN_POINT('',(3.421298537908E-02,1.280534797693E+03));
#360 = CARTESIAN_POINT('',(3.680071566303E-02,1.281425175298E+03));
#361 = CARTESIAN_POINT('',(3.931998080355E-02,1.282382095062E+03));
#362 = CARTESIAN_POINT('',(4.176843714101E-02,1.283400977587E+03));
#363 = CARTESIAN_POINT('',(4.414406756021E-02,1.284477208559E+03));
#364 = CARTESIAN_POINT('',(4.644518237689E-02,1.285606138021E+03));
#365 = CARTESIAN_POINT('',(5.17261049505E-02,1.288399249594E+03));
#366 = CARTESIAN_POINT('',(5.463939569716E-02,1.290106316249E+03));
#367 = CARTESIAN_POINT('',(5.741087740463E-02,1.291894455864E+03));
#368 = CARTESIAN_POINT('',(6.004169245814E-02,1.293754747957E+03));
#369 = CARTESIAN_POINT('',(6.253342554377E-02,1.295679092101E+03));
#370 = CARTESIAN_POINT('',(6.488798918059E-02,1.297660126052E+03));
#371 = CARTESIAN_POINT('',(6.890198167167E-02,1.301333214386E+03));
#372 = CARTESIAN_POINT('',(7.060858842188E-02,1.303008329888E+03));
#373 = CARTESIAN_POINT('',(7.22287410964E-02,1.304713303227E+03));
#374 = CARTESIAN_POINT('',(7.37638562059E-02,1.306445271076E+03));
#375 = CARTESIAN_POINT('',(7.521532970262E-02,1.308201665082E+03));
#376 = CARTESIAN_POINT('',(7.65845108279E-02,1.309980181665E+03));
#377 = CARTESIAN_POINT('',(8.156772220753E-02,1.316937872857E+03));
#378 = CARTESIAN_POINT('',(8.459743491665E-02,1.322263767596E+03));
#379 = CARTESIAN_POINT('',(8.698998076495E-02,1.327706221599E+03));
#380 = CARTESIAN_POINT('',(8.876840063809E-02,1.333228241985E+03));
#381 = CARTESIAN_POINT('',(8.99488500842E-02,1.338800660185E+03));
#382 = CARTESIAN_POINT('',(9.053956085863E-02,1.344399051261E+03));
#383 = CARTESIAN_POINT('',(9.053956085863E-02,1.354126814735E+03));
#384 = CARTESIAN_POINT('',(9.021887395638E-02,1.358253082086E+03));
#385 = CARTESIAN_POINT('',(8.957765137802E-02,1.362368964176E+03));
#386 = CARTESIAN_POINT('',(8.86135627051E-02,1.366464376967E+03));
#387 = CARTESIAN_POINT('',(8.732196781388E-02,1.370528303442E+03));
#388 = CARTESIAN_POINT('',(8.569609773068E-02,1.374548009725E+03));
#389 = CARTESIAN_POINT('',(8.20929965259E-02,1.381795292607E+03));
#390 = CARTESIAN_POINT('',(8.022246132778E-02,1.385041345057E+03));
#391 = CARTESIAN_POINT('',(7.811029510943E-02,1.38823830569E+03));
#392 = CARTESIAN_POINT('',(7.575009037972E-02,1.391376506653E+03));
#393 = CARTESIAN_POINT('',(7.313464931567E-02,1.394444272616E+03));
#394 = CARTESIAN_POINT('',(7.025633635608E-02,1.397427454847E+03));
#395 = CARTESIAN_POINT('',(6.488798918059E-02,1.402339873948E+03));
#396 = CARTESIAN_POINT('',(6.253342554377E-02,1.404320907899E+03));
#397 = CARTESIAN_POINT('',(6.004169245813E-02,1.406245252043E+03));
#398 = CARTESIAN_POINT('',(5.741087740462E-02,1.408105544136E+03));
#399 = CARTESIAN_POINT('',(5.463939569717E-02,1.409893683751E+03));
#400 = CARTESIAN_POINT('',(5.172610495049E-02,1.411600750406E+03));
#401 = CARTESIAN_POINT('',(4.644518237689E-02,1.414393861979E+03));
#402 = CARTESIAN_POINT('',(4.41440675602E-02,1.415522791441E+03));
#403 = CARTESIAN_POINT('',(4.1768437141E-02,1.416599022413E+03));
#404 = CARTESIAN_POINT('',(3.931998080355E-02,1.417617904938E+03));
#405 = CARTESIAN_POINT('',(3.680071566303E-02,1.418574824702E+03));
#406 = CARTESIAN_POINT('',(3.421298537908E-02,1.419465202307E+03));
#407 = CARTESIAN_POINT('',(2.740849356737E-02,1.421566125168E+03));
#408 = CARTESIAN_POINT('',(2.308813310971E-02,1.422676388888E+03));
#409 = CARTESIAN_POINT('',(1.862585357398E-02,1.423590925471E+03));
#410 = CARTESIAN_POINT('',(1.40522792702E-02,1.424290901435E+03));
#411 = CARTESIAN_POINT('',(9.400403752319E-03,1.424763092463E+03));
#412 = CARTESIAN_POINT('',(4.704682832756E-03,1.425E+03));
#413 = CARTESIAN_POINT('',(0.,1.425E+03));
#414 = ( GEOMETRIC_REPRESENTATION_CONTEXT(2) 
PARAMETRIC_REPRESENTATION_CONTEXT() REPRESENTATION_CONTEXT('2D SPACE',''
  ) );
#415 = PCURVE('',#162,#416);
#416 = DEFINITIONAL_REPRESENTATION('',(#417),#480);
#417 = B_SPLINE_CURVE_WITH_KNOTS('',7,(#418,#419,#420,#421,#422,#423,
    #424,#425,#426,#427,#428,#429,#430,#431,#432,#433,#434,#435,#436,
    #437,#438,#439,#440,#441,#442,#443,#444,#445,#446,#447,#448,#449,
    #450,#451,#452,#453,#454,#455,#456,#457,#458,#459,#460,#461,#462,
    #463,#464,#465,#466,#467,#468,#469,#470,#471,#472,#473,#474,#475,
    #476,#477,#478,#479),.UNSPECIFIED.,.F.,.F.,(8,6,6,6,6,6,6,6,6,6,8),(
    0.,9.502029918853E-02,0.155762429584,0.239173198604,0.306610400139,
    0.50005111076,0.642579459462,0.760885200227,0.84427564819,
    0.905002980205,1.),.UNSPECIFIED.);
#418 = CARTESIAN_POINT('',(3.14159265359,120.));
#419 = CARTESIAN_POINT('',(3.193626619748,120.));
#420 = CARTESIAN_POINT('',(3.24556130343,119.97858014379));
#421 = CARTESIAN_POINT('',(3.297239227448,119.93588482377));
#422 = CARTESIAN_POINT('',(3.348503594891,119.87302085771));
#423 = CARTESIAN_POINT('',(3.399190504029,119.79200688012));
#424 = CARTESIAN_POINT('',(3.449119924813,119.69559196864));
#425 = CARTESIAN_POINT('',(3.529386848886,119.51748951325));
#426 = CARTESIAN_POINT('',(3.560334755907,119.44294681989));
#427 = CARTESIAN_POINT('',(3.590930342027,119.36399452894));
#428 = CARTESIAN_POINT('',(3.621173058972,119.28132060406));
#429 = CARTESIAN_POINT('',(3.651060649972,119.1956098925));
#430 = CARTESIAN_POINT('',(3.680589173515,119.1075321486));
#431 = CARTESIAN_POINT('',(3.749800675098,118.89441430521));
#432 = CARTESIAN_POINT('',(3.789169637407,118.76781961531));
#433 = CARTESIAN_POINT('',(3.827900166448,118.63943851894));
#434 = CARTESIAN_POINT('',(3.866028363314,118.51062370248));
#435 = CARTESIAN_POINT('',(3.90358758646,118.38258008894));
#436 = CARTESIAN_POINT('',(3.940609193289,118.25636669732));
#437 = CARTESIAN_POINT('',(4.006643538436,118.03309274859));
#438 = CARTESIAN_POINT('',(4.035838995215,117.93505531953));
#439 = CARTESIAN_POINT('',(4.064730142981,117.83926622084));
#440 = CARTESIAN_POINT('',(4.093337308133,117.74613997405));
#441 = CARTESIAN_POINT('',(4.121680181059,117.65604087258));
#442 = CARTESIAN_POINT('',(4.149778011735,117.56928846066));
#443 = CARTESIAN_POINT('',(4.257598845774,117.2477212401));
#444 = CARTESIAN_POINT('',(4.335715455748,117.03904048119));
#445 = CARTESIAN_POINT('',(4.412420448877,116.86684774481));
#446 = CARTESIAN_POINT('',(4.488085230182,116.7352822656));
#447 = CARTESIAN_POINT('',(4.563064461753,116.64674851688));
#448 = CARTESIAN_POINT('',(4.63770966386,116.60244522093));
#449 = CARTESIAN_POINT('',(4.767413176854,116.60244522093));
#450 = CARTESIAN_POINT('',(4.822430106071,116.62649679508));
#451 = CARTESIAN_POINT('',(4.877580530245,116.67458828324));
#452 = CARTESIAN_POINT('',(4.933002174774,116.74636002953));
#453 = CARTESIAN_POINT('',(4.988833142699,116.84108982505));
#454 = CARTESIAN_POINT('',(5.045216061499,116.95761573901));
#455 = CARTESIAN_POINT('',(5.149687978166,117.20756514663));
#456 = CARTESIAN_POINT('',(5.197557407807,117.33474993566));
#457 = CARTESIAN_POINT('',(5.246009005142,117.47477943666));
#458 = CARTESIAN_POINT('',(5.295141018828,117.62641712757));
#459 = CARTESIAN_POINT('',(5.34505404669,117.78808131436));
#460 = CARTESIAN_POINT('',(5.395853881231,117.95775824833));
#461 = CARTESIAN_POINT('',(5.48416876748,118.25636669732));
#462 = CARTESIAN_POINT('',(5.521190374309,118.38258008894));
#463 = CARTESIAN_POINT('',(5.558749597455,118.51062370248));
#464 = CARTESIAN_POINT('',(5.596877794322,118.63943851894));
#465 = CARTESIAN_POINT('',(5.635608323362,118.76781961531));
#466 = CARTESIAN_POINT('',(5.674977285671,118.89441430521));
#467 = CARTESIAN_POINT('',(5.744188787254,119.1075321486));
#468 = CARTESIAN_POINT('',(5.773717310797,119.1956098925));
#469 = CARTESIAN_POINT('',(5.803604901797,119.28132060406));
#470 = CARTESIAN_POINT('',(5.833847618743,119.36399452894));
#471 = CARTESIAN_POINT('',(5.864443204862,119.44294681989));
#472 = CARTESIAN_POINT('',(5.895391111883,119.51748951325));
#473 = CARTESIAN_POINT('',(5.975657968976,119.69559182002));
#474 = CARTESIAN_POINT('',(6.025587410317,119.79200681611));
#475 = CARTESIAN_POINT('',(6.076274394971,119.87302095681));
#476 = CARTESIAN_POINT('',(6.127538855944,119.93588501771));
#477 = CARTESIAN_POINT('',(6.179216847136,119.97858028738));
#478 = CARTESIAN_POINT('',(6.231151515049,120.));
#479 = CARTESIAN_POINT('',(6.28318530718,120.));
#480 = ( GEOMETRIC_REPRESENTATION_CONTEXT(2) 
PARAMETRIC_REPRESENTATION_CONTEXT() REPRESENTATION_CONTEXT('2D SPACE',''
  ) );
#481 = ORIENTED_EDGE('',*,*,#482,.F.);
#482 = EDGE_CURVE('',#483,#24,#485,.T.);
#483 = VERTEX_POINT('',#484);
#484 = CARTESIAN_POINT('',(829.5,-9.239960099567E-14,125.));
#485 = SEAM_CURVE('',#486,(#490,#497),.PCURVE_S1.);
#486 = LINE('',#487,#488);
#487 = CARTESIAN_POINT('',(829.5,-2.031689039785E-13,0.));
#488 = VECTOR('',#489,1.);
#489 = DIRECTION('',(0.,0.,1.));
#490 = PCURVE('',#91,#491);
#491 = DEFINITIONAL_REPRESENTATION('',(#492),#496);
#492 = LINE('',#493,#494);
#493 = CARTESIAN_POINT('',(6.28318530718,-0.));
#494 = VECTOR('',#495,1.);
#495 = DIRECTION('',(0.,1.));
#496 = ( GEOMETRIC_REPRESENTATION_CONTEXT(2) 
PARAMETRIC_REPRESENTATION_CONTEXT() REPRESENTATION_CONTEXT('2D SPACE',''
  ) );
#497 = PCURVE('',#91,#498);
#498 = DEFINITIONAL_REPRESENTATION('',(#499),#503);
#499 = LINE('',#500,#501);
#500 = CARTESIAN_POINT('',(0.,-0.));
#501 = VECTOR('',#502,1.);
#502 = DIRECTION('',(0.,1.));
#503 = ( GEOMETRIC_REPRESENTATION_CONTEXT(2) 
PARAMETRIC_REPRESENTATION_CONTEXT() REPRESENTATION_CONTEXT('2D SPACE',''
  ) );
#504 = ORIENTED_EDGE('',*,*,#505,.F.);
#505 = EDGE_CURVE('',#506,#483,#508,.T.);
#506 = VERTEX_POINT('',#507);
#507 = CARTESIAN_POINT('',(827.61419151679,55.901699437495,0.));
#508 = SURFACE_CURVE('',#509,(#552,#598),.PCURVE_S1.);
#509 = B_SPLINE_CURVE_WITH_KNOTS('',6,(#510,#511,#512,#513,#514,#515,
    #516,#517,#518,#519,#520,#521,#522,#523,#524,#525,#526,#527,#528,
    #529,#530,#531,#532,#533,#534,#535,#536,#537,#538,#539,#540,#541,
    #542,#543,#544,#545,#546,#547,#548,#549,#550,#551),.UNSPECIFIED.,.F.
  ,.F.,(7,5,5,5,5,5,5,5,7),(0.,8.898177867625E-02,0.156105772796,
    0.339919740262,0.529069979599,0.684947212663,0.794820767442,
    0.874833862513,1.),.UNSPECIFIED.);
#510 = CARTESIAN_POINT('',(827.61419155304,55.901698900838,
    -5.999999999531E-07));
#511 = CARTESIAN_POINT('',(827.49787734992,57.623708912654,
    1.925265080592));
#512 = CARTESIAN_POINT('',(827.38414940791,59.243484587597,
    3.896356420259));
#513 = CARTESIAN_POINT('',(827.27382431068,60.763135118118,5.9077281152)
  );
#514 = CARTESIAN_POINT('',(827.16758885669,62.18477299741,7.954591768899
    ));
#515 = CARTESIAN_POINT('',(827.06601940394,63.510437179756,
    10.032809665309));
#516 = CARTESIAN_POINT('',(826.89686751486,65.671066063088,
    13.727447656769));
#517 = CARTESIAN_POINT('',(826.82706500392,66.546578770742,
    15.331907660718));
#518 = CARTESIAN_POINT('',(826.76040286298,67.369353530087,
    16.950610033067));
#519 = CARTESIAN_POINT('',(826.69706203013,68.140130006294,
    18.582136188073));
#520 = CARTESIAN_POINT('',(826.63719820441,68.859588674423,
    20.225207351199));
#521 = CARTESIAN_POINT('',(826.4268993049,71.359706399523,
    26.406606036392));
#522 = CARTESIAN_POINT('',(826.29991209648,72.811086074166,
    31.013045499476));
#523 = CARTESIAN_POINT('',(826.20279161944,73.894416445777,
    35.673034278318));
#524 = CARTESIAN_POINT('',(826.13711510616,74.618118168903,
    40.367093207952));
#525 = CARTESIAN_POINT('',(826.10366322697,74.986583977875,
    45.078500749929));
#526 = CARTESIAN_POINT('',(826.10124543824,75.013215297688,
    54.640545989117));
#527 = CARTESIAN_POINT('',(826.13418019129,74.65044548836,
    59.489724620102));
#528 = CARTESIAN_POINT('',(826.20127365458,73.911725040216,
    64.321059120453));
#529 = CARTESIAN_POINT('',(826.30168789833,72.792339652567,
    69.116405125489));
#530 = CARTESIAN_POINT('',(826.43370020407,71.283043163194,
    73.854578807799));
#531 = CARTESIAN_POINT('',(826.72645994793,67.794628853794,
    82.34314735655));
#532 = CARTESIAN_POINT('',(826.87806593087,65.944883950181,
    86.120624139727));
#533 = CARTESIAN_POINT('',(827.04731456589,63.813480522572,
    89.826566850388));
#534 = CARTESIAN_POINT('',(827.23188720969,61.390402418814,
    93.443093054414));
#535 = CARTESIAN_POINT('',(827.4285665764,58.664325693417,
    96.947221527424));
#536 = CARTESIAN_POINT('',(827.77694310028,53.480801442813,
    102.67837714621));
#537 = CARTESIAN_POINT('',(827.92483488441,51.180775082801,
    104.97792020061));
#538 = CARTESIAN_POINT('',(828.07496531603,48.720652161127,
    107.19575092423));
#539 = CARTESIAN_POINT('',(828.22540278949,46.097668986279,
    109.31860175281));
#540 = CARTESIAN_POINT('',(828.37386167986,43.309813622678,
    111.33138874787));
#541 = CARTESIAN_POINT('',(828.62249916382,38.205252642174,
    114.59001891616));
#542 = CARTESIAN_POINT('',(828.72485418397,35.965990853898,
    115.8959004511));
#543 = CARTESIAN_POINT('',(828.82367041913,33.640340859877,
    117.12636388459));
#544 = CARTESIAN_POINT('',(828.9177600087,31.23089672777,118.27329300915
    ));
#545 = CARTESIAN_POINT('',(829.00591384789,28.740897200249,
    119.32865393475));
#546 = CARTESIAN_POINT('',(829.21369987265,22.159129322601,
    121.77973060831));
#547 = CARTESIAN_POINT('',(829.3233295931,17.946675943864,
    123.03505219509));
#548 = CARTESIAN_POINT('',(829.41028947972,13.576763856445,
    124.00783042992));
#549 = CARTESIAN_POINT('',(829.47001240215,9.095506053725,
    124.66832944594));
#550 = CARTESIAN_POINT('',(829.5,4.552956803568,125.));
#551 = CARTESIAN_POINT('',(829.5,4.249154173236E-14,125.));
#552 = PCURVE('',#91,#553);
#553 = DEFINITIONAL_REPRESENTATION('',(#554),#597);
#554 = B_SPLINE_CURVE_WITH_KNOTS('',6,(#555,#556,#557,#558,#559,#560,
    #561,#562,#563,#564,#565,#566,#567,#568,#569,#570,#571,#572,#573,
    #574,#575,#576,#577,#578,#579,#580,#581,#582,#583,#584,#585,#586,
    #587,#588,#589,#590,#591,#592,#593,#594,#595,#596),.UNSPECIFIED.,.F.
  ,.F.,(7,5,5,5,5,5,5,5,7),(0.,8.898177867625E-02,0.156105772796,
    0.339919740262,0.529069979599,0.684947212663,0.794820767442,
    0.874833862513,1.),.UNSPECIFIED.);
#555 = CARTESIAN_POINT('',(6.744315887805E-02,-6.E-07));
#556 = CARTESIAN_POINT('',(6.95238506175E-02,1.925265080592));
#557 = CARTESIAN_POINT('',(7.148136431804E-02,3.896356420259));
#558 = CARTESIAN_POINT('',(7.33181866542E-02,5.9077281152));
#559 = CARTESIAN_POINT('',(7.50368096473E-02,7.954591768899));
#560 = CARTESIAN_POINT('',(7.663963984056E-02,10.032809665309));
#561 = CARTESIAN_POINT('',(7.925234637796E-02,13.727447656769));
#562 = CARTESIAN_POINT('',(8.03111649399E-02,15.331907660718));
#563 = CARTESIAN_POINT('',(8.130630650385E-02,16.950610033067));
#564 = CARTESIAN_POINT('',(8.223864414618E-02,18.582136188073));
#565 = CARTESIAN_POINT('',(8.310898123197E-02,20.225207351199));
#566 = CARTESIAN_POINT('',(8.613363083305E-02,26.406606036392));
#567 = CARTESIAN_POINT('',(8.789000967018E-02,31.013045499476));
#568 = CARTESIAN_POINT('',(8.920125104318E-02,35.673034278318));
#569 = CARTESIAN_POINT('',(9.007729152045E-02,40.367093207952));
#570 = CARTESIAN_POINT('',(9.05233207158E-02,45.078500749929));
#571 = CARTESIAN_POINT('',(9.055555802379E-02,54.640545989117));
#572 = CARTESIAN_POINT('',(9.011642384612E-02,59.489724620102));
#573 = CARTESIAN_POINT('',(8.922219736597E-02,64.321059120453));
#574 = CARTESIAN_POINT('',(8.786730895054E-02,69.116405125489));
#575 = CARTESIAN_POINT('',(8.604084786875E-02,73.854578807799));
#576 = CARTESIAN_POINT('',(8.182062188017E-02,82.34314735655));
#577 = CARTESIAN_POINT('',(7.958319710491E-02,86.120624139727));
#578 = CARTESIAN_POINT('',(7.700561861477E-02,89.826566850388));
#579 = CARTESIAN_POINT('',(7.407605273482E-02,93.443093054414));
#580 = CARTESIAN_POINT('',(7.07811407616E-02,96.947221527424));
#581 = CARTESIAN_POINT('',(6.451806905583E-02,102.67837714621));
#582 = CARTESIAN_POINT('',(6.173956813895E-02,104.97792020061));
#583 = CARTESIAN_POINT('',(5.876828569752E-02,107.19575092423));
#584 = CARTESIAN_POINT('',(5.560099968075E-02,109.31860175281));
#585 = CARTESIAN_POINT('',(5.223538573821E-02,111.33138874787));
#586 = CARTESIAN_POINT('',(4.607430940235E-02,114.59001891616));
#587 = CARTESIAN_POINT('',(4.337197082335E-02,115.8959004511));
#588 = CARTESIAN_POINT('',(4.056578687925E-02,117.12636388459));
#589 = CARTESIAN_POINT('',(3.765890603596E-02,118.27329300915));
#590 = CARTESIAN_POINT('',(3.46552397307E-02,119.32865393475));
#591 = CARTESIAN_POINT('',(2.671666594274E-02,121.77973060831));
#592 = CARTESIAN_POINT('',(2.163671999989E-02,123.03505219509));
#593 = CARTESIAN_POINT('',(1.6367703735E-02,124.00783042992));
#594 = CARTESIAN_POINT('',(1.096504662722E-02,124.66832944594));
#595 = CARTESIAN_POINT('',(5.488796628774E-03,125.));
#596 = CARTESIAN_POINT('',(0.,125.));
#597 = ( GEOMETRIC_REPRESENTATION_CONTEXT(2) 
PARAMETRIC_REPRESENTATION_CONTEXT() REPRESENTATION_CONTEXT('2D SPACE',''
  ) );
#598 = PCURVE('',#599,#604);
#599 = CYLINDRICAL_SURFACE('',#600,75.);
#600 = AXIS2_PLACEMENT_3D('',#601,#602,#603);
#601 = CARTESIAN_POINT('',(709.5,0.,50.));
#602 = DIRECTION('',(1.,0.,0.));
#603 = DIRECTION('',(-0.,0.,1.));
#604 = DEFINITIONAL_REPRESENTATION('',(#605),#648);
#605 = B_SPLINE_CURVE_WITH_KNOTS('',6,(#606,#607,#608,#609,#610,#611,
    #612,#613,#614,#615,#616,#617,#618,#619,#620,#621,#622,#623,#624,
    #625,#626,#627,#628,#629,#630,#631,#632,#633,#634,#635,#636,#637,
    #638,#639,#640,#641,#642,#643,#644,#645,#646,#647),.UNSPECIFIED.,.F.
  ,.F.,(7,5,5,5,5,5,5,5,7),(0.,8.898177867625E-02,0.156105772796,
    0.339919740262,0.529069979599,0.684947212663,0.794820767442,
    0.874833862513,1.),.UNSPECIFIED.);
#606 = CARTESIAN_POINT('',(3.982661313425,118.11419155304));
#607 = CARTESIAN_POINT('',(4.017101513248,117.99787734992));
#608 = CARTESIAN_POINT('',(4.051088395459,117.88414940791));
#609 = CARTESIAN_POINT('',(4.084659065693,117.77382431068));
#610 = CARTESIAN_POINT('',(4.117848699095,117.66758885669));
#611 = CARTESIAN_POINT('',(4.150691223908,117.56601940394));
#612 = CARTESIAN_POINT('',(4.207758306553,117.39686751486));
#613 = CARTESIAN_POINT('',(4.232118120654,117.32706500392));
#614 = CARTESIAN_POINT('',(4.256313477405,117.26040286298));
#615 = CARTESIAN_POINT('',(4.280357703178,117.19706203013));
#616 = CARTESIAN_POINT('',(4.304263862235,117.13719820441));
#617 = CARTESIAN_POINT('',(4.393168583614,116.9268993049));
#618 = CARTESIAN_POINT('',(4.457362908186,116.79991209648));
#619 = CARTESIAN_POINT('',(4.520876032685,116.70279161944));
#620 = CARTESIAN_POINT('',(4.583936501625,116.63711510616));
#621 = CARTESIAN_POINT('',(4.646768743084,116.60366322697));
#622 = CARTESIAN_POINT('',(4.77426317408,116.60124543824));
#623 = CARTESIAN_POINT('',(4.838905212958,116.63418019129));
#624 = CARTESIAN_POINT('',(4.903781694803,116.70127365458));
#625 = CARTESIAN_POINT('',(4.96913689442,116.80168789833));
#626 = CARTESIAN_POINT('',(5.03522003151,116.93370020407));
#627 = CARTESIAN_POINT('',(5.15758548081,117.22645994793));
#628 = CARTESIAN_POINT('',(5.21354617865,117.37806593087));
#629 = CARTESIAN_POINT('',(5.270356124976,117.54731456589));
#630 = CARTESIAN_POINT('',(5.32818754392,117.73188720969));
#631 = CARTESIAN_POINT('',(5.387220303733,117.9285665764));
#632 = CARTESIAN_POINT('',(5.490254337707,118.27694310028));
#633 = CARTESIAN_POINT('',(5.53356478895,118.42483488441));
#634 = CARTESIAN_POINT('',(5.577638203834,118.57496531603));
#635 = CARTESIAN_POINT('',(5.622530581638,118.72540278949));
#636 = CARTESIAN_POINT('',(5.668302677674,118.87386167986));
#637 = CARTESIAN_POINT('',(5.74904942952,119.12249916382));
#638 = CARTESIAN_POINT('',(5.783584463308,119.22485418397));
#639 = CARTESIAN_POINT('',(5.818620230664,119.32367041913));
#640 = CARTESIAN_POINT('',(5.854150802848,119.4177600087));
#641 = CARTESIAN_POINT('',(5.890174209898,119.50591384789));
#642 = CARTESIAN_POINT('',(5.983818876596,119.71369987265));
#643 = CARTESIAN_POINT('',(6.042294823536,119.8233295931));
#644 = CARTESIAN_POINT('',(6.101759073765,119.91028947972));
#645 = CARTESIAN_POINT('',(6.161911899117,119.97001240215));
#646 = CARTESIAN_POINT('',(6.222479216465,120.));
#647 = CARTESIAN_POINT('',(6.28318530718,120.));
#648 = ( GEOMETRIC_REPRESENTATION_CONTEXT(2) 
PARAMETRIC_REPRESENTATION_CONTEXT() REPRESENTATION_CONTEXT('2D SPACE',''
  ) );
#649 = ORIENTED_EDGE('',*,*,#650,.T.);
#650 = EDGE_CURVE('',#506,#651,#653,.T.);
#651 = VERTEX_POINT('',#652);
#652 = CARTESIAN_POINT('',(827.61419151679,-55.90169943749,0.));
#653 = SURFACE_CURVE('',#654,(#659,#666),.PCURVE_S1.);
#654 = CIRCLE('',#655,829.5);
#655 = AXIS2_PLACEMENT_3D('',#656,#657,#658);
#656 = CARTESIAN_POINT('',(0.,0.,0.));
#657 = DIRECTION('',(0.,0.,1.));
#658 = DIRECTION('',(1.,0.,-0.));
#659 = PCURVE('',#91,#660);
#660 = DEFINITIONAL_REPRESENTATION('',(#661),#665);
#661 = LINE('',#662,#663);
#662 = CARTESIAN_POINT('',(0.,0.));
#663 = VECTOR('',#664,1.);
#664 = DIRECTION('',(1.,0.));
#665 = ( GEOMETRIC_REPRESENTATION_CONTEXT(2) 
PARAMETRIC_REPRESENTATION_CONTEXT() REPRESENTATION_CONTEXT('2D SPACE',''
  ) );
#666 = PCURVE('',#667,#672);
#667 = CONICAL_SURFACE('',#668,40.,1.243546112315);
#668 = AXIS2_PLACEMENT_3D('',#669,#670,#671);
#669 = CARTESIAN_POINT('',(0.,0.,-268.));
#670 = DIRECTION('',(0.,0.,1.));
#671 = DIRECTION('',(1.,0.,-0.));
#672 = DEFINITIONAL_REPRESENTATION('',(#673),#676);
#673 = B_SPLINE_CURVE_WITH_KNOTS('',1,(#674,#675),.UNSPECIFIED.,.F.,.F.,
  (2,2),(0.,6.28318530718),.PIECEWISE_BEZIER_KNOTS.);
#674 = CARTESIAN_POINT('',(0.,268.));
#675 = CARTESIAN_POINT('',(6.28318530718,268.));
#676 = ( GEOMETRIC_REPRESENTATION_CONTEXT(2) 
PARAMETRIC_REPRESENTATION_CONTEXT() REPRESENTATION_CONTEXT('2D SPACE',''
  ) );
#677 = ORIENTED_EDGE('',*,*,#678,.F.);
#678 = EDGE_CURVE('',#483,#651,#679,.T.);
#679 = SURFACE_CURVE('',#680,(#731,#785),.PCURVE_S1.);
#680 = B_SPLINE_CURVE_WITH_KNOTS('',7,(#681,#682,#683,#684,#685,#686,
    #687,#688,#689,#690,#691,#692,#693,#694,#695,#696,#697,#698,#699,
    #700,#701,#702,#703,#704,#705,#706,#707,#708,#709,#710,#711,#712,
    #713,#714,#715,#716,#717,#718,#719,#720,#721,#722,#723,#724,#725,
    #726,#727,#728,#729,#730),.UNSPECIFIED.,.F.,.F.,(8,6,6,6,6,6,6,6,8),
  (0.,0.125179937532,0.205201744884,0.315087263329,0.403929171927,
    0.658768248681,0.842605539937,0.911030545976,1.),.UNSPECIFIED.);
#681 = CARTESIAN_POINT('',(829.5,-5.684341886081E-14,125.));
#682 = CARTESIAN_POINT('',(829.5,-3.902547455395,125.));
#683 = CARTESIAN_POINT('',(829.47858014366,-7.797649072728,
    124.76309087673));
#684 = CARTESIAN_POINT('',(829.43588482396,-11.65623382433,
    124.29089928227));
#685 = CARTESIAN_POINT('',(829.37302085777,-15.44958528356,
    123.5909243238));
#686 = CARTESIAN_POINT('',(829.29200687983,-19.15023059011,
    122.67638956132));
#687 = CARTESIAN_POINT('',(829.19559196882,-22.73270985993,
    121.56612692286));
#688 = CARTESIAN_POINT('',(829.01748951325,-28.37422989167,
    119.46520230651));
#689 = CARTESIAN_POINT('',(828.94294681989,-30.51946829133,
    118.57482470217));
#690 = CARTESIAN_POINT('',(828.86399452894,-32.60772194606,117.617904938
    ));
#691 = CARTESIAN_POINT('',(828.78132060406,-34.63704800013,
    116.59902241312));
#692 = CARTESIAN_POINT('',(828.6956098925,-36.60577993627,
    115.52279144112));
#693 = CARTESIAN_POINT('',(828.6075321486,-38.51252747723,114.393861979)
  );
#694 = CARTESIAN_POINT('',(828.3944143052,-42.88786546054,
    111.60075040617));
#695 = CARTESIAN_POINT('',(828.26781961531,-45.30113888237,
    109.8936837514));
#696 = CARTESIAN_POINT('',(828.13943851894,-47.59651651471,
    108.10554413651));
#697 = CARTESIAN_POINT('',(828.01062370248,-49.77499055611,
    106.2452520427));
#698 = CARTESIAN_POINT('',(827.88258008894,-51.83792547138,
    104.32090789934));
#699 = CARTESIAN_POINT('',(827.75636669732,-53.78695951152,
    102.33987394821));
#700 = CARTESIAN_POINT('',(827.53309274773,-57.10907180354,
    98.666785599789));
#701 = CARTESIAN_POINT('',(827.43505532031,-58.52130669968,
    96.991670127153));
#702 = CARTESIAN_POINT('',(827.33926622153,-59.86180949309,
    95.286696783963));
#703 = CARTESIAN_POINT('',(827.24613997347,-61.13178120853,
    93.554728912033));
#704 = CARTESIAN_POINT('',(827.15604087178,-62.33240492656,
    91.798334903406));
#705 = CARTESIAN_POINT('',(827.06928846138,-63.46482369569,
    90.019818350188));
#706 = CARTESIAN_POINT('',(826.74772134564,-67.58586921062,
    83.062129426961));
#707 = CARTESIAN_POINT('',(826.53904047325,-70.09037337033,
    77.736232950237));
#708 = CARTESIAN_POINT('',(826.36684765908,-72.06751891425,
    72.29377646313));
#709 = CARTESIAN_POINT('',(826.23528220011,-73.53684108489,
    66.77175482794));
#710 = CARTESIAN_POINT('',(826.146748508,-74.51201244756,61.199337323094
    ));
#711 = CARTESIAN_POINT('',(826.10244522093,-75.,55.600948180183));
#712 = CARTESIAN_POINT('',(826.10244522093,-75.,45.959555516265));
#713 = CARTESIAN_POINT('',(826.12550057274,-74.74605277578,
    41.919602775344));
#714 = CARTESIAN_POINT('',(826.17160103062,-74.23826812896,
    37.889397117031));
#715 = CARTESIAN_POINT('',(826.24041577641,-73.47483571996,
    33.878414016425));
#716 = CARTESIAN_POINT('',(826.33128070462,-72.4521490184,
    29.896967835639));
#717 = CARTESIAN_POINT('',(826.44313054745,-71.16493677907,
    25.956914293318));
#718 = CARTESIAN_POINT('',(826.62322588431,-69.02630891896,
    20.626617883391));
#719 = CARTESIAN_POINT('',(826.67476427036,-68.40861176459,
    19.188457618296));
#720 = CARTESIAN_POINT('',(826.72891094162,-67.75293656549,
    17.758641545189));
#721 = CARTESIAN_POINT('',(826.78557560385,-67.05888197091,
    16.33791977331));
#722 = CARTESIAN_POINT('',(826.84465678145,-66.32601919765,
    14.927106874233));
#723 = CARTESIAN_POINT('',(826.9060408743,-65.55389193355,
    13.527081923467));
#724 = CARTESIAN_POINT('',(827.05224539841,-63.68637677086,
    10.333663320701));
#725 = CARTESIAN_POINT('',(827.13856902553,-62.56353402054,
    8.548368086672));
#726 = CARTESIAN_POINT('',(827.22829482272,-61.37240858801,
    6.784955579068));
#727 = CARTESIAN_POINT('',(827.32110647161,-60.11185663891,5.04571211856
    ));
#728 = CARTESIAN_POINT('',(827.41664307946,-58.78069190828,
    3.333187914535));
#729 = CARTESIAN_POINT('',(827.51449364978,-57.37770770245,
    1.650227372253));
#730 = CARTESIAN_POINT('',(827.61419155304,-55.90169890083,
    -5.999999928477E-07));
#731 = PCURVE('',#91,#732);
#732 = DEFINITIONAL_REPRESENTATION('',(#733),#784);
#733 = B_SPLINE_CURVE_WITH_KNOTS('',7,(#734,#735,#736,#737,#738,#739,
    #740,#741,#742,#743,#744,#745,#746,#747,#748,#749,#750,#751,#752,
    #753,#754,#755,#756,#757,#758,#759,#760,#761,#762,#763,#764,#765,
    #766,#767,#768,#769,#770,#771,#772,#773,#774,#775,#776,#777,#778,
    #779,#780,#781,#782,#783),.UNSPECIFIED.,.F.,.F.,(8,6,6,6,6,6,6,6,8),
  (0.,0.125179937532,0.205201744884,0.315087263329,0.403929171927,
    0.658768248681,0.842605539937,0.911030545976,1.),.UNSPECIFIED.);
#734 = CARTESIAN_POINT('',(6.28318530718,125.));
#735 = CARTESIAN_POINT('',(6.27848060862,125.));
#736 = CARTESIAN_POINT('',(6.27378488625,124.76309087673));
#737 = CARTESIAN_POINT('',(6.269133017036,124.29089928227));
#738 = CARTESIAN_POINT('',(6.264559451251,123.5909243238));
#739 = CARTESIAN_POINT('',(6.260097178227,122.67638956132));
#740 = CARTESIAN_POINT('',(6.255776819297,121.56612692286));
#741 = CARTESIAN_POINT('',(6.2489723218,119.46520230651));
#742 = CARTESIAN_POINT('',(6.246384591517,118.57482470217));
#743 = CARTESIAN_POINT('',(6.243865326376,117.617904938));
#744 = CARTESIAN_POINT('',(6.241416870039,116.59902241312));
#745 = CARTESIAN_POINT('',(6.239041239619,115.52279144112));
#746 = CARTESIAN_POINT('',(6.236740124803,114.393861979));
#747 = CARTESIAN_POINT('',(6.231459202229,111.60075040617));
#748 = CARTESIAN_POINT('',(6.228545911482,109.8936837514));
#749 = CARTESIAN_POINT('',(6.225774429775,108.10554413651));
#750 = CARTESIAN_POINT('',(6.223143614721,106.2452520427));
#751 = CARTESIAN_POINT('',(6.220651881636,104.32090789934));
#752 = CARTESIAN_POINT('',(6.218297317999,102.33987394821));
#753 = CARTESIAN_POINT('',(6.214283325492,98.666785599789));
#754 = CARTESIAN_POINT('',(6.212576718771,96.991670127153));
#755 = CARTESIAN_POINT('',(6.210956566095,95.286696783963));
#756 = CARTESIAN_POINT('',(6.209421450965,93.554728912033));
#757 = CARTESIAN_POINT('',(6.207969977463,91.798334903406));
#758 = CARTESIAN_POINT('',(6.206600796363,90.019818350188));
#759 = CARTESIAN_POINT('',(6.201617586608,83.062129426961));
#760 = CARTESIAN_POINT('',(6.198587871965,77.736232950238));
#761 = CARTESIAN_POINT('',(6.196195325286,72.293776463128));
#762 = CARTESIAN_POINT('',(6.194416905656,66.771754827942));
#763 = CARTESIAN_POINT('',(6.19323645698,61.199337323093));
#764 = CARTESIAN_POINT('',(6.192645746321,55.600948180183));
#765 = CARTESIAN_POINT('',(6.192645746321,45.959555516265));
#766 = CARTESIAN_POINT('',(6.192953150386,41.919602775344));
#767 = CARTESIAN_POINT('',(6.193567825435,37.889397117031));
#768 = CARTESIAN_POINT('',(6.194491909209,33.878414016425));
#769 = CARTESIAN_POINT('',(6.195729659071,29.896967835639));
#770 = CARTESIAN_POINT('',(6.197287293833,25.956914293318));
#771 = CARTESIAN_POINT('',(6.199874632519,20.626617883391));
#772 = CARTESIAN_POINT('',(6.200621881858,19.188457618296));
#773 = CARTESIAN_POINT('',(6.20141501841,17.758641545189));
#774 = CARTESIAN_POINT('',(6.202254516061,16.33791977331));
#775 = CARTESIAN_POINT('',(6.203140880977,14.927106874233));
#776 = CARTESIAN_POINT('',(6.204074651777,13.527081923467));
#777 = CARTESIAN_POINT('',(6.206332915152,10.333663320701));
#778 = CARTESIAN_POINT('',(6.207690546256,8.548368086672));
#779 = CARTESIAN_POINT('',(6.209130567702,6.784955579068));
#780 = CARTESIAN_POINT('',(6.210654329712,5.04571211856));
#781 = CARTESIAN_POINT('',(6.212263232042,3.333187914535));
#782 = CARTESIAN_POINT('',(6.213958697973,1.650227372253));
#783 = CARTESIAN_POINT('',(6.215742148302,-6.E-07));
#784 = ( GEOMETRIC_REPRESENTATION_CONTEXT(2) 
PARAMETRIC_REPRESENTATION_CONTEXT() REPRESENTATION_CONTEXT('2D SPACE',''
  ) );
#785 = PCURVE('',#599,#786);
#786 = DEFINITIONAL_REPRESENTATION('',(#787),#838);
#787 = B_SPLINE_CURVE_WITH_KNOTS('',7,(#788,#789,#790,#791,#792,#793,
    #794,#795,#796,#797,#798,#799,#800,#801,#802,#803,#804,#805,#806,
    #807,#808,#809,#810,#811,#812,#813,#814,#815,#816,#817,#818,#819,
    #820,#821,#822,#823,#824,#825,#826,#827,#828,#829,#830,#831,#832,
    #833,#834,#835,#836,#837),.UNSPECIFIED.,.F.,.F.,(8,6,6,6,6,6,6,6,8),
  (0.,0.125179937532,0.205201744884,0.315087263329,0.403929171927,
    0.658768248681,0.842605539937,0.911030545976,1.),.UNSPECIFIED.);
#788 = CARTESIAN_POINT('',(-8.881784197001E-16,120.));
#789 = CARTESIAN_POINT('',(5.203396607193E-02,120.));
#790 = CARTESIAN_POINT('',(0.103968650041,119.97858014366));
#791 = CARTESIAN_POINT('',(0.155646573741,119.93588482396));
#792 = CARTESIAN_POINT('',(0.20691094118,119.87302085777));
#793 = CARTESIAN_POINT('',(0.257597850634,119.79200687983));
#794 = CARTESIAN_POINT('',(0.307527271142,119.69559196882));
#795 = CARTESIAN_POINT('',(0.387794195297,119.51748951325));
#796 = CARTESIAN_POINT('',(0.418742102317,119.44294681989));
#797 = CARTESIAN_POINT('',(0.449337688436,119.36399452894));
#798 = CARTESIAN_POINT('',(0.479580405382,119.28132060406));
#799 = CARTESIAN_POINT('',(0.509467996383,119.1956098925));
#800 = CARTESIAN_POINT('',(0.538996519926,119.1075321486));
#801 = CARTESIAN_POINT('',(0.608208021509,118.8944143052));
#802 = CARTESIAN_POINT('',(0.647576983817,118.76781961531));
#803 = CARTESIAN_POINT('',(0.686307512857,118.63943851894));
#804 = CARTESIAN_POINT('',(0.724435709724,118.51062370248));
#805 = CARTESIAN_POINT('',(0.76199493287,118.38258008894));
#806 = CARTESIAN_POINT('',(0.7990165397,118.25636669732));
#807 = CARTESIAN_POINT('',(0.865050885102,118.03309274773));
#808 = CARTESIAN_POINT('',(0.894246341379,117.93505532031));
#809 = CARTESIAN_POINT('',(0.923137489188,117.83926622153));
#810 = CARTESIAN_POINT('',(0.951744654735,117.74613997347));
#811 = CARTESIAN_POINT('',(0.980087527719,117.65604087178));
#812 = CARTESIAN_POINT('',(1.008185357906,117.56928846138));
#813 = CARTESIAN_POINT('',(1.116006156797,117.24772134564));
#814 = CARTESIAN_POINT('',(1.194122797529,117.03904047325));
#815 = CARTESIAN_POINT('',(1.270827822934,116.86684765908));
#816 = CARTESIAN_POINT('',(1.346492619503,116.73528220011));
#817 = CARTESIAN_POINT('',(1.421471841336,116.646748508));
#818 = CARTESIAN_POINT('',(1.496117017726,116.60244522093));
#819 = CARTESIAN_POINT('',(1.624668919911,116.60244522093));
#820 = CARTESIAN_POINT('',(1.678534983233,116.62550057274));
#821 = CARTESIAN_POINT('',(1.732526340725,116.67160103062));
#822 = CARTESIAN_POINT('',(1.78677209105,116.74041577641));
#823 = CARTESIAN_POINT('',(1.841401693381,116.83128070462));
#824 = CARTESIAN_POINT('',(1.896548681903,116.94313054745));
#825 = CARTESIAN_POINT('',(1.973126356563,117.12322588431));
#826 = CARTESIAN_POINT('',(1.993989633253,117.17476427036));
#827 = CARTESIAN_POINT('',(2.014952852842,117.22891094162));
#828 = CARTESIAN_POINT('',(2.036023942125,117.28557560385));
#829 = CARTESIAN_POINT('',(2.057210879527,117.34465678145));
#830 = CARTESIAN_POINT('',(2.078521833703,117.4060408743));
#831 = CARTESIAN_POINT('',(2.127847121795,117.55224539841));
#832 = CARTESIAN_POINT('',(2.155953033327,117.63856902553));
#833 = CARTESIAN_POINT('',(2.18430211016,117.72829482272));
#834 = CARTESIAN_POINT('',(2.212913664293,117.82110647161));
#835 = CARTESIAN_POINT('',(2.241807441755,117.91664307946));
#836 = CARTESIAN_POINT('',(2.271003818077,118.01449364978));
#837 = CARTESIAN_POINT('',(2.300523993755,118.11419155304));
#838 = ( GEOMETRIC_REPRESENTATION_CONTEXT(2) 
PARAMETRIC_REPRESENTATION_CONTEXT() REPRESENTATION_CONTEXT('2D SPACE',''
  ) );
#839 = ORIENTED_EDGE('',*,*,#482,.T.);
#840 = ADVANCED_FACE('',(#841),#162,.T.);
#841 = FACE_BOUND('',#842,.T.);
#842 = EDGE_LOOP('',(#843,#866,#893,#894,#895));
#843 = ORIENTED_EDGE('',*,*,#844,.T.);
#844 = EDGE_CURVE('',#22,#845,#847,.T.);
#845 = VERTEX_POINT('',#846);
#846 = CARTESIAN_POINT('',(959.5,1.836970198721E-14,1.425E+03));
#847 = SEAM_CURVE('',#848,(#852,#859),.PCURVE_S1.);
#848 = LINE('',#849,#850);
#849 = CARTESIAN_POINT('',(709.5,1.836970198721E-14,1.425E+03));
#850 = VECTOR('',#851,1.);
#851 = DIRECTION('',(1.,0.,0.));
#852 = PCURVE('',#162,#853);
#853 = DEFINITIONAL_REPRESENTATION('',(#854),#858);
#854 = LINE('',#855,#856);
#855 = CARTESIAN_POINT('',(6.28318530718,-0.));
#856 = VECTOR('',#857,1.);
#857 = DIRECTION('',(0.,1.));
#858 = ( GEOMETRIC_REPRESENTATION_CONTEXT(2) 
PARAMETRIC_REPRESENTATION_CONTEXT() REPRESENTATION_CONTEXT('2D SPACE',''
  ) );
#859 = PCURVE('',#162,#860);
#860 = DEFINITIONAL_REPRESENTATION('',(#861),#865);
#861 = LINE('',#862,#863);
#862 = CARTESIAN_POINT('',(0.,-0.));
#863 = VECTOR('',#864,1.);
#864 = DIRECTION('',(0.,1.));
#865 = ( GEOMETRIC_REPRESENTATION_CONTEXT(2) 
PARAMETRIC_REPRESENTATION_CONTEXT() REPRESENTATION_CONTEXT('2D SPACE',''
  ) );
#866 = ORIENTED_EDGE('',*,*,#867,.F.);
#867 = EDGE_CURVE('',#845,#845,#868,.T.);
#868 = SURFACE_CURVE('',#869,(#874,#881),.PCURVE_S1.);
#869 = CIRCLE('',#870,75.);
#870 = AXIS2_PLACEMENT_3D('',#871,#872,#873);
#871 = CARTESIAN_POINT('',(959.5,0.,1.35E+03));
#872 = DIRECTION('',(1.,0.,0.));
#873 = DIRECTION('',(-0.,0.,1.));
#874 = PCURVE('',#162,#875);
#875 = DEFINITIONAL_REPRESENTATION('',(#876),#880);
#876 = LINE('',#877,#878);
#877 = CARTESIAN_POINT('',(0.,250.));
#878 = VECTOR('',#879,1.);
#879 = DIRECTION('',(1.,0.));
#880 = ( GEOMETRIC_REPRESENTATION_CONTEXT(2) 
PARAMETRIC_REPRESENTATION_CONTEXT() REPRESENTATION_CONTEXT('2D SPACE',''
  ) );
#881 = PCURVE('',#882,#887);
#882 = PLANE('',#883);
#883 = AXIS2_PLACEMENT_3D('',#884,#885,#886);
#884 = CARTESIAN_POINT('',(959.5,0.,1.35E+03));
#885 = DIRECTION('',(1.,0.,0.));
#886 = DIRECTION('',(-0.,0.,1.));
#887 = DEFINITIONAL_REPRESENTATION('',(#888),#892);
#888 = CIRCLE('',#889,75.);
#889 = AXIS2_PLACEMENT_2D('',#890,#891);
#890 = CARTESIAN_POINT('',(0.,0.));
#891 = DIRECTION('',(1.,0.));
#892 = ( GEOMETRIC_REPRESENTATION_CONTEXT(2) 
PARAMETRIC_REPRESENTATION_CONTEXT() REPRESENTATION_CONTEXT('2D SPACE',''
  ) );
#893 = ORIENTED_EDGE('',*,*,#844,.F.);
#894 = ORIENTED_EDGE('',*,*,#21,.T.);
#895 = ORIENTED_EDGE('',*,*,#284,.T.);
#896 = ADVANCED_FACE('',(#897),#599,.T.);
#897 = FACE_BOUND('',#898,.T.);
#898 = EDGE_LOOP('',(#899,#922,#949,#950,#951,#1139,#1325));
#899 = ORIENTED_EDGE('',*,*,#900,.T.);
#900 = EDGE_CURVE('',#483,#901,#903,.T.);
#901 = VERTEX_POINT('',#902);
#902 = CARTESIAN_POINT('',(959.5,1.836970198721E-14,125.));
#903 = SEAM_CURVE('',#904,(#908,#915),.PCURVE_S1.);
#904 = LINE('',#905,#906);
#905 = CARTESIAN_POINT('',(709.5,1.836970198721E-14,125.));
#906 = VECTOR('',#907,1.);
#907 = DIRECTION('',(1.,0.,0.));
#908 = PCURVE('',#599,#909);
#909 = DEFINITIONAL_REPRESENTATION('',(#910),#914);
#910 = LINE('',#911,#912);
#911 = CARTESIAN_POINT('',(6.28318530718,-0.));
#912 = VECTOR('',#913,1.);
#913 = DIRECTION('',(0.,1.));
#914 = ( GEOMETRIC_REPRESENTATION_CONTEXT(2) 
PARAMETRIC_REPRESENTATION_CONTEXT() REPRESENTATION_CONTEXT('2D SPACE',''
  ) );
#915 = PCURVE('',#599,#916);
#916 = DEFINITIONAL_REPRESENTATION('',(#917),#921);
#917 = LINE('',#918,#919);
#918 = CARTESIAN_POINT('',(0.,-0.));
#919 = VECTOR('',#920,1.);
#920 = DIRECTION('',(0.,1.));
#921 = ( GEOMETRIC_REPRESENTATION_CONTEXT(2) 
PARAMETRIC_REPRESENTATION_CONTEXT() REPRESENTATION_CONTEXT('2D SPACE',''
  ) );
#922 = ORIENTED_EDGE('',*,*,#923,.F.);
#923 = EDGE_CURVE('',#901,#901,#924,.T.);
#924 = SURFACE_CURVE('',#925,(#930,#937),.PCURVE_S1.);
#925 = CIRCLE('',#926,75.);
#926 = AXIS2_PLACEMENT_3D('',#927,#928,#929);
#927 = CARTESIAN_POINT('',(959.5,0.,50.));
#928 = DIRECTION('',(1.,0.,0.));
#929 = DIRECTION('',(-0.,0.,1.));
#930 = PCURVE('',#599,#931);
#931 = DEFINITIONAL_REPRESENTATION('',(#932),#936);
#932 = LINE('',#933,#934);
#933 = CARTESIAN_POINT('',(0.,250.));
#934 = VECTOR('',#935,1.);
#935 = DIRECTION('',(1.,0.));
#936 = ( GEOMETRIC_REPRESENTATION_CONTEXT(2) 
PARAMETRIC_REPRESENTATION_CONTEXT() REPRESENTATION_CONTEXT('2D SPACE',''
  ) );
#937 = PCURVE('',#938,#943);
#938 = PLANE('',#939);
#939 = AXIS2_PLACEMENT_3D('',#940,#941,#942);
#940 = CARTESIAN_POINT('',(959.5,0.,50.));
#941 = DIRECTION('',(1.,0.,0.));
#942 = DIRECTION('',(-0.,0.,1.));
#943 = DEFINITIONAL_REPRESENTATION('',(#944),#948);
#944 = CIRCLE('',#945,75.);
#945 = AXIS2_PLACEMENT_2D('',#946,#947);
#946 = CARTESIAN_POINT('',(0.,0.));
#947 = DIRECTION('',(1.,0.));
#948 = ( GEOMETRIC_REPRESENTATION_CONTEXT(2) 
PARAMETRIC_REPRESENTATION_CONTEXT() REPRESENTATION_CONTEXT('2D SPACE',''
  ) );
#949 = ORIENTED_EDGE('',*,*,#900,.F.);
#950 = ORIENTED_EDGE('',*,*,#678,.T.);
#951 = ORIENTED_EDGE('',*,*,#952,.T.);
#952 = EDGE_CURVE('',#651,#953,#955,.T.);
#953 = VERTEX_POINT('',#954);
#954 = CARTESIAN_POINT('',(755.85261194029,-1.85130496368E-13,-25.));
#955 = SURFACE_CURVE('',#956,(#1015,#1077),.PCURVE_S1.);
#956 = B_SPLINE_CURVE_WITH_KNOTS('',8,(#957,#958,#959,#960,#961,#962,
    #963,#964,#965,#966,#967,#968,#969,#970,#971,#972,#973,#974,#975,
    #976,#977,#978,#979,#980,#981,#982,#983,#984,#985,#986,#987,#988,
    #989,#990,#991,#992,#993,#994,#995,#996,#997,#998,#999,#1000,#1001,
    #1002,#1003,#1004,#1005,#1006,#1007,#1008,#1009,#1010,#1011,#1012,
    #1013,#1014),.UNSPECIFIED.,.F.,.F.,(9,7,7,7,7,7,7,7,9),(0.,
    0.318976493608,0.558111524143,0.684513470577,0.789531889636,
    0.855407921163,0.911511030219,0.95135735562,1.),.UNSPECIFIED.);
#957 = CARTESIAN_POINT('',(827.61419151679,-55.90169943749,
    -7.105427357601E-15));
#958 = CARTESIAN_POINT('',(824.40544877962,-54.9093775848,
    -1.109449559091));
#959 = CARTESIAN_POINT('',(821.20186583978,-53.87266637108,
    -2.21788702328));
#960 = CARTESIAN_POINT('',(818.00384817618,-52.78860627872,
    -3.325181697635));
#961 = CARTESIAN_POINT('',(814.81197145524,-51.65379095568,
    -4.431143746028));
#962 = CARTESIAN_POINT('',(811.62700311819,-50.46419339452,
    -5.535516303387));
#963 = CARTESIAN_POINT('',(808.44991897748,-49.21501758337,
    -6.637969304515));
#964 = CARTESIAN_POINT('',(805.28194331434,-47.90035341778,
    -7.738084984282));
#965 = CARTESIAN_POINT('',(799.75762770057,-45.4718806434,
    -9.657920182168));
#966 = CARTESIAN_POINT('',(797.39679393953,-44.39024274375,
    -10.47883633655));
#967 = CARTESIAN_POINT('',(795.04267022409,-43.2641717725,
    -11.29789127655));
#968 = CARTESIAN_POINT('',(792.6960676824,-42.08979596338,
    -12.11480472693));
#969 = CARTESIAN_POINT('',(790.35810007994,-40.86255713079,
    -12.92919018168));
#970 = CARTESIAN_POINT('',(788.0302393275,-39.57686973115,-13.7405349482
    ));
#971 = CARTESIAN_POINT('',(785.71436762713,-38.22579076758,
    -14.54818132273));
#972 = CARTESIAN_POINT('',(782.19653983553,-36.04582221342,
    -15.7757337193));
#973 = CARTESIAN_POINT('',(780.98420954338,-35.27106877447,
    -16.19891303924));
#974 = CARTESIAN_POINT('',(779.77636126433,-34.47395598896,
    -16.62066220216));
#975 = CARTESIAN_POINT('',(778.57345974419,-33.65287629663,
    -17.04081819529));
#976 = CARTESIAN_POINT('',(777.37609240441,-32.80599150492,
    -17.45917485625));
#977 = CARTESIAN_POINT('',(776.18498177898,-31.93117422854,
    -17.8754784126));
#978 = CARTESIAN_POINT('',(775.00101032715,-31.02589152061,
    -18.28941866356));
#979 = CARTESIAN_POINT('',(772.84843081444,-29.30689352723,
    -19.04224234941));
#980 = CARTESIAN_POINT('',(771.87739400704,-28.50369251495,
    -19.38193455231));
#981 = CARTESIAN_POINT('',(770.91270416852,-27.67549554009,
    -19.71949625487));
#982 = CARTESIAN_POINT('',(769.95512547644,-26.82021802851,
    -20.05465857403));
#983 = CARTESIAN_POINT('',(769.00566997635,-25.93546932562,
    -20.3870654639));
#984 = CARTESIAN_POINT('',(768.06562001362,-25.01847256666,
    -20.71626568259));
#985 = CARTESIAN_POINT('',(767.13658337327,-24.06586912475,
    -21.04169325761));
#986 = CARTESIAN_POINT('',(765.64605319311,-22.45064089619,
    -21.56393591971));
#987 = CARTESIAN_POINT('',(765.07671280071,-21.81235962975,
    -21.76345030935));
#988 = CARTESIAN_POINT('',(764.51307863564,-21.15732813902,
    -21.96099692511));
#989 = CARTESIAN_POINT('',(763.95577735552,-20.4843634608,
    -22.15635513871));
#990 = CARTESIAN_POINT('',(763.40559473064,-19.79217076091,
    -22.34924835644));
#991 = CARTESIAN_POINT('',(762.86348834638,-19.07930979381,
    -22.53933949836));
#992 = CARTESIAN_POINT('',(762.33061304354,-18.34412792092,
    -22.72622200492));
#993 = CARTESIAN_POINT('',(761.36360670556,-16.93780079109,
    -23.06540649403));
#994 = CARTESIAN_POINT('',(760.92667530028,-16.27351152738,
    -23.21868320764));
#995 = CARTESIAN_POINT('',(760.49836696441,-15.59043887684,
    -23.36895400154));
#996 = CARTESIAN_POINT('',(760.07974286735,-14.88726657535,
    -23.51584531908));
#997 = CARTESIAN_POINT('',(759.67214686428,-14.16266301645,
    -23.65888418213));
#998 = CARTESIAN_POINT('',(759.27721584005,-13.41526192052,
    -23.79749447857));
#999 = CARTESIAN_POINT('',(758.8969023422,-12.64362028483,
    -23.93098895753));
#1000 = CARTESIAN_POINT('',(758.27543761066,-11.27972655447,
    -24.14915232695));
#1001 = CARTESIAN_POINT('',(758.0259606074,-10.70042926587,
    -24.23673728534));
#1002 = CARTESIAN_POINT('',(757.78591760752,-10.10767996429,
    -24.32101647078));
#1003 = CARTESIAN_POINT('',(757.55629917562,-9.50105036495,
    -24.40164128135));
#1004 = CARTESIAN_POINT('',(757.33825131498,-8.880253735074,
    -24.47820843727));
#1005 = CARTESIAN_POINT('',(757.13305458843,-8.245169400886,
    -24.55026730966));
#1006 = CARTESIAN_POINT('',(756.94209123065,-7.595880752302,
    -24.61733149108));
#1007 = CARTESIAN_POINT('',(756.55281272214,-6.123177453313,
    -24.75404815786));
#1008 = CARTESIAN_POINT('',(756.36204227067,-5.29244288565,
    -24.82105244788));
#1009 = CARTESIAN_POINT('',(756.19739453777,-4.441991803102,
    -24.87888524546));
#1010 = CARTESIAN_POINT('',(756.06175922499,-3.573991278403,
    -24.92652976115));
#1011 = CARTESIAN_POINT('',(755.95779835245,-2.691391942755,
    -24.96304930034));
#1012 = CARTESIAN_POINT('',(755.88765920111,-1.79804712745,
    -24.98768833568));
#1013 = CARTESIAN_POINT('',(755.85261194029,-0.898865900743,-25.));
#1014 = CARTESIAN_POINT('',(755.85261194029,-1.847411112976E-13,-25.));
#1015 = PCURVE('',#599,#1016);
#1016 = DEFINITIONAL_REPRESENTATION('',(#1017),#1076);
#1017 = B_SPLINE_CURVE_WITH_KNOTS('',8,(#1018,#1019,#1020,#1021,#1022,
    #1023,#1024,#1025,#1026,#1027,#1028,#1029,#1030,#1031,#1032,#1033,
    #1034,#1035,#1036,#1037,#1038,#1039,#1040,#1041,#1042,#1043,#1044,
    #1045,#1046,#1047,#1048,#1049,#1050,#1051,#1052,#1053,#1054,#1055,
    #1056,#1057,#1058,#1059,#1060,#1061,#1062,#1063,#1064,#1065,#1066,
    #1067,#1068,#1069,#1070,#1071,#1072,#1073,#1074,#1075),
  .UNSPECIFIED.,.F.,.F.,(9,7,7,7,7,7,7,7,9),(0.,0.318976493608,
    0.558111524143,0.684513470577,0.789531889636,0.855407921163,
    0.911511030219,0.95135735562,1.),.UNSPECIFIED.);
#1018 = CARTESIAN_POINT('',(2.300523983022,118.11419151679));
#1019 = CARTESIAN_POINT('',(2.320370420076,114.90544877962));
#1020 = CARTESIAN_POINT('',(2.340601367212,111.70186583978));
#1021 = CARTESIAN_POINT('',(2.361253765725,108.50384817618));
#1022 = CARTESIAN_POINT('',(2.382369804802,105.31197145524));
#1023 = CARTESIAN_POINT('',(2.403999200828,102.12700311819));
#1024 = CARTESIAN_POINT('',(2.426201134015,98.949918977485));
#1025 = CARTESIAN_POINT('',(2.449048732618,95.781943314349));
#1026 = CARTESIAN_POINT('',(2.490324492958,90.257627700576));
#1027 = CARTESIAN_POINT('',(2.508426059608,87.896793939532));
#1028 = CARTESIAN_POINT('',(2.526985413093,85.542670224097));
#1029 = CARTESIAN_POINT('',(2.546050848828,83.196067682402));
#1030 = CARTESIAN_POINT('',(2.565679137618,80.858100079941));
#1031 = CARTESIAN_POINT('',(2.585940033676,78.530239327505));
#1032 = CARTESIAN_POINT('',(2.606920621236,76.214367627134));
#1033 = CARTESIAN_POINT('',(2.640278339739,72.696539835532));
#1034 = CARTESIAN_POINT('',(2.652047931533,71.484209543388));
#1035 = CARTESIAN_POINT('',(2.664070278425,70.276361264331));
#1036 = CARTESIAN_POINT('',(2.676365723376,69.073459744191));
#1037 = CARTESIAN_POINT('',(2.688957531049,67.876092404413));
#1038 = CARTESIAN_POINT('',(2.701872672205,66.684981778981));
#1039 = CARTESIAN_POINT('',(2.715143372053,65.50101032715));
#1040 = CARTESIAN_POINT('',(2.740164954215,63.348430814445));
#1041 = CARTESIAN_POINT('',(2.751791746562,62.377394007046));
#1042 = CARTESIAN_POINT('',(2.763714664468,61.412704168529));
#1043 = CARTESIAN_POINT('',(2.775960398223,60.455125476449));
#1044 = CARTESIAN_POINT('',(2.788559530714,59.505669976352));
#1045 = CARTESIAN_POINT('',(2.801547632368,58.565620013624));
#1046 = CARTESIAN_POINT('',(2.814967892563,57.636583373277));
#1047 = CARTESIAN_POINT('',(2.837601985347,56.146053193112));
#1048 = CARTESIAN_POINT('',(2.846518052045,55.576712800711));
#1049 = CARTESIAN_POINT('',(2.855639564662,55.013078635641));
#1050 = CARTESIAN_POINT('',(2.864981822555,54.455777355521));
#1051 = CARTESIAN_POINT('',(2.874561557908,53.90559473064));
#1052 = CARTESIAN_POINT('',(2.884397404194,53.363488346383));
#1053 = CARTESIAN_POINT('',(2.894510814043,52.830613043544));
#1054 = CARTESIAN_POINT('',(2.913799507859,51.863606705569));
#1055 = CARTESIAN_POINT('',(2.922888973869,51.42667530028));
#1056 = CARTESIAN_POINT('',(2.932213571412,50.998366964419));
#1057 = CARTESIAN_POINT('',(2.941790475839,50.579742867351));
#1058 = CARTESIAN_POINT('',(2.951637039932,50.172146864289));
#1059 = CARTESIAN_POINT('',(2.9617711093,49.777215840055));
#1060 = CARTESIAN_POINT('',(2.97221165258,49.396902342207));
#1061 = CARTESIAN_POINT('',(2.990628076957,48.775437610662));
#1062 = CARTESIAN_POINT('',(2.998439536418,48.525960607401));
#1063 = CARTESIAN_POINT('',(3.006421825641,48.28591760752));
#1064 = CARTESIAN_POINT('',(3.01458065079,48.056299175625));
#1065 = CARTESIAN_POINT('',(3.022919890095,47.838251314985));
#1066 = CARTESIAN_POINT('',(3.031441306512,47.633054588431));
#1067 = CARTESIAN_POINT('',(3.040144078868,47.442091230654));
#1068 = CARTESIAN_POINT('',(3.059864554201,47.05281272214));
#1069 = CARTESIAN_POINT('',(3.07097617204,46.86204227068));
#1070 = CARTESIAN_POINT('',(3.082340196034,46.697394537774));
#1071 = CARTESIAN_POINT('',(3.093928935242,46.561759224997));
#1072 = CARTESIAN_POINT('',(3.105704801815,46.457798352451));
#1073 = CARTESIAN_POINT('',(3.11761869369,46.38765920111));
#1074 = CARTESIAN_POINT('',(3.129607774913,46.352611940299));
#1075 = CARTESIAN_POINT('',(3.14159265359,46.352611940299));
#1076 = ( GEOMETRIC_REPRESENTATION_CONTEXT(2) 
PARAMETRIC_REPRESENTATION_CONTEXT() REPRESENTATION_CONTEXT('2D SPACE',''
  ) );
#1077 = PCURVE('',#667,#1078);
#1078 = DEFINITIONAL_REPRESENTATION('',(#1079),#1138);
#1079 = B_SPLINE_CURVE_WITH_KNOTS('',8,(#1080,#1081,#1082,#1083,#1084,
    #1085,#1086,#1087,#1088,#1089,#1090,#1091,#1092,#1093,#1094,#1095,
    #1096,#1097,#1098,#1099,#1100,#1101,#1102,#1103,#1104,#1105,#1106,
    #1107,#1108,#1109,#1110,#1111,#1112,#1113,#1114,#1115,#1116,#1117,
    #1118,#1119,#1120,#1121,#1122,#1123,#1124,#1125,#1126,#1127,#1128,
    #1129,#1130,#1131,#1132,#1133,#1134,#1135,#1136,#1137),
  .UNSPECIFIED.,.F.,.F.,(9,7,7,7,7,7,7,7,9),(0.,0.318976493608,
    0.558111524143,0.684513470577,0.789531889636,0.855407921163,
    0.911511030219,0.95135735562,1.),.UNSPECIFIED.);
#1080 = CARTESIAN_POINT('',(6.215742147653,268.));
#1081 = CARTESIAN_POINT('',(6.216675025474,266.8905504409));
#1082 = CARTESIAN_POINT('',(6.217670115594,265.78211297672));
#1083 = CARTESIAN_POINT('',(6.218731979646,264.67481830236));
#1084 = CARTESIAN_POINT('',(6.219865838596,263.56885625397));
#1085 = CARTESIAN_POINT('',(6.221077813336,262.46448369661));
#1086 = CARTESIAN_POINT('',(6.222375131535,261.36203069548));
#1087 = CARTESIAN_POINT('',(6.223766601422,260.26191501571));
#1088 = CARTESIAN_POINT('',(6.226385985163,258.34207981783));
#1089 = CARTESIAN_POINT('',(6.227567573963,257.52116366344));
#1090 = CARTESIAN_POINT('',(6.228813281129,256.70210872344));
#1091 = CARTESIAN_POINT('',(6.230128751652,255.88519527306));
#1092 = CARTESIAN_POINT('',(6.231520606994,255.07080981831));
#1093 = CARTESIAN_POINT('',(6.232996904868,254.25946505179));
#1094 = CARTESIAN_POINT('',(6.234567585576,253.45181867726));
#1095 = CARTESIAN_POINT('',(6.237133649905,252.22426628069));
#1096 = CARTESIAN_POINT('',(6.238051121447,251.80108696076));
#1097 = CARTESIAN_POINT('',(6.239000748982,251.37933779784));
#1098 = CARTESIAN_POINT('',(6.23998480014,250.9591818047));
#1099 = CARTESIAN_POINT('',(6.241005862614,250.54082514374));
#1100 = CARTESIAN_POINT('',(6.242066922016,250.12452158739));
#1101 = CARTESIAN_POINT('',(6.243171516685,249.71058133643));
#1102 = CARTESIAN_POINT('',(6.24528159964,248.95775765059));
#1103 = CARTESIAN_POINT('',(6.246272122925,248.61806544768));
#1104 = CARTESIAN_POINT('',(6.2472982066,248.28050374512));
#1105 = CARTESIAN_POINT('',(6.248362737848,247.94534142596));
#1106 = CARTESIAN_POINT('',(6.249469026345,247.61293453609));
#1107 = CARTESIAN_POINT('',(6.250620908773,247.2837343174));
#1108 = CARTESIAN_POINT('',(6.251823005974,246.95830674239));
#1109 = CARTESIAN_POINT('',(6.25387061604,246.43606408028));
#1110 = CARTESIAN_POINT('',(6.254681927252,246.23654969064));
#1111 = CARTESIAN_POINT('',(6.255516746316,246.03900307488));
#1112 = CARTESIAN_POINT('',(6.256376689985,245.84364486128));
#1113 = CARTESIAN_POINT('',(6.257263528433,245.65075164355));
#1114 = CARTESIAN_POINT('',(6.258179227966,245.46066050163));
#1115 = CARTESIAN_POINT('',(6.25912603756,245.27377799507));
#1116 = CARTESIAN_POINT('',(6.26094180777,244.93459350596));
#1117 = CARTESIAN_POINT('',(6.261801252715,244.78131679235));
#1118 = CARTESIAN_POINT('',(6.262686777526,244.63104599845));
#1119 = CARTESIAN_POINT('',(6.263600164006,244.48415468091));
#1120 = CARTESIAN_POINT('',(6.264543216799,244.34111581786));
#1121 = CARTESIAN_POINT('',(6.265517784073,244.20250552142));
#1122 = CARTESIAN_POINT('',(6.26652580704,244.06901104247));
#1123 = CARTESIAN_POINT('',(6.268310643153,243.85084767304));
#1124 = CARTESIAN_POINT('',(6.269069624775,243.76326271465));
#1125 = CARTESIAN_POINT('',(6.269847117399,243.67898352921));
#1126 = CARTESIAN_POINT('',(6.270643691043,243.59835871864));
#1127 = CARTESIAN_POINT('',(6.27145972325,243.52179156272));
#1128 = CARTESIAN_POINT('',(6.272295363211,243.44973269033));
#1129 = CARTESIAN_POINT('',(6.273150478131,243.38266850891));
#1130 = CARTESIAN_POINT('',(6.27509164923,243.24595184214));
#1131 = CARTESIAN_POINT('',(6.276187703459,243.17894755211));
#1132 = CARTESIAN_POINT('',(6.277310738563,243.12111475453));
#1133 = CARTESIAN_POINT('',(6.278457787156,243.07347023884));
#1134 = CARTESIAN_POINT('',(6.279624796648,243.03695069965));
#1135 = CARTESIAN_POINT('',(6.280806474038,243.01231166431));
#1136 = CARTESIAN_POINT('',(6.281996099275,243.));
#1137 = CARTESIAN_POINT('',(6.28318530718,243.));
#1138 = ( GEOMETRIC_REPRESENTATION_CONTEXT(2) 
PARAMETRIC_REPRESENTATION_CONTEXT() REPRESENTATION_CONTEXT('2D SPACE',''
  ) );
#1139 = ORIENTED_EDGE('',*,*,#1140,.T.);
#1140 = EDGE_CURVE('',#953,#506,#1141,.T.);
#1141 = SURFACE_CURVE('',#1142,(#1201,#1263),.PCURVE_S1.);
#1142 = B_SPLINE_CURVE_WITH_KNOTS('',8,(#1143,#1144,#1145,#1146,#1147,
    #1148,#1149,#1150,#1151,#1152,#1153,#1154,#1155,#1156,#1157,#1158,
    #1159,#1160,#1161,#1162,#1163,#1164,#1165,#1166,#1167,#1168,#1169,
    #1170,#1171,#1172,#1173,#1174,#1175,#1176,#1177,#1178,#1179,#1180,
    #1181,#1182,#1183,#1184,#1185,#1186,#1187,#1188,#1189,#1190,#1191,
    #1192,#1193,#1194,#1195,#1196,#1197,#1198,#1199,#1200),
  .UNSPECIFIED.,.F.,.F.,(9,7,7,7,7,7,7,7,9),(0.,4.719601357205E-02,
    8.292128721684E-02,0.145954697164,0.220897821447,0.310992587165,
    0.466312372296,0.655266768383,1.),.UNSPECIFIED.);
#1143 = CARTESIAN_POINT('',(755.85261194029,-1.757183046874E-13,-25.));
#1144 = CARTESIAN_POINT('',(755.85261194029,0.872462709002,-25.));
#1145 = CARTESIAN_POINT('',(755.88563092006,1.744967612472,
    -24.98840084497));
#1146 = CARTESIAN_POINT('',(755.95167398792,2.612022113122,
    -24.9652007165));
#1147 = CARTESIAN_POINT('',(756.04961258988,3.46922231842,
    -24.93079665363));
#1148 = CARTESIAN_POINT('',(756.17754801383,4.313060051223,
    -24.88585672951));
#1149 = CARTESIAN_POINT('',(756.33310664987,5.140768961834,
    -24.83121616375));
#1150 = CARTESIAN_POINT('',(756.51366700716,5.950209741447,
    -24.76779737059));
#1151 = CARTESIAN_POINT('',(756.87006799415,7.337474774398,
    -24.64262585118));
#1152 = CARTESIAN_POINT('',(757.03647889906,7.924122862249,
    -24.58418313415));
#1153 = CARTESIAN_POINT('',(757.21470271956,8.499421909257,
    -24.52159473759));
#1154 = CARTESIAN_POINT('',(757.40372084497,9.063242969647,
    -24.45521910419));
#1155 = CARTESIAN_POINT('',(757.60257584221,9.615610404143,
    -24.38539314993));
#1156 = CARTESIAN_POINT('',(757.81039497491,10.156675782202,
    -24.31242398931));
#1157 = CARTESIAN_POINT('',(758.0264059355,10.686700225521,
    -24.2365834096));
#1158 = CARTESIAN_POINT('',(758.64435510082,12.122373631701,
    -24.01963853147));
#1159 = CARTESIAN_POINT('',(759.06200954839,13.005011767916,
    -23.87302747029));
#1160 = CARTESIAN_POINT('',(759.49933045567,13.85624021717,
    -23.71953116977));
#1161 = CARTESIAN_POINT('',(759.95335212825,14.678082409158,
    -23.56019348175));
#1162 = CARTESIAN_POINT('',(760.42163172521,15.472463612589,
    -23.3958741569));
#1163 = CARTESIAN_POINT('',(760.90221150171,16.241279539716,
    -23.22726220523));
#1164 = CARTESIAN_POINT('',(761.39360458144,16.986422517533,
    -23.0548810472));
#1165 = CARTESIAN_POINT('',(762.49064110446,18.56988343316,
    -22.67009584958));
#1166 = CARTESIAN_POINT('',(763.10001833117,19.398756681614,
    -22.45639260825));
#1167 = CARTESIAN_POINT('',(763.72090818063,20.199370704117,
    -22.23868963177));
#1168 = CARTESIAN_POINT('',(764.35170601285,20.974072153595,
    -22.01755183827));
#1169 = CARTESIAN_POINT('',(764.99110793224,21.724868384482,
    -21.79343820107));
#1170 = CARTESIAN_POINT('',(765.63806759521,22.45354368697,
    -21.56671702084));
#1171 = CARTESIAN_POINT('',(766.29177731852,23.161710384497,
    -21.33767266401));
#1172 = CARTESIAN_POINT('',(767.74492475728,24.679350070374,
    -20.82861916193));
#1173 = CARTESIAN_POINT('',(768.54694671044,25.480193130883,
    -20.54772372467));
#1174 = CARTESIAN_POINT('',(769.3565618504,26.25588628012,
    -20.26423204448));
#1175 = CARTESIAN_POINT('',(770.17283375268,27.008445764865,
    -19.97847374802));
#1176 = CARTESIAN_POINT('',(770.994991448,27.739585744539,-19.6907201391
    ));
#1177 = CARTESIAN_POINT('',(771.82240492531,28.450806385983,
    -19.40119287616));
#1178 = CARTESIAN_POINT('',(772.65457272718,29.143438608029,
    -19.11006839738));
#1179 = CARTESIAN_POINT('',(774.93326595578,30.982789886537,
    -18.3130755508));
#1180 = CARTESIAN_POINT('',(776.38819580532,32.095058273151,
    -17.8043988556));
#1181 = CARTESIAN_POINT('',(777.85382359473,33.161605759941,
    -17.29218256286));
#1182 = CARTESIAN_POINT('',(779.32855413716,34.1870070416,
    -16.77698737166));
#1183 = CARTESIAN_POINT('',(780.81112897931,35.174972808982,
    -16.25925513174));
#1184 = CARTESIAN_POINT('',(782.30056554222,36.128639104867,
    -15.73933048703));
#1185 = CARTESIAN_POINT('',(783.79613359631,37.050680305906,
    -15.21746937127));
#1186 = CARTESIAN_POINT('',(787.12359733951,39.029559199558,
    -14.05684126668));
#1187 = CARTESIAN_POINT('',(788.95799856429,40.072233123286,
    -13.41729780074));
#1188 = CARTESIAN_POINT('',(790.79945005249,41.075633647283,
    -12.77559707815));
#1189 = CARTESIAN_POINT('',(792.64708449798,42.043052139851,
    -12.1320419827));
#1190 = CARTESIAN_POINT('',(794.50019428083,42.977229451829,
    -11.48687898986));
#1191 = CARTESIAN_POINT('',(796.35820666486,43.880513190692,
    -10.84030703658));
#1192 = CARTESIAN_POINT('',(798.22067155323,44.754935813771,
    -10.19248195895));
#1193 = CARTESIAN_POINT('',(803.49268047793,47.148232412293,
    -8.359540099815));
#1194 = CARTESIAN_POINT('',(806.91154441039,48.603966312704,
    -7.17186751353));
#1195 = CARTESIAN_POINT('',(810.34165827057,49.980357771806,
    -5.981256073911));
#1196 = CARTESIAN_POINT('',(813.78135841615,51.285289742841,
    -4.788274772046));
#1197 = CARTESIAN_POINT('',(817.22933316243,52.525101736493,
    -3.593368279346));
#1198 = CARTESIAN_POINT('',(820.68457996056,53.704965742749,
    -2.396872621674));
#1199 = CARTESIAN_POINT('',(824.1463622958,54.829253623269,
    -1.199030871396));
#1200 = CARTESIAN_POINT('',(827.61419151679,55.901699437495,0.));
#1201 = PCURVE('',#599,#1202);
#1202 = DEFINITIONAL_REPRESENTATION('',(#1203),#1262);
#1203 = B_SPLINE_CURVE_WITH_KNOTS('',8,(#1204,#1205,#1206,#1207,#1208,
    #1209,#1210,#1211,#1212,#1213,#1214,#1215,#1216,#1217,#1218,#1219,
    #1220,#1221,#1222,#1223,#1224,#1225,#1226,#1227,#1228,#1229,#1230,
    #1231,#1232,#1233,#1234,#1235,#1236,#1237,#1238,#1239,#1240,#1241,
    #1242,#1243,#1244,#1245,#1246,#1247,#1248,#1249,#1250,#1251,#1252,
    #1253,#1254,#1255,#1256,#1257,#1258,#1259,#1260,#1261),
  .UNSPECIFIED.,.F.,.F.,(9,7,7,7,7,7,7,7,9),(0.,4.719601357205E-02,
    8.292128721684E-02,0.145954697164,0.220897821447,0.310992587165,
    0.466312372296,0.655266768383,1.),.UNSPECIFIED.);
#1204 = CARTESIAN_POINT('',(3.14159265359,46.352611940299));
#1205 = CARTESIAN_POINT('',(3.15322548971,46.352611940299));
#1206 = CARTESIAN_POINT('',(3.16485888672,46.385630920069));
#1207 = CARTESIAN_POINT('',(3.176422016158,46.451673987921));
#1208 = CARTESIAN_POINT('',(3.187858547779,46.549612589889));
#1209 = CARTESIAN_POINT('',(3.199123802394,46.677548013835));
#1210 = CARTESIAN_POINT('',(3.210182543387,46.833106649876));
#1211 = CARTESIAN_POINT('',(3.221007406917,47.01366700716));
#1212 = CARTESIAN_POINT('',(3.239579415392,47.370067994156));
#1213 = CARTESIAN_POINT('',(3.247439767649,47.536478899069));
#1214 = CARTESIAN_POINT('',(3.255155160166,47.714702719566));
#1215 = CARTESIAN_POINT('',(3.262724114602,47.903720844975));
#1216 = CARTESIAN_POINT('',(3.270147102071,48.102575842215));
#1217 = CARTESIAN_POINT('',(3.277426217764,48.310394974915));
#1218 = CARTESIAN_POINT('',(3.284564969796,48.526405935503));
#1219 = CARTESIAN_POINT('',(3.303924598853,49.144355100827));
#1220 = CARTESIAN_POINT('',(3.315853079336,49.562009548391));
#1221 = CARTESIAN_POINT('',(3.327384055708,49.999330455672));
#1222 = CARTESIAN_POINT('',(3.338544166183,50.453352128257));
#1223 = CARTESIAN_POINT('',(3.349358550326,50.921631725215));
#1224 = CARTESIAN_POINT('',(3.35985189825,51.402211501714));
#1225 = CARTESIAN_POINT('',(3.37004890856,51.893604581447));
#1226 = CARTESIAN_POINT('',(3.391776139276,52.990641104463));
#1227 = CARTESIAN_POINT('',(3.403188082065,53.600018331177));
#1228 = CARTESIAN_POINT('',(3.414248986338,54.220908180638));
#1229 = CARTESIAN_POINT('',(3.42498929236,54.851706012851));
#1230 = CARTESIAN_POINT('',(3.435434940387,55.491107932242));
#1231 = CARTESIAN_POINT('',(3.445608961047,56.138067595218));
#1232 = CARTESIAN_POINT('',(3.455532191108,56.791777318521));
#1233 = CARTESIAN_POINT('',(3.476875379182,58.244924757284));
#1234 = CARTESIAN_POINT('',(3.488190002794,59.046946710447));
#1235 = CARTESIAN_POINT('',(3.499200120221,59.856561850401));
#1236 = CARTESIAN_POINT('',(3.509931649711,60.672833752681));
#1237 = CARTESIAN_POINT('',(3.520406556974,61.494991448004));
#1238 = CARTESIAN_POINT('',(3.530644039415,62.322404925319));
#1239 = CARTESIAN_POINT('',(3.540661133543,63.154572727185));
#1240 = CARTESIAN_POINT('',(3.567389098834,65.433265955785));
#1241 = CARTESIAN_POINT('',(3.58369338126,66.888195805329));
#1242 = CARTESIAN_POINT('',(3.599464436661,68.353823594739));
#1243 = CARTESIAN_POINT('',(3.614760421793,69.828554137166));
#1244 = CARTESIAN_POINT('',(3.629628303253,71.311128979317));
#1245 = CARTESIAN_POINT('',(3.644107706608,72.800565542224));
#1246 = CARTESIAN_POINT('',(3.658232435458,74.296133596316));
#1247 = CARTESIAN_POINT('',(3.688820797146,77.623597339513));
#1248 = CARTESIAN_POINT('',(3.705126767344,79.457998564293));
#1249 = CARTESIAN_POINT('',(3.721002808053,81.29945005249));
#1250 = CARTESIAN_POINT('',(3.736490211868,83.147084497988));
#1251 = CARTESIAN_POINT('',(3.751623233069,85.000194280839));
#1252 = CARTESIAN_POINT('',(3.766431157819,86.858206664868));
#1253 = CARTESIAN_POINT('',(3.780939336783,88.720671553238));
#1254 = CARTESIAN_POINT('',(3.821133409242,93.992680477929));
#1255 = CARTESIAN_POINT('',(3.846171652716,97.411544410399));
#1256 = CARTESIAN_POINT('',(3.870420504124,100.84165827057));
#1257 = CARTESIAN_POINT('',(3.893977512194,104.28135841615));
#1258 = CARTESIAN_POINT('',(3.916920909595,107.72933316243));
#1259 = CARTESIAN_POINT('',(3.939314489785,111.18457996056));
#1260 = CARTESIAN_POINT('',(3.961212407873,114.6463622958));
#1261 = CARTESIAN_POINT('',(3.982661324158,118.11419151679));
#1262 = ( GEOMETRIC_REPRESENTATION_CONTEXT(2) 
PARAMETRIC_REPRESENTATION_CONTEXT() REPRESENTATION_CONTEXT('2D SPACE',''
  ) );
#1263 = PCURVE('',#667,#1264);
#1264 = DEFINITIONAL_REPRESENTATION('',(#1265),#1324);
#1265 = B_SPLINE_CURVE_WITH_KNOTS('',8,(#1266,#1267,#1268,#1269,#1270,
    #1271,#1272,#1273,#1274,#1275,#1276,#1277,#1278,#1279,#1280,#1281,
    #1282,#1283,#1284,#1285,#1286,#1287,#1288,#1289,#1290,#1291,#1292,
    #1293,#1294,#1295,#1296,#1297,#1298,#1299,#1300,#1301,#1302,#1303,
    #1304,#1305,#1306,#1307,#1308,#1309,#1310,#1311,#1312,#1313,#1314,
    #1315,#1316,#1317,#1318,#1319,#1320,#1321,#1322,#1323),
  .UNSPECIFIED.,.F.,.F.,(9,7,7,7,7,7,7,7,9),(0.,4.719601357205E-02,
    8.292128721684E-02,0.145954697164,0.220897821447,0.310992587165,
    0.466312372296,0.655266768383,1.),.UNSPECIFIED.);
#1266 = CARTESIAN_POINT('',(0.,243.));
#1267 = CARTESIAN_POINT('',(1.154276237483E-03,243.));
#1268 = CARTESIAN_POINT('',(2.308608442664E-03,243.01159915502));
#1269 = CARTESIAN_POINT('',(3.455522854516E-03,243.03479928349));
#1270 = CARTESIAN_POINT('',(4.588987560269E-03,243.06920334636));
#1271 = CARTESIAN_POINT('',(5.704181504673E-03,243.11414327048));
#1272 = CARTESIAN_POINT('',(6.797304739948E-03,243.16878383624));
#1273 = CARTESIAN_POINT('',(7.865429916435E-03,243.2322026294));
#1274 = CARTESIAN_POINT('',(9.694359084361E-03,243.35737414881));
#1275 = CARTESIAN_POINT('',(1.046721574664E-02,243.41581686584));
#1276 = CARTESIAN_POINT('',(1.122451671903E-02,243.4784052624));
#1277 = CARTESIAN_POINT('',(1.19660724367E-02,243.5447808958));
#1278 = CARTESIAN_POINT('',(1.269190448101E-02,243.61460685006));
#1279 = CARTESIAN_POINT('',(1.340220905007E-02,243.68757601068));
#1280 = CARTESIAN_POINT('',(1.409733147036E-02,243.76341659039));
#1281 = CARTESIAN_POINT('',(1.597828028377E-02,243.98036146852));
#1282 = CARTESIAN_POINT('',(1.713245787539E-02,244.1269725297));
#1283 = CARTESIAN_POINT('',(1.824331178315E-02,244.28046883022));
#1284 = CARTESIAN_POINT('',(1.931356084832E-02,244.43980651824));
#1285 = CARTESIAN_POINT('',(2.034581017428E-02,244.6041258431));
#1286 = CARTESIAN_POINT('',(2.134263005037E-02,244.77273779476));
#1287 = CARTESIAN_POINT('',(2.230658133178E-02,244.94511895279));
#1288 = CARTESIAN_POINT('',(2.435032759794E-02,245.32990415041));
#1289 = CARTESIAN_POINT('',(2.541701936286E-02,245.54360739175));
#1290 = CARTESIAN_POINT('',(2.644430108601E-02,245.76131036822));
#1291 = CARTESIAN_POINT('',(2.743536851253E-02,245.98244816172));
#1292 = CARTESIAN_POINT('',(2.839296544953E-02,246.20656179892));
#1293 = CARTESIAN_POINT('',(2.931953416297E-02,246.43328297915));
#1294 = CARTESIAN_POINT('',(3.021728032962E-02,246.66232733598));
#1295 = CARTESIAN_POINT('',(3.21352978425E-02,247.17138083807));
#1296 = CARTESIAN_POINT('',(3.314343653365E-02,247.45227627532));
#1297 = CARTESIAN_POINT('',(3.41160734798E-02,247.73576795551));
#1298 = CARTESIAN_POINT('',(3.505598417653E-02,248.02152625197));
#1299 = CARTESIAN_POINT('',(3.596553664094E-02,248.30927986089));
#1300 = CARTESIAN_POINT('',(3.684680736523E-02,248.59880712383));
#1301 = CARTESIAN_POINT('',(3.770163991695E-02,248.88993160262));
#1302 = CARTESIAN_POINT('',(3.996269591277E-02,249.68692444919));
#1303 = CARTESIAN_POINT('',(4.131986181744E-02,250.19560114439));
#1304 = CARTESIAN_POINT('',(4.26116726063E-02,250.70781743714));
#1305 = CARTESIAN_POINT('',(4.384452493673E-02,251.22301262833));
#1306 = CARTESIAN_POINT('',(4.502363714355E-02,251.74074486825));
#1307 = CARTESIAN_POINT('',(4.615343435214E-02,252.26066951296));
#1308 = CARTESIAN_POINT('',(4.723769872427E-02,252.78253062872));
#1309 = CARTESIAN_POINT('',(4.954748655657E-02,253.94315873331));
#1310 = CARTESIAN_POINT('',(5.075261893502E-02,254.58270219925));
#1311 = CARTESIAN_POINT('',(5.190106037625E-02,255.22440292184));
#1312 = CARTESIAN_POINT('',(5.299752515699E-02,255.8679580173));
#1313 = CARTESIAN_POINT('',(5.40459656702E-02,256.51312101013));
#1314 = CARTESIAN_POINT('',(5.504978432422E-02,257.15969296341));
#1315 = CARTESIAN_POINT('',(5.60119392125E-02,257.80751804104));
#1316 = CARTESIAN_POINT('',(5.861919614619E-02,259.64045990018));
#1317 = CARTESIAN_POINT('',(6.017325482418E-02,260.82813248646));
#1318 = CARTESIAN_POINT('',(6.161309482391E-02,262.0187439261));
#1319 = CARTESIAN_POINT('',(6.295043943655E-02,263.21172522792));
#1320 = CARTESIAN_POINT('',(6.419481994263E-02,264.40663172067));
#1321 = CARTESIAN_POINT('',(6.535409528258E-02,265.60312737831));
#1322 = CARTESIAN_POINT('',(6.6434957488E-02,266.8009691286));
#1323 = CARTESIAN_POINT('',(6.744315952649E-02,268.));
#1324 = ( GEOMETRIC_REPRESENTATION_CONTEXT(2) 
PARAMETRIC_REPRESENTATION_CONTEXT() REPRESENTATION_CONTEXT('2D SPACE',''
  ) );
#1325 = ORIENTED_EDGE('',*,*,#505,.T.);
#1326 = ADVANCED_FACE('',(#1327),#667,.T.);
#1327 = FACE_BOUND('',#1328,.T.);
#1328 = EDGE_LOOP('',(#1329,#1330,#1331,#1354,#1381,#1382));
#1329 = ORIENTED_EDGE('',*,*,#650,.F.);
#1330 = ORIENTED_EDGE('',*,*,#1140,.F.);
#1331 = ORIENTED_EDGE('',*,*,#1332,.F.);
#1332 = EDGE_CURVE('',#1333,#953,#1335,.T.);
#1333 = VERTEX_POINT('',#1334);
#1334 = CARTESIAN_POINT('',(40.,-9.797174393179E-15,-268.));
#1335 = SEAM_CURVE('',#1336,(#1340,#1347),.PCURVE_S1.);
#1336 = LINE('',#1337,#1338);
#1337 = CARTESIAN_POINT('',(40.,-9.797174393179E-15,-268.));
#1338 = VECTOR('',#1339,1.);
#1339 = DIRECTION('',(0.94692981457,-2.319309132862E-16,0.32144039304));
#1340 = PCURVE('',#667,#1341);
#1341 = DEFINITIONAL_REPRESENTATION('',(#1342),#1346);
#1342 = LINE('',#1343,#1344);
#1343 = CARTESIAN_POINT('',(6.28318530718,-0.));
#1344 = VECTOR('',#1345,1.);
#1345 = DIRECTION('',(0.,1.));
#1346 = ( GEOMETRIC_REPRESENTATION_CONTEXT(2) 
PARAMETRIC_REPRESENTATION_CONTEXT() REPRESENTATION_CONTEXT('2D SPACE',''
  ) );
#1347 = PCURVE('',#667,#1348);
#1348 = DEFINITIONAL_REPRESENTATION('',(#1349),#1353);
#1349 = LINE('',#1350,#1351);
#1350 = CARTESIAN_POINT('',(0.,-0.));
#1351 = VECTOR('',#1352,1.);
#1352 = DIRECTION('',(0.,1.));
#1353 = ( GEOMETRIC_REPRESENTATION_CONTEXT(2) 
PARAMETRIC_REPRESENTATION_CONTEXT() REPRESENTATION_CONTEXT('2D SPACE',''
  ) );
#1354 = ORIENTED_EDGE('',*,*,#1355,.T.);
#1355 = EDGE_CURVE('',#1333,#1333,#1356,.T.);
#1356 = SURFACE_CURVE('',#1357,(#1362,#1369),.PCURVE_S1.);
#1357 = CIRCLE('',#1358,40.);
#1358 = AXIS2_PLACEMENT_3D('',#1359,#1360,#1361);
#1359 = CARTESIAN_POINT('',(0.,0.,-268.));
#1360 = DIRECTION('',(0.,0.,1.));
#1361 = DIRECTION('',(1.,0.,-0.));
#1362 = PCURVE('',#667,#1363);
#1363 = DEFINITIONAL_REPRESENTATION('',(#1364),#1368);
#1364 = LINE('',#1365,#1366);
#1365 = CARTESIAN_POINT('',(0.,0.));
#1366 = VECTOR('',#1367,1.);
#1367 = DIRECTION('',(1.,0.));
#1368 = ( GEOMETRIC_REPRESENTATION_CONTEXT(2) 
PARAMETRIC_REPRESENTATION_CONTEXT() REPRESENTATION_CONTEXT('2D SPACE',''
  ) );
#1369 = PCURVE('',#1370,#1375);
#1370 = PLANE('',#1371);
#1371 = AXIS2_PLACEMENT_3D('',#1372,#1373,#1374);
#1372 = CARTESIAN_POINT('',(0.,0.,-268.));
#1373 = DIRECTION('',(0.,0.,1.));
#1374 = DIRECTION('',(1.,0.,-0.));
#1375 = DEFINITIONAL_REPRESENTATION('',(#1376),#1380);
#1376 = CIRCLE('',#1377,40.);
#1377 = AXIS2_PLACEMENT_2D('',#1378,#1379);
#1378 = CARTESIAN_POINT('',(0.,0.));
#1379 = DIRECTION('',(1.,0.));
#1380 = ( GEOMETRIC_REPRESENTATION_CONTEXT(2) 
PARAMETRIC_REPRESENTATION_CONTEXT() REPRESENTATION_CONTEXT('2D SPACE',''
  ) );
#1381 = ORIENTED_EDGE('',*,*,#1332,.T.);
#1382 = ORIENTED_EDGE('',*,*,#952,.F.);
#1383 = ADVANCED_FACE('',(#1384),#271,.T.);
#1384 = FACE_BOUND('',#1385,.T.);
#1385 = EDGE_LOOP('',(#1386));
#1386 = ORIENTED_EDGE('',*,*,#256,.T.);
#1387 = ADVANCED_FACE('',(#1388),#882,.T.);
#1388 = FACE_BOUND('',#1389,.T.);
#1389 = EDGE_LOOP('',(#1390));
#1390 = ORIENTED_EDGE('',*,*,#867,.T.);
#1391 = ADVANCED_FACE('',(#1392),#938,.T.);
#1392 = FACE_BOUND('',#1393,.T.);
#1393 = EDGE_LOOP('',(#1394));
#1394 = ORIENTED_EDGE('',*,*,#923,.T.);
#1395 = ADVANCED_FACE('',(#1396),#1370,.F.);
#1396 = FACE_BOUND('',#1397,.T.);
#1397 = EDGE_LOOP('',(#1398));
#1398 = ORIENTED_EDGE('',*,*,#1355,.F.);
#1399 = ( GEOMETRIC_REPRESENTATION_CONTEXT(3) 
GLOBAL_UNCERTAINTY_ASSIGNED_CONTEXT((#1403)) 
GLOBAL_UNIT_ASSIGNED_CONTEXT((#1400,#1401,#1402)) REPRESENTATION_CONTEXT
('Context #1','3D Context with UNIT and UNCERTAINTY') );
#1400 = ( LENGTH_UNIT() NAMED_UNIT(*) SI_UNIT(.MILLI.,.METRE.) );
#1401 = ( NAMED_UNIT(*) PLANE_ANGLE_UNIT() SI_UNIT($,.RADIAN.) );
#1402 = ( NAMED_UNIT(*) SI_UNIT($,.STERADIAN.) SOLID_ANGLE_UNIT() );
#1403 = UNCERTAINTY_MEASURE_WITH_UNIT(LENGTH_MEASURE(2.E-07),#1400,
  'distance_accuracy_value','confusion accuracy');
#1404 = PRODUCT_RELATED_PRODUCT_CATEGORY('part',$,(#7));
ENDSEC;
END-ISO-10303-21;
