<?xml version="1.0" encoding="UTF-8" standalone="no"?>
<svg
   xmlns:svg="http://www.w3.org/2000/svg"
   xmlns="http://www.w3.org/2000/svg"
   width="900.0"
   height="420.0"

>
    <g transform="scale(1259.9989920008065, -1259.9989920008065)   translate(0.06587312857142863,-0.1658731285714286)" stroke-width="0.4"  fill="none">
       <!-- hidden lines -->
       <g  stroke="rgb(190,190,190)" fill="none" stroke-dasharray="0.4,0.4" >
			<path d="M0.05,-0.09999999999999998 L0.048746395609091185,-0.09999999999999998 L0.04504844339512096,-0.09999999999999998 L0.0390915741234015,-0.09999999999999998 L0.031174490092936685,-0.09999999999999998 L0.021694186955877916,-0.09999999999999998 L0.01112604669781573,-0.09999999999999998 L9.184850993605149e-18,-0.09999999999999998 L-0.011126046697815712,-0.09999999999999998 L-0.0216941869558779,-0.09999999999999998 L-0.03117449009293667,-0.09999999999999998 L-0.03909157412340149,-0.09999999999999998 L-0.04504844339512096,-0.09999999999999998 L-0.04874639560909118,-0.09999999999999998 L-0.049999999999999954,-0.09999999999999998 " />
			<path d="M0.05,0.15000000000000002 L0.048746395609091185,0.15000000000000002 L0.04504844339512096,0.15000000000000002 L0.0390915741234015,0.15000000000000002 L0.031174490092936685,0.15000000000000002 L0.021694186955877916,0.15000000000000002 L0.01112604669781573,0.15000000000000002 L9.184850993605149e-18,0.15000000000000002 L-0.011126046697815712,0.15000000000000002 L-0.0216941869558779,0.15000000000000002 L-0.03117449009293667,0.15000000000000002 L-0.03909157412340149,0.15000000000000002 L-0.04504844339512096,0.15000000000000002 L-0.04874639560909118,0.15000000000000002 L-0.049999999999999954,0.15000000000000002 " />
			<path d="M-0.008000000000000007,-1.734723475976807e-18 L-0.006129021050481646,0.005141481581657284 L-0.001448934672720711,0.007867692776651024 L0.00388255745059382,0.006994693301691713 L0.0074601319280680305,0.0028890254296672453 L0.007568422397412263,-0.002592110576559845 L0.004138591676029571,-0.006846316977535965 L-0.0011675234627012317,-0.007914346771509546 L-0.005956621479361289,-0.005340283722038596 " />
			<path d="M-0.007107654941799562,-0.003671682796535265 L-0.007124460415287524,-0.0036389667537817952 " />
			<path d="M-0.007124720247394261,-0.003638458007149582 L-0.007237861734152121,-0.0034078415904607116 " />
			<path d="M-0.007325667421526586,-0.003214751935588966 L-0.007916028851704634,-0.001156052759733987 " />
			<path d="M-0.008,-1.959434878635765e-18 L-0.00600677181917458,0.005283814166078046 L-0.0009918339517893345,0.00793827850416154 " />
			<path d="M-0.0009887614298396683,0.007938661791230955 L-0.0006414682987628114,0.00797424095629886 " />
			<path d="M-0.0005909784588666405,0.00797814169234557 L-0.0002899575228515064,0.00799474357172002 " />
			<path d="M-0.00028921819804783946,0.00799477035164041 L0.005142300877493173,0.006128355544951099 " />
			<path d="M0.005142300877491487,0.006128355544952519 L0.007974521669707071,0.0006379687512230803 L0.006127451279711144,-0.005143378342511426 L0.0007547334124174006,-0.007964319010186457 L-0.0051423008774931205,-0.006128355544951177 " />
			<path d="M-0.005905393292064457,-0.005396881509606375 L-0.006953368894629891,-0.003956091632828228 " />
			<path d="M-0.007839826108555216,-0.0015928360397367354 L-0.007998399557985906,-0.00016001223725961447 " />
			<path d="M-0.005142300877491416,-0.006128355544952578 L-0.008000000000000002,-1.713039432527097e-17 " />
			<path d="M0.0051423008774914795,0.006128355544952524 L0.007974521669707484,0.000637968751218073 L0.006127451279703369,-0.005143378342520687 L0.0007547334124015344,-0.007964319010187987 L-0.005142300877493107,-0.006128355544951164 " />
			<path d="M-0.008,-1.959434878635765e-18 L-0.007943437265803332,0.000949633978562194 " />
			<path d="M-0.00794334584848607,0.0009503983484722233 L-0.006383845889779444,0.004821463135093575 L-0.003084169106690955,0.007381592030487946 " />
			<path d="M-0.002871296728256648,0.007466970954873752 L-0.002840805213828969,0.007478624599349929 " />
			<path d="M-0.002840431306301362,0.0074787666199257604 L-0.0009117504435200759,0.007947874646923203 " />
			<path d="M-0.0008939359455076662,0.00794989803804198 L6.575445025545695e-05,0.007999729739586849 " />
			<path d="M0.000983613053857701,0.007939301325662684 L0.001027052842671543,0.007933798757152173 " />
			<path d="M0.0010277986152394231,0.007933702179221166 L0.005142300877493173,0.006128355544951098 " />
			<path d="M0.0051423008774923165,0.006128355544951826 L0.008233592705479962,0.009812413686713227 L0.011241817132453813,0.013397475954888972 L0.01413662466290766,0.016847373229176118 L0.016888810046279377,0.020127300047294634 L0.01947060692405665,0.023204165751734212 L0.021855967960130673,0.02604692833610968 L0.024020827628207654,0.02862690762300273 L0.025943345005057676,0.030918074613688538 L0.027604124120098845,0.032897314090544284 L0.028986409638244854,0.03454465782278574 L0.03007625590180305,0.035843486022756596 L0.030862667625986245,0.036780695020310124 L0.031337710828583845,0.037346829463643275 L0.03149659287464039,0.03753617771282989 " />
			<path d="M-0.005142300877492306,-0.006128355544951815 L-0.008233592705479952,-0.009812413686713213 L-0.011241817132453804,-0.013397475954888962 L-0.014136624662907651,-0.016847373229176107 L-0.01688881004627937,-0.020127300047294627 L-0.019470606924056638,-0.023204165751734198 L-0.02185596796013067,-0.026046928336109672 L-0.024020827628207654,-0.02862690762300273 L-0.02594334500505768,-0.030918074613688545 L-0.027604124120098848,-0.03289731409054429 L-0.028986409638244854,-0.03454465782278574 L-0.03007625590180305,-0.035843486022756596 L-0.03086266762598625,-0.03678069502031013 L-0.031337710828583845,-0.037346829463643275 L-0.03149659287464039,-0.03753617771282989 " />
			<path d="M-0.031496592874640406,-0.0375361777128299 L-0.03133771082858385,-0.03734682946364328 L-0.030862667625986256,-0.036780695020310145 L-0.030076255901803066,-0.03584348602275662 L-0.028986409638244885,-0.034544657822785776 L-0.02760412412009888,-0.032897314090544326 L-0.02594334500505772,-0.03091807461368859 L-0.0240208276282077,-0.028626907623002785 L-0.021855967960130725,-0.02604692833610974 L-0.019470606924056704,-0.023204165751734278 L-0.01688881004627944,-0.020127300047294707 L-0.014136624662907722,-0.01684737322917619 L-0.01124181713245388,-0.013397475954889052 L-0.008233592705480032,-0.009812413686713308 L-0.005142300877492576,-0.006128355544952136 " />
			<path d="M0.031496592874640406,0.0375361777128299 L0.03133771082858385,0.03734682946364328 L0.030862667625986256,0.036780695020310145 L0.030076255901803062,0.03584348602275661 L0.02898640963824487,0.03454465782278576 L0.027604124120098862,0.032897314090544305 L0.0259433450050577,0.03091807461368857 L0.024020827628207682,0.028626907623002764 L0.0218559679601307,0.02604692833610971 L0.019470606924056676,0.023204165751734247 L0.016888810046279408,0.020127300047294672 L0.014136624662907693,0.016847373229176156 L0.011241817132453851,0.013397475954889018 L0.00823359270548,0.009812413686713272 L0.00514230087749245,0.006128355544951986 " />
			<path d="M0.03149659287464311,0.0375361777128313 L0.01034710654522436,0.023959455331332632 L-0.007660444431189795,0.006427876096865404 " />
			<path d="M0.007660444431189781,-0.0064278760968654175 L0.021798701172542206,0.014350426503158334 L0.03149659287464124,0.03753617771283257 " />
			<path d="M-0.007660444431189795,0.006427876096865404 L-0.021798701172541554,-0.01435042650315712 L-0.03149659287464043,-0.0375361777128299 " />
			<path d="M-0.03149659287464044,-0.03753617771282994 L-0.010347106545223195,-0.023959455331331717 L0.007660444431189781,-0.0064278760968654175 " />

       </g>

       <!-- solid lines -->
       <g  stroke="rgb(20,20,20)" fill="none">
			<path d="M-0.05,-0.09999999999999998 L-0.048746395609091185,-0.09999999999999998 L-0.04504844339512096,-0.09999999999999998 L-0.039091574123401494,-0.09999999999999998 L-0.031174490092936682,-0.09999999999999998 L-0.02169418695587791,-0.09999999999999998 L-0.011126046697815722,-0.09999999999999998 L-3.061616997868383e-18,-0.09999999999999998 L0.011126046697815717,-0.09999999999999998 L0.021694186955877905,-0.09999999999999998 L0.031174490092936675,-0.09999999999999998 L0.039091574123401494,-0.09999999999999998 L0.04504844339512096,-0.09999999999999998 L0.048746395609091185,-0.09999999999999998 L0.049999999999999975,-0.09999999999999998 " />
			<path d="M-0.05,-0.09999999999999998 L-0.05,0.15000000000000002 " />
			<path d="M-0.05,0.15000000000000002 L-0.048746395609091185,0.15000000000000002 L-0.04504844339512096,0.15000000000000002 L-0.039091574123401494,0.15000000000000002 L-0.031174490092936682,0.15000000000000002 L-0.02169418695587791,0.15000000000000002 L-0.011126046697815722,0.15000000000000002 L-3.061616997868383e-18,0.15000000000000002 L0.011126046697815717,0.15000000000000002 L0.021694186955877905,0.15000000000000002 L0.031174490092936675,0.15000000000000002 L0.039091574123401494,0.15000000000000002 L0.04504844339512096,0.15000000000000002 L0.048746395609091185,0.15000000000000002 L0.049999999999999975,0.15000000000000002 " />
			<path d="M-0.008000000000000007,-1.734723475976807e-18 L-0.0056366713618096085,0.005676948439599629 L-1.681149014656682e-05,0.00799998237885273 L0.005621151450520641,0.005692333372186423 L0.00799993136512722,3.313667518956877e-05 L0.0056483424970985106,-0.005665335816555258 L1.685395682953384e-05,-0.007999982289504342 L-0.005632790588549668,-0.0056808161184881845 L-0.008000000000000007,-1.1535911115245767e-16 " />
			<path d="M-0.005956621479361327,-0.0053402837220385534 L-0.007107654941799536,-0.003671682796535315 " />
			<path d="M-0.007124460415287549,-0.003638966753781745 L-0.007124720247394236,-0.0036384580071496314 " />
			<path d="M-0.007237861734152146,-0.0034078415904606604 L-0.007325667421526563,-0.003214751935589017 " />
			<path d="M-0.007916028851704641,-0.001156052759733932 L-0.008000000000000007,-1.1535911115245767e-16 " />
			<path d="M-0.0009918339517893137,0.007938278504161542 L-0.000988761429839689,0.007938661791230952 " />
			<path d="M-0.0006414682987627907,0.007974240956298864 L-0.0005909784588666615,0.007978141692345569 " />
			<path d="M-0.00028995752285148474,0.007994743571720022 L-0.0002892181980478606,0.007994770351640406 " />
			<path d="M-0.005142300877491411,-0.0061283555449525825 L-0.005905393292064456,-0.005396881509606377 " />
			<path d="M-0.0069533688946298924,-0.003956091632828225 L-0.007839826108555215,-0.001592836039736742 " />
			<path d="M-0.007998399557985904,-0.00016001223725960667 L-0.008,-1.713039432527097e-17 " />
			<path d="M-0.007943437265803332,0.0009496339785621952 L-0.00794334584848607,0.0009503983484722221 " />
			<path d="M-0.0030841691066909364,0.007381592030487954 L-0.0028712967282566674,0.007466970954873743 " />
			<path d="M-0.0028408052138289494,0.007478624599349937 L-0.0028404313063013806,0.0074787666199257535 " />
			<path d="M-0.0009117504435200556,0.007947874646923205 L-0.0008939359455076867,0.007949898038041978 " />
			<path d="M6.575445025547809e-05,0.007999729739586847 L0.0009836130538576806,0.007939301325662685 " />
			<path d="M0.0010270528426715633,0.00793379875715217 L0.0010277986152394027,0.007933702179221168 " />
			<path d="M0.05,-0.09999999999999998 L0.05,0.15000000000000002 " />

       </g>
    </g>
    
</svg>
