ISO-10303-21;
HEADER;
FILE_DESCRIPTION(('Open CASCADE Model'),'2;1');
FILE_NAME('Open CASCADE Shape Model','2026-08-18T19:31:34',('Author'),(
    'Open CASCADE'),'Open CASCADE STEP processor 7.9','Open CASCADE 7.9'
  ,'Unknown');
FILE_SCHEMA(('AUTOMOTIVE_DESIGN { 1 0 10303 214 1 1 1 1 }'));
ENDSEC;
DATA;
#1 = APPLICATION_PROTOCOL_DEFINITION('international standard',
  'automotive_design',2000,#2);
#2 = APPLICATION_CONTEXT(
  'core data for automotive mechanical design processes');
#3 = SHAPE_DEFINITION_REPRESENTATION(#4,#10);
#4 = PRODUCT_DEFINITION_SHAPE('','',#5);
#5 = PRODUCT_DEFINITION('design','',#6,#9);
#6 = PRODUCT_DEFINITION_FORMATION('','',#7);
#7 = PRODUCT('Fluido_80graus','Fluido_80graus','',(#8));
#8 = PRODUCT_CONTEXT('',#2,'mechanical');
#9 = PRODUCT_DEFINITION_CONTEXT('part definition',#2,'design');
#10 = SHAPE_REPRESENTATION('',(#11,#15),#19);
#11 = AXIS2_PLACEMENT_3D('',#12,#13,#14);
#12 = CARTESIAN_POINT('',(0.,0.,0.));
#13 = DIRECTION('',(0.,0.,1.));
#14 = DIRECTION('',(1.,0.,-0.));
#15 = AXIS2_PLACEMENT_3D('',#16,#17,#18);
#16 = CARTESIAN_POINT('',(0.,0.,0.));
#17 = DIRECTION('',(0.,0.,1.));
#18 = DIRECTION('',(1.,0.,-0.));
#19 = ( GEOMETRIC_REPRESENTATION_CONTEXT(3) 
GLOBAL_UNCERTAINTY_ASSIGNED_CONTEXT((#23)) GLOBAL_UNIT_ASSIGNED_CONTEXT(
(#20,#21,#22)) REPRESENTATION_CONTEXT('Context #1',
  '3D Context with UNIT and UNCERTAINTY') );
#20 = ( LENGTH_UNIT() NAMED_UNIT(*) SI_UNIT($,.METRE.) );
#21 = ( NAMED_UNIT(*) PLANE_ANGLE_UNIT() SI_UNIT($,.RADIAN.) );
#22 = ( NAMED_UNIT(*) SI_UNIT($,.STERADIAN.) SOLID_ANGLE_UNIT() );
#23 = UNCERTAINTY_MEASURE_WITH_UNIT(LENGTH_MEASURE(1.E-07),#20,
  'distance_accuracy_value','confusion accuracy');
#24 = PRODUCT_RELATED_PRODUCT_CATEGORY('part',$,(#7));
#25 = SHAPE_DEFINITION_REPRESENTATION(#26,#32);
#26 = PRODUCT_DEFINITION_SHAPE('','',#27);
#27 = PRODUCT_DEFINITION('design','',#28,#31);
#28 = PRODUCT_DEFINITION_FORMATION('','',#29);
#29 = PRODUCT('Fluido','Fluido','',(#30));
#30 = PRODUCT_CONTEXT('',#2,'mechanical');
#31 = PRODUCT_DEFINITION_CONTEXT('part definition',#2,'design');
#32 = ADVANCED_BREP_SHAPE_REPRESENTATION('',(#11,#33),#1214);
#33 = MANIFOLD_SOLID_BREP('',#34);
#34 = CLOSED_SHELL('',(#35,#429,#433,#437,#764,#1081,#1181));
#35 = ADVANCED_FACE('',(#36,#123,#276),#50,.T.);
#36 = FACE_BOUND('',#37,.T.);
#37 = EDGE_LOOP('',(#38,#68,#95,#96));
#38 = ORIENTED_EDGE('',*,*,#39,.T.);
#39 = EDGE_CURVE('',#40,#42,#44,.T.);
#40 = VERTEX_POINT('',#41);
#41 = CARTESIAN_POINT('',(-0.5,1.224646799147E-17,5.E-02));
#42 = VERTEX_POINT('',#43);
#43 = CARTESIAN_POINT('',(1.,1.224646799147E-17,5.E-02));
#44 = SEAM_CURVE('',#45,(#49,#61),.PCURVE_S1.);
#45 = LINE('',#46,#47);
#46 = CARTESIAN_POINT('',(-0.5,1.224646799147E-17,5.E-02));
#47 = VECTOR('',#48,1.);
#48 = DIRECTION('',(1.,0.,0.));
#49 = PCURVE('',#50,#55);
#50 = CYLINDRICAL_SURFACE('',#51,5.E-02);
#51 = AXIS2_PLACEMENT_3D('',#52,#53,#54);
#52 = CARTESIAN_POINT('',(-0.5,0.,0.));
#53 = DIRECTION('',(1.,0.,0.));
#54 = DIRECTION('',(-0.,0.,1.));
#55 = DEFINITIONAL_REPRESENTATION('',(#56),#60);
#56 = LINE('',#57,#58);
#57 = CARTESIAN_POINT('',(6.28318530718,-0.));
#58 = VECTOR('',#59,1.);
#59 = DIRECTION('',(0.,1.));
#60 = ( GEOMETRIC_REPRESENTATION_CONTEXT(2) 
PARAMETRIC_REPRESENTATION_CONTEXT() REPRESENTATION_CONTEXT('2D SPACE',''
  ) );
#61 = PCURVE('',#50,#62);
#62 = DEFINITIONAL_REPRESENTATION('',(#63),#67);
#63 = LINE('',#64,#65);
#64 = CARTESIAN_POINT('',(0.,-0.));
#65 = VECTOR('',#66,1.);
#66 = DIRECTION('',(0.,1.));
#67 = ( GEOMETRIC_REPRESENTATION_CONTEXT(2) 
PARAMETRIC_REPRESENTATION_CONTEXT() REPRESENTATION_CONTEXT('2D SPACE',''
  ) );
#68 = ORIENTED_EDGE('',*,*,#69,.F.);
#69 = EDGE_CURVE('',#42,#42,#70,.T.);
#70 = SURFACE_CURVE('',#71,(#76,#83),.PCURVE_S1.);
#71 = CIRCLE('',#72,5.E-02);
#72 = AXIS2_PLACEMENT_3D('',#73,#74,#75);
#73 = CARTESIAN_POINT('',(1.,0.,0.));
#74 = DIRECTION('',(1.,0.,0.));
#75 = DIRECTION('',(-0.,0.,1.));
#76 = PCURVE('',#50,#77);
#77 = DEFINITIONAL_REPRESENTATION('',(#78),#82);
#78 = LINE('',#79,#80);
#79 = CARTESIAN_POINT('',(0.,1.5));
#80 = VECTOR('',#81,1.);
#81 = DIRECTION('',(1.,0.));
#82 = ( GEOMETRIC_REPRESENTATION_CONTEXT(2) 
PARAMETRIC_REPRESENTATION_CONTEXT() REPRESENTATION_CONTEXT('2D SPACE',''
  ) );
#83 = PCURVE('',#84,#89);
#84 = PLANE('',#85);
#85 = AXIS2_PLACEMENT_3D('',#86,#87,#88);
#86 = CARTESIAN_POINT('',(1.,0.,0.));
#87 = DIRECTION('',(1.,0.,0.));
#88 = DIRECTION('',(-0.,0.,1.));
#89 = DEFINITIONAL_REPRESENTATION('',(#90),#94);
#90 = CIRCLE('',#91,5.E-02);
#91 = AXIS2_PLACEMENT_2D('',#92,#93);
#92 = CARTESIAN_POINT('',(0.,0.));
#93 = DIRECTION('',(1.,0.));
#94 = ( GEOMETRIC_REPRESENTATION_CONTEXT(2) 
PARAMETRIC_REPRESENTATION_CONTEXT() REPRESENTATION_CONTEXT('2D SPACE',''
  ) );
#95 = ORIENTED_EDGE('',*,*,#39,.F.);
#96 = ORIENTED_EDGE('',*,*,#97,.T.);
#97 = EDGE_CURVE('',#40,#40,#98,.T.);
#98 = SURFACE_CURVE('',#99,(#104,#111),.PCURVE_S1.);
#99 = CIRCLE('',#100,5.E-02);
#100 = AXIS2_PLACEMENT_3D('',#101,#102,#103);
#101 = CARTESIAN_POINT('',(-0.5,0.,0.));
#102 = DIRECTION('',(1.,0.,0.));
#103 = DIRECTION('',(-0.,0.,1.));
#104 = PCURVE('',#50,#105);
#105 = DEFINITIONAL_REPRESENTATION('',(#106),#110);
#106 = LINE('',#107,#108);
#107 = CARTESIAN_POINT('',(0.,0.));
#108 = VECTOR('',#109,1.);
#109 = DIRECTION('',(1.,0.));
#110 = ( GEOMETRIC_REPRESENTATION_CONTEXT(2) 
PARAMETRIC_REPRESENTATION_CONTEXT() REPRESENTATION_CONTEXT('2D SPACE',''
  ) );
#111 = PCURVE('',#112,#117);
#112 = PLANE('',#113);
#113 = AXIS2_PLACEMENT_3D('',#114,#115,#116);
#114 = CARTESIAN_POINT('',(-0.5,0.,0.));
#115 = DIRECTION('',(1.,0.,0.));
#116 = DIRECTION('',(-0.,0.,1.));
#117 = DEFINITIONAL_REPRESENTATION('',(#118),#122);
#118 = CIRCLE('',#119,5.E-02);
#119 = AXIS2_PLACEMENT_2D('',#120,#121);
#120 = CARTESIAN_POINT('',(0.,0.));
#121 = DIRECTION('',(1.,0.));
#122 = ( GEOMETRIC_REPRESENTATION_CONTEXT(2) 
PARAMETRIC_REPRESENTATION_CONTEXT() REPRESENTATION_CONTEXT('2D SPACE',''
  ) );
#123 = FACE_BOUND('',#124,.T.);
#124 = EDGE_LOOP('',(#125));
#125 = ORIENTED_EDGE('',*,*,#126,.T.);
#126 = EDGE_CURVE('',#127,#127,#129,.T.);
#127 = VERTEX_POINT('',#128);
#128 = CARTESIAN_POINT('',(-1.959434878636E-18,-4.935585071701E-02,
    8.E-03));
#129 = SURFACE_CURVE('',#130,(#175,#223),.PCURVE_S1.);
#130 = B_SPLINE_CURVE_WITH_KNOTS('',8,(#131,#132,#133,#134,#135,#136,
    #137,#138,#139,#140,#141,#142,#143,#144,#145,#146,#147,#148,#149,
    #150,#151,#152,#153,#154,#155,#156,#157,#158,#159,#160,#161,#162,
    #163,#164,#165,#166,#167,#168,#169,#170,#171,#172,#173,#174),
  .UNSPECIFIED.,.T.,.F.,(9,7,7,7,7,7,9),(0.,0.139446999999,
    0.290711047851,0.500652341094,0.639735947188,0.790605806321,1.),
  .UNSPECIFIED.);
#131 = CARTESIAN_POINT('',(-1.734723475977E-18,-4.935585071701E-02,
    8.E-03));
#132 = CARTESIAN_POINT('',(8.83192481735E-04,-4.935585071701E-02,8.E-03)
  );
#133 = CARTESIAN_POINT('',(1.764819183317E-03,-4.937383209112E-02,
    7.888541975783E-03));
#134 = CARTESIAN_POINT('',(2.629239797021E-03,-4.940994971838E-02,
    7.666373094318E-03));
#135 = CARTESIAN_POINT('',(3.460586417668E-03,-4.94620293382E-02,
    7.336583290209E-03));
#136 = CARTESIAN_POINT('',(4.243374203103E-03,-4.952618040107E-02,
    6.904862078398E-03));
#137 = CARTESIAN_POINT('',(4.963112034685E-03,-4.959740891922E-02,
    6.379755366867E-03));
#138 = CARTESIAN_POINT('',(5.606913177773E-03,-4.967023031737E-02,
    5.772922269341E-03));
#139 = CARTESIAN_POINT('',(6.768516456475E-03,-4.981418586606E-02,
    4.368785111835E-03));
#140 = CARTESIAN_POINT('',(7.271613076615E-03,-4.988480284108E-02,
    3.559089185093E-03));
#141 = CARTESIAN_POINT('',(7.660870364966E-03,-4.994464210693E-02,
    2.688605692072E-03));
#142 = CARTESIAN_POINT('',(7.93377292135E-03,-4.998893640042E-02,
    1.769246455985E-03));
#143 = CARTESIAN_POINT('',(8.076681013922E-03,-5.001272522343E-02,
    8.228671232586E-04));
#144 = CARTESIAN_POINT('',(8.095963897651E-03,-5.001548411034E-02,
    -1.315654550236E-04));
#145 = CARTESIAN_POINT('',(7.981904161422E-03,-4.999657690544E-02,
    -1.081113665575E-03));
#146 = CARTESIAN_POINT('',(7.424950095632E-03,-4.991019548285E-02,
    -3.250306533836E-03));
#147 = CARTESIAN_POINT('',(6.861907959805E-03,-4.98252274177E-02,
    -4.469503626413E-03));
#148 = CARTESIAN_POINT('',(6.06597478154E-03,-4.971244248905E-02,
    -5.574176043587E-03));
#149 = CARTESIAN_POINT('',(5.070869579044E-03,-4.958954915689E-02,
    -6.511983258196E-03));
#150 = CARTESIAN_POINT('',(3.919113723493E-03,-4.947825380243E-02,
    -7.2447906268E-03));
#151 = CARTESIAN_POINT('',(2.656669854292E-03,-4.939701071676E-02,
    -7.746076325063E-03));
#152 = CARTESIAN_POINT('',(1.333144696235E-03,-4.935585071701E-02,
    -8.E-03));
#153 = CARTESIAN_POINT('',(-8.831924817348E-04,-4.935585071701E-02,
    -8.E-03));
#154 = CARTESIAN_POINT('',(-1.764819183316E-03,-4.937383209112E-02,
    -7.888541975783E-03));
#155 = CARTESIAN_POINT('',(-2.629239797021E-03,-4.940994971838E-02,
    -7.666373094318E-03));
#156 = CARTESIAN_POINT('',(-3.460586417668E-03,-4.94620293382E-02,
    -7.336583290209E-03));
#157 = CARTESIAN_POINT('',(-4.243374203103E-03,-4.952618040107E-02,
    -6.904862078398E-03));
#158 = CARTESIAN_POINT('',(-4.963112034685E-03,-4.959740891922E-02,
    -6.379755366867E-03));
#159 = CARTESIAN_POINT('',(-5.606913177772E-03,-4.967023031737E-02,
    -5.772922269341E-03));
#160 = CARTESIAN_POINT('',(-6.768516456433E-03,-4.981418586606E-02,
    -4.368785111885E-03));
#161 = CARTESIAN_POINT('',(-7.271613076774E-03,-4.98848028411E-02,
    -3.559089184916E-03));
#162 = CARTESIAN_POINT('',(-7.660870364804E-03,-4.994464210691E-02,
    -2.688605692144E-03));
#163 = CARTESIAN_POINT('',(-7.9337729214E-03,-4.998893640042E-02,
    -1.769246456082E-03));
#164 = CARTESIAN_POINT('',(-8.076681013993E-03,-5.001272522344E-02,
    -8.228671231914E-04));
#165 = CARTESIAN_POINT('',(-8.095963897554E-03,-5.001548411032E-02,
    1.315654552078E-04));
#166 = CARTESIAN_POINT('',(-7.981904161473E-03,-4.999657690544E-02,
    1.081113665375E-03));
#167 = CARTESIAN_POINT('',(-7.42495009561E-03,-4.991019548285E-02,
    3.250306533918E-03));
#168 = CARTESIAN_POINT('',(-6.861907959875E-03,-4.982522741771E-02,
    4.469503626192E-03));
#169 = CARTESIAN_POINT('',(-6.065974781516E-03,-4.971244248904E-02,
    5.574176043768E-03));
#170 = CARTESIAN_POINT('',(-5.070869578933E-03,-4.958954915688E-02,
    6.511983258271E-03));
#171 = CARTESIAN_POINT('',(-3.919113723524E-03,-4.947825380244E-02,
    7.244790626625E-03));
#172 = CARTESIAN_POINT('',(-2.656669854468E-03,-4.939701071676E-02,
    7.74607632513E-03));
#173 = CARTESIAN_POINT('',(-1.333144696094E-03,-4.935585071701E-02,
    8.E-03));
#174 = CARTESIAN_POINT('',(-1.734723475977E-18,-4.935585071701E-02,
    8.E-03));
#175 = PCURVE('',#50,#176);
#176 = DEFINITIONAL_REPRESENTATION('',(#177),#222);
#177 = B_SPLINE_CURVE_WITH_KNOTS('',8,(#178,#179,#180,#181,#182,#183,
    #184,#185,#186,#187,#188,#189,#190,#191,#192,#193,#194,#195,#196,
    #197,#198,#199,#200,#201,#202,#203,#204,#205,#206,#207,#208,#209,
    #210,#211,#212,#213,#214,#215,#216,#217,#218,#219,#220,#221),
  .UNSPECIFIED.,.F.,.F.,(9,7,7,7,7,7,9),(0.,0.139446999999,
    0.290711047851,0.500652341094,0.639735947188,0.790605806321,1.),
  .UNSPECIFIED.);
#178 = CARTESIAN_POINT('',(1.410105673843,0.5));
#179 = CARTESIAN_POINT('',(1.410105673843,0.500883192482));
#180 = CARTESIAN_POINT('',(1.412363676587,0.501764819183));
#181 = CARTESIAN_POINT('',(1.416865462299,0.502629239797));
#182 = CARTESIAN_POINT('',(1.423542761836,0.503460586418));
#183 = CARTESIAN_POINT('',(1.432271129247,0.504243374203));
#184 = CARTESIAN_POINT('',(1.442867814339,0.504963112035));
#185 = CARTESIAN_POINT('',(1.455089635241,0.505606913178));
#186 = CARTESIAN_POINT('',(1.483319579322,0.506768516456));
#187 = CARTESIAN_POINT('',(1.499573074603,0.507271613077));
#188 = CARTESIAN_POINT('',(1.517018996573,0.507660870365));
#189 = CARTESIAN_POINT('',(1.535419011809,0.507933772921));
#190 = CARTESIAN_POINT('',(1.554343108211,0.508076681014));
#191 = CARTESIAN_POINT('',(1.573423762992,0.508095963898));
#192 = CARTESIAN_POINT('',(1.592414707791,0.507981904161));
#193 = CARTESIAN_POINT('',(1.63583295027,0.507424950096));
#194 = CARTESIAN_POINT('',(1.660265283411,0.50686190796));
#195 = CARTESIAN_POINT('',(1.682455070536,0.506065974782));
#196 = CARTESIAN_POINT('',(1.701362071631,0.505070869579));
#197 = CARTESIAN_POINT('',(1.716185655021,0.503919113723));
#198 = CARTESIAN_POINT('',(1.72634224735,0.502656669854));
#199 = CARTESIAN_POINT('',(1.731486979747,0.501333144696));
#200 = CARTESIAN_POINT('',(1.731486979747,0.499116807518));
#201 = CARTESIAN_POINT('',(1.729228977003,0.498235180817));
#202 = CARTESIAN_POINT('',(1.724727191291,0.497370760203));
#203 = CARTESIAN_POINT('',(1.718049891754,0.496539413582));
#204 = CARTESIAN_POINT('',(1.709321524343,0.495756625797));
#205 = CARTESIAN_POINT('',(1.69872483925,0.495036887965));
#206 = CARTESIAN_POINT('',(1.686503018349,0.494393086822));
#207 = CARTESIAN_POINT('',(1.658273074268,0.493231483544));
#208 = CARTESIAN_POINT('',(1.642019578983,0.492728386923));
#209 = CARTESIAN_POINT('',(1.624573657018,0.492339129635));
#210 = CARTESIAN_POINT('',(1.606173641783,0.492066227079));
#211 = CARTESIAN_POINT('',(1.587249545378,0.491923318986));
#212 = CARTESIAN_POINT('',(1.568168890594,0.491904036102));
#213 = CARTESIAN_POINT('',(1.549177945803,0.492018095839));
#214 = CARTESIAN_POINT('',(1.505759703318,0.492575049904));
#215 = CARTESIAN_POINT('',(1.481327370183,0.49313809204));
#216 = CARTESIAN_POINT('',(1.45913758305,0.493934025218));
#217 = CARTESIAN_POINT('',(1.440230581957,0.494929130421));
#218 = CARTESIAN_POINT('',(1.425406998573,0.496080886276));
#219 = CARTESIAN_POINT('',(1.415250406239,0.497343330146));
#220 = CARTESIAN_POINT('',(1.410105673843,0.498666855304));
#221 = CARTESIAN_POINT('',(1.410105673843,0.5));
#222 = ( GEOMETRIC_REPRESENTATION_CONTEXT(2) 
PARAMETRIC_REPRESENTATION_CONTEXT() REPRESENTATION_CONTEXT('2D SPACE',''
  ) );
#223 = PCURVE('',#224,#229);
#224 = CYLINDRICAL_SURFACE('',#225,8.E-03);
#225 = AXIS2_PLACEMENT_3D('',#226,#227,#228);
#226 = CARTESIAN_POINT('',(0.,-7.5E-02,0.));
#227 = DIRECTION('',(0.,1.,0.));
#228 = DIRECTION('',(0.,-0.,1.));
#229 = DEFINITIONAL_REPRESENTATION('',(#230),#275);
#230 = B_SPLINE_CURVE_WITH_KNOTS('',8,(#231,#232,#233,#234,#235,#236,
    #237,#238,#239,#240,#241,#242,#243,#244,#245,#246,#247,#248,#249,
    #250,#251,#252,#253,#254,#255,#256,#257,#258,#259,#260,#261,#262,
    #263,#264,#265,#266,#267,#268,#269,#270,#271,#272,#273,#274),
  .UNSPECIFIED.,.F.,.F.,(9,7,7,7,7,7,9),(0.,0.139446999999,
    0.290711047851,0.500652341094,0.639735947188,0.790605806321,1.),
  .UNSPECIFIED.);
#231 = CARTESIAN_POINT('',(0.,2.564414928299E-02));
#232 = CARTESIAN_POINT('',(0.110399060217,2.564414928299E-02));
#233 = CARTESIAN_POINT('',(0.220615912632,2.562616790888E-02));
#234 = CARTESIAN_POINT('',(0.330705046937,2.559005028162E-02));
#235 = CARTESIAN_POINT('',(0.440728528652,2.55379706618E-02));
#236 = CARTESIAN_POINT('',(0.550719812496,2.547381959893E-02));
#237 = CARTESIAN_POINT('',(0.660647555773,2.540259108078E-02));
#238 = CARTESIAN_POINT('',(0.770379431744,2.532976968263E-02));
#239 = CARTESIAN_POINT('',(0.998171940612,2.518581413394E-02));
#240 = CARTESIAN_POINT('',(1.116235797034,2.511519715892E-02));
#241 = CARTESIAN_POINT('',(1.233671470228,2.505535789307E-02));
#242 = CARTESIAN_POINT('',(1.351353398392,2.501106359958E-02));
#243 = CARTESIAN_POINT('',(1.468926628757,2.498727477657E-02));
#244 = CARTESIAN_POINT('',(1.586387935408,2.498451588966E-02));
#245 = CARTESIAN_POINT('',(1.704889944892,2.500342309456E-02));
#246 = CARTESIAN_POINT('',(1.984834011044,2.508980451715E-02));
#247 = CARTESIAN_POINT('',(2.149941325192,2.51747725823E-02));
#248 = CARTESIAN_POINT('',(2.31503082148,2.528755751095E-02));
#249 = CARTESIAN_POINT('',(2.479920127968,2.541045084311E-02));
#250 = CARTESIAN_POINT('',(2.644685798861,2.552174619757E-02));
#251 = CARTESIAN_POINT('',(2.809497032289,2.560298928324E-02));
#252 = CARTESIAN_POINT('',(2.97494956656,2.564414928299E-02));
#253 = CARTESIAN_POINT('',(3.251991713807,2.564414928299E-02));
#254 = CARTESIAN_POINT('',(3.362208566222,2.562616790888E-02));
#255 = CARTESIAN_POINT('',(3.472297700527,2.559005028162E-02));
#256 = CARTESIAN_POINT('',(3.582321182241,2.55379706618E-02));
#257 = CARTESIAN_POINT('',(3.692312466086,2.547381959893E-02));
#258 = CARTESIAN_POINT('',(3.802240209363,2.540259108078E-02));
#259 = CARTESIAN_POINT('',(3.911972085333,2.532976968263E-02));
#260 = CARTESIAN_POINT('',(4.139764594194,2.518581413394E-02));
#261 = CARTESIAN_POINT('',(4.257828450653,2.51151971589E-02));
#262 = CARTESIAN_POINT('',(4.375264123799,2.505535789309E-02));
#263 = CARTESIAN_POINT('',(4.492946051979,2.501106359958E-02));
#264 = CARTESIAN_POINT('',(4.61051928235,2.498727477656E-02));
#265 = CARTESIAN_POINT('',(4.727980589023,2.498451588968E-02));
#266 = CARTESIAN_POINT('',(4.846482598456,2.500342309456E-02));
#267 = CARTESIAN_POINT('',(5.126426664644,2.508980451715E-02));
#268 = CARTESIAN_POINT('',(5.291533978755,2.517477258229E-02));
#269 = CARTESIAN_POINT('',(5.456623475086,2.528755751096E-02));
#270 = CARTESIAN_POINT('',(5.621512781579,2.541045084312E-02));
#271 = CARTESIAN_POINT('',(5.786278452434,2.552174619756E-02));
#272 = CARTESIAN_POINT('',(5.951089685862,2.560298928324E-02));
#273 = CARTESIAN_POINT('',(6.116542220168,2.564414928299E-02));
#274 = CARTESIAN_POINT('',(6.28318530718,2.564414928299E-02));
#275 = ( GEOMETRIC_REPRESENTATION_CONTEXT(2) 
PARAMETRIC_REPRESENTATION_CONTEXT() REPRESENTATION_CONTEXT('2D SPACE',''
  ) );
#276 = FACE_BOUND('',#277,.T.);
#277 = EDGE_LOOP('',(#278));
#278 = ORIENTED_EDGE('',*,*,#279,.F.);
#279 = EDGE_CURVE('',#280,#280,#282,.T.);
#280 = VERTEX_POINT('',#281);
#281 = CARTESIAN_POINT('',(-1.959434878636E-18,4.935585071701E-02,8.E-03
    ));
#282 = SURFACE_CURVE('',#283,(#328,#376),.PCURVE_S1.);
#283 = B_SPLINE_CURVE_WITH_KNOTS('',8,(#284,#285,#286,#287,#288,#289,
    #290,#291,#292,#293,#294,#295,#296,#297,#298,#299,#300,#301,#302,
    #303,#304,#305,#306,#307,#308,#309,#310,#311,#312,#313,#314,#315,
    #316,#317,#318,#319,#320,#321,#322,#323,#324,#325,#326,#327),
  .UNSPECIFIED.,.T.,.F.,(9,7,7,7,7,7,9),(0.,0.139447002607,
    0.290711053258,0.500652318662,0.639735931298,0.790605797263,1.),
  .UNSPECIFIED.);
#284 = CARTESIAN_POINT('',(-1.734723475977E-18,4.935585071701E-02,8.E-03
    ));
#285 = CARTESIAN_POINT('',(8.831924817347E-04,4.935585071701E-02,8.E-03)
  );
#286 = CARTESIAN_POINT('',(1.764819183317E-03,4.937383209112E-02,
    7.888541975783E-03));
#287 = CARTESIAN_POINT('',(2.629239797022E-03,4.940994971838E-02,
    7.666373094318E-03));
#288 = CARTESIAN_POINT('',(3.460586417668E-03,4.94620293382E-02,
    7.336583290209E-03));
#289 = CARTESIAN_POINT('',(4.243374203103E-03,4.952618040107E-02,
    6.904862078398E-03));
#290 = CARTESIAN_POINT('',(4.963112034685E-03,4.959740891922E-02,
    6.379755366867E-03));
#291 = CARTESIAN_POINT('',(5.606913177772E-03,4.967023031737E-02,
    5.772922269341E-03));
#292 = CARTESIAN_POINT('',(6.768516456353E-03,4.981418586605E-02,
    4.368785111982E-03));
#293 = CARTESIAN_POINT('',(7.271613076899E-03,4.988480284111E-02,
    3.559089184789E-03));
#294 = CARTESIAN_POINT('',(7.660870364658E-03,4.99446421069E-02,
    2.688605692313E-03));
#295 = CARTESIAN_POINT('',(7.93377292159E-03,4.998893640045E-02,
    1.769246455808E-03));
#296 = CARTESIAN_POINT('',(8.076681013762E-03,5.001272522341E-02,
    8.228671233616E-04));
#297 = CARTESIAN_POINT('',(8.095963897742E-03,5.001548411035E-02,
    -1.315654549355E-04));
#298 = CARTESIAN_POINT('',(7.981904161382E-03,4.999657690543E-02,
    -1.081113665732E-03));
#299 = CARTESIAN_POINT('',(7.424950144601E-03,4.991019549045E-02,
    -3.250306343114E-03));
#300 = CARTESIAN_POINT('',(6.86190765745E-03,4.98252273945E-02,
    -4.46950408166E-03));
#301 = CARTESIAN_POINT('',(6.06597528501E-03,4.9712442512E-02,
    -5.574175693076E-03));
#302 = CARTESIAN_POINT('',(5.070869442382E-03,4.958954916178E-02,
    -6.51198312808E-03));
#303 = CARTESIAN_POINT('',(3.919113225553E-03,4.947825377905E-02,
    -7.244790985305E-03));
#304 = CARTESIAN_POINT('',(2.656670454927E-03,4.939701072903E-02,
    -7.746076156603E-03));
#305 = CARTESIAN_POINT('',(1.333144456758E-03,4.935585071701E-02,-8.E-03
    ));
#306 = CARTESIAN_POINT('',(-8.831924817312E-04,4.935585071701E-02,
    -8.E-03));
#307 = CARTESIAN_POINT('',(-1.764819183314E-03,4.937383209112E-02,
    -7.888541975784E-03));
#308 = CARTESIAN_POINT('',(-2.629239797022E-03,4.940994971838E-02,
    -7.666373094319E-03));
#309 = CARTESIAN_POINT('',(-3.46058641767E-03,4.94620293382E-02,
    -7.336583290208E-03));
#310 = CARTESIAN_POINT('',(-4.243374203104E-03,4.952618040107E-02,
    -6.904862078396E-03));
#311 = CARTESIAN_POINT('',(-4.963112034685E-03,4.959740891922E-02,
    -6.379755366866E-03));
#312 = CARTESIAN_POINT('',(-5.606913177771E-03,4.967023031737E-02,
    -5.772922269343E-03));
#313 = CARTESIAN_POINT('',(-6.768516455383E-03,4.981418586593E-02,
    -4.368785113155E-03));
#314 = CARTESIAN_POINT('',(-7.271613078304E-03,4.988480284126E-02,
    -3.559089183912E-03));
#315 = CARTESIAN_POINT('',(-7.660870365352E-03,4.994464210709E-02,
    -2.688605689074E-03));
#316 = CARTESIAN_POINT('',(-7.933772918417E-03,4.998893639989E-02,
    -1.769246460123E-03));
#317 = CARTESIAN_POINT('',(-8.076681017034E-03,5.001272522394E-02,
    -8.228671247465E-04));
#318 = CARTESIAN_POINT('',(-8.095963895873E-03,5.001548411005E-02,
    1.315654595157E-04));
#319 = CARTESIAN_POINT('',(-7.981904161959E-03,4.999657690552E-02,
    1.081113663484E-03));
#320 = CARTESIAN_POINT('',(-7.424950095595E-03,4.991019548285E-02,
    3.250306533978E-03));
#321 = CARTESIAN_POINT('',(-6.861907959868E-03,4.982522741771E-02,
    4.469503626122E-03));
#322 = CARTESIAN_POINT('',(-6.065974781581E-03,4.971244248905E-02,
    5.574176043743E-03));
#323 = CARTESIAN_POINT('',(-5.070869578927E-03,4.958954915688E-02,
    6.511983258312E-03));
#324 = CARTESIAN_POINT('',(-3.919113723449E-03,4.947825380243E-02,
    7.244790626647E-03));
#325 = CARTESIAN_POINT('',(-2.656669854474E-03,4.939701071676E-02,
    7.74607632511E-03));
#326 = CARTESIAN_POINT('',(-1.333144696134E-03,4.935585071701E-02,8.E-03
    ));
#327 = CARTESIAN_POINT('',(-1.734723475977E-18,4.935585071701E-02,8.E-03
    ));
#328 = PCURVE('',#50,#329);
#329 = DEFINITIONAL_REPRESENTATION('',(#330),#375);
#330 = B_SPLINE_CURVE_WITH_KNOTS('',8,(#331,#332,#333,#334,#335,#336,
    #337,#338,#339,#340,#341,#342,#343,#344,#345,#346,#347,#348,#349,
    #350,#351,#352,#353,#354,#355,#356,#357,#358,#359,#360,#361,#362,
    #363,#364,#365,#366,#367,#368,#369,#370,#371,#372,#373,#374),
  .UNSPECIFIED.,.T.,.F.,(9,7,7,7,7,7,9),(0.,0.139447002607,
    0.290711053258,0.500652318662,0.639735931298,0.790605797263,1.),
  .UNSPECIFIED.);
#331 = CARTESIAN_POINT('',(4.873079633337,0.5));
#332 = CARTESIAN_POINT('',(4.873079633337,0.500883192482));
#333 = CARTESIAN_POINT('',(4.870821630593,0.501764819183));
#334 = CARTESIAN_POINT('',(4.86631984488,0.502629239797));
#335 = CARTESIAN_POINT('',(4.859642545343,0.503460586418));
#336 = CARTESIAN_POINT('',(4.850914177932,0.504243374203));
#337 = CARTESIAN_POINT('',(4.84031749284,0.504963112035));
#338 = CARTESIAN_POINT('',(4.828095671938,0.505606913178));
#339 = CARTESIAN_POINT('',(4.79986572786,0.506768516456));
#340 = CARTESIAN_POINT('',(4.78361223257,0.507271613077));
#341 = CARTESIAN_POINT('',(4.766166310612,0.507660870365));
#342 = CARTESIAN_POINT('',(4.747766295367,0.507933772922));
#343 = CARTESIAN_POINT('',(4.728842198971,0.508076681014));
#344 = CARTESIAN_POINT('',(4.709761544189,0.508095963898));
#345 = CARTESIAN_POINT('',(4.690770599385,0.507981904161));
#346 = CARTESIAN_POINT('',(4.647352360727,0.507424950145));
#347 = CARTESIAN_POINT('',(4.622920014648,0.506861907657));
#348 = CARTESIAN_POINT('',(4.600730243674,0.506065975285));
#349 = CARTESIAN_POINT('',(4.581823238152,0.505070869442));
#350 = CARTESIAN_POINT('',(4.566999644968,0.503919113226));
#351 = CARTESIAN_POINT('',(4.556843063211,0.502656670455));
#352 = CARTESIAN_POINT('',(4.551698327433,0.501333144457));
#353 = CARTESIAN_POINT('',(4.551698327433,0.499116807518));
#354 = CARTESIAN_POINT('',(4.553956330177,0.498235180817));
#355 = CARTESIAN_POINT('',(4.558458115889,0.497370760203));
#356 = CARTESIAN_POINT('',(4.565135415426,0.496539413582));
#357 = CARTESIAN_POINT('',(4.573863782837,0.495756625797));
#358 = CARTESIAN_POINT('',(4.584460467929,0.495036887965));
#359 = CARTESIAN_POINT('',(4.596682288831,0.494393086822));
#360 = CARTESIAN_POINT('',(4.624912232886,0.493231483545));
#361 = CARTESIAN_POINT('',(4.641165728217,0.492728386922));
#362 = CARTESIAN_POINT('',(4.658611650222,0.492339129635));
#363 = CARTESIAN_POINT('',(4.677011665316,0.492066227082));
#364 = CARTESIAN_POINT('',(4.695935761771,0.491923318983));
#365 = CARTESIAN_POINT('',(4.715016416672,0.491904036104));
#366 = CARTESIAN_POINT('',(4.734007361339,0.492018095838));
#367 = CARTESIAN_POINT('',(4.777425603863,0.492575049904));
#368 = CARTESIAN_POINT('',(4.801857936995,0.49313809204));
#369 = CARTESIAN_POINT('',(4.824047724129,0.493934025218));
#370 = CARTESIAN_POINT('',(4.842954725223,0.494929130421));
#371 = CARTESIAN_POINT('',(4.857778308608,0.496080886277));
#372 = CARTESIAN_POINT('',(4.86793490094,0.497343330146));
#373 = CARTESIAN_POINT('',(4.873079633337,0.498666855304));
#374 = CARTESIAN_POINT('',(4.873079633337,0.5));
#375 = ( GEOMETRIC_REPRESENTATION_CONTEXT(2) 
PARAMETRIC_REPRESENTATION_CONTEXT() REPRESENTATION_CONTEXT('2D SPACE',''
  ) );
#376 = PCURVE('',#377,#382);
#377 = CYLINDRICAL_SURFACE('',#378,8.E-03);
#378 = AXIS2_PLACEMENT_3D('',#379,#380,#381);
#379 = CARTESIAN_POINT('',(0.,-7.5E-02,0.));
#380 = DIRECTION('',(0.,1.,0.));
#381 = DIRECTION('',(0.,-0.,1.));
#382 = DEFINITIONAL_REPRESENTATION('',(#383),#428);
#383 = B_SPLINE_CURVE_WITH_KNOTS('',8,(#384,#385,#386,#387,#388,#389,
    #390,#391,#392,#393,#394,#395,#396,#397,#398,#399,#400,#401,#402,
    #403,#404,#405,#406,#407,#408,#409,#410,#411,#412,#413,#414,#415,
    #416,#417,#418,#419,#420,#421,#422,#423,#424,#425,#426,#427),
  .UNSPECIFIED.,.F.,.F.,(9,7,7,7,7,7,9),(0.,0.139447002607,
    0.290711053258,0.500652318662,0.639735931298,0.790605797263,1.),
  .UNSPECIFIED.);
#384 = CARTESIAN_POINT('',(0.,0.124355850717));
#385 = CARTESIAN_POINT('',(0.110399060217,0.124355850717));
#386 = CARTESIAN_POINT('',(0.220615912632,0.124373832091));
#387 = CARTESIAN_POINT('',(0.330705046937,0.124409949718));
#388 = CARTESIAN_POINT('',(0.440728528652,0.124462029338));
#389 = CARTESIAN_POINT('',(0.550719812496,0.124526180401));
#390 = CARTESIAN_POINT('',(0.660647555773,0.124597408919));
#391 = CARTESIAN_POINT('',(0.770379431744,0.124670230317));
#392 = CARTESIAN_POINT('',(0.998171940588,0.124814185866));
#393 = CARTESIAN_POINT('',(1.116235797086,0.124884802841));
#394 = CARTESIAN_POINT('',(1.233671470182,0.124944642107));
#395 = CARTESIAN_POINT('',(1.351353398426,0.1249889364));
#396 = CARTESIAN_POINT('',(1.46892662874,0.125012725223));
#397 = CARTESIAN_POINT('',(1.586387935397,0.12501548411));
#398 = CARTESIAN_POINT('',(1.704889944912,0.124996576905));
#399 = CARTESIAN_POINT('',(1.98483398643,0.12491019549));
#400 = CARTESIAN_POINT('',(2.149941403986,0.124825227395));
#401 = CARTESIAN_POINT('',(2.315030730174,0.124712442512));
#402 = CARTESIAN_POINT('',(2.479920132191,0.124589549162));
#403 = CARTESIAN_POINT('',(2.644685890155,0.124478253779));
#404 = CARTESIAN_POINT('',(2.809496944435,0.124397010729));
#405 = CARTESIAN_POINT('',(2.974949596495,0.124355850717));
#406 = CARTESIAN_POINT('',(3.251991713806,0.124355850717));
#407 = CARTESIAN_POINT('',(3.362208566221,0.124373832091));
#408 = CARTESIAN_POINT('',(3.472297700527,0.124409949718));
#409 = CARTESIAN_POINT('',(3.582321182242,0.124462029338));
#410 = CARTESIAN_POINT('',(3.692312466086,0.124526180401));
#411 = CARTESIAN_POINT('',(3.802240209363,0.124597408919));
#412 = CARTESIAN_POINT('',(3.911972085333,0.124670230317));
#413 = CARTESIAN_POINT('',(4.139764593988,0.124814185866));
#414 = CARTESIAN_POINT('',(4.257828450879,0.124884802841));
#415 = CARTESIAN_POINT('',(4.375264124084,0.124944642107));
#416 = CARTESIAN_POINT('',(4.492946051538,0.1249889364));
#417 = CARTESIAN_POINT('',(4.610519282116,0.125012725224));
#418 = CARTESIAN_POINT('',(4.727980589584,0.12501548411));
#419 = CARTESIAN_POINT('',(4.846482598212,0.124996576906));
#420 = CARTESIAN_POINT('',(5.126426664652,0.124910195483));
#421 = CARTESIAN_POINT('',(5.291533978747,0.124825227418));
#422 = CARTESIAN_POINT('',(5.456623475079,0.124712442489));
#423 = CARTESIAN_POINT('',(5.621512781583,0.124589549157));
#424 = CARTESIAN_POINT('',(5.786278452442,0.124478253802));
#425 = CARTESIAN_POINT('',(5.951089685861,0.124397010717));
#426 = CARTESIAN_POINT('',(6.116542220163,0.124355850717));
#427 = CARTESIAN_POINT('',(6.28318530718,0.124355850717));
#428 = ( GEOMETRIC_REPRESENTATION_CONTEXT(2) 
PARAMETRIC_REPRESENTATION_CONTEXT() REPRESENTATION_CONTEXT('2D SPACE',''
  ) );
#429 = ADVANCED_FACE('',(#430),#112,.F.);
#430 = FACE_BOUND('',#431,.T.);
#431 = EDGE_LOOP('',(#432));
#432 = ORIENTED_EDGE('',*,*,#97,.F.);
#433 = ADVANCED_FACE('',(#434),#84,.T.);
#434 = FACE_BOUND('',#435,.T.);
#435 = EDGE_LOOP('',(#436));
#436 = ORIENTED_EDGE('',*,*,#69,.T.);
#437 = ADVANCED_FACE('',(#438),#224,.F.);
#438 = FACE_BOUND('',#439,.F.);
#439 = EDGE_LOOP('',(#440,#530,#551,#552,#553,#615));
#440 = ORIENTED_EDGE('',*,*,#441,.F.);
#441 = EDGE_CURVE('',#442,#444,#446,.T.);
#442 = VERTEX_POINT('',#443);
#443 = CARTESIAN_POINT('',(-1.959434878636E-18,-2.289466942882E-02,
    8.E-03));
#444 = VERTEX_POINT('',#445);
#445 = CARTESIAN_POINT('',(7.878462024098E-03,-4.834252786109E-02,
    -1.389185421335E-03));
#446 = SURFACE_CURVE('',#447,(#471,#498),.PCURVE_S1.);
#447 = B_SPLINE_CURVE_WITH_KNOTS('',8,(#448,#449,#450,#451,#452,#453,
    #454,#455,#456,#457,#458,#459,#460,#461,#462,#463,#464,#465,#466,
    #467,#468,#469,#470),.UNSPECIFIED.,.F.,.F.,(9,7,7,9),(0.,
    0.296514900099,0.655597863386,1.),.UNSPECIFIED.);
#448 = CARTESIAN_POINT('',(-1.959434878636E-18,-2.289466942882E-02,
    8.E-03));
#449 = CARTESIAN_POINT('',(5.061413993893E-04,-2.245300305328E-02,8.E-03
    ));
#450 = CARTESIAN_POINT('',(1.00868277782E-03,-2.218584780849E-02,
    7.963403697867E-03));
#451 = CARTESIAN_POINT('',(1.505904085578E-03,-2.210370730178E-02,
    7.891116421271E-03));
#452 = CARTESIAN_POINT('',(1.996855553481E-03,-2.22112771002E-02,
    7.783822237235E-03));
#453 = CARTESIAN_POINT('',(2.481168419245E-03,-2.250706234176E-02,
    7.641472611595E-03));
#454 = CARTESIAN_POINT('',(2.957223053981E-03,-2.29834809023E-02,
    7.46334094428E-03));
#455 = CARTESIAN_POINT('',(3.421987910584E-03,-2.362494122174E-02,
    7.249422515468E-03));
#456 = CARTESIAN_POINT('',(4.416361379446E-03,-2.536361061512E-02,
    6.699485719177E-03));
#457 = CARTESIAN_POINT('',(4.93837552515E-03,-2.652739305275E-02,
    6.347549960336E-03));
#458 = CARTESIAN_POINT('',(5.431118720229E-03,-2.786593106461E-02,
    5.94688360172E-03));
#459 = CARTESIAN_POINT('',(5.888000938983E-03,-2.933476799598E-02,
    5.500801841329E-03));
#460 = CARTESIAN_POINT('',(6.303090607839E-03,-3.089434749595E-02,
    5.014089368976E-03));
#461 = CARTESIAN_POINT('',(6.671897707002E-03,-3.251386923182E-02,
    4.49215582942E-03));
#462 = CARTESIAN_POINT('',(6.990987969012E-03,-3.416857961201E-02,
    3.940636743284E-03));
#463 = CARTESIAN_POINT('',(7.513817272895E-03,-3.744209296776E-02,
    2.812976936242E-03));
#464 = CARTESIAN_POINT('',(7.721773600206E-03,-3.905980757633E-02,
    2.23868942822E-03));
#465 = CARTESIAN_POINT('',(7.879491350837E-03,-4.067590057361E-02,
    1.647014523434E-03));
#466 = CARTESIAN_POINT('',(7.985311998497E-03,-4.227715024251E-02,
    1.043072197907E-03));
#467 = CARTESIAN_POINT('',(8.038201753823E-03,-4.385282030374E-02,
    4.321518166027E-04));
#468 = CARTESIAN_POINT('',(8.03776858473E-03,-4.539391172049E-02,
    -1.803928693842E-04));
#469 = CARTESIAN_POINT('',(7.984248632572E-03,-4.689269569558E-02,
    -7.89239751937E-04));
#470 = CARTESIAN_POINT('',(7.878462024097E-03,-4.834252786109E-02,
    -1.389185421337E-03));
#471 = PCURVE('',#224,#472);
#472 = DEFINITIONAL_REPRESENTATION('',(#473),#497);
#473 = B_SPLINE_CURVE_WITH_KNOTS('',8,(#474,#475,#476,#477,#478,#479,
    #480,#481,#482,#483,#484,#485,#486,#487,#488,#489,#490,#491,#492,
    #493,#494,#495,#496),.UNSPECIFIED.,.F.,.F.,(9,7,7,9),(0.,
    0.296514900099,0.655597863386,1.),.UNSPECIFIED.);
#474 = CARTESIAN_POINT('',(0.,5.210533057118E-02));
#475 = CARTESIAN_POINT('',(6.326767492367E-02,5.254699694672E-02));
#476 = CARTESIAN_POINT('',(0.126085392998,5.281415219151E-02));
#477 = CARTESIAN_POINT('',(0.188623669871,5.289629269822E-02));
#478 = CARTESIAN_POINT('',(0.251128216664,5.27887228998E-02));
#479 = CARTESIAN_POINT('',(0.313905627093,5.249293765824E-02));
#480 = CARTESIAN_POINT('',(0.37715906117,5.20165190977E-02));
#481 = CARTESIAN_POINT('',(0.440938988965,5.137505877826E-02));
#482 = CARTESIAN_POINT('',(0.582978215253,4.963638938488E-02));
#483 = CARTESIAN_POINT('',(0.661369801305,4.847260694725E-02));
#484 = CARTESIAN_POINT('',(0.740225010693,4.713406893539E-02));
#485 = CARTESIAN_POINT('',(0.819386040372,4.566523200402E-02));
#486 = CARTESIAN_POINT('',(0.898687126834,4.410565250405E-02));
#487 = CARTESIAN_POINT('',(0.978028181229,4.248613076818E-02));
#488 = CARTESIAN_POINT('',(1.05735000204,4.083142038799E-02));
#489 = CARTESIAN_POINT('',(1.212720885001,3.755790703224E-02));
#490 = CARTESIAN_POINT('',(1.288781537013,3.594019242367E-02));
#491 = CARTESIAN_POINT('',(1.364842937446,3.432409942639E-02));
#492 = CARTESIAN_POINT('',(1.440908041235,3.272284975749E-02));
#493 = CARTESIAN_POINT('',(1.51698077807,3.114717969626E-02));
#494 = CARTESIAN_POINT('',(1.593067734042,2.960608827951E-02));
#495 = CARTESIAN_POINT('',(1.669179152195,2.810730430442E-02));
#496 = CARTESIAN_POINT('',(1.745329251994,2.665747213891E-02));
#497 = ( GEOMETRIC_REPRESENTATION_CONTEXT(2) 
PARAMETRIC_REPRESENTATION_CONTEXT() REPRESENTATION_CONTEXT('2D SPACE',''
  ) );
#498 = PCURVE('',#499,#504);
#499 = SPHERICAL_SURFACE('',#500,0.12505);
#500 = AXIS2_PLACEMENT_3D('',#501,#502,#503);
#501 = CARTESIAN_POINT('',(-1.997822284058E-02,0.,-0.113302131984));
#502 = DIRECTION('',(0.173648177667,0.,0.984807753012));
#503 = DIRECTION('',(0.984807753012,0.,-0.173648177667));
#504 = DEFINITIONAL_REPRESENTATION('',(#505),#529);
#505 = B_SPLINE_CURVE_WITH_KNOTS('',8,(#506,#507,#508,#509,#510,#511,
    #512,#513,#514,#515,#516,#517,#518,#519,#520,#521,#522,#523,#524,
    #525,#526,#527,#528),.UNSPECIFIED.,.F.,.F.,(9,7,7,9),(0.,
    0.296514900099,0.655597863386,1.),.UNSPECIFIED.);
#506 = CARTESIAN_POINT('',(4.651786038973,1.386331114438));
#507 = CARTESIAN_POINT('',(4.672311460842,1.390162975073));
#508 = CARTESIAN_POINT('',(4.694383879407,1.39248623946));
#509 = CARTESIAN_POINT('',(4.717424675882,1.393202816183));
#510 = CARTESIAN_POINT('',(4.740611671318,1.392266552085));
#511 = CARTESIAN_POINT('',(4.762910227677,1.38969136361));
#512 = CARTESIAN_POINT('',(4.783539442423,1.385553131643));
#513 = CARTESIAN_POINT('',(4.802084591652,1.379995450489));
#514 = CARTESIAN_POINT('',(4.838125945755,1.364967972494));
#515 = CARTESIAN_POINT('',(4.854555244304,1.354929050935));
#516 = CARTESIAN_POINT('',(4.867395141554,1.343410711818));
#517 = CARTESIAN_POINT('',(4.87703281489,1.330802438719));
#518 = CARTESIAN_POINT('',(4.884070913033,1.317438663975));
#519 = CARTESIAN_POINT('',(4.88892543485,1.30357797186));
#520 = CARTESIAN_POINT('',(4.891978651735,1.289426119015));
#521 = CARTESIAN_POINT('',(4.894981403303,1.261438586087));
#522 = CARTESIAN_POINT('',(4.895053411022,1.247611851372));
#523 = CARTESIAN_POINT('',(4.89397898725,1.233798609752));
#524 = CARTESIAN_POINT('',(4.891939543105,1.220107938907));
#525 = CARTESIAN_POINT('',(4.889068518137,1.206628658182));
#526 = CARTESIAN_POINT('',(4.885467924008,1.19343585484));
#527 = CARTESIAN_POINT('',(4.881219209768,1.180594779401));
#528 = CARTESIAN_POINT('',(4.8763884487,1.168162110046));
#529 = ( GEOMETRIC_REPRESENTATION_CONTEXT(2) 
PARAMETRIC_REPRESENTATION_CONTEXT() REPRESENTATION_CONTEXT('2D SPACE',''
  ) );
#530 = ORIENTED_EDGE('',*,*,#531,.F.);
#531 = EDGE_CURVE('',#127,#442,#532,.T.);
#532 = SEAM_CURVE('',#533,(#537,#544),.PCURVE_S1.);
#533 = LINE('',#534,#535);
#534 = CARTESIAN_POINT('',(-1.959434878636E-18,-7.5E-02,8.E-03));
#535 = VECTOR('',#536,1.);
#536 = DIRECTION('',(0.,1.,0.));
#537 = PCURVE('',#224,#538);
#538 = DEFINITIONAL_REPRESENTATION('',(#539),#543);
#539 = LINE('',#540,#541);
#540 = CARTESIAN_POINT('',(6.28318530718,-0.));
#541 = VECTOR('',#542,1.);
#542 = DIRECTION('',(0.,1.));
#543 = ( GEOMETRIC_REPRESENTATION_CONTEXT(2) 
PARAMETRIC_REPRESENTATION_CONTEXT() REPRESENTATION_CONTEXT('2D SPACE',''
  ) );
#544 = PCURVE('',#224,#545);
#545 = DEFINITIONAL_REPRESENTATION('',(#546),#550);
#546 = LINE('',#547,#548);
#547 = CARTESIAN_POINT('',(0.,-0.));
#548 = VECTOR('',#549,1.);
#549 = DIRECTION('',(0.,1.));
#550 = ( GEOMETRIC_REPRESENTATION_CONTEXT(2) 
PARAMETRIC_REPRESENTATION_CONTEXT() REPRESENTATION_CONTEXT('2D SPACE',''
  ) );
#551 = ORIENTED_EDGE('',*,*,#126,.T.);
#552 = ORIENTED_EDGE('',*,*,#531,.T.);
#553 = ORIENTED_EDGE('',*,*,#554,.F.);
#554 = EDGE_CURVE('',#555,#442,#557,.T.);
#555 = VERTEX_POINT('',#556);
#556 = CARTESIAN_POINT('',(-7.878462024098E-03,-4.834252786109E-02,
    1.389185421335E-03));
#557 = SURFACE_CURVE('',#558,(#575,#595),.PCURVE_S1.);
#558 = B_SPLINE_CURVE_WITH_KNOTS('',8,(#559,#560,#561,#562,#563,#564,
    #565,#566,#567,#568,#569,#570,#571,#572,#573,#574),.UNSPECIFIED.,.F.
  ,.F.,(9,7,9),(0.,0.595023404949,1.),.UNSPECIFIED.);
#559 = CARTESIAN_POINT('',(-7.878462024098E-03,-4.834252786109E-02,
    1.389185421334E-03));
#560 = CARTESIAN_POINT('',(-7.733294755357E-03,-4.635297380849E-02,
    2.212469913349E-03));
#561 = CARTESIAN_POINT('',(-7.489967157852E-03,-4.427205077234E-02,
    3.017501364435E-03));
#562 = CARTESIAN_POINT('',(-7.151166018231E-03,-4.211633538455E-02,
    3.79128011042E-03));
#563 = CARTESIAN_POINT('',(-6.721472603764E-03,-3.990596930808E-02,
    4.520988174162E-03));
#564 = CARTESIAN_POINT('',(-6.207556935819E-03,-3.766709338607E-02,
    5.194296714413E-03));
#565 = CARTESIAN_POINT('',(-5.618311413433E-03,-3.543292360815E-02,
    5.799939190234E-03));
#566 = CARTESIAN_POINT('',(-4.964552517096E-03,-3.325030903111E-02,
    6.328432727479E-03));
#567 = CARTESIAN_POINT('',(-3.7777515638E-03,-2.977872096408E-02,
    7.074667806945E-03));
#568 = CARTESIAN_POINT('',(-3.272347193316E-03,-2.842551973942E-02,
    7.338062206708E-03));
#569 = CARTESIAN_POINT('',(-2.74675637988E-03,-2.714833845652E-02,
    7.559645935435E-03));
#570 = CARTESIAN_POINT('',(-2.206194767441E-03,-2.597428834325E-02,
    7.737239265631E-03));
#571 = CARTESIAN_POINT('',(-1.656261970849E-03,-2.493362589431E-02,
    7.869615460636E-03));
#572 = CARTESIAN_POINT('',(-1.102471747236E-03,-2.40584403683E-02,
    7.956918666759E-03));
#573 = CARTESIAN_POINT('',(-5.491488883282E-04,-2.337386476719E-02,
    8.E-03));
#574 = CARTESIAN_POINT('',(-1.734723475977E-18,-2.289466942882E-02,
    8.E-03));
#575 = PCURVE('',#224,#576);
#576 = DEFINITIONAL_REPRESENTATION('',(#577),#594);
#577 = B_SPLINE_CURVE_WITH_KNOTS('',8,(#578,#579,#580,#581,#582,#583,
    #584,#585,#586,#587,#588,#589,#590,#591,#592,#593),.UNSPECIFIED.,.F.
  ,.F.,(9,7,9),(0.,0.595023404949,1.),.UNSPECIFIED.);
#578 = CARTESIAN_POINT('',(4.886921905584,2.665747213891E-02));
#579 = CARTESIAN_POINT('',(4.991420028377,2.864702619151E-02));
#580 = CARTESIAN_POINT('',(5.09580185371,3.072794922766E-02));
#581 = CARTESIAN_POINT('',(5.200147622938,3.288366461545E-02));
#582 = CARTESIAN_POINT('',(5.304502534858,3.509403069192E-02));
#583 = CARTESIAN_POINT('',(5.408877869537,3.733290661393E-02));
#584 = CARTESIAN_POINT('',(5.51325689644,3.956707639185E-02));
#585 = CARTESIAN_POINT('',(5.617601920234,4.174969096889E-02));
#586 = CARTESIAN_POINT('',(5.792841189545,4.522127903592E-02));
#587 = CARTESIAN_POINT('',(5.863848367514,4.657448026058E-02));
#588 = CARTESIAN_POINT('',(5.934754830361,4.785166154348E-02));
#589 = CARTESIAN_POINT('',(6.00540873428,4.902571165675E-02));
#590 = CARTESIAN_POINT('',(6.075659457702,5.006637410569E-02));
#591 = CARTESIAN_POINT('',(6.145376382578,5.09415596317E-02));
#592 = CARTESIAN_POINT('',(6.214541696139,5.162613523281E-02));
#593 = CARTESIAN_POINT('',(6.28318530718,5.210533057118E-02));
#594 = ( GEOMETRIC_REPRESENTATION_CONTEXT(2) 
PARAMETRIC_REPRESENTATION_CONTEXT() REPRESENTATION_CONTEXT('2D SPACE',''
  ) );
#595 = PCURVE('',#499,#596);
#596 = DEFINITIONAL_REPRESENTATION('',(#597),#614);
#597 = B_SPLINE_CURVE_WITH_KNOTS('',8,(#598,#599,#600,#601,#602,#603,
    #604,#605,#606,#607,#608,#609,#610,#611,#612,#613),.UNSPECIFIED.,.F.
  ,.F.,(9,7,9),(0.,0.595023404949,1.),.UNSPECIFIED.);
#598 = CARTESIAN_POINT('',(4.54838951207,1.168162110046));
#599 = CARTESIAN_POINT('',(4.541760427346,1.185223028053));
#600 = CARTESIAN_POINT('',(4.536229798721,1.203046065669));
#601 = CARTESIAN_POINT('',(4.531966844454,1.221489793705));
#602 = CARTESIAN_POINT('',(4.529185124496,1.240384996611));
#603 = CARTESIAN_POINT('',(4.528216684076,1.25951495568));
#604 = CARTESIAN_POINT('',(4.529467202318,1.278605976665));
#605 = CARTESIAN_POINT('',(4.533690347983,1.297273363615));
#606 = CARTESIAN_POINT('',(4.54743755994,1.32701034054));
#607 = CARTESIAN_POINT('',(4.554843317724,1.338614790852));
#608 = CARTESIAN_POINT('',(4.56439265159,1.349584711573));
#609 = CARTESIAN_POINT('',(4.576422650979,1.35968944932));
#610 = CARTESIAN_POINT('',(4.591240596107,1.368669426263));
#611 = CARTESIAN_POINT('',(4.60907044581,1.376240771496));
#612 = CARTESIAN_POINT('',(4.629516545477,1.382173655652));
#613 = CARTESIAN_POINT('',(4.651786038973,1.386331114438));
#614 = ( GEOMETRIC_REPRESENTATION_CONTEXT(2) 
PARAMETRIC_REPRESENTATION_CONTEXT() REPRESENTATION_CONTEXT('2D SPACE',''
  ) );
#615 = ORIENTED_EDGE('',*,*,#616,.F.);
#616 = EDGE_CURVE('',#444,#555,#617,.T.);
#617 = SURFACE_CURVE('',#618,(#663,#711),.PCURVE_S1.);
#618 = B_SPLINE_CURVE_WITH_KNOTS('',8,(#619,#620,#621,#622,#623,#624,
    #625,#626,#627,#628,#629,#630,#631,#632,#633,#634,#635,#636,#637,
    #638,#639,#640,#641,#642,#643,#644,#645,#646,#647,#648,#649,#650,
    #651,#652,#653,#654,#655,#656,#657,#658,#659,#660,#661,#662),
  .UNSPECIFIED.,.F.,.F.,(9,7,7,7,7,7,9),(0.,0.266058061921,
    0.389195749053,0.500803286923,0.61236728805,0.807471907145,1.),
  .UNSPECIFIED.);
#619 = CARTESIAN_POINT('',(7.878462024098E-03,-4.834252786109E-02,
    -1.389185421334E-03));
#620 = CARTESIAN_POINT('',(7.731765911829E-03,-4.633202062213E-02,
    -2.221140415853E-03));
#621 = CARTESIAN_POINT('',(7.484835046888E-03,-4.422826445145E-02,
    -3.034432986283E-03));
#622 = CARTESIAN_POINT('',(7.14044810421E-03,-4.204832950533E-02,
    -3.815670465139E-03));
#623 = CARTESIAN_POINT('',(6.703346264876E-03,-3.98129881715E-02,
    -4.55164231761E-03));
#624 = CARTESIAN_POINT('',(6.180447667858E-03,-3.754935730158E-02,
    -5.229636571347E-03));
#625 = CARTESIAN_POINT('',(5.58099978031E-03,-3.529192694591E-02,
    -5.838050541523E-03));
#626 = CARTESIAN_POINT('',(4.91626301947E-03,-3.308972278482E-02,
    -6.367164865411E-03));
#627 = CARTESIAN_POINT('',(3.866767201324E-03,-3.004928000555E-02,
    -7.014291768429E-03));
#628 = CARTESIAN_POINT('',(3.523480807471E-03,-2.911396744365E-02,
    -7.200424176934E-03));
#629 = CARTESIAN_POINT('',(3.170329354047E-03,-2.821244031764E-02,
    -7.367147181341E-03));
#630 = CARTESIAN_POINT('',(2.808832496769E-03,-2.735277384548E-02,
    -7.513761097957E-03));
#631 = CARTESIAN_POINT('',(2.440635969668E-03,-2.654403977295E-02,
    -7.639728738756E-03));
#632 = CARTESIAN_POINT('',(2.067467328458E-03,-2.579598751218E-02,
    -7.744715850437E-03));
#633 = CARTESIAN_POINT('',(1.691069781167E-03,-2.511835314642E-02,
    -7.828607071633E-03));
#634 = CARTESIAN_POINT('',(9.705487769029E-04,-2.397728606451E-02,
    -7.948498930612E-03));
#635 = CARTESIAN_POINT('',(6.26664769517E-04,-2.34996722919E-02,
    -7.988256078351E-03));
#636 = CARTESIAN_POINT('',(2.827445043055E-04,-2.309349481427E-02,
    -8.010817000437E-03));
#637 = CARTESIAN_POINT('',(-6.016320484005E-05,-2.276421256508E-02,
    -8.016431164805E-03));
#638 = CARTESIAN_POINT('',(-4.012993976012E-04,-2.251590317756E-02,
    -8.005412013158E-03));
#639 = CARTESIAN_POINT('',(-7.401759191112E-04,-2.235114578194E-02,
    -7.978035871697E-03));
#640 = CARTESIAN_POINT('',(-1.076481076656E-03,-2.227108700256E-02,
    -7.934477117785E-03));
#641 = CARTESIAN_POINT('',(-1.743208859172E-03,-2.228029151165E-02,
    -7.815105374562E-03));
#642 = CARTESIAN_POINT('',(-2.073668216502E-03,-2.236948896226E-02,
    -7.739298781698E-03));
#643 = CARTESIAN_POINT('',(-2.400979955871E-03,-2.2543225634E-02,
    -7.647415274781E-03));
#644 = CARTESIAN_POINT('',(-2.724777073698E-03,-2.28002511293E-02,
    -7.539393073762E-03));
#645 = CARTESIAN_POINT('',(-3.044487799452E-03,-2.313787590052E-02,
    -7.415141226854E-03));
#646 = CARTESIAN_POINT('',(-3.359272958443E-03,-2.355191339252E-02,
    -7.274633655268E-03));
#647 = CARTESIAN_POINT('',(-3.668046578097E-03,-2.403680995305E-02,
    -7.118009183562E-03));
#648 = CARTESIAN_POINT('',(-4.496904965009E-03,-2.554632785798E-02,
    -6.644301696884E-03));
#649 = CARTESIAN_POINT('',(-5.001899812702E-03,-2.670287557572E-02,
    -6.294987847331E-03));
#650 = CARTESIAN_POINT('',(-5.478383025711E-03,-2.802082991799E-02,
    -5.899735566296E-03));
#651 = CARTESIAN_POINT('',(-5.920297738415E-03,-2.945933839925E-02,
    -5.4617490462E-03));
#652 = CARTESIAN_POINT('',(-6.322260616677E-03,-3.098235355741E-02,
    -4.985493038196E-03));
#653 = CARTESIAN_POINT('',(-6.680156152456E-03,-3.256153811409E-02,
    -4.475971903361E-03));
#654 = CARTESIAN_POINT('',(-6.990828326752E-03,-3.417412760082E-02,
    -3.938372829657E-03));
#655 = CARTESIAN_POINT('',(-7.509611867139E-03,-3.740944714772E-02,
    -2.824562988663E-03));
#656 = CARTESIAN_POINT('',(-7.719039042184E-03,-3.903185180424E-02,
    -2.248922267103E-03));
#657 = CARTESIAN_POINT('',(-7.877961724948E-03,-4.065281821689E-02,
    -1.655719130985E-03));
#658 = CARTESIAN_POINT('',(-7.984699520838E-03,-4.225897983866E-02,
    -1.050116479248E-03));
#659 = CARTESIAN_POINT('',(-8.03820413955E-03,-4.383949172395E-02,
    -4.374492373792E-04));
#660 = CARTESIAN_POINT('',(-8.038076670891E-03,-4.538526957824E-02,
    1.768822820686E-04));
#661 = CARTESIAN_POINT('',(-7.984553666021E-03,-4.688851513518E-02,
    7.875098212846E-04));
#662 = CARTESIAN_POINT('',(-7.878462024097E-03,-4.834252786109E-02,
    1.389185421337E-03));
#663 = PCURVE('',#224,#664);
#664 = DEFINITIONAL_REPRESENTATION('',(#665),#710);
#665 = B_SPLINE_CURVE_WITH_KNOTS('',8,(#666,#667,#668,#669,#670,#671,
    #672,#673,#674,#675,#676,#677,#678,#679,#680,#681,#682,#683,#684,
    #685,#686,#687,#688,#689,#690,#691,#692,#693,#694,#695,#696,#697,
    #698,#699,#700,#701,#702,#703,#704,#705,#706,#707,#708,#709),
  .UNSPECIFIED.,.F.,.F.,(9,7,7,7,7,7,9),(0.,0.266058061921,
    0.389195749053,0.500803286923,0.61236728805,0.807471907145,1.),
  .UNSPECIFIED.);
#666 = CARTESIAN_POINT('',(1.745329251994,2.665747213891E-02));
#667 = CARTESIAN_POINT('',(1.85092790716,2.866797937787E-02));
#668 = CARTESIAN_POINT('',(1.95640489718,3.077173554855E-02));
#669 = CARTESIAN_POINT('',(2.061845606302,3.295167049467E-02));
#670 = CARTESIAN_POINT('',(2.167297851803,3.51870118285E-02));
#671 = CARTESIAN_POINT('',(2.27277282626,3.745064269842E-02));
#672 = CARTESIAN_POINT('',(2.378251637406,3.970807305409E-02));
#673 = CARTESIAN_POINT('',(2.483692432939,4.191027721518E-02));
#674 = CARTESIAN_POINT('',(2.637813666719,4.495071999445E-02));
#675 = CARTESIAN_POINT('',(2.686550624482,4.588603255635E-02));
#676 = CARTESIAN_POINT('',(2.735240268481,4.678755968236E-02));
#677 = CARTESIAN_POINT('',(2.783851421944,4.764722615452E-02));
#678 = CARTESIAN_POINT('',(2.83234564273,4.845596022705E-02));
#679 = CARTESIAN_POINT('',(2.88068038374,4.920401248782E-02));
#680 = CARTESIAN_POINT('',(2.928813239227,4.988164685358E-02));
#681 = CARTESIAN_POINT('',(3.020116697492,5.102271393549E-02));
#682 = CARTESIAN_POINT('',(3.063334809588,5.15003277081E-02));
#683 = CARTESIAN_POINT('',(3.106329550459,5.190650518573E-02));
#684 = CARTESIAN_POINT('',(3.149096099324,5.223578743492E-02));
#685 = CARTESIAN_POINT('',(3.191660237638,5.248409682244E-02));
#686 = CARTESIAN_POINT('',(3.234075678105,5.264885421806E-02));
#687 = CARTESIAN_POINT('',(3.276415362514,5.272891299744E-02));
#688 = CARTESIAN_POINT('',(3.361081577464,5.271970848835E-02));
#689 = CARTESIAN_POINT('',(3.403412392815,5.263051103774E-02));
#690 = CARTESIAN_POINT('',(3.445825806083,5.2456774366E-02));
#691 = CARTESIAN_POINT('',(3.488393221028,5.21997488707E-02));
#692 = CARTESIAN_POINT('',(3.531166309612,5.186212409948E-02));
#693 = CARTESIAN_POINT('',(3.574168593872,5.144808660748E-02));
#694 = CARTESIAN_POINT('',(3.617393113598,5.096319004695E-02));
#695 = CARTESIAN_POINT('',(3.736727531339,4.945367214202E-02));
#696 = CARTESIAN_POINT('',(3.813198798685,4.829712442428E-02));
#697 = CARTESIAN_POINT('',(3.890091920333,4.697917008201E-02));
#698 = CARTESIAN_POINT('',(3.967258338619,4.554066160075E-02));
#699 = CARTESIAN_POINT('',(4.044550535514,4.401764644259E-02));
#700 = CARTESIAN_POINT('',(4.121878145304,4.243846188591E-02));
#701 = CARTESIAN_POINT('',(4.199190878943,4.082587239918E-02));
#702 = CARTESIAN_POINT('',(4.35277863499,3.759055285228E-02));
#703 = CARTESIAN_POINT('',(4.429058535095,3.596814819576E-02));
#704 = CARTESIAN_POINT('',(4.505339195125,3.434718178311E-02));
#705 = CARTESIAN_POINT('',(4.581623521402,3.274102016134E-02));
#706 = CARTESIAN_POINT('',(4.657915427104,3.116050827605E-02));
#707 = CARTESIAN_POINT('',(4.734221541953,2.961473042176E-02));
#708 = CARTESIAN_POINT('',(4.810552228582,2.811148486482E-02));
#709 = CARTESIAN_POINT('',(4.886921905584,2.665747213891E-02));
#710 = ( GEOMETRIC_REPRESENTATION_CONTEXT(2) 
PARAMETRIC_REPRESENTATION_CONTEXT() REPRESENTATION_CONTEXT('2D SPACE',''
  ) );
#711 = PCURVE('',#712,#717);
#712 = SPHERICAL_SURFACE('',#713,0.12505);
#713 = AXIS2_PLACEMENT_3D('',#714,#715,#716);
#714 = CARTESIAN_POINT('',(1.997822284058E-02,0.,0.113302131984));
#715 = DIRECTION('',(0.173648177667,0.,0.984807753012));
#716 = DIRECTION('',(0.984807753012,0.,-0.173648177667));
#717 = DEFINITIONAL_REPRESENTATION('',(#718),#763);
#718 = B_SPLINE_CURVE_WITH_KNOTS('',8,(#719,#720,#721,#722,#723,#724,
    #725,#726,#727,#728,#729,#730,#731,#732,#733,#734,#735,#736,#737,
    #738,#739,#740,#741,#742,#743,#744,#745,#746,#747,#748,#749,#750,
    #751,#752,#753,#754,#755,#756,#757,#758,#759,#760,#761,#762),
  .UNSPECIFIED.,.F.,.F.,(9,7,7,7,7,7,9),(0.,0.266058061921,
    0.389195749053,0.500803286923,0.61236728805,0.807471907145,1.),
  .UNSPECIFIED.);
#719 = CARTESIAN_POINT('',(4.8763884487,-1.168162110046));
#720 = CARTESIAN_POINT('',(4.883087348288,-1.185402706807));
#721 = CARTESIAN_POINT('',(4.888664384897,-1.203421091221));
#722 = CARTESIAN_POINT('',(4.892944958078,-1.222071627199));
#723 = CARTESIAN_POINT('',(4.895709092174,-1.241179831411));
#724 = CARTESIAN_POINT('',(4.896609993202,-1.260520935881));
#725 = CARTESIAN_POINT('',(4.895228394948,-1.279810797249));
#726 = CARTESIAN_POINT('',(4.890769532943,-1.298646861647));
#727 = CARTESIAN_POINT('',(4.878244565485,-1.324693862705));
#728 = CARTESIAN_POINT('',(4.873403446651,-1.332712955194));
#729 = CARTESIAN_POINT('',(4.867585164314,-1.34045000351));
#730 = CARTESIAN_POINT('',(4.860683108701,-1.347836650519));
#731 = CARTESIAN_POINT('',(4.852590386759,-1.354795255423));
#732 = CARTESIAN_POINT('',(4.843219433052,-1.361241277557));
#733 = CARTESIAN_POINT('',(4.832533725602,-1.367089093576));
#734 = CARTESIAN_POINT('',(4.809767702794,-1.376949101391));
#735 = CARTESIAN_POINT('',(4.797910247604,-1.3810824625));
#736 = CARTESIAN_POINT('',(4.78506143304,-1.384603011002));
#737 = CARTESIAN_POINT('',(4.771318190608,-1.387460923339));
#738 = CARTESIAN_POINT('',(4.756845139057,-1.389618210816));
#739 = CARTESIAN_POINT('',(4.741868371858,-1.391050347659));
#740 = CARTESIAN_POINT('',(4.72665008448,-1.39174618903));
#741 = CARTESIAN_POINT('',(4.696243930154,-1.391666184641));
#742 = CARTESIAN_POINT('',(4.681055200334,-1.390890911283));
#743 = CARTESIAN_POINT('',(4.666131736571,-1.389380811652));
#744 = CARTESIAN_POINT('',(4.651733438405,-1.387148017953));
#745 = CARTESIAN_POINT('',(4.638082256696,-1.384218067082));
#746 = CARTESIAN_POINT('',(4.625337613255,-1.380629897397));
#747 = CARTESIAN_POINT('',(4.613591203774,-1.37643411705));
#748 = CARTESIAN_POINT('',(4.584151358129,-1.363392170861));
#749 = CARTESIAN_POINT('',(4.568597407869,-1.353419345798));
#750 = CARTESIAN_POINT('',(4.556413127707,-1.342081410717));
#751 = CARTESIAN_POINT('',(4.54722043422,-1.32973529143));
#752 = CARTESIAN_POINT('',(4.540477375504,-1.316685688811));
#753 = CARTESIAN_POINT('',(4.535795237285,-1.303170445236));
#754 = CARTESIAN_POINT('',(4.532823548737,-1.289378773657));
#755 = CARTESIAN_POINT('',(4.5297982149,-1.261717612698));
#756 = CARTESIAN_POINT('',(4.529706083339,-1.247850797071));
#757 = CARTESIAN_POINT('',(4.53076964411,-1.233995962979));
#758 = CARTESIAN_POINT('',(4.53280534997,-1.22026337983));
#759 = CARTESIAN_POINT('',(4.535678322076,-1.206742759858));
#760 = CARTESIAN_POINT('',(4.539285543844,-1.193509897518));
#761 = CARTESIAN_POINT('',(4.543544821604,-1.18063062874));
#762 = CARTESIAN_POINT('',(4.54838951207,-1.168162110046));
#763 = ( GEOMETRIC_REPRESENTATION_CONTEXT(2) 
PARAMETRIC_REPRESENTATION_CONTEXT() REPRESENTATION_CONTEXT('2D SPACE',''
  ) );
#764 = ADVANCED_FACE('',(#765),#377,.F.);
#765 = FACE_BOUND('',#766,.F.);
#766 = EDGE_LOOP('',(#767,#768,#791,#874,#1020,#1080));
#767 = ORIENTED_EDGE('',*,*,#279,.F.);
#768 = ORIENTED_EDGE('',*,*,#769,.F.);
#769 = EDGE_CURVE('',#770,#280,#772,.T.);
#770 = VERTEX_POINT('',#771);
#771 = CARTESIAN_POINT('',(-1.959434878636E-18,2.289466942882E-02,8.E-03
    ));
#772 = SEAM_CURVE('',#773,(#777,#784),.PCURVE_S1.);
#773 = LINE('',#774,#775);
#774 = CARTESIAN_POINT('',(-1.959434878636E-18,-7.5E-02,8.E-03));
#775 = VECTOR('',#776,1.);
#776 = DIRECTION('',(0.,1.,0.));
#777 = PCURVE('',#377,#778);
#778 = DEFINITIONAL_REPRESENTATION('',(#779),#783);
#779 = LINE('',#780,#781);
#780 = CARTESIAN_POINT('',(6.28318530718,-0.));
#781 = VECTOR('',#782,1.);
#782 = DIRECTION('',(0.,1.));
#783 = ( GEOMETRIC_REPRESENTATION_CONTEXT(2) 
PARAMETRIC_REPRESENTATION_CONTEXT() REPRESENTATION_CONTEXT('2D SPACE',''
  ) );
#784 = PCURVE('',#377,#785);
#785 = DEFINITIONAL_REPRESENTATION('',(#786),#790);
#786 = LINE('',#787,#788);
#787 = CARTESIAN_POINT('',(0.,-0.));
#788 = VECTOR('',#789,1.);
#789 = DIRECTION('',(0.,1.));
#790 = ( GEOMETRIC_REPRESENTATION_CONTEXT(2) 
PARAMETRIC_REPRESENTATION_CONTEXT() REPRESENTATION_CONTEXT('2D SPACE',''
  ) );
#791 = ORIENTED_EDGE('',*,*,#792,.T.);
#792 = EDGE_CURVE('',#770,#793,#795,.T.);
#793 = VERTEX_POINT('',#794);
#794 = CARTESIAN_POINT('',(7.878462024098E-03,4.834252786109E-02,
    -1.389185421335E-03));
#795 = SURFACE_CURVE('',#796,(#820,#847),.PCURVE_S1.);
#796 = B_SPLINE_CURVE_WITH_KNOTS('',8,(#797,#798,#799,#800,#801,#802,
    #803,#804,#805,#806,#807,#808,#809,#810,#811,#812,#813,#814,#815,
    #816,#817,#818,#819),.UNSPECIFIED.,.F.,.F.,(9,7,7,9),(0.,
    0.296514900098,0.655597863384,1.),.UNSPECIFIED.);
#797 = CARTESIAN_POINT('',(-1.959434878636E-18,2.289466942882E-02,8.E-03
    ));
#798 = CARTESIAN_POINT('',(5.061413993891E-04,2.245300305328E-02,8.E-03)
  );
#799 = CARTESIAN_POINT('',(1.00868277782E-03,2.218584780849E-02,
    7.963403697868E-03));
#800 = CARTESIAN_POINT('',(1.505904085577E-03,2.210370730177E-02,
    7.891116421268E-03));
#801 = CARTESIAN_POINT('',(1.996855553481E-03,2.221127710021E-02,
    7.783822237239E-03));
#802 = CARTESIAN_POINT('',(2.481168419245E-03,2.250706234175E-02,
    7.641472611592E-03));
#803 = CARTESIAN_POINT('',(2.95722305398E-03,2.298348090231E-02,
    7.463340944281E-03));
#804 = CARTESIAN_POINT('',(3.421987910584E-03,2.362494122174E-02,
    7.249422515468E-03));
#805 = CARTESIAN_POINT('',(4.416361379448E-03,2.536361061512E-02,
    6.699485719176E-03));
#806 = CARTESIAN_POINT('',(4.938375525144E-03,2.652739305273E-02,
    6.347549960341E-03));
#807 = CARTESIAN_POINT('',(5.431118720241E-03,2.786593106465E-02,
    5.946883601708E-03));
#808 = CARTESIAN_POINT('',(5.888000938969E-03,2.933476799594E-02,
    5.500801841346E-03));
#809 = CARTESIAN_POINT('',(6.303090607848E-03,3.089434749599E-02,
    5.014089368962E-03));
#810 = CARTESIAN_POINT('',(6.671897706998E-03,3.25138692318E-02,
    4.492155829427E-03));
#811 = CARTESIAN_POINT('',(6.990987969013E-03,3.416857961202E-02,
    3.940636743282E-03));
#812 = CARTESIAN_POINT('',(7.513817272895E-03,3.744209296776E-02,
    2.812976936242E-03));
#813 = CARTESIAN_POINT('',(7.721773600206E-03,3.905980757633E-02,
    2.238689428221E-03));
#814 = CARTESIAN_POINT('',(7.879491350837E-03,4.067590057361E-02,
    1.647014523434E-03));
#815 = CARTESIAN_POINT('',(7.985311998497E-03,4.227715024251E-02,
    1.043072197907E-03));
#816 = CARTESIAN_POINT('',(8.038201753823E-03,4.385282030374E-02,
    4.321518166026E-04));
#817 = CARTESIAN_POINT('',(8.03776858473E-03,4.539391172049E-02,
    -1.803928693839E-04));
#818 = CARTESIAN_POINT('',(7.984248632572E-03,4.689269569558E-02,
    -7.892397519371E-04));
#819 = CARTESIAN_POINT('',(7.878462024097E-03,4.834252786109E-02,
    -1.389185421337E-03));
#820 = PCURVE('',#377,#821);
#821 = DEFINITIONAL_REPRESENTATION('',(#822),#846);
#822 = B_SPLINE_CURVE_WITH_KNOTS('',8,(#823,#824,#825,#826,#827,#828,
    #829,#830,#831,#832,#833,#834,#835,#836,#837,#838,#839,#840,#841,
    #842,#843,#844,#845),.UNSPECIFIED.,.F.,.F.,(9,7,7,9),(0.,
    0.296514900098,0.655597863384,1.),.UNSPECIFIED.);
#823 = CARTESIAN_POINT('',(0.,9.789466942882E-02));
#824 = CARTESIAN_POINT('',(6.326767492364E-02,9.745300305328E-02));
#825 = CARTESIAN_POINT('',(0.126085392998,9.718584780849E-02));
#826 = CARTESIAN_POINT('',(0.188623669871,9.710370730177E-02));
#827 = CARTESIAN_POINT('',(0.251128216664,9.721127710021E-02));
#828 = CARTESIAN_POINT('',(0.313905627093,9.750706234175E-02));
#829 = CARTESIAN_POINT('',(0.37715906117,9.798348090231E-02));
#830 = CARTESIAN_POINT('',(0.440938988965,9.862494122174E-02));
#831 = CARTESIAN_POINT('',(0.582978215253,0.100363610615));
#832 = CARTESIAN_POINT('',(0.661369801304,0.101527393053));
#833 = CARTESIAN_POINT('',(0.740225010695,0.102865931065));
#834 = CARTESIAN_POINT('',(0.819386040369,0.104334767996));
#835 = CARTESIAN_POINT('',(0.898687126837,0.105894347496));
#836 = CARTESIAN_POINT('',(0.978028181228,0.107513869232));
#837 = CARTESIAN_POINT('',(1.05735000204,0.109168579612));
#838 = CARTESIAN_POINT('',(1.212720885001,0.112442092968));
#839 = CARTESIAN_POINT('',(1.288781537013,0.114059807576));
#840 = CARTESIAN_POINT('',(1.364842937446,0.115675900574));
#841 = CARTESIAN_POINT('',(1.440908041235,0.117277150243));
#842 = CARTESIAN_POINT('',(1.51698077807,0.118852820304));
#843 = CARTESIAN_POINT('',(1.593067734042,0.12039391172));
#844 = CARTESIAN_POINT('',(1.669179152195,0.121892695696));
#845 = CARTESIAN_POINT('',(1.745329251994,0.123342527861));
#846 = ( GEOMETRIC_REPRESENTATION_CONTEXT(2) 
PARAMETRIC_REPRESENTATION_CONTEXT() REPRESENTATION_CONTEXT('2D SPACE',''
  ) );
#847 = PCURVE('',#499,#848);
#848 = DEFINITIONAL_REPRESENTATION('',(#849),#873);
#849 = B_SPLINE_CURVE_WITH_KNOTS('',8,(#850,#851,#852,#853,#854,#855,
    #856,#857,#858,#859,#860,#861,#862,#863,#864,#865,#866,#867,#868,
    #869,#870,#871,#872),.UNSPECIFIED.,.F.,.F.,(9,7,7,9),(0.,
    0.296514900098,0.655597863384,1.),.UNSPECIFIED.);
#850 = CARTESIAN_POINT('',(1.631399268207,1.386331114438));
#851 = CARTESIAN_POINT('',(1.610873846338,1.390162975073));
#852 = CARTESIAN_POINT('',(1.588801427773,1.39248623946));
#853 = CARTESIAN_POINT('',(1.565760631297,1.393202816183));
#854 = CARTESIAN_POINT('',(1.542573635861,1.392266552085));
#855 = CARTESIAN_POINT('',(1.520275079502,1.38969136361));
#856 = CARTESIAN_POINT('',(1.499645864757,1.385553131643));
#857 = CARTESIAN_POINT('',(1.481100715527,1.379995450489));
#858 = CARTESIAN_POINT('',(1.445059361425,1.364967972494));
#859 = CARTESIAN_POINT('',(1.428630062876,1.354929050935));
#860 = CARTESIAN_POINT('',(1.415790165625,1.343410711818));
#861 = CARTESIAN_POINT('',(1.40615249229,1.330802438719));
#862 = CARTESIAN_POINT('',(1.399114394146,1.317438663975));
#863 = CARTESIAN_POINT('',(1.39425987233,1.30357797186));
#864 = CARTESIAN_POINT('',(1.391206655444,1.289426119015));
#865 = CARTESIAN_POINT('',(1.388203903877,1.261438586087));
#866 = CARTESIAN_POINT('',(1.388131896158,1.247611851372));
#867 = CARTESIAN_POINT('',(1.38920631993,1.233798609752));
#868 = CARTESIAN_POINT('',(1.391245764074,1.220107938907));
#869 = CARTESIAN_POINT('',(1.394116789042,1.206628658182));
#870 = CARTESIAN_POINT('',(1.397717383171,1.193435854841));
#871 = CARTESIAN_POINT('',(1.401966097412,1.180594779401));
#872 = CARTESIAN_POINT('',(1.40679685848,1.168162110046));
#873 = ( GEOMETRIC_REPRESENTATION_CONTEXT(2) 
PARAMETRIC_REPRESENTATION_CONTEXT() REPRESENTATION_CONTEXT('2D SPACE',''
  ) );
#874 = ORIENTED_EDGE('',*,*,#875,.T.);
#875 = EDGE_CURVE('',#793,#876,#878,.T.);
#876 = VERTEX_POINT('',#877);
#877 = CARTESIAN_POINT('',(-7.878462024098E-03,4.834252786109E-02,
    1.389185421335E-03));
#878 = SURFACE_CURVE('',#879,(#924,#972),.PCURVE_S1.);
#879 = B_SPLINE_CURVE_WITH_KNOTS('',8,(#880,#881,#882,#883,#884,#885,
    #886,#887,#888,#889,#890,#891,#892,#893,#894,#895,#896,#897,#898,
    #899,#900,#901,#902,#903,#904,#905,#906,#907,#908,#909,#910,#911,
    #912,#913,#914,#915,#916,#917,#918,#919,#920,#921,#922,#923),
  .UNSPECIFIED.,.F.,.F.,(9,7,7,7,7,7,9),(0.,0.266058061921,
    0.389195749053,0.500803286923,0.612367288049,0.807471907145,1.),
  .UNSPECIFIED.);
#880 = CARTESIAN_POINT('',(7.878462024098E-03,4.834252786109E-02,
    -1.389185421334E-03));
#881 = CARTESIAN_POINT('',(7.731765911829E-03,4.633202062213E-02,
    -2.221140415853E-03));
#882 = CARTESIAN_POINT('',(7.484835046888E-03,4.422826445145E-02,
    -3.034432986283E-03));
#883 = CARTESIAN_POINT('',(7.140448104209E-03,4.204832950534E-02,
    -3.815670465138E-03));
#884 = CARTESIAN_POINT('',(6.703346264876E-03,3.981298817149E-02,
    -4.551642317611E-03));
#885 = CARTESIAN_POINT('',(6.180447667858E-03,3.754935730159E-02,
    -5.229636571346E-03));
#886 = CARTESIAN_POINT('',(5.58099978031E-03,3.529192694591E-02,
    -5.838050541524E-03));
#887 = CARTESIAN_POINT('',(4.91626301947E-03,3.308972278483E-02,
    -6.367164865411E-03));
#888 = CARTESIAN_POINT('',(3.866767201324E-03,3.004928000555E-02,
    -7.01429176843E-03));
#889 = CARTESIAN_POINT('',(3.523480807472E-03,2.911396744365E-02,
    -7.200424176934E-03));
#890 = CARTESIAN_POINT('',(3.170329354047E-03,2.821244031764E-02,
    -7.367147181341E-03));
#891 = CARTESIAN_POINT('',(2.808832496768E-03,2.735277384548E-02,
    -7.513761097957E-03));
#892 = CARTESIAN_POINT('',(2.440635969668E-03,2.654403977295E-02,
    -7.639728738756E-03));
#893 = CARTESIAN_POINT('',(2.067467328458E-03,2.579598751218E-02,
    -7.744715850437E-03));
#894 = CARTESIAN_POINT('',(1.691069781167E-03,2.511835314642E-02,
    -7.828607071633E-03));
#895 = CARTESIAN_POINT('',(9.705487769027E-04,2.397728606451E-02,
    -7.948498930612E-03));
#896 = CARTESIAN_POINT('',(6.266647695172E-04,2.34996722919E-02,
    -7.988256078351E-03));
#897 = CARTESIAN_POINT('',(2.827445043056E-04,2.309349481427E-02,
    -8.010817000437E-03));
#898 = CARTESIAN_POINT('',(-6.016320484015E-05,2.276421256508E-02,
    -8.016431164805E-03));
#899 = CARTESIAN_POINT('',(-4.012993976013E-04,2.251590317756E-02,
    -8.005412013158E-03));
#900 = CARTESIAN_POINT('',(-7.401759191111E-04,2.235114578194E-02,
    -7.978035871697E-03));
#901 = CARTESIAN_POINT('',(-1.076481076656E-03,2.227108700256E-02,
    -7.934477117785E-03));
#902 = CARTESIAN_POINT('',(-1.743208859172E-03,2.228029151165E-02,
    -7.815105374562E-03));
#903 = CARTESIAN_POINT('',(-2.073668216501E-03,2.236948896226E-02,
    -7.739298781698E-03));
#904 = CARTESIAN_POINT('',(-2.400979955871E-03,2.2543225634E-02,
    -7.647415274781E-03));
#905 = CARTESIAN_POINT('',(-2.724777073698E-03,2.28002511293E-02,
    -7.539393073762E-03));
#906 = CARTESIAN_POINT('',(-3.044487799452E-03,2.313787590052E-02,
    -7.415141226854E-03));
#907 = CARTESIAN_POINT('',(-3.359272958443E-03,2.355191339252E-02,
    -7.274633655269E-03));
#908 = CARTESIAN_POINT('',(-3.668046578097E-03,2.403680995305E-02,
    -7.118009183561E-03));
#909 = CARTESIAN_POINT('',(-4.49690496501E-03,2.554632785798E-02,
    -6.644301696884E-03));
#910 = CARTESIAN_POINT('',(-5.001899812699E-03,2.670287557572E-02,
    -6.294987847334E-03));
#911 = CARTESIAN_POINT('',(-5.47838302572E-03,2.802082991801E-02,
    -5.899735566287E-03));
#912 = CARTESIAN_POINT('',(-5.920297738404E-03,2.945933839922E-02,
    -5.461749046213E-03));
#913 = CARTESIAN_POINT('',(-6.322260616684E-03,3.098235355743E-02,
    -4.985493038186E-03));
#914 = CARTESIAN_POINT('',(-6.680156152453E-03,3.256153811409E-02,
    -4.475971903364E-03));
#915 = CARTESIAN_POINT('',(-6.990828326753E-03,3.417412760082E-02,
    -3.938372829656E-03));
#916 = CARTESIAN_POINT('',(-7.509611867139E-03,3.740944714772E-02,
    -2.824562988663E-03));
#917 = CARTESIAN_POINT('',(-7.719039042184E-03,3.903185180424E-02,
    -2.248922267104E-03));
#918 = CARTESIAN_POINT('',(-7.877961724948E-03,4.065281821689E-02,
    -1.655719130984E-03));
#919 = CARTESIAN_POINT('',(-7.984699520838E-03,4.225897983866E-02,
    -1.050116479247E-03));
#920 = CARTESIAN_POINT('',(-8.03820413955E-03,4.383949172395E-02,
    -4.374492373795E-04));
#921 = CARTESIAN_POINT('',(-8.038076670892E-03,4.538526957824E-02,
    1.768822820677E-04));
#922 = CARTESIAN_POINT('',(-7.984553666021E-03,4.688851513518E-02,
    7.875098212854E-04));
#923 = CARTESIAN_POINT('',(-7.878462024097E-03,4.834252786109E-02,
    1.389185421337E-03));
#924 = PCURVE('',#377,#925);
#925 = DEFINITIONAL_REPRESENTATION('',(#926),#971);
#926 = B_SPLINE_CURVE_WITH_KNOTS('',8,(#927,#928,#929,#930,#931,#932,
    #933,#934,#935,#936,#937,#938,#939,#940,#941,#942,#943,#944,#945,
    #946,#947,#948,#949,#950,#951,#952,#953,#954,#955,#956,#957,#958,
    #959,#960,#961,#962,#963,#964,#965,#966,#967,#968,#969,#970),
  .UNSPECIFIED.,.F.,.F.,(9,7,7,7,7,7,9),(0.,0.266058061921,
    0.389195749053,0.500803286923,0.612367288049,0.807471907145,1.),
  .UNSPECIFIED.);
#927 = CARTESIAN_POINT('',(1.745329251994,0.123342527861));
#928 = CARTESIAN_POINT('',(1.85092790716,0.121332020622));
#929 = CARTESIAN_POINT('',(1.95640489718,0.119228264451));
#930 = CARTESIAN_POINT('',(2.061845606302,0.117048329505));
#931 = CARTESIAN_POINT('',(2.167297851803,0.114812988171));
#932 = CARTESIAN_POINT('',(2.27277282626,0.112549357302));
#933 = CARTESIAN_POINT('',(2.378251637406,0.110291926946));
#934 = CARTESIAN_POINT('',(2.483692432939,0.108089722785));
#935 = CARTESIAN_POINT('',(2.637813666719,0.105049280006));
#936 = CARTESIAN_POINT('',(2.686550624482,0.104113967444));
#937 = CARTESIAN_POINT('',(2.735240268481,0.103212440318));
#938 = CARTESIAN_POINT('',(2.783851421944,0.102352773845));
#939 = CARTESIAN_POINT('',(2.83234564273,0.101544039773));
#940 = CARTESIAN_POINT('',(2.88068038374,0.100795987512));
#941 = CARTESIAN_POINT('',(2.928813239227,0.100118353146));
#942 = CARTESIAN_POINT('',(3.020116697492,9.897728606451E-02));
#943 = CARTESIAN_POINT('',(3.063334809588,9.84996722919E-02));
#944 = CARTESIAN_POINT('',(3.106329550459,9.809349481427E-02));
#945 = CARTESIAN_POINT('',(3.149096099324,9.776421256508E-02));
#946 = CARTESIAN_POINT('',(3.191660237638,9.751590317756E-02));
#947 = CARTESIAN_POINT('',(3.234075678105,9.735114578194E-02));
#948 = CARTESIAN_POINT('',(3.276415362514,9.727108700256E-02));
#949 = CARTESIAN_POINT('',(3.361081577464,9.728029151165E-02));
#950 = CARTESIAN_POINT('',(3.403412392815,9.736948896226E-02));
#951 = CARTESIAN_POINT('',(3.445825806083,9.7543225634E-02));
#952 = CARTESIAN_POINT('',(3.488393221028,9.78002511293E-02));
#953 = CARTESIAN_POINT('',(3.531166309612,9.813787590052E-02));
#954 = CARTESIAN_POINT('',(3.574168593872,9.855191339252E-02));
#955 = CARTESIAN_POINT('',(3.617393113598,9.903680995305E-02));
#956 = CARTESIAN_POINT('',(3.736727531339,0.100546327858));
#957 = CARTESIAN_POINT('',(3.813198798685,0.101702875576));
#958 = CARTESIAN_POINT('',(3.890091920334,0.103020829918));
#959 = CARTESIAN_POINT('',(3.967258338618,0.104459338399));
#960 = CARTESIAN_POINT('',(4.044550535515,0.105982353557));
#961 = CARTESIAN_POINT('',(4.121878145304,0.107561538114));
#962 = CARTESIAN_POINT('',(4.199190878943,0.109174127601));
#963 = CARTESIAN_POINT('',(4.35277863499,0.112409447148));
#964 = CARTESIAN_POINT('',(4.429058535095,0.114031851804));
#965 = CARTESIAN_POINT('',(4.505339195125,0.115652818217));
#966 = CARTESIAN_POINT('',(4.581623521402,0.117258979839));
#967 = CARTESIAN_POINT('',(4.657915427104,0.118839491724));
#968 = CARTESIAN_POINT('',(4.734221541953,0.120385269578));
#969 = CARTESIAN_POINT('',(4.810552228582,0.121888515135));
#970 = CARTESIAN_POINT('',(4.886921905584,0.123342527861));
#971 = ( GEOMETRIC_REPRESENTATION_CONTEXT(2) 
PARAMETRIC_REPRESENTATION_CONTEXT() REPRESENTATION_CONTEXT('2D SPACE',''
  ) );
#972 = PCURVE('',#712,#973);
#973 = DEFINITIONAL_REPRESENTATION('',(#974),#1019);
#974 = B_SPLINE_CURVE_WITH_KNOTS('',8,(#975,#976,#977,#978,#979,#980,
    #981,#982,#983,#984,#985,#986,#987,#988,#989,#990,#991,#992,#993,
    #994,#995,#996,#997,#998,#999,#1000,#1001,#1002,#1003,#1004,#1005,
    #1006,#1007,#1008,#1009,#1010,#1011,#1012,#1013,#1014,#1015,#1016,
    #1017,#1018),.UNSPECIFIED.,.F.,.F.,(9,7,7,7,7,7,9),(0.,
    0.266058061921,0.389195749053,0.500803286923,0.612367288049,
    0.807471907145,1.),.UNSPECIFIED.);
#975 = CARTESIAN_POINT('',(1.40679685848,-1.168162110046));
#976 = CARTESIAN_POINT('',(1.400097958892,-1.185402706807));
#977 = CARTESIAN_POINT('',(1.394520922282,-1.203421091221));
#978 = CARTESIAN_POINT('',(1.390240349102,-1.222071627199));
#979 = CARTESIAN_POINT('',(1.387476215005,-1.241179831411));
#980 = CARTESIAN_POINT('',(1.386575313978,-1.260520935881));
#981 = CARTESIAN_POINT('',(1.387956912232,-1.279810797249));
#982 = CARTESIAN_POINT('',(1.392415774237,-1.298646861647));
#983 = CARTESIAN_POINT('',(1.404940741695,-1.324693862705));
#984 = CARTESIAN_POINT('',(1.409781860529,-1.332712955194));
#985 = CARTESIAN_POINT('',(1.415600142866,-1.34045000351));
#986 = CARTESIAN_POINT('',(1.422502198479,-1.347836650519));
#987 = CARTESIAN_POINT('',(1.430594920421,-1.354795255423));
#988 = CARTESIAN_POINT('',(1.439965874128,-1.361241277557));
#989 = CARTESIAN_POINT('',(1.450651581577,-1.367089093576));
#990 = CARTESIAN_POINT('',(1.473417604385,-1.376949101391));
#991 = CARTESIAN_POINT('',(1.485275059576,-1.3810824625));
#992 = CARTESIAN_POINT('',(1.49812387414,-1.384603011002));
#993 = CARTESIAN_POINT('',(1.511867116572,-1.387460923339));
#994 = CARTESIAN_POINT('',(1.526340168123,-1.389618210816));
#995 = CARTESIAN_POINT('',(1.541316935322,-1.391050347659));
#996 = CARTESIAN_POINT('',(1.556535222699,-1.39174618903));
#997 = CARTESIAN_POINT('',(1.586941377025,-1.391666184641));
#998 = CARTESIAN_POINT('',(1.602130106846,-1.390890911283));
#999 = CARTESIAN_POINT('',(1.617053570609,-1.389380811652));
#1000 = CARTESIAN_POINT('',(1.631451868774,-1.387148017953));
#1001 = CARTESIAN_POINT('',(1.645103050484,-1.384218067082));
#1002 = CARTESIAN_POINT('',(1.657847693925,-1.380629897397));
#1003 = CARTESIAN_POINT('',(1.669594103406,-1.37643411705));
#1004 = CARTESIAN_POINT('',(1.699033949051,-1.363392170861));
#1005 = CARTESIAN_POINT('',(1.71458789931,-1.353419345798));
#1006 = CARTESIAN_POINT('',(1.726772179473,-1.342081410717));
#1007 = CARTESIAN_POINT('',(1.73596487296,-1.329735291431));
#1008 = CARTESIAN_POINT('',(1.742707931675,-1.31668568881));
#1009 = CARTESIAN_POINT('',(1.747390069895,-1.303170445236));
#1010 = CARTESIAN_POINT('',(1.750361758442,-1.289378773657));
#1011 = CARTESIAN_POINT('',(1.75338709228,-1.261717612698));
#1012 = CARTESIAN_POINT('',(1.753479223841,-1.247850797071));
#1013 = CARTESIAN_POINT('',(1.752415663069,-1.233995962979));
#1014 = CARTESIAN_POINT('',(1.75037995721,-1.22026337983));
#1015 = CARTESIAN_POINT('',(1.747506985104,-1.206742759858));
#1016 = CARTESIAN_POINT('',(1.743899763336,-1.193509897518));
#1017 = CARTESIAN_POINT('',(1.739640485575,-1.18063062874));
#1018 = CARTESIAN_POINT('',(1.73479579511,-1.168162110046));
#1019 = ( GEOMETRIC_REPRESENTATION_CONTEXT(2) 
PARAMETRIC_REPRESENTATION_CONTEXT() REPRESENTATION_CONTEXT('2D SPACE',''
  ) );
#1020 = ORIENTED_EDGE('',*,*,#1021,.T.);
#1021 = EDGE_CURVE('',#876,#770,#1022,.T.);
#1022 = SURFACE_CURVE('',#1023,(#1040,#1060),.PCURVE_S1.);
#1023 = B_SPLINE_CURVE_WITH_KNOTS('',8,(#1024,#1025,#1026,#1027,#1028,
    #1029,#1030,#1031,#1032,#1033,#1034,#1035,#1036,#1037,#1038,#1039),
  .UNSPECIFIED.,.F.,.F.,(9,7,9),(0.,0.59502340495,1.),.UNSPECIFIED.);
#1024 = CARTESIAN_POINT('',(-7.878462024098E-03,4.834252786109E-02,
    1.389185421334E-03));
#1025 = CARTESIAN_POINT('',(-7.733294755357E-03,4.63529738085E-02,
    2.212469913348E-03));
#1026 = CARTESIAN_POINT('',(-7.48996715785E-03,4.427205077231E-02,
    3.017501364441E-03));
#1027 = CARTESIAN_POINT('',(-7.151166018236E-03,4.21163353846E-02,
    3.791280110407E-03));
#1028 = CARTESIAN_POINT('',(-6.721472603756E-03,3.990596930802E-02,
    4.520988174177E-03));
#1029 = CARTESIAN_POINT('',(-6.207556935827E-03,3.766709338611E-02,
    5.194296714403E-03));
#1030 = CARTESIAN_POINT('',(-5.618311413429E-03,3.543292360813E-02,
    5.799939190238E-03));
#1031 = CARTESIAN_POINT('',(-4.964552517097E-03,3.325030903112E-02,
    6.328432727478E-03));
#1032 = CARTESIAN_POINT('',(-3.777751563801E-03,2.977872096408E-02,
    7.074667806945E-03));
#1033 = CARTESIAN_POINT('',(-3.272347193312E-03,2.842551973941E-02,
    7.33806220671E-03));
#1034 = CARTESIAN_POINT('',(-2.746756379887E-03,2.714833845652E-02,
    7.55964593543E-03));
#1035 = CARTESIAN_POINT('',(-2.206194767433E-03,2.597428834325E-02,
    7.737239265635E-03));
#1036 = CARTESIAN_POINT('',(-1.656261970856E-03,2.49336258943E-02,
    7.869615460633E-03));
#1037 = CARTESIAN_POINT('',(-1.102471747232E-03,2.40584403683E-02,
    7.95691866676E-03));
#1038 = CARTESIAN_POINT('',(-5.491488883293E-04,2.337386476719E-02,
    8.E-03));
#1039 = CARTESIAN_POINT('',(-1.734723475977E-18,2.289466942882E-02,
    8.E-03));
#1040 = PCURVE('',#377,#1041);
#1041 = DEFINITIONAL_REPRESENTATION('',(#1042),#1059);
#1042 = B_SPLINE_CURVE_WITH_KNOTS('',8,(#1043,#1044,#1045,#1046,#1047,
    #1048,#1049,#1050,#1051,#1052,#1053,#1054,#1055,#1056,#1057,#1058),
  .UNSPECIFIED.,.F.,.F.,(9,7,9),(0.,0.59502340495,1.),.UNSPECIFIED.);
#1043 = CARTESIAN_POINT('',(4.886921905584,0.123342527861));
#1044 = CARTESIAN_POINT('',(4.991420028377,0.121352973808));
#1045 = CARTESIAN_POINT('',(5.095801853711,0.119272050772));
#1046 = CARTESIAN_POINT('',(5.200147622936,0.117116335385));
#1047 = CARTESIAN_POINT('',(5.30450253486,0.114905969308));
#1048 = CARTESIAN_POINT('',(5.408877869536,0.112667093386));
#1049 = CARTESIAN_POINT('',(5.513256896441,0.110432923608));
#1050 = CARTESIAN_POINT('',(5.617601920233,0.108250309031));
#1051 = CARTESIAN_POINT('',(5.792841189545,0.104778720964));
#1052 = CARTESIAN_POINT('',(5.863848367515,0.103425519739));
#1053 = CARTESIAN_POINT('',(5.934754830359,0.102148338457));
#1054 = CARTESIAN_POINT('',(6.005408734283,0.100974288343));
#1055 = CARTESIAN_POINT('',(6.0756594577,9.99336258943E-02));
#1056 = CARTESIAN_POINT('',(6.145376382579,9.90584403683E-02));
#1057 = CARTESIAN_POINT('',(6.214541696138,9.837386476719E-02));
#1058 = CARTESIAN_POINT('',(6.28318530718,9.789466942882E-02));
#1059 = ( GEOMETRIC_REPRESENTATION_CONTEXT(2) 
PARAMETRIC_REPRESENTATION_CONTEXT() REPRESENTATION_CONTEXT('2D SPACE',''
  ) );
#1060 = PCURVE('',#499,#1061);
#1061 = DEFINITIONAL_REPRESENTATION('',(#1062),#1079);
#1062 = B_SPLINE_CURVE_WITH_KNOTS('',8,(#1063,#1064,#1065,#1066,#1067,
    #1068,#1069,#1070,#1071,#1072,#1073,#1074,#1075,#1076,#1077,#1078),
  .UNSPECIFIED.,.F.,.F.,(9,7,9),(0.,0.59502340495,1.),.UNSPECIFIED.);
#1063 = CARTESIAN_POINT('',(1.73479579511,1.168162110046));
#1064 = CARTESIAN_POINT('',(1.741424879833,1.185223028053));
#1065 = CARTESIAN_POINT('',(1.746955508459,1.203046065669));
#1066 = CARTESIAN_POINT('',(1.751218462726,1.221489793704));
#1067 = CARTESIAN_POINT('',(1.754000182684,1.240384996612));
#1068 = CARTESIAN_POINT('',(1.754968623104,1.25951495568));
#1069 = CARTESIAN_POINT('',(1.753718104862,1.278605976665));
#1070 = CARTESIAN_POINT('',(1.749494959197,1.297273363615));
#1071 = CARTESIAN_POINT('',(1.73574774724,1.32701034054));
#1072 = CARTESIAN_POINT('',(1.728341989455,1.338614790852));
#1073 = CARTESIAN_POINT('',(1.718792655589,1.349584711573));
#1074 = CARTESIAN_POINT('',(1.7067626562,1.359689449321));
#1075 = CARTESIAN_POINT('',(1.691944711073,1.368669426263));
#1076 = CARTESIAN_POINT('',(1.674114861369,1.376240771496));
#1077 = CARTESIAN_POINT('',(1.653668761702,1.382173655652));
#1078 = CARTESIAN_POINT('',(1.631399268207,1.386331114438));
#1079 = ( GEOMETRIC_REPRESENTATION_CONTEXT(2) 
PARAMETRIC_REPRESENTATION_CONTEXT() REPRESENTATION_CONTEXT('2D SPACE',''
  ) );
#1080 = ORIENTED_EDGE('',*,*,#769,.T.);
#1081 = ADVANCED_FACE('',(#1082),#499,.F.);
#1082 = FACE_BOUND('',#1083,.F.);
#1083 = EDGE_LOOP('',(#1084,#1108,#1132,#1133,#1155,#1156,#1157,#1179,
    #1180));
#1084 = ORIENTED_EDGE('',*,*,#1085,.T.);
#1085 = EDGE_CURVE('',#444,#1086,#1088,.T.);
#1086 = VERTEX_POINT('',#1087);
#1087 = CARTESIAN_POINT('',(4.82555798976E-02,-1.200153863164E-17,
    -8.50876070568E-03));
#1088 = SURFACE_CURVE('',#1089,(#1094,#1101),.PCURVE_S1.);
#1089 = CIRCLE('',#1090,4.9E-02);
#1090 = AXIS2_PLACEMENT_3D('',#1091,#1092,#1093);
#1091 = CARTESIAN_POINT('',(0.,0.,0.));
#1092 = DIRECTION('',(0.173648177667,0.,0.984807753012));
#1093 = DIRECTION('',(0.,-1.,0.));
#1094 = PCURVE('',#499,#1095);
#1095 = DEFINITIONAL_REPRESENTATION('',(#1096),#1100);
#1096 = LINE('',#1097,#1098);
#1097 = CARTESIAN_POINT('',(-1.570796326795,1.168162110046));
#1098 = VECTOR('',#1099,1.);
#1099 = DIRECTION('',(1.,0.));
#1100 = ( GEOMETRIC_REPRESENTATION_CONTEXT(2) 
PARAMETRIC_REPRESENTATION_CONTEXT() REPRESENTATION_CONTEXT('2D SPACE',''
  ) );
#1101 = PCURVE('',#712,#1102);
#1102 = DEFINITIONAL_REPRESENTATION('',(#1103),#1107);
#1103 = LINE('',#1104,#1105);
#1104 = CARTESIAN_POINT('',(-1.570796326795,-1.168162110046));
#1105 = VECTOR('',#1106,1.);
#1106 = DIRECTION('',(1.,0.));
#1107 = ( GEOMETRIC_REPRESENTATION_CONTEXT(2) 
PARAMETRIC_REPRESENTATION_CONTEXT() REPRESENTATION_CONTEXT('2D SPACE',''
  ) );
#1108 = ORIENTED_EDGE('',*,*,#1109,.T.);
#1109 = EDGE_CURVE('',#1086,#1110,#1112,.T.);
#1110 = VERTEX_POINT('',#1111);
#1111 = CARTESIAN_POINT('',(1.736481776669E-03,-1.875449608219E-33,
    9.848077530122E-03));
#1112 = SEAM_CURVE('',#1113,(#1118,#1125),.PCURVE_S1.);
#1113 = CIRCLE('',#1114,0.12505);
#1114 = AXIS2_PLACEMENT_3D('',#1115,#1116,#1117);
#1115 = CARTESIAN_POINT('',(-1.997822284058E-02,0.,-0.113302131984));
#1116 = DIRECTION('',(-2.412083325004E-16,-1.,4.253153699152E-17));
#1117 = DIRECTION('',(0.984807753012,-2.449293598295E-16,-0.173648177667
    ));
#1118 = PCURVE('',#499,#1119);
#1119 = DEFINITIONAL_REPRESENTATION('',(#1120),#1124);
#1120 = LINE('',#1121,#1122);
#1121 = CARTESIAN_POINT('',(0.,-6.28318530718));
#1122 = VECTOR('',#1123,1.);
#1123 = DIRECTION('',(0.,1.));
#1124 = ( GEOMETRIC_REPRESENTATION_CONTEXT(2) 
PARAMETRIC_REPRESENTATION_CONTEXT() REPRESENTATION_CONTEXT('2D SPACE',''
  ) );
#1125 = PCURVE('',#499,#1126);
#1126 = DEFINITIONAL_REPRESENTATION('',(#1127),#1131);
#1127 = LINE('',#1128,#1129);
#1128 = CARTESIAN_POINT('',(6.28318530718,-6.28318530718));
#1129 = VECTOR('',#1130,1.);
#1130 = DIRECTION('',(0.,1.));
#1131 = ( GEOMETRIC_REPRESENTATION_CONTEXT(2) 
PARAMETRIC_REPRESENTATION_CONTEXT() REPRESENTATION_CONTEXT('2D SPACE',''
  ) );
#1132 = ORIENTED_EDGE('',*,*,#1109,.F.);
#1133 = ORIENTED_EDGE('',*,*,#1134,.T.);
#1134 = EDGE_CURVE('',#1086,#793,#1135,.T.);
#1135 = SURFACE_CURVE('',#1136,(#1141,#1148),.PCURVE_S1.);
#1136 = CIRCLE('',#1137,4.9E-02);
#1137 = AXIS2_PLACEMENT_3D('',#1138,#1139,#1140);
#1138 = CARTESIAN_POINT('',(0.,0.,0.));
#1139 = DIRECTION('',(0.173648177667,0.,0.984807753012));
#1140 = DIRECTION('',(0.,-1.,0.));
#1141 = PCURVE('',#499,#1142);
#1142 = DEFINITIONAL_REPRESENTATION('',(#1143),#1147);
#1143 = LINE('',#1144,#1145);
#1144 = CARTESIAN_POINT('',(-1.570796326795,1.168162110046));
#1145 = VECTOR('',#1146,1.);
#1146 = DIRECTION('',(1.,0.));
#1147 = ( GEOMETRIC_REPRESENTATION_CONTEXT(2) 
PARAMETRIC_REPRESENTATION_CONTEXT() REPRESENTATION_CONTEXT('2D SPACE',''
  ) );
#1148 = PCURVE('',#712,#1149);
#1149 = DEFINITIONAL_REPRESENTATION('',(#1150),#1154);
#1150 = LINE('',#1151,#1152);
#1151 = CARTESIAN_POINT('',(-1.570796326795,-1.168162110046));
#1152 = VECTOR('',#1153,1.);
#1153 = DIRECTION('',(1.,0.));
#1154 = ( GEOMETRIC_REPRESENTATION_CONTEXT(2) 
PARAMETRIC_REPRESENTATION_CONTEXT() REPRESENTATION_CONTEXT('2D SPACE',''
  ) );
#1155 = ORIENTED_EDGE('',*,*,#792,.F.);
#1156 = ORIENTED_EDGE('',*,*,#1021,.F.);
#1157 = ORIENTED_EDGE('',*,*,#1158,.T.);
#1158 = EDGE_CURVE('',#876,#555,#1159,.T.);
#1159 = SURFACE_CURVE('',#1160,(#1165,#1172),.PCURVE_S1.);
#1160 = CIRCLE('',#1161,4.9E-02);
#1161 = AXIS2_PLACEMENT_3D('',#1162,#1163,#1164);
#1162 = CARTESIAN_POINT('',(0.,0.,0.));
#1163 = DIRECTION('',(0.173648177667,0.,0.984807753012));
#1164 = DIRECTION('',(0.,-1.,0.));
#1165 = PCURVE('',#499,#1166);
#1166 = DEFINITIONAL_REPRESENTATION('',(#1167),#1171);
#1167 = LINE('',#1168,#1169);
#1168 = CARTESIAN_POINT('',(-1.570796326795,1.168162110046));
#1169 = VECTOR('',#1170,1.);
#1170 = DIRECTION('',(1.,0.));
#1171 = ( GEOMETRIC_REPRESENTATION_CONTEXT(2) 
PARAMETRIC_REPRESENTATION_CONTEXT() REPRESENTATION_CONTEXT('2D SPACE',''
  ) );
#1172 = PCURVE('',#712,#1173);
#1173 = DEFINITIONAL_REPRESENTATION('',(#1174),#1178);
#1174 = LINE('',#1175,#1176);
#1175 = CARTESIAN_POINT('',(-1.570796326795,-1.168162110046));
#1176 = VECTOR('',#1177,1.);
#1177 = DIRECTION('',(1.,0.));
#1178 = ( GEOMETRIC_REPRESENTATION_CONTEXT(2) 
PARAMETRIC_REPRESENTATION_CONTEXT() REPRESENTATION_CONTEXT('2D SPACE',''
  ) );
#1179 = ORIENTED_EDGE('',*,*,#554,.T.);
#1180 = ORIENTED_EDGE('',*,*,#441,.T.);
#1181 = ADVANCED_FACE('',(#1182),#712,.F.);
#1182 = FACE_BOUND('',#1183,.F.);
#1183 = EDGE_LOOP('',(#1184,#1208,#1209,#1210,#1211,#1212,#1213));
#1184 = ORIENTED_EDGE('',*,*,#1185,.T.);
#1185 = EDGE_CURVE('',#1186,#1086,#1188,.T.);
#1186 = VERTEX_POINT('',#1187);
#1187 = CARTESIAN_POINT('',(-1.736481776669E-03,-1.875449608219E-33,
    -9.848077530122E-03));
#1188 = SEAM_CURVE('',#1189,(#1194,#1201),.PCURVE_S1.);
#1189 = CIRCLE('',#1190,0.12505);
#1190 = AXIS2_PLACEMENT_3D('',#1191,#1192,#1193);
#1191 = CARTESIAN_POINT('',(1.997822284058E-02,0.,0.113302131984));
#1192 = DIRECTION('',(-2.412083325004E-16,-1.,4.253153699152E-17));
#1193 = DIRECTION('',(0.984807753012,-2.449293598295E-16,-0.173648177667
    ));
#1194 = PCURVE('',#712,#1195);
#1195 = DEFINITIONAL_REPRESENTATION('',(#1196),#1200);
#1196 = LINE('',#1197,#1198);
#1197 = CARTESIAN_POINT('',(6.28318530718,-6.28318530718));
#1198 = VECTOR('',#1199,1.);
#1199 = DIRECTION('',(0.,1.));
#1200 = ( GEOMETRIC_REPRESENTATION_CONTEXT(2) 
PARAMETRIC_REPRESENTATION_CONTEXT() REPRESENTATION_CONTEXT('2D SPACE',''
  ) );
#1201 = PCURVE('',#712,#1202);
#1202 = DEFINITIONAL_REPRESENTATION('',(#1203),#1207);
#1203 = LINE('',#1204,#1205);
#1204 = CARTESIAN_POINT('',(0.,-6.28318530718));
#1205 = VECTOR('',#1206,1.);
#1206 = DIRECTION('',(0.,1.));
#1207 = ( GEOMETRIC_REPRESENTATION_CONTEXT(2) 
PARAMETRIC_REPRESENTATION_CONTEXT() REPRESENTATION_CONTEXT('2D SPACE',''
  ) );
#1208 = ORIENTED_EDGE('',*,*,#1085,.F.);
#1209 = ORIENTED_EDGE('',*,*,#616,.T.);
#1210 = ORIENTED_EDGE('',*,*,#1158,.F.);
#1211 = ORIENTED_EDGE('',*,*,#875,.F.);
#1212 = ORIENTED_EDGE('',*,*,#1134,.F.);
#1213 = ORIENTED_EDGE('',*,*,#1185,.F.);
#1214 = ( GEOMETRIC_REPRESENTATION_CONTEXT(3) 
GLOBAL_UNCERTAINTY_ASSIGNED_CONTEXT((#1218)) 
GLOBAL_UNIT_ASSIGNED_CONTEXT((#1215,#1216,#1217)) REPRESENTATION_CONTEXT
('Context #1','3D Context with UNIT and UNCERTAINTY') );
#1215 = ( LENGTH_UNIT() NAMED_UNIT(*) SI_UNIT($,.METRE.) );
#1216 = ( NAMED_UNIT(*) PLANE_ANGLE_UNIT() SI_UNIT($,.RADIAN.) );
#1217 = ( NAMED_UNIT(*) SI_UNIT($,.STERADIAN.) SOLID_ANGLE_UNIT() );
#1218 = UNCERTAINTY_MEASURE_WITH_UNIT(LENGTH_MEASURE(1.E-07),#1215,
  'distance_accuracy_value','confusion accuracy');
#1219 = CONTEXT_DEPENDENT_SHAPE_REPRESENTATION(#1220,#1222);
#1220 = ( REPRESENTATION_RELATIONSHIP('','',#32,#10) 
REPRESENTATION_RELATIONSHIP_WITH_TRANSFORMATION(#1221) 
SHAPE_REPRESENTATION_RELATIONSHIP() );
#1221 = ITEM_DEFINED_TRANSFORMATION('','',#11,#15);
#1222 = PRODUCT_DEFINITION_SHAPE('Placement','Placement of an item',
  #1223);
#1223 = NEXT_ASSEMBLY_USAGE_OCCURRENCE('2','Fluido','',#5,#27,$);
#1224 = PRODUCT_RELATED_PRODUCT_CATEGORY('part',$,(#29));
#1225 = MECHANICAL_DESIGN_GEOMETRIC_PRESENTATION_REPRESENTATION('',(
    #1226),#1214);
#1226 = STYLED_ITEM('color',(#1227),#33);
#1227 = PRESENTATION_STYLE_ASSIGNMENT((#1228));
#1228 = SURFACE_STYLE_USAGE(.BOTH.,#1229);
#1229 = SURFACE_SIDE_STYLE('',(#1230));
#1230 = SURFACE_STYLE_FILL_AREA(#1231);
#1231 = FILL_AREA_STYLE('',(#1232));
#1232 = FILL_AREA_STYLE_COLOUR('',#1233);
#1233 = COLOUR_RGB('',0.274509682866,0.509803958822,0.705882339664);
ENDSEC;
END-ISO-10303-21;
