ISO-10303-21;
HEADER;
FILE_DESCRIPTION(('Open CASCADE Model'),'2;1');
FILE_NAME('Open CASCADE Shape Model','2026-08-18T19:31:34',('Author'),(
    'Open CASCADE'),'Open CASCADE STEP processor 7.9','Open CASCADE 7.9'
  ,'Unknown');
FILE_SCHEMA(('AUTOMOTIVE_DESIGN { 1 0 10303 214 1 1 1 1 }'));
ENDSEC;
DATA;
#1 = APPLICATION_PROTOCOL_DEFINITION('international standard',
  'automotive_design',2000,#2);
#2 = APPLICATION_CONTEXT(
  'core data for automotive mechanical design processes');
#3 = SHAPE_DEFINITION_REPRESENTATION(#4,#10);
#4 = PRODUCT_DEFINITION_SHAPE('','',#5);
#5 = PRODUCT_DEFINITION('design','',#6,#9);
#6 = PRODUCT_DEFINITION_FORMATION('','',#7);
#7 = PRODUCT('Fluido_50graus','Fluido_50graus','',(#8));
#8 = PRODUCT_CONTEXT('',#2,'mechanical');
#9 = PRODUCT_DEFINITION_CONTEXT('part definition',#2,'design');
#10 = SHAPE_REPRESENTATION('',(#11,#15),#19);
#11 = AXIS2_PLACEMENT_3D('',#12,#13,#14);
#12 = CARTESIAN_POINT('',(0.,0.,0.));
#13 = DIRECTION('',(0.,0.,1.));
#14 = DIRECTION('',(1.,0.,-0.));
#15 = AXIS2_PLACEMENT_3D('',#16,#17,#18);
#16 = CARTESIAN_POINT('',(0.,0.,0.));
#17 = DIRECTION('',(0.,0.,1.));
#18 = DIRECTION('',(1.,0.,-0.));
#19 = ( GEOMETRIC_REPRESENTATION_CONTEXT(3) 
GLOBAL_UNCERTAINTY_ASSIGNED_CONTEXT((#23)) GLOBAL_UNIT_ASSIGNED_CONTEXT(
(#20,#21,#22)) REPRESENTATION_CONTEXT('Context #1',
  '3D Context with UNIT and UNCERTAINTY') );
#20 = ( LENGTH_UNIT() NAMED_UNIT(*) SI_UNIT($,.METRE.) );
#21 = ( NAMED_UNIT(*) PLANE_ANGLE_UNIT() SI_UNIT($,.RADIAN.) );
#22 = ( NAMED_UNIT(*) SI_UNIT($,.STERADIAN.) SOLID_ANGLE_UNIT() );
#23 = UNCERTAINTY_MEASURE_WITH_UNIT(LENGTH_MEASURE(1.E-07),#20,
  'distance_accuracy_value','confusion accuracy');
#24 = PRODUCT_RELATED_PRODUCT_CATEGORY('part',$,(#7));
#25 = SHAPE_DEFINITION_REPRESENTATION(#26,#32);
#26 = PRODUCT_DEFINITION_SHAPE('','',#27);
#27 = PRODUCT_DEFINITION('design','',#28,#31);
#28 = PRODUCT_DEFINITION_FORMATION('','',#29);
#29 = PRODUCT('Fluido','Fluido','',(#30));
#30 = PRODUCT_CONTEXT('',#2,'mechanical');
#31 = PRODUCT_DEFINITION_CONTEXT('part definition',#2,'design');
#32 = ADVANCED_BREP_SHAPE_REPRESENTATION('',(#11,#33),#1256);
#33 = MANIFOLD_SOLID_BREP('',#34);
#34 = CLOSED_SHELL('',(#35,#429,#433,#437,#785,#1123,#1223));
#35 = ADVANCED_FACE('',(#36,#123,#276),#50,.T.);
#36 = FACE_BOUND('',#37,.T.);
#37 = EDGE_LOOP('',(#38,#68,#95,#96));
#38 = ORIENTED_EDGE('',*,*,#39,.T.);
#39 = EDGE_CURVE('',#40,#42,#44,.T.);
#40 = VERTEX_POINT('',#41);
#41 = CARTESIAN_POINT('',(-0.5,1.224646799147E-17,5.E-02));
#42 = VERTEX_POINT('',#43);
#43 = CARTESIAN_POINT('',(1.,1.224646799147E-17,5.E-02));
#44 = SEAM_CURVE('',#45,(#49,#61),.PCURVE_S1.);
#45 = LINE('',#46,#47);
#46 = CARTESIAN_POINT('',(-0.5,1.224646799147E-17,5.E-02));
#47 = VECTOR('',#48,1.);
#48 = DIRECTION('',(1.,0.,0.));
#49 = PCURVE('',#50,#55);
#50 = CYLINDRICAL_SURFACE('',#51,5.E-02);
#51 = AXIS2_PLACEMENT_3D('',#52,#53,#54);
#52 = CARTESIAN_POINT('',(-0.5,0.,0.));
#53 = DIRECTION('',(1.,0.,0.));
#54 = DIRECTION('',(-0.,0.,1.));
#55 = DEFINITIONAL_REPRESENTATION('',(#56),#60);
#56 = LINE('',#57,#58);
#57 = CARTESIAN_POINT('',(6.28318530718,-0.));
#58 = VECTOR('',#59,1.);
#59 = DIRECTION('',(0.,1.));
#60 = ( GEOMETRIC_REPRESENTATION_CONTEXT(2) 
PARAMETRIC_REPRESENTATION_CONTEXT() REPRESENTATION_CONTEXT('2D SPACE',''
  ) );
#61 = PCURVE('',#50,#62);
#62 = DEFINITIONAL_REPRESENTATION('',(#63),#67);
#63 = LINE('',#64,#65);
#64 = CARTESIAN_POINT('',(0.,-0.));
#65 = VECTOR('',#66,1.);
#66 = DIRECTION('',(0.,1.));
#67 = ( GEOMETRIC_REPRESENTATION_CONTEXT(2) 
PARAMETRIC_REPRESENTATION_CONTEXT() REPRESENTATION_CONTEXT('2D SPACE',''
  ) );
#68 = ORIENTED_EDGE('',*,*,#69,.F.);
#69 = EDGE_CURVE('',#42,#42,#70,.T.);
#70 = SURFACE_CURVE('',#71,(#76,#83),.PCURVE_S1.);
#71 = CIRCLE('',#72,5.E-02);
#72 = AXIS2_PLACEMENT_3D('',#73,#74,#75);
#73 = CARTESIAN_POINT('',(1.,0.,0.));
#74 = DIRECTION('',(1.,0.,0.));
#75 = DIRECTION('',(-0.,0.,1.));
#76 = PCURVE('',#50,#77);
#77 = DEFINITIONAL_REPRESENTATION('',(#78),#82);
#78 = LINE('',#79,#80);
#79 = CARTESIAN_POINT('',(0.,1.5));
#80 = VECTOR('',#81,1.);
#81 = DIRECTION('',(1.,0.));
#82 = ( GEOMETRIC_REPRESENTATION_CONTEXT(2) 
PARAMETRIC_REPRESENTATION_CONTEXT() REPRESENTATION_CONTEXT('2D SPACE',''
  ) );
#83 = PCURVE('',#84,#89);
#84 = PLANE('',#85);
#85 = AXIS2_PLACEMENT_3D('',#86,#87,#88);
#86 = CARTESIAN_POINT('',(1.,0.,0.));
#87 = DIRECTION('',(1.,0.,0.));
#88 = DIRECTION('',(-0.,0.,1.));
#89 = DEFINITIONAL_REPRESENTATION('',(#90),#94);
#90 = CIRCLE('',#91,5.E-02);
#91 = AXIS2_PLACEMENT_2D('',#92,#93);
#92 = CARTESIAN_POINT('',(0.,0.));
#93 = DIRECTION('',(1.,0.));
#94 = ( GEOMETRIC_REPRESENTATION_CONTEXT(2) 
PARAMETRIC_REPRESENTATION_CONTEXT() REPRESENTATION_CONTEXT('2D SPACE',''
  ) );
#95 = ORIENTED_EDGE('',*,*,#39,.F.);
#96 = ORIENTED_EDGE('',*,*,#97,.T.);
#97 = EDGE_CURVE('',#40,#40,#98,.T.);
#98 = SURFACE_CURVE('',#99,(#104,#111),.PCURVE_S1.);
#99 = CIRCLE('',#100,5.E-02);
#100 = AXIS2_PLACEMENT_3D('',#101,#102,#103);
#101 = CARTESIAN_POINT('',(-0.5,0.,0.));
#102 = DIRECTION('',(1.,0.,0.));
#103 = DIRECTION('',(-0.,0.,1.));
#104 = PCURVE('',#50,#105);
#105 = DEFINITIONAL_REPRESENTATION('',(#106),#110);
#106 = LINE('',#107,#108);
#107 = CARTESIAN_POINT('',(0.,0.));
#108 = VECTOR('',#109,1.);
#109 = DIRECTION('',(1.,0.));
#110 = ( GEOMETRIC_REPRESENTATION_CONTEXT(2) 
PARAMETRIC_REPRESENTATION_CONTEXT() REPRESENTATION_CONTEXT('2D SPACE',''
  ) );
#111 = PCURVE('',#112,#117);
#112 = PLANE('',#113);
#113 = AXIS2_PLACEMENT_3D('',#114,#115,#116);
#114 = CARTESIAN_POINT('',(-0.5,0.,0.));
#115 = DIRECTION('',(1.,0.,0.));
#116 = DIRECTION('',(-0.,0.,1.));
#117 = DEFINITIONAL_REPRESENTATION('',(#118),#122);
#118 = CIRCLE('',#119,5.E-02);
#119 = AXIS2_PLACEMENT_2D('',#120,#121);
#120 = CARTESIAN_POINT('',(0.,0.));
#121 = DIRECTION('',(1.,0.));
#122 = ( GEOMETRIC_REPRESENTATION_CONTEXT(2) 
PARAMETRIC_REPRESENTATION_CONTEXT() REPRESENTATION_CONTEXT('2D SPACE',''
  ) );
#123 = FACE_BOUND('',#124,.T.);
#124 = EDGE_LOOP('',(#125));
#125 = ORIENTED_EDGE('',*,*,#126,.T.);
#126 = EDGE_CURVE('',#127,#127,#129,.T.);
#127 = VERTEX_POINT('',#128);
#128 = CARTESIAN_POINT('',(-1.959434878636E-18,-4.935585071701E-02,
    8.E-03));
#129 = SURFACE_CURVE('',#130,(#175,#223),.PCURVE_S1.);
#130 = B_SPLINE_CURVE_WITH_KNOTS('',8,(#131,#132,#133,#134,#135,#136,
    #137,#138,#139,#140,#141,#142,#143,#144,#145,#146,#147,#148,#149,
    #150,#151,#152,#153,#154,#155,#156,#157,#158,#159,#160,#161,#162,
    #163,#164,#165,#166,#167,#168,#169,#170,#171,#172,#173,#174),
  .UNSPECIFIED.,.T.,.F.,(9,7,7,7,7,7,9),(0.,0.139446999999,
    0.290711047851,0.500652341094,0.639735947188,0.790605806321,1.),
  .UNSPECIFIED.);
#131 = CARTESIAN_POINT('',(-1.734723475977E-18,-4.935585071701E-02,
    8.E-03));
#132 = CARTESIAN_POINT('',(8.83192481735E-04,-4.935585071701E-02,8.E-03)
  );
#133 = CARTESIAN_POINT('',(1.764819183317E-03,-4.937383209112E-02,
    7.888541975783E-03));
#134 = CARTESIAN_POINT('',(2.629239797021E-03,-4.940994971838E-02,
    7.666373094318E-03));
#135 = CARTESIAN_POINT('',(3.460586417668E-03,-4.94620293382E-02,
    7.336583290209E-03));
#136 = CARTESIAN_POINT('',(4.243374203103E-03,-4.952618040107E-02,
    6.904862078398E-03));
#137 = CARTESIAN_POINT('',(4.963112034685E-03,-4.959740891922E-02,
    6.379755366867E-03));
#138 = CARTESIAN_POINT('',(5.606913177773E-03,-4.967023031737E-02,
    5.772922269341E-03));
#139 = CARTESIAN_POINT('',(6.768516456475E-03,-4.981418586606E-02,
    4.368785111835E-03));
#140 = CARTESIAN_POINT('',(7.271613076615E-03,-4.988480284108E-02,
    3.559089185093E-03));
#141 = CARTESIAN_POINT('',(7.660870364966E-03,-4.994464210693E-02,
    2.688605692072E-03));
#142 = CARTESIAN_POINT('',(7.93377292135E-03,-4.998893640042E-02,
    1.769246455985E-03));
#143 = CARTESIAN_POINT('',(8.076681013922E-03,-5.001272522343E-02,
    8.228671232586E-04));
#144 = CARTESIAN_POINT('',(8.095963897651E-03,-5.001548411034E-02,
    -1.315654550236E-04));
#145 = CARTESIAN_POINT('',(7.981904161422E-03,-4.999657690544E-02,
    -1.081113665575E-03));
#146 = CARTESIAN_POINT('',(7.424950095632E-03,-4.991019548285E-02,
    -3.250306533836E-03));
#147 = CARTESIAN_POINT('',(6.861907959805E-03,-4.98252274177E-02,
    -4.469503626413E-03));
#148 = CARTESIAN_POINT('',(6.06597478154E-03,-4.971244248905E-02,
    -5.574176043587E-03));
#149 = CARTESIAN_POINT('',(5.070869579044E-03,-4.958954915689E-02,
    -6.511983258196E-03));
#150 = CARTESIAN_POINT('',(3.919113723493E-03,-4.947825380243E-02,
    -7.2447906268E-03));
#151 = CARTESIAN_POINT('',(2.656669854292E-03,-4.939701071676E-02,
    -7.746076325063E-03));
#152 = CARTESIAN_POINT('',(1.333144696235E-03,-4.935585071701E-02,
    -8.E-03));
#153 = CARTESIAN_POINT('',(-8.831924817348E-04,-4.935585071701E-02,
    -8.E-03));
#154 = CARTESIAN_POINT('',(-1.764819183316E-03,-4.937383209112E-02,
    -7.888541975783E-03));
#155 = CARTESIAN_POINT('',(-2.629239797021E-03,-4.940994971838E-02,
    -7.666373094318E-03));
#156 = CARTESIAN_POINT('',(-3.460586417668E-03,-4.94620293382E-02,
    -7.336583290209E-03));
#157 = CARTESIAN_POINT('',(-4.243374203103E-03,-4.952618040107E-02,
    -6.904862078398E-03));
#158 = CARTESIAN_POINT('',(-4.963112034685E-03,-4.959740891922E-02,
    -6.379755366867E-03));
#159 = CARTESIAN_POINT('',(-5.606913177772E-03,-4.967023031737E-02,
    -5.772922269341E-03));
#160 = CARTESIAN_POINT('',(-6.768516456433E-03,-4.981418586606E-02,
    -4.368785111885E-03));
#161 = CARTESIAN_POINT('',(-7.271613076774E-03,-4.98848028411E-02,
    -3.559089184916E-03));
#162 = CARTESIAN_POINT('',(-7.660870364804E-03,-4.994464210691E-02,
    -2.688605692144E-03));
#163 = CARTESIAN_POINT('',(-7.9337729214E-03,-4.998893640042E-02,
    -1.769246456082E-03));
#164 = CARTESIAN_POINT('',(-8.076681013993E-03,-5.001272522344E-02,
    -8.228671231914E-04));
#165 = CARTESIAN_POINT('',(-8.095963897554E-03,-5.001548411032E-02,
    1.315654552078E-04));
#166 = CARTESIAN_POINT('',(-7.981904161473E-03,-4.999657690544E-02,
    1.081113665375E-03));
#167 = CARTESIAN_POINT('',(-7.42495009561E-03,-4.991019548285E-02,
    3.250306533918E-03));
#168 = CARTESIAN_POINT('',(-6.861907959875E-03,-4.982522741771E-02,
    4.469503626192E-03));
#169 = CARTESIAN_POINT('',(-6.065974781516E-03,-4.971244248904E-02,
    5.574176043768E-03));
#170 = CARTESIAN_POINT('',(-5.070869578933E-03,-4.958954915688E-02,
    6.511983258271E-03));
#171 = CARTESIAN_POINT('',(-3.919113723524E-03,-4.947825380244E-02,
    7.244790626625E-03));
#172 = CARTESIAN_POINT('',(-2.656669854468E-03,-4.939701071676E-02,
    7.74607632513E-03));
#173 = CARTESIAN_POINT('',(-1.333144696094E-03,-4.935585071701E-02,
    8.E-03));
#174 = CARTESIAN_POINT('',(-1.734723475977E-18,-4.935585071701E-02,
    8.E-03));
#175 = PCURVE('',#50,#176);
#176 = DEFINITIONAL_REPRESENTATION('',(#177),#222);
#177 = B_SPLINE_CURVE_WITH_KNOTS('',8,(#178,#179,#180,#181,#182,#183,
    #184,#185,#186,#187,#188,#189,#190,#191,#192,#193,#194,#195,#196,
    #197,#198,#199,#200,#201,#202,#203,#204,#205,#206,#207,#208,#209,
    #210,#211,#212,#213,#214,#215,#216,#217,#218,#219,#220,#221),
  .UNSPECIFIED.,.F.,.F.,(9,7,7,7,7,7,9),(0.,0.139446999999,
    0.290711047851,0.500652341094,0.639735947188,0.790605806321,1.),
  .UNSPECIFIED.);
#178 = CARTESIAN_POINT('',(1.410105673843,0.5));
#179 = CARTESIAN_POINT('',(1.410105673843,0.500883192482));
#180 = CARTESIAN_POINT('',(1.412363676587,0.501764819183));
#181 = CARTESIAN_POINT('',(1.416865462299,0.502629239797));
#182 = CARTESIAN_POINT('',(1.423542761836,0.503460586418));
#183 = CARTESIAN_POINT('',(1.432271129247,0.504243374203));
#184 = CARTESIAN_POINT('',(1.442867814339,0.504963112035));
#185 = CARTESIAN_POINT('',(1.455089635241,0.505606913178));
#186 = CARTESIAN_POINT('',(1.483319579322,0.506768516456));
#187 = CARTESIAN_POINT('',(1.499573074603,0.507271613077));
#188 = CARTESIAN_POINT('',(1.517018996573,0.507660870365));
#189 = CARTESIAN_POINT('',(1.535419011809,0.507933772921));
#190 = CARTESIAN_POINT('',(1.554343108211,0.508076681014));
#191 = CARTESIAN_POINT('',(1.573423762992,0.508095963898));
#192 = CARTESIAN_POINT('',(1.592414707791,0.507981904161));
#193 = CARTESIAN_POINT('',(1.63583295027,0.507424950096));
#194 = CARTESIAN_POINT('',(1.660265283411,0.50686190796));
#195 = CARTESIAN_POINT('',(1.682455070536,0.506065974782));
#196 = CARTESIAN_POINT('',(1.701362071631,0.505070869579));
#197 = CARTESIAN_POINT('',(1.716185655021,0.503919113723));
#198 = CARTESIAN_POINT('',(1.72634224735,0.502656669854));
#199 = CARTESIAN_POINT('',(1.731486979747,0.501333144696));
#200 = CARTESIAN_POINT('',(1.731486979747,0.499116807518));
#201 = CARTESIAN_POINT('',(1.729228977003,0.498235180817));
#202 = CARTESIAN_POINT('',(1.724727191291,0.497370760203));
#203 = CARTESIAN_POINT('',(1.718049891754,0.496539413582));
#204 = CARTESIAN_POINT('',(1.709321524343,0.495756625797));
#205 = CARTESIAN_POINT('',(1.69872483925,0.495036887965));
#206 = CARTESIAN_POINT('',(1.686503018349,0.494393086822));
#207 = CARTESIAN_POINT('',(1.658273074268,0.493231483544));
#208 = CARTESIAN_POINT('',(1.642019578983,0.492728386923));
#209 = CARTESIAN_POINT('',(1.624573657018,0.492339129635));
#210 = CARTESIAN_POINT('',(1.606173641783,0.492066227079));
#211 = CARTESIAN_POINT('',(1.587249545378,0.491923318986));
#212 = CARTESIAN_POINT('',(1.568168890594,0.491904036102));
#213 = CARTESIAN_POINT('',(1.549177945803,0.492018095839));
#214 = CARTESIAN_POINT('',(1.505759703318,0.492575049904));
#215 = CARTESIAN_POINT('',(1.481327370183,0.49313809204));
#216 = CARTESIAN_POINT('',(1.45913758305,0.493934025218));
#217 = CARTESIAN_POINT('',(1.440230581957,0.494929130421));
#218 = CARTESIAN_POINT('',(1.425406998573,0.496080886276));
#219 = CARTESIAN_POINT('',(1.415250406239,0.497343330146));
#220 = CARTESIAN_POINT('',(1.410105673843,0.498666855304));
#221 = CARTESIAN_POINT('',(1.410105673843,0.5));
#222 = ( GEOMETRIC_REPRESENTATION_CONTEXT(2) 
PARAMETRIC_REPRESENTATION_CONTEXT() REPRESENTATION_CONTEXT('2D SPACE',''
  ) );
#223 = PCURVE('',#224,#229);
#224 = CYLINDRICAL_SURFACE('',#225,8.E-03);
#225 = AXIS2_PLACEMENT_3D('',#226,#227,#228);
#226 = CARTESIAN_POINT('',(0.,-7.5E-02,0.));
#227 = DIRECTION('',(0.,1.,0.));
#228 = DIRECTION('',(0.,-0.,1.));
#229 = DEFINITIONAL_REPRESENTATION('',(#230),#275);
#230 = B_SPLINE_CURVE_WITH_KNOTS('',8,(#231,#232,#233,#234,#235,#236,
    #237,#238,#239,#240,#241,#242,#243,#244,#245,#246,#247,#248,#249,
    #250,#251,#252,#253,#254,#255,#256,#257,#258,#259,#260,#261,#262,
    #263,#264,#265,#266,#267,#268,#269,#270,#271,#272,#273,#274),
  .UNSPECIFIED.,.F.,.F.,(9,7,7,7,7,7,9),(0.,0.139446999999,
    0.290711047851,0.500652341094,0.639735947188,0.790605806321,1.),
  .UNSPECIFIED.);
#231 = CARTESIAN_POINT('',(0.,2.564414928299E-02));
#232 = CARTESIAN_POINT('',(0.110399060217,2.564414928299E-02));
#233 = CARTESIAN_POINT('',(0.220615912632,2.562616790888E-02));
#234 = CARTESIAN_POINT('',(0.330705046937,2.559005028162E-02));
#235 = CARTESIAN_POINT('',(0.440728528652,2.55379706618E-02));
#236 = CARTESIAN_POINT('',(0.550719812496,2.547381959893E-02));
#237 = CARTESIAN_POINT('',(0.660647555773,2.540259108078E-02));
#238 = CARTESIAN_POINT('',(0.770379431744,2.532976968263E-02));
#239 = CARTESIAN_POINT('',(0.998171940612,2.518581413394E-02));
#240 = CARTESIAN_POINT('',(1.116235797034,2.511519715892E-02));
#241 = CARTESIAN_POINT('',(1.233671470228,2.505535789307E-02));
#242 = CARTESIAN_POINT('',(1.351353398392,2.501106359958E-02));
#243 = CARTESIAN_POINT('',(1.468926628757,2.498727477657E-02));
#244 = CARTESIAN_POINT('',(1.586387935408,2.498451588966E-02));
#245 = CARTESIAN_POINT('',(1.704889944892,2.500342309456E-02));
#246 = CARTESIAN_POINT('',(1.984834011044,2.508980451715E-02));
#247 = CARTESIAN_POINT('',(2.149941325192,2.51747725823E-02));
#248 = CARTESIAN_POINT('',(2.31503082148,2.528755751095E-02));
#249 = CARTESIAN_POINT('',(2.479920127968,2.541045084311E-02));
#250 = CARTESIAN_POINT('',(2.644685798861,2.552174619757E-02));
#251 = CARTESIAN_POINT('',(2.809497032289,2.560298928324E-02));
#252 = CARTESIAN_POINT('',(2.97494956656,2.564414928299E-02));
#253 = CARTESIAN_POINT('',(3.251991713807,2.564414928299E-02));
#254 = CARTESIAN_POINT('',(3.362208566222,2.562616790888E-02));
#255 = CARTESIAN_POINT('',(3.472297700527,2.559005028162E-02));
#256 = CARTESIAN_POINT('',(3.582321182241,2.55379706618E-02));
#257 = CARTESIAN_POINT('',(3.692312466086,2.547381959893E-02));
#258 = CARTESIAN_POINT('',(3.802240209363,2.540259108078E-02));
#259 = CARTESIAN_POINT('',(3.911972085333,2.532976968263E-02));
#260 = CARTESIAN_POINT('',(4.139764594194,2.518581413394E-02));
#261 = CARTESIAN_POINT('',(4.257828450653,2.51151971589E-02));
#262 = CARTESIAN_POINT('',(4.375264123799,2.505535789309E-02));
#263 = CARTESIAN_POINT('',(4.492946051979,2.501106359958E-02));
#264 = CARTESIAN_POINT('',(4.61051928235,2.498727477656E-02));
#265 = CARTESIAN_POINT('',(4.727980589023,2.498451588968E-02));
#266 = CARTESIAN_POINT('',(4.846482598456,2.500342309456E-02));
#267 = CARTESIAN_POINT('',(5.126426664644,2.508980451715E-02));
#268 = CARTESIAN_POINT('',(5.291533978755,2.517477258229E-02));
#269 = CARTESIAN_POINT('',(5.456623475086,2.528755751096E-02));
#270 = CARTESIAN_POINT('',(5.621512781579,2.541045084312E-02));
#271 = CARTESIAN_POINT('',(5.786278452434,2.552174619756E-02));
#272 = CARTESIAN_POINT('',(5.951089685862,2.560298928324E-02));
#273 = CARTESIAN_POINT('',(6.116542220168,2.564414928299E-02));
#274 = CARTESIAN_POINT('',(6.28318530718,2.564414928299E-02));
#275 = ( GEOMETRIC_REPRESENTATION_CONTEXT(2) 
PARAMETRIC_REPRESENTATION_CONTEXT() REPRESENTATION_CONTEXT('2D SPACE',''
  ) );
#276 = FACE_BOUND('',#277,.T.);
#277 = EDGE_LOOP('',(#278));
#278 = ORIENTED_EDGE('',*,*,#279,.F.);
#279 = EDGE_CURVE('',#280,#280,#282,.T.);
#280 = VERTEX_POINT('',#281);
#281 = CARTESIAN_POINT('',(-1.959434878636E-18,4.935585071701E-02,8.E-03
    ));
#282 = SURFACE_CURVE('',#283,(#328,#376),.PCURVE_S1.);
#283 = B_SPLINE_CURVE_WITH_KNOTS('',8,(#284,#285,#286,#287,#288,#289,
    #290,#291,#292,#293,#294,#295,#296,#297,#298,#299,#300,#301,#302,
    #303,#304,#305,#306,#307,#308,#309,#310,#311,#312,#313,#314,#315,
    #316,#317,#318,#319,#320,#321,#322,#323,#324,#325,#326,#327),
  .UNSPECIFIED.,.T.,.F.,(9,7,7,7,7,7,9),(0.,0.139447002607,
    0.290711053258,0.500652318662,0.639735931298,0.790605797263,1.),
  .UNSPECIFIED.);
#284 = CARTESIAN_POINT('',(-1.734723475977E-18,4.935585071701E-02,8.E-03
    ));
#285 = CARTESIAN_POINT('',(8.831924817347E-04,4.935585071701E-02,8.E-03)
  );
#286 = CARTESIAN_POINT('',(1.764819183317E-03,4.937383209112E-02,
    7.888541975783E-03));
#287 = CARTESIAN_POINT('',(2.629239797022E-03,4.940994971838E-02,
    7.666373094318E-03));
#288 = CARTESIAN_POINT('',(3.460586417668E-03,4.94620293382E-02,
    7.336583290209E-03));
#289 = CARTESIAN_POINT('',(4.243374203103E-03,4.952618040107E-02,
    6.904862078398E-03));
#290 = CARTESIAN_POINT('',(4.963112034685E-03,4.959740891922E-02,
    6.379755366867E-03));
#291 = CARTESIAN_POINT('',(5.606913177772E-03,4.967023031737E-02,
    5.772922269341E-03));
#292 = CARTESIAN_POINT('',(6.768516456353E-03,4.981418586605E-02,
    4.368785111982E-03));
#293 = CARTESIAN_POINT('',(7.271613076899E-03,4.988480284111E-02,
    3.559089184789E-03));
#294 = CARTESIAN_POINT('',(7.660870364658E-03,4.99446421069E-02,
    2.688605692313E-03));
#295 = CARTESIAN_POINT('',(7.93377292159E-03,4.998893640045E-02,
    1.769246455808E-03));
#296 = CARTESIAN_POINT('',(8.076681013762E-03,5.001272522341E-02,
    8.228671233616E-04));
#297 = CARTESIAN_POINT('',(8.095963897742E-03,5.001548411035E-02,
    -1.315654549355E-04));
#298 = CARTESIAN_POINT('',(7.981904161382E-03,4.999657690543E-02,
    -1.081113665732E-03));
#299 = CARTESIAN_POINT('',(7.424950144601E-03,4.991019549045E-02,
    -3.250306343114E-03));
#300 = CARTESIAN_POINT('',(6.86190765745E-03,4.98252273945E-02,
    -4.46950408166E-03));
#301 = CARTESIAN_POINT('',(6.06597528501E-03,4.9712442512E-02,
    -5.574175693076E-03));
#302 = CARTESIAN_POINT('',(5.070869442382E-03,4.958954916178E-02,
    -6.51198312808E-03));
#303 = CARTESIAN_POINT('',(3.919113225553E-03,4.947825377905E-02,
    -7.244790985305E-03));
#304 = CARTESIAN_POINT('',(2.656670454927E-03,4.939701072903E-02,
    -7.746076156603E-03));
#305 = CARTESIAN_POINT('',(1.333144456758E-03,4.935585071701E-02,-8.E-03
    ));
#306 = CARTESIAN_POINT('',(-8.831924817312E-04,4.935585071701E-02,
    -8.E-03));
#307 = CARTESIAN_POINT('',(-1.764819183314E-03,4.937383209112E-02,
    -7.888541975784E-03));
#308 = CARTESIAN_POINT('',(-2.629239797022E-03,4.940994971838E-02,
    -7.666373094319E-03));
#309 = CARTESIAN_POINT('',(-3.46058641767E-03,4.94620293382E-02,
    -7.336583290208E-03));
#310 = CARTESIAN_POINT('',(-4.243374203104E-03,4.952618040107E-02,
    -6.904862078396E-03));
#311 = CARTESIAN_POINT('',(-4.963112034685E-03,4.959740891922E-02,
    -6.379755366866E-03));
#312 = CARTESIAN_POINT('',(-5.606913177771E-03,4.967023031737E-02,
    -5.772922269343E-03));
#313 = CARTESIAN_POINT('',(-6.768516455383E-03,4.981418586593E-02,
    -4.368785113155E-03));
#314 = CARTESIAN_POINT('',(-7.271613078304E-03,4.988480284126E-02,
    -3.559089183912E-03));
#315 = CARTESIAN_POINT('',(-7.660870365352E-03,4.994464210709E-02,
    -2.688605689074E-03));
#316 = CARTESIAN_POINT('',(-7.933772918417E-03,4.998893639989E-02,
    -1.769246460123E-03));
#317 = CARTESIAN_POINT('',(-8.076681017034E-03,5.001272522394E-02,
    -8.228671247465E-04));
#318 = CARTESIAN_POINT('',(-8.095963895873E-03,5.001548411005E-02,
    1.315654595157E-04));
#319 = CARTESIAN_POINT('',(-7.981904161959E-03,4.999657690552E-02,
    1.081113663484E-03));
#320 = CARTESIAN_POINT('',(-7.424950095595E-03,4.991019548285E-02,
    3.250306533978E-03));
#321 = CARTESIAN_POINT('',(-6.861907959868E-03,4.982522741771E-02,
    4.469503626122E-03));
#322 = CARTESIAN_POINT('',(-6.065974781581E-03,4.971244248905E-02,
    5.574176043743E-03));
#323 = CARTESIAN_POINT('',(-5.070869578927E-03,4.958954915688E-02,
    6.511983258312E-03));
#324 = CARTESIAN_POINT('',(-3.919113723449E-03,4.947825380243E-02,
    7.244790626647E-03));
#325 = CARTESIAN_POINT('',(-2.656669854474E-03,4.939701071676E-02,
    7.74607632511E-03));
#326 = CARTESIAN_POINT('',(-1.333144696134E-03,4.935585071701E-02,8.E-03
    ));
#327 = CARTESIAN_POINT('',(-1.734723475977E-18,4.935585071701E-02,8.E-03
    ));
#328 = PCURVE('',#50,#329);
#329 = DEFINITIONAL_REPRESENTATION('',(#330),#375);
#330 = B_SPLINE_CURVE_WITH_KNOTS('',8,(#331,#332,#333,#334,#335,#336,
    #337,#338,#339,#340,#341,#342,#343,#344,#345,#346,#347,#348,#349,
    #350,#351,#352,#353,#354,#355,#356,#357,#358,#359,#360,#361,#362,
    #363,#364,#365,#366,#367,#368,#369,#370,#371,#372,#373,#374),
  .UNSPECIFIED.,.T.,.F.,(9,7,7,7,7,7,9),(0.,0.139447002607,
    0.290711053258,0.500652318662,0.639735931298,0.790605797263,1.),
  .UNSPECIFIED.);
#331 = CARTESIAN_POINT('',(4.873079633337,0.5));
#332 = CARTESIAN_POINT('',(4.873079633337,0.500883192482));
#333 = CARTESIAN_POINT('',(4.870821630593,0.501764819183));
#334 = CARTESIAN_POINT('',(4.86631984488,0.502629239797));
#335 = CARTESIAN_POINT('',(4.859642545343,0.503460586418));
#336 = CARTESIAN_POINT('',(4.850914177932,0.504243374203));
#337 = CARTESIAN_POINT('',(4.84031749284,0.504963112035));
#338 = CARTESIAN_POINT('',(4.828095671938,0.505606913178));
#339 = CARTESIAN_POINT('',(4.79986572786,0.506768516456));
#340 = CARTESIAN_POINT('',(4.78361223257,0.507271613077));
#341 = CARTESIAN_POINT('',(4.766166310612,0.507660870365));
#342 = CARTESIAN_POINT('',(4.747766295367,0.507933772922));
#343 = CARTESIAN_POINT('',(4.728842198971,0.508076681014));
#344 = CARTESIAN_POINT('',(4.709761544189,0.508095963898));
#345 = CARTESIAN_POINT('',(4.690770599385,0.507981904161));
#346 = CARTESIAN_POINT('',(4.647352360727,0.507424950145));
#347 = CARTESIAN_POINT('',(4.622920014648,0.506861907657));
#348 = CARTESIAN_POINT('',(4.600730243674,0.506065975285));
#349 = CARTESIAN_POINT('',(4.581823238152,0.505070869442));
#350 = CARTESIAN_POINT('',(4.566999644968,0.503919113226));
#351 = CARTESIAN_POINT('',(4.556843063211,0.502656670455));
#352 = CARTESIAN_POINT('',(4.551698327433,0.501333144457));
#353 = CARTESIAN_POINT('',(4.551698327433,0.499116807518));
#354 = CARTESIAN_POINT('',(4.553956330177,0.498235180817));
#355 = CARTESIAN_POINT('',(4.558458115889,0.497370760203));
#356 = CARTESIAN_POINT('',(4.565135415426,0.496539413582));
#357 = CARTESIAN_POINT('',(4.573863782837,0.495756625797));
#358 = CARTESIAN_POINT('',(4.584460467929,0.495036887965));
#359 = CARTESIAN_POINT('',(4.596682288831,0.494393086822));
#360 = CARTESIAN_POINT('',(4.624912232886,0.493231483545));
#361 = CARTESIAN_POINT('',(4.641165728217,0.492728386922));
#362 = CARTESIAN_POINT('',(4.658611650222,0.492339129635));
#363 = CARTESIAN_POINT('',(4.677011665316,0.492066227082));
#364 = CARTESIAN_POINT('',(4.695935761771,0.491923318983));
#365 = CARTESIAN_POINT('',(4.715016416672,0.491904036104));
#366 = CARTESIAN_POINT('',(4.734007361339,0.492018095838));
#367 = CARTESIAN_POINT('',(4.777425603863,0.492575049904));
#368 = CARTESIAN_POINT('',(4.801857936995,0.49313809204));
#369 = CARTESIAN_POINT('',(4.824047724129,0.493934025218));
#370 = CARTESIAN_POINT('',(4.842954725223,0.494929130421));
#371 = CARTESIAN_POINT('',(4.857778308608,0.496080886277));
#372 = CARTESIAN_POINT('',(4.86793490094,0.497343330146));
#373 = CARTESIAN_POINT('',(4.873079633337,0.498666855304));
#374 = CARTESIAN_POINT('',(4.873079633337,0.5));
#375 = ( GEOMETRIC_REPRESENTATION_CONTEXT(2) 
PARAMETRIC_REPRESENTATION_CONTEXT() REPRESENTATION_CONTEXT('2D SPACE',''
  ) );
#376 = PCURVE('',#377,#382);
#377 = CYLINDRICAL_SURFACE('',#378,8.E-03);
#378 = AXIS2_PLACEMENT_3D('',#379,#380,#381);
#379 = CARTESIAN_POINT('',(0.,-7.5E-02,0.));
#380 = DIRECTION('',(0.,1.,0.));
#381 = DIRECTION('',(0.,-0.,1.));
#382 = DEFINITIONAL_REPRESENTATION('',(#383),#428);
#383 = B_SPLINE_CURVE_WITH_KNOTS('',8,(#384,#385,#386,#387,#388,#389,
    #390,#391,#392,#393,#394,#395,#396,#397,#398,#399,#400,#401,#402,
    #403,#404,#405,#406,#407,#408,#409,#410,#411,#412,#413,#414,#415,
    #416,#417,#418,#419,#420,#421,#422,#423,#424,#425,#426,#427),
  .UNSPECIFIED.,.F.,.F.,(9,7,7,7,7,7,9),(0.,0.139447002607,
    0.290711053258,0.500652318662,0.639735931298,0.790605797263,1.),
  .UNSPECIFIED.);
#384 = CARTESIAN_POINT('',(0.,0.124355850717));
#385 = CARTESIAN_POINT('',(0.110399060217,0.124355850717));
#386 = CARTESIAN_POINT('',(0.220615912632,0.124373832091));
#387 = CARTESIAN_POINT('',(0.330705046937,0.124409949718));
#388 = CARTESIAN_POINT('',(0.440728528652,0.124462029338));
#389 = CARTESIAN_POINT('',(0.550719812496,0.124526180401));
#390 = CARTESIAN_POINT('',(0.660647555773,0.124597408919));
#391 = CARTESIAN_POINT('',(0.770379431744,0.124670230317));
#392 = CARTESIAN_POINT('',(0.998171940588,0.124814185866));
#393 = CARTESIAN_POINT('',(1.116235797086,0.124884802841));
#394 = CARTESIAN_POINT('',(1.233671470182,0.124944642107));
#395 = CARTESIAN_POINT('',(1.351353398426,0.1249889364));
#396 = CARTESIAN_POINT('',(1.46892662874,0.125012725223));
#397 = CARTESIAN_POINT('',(1.586387935397,0.12501548411));
#398 = CARTESIAN_POINT('',(1.704889944912,0.124996576905));
#399 = CARTESIAN_POINT('',(1.98483398643,0.12491019549));
#400 = CARTESIAN_POINT('',(2.149941403986,0.124825227395));
#401 = CARTESIAN_POINT('',(2.315030730174,0.124712442512));
#402 = CARTESIAN_POINT('',(2.479920132191,0.124589549162));
#403 = CARTESIAN_POINT('',(2.644685890155,0.124478253779));
#404 = CARTESIAN_POINT('',(2.809496944435,0.124397010729));
#405 = CARTESIAN_POINT('',(2.974949596495,0.124355850717));
#406 = CARTESIAN_POINT('',(3.251991713806,0.124355850717));
#407 = CARTESIAN_POINT('',(3.362208566221,0.124373832091));
#408 = CARTESIAN_POINT('',(3.472297700527,0.124409949718));
#409 = CARTESIAN_POINT('',(3.582321182242,0.124462029338));
#410 = CARTESIAN_POINT('',(3.692312466086,0.124526180401));
#411 = CARTESIAN_POINT('',(3.802240209363,0.124597408919));
#412 = CARTESIAN_POINT('',(3.911972085333,0.124670230317));
#413 = CARTESIAN_POINT('',(4.139764593988,0.124814185866));
#414 = CARTESIAN_POINT('',(4.257828450879,0.124884802841));
#415 = CARTESIAN_POINT('',(4.375264124084,0.124944642107));
#416 = CARTESIAN_POINT('',(4.492946051538,0.1249889364));
#417 = CARTESIAN_POINT('',(4.610519282116,0.125012725224));
#418 = CARTESIAN_POINT('',(4.727980589584,0.12501548411));
#419 = CARTESIAN_POINT('',(4.846482598212,0.124996576906));
#420 = CARTESIAN_POINT('',(5.126426664652,0.124910195483));
#421 = CARTESIAN_POINT('',(5.291533978747,0.124825227418));
#422 = CARTESIAN_POINT('',(5.456623475079,0.124712442489));
#423 = CARTESIAN_POINT('',(5.621512781583,0.124589549157));
#424 = CARTESIAN_POINT('',(5.786278452442,0.124478253802));
#425 = CARTESIAN_POINT('',(5.951089685861,0.124397010717));
#426 = CARTESIAN_POINT('',(6.116542220163,0.124355850717));
#427 = CARTESIAN_POINT('',(6.28318530718,0.124355850717));
#428 = ( GEOMETRIC_REPRESENTATION_CONTEXT(2) 
PARAMETRIC_REPRESENTATION_CONTEXT() REPRESENTATION_CONTEXT('2D SPACE',''
  ) );
#429 = ADVANCED_FACE('',(#430),#112,.F.);
#430 = FACE_BOUND('',#431,.T.);
#431 = EDGE_LOOP('',(#432));
#432 = ORIENTED_EDGE('',*,*,#97,.F.);
#433 = ADVANCED_FACE('',(#434),#84,.T.);
#434 = FACE_BOUND('',#435,.T.);
#435 = EDGE_LOOP('',(#436));
#436 = ORIENTED_EDGE('',*,*,#69,.T.);
#437 = ADVANCED_FACE('',(#438),#224,.F.);
#438 = FACE_BOUND('',#439,.F.);
#439 = EDGE_LOOP('',(#440,#557,#578,#579,#580,#636));
#440 = ORIENTED_EDGE('',*,*,#441,.F.);
#441 = EDGE_CURVE('',#442,#444,#446,.T.);
#442 = VERTEX_POINT('',#443);
#443 = CARTESIAN_POINT('',(-1.959434878636E-18,-3.044446401411E-02,
    8.E-03));
#444 = VERTEX_POINT('',#445);
#445 = CARTESIAN_POINT('',(6.128355544952E-03,-4.834252786109E-02,
    -5.142300877492E-03));
#446 = SURFACE_CURVE('',#447,(#480,#516),.PCURVE_S1.);
#447 = B_SPLINE_CURVE_WITH_KNOTS('',7,(#448,#449,#450,#451,#452,#453,
    #454,#455,#456,#457,#458,#459,#460,#461,#462,#463,#464,#465,#466,
    #467,#468,#469,#470,#471,#472,#473,#474,#475,#476,#477,#478,#479),
  .UNSPECIFIED.,.F.,.F.,(8,6,6,6,6,8),(0.,0.154199064051,0.308381831713,
    0.476577843,0.739778586516,1.),.UNSPECIFIED.);
#448 = CARTESIAN_POINT('',(-1.959434878636E-18,-3.044446401411E-02,
    8.E-03));
#449 = CARTESIAN_POINT('',(3.969202762095E-04,-2.948030409821E-02,8.E-03
    ));
#450 = CARTESIAN_POINT('',(7.938432846697E-04,-2.854702139262E-02,
    7.977024303804E-03));
#451 = CARTESIAN_POINT('',(1.189192406037E-03,-2.765257713136E-02,
    7.931073860961E-03));
#452 = CARTESIAN_POINT('',(1.581350309063E-03,-2.680613627025E-02,
    7.862276588084E-03));
#453 = CARTESIAN_POINT('',(1.968705087368E-03,-2.601828001887E-02,
    7.770922718629E-03));
#454 = CARTESIAN_POINT('',(2.349711944493E-03,-2.530052674169E-02,
    7.657442880031E-03));
#455 = CARTESIAN_POINT('',(3.096189462487E-03,-2.4027862969E-02,
    7.387229195731E-03));
#456 = CARTESIAN_POINT('',(3.461608369416E-03,-2.347303088724E-02,
    7.230522765432E-03));
#457 = CARTESIAN_POINT('',(3.817715077505E-03,-2.301104290793E-02,
    7.052731161869E-03));
#458 = CARTESIAN_POINT('',(4.162995226841E-03,-2.265325456387E-02,
    6.854596711179E-03));
#459 = CARTESIAN_POINT('',(4.496111168252E-03,-2.240882498424E-02,
    6.636880362486E-03));
#460 = CARTESIAN_POINT('',(4.815839877482E-03,-2.228299271833E-02,
    6.400406971046E-03));
#461 = CARTESIAN_POINT('',(5.453413921787E-03,-2.226795647173E-02,
    5.869219250805E-03));
#462 = CARTESIAN_POINT('',(5.768688011436E-03,-2.240129912859E-02,
    5.570969592555E-03));
#463 = CARTESIAN_POINT('',(6.064700126472E-03,-2.267626767605E-02,
    5.25313819793E-03));
#464 = CARTESIAN_POINT('',(6.340214520268E-03,-2.30859960476E-02,
    4.917128769471E-03));
#465 = CARTESIAN_POINT('',(6.593880022197E-03,-2.361782169117E-02,
    4.564428297888E-03));
#466 = CARTESIAN_POINT('',(6.824478862555E-03,-2.42565940511E-02,
    4.196901016323E-03));
#467 = CARTESIAN_POINT('',(7.354273746571E-03,-2.613130379766E-02,
    3.22083402509E-03));
#468 = CARTESIAN_POINT('',(7.621113071883E-03,-2.750948740509E-02,
    2.588869988131E-03));
#469 = CARTESIAN_POINT('',(7.825400945256E-03,-2.906872671701E-02,
    1.927969445579E-03));
#470 = CARTESIAN_POINT('',(7.962454490491E-03,-3.074842787161E-02,
    1.247335716086E-03));
#471 = CARTESIAN_POINT('',(8.030200786613E-03,-3.250416274209E-02,
    5.567462591035E-04));
#472 = CARTESIAN_POINT('',(8.028413518977E-03,-3.430197988176E-02,
    -1.348976132263E-04));
#473 = CARTESIAN_POINT('',(7.888219922283E-03,-3.791119935224E-02,
    -1.496310706803E-03));
#474 = CARTESIAN_POINT('',(7.751367191112E-03,-3.972206137567E-02,
    -2.166186074197E-03));
#475 = CARTESIAN_POINT('',(7.548187739664E-03,-4.152495838203E-02,
    -2.821170280233E-03));
#476 = CARTESIAN_POINT('',(7.280679002962E-03,-4.330166155283E-02,
    -3.453422594514E-03));
#477 = CARTESIAN_POINT('',(6.951969853216E-03,-4.503779493117E-02,
    -4.055484870611E-03));
#478 = CARTESIAN_POINT('',(6.566205565931E-03,-4.672140793151E-02,
    -4.620491541973E-03));
#479 = CARTESIAN_POINT('',(6.128355544951E-03,-4.834252786109E-02,
    -5.142300877493E-03));
#480 = PCURVE('',#224,#481);
#481 = DEFINITIONAL_REPRESENTATION('',(#482),#515);
#482 = B_SPLINE_CURVE_WITH_KNOTS('',7,(#483,#484,#485,#486,#487,#488,
    #489,#490,#491,#492,#493,#494,#495,#496,#497,#498,#499,#500,#501,
    #502,#503,#504,#505,#506,#507,#508,#509,#510,#511,#512,#513,#514),
  .UNSPECIFIED.,.F.,.F.,(8,6,6,6,6,8),(0.,0.154199064051,0.308381831713,
    0.476577843,0.739778586516,1.),.UNSPECIFIED.);
#483 = CARTESIAN_POINT('',(0.,4.455553598589E-02));
#484 = CARTESIAN_POINT('',(4.961503452619E-02,4.551969590179E-02));
#485 = CARTESIAN_POINT('',(9.923045039627E-02,4.645297860738E-02));
#486 = CARTESIAN_POINT('',(0.148848442532,4.734742286864E-02));
#487 = CARTESIAN_POINT('',(0.198466827414,4.819386372975E-02));
#488 = CARTESIAN_POINT('',(0.248081319279,4.898171998113E-02));
#489 = CARTESIAN_POINT('',(0.297691681147,4.969947325831E-02));
#490 = CARTESIAN_POINT('',(0.396926576097,5.0972137031E-02));
#491 = CARTESIAN_POINT('',(0.446543775884,5.152696911276E-02));
#492 = CARTESIAN_POINT('',(0.496163496224,5.198895709207E-02));
#493 = CARTESIAN_POINT('',(0.545774688166,5.234674543613E-02));
#494 = CARTESIAN_POINT('',(0.595385590029,5.259117501576E-02));
#495 = CARTESIAN_POINT('',(0.645012023201,5.271700728167E-02));
#496 = CARTESIAN_POINT('',(0.748744028877,5.273204352827E-02));
#497 = CARTESIAN_POINT('',(0.802885459035,5.259870087141E-02));
#498 = CARTESIAN_POINT('',(0.85700310339,5.232373232395E-02));
#499 = CARTESIAN_POINT('',(0.911124129343,5.19140039524E-02));
#500 = CARTESIAN_POINT('',(0.965256616293,5.138217830883E-02));
#501 = CARTESIAN_POINT('',(1.019383919531,5.07434059489E-02));
#502 = CARTESIAN_POINT('',(1.158206501364,4.886869620234E-02));
#503 = CARTESIAN_POINT('',(1.24354594205,4.749051259491E-02));
#504 = CARTESIAN_POINT('',(1.329325832795,4.593127328299E-02));
#505 = CARTESIAN_POINT('',(1.415319938351,4.425157212839E-02));
#506 = CARTESIAN_POINT('',(1.501362527982,4.249583725791E-02));
#507 = CARTESIAN_POINT('',(1.587386002581,4.069802011824E-02));
#508 = CARTESIAN_POINT('',(1.758462550503,3.708880064776E-02));
#509 = CARTESIAN_POINT('',(1.843508871243,3.527793862433E-02));
#510 = CARTESIAN_POINT('',(1.928557485333,3.347504161797E-02));
#511 = CARTESIAN_POINT('',(2.013613063013,3.169833844717E-02));
#512 = CARTESIAN_POINT('',(2.09868314251,2.996220506883E-02));
#513 = CARTESIAN_POINT('',(2.183781313814,2.827859206849E-02));
#514 = CARTESIAN_POINT('',(2.268928027593,2.665747213891E-02));
#515 = ( GEOMETRIC_REPRESENTATION_CONTEXT(2) 
PARAMETRIC_REPRESENTATION_CONTEXT() REPRESENTATION_CONTEXT('2D SPACE',''
  ) );
#516 = PCURVE('',#517,#522);
#517 = SPHERICAL_SURFACE('',#518,0.12505);
#518 = AXIS2_PLACEMENT_3D('',#519,#520,#521);
#519 = CARTESIAN_POINT('',(-7.395271449444E-02,0.,-8.813341318084E-02));
#520 = DIRECTION('',(0.642787609687,0.,0.766044443119));
#521 = DIRECTION('',(0.766044443119,0.,-0.642787609687));
#522 = DEFINITIONAL_REPRESENTATION('',(#523),#556);
#523 = B_SPLINE_CURVE_WITH_KNOTS('',7,(#524,#525,#526,#527,#528,#529,
    #530,#531,#532,#533,#534,#535,#536,#537,#538,#539,#540,#541,#542,
    #543,#544,#545,#546,#547,#548,#549,#550,#551,#552,#553,#554,#555),
  .UNSPECIFIED.,.F.,.F.,(8,6,6,6,6,8),(0.,0.154199064051,0.308381831713,
    0.476577843,0.739778586516,1.),.UNSPECIFIED.);
#524 = CARTESIAN_POINT('',(4.545060745987,1.321309392511));
#525 = CARTESIAN_POINT('',(4.549570198284,1.329572701934));
#526 = CARTESIAN_POINT('',(4.555059172081,1.33757873114));
#527 = CARTESIAN_POINT('',(4.561647971557,1.345260274949));
#528 = CARTESIAN_POINT('',(4.569466798494,1.352539482724));
#529 = CARTESIAN_POINT('',(4.578648152904,1.359325231078));
#530 = CARTESIAN_POINT('',(4.589288054328,1.365516817992));
#531 = CARTESIAN_POINT('',(4.613462835779,1.376510557722));
#532 = CARTESIAN_POINT('',(4.626996314589,1.381312010978));
#533 = CARTESIAN_POINT('',(4.641959275266,1.385317489875));
#534 = CARTESIAN_POINT('',(4.658236381188,1.388424447932));
#535 = CARTESIAN_POINT('',(4.675515026685,1.390549027026));
#536 = CARTESIAN_POINT('',(4.693312440419,1.391642706128));
#537 = CARTESIAN_POINT('',(4.730565002624,1.391773399171));
#538 = CARTESIAN_POINT('',(4.75003729822,1.390614409411));
#539 = CARTESIAN_POINT('',(4.768899576074,1.388224275258));
#540 = CARTESIAN_POINT('',(4.786503804774,1.38466604282));
#541 = CARTESIAN_POINT('',(4.802479279096,1.380056516591));
#542 = CARTESIAN_POINT('',(4.816716347432,1.374531422763));
#543 = CARTESIAN_POINT('',(4.848818314159,1.358347788252));
#544 = CARTESIAN_POINT('',(4.864342183699,1.346476894324));
#545 = CARTESIAN_POINT('',(4.875703588252,1.333082493919));
#546 = CARTESIAN_POINT('',(4.883740001089,1.318686774464));
#547 = CARTESIAN_POINT('',(4.889112475418,1.303659774284));
#548 = CARTESIAN_POINT('',(4.892321404394,1.288284969003));
#549 = CARTESIAN_POINT('',(4.89515736957,1.257428587032));
#550 = CARTESIAN_POINT('',(4.894823912274,1.241951583899));
#551 = CARTESIAN_POINT('',(4.893113069591,1.226540524478));
#552 = CARTESIAN_POINT('',(4.890265396377,1.211345704602));
#553 = CARTESIAN_POINT('',(4.886448596952,1.196486505129));
#554 = CARTESIAN_POINT('',(4.881789931181,1.182063614336));
#555 = CARTESIAN_POINT('',(4.8763884487,1.168162110046));
#556 = ( GEOMETRIC_REPRESENTATION_CONTEXT(2) 
PARAMETRIC_REPRESENTATION_CONTEXT() REPRESENTATION_CONTEXT('2D SPACE',''
  ) );
#557 = ORIENTED_EDGE('',*,*,#558,.F.);
#558 = EDGE_CURVE('',#127,#442,#559,.T.);
#559 = SEAM_CURVE('',#560,(#564,#571),.PCURVE_S1.);
#560 = LINE('',#561,#562);
#561 = CARTESIAN_POINT('',(-1.959434878636E-18,-7.5E-02,8.E-03));
#562 = VECTOR('',#563,1.);
#563 = DIRECTION('',(0.,1.,0.));
#564 = PCURVE('',#224,#565);
#565 = DEFINITIONAL_REPRESENTATION('',(#566),#570);
#566 = LINE('',#567,#568);
#567 = CARTESIAN_POINT('',(6.28318530718,-0.));
#568 = VECTOR('',#569,1.);
#569 = DIRECTION('',(0.,1.));
#570 = ( GEOMETRIC_REPRESENTATION_CONTEXT(2) 
PARAMETRIC_REPRESENTATION_CONTEXT() REPRESENTATION_CONTEXT('2D SPACE',''
  ) );
#571 = PCURVE('',#224,#572);
#572 = DEFINITIONAL_REPRESENTATION('',(#573),#577);
#573 = LINE('',#574,#575);
#574 = CARTESIAN_POINT('',(0.,-0.));
#575 = VECTOR('',#576,1.);
#576 = DIRECTION('',(0.,1.));
#577 = ( GEOMETRIC_REPRESENTATION_CONTEXT(2) 
PARAMETRIC_REPRESENTATION_CONTEXT() REPRESENTATION_CONTEXT('2D SPACE',''
  ) );
#578 = ORIENTED_EDGE('',*,*,#126,.T.);
#579 = ORIENTED_EDGE('',*,*,#558,.T.);
#580 = ORIENTED_EDGE('',*,*,#581,.F.);
#581 = EDGE_CURVE('',#582,#442,#584,.T.);
#582 = VERTEX_POINT('',#583);
#583 = CARTESIAN_POINT('',(-6.128355544952E-03,-4.834252786109E-02,
    5.142300877492E-03));
#584 = SURFACE_CURVE('',#585,(#600,#618),.PCURVE_S1.);
#585 = B_SPLINE_CURVE_WITH_KNOTS('',7,(#586,#587,#588,#589,#590,#591,
    #592,#593,#594,#595,#596,#597,#598,#599),.UNSPECIFIED.,.F.,.F.,(8,6,
    8),(0.,0.849131498431,1.),.UNSPECIFIED.);
#586 = CARTESIAN_POINT('',(-6.128355544953E-03,-4.834252786109E-02,
    5.142300877491E-03));
#587 = CARTESIAN_POINT('',(-5.583370716987E-03,-4.63247461468E-02,
    5.791788504129E-03));
#588 = CARTESIAN_POINT('',(-4.958577378468E-03,-4.42105509538E-02,
    6.373299587165E-03));
#589 = CARTESIAN_POINT('',(-4.26390671504E-03,-4.201880305715E-02,
    6.875535569362E-03));
#590 = CARTESIAN_POINT('',(-3.511278999096E-03,-3.977306707403E-02,
    7.288711357557E-03));
#591 = CARTESIAN_POINT('',(-2.714510255114E-03,-3.75036717462E-02,
    7.605102238513E-03));
#592 = CARTESIAN_POINT('',(-1.88873863435E-03,-3.525195164108E-02,
    7.819811073837E-03));
#593 = CARTESIAN_POINT('',(-9.003027503076E-04,-3.269374756477E-02,
    7.950602633913E-03));
#594 = CARTESIAN_POINT('',(-7.507607403964E-04,-3.231032809977E-02,
    7.967061862238E-03));
#595 = CARTESIAN_POINT('',(-6.008911124927E-04,-3.19297955458E-02,
    7.980236850541E-03));
#596 = CARTESIAN_POINT('',(-4.507859193676E-04,-3.155252815942E-02,
    7.99012012658E-03));
#597 = CARTESIAN_POINT('',(-3.005387153673E-04,-3.117892849335E-02,
    7.996707887533E-03));
#598 = CARTESIAN_POINT('',(-1.502445564127E-04,-3.080942339653E-02,
    8.E-03));
#599 = CARTESIAN_POINT('',(-1.734723475977E-18,-3.044446401411E-02,
    8.E-03));
#600 = PCURVE('',#224,#601);
#601 = DEFINITIONAL_REPRESENTATION('',(#602),#617);
#602 = B_SPLINE_CURVE_WITH_KNOTS('',7,(#603,#604,#605,#606,#607,#608,
    #609,#610,#611,#612,#613,#614,#615,#616),.UNSPECIFIED.,.F.,.F.,(8,6,
    8),(0.,0.849131498431,1.),.UNSPECIFIED.);
#603 = CARTESIAN_POINT('',(5.410520681182,2.665747213891E-02));
#604 = CARTESIAN_POINT('',(5.51650141645,2.86752538532E-02));
#605 = CARTESIAN_POINT('',(5.622385467804,3.07894490462E-02));
#606 = CARTESIAN_POINT('',(5.728237559267,3.298119694285E-02));
#607 = CARTESIAN_POINT('',(5.834090101418,3.522693292597E-02));
#608 = CARTESIAN_POINT('',(5.939949149063,3.74963282538E-02));
#609 = CARTESIAN_POINT('',(6.045799334068,3.974804835892E-02));
#610 = CARTESIAN_POINT('',(6.170430786324,4.230625243523E-02));
#611 = CARTESIAN_POINT('',(6.189231881617,4.268967190023E-02));
#612 = CARTESIAN_POINT('',(6.208030600482,4.30702044542E-02));
#613 = CARTESIAN_POINT('',(6.226826255103,4.344747184058E-02));
#614 = CARTESIAN_POINT('',(6.24561798112,4.382107150665E-02));
#615 = CARTESIAN_POINT('',(6.264404737628,4.419057660347E-02));
#616 = CARTESIAN_POINT('',(6.28318530718,4.455553598589E-02));
#617 = ( GEOMETRIC_REPRESENTATION_CONTEXT(2) 
PARAMETRIC_REPRESENTATION_CONTEXT() REPRESENTATION_CONTEXT('2D SPACE',''
  ) );
#618 = PCURVE('',#517,#619);
#619 = DEFINITIONAL_REPRESENTATION('',(#620),#635);
#620 = B_SPLINE_CURVE_WITH_KNOTS('',7,(#621,#622,#623,#624,#625,#626,
    #627,#628,#629,#630,#631,#632,#633,#634),.UNSPECIFIED.,.F.,.F.,(8,6,
    8),(0.,0.849131498431,1.),.UNSPECIFIED.);
#621 = CARTESIAN_POINT('',(4.54838951207,1.168162110046));
#622 = CARTESIAN_POINT('',(4.541666374329,1.185465087232));
#623 = CARTESIAN_POINT('',(4.536095772616,1.203572386302));
#624 = CARTESIAN_POINT('',(4.531863749963,1.222322950681));
#625 = CARTESIAN_POINT('',(4.529236647374,1.24151937218));
#626 = CARTESIAN_POINT('',(4.528563811127,1.260909981876));
#627 = CARTESIAN_POINT('',(4.530444862011,1.280156533));
#628 = CARTESIAN_POINT('',(4.536793730269,1.302046464798));
#629 = CARTESIAN_POINT('',(4.537862271873,1.305327949225));
#630 = CARTESIAN_POINT('',(4.539046848382,1.30858546732));
#631 = CARTESIAN_POINT('',(4.540353039956,1.31181585545));
#632 = CARTESIAN_POINT('',(4.541786669377,1.315015735903));
#633 = CARTESIAN_POINT('',(4.543353802047,1.318181516882));
#634 = CARTESIAN_POINT('',(4.545060745987,1.321309392511));
#635 = ( GEOMETRIC_REPRESENTATION_CONTEXT(2) 
PARAMETRIC_REPRESENTATION_CONTEXT() REPRESENTATION_CONTEXT('2D SPACE',''
  ) );
#636 = ORIENTED_EDGE('',*,*,#637,.F.);
#637 = EDGE_CURVE('',#444,#582,#638,.T.);
#638 = SURFACE_CURVE('',#639,(#684,#732),.PCURVE_S1.);
#639 = B_SPLINE_CURVE_WITH_KNOTS('',8,(#640,#641,#642,#643,#644,#645,
    #646,#647,#648,#649,#650,#651,#652,#653,#654,#655,#656,#657,#658,
    #659,#660,#661,#662,#663,#664,#665,#666,#667,#668,#669,#670,#671,
    #672,#673,#674,#675,#676,#677,#678,#679,#680,#681,#682,#683),
  .UNSPECIFIED.,.F.,.F.,(9,7,7,7,7,7,9),(0.,0.267168537881,
    0.388918265931,0.500809007004,0.612656074177,0.804432434096,1.),
  .UNSPECIFIED.);
#640 = CARTESIAN_POINT('',(6.128355544953E-03,-4.834252786109E-02,
    -5.142300877491E-03));
#641 = CARTESIAN_POINT('',(5.583071295064E-03,-4.632363755065E-02,
    -5.792145341281E-03));
#642 = CARTESIAN_POINT('',(4.959671201159E-03,-4.421074180657E-02,
    -6.375149014782E-03));
#643 = CARTESIAN_POINT('',(4.267369961723E-03,-4.202111041319E-02,
    -6.880983828912E-03));
#644 = CARTESIAN_POINT('',(3.517014648895E-03,-3.977577106035E-02,
    -7.300474417121E-03));
#645 = CARTESIAN_POINT('',(2.721117763771E-03,-3.750223950125E-02,
    -7.625986786098E-03));
#646 = CARTESIAN_POINT('',(1.893683159356E-03,-3.523552525006E-02,
    -7.852050922278E-03));
#647 = CARTESIAN_POINT('',(1.049527234669E-03,-3.30255509055E-02,
    -7.975888440009E-03));
#648 = CARTESIAN_POINT('',(-1.82105353805E-04,-2.999265930693E-02,
    -8.007221089818E-03));
#649 = CARTESIAN_POINT('',(-5.679962975698E-04,-2.906965209554E-02,
    -7.995780726048E-03));
#650 = CARTESIAN_POINT('',(-9.526833072944E-04,-2.818001011436E-02,
    -7.963093682938E-03));
#651 = CARTESIAN_POINT('',(-1.334555390486E-03,-2.733157061921E-02,
    -7.909315163602E-03));
#652 = CARTESIAN_POINT('',(-1.711975874082E-03,-2.653311564506E-02,
    -7.834795399898E-03));
#653 = CARTESIAN_POINT('',(-2.08333804058E-03,-2.579406533588E-02,
    -7.740091544827E-03));
#654 = CARTESIAN_POINT('',(-2.447126978998E-03,-2.512382250264E-02,
    -7.625949352695E-03));
#655 = CARTESIAN_POINT('',(-3.128112597048E-03,-2.398573834589E-02,
    -7.371305225151E-03));
#656 = CARTESIAN_POINT('',(-3.446735451907E-03,-2.350583449734E-02,
    -7.233673257604E-03));
#657 = CARTESIAN_POINT('',(-3.756758273378E-03,-2.309765848179E-02,
    -7.08104614541E-03));
#658 = CARTESIAN_POINT('',(-4.05738885351E-03,-2.276672457622E-02,
    -6.914170680102E-03));
#659 = CARTESIAN_POINT('',(-4.348121157842E-03,-2.251715319241E-02,
    -6.733703856272E-03));
#660 = CARTESIAN_POINT('',(-4.628667828355E-03,-2.235155066896E-02,
    -6.540133644672E-03));
#661 = CARTESIAN_POINT('',(-4.898844749794E-03,-2.227107537919E-02,
    -6.333769725856E-03));
#662 = CARTESIAN_POINT('',(-5.417869294675E-03,-2.228030312938E-02,
    -5.895924110959E-03));
#663 = CARTESIAN_POINT('',(-5.666752733009E-03,-2.236993996378E-02,
    -5.66442900358E-03));
#664 = CARTESIAN_POINT('',(-5.904816776343E-03,-2.254454358205E-02,
    -5.420522747765E-03));
#665 = CARTESIAN_POINT('',(-6.131709551792E-03,-2.280285097916E-02,
    -5.164336257853E-03));
#666 = CARTESIAN_POINT('',(-6.3468853039E-03,-2.314214450251E-02,
    -4.896078702811E-03));
#667 = CARTESIAN_POINT('',(-6.549597273423E-03,-2.355819403597E-02,
    -4.61615158762E-03));
#668 = CARTESIAN_POINT('',(-6.738966682581E-03,-2.404539008668E-02,
    -4.325225690269E-03));
#669 = CARTESIAN_POINT('',(-7.214464415722E-03,-2.554299100273E-02,
    -3.50827174812E-03));
#670 = CARTESIAN_POINT('',(-7.472933321598E-03,-2.667820039995E-02,
    -2.9629612159E-03));
#671 = CARTESIAN_POINT('',(-7.685392996616E-03,-2.796963029642E-02,
    -2.392943449313E-03));
#672 = CARTESIAN_POINT('',(-7.84837308055E-03,-2.937857714927E-02,
    -1.803730741933E-03));
#673 = CARTESIAN_POINT('',(-7.959535480639E-03,-3.087065021137E-02,
    -1.201538387592E-03));
#674 = CARTESIAN_POINT('',(-8.01782084059E-03,-3.241863216347E-02,
    -5.924415649974E-04));
#675 = CARTESIAN_POINT('',(-8.023043122044E-03,-3.400057195661E-02,
    1.778093997733E-05));
#676 = CARTESIAN_POINT('',(-7.927300815314E-03,-3.722989015872E-02,
    1.241851029464E-03));
#677 = CARTESIAN_POINT('',(-7.824232118004E-03,-3.887803474171E-02,
    1.855569230859E-03));
#678 = CARTESIAN_POINT('',(-7.666879083972E-03,-4.052579566077E-02,
    2.45936004962E-03));
#679 = CARTESIAN_POINT('',(-7.45638061341E-03,-4.215898686675E-02,
    3.0476421312E-03));
#680 = CARTESIAN_POINT('',(-7.194552647998E-03,-4.376615113362E-02,
    3.615009106948E-03));
#681 = CARTESIAN_POINT('',(-6.883846325317E-03,-4.533772549228E-02,
    4.15633937591E-03));
#682 = CARTESIAN_POINT('',(-6.527281487618E-03,-4.686552257367E-02,
    4.666879452141E-03));
#683 = CARTESIAN_POINT('',(-6.128355544951E-03,-4.834252786109E-02,
    5.142300877493E-03));
#684 = PCURVE('',#224,#685);
#685 = DEFINITIONAL_REPRESENTATION('',(#686),#731);
#686 = B_SPLINE_CURVE_WITH_KNOTS('',8,(#687,#688,#689,#690,#691,#692,
    #693,#694,#695,#696,#697,#698,#699,#700,#701,#702,#703,#704,#705,
    #706,#707,#708,#709,#710,#711,#712,#713,#714,#715,#716,#717,#718,
    #719,#720,#721,#722,#723,#724,#725,#726,#727,#728,#729,#730),
  .UNSPECIFIED.,.F.,.F.,(9,7,7,7,7,7,9),(0.,0.267168537881,
    0.388918265931,0.500809007004,0.612656074177,0.804432434096,1.),
  .UNSPECIFIED.);
#687 = CARTESIAN_POINT('',(2.268928027592,2.665747213891E-02));
#688 = CARTESIAN_POINT('',(2.374966990088,2.867636244935E-02));
#689 = CARTESIAN_POINT('',(2.480882062351,3.078925819343E-02));
#690 = CARTESIAN_POINT('',(2.586760774468,3.297888958681E-02));
#691 = CARTESIAN_POINT('',(2.692652023515,3.522422893965E-02));
#692 = CARTESIAN_POINT('',(2.798566956301,3.749776049875E-02));
#693 = CARTESIAN_POINT('',(2.904485750043,3.976447474994E-02));
#694 = CARTESIAN_POINT('',(3.010364789419,4.19744490945E-02));
#695 = CARTESIAN_POINT('',(3.164368673701,4.500734069307E-02));
#696 = CARTESIAN_POINT('',(3.212553135707,4.593034790446E-02));
#697 = CARTESIAN_POINT('',(3.260690133022,4.681998988564E-02));
#698 = CARTESIAN_POINT('',(3.308749300517,4.766842938079E-02));
#699 = CARTESIAN_POINT('',(3.356693365132,4.846688435494E-02));
#700 = CARTESIAN_POINT('',(3.404481159798,4.920593466412E-02));
#701 = CARTESIAN_POINT('',(3.452071654248,4.987617749736E-02));
#702 = CARTESIAN_POINT('',(3.542951472181,5.101426165411E-02));
#703 = CARTESIAN_POINT('',(3.586282080191,5.149416550266E-02));
#704 = CARTESIAN_POINT('',(3.62938824295,5.190234151821E-02));
#705 = CARTESIAN_POINT('',(3.67226482564,5.223327542378E-02));
#706 = CARTESIAN_POINT('',(3.714937601006,5.248284680759E-02));
#707 = CARTESIAN_POINT('',(3.75746058114,5.264844933104E-02));
#708 = CARTESIAN_POINT('',(3.799907222477,5.272892462081E-02));
#709 = CARTESIAN_POINT('',(3.884787216869,5.271969687062E-02));
#710 = CARTESIAN_POINT('',(3.927224977864,5.263006003622E-02));
#711 = CARTESIAN_POINT('',(3.969745951745,5.245545641795E-02));
#712 = CARTESIAN_POINT('',(4.012422041581,5.219714902084E-02));
#713 = CARTESIAN_POINT('',(4.05530520075,5.185785549749E-02));
#714 = CARTESIAN_POINT('',(4.098418926032,5.144180596403E-02));
#715 = CARTESIAN_POINT('',(4.141755931795,5.095460991332E-02));
#716 = CARTESIAN_POINT('',(4.259913125676,4.945700899727E-02));
#717 = CARTESIAN_POINT('',(4.335077167004,4.832179960005E-02));
#718 = CARTESIAN_POINT('',(4.410650762014,4.703036970358E-02));
#719 = CARTESIAN_POINT('',(4.486491666795,4.562142285073E-02));
#720 = CARTESIAN_POINT('',(4.562459009337,4.412934978863E-02));
#721 = CARTESIAN_POINT('',(4.638464837381,4.258136783653E-02));
#722 = CARTESIAN_POINT('',(4.714459465232,4.099942804339E-02));
#723 = CARTESIAN_POINT('',(4.867935551178,3.777010984128E-02));
#724 = CARTESIAN_POINT('',(4.945421428419,3.612196525829E-02));
#725 = CARTESIAN_POINT('',(5.022908087541,3.447420433923E-02));
#726 = CARTESIAN_POINT('',(5.100398141427,3.284101313325E-02));
#727 = CARTESIAN_POINT('',(5.177895411381,3.123384886638E-02));
#728 = CARTESIAN_POINT('',(5.255406793154,2.966227450772E-02));
#729 = CARTESIAN_POINT('',(5.332943356913,2.813447742633E-02));
#730 = CARTESIAN_POINT('',(5.410520681183,2.665747213891E-02));
#731 = ( GEOMETRIC_REPRESENTATION_CONTEXT(2) 
PARAMETRIC_REPRESENTATION_CONTEXT() REPRESENTATION_CONTEXT('2D SPACE',''
  ) );
#732 = PCURVE('',#733,#738);
#733 = SPHERICAL_SURFACE('',#734,0.12505);
#734 = AXIS2_PLACEMENT_3D('',#735,#736,#737);
#735 = CARTESIAN_POINT('',(7.395271449444E-02,0.,8.813341318084E-02));
#736 = DIRECTION('',(0.642787609687,0.,0.766044443119));
#737 = DIRECTION('',(0.766044443119,0.,-0.642787609687));
#738 = DEFINITIONAL_REPRESENTATION('',(#739),#784);
#739 = B_SPLINE_CURVE_WITH_KNOTS('',8,(#740,#741,#742,#743,#744,#745,
    #746,#747,#748,#749,#750,#751,#752,#753,#754,#755,#756,#757,#758,
    #759,#760,#761,#762,#763,#764,#765,#766,#767,#768,#769,#770,#771,
    #772,#773,#774,#775,#776,#777,#778,#779,#780,#781,#782,#783),
  .UNSPECIFIED.,.F.,.F.,(9,7,7,7,7,7,9),(0.,0.267168537881,
    0.388918265931,0.500809007004,0.612656074177,0.804432434096,1.),
  .UNSPECIFIED.);
#740 = CARTESIAN_POINT('',(4.8763884487,-1.168162110046));
#741 = CARTESIAN_POINT('',(4.883115280221,-1.185474593718));
#742 = CARTESIAN_POINT('',(4.888710812637,-1.203571169682));
#743 = CARTESIAN_POINT('',(4.892998258255,-1.22230450022));
#744 = CARTESIAN_POINT('',(4.8957550619,-1.241497970374));
#745 = CARTESIAN_POINT('',(4.89662834081,-1.260923522166));
#746 = CARTESIAN_POINT('',(4.895193383496,-1.280292752892));
#747 = CARTESIAN_POINT('',(4.890638358541,-1.299195748776));
#748 = CARTESIAN_POINT('',(4.877947364302,-1.325179338046));
#749 = CARTESIAN_POINT('',(4.873110604295,-1.333093322546));
#750 = CARTESIAN_POINT('',(4.867314155941,-1.340728727944));
#751 = CARTESIAN_POINT('',(4.860454973318,-1.348019184098));
#752 = CARTESIAN_POINT('',(4.852430227834,-1.354889506372));
#753 = CARTESIAN_POINT('',(4.843156047739,-1.361257995076));
#754 = CARTESIAN_POINT('',(4.83259754095,-1.367041955521));
#755 = CARTESIAN_POINT('',(4.809977178645,-1.376875954112));
#756 = CARTESIAN_POINT('',(4.798104849774,-1.381029052298));
#757 = CARTESIAN_POINT('',(4.785234937496,-1.384566873928));
#758 = CARTESIAN_POINT('',(4.771464400856,-1.387439098954));
#759 = CARTESIAN_POINT('',(4.756958625393,-1.389607345021));
#760 = CARTESIAN_POINT('',(4.741945242972,-1.391046828773));
#761 = CARTESIAN_POINT('',(4.726688481063,-1.391746290059));
#762 = CARTESIAN_POINT('',(4.696205552185,-1.391666083661));
#763 = CARTESIAN_POINT('',(4.680978484738,-1.390886991576));
#764 = CARTESIAN_POINT('',(4.666018664397,-1.389369356028));
#765 = CARTESIAN_POINT('',(4.651587997666,-1.387125432649));
#766 = CARTESIAN_POINT('',(4.637909931818,-1.38418102392));
#767 = CARTESIAN_POINT('',(4.625144608535,-1.380575468313));
#768 = CARTESIAN_POINT('',(4.613383711634,-1.376359874078));
#769 = CARTESIAN_POINT('',(4.584286397427,-1.363421196231));
#770 = CARTESIAN_POINT('',(4.56897714263,-1.353632346809));
#771 = CARTESIAN_POINT('',(4.556917968982,-1.342522077763));
#772 = CARTESIAN_POINT('',(4.547758575126,-1.330428591437));
#773 = CARTESIAN_POINT('',(4.540987827956,-1.31764290353));
#774 = CARTESIAN_POINT('',(4.536232073669,-1.304393568997));
#775 = CARTESIAN_POINT('',(4.533154360475,-1.290863161808));
#776 = CARTESIAN_POINT('',(4.529814526138,-1.263252300536));
#777 = CARTESIAN_POINT('',(4.529608833696,-1.249165494991));
#778 = CARTESIAN_POINT('',(4.530610812834,-1.235081979016));
#779 = CARTESIAN_POINT('',(4.532624791116,-1.221118765352));
#780 = CARTESIAN_POINT('',(4.535507748666,-1.207370595799));
#781 = CARTESIAN_POINT('',(4.539151011598,-1.193917234286));
#782 = CARTESIAN_POINT('',(4.543468211653,-1.180827795641));
#783 = CARTESIAN_POINT('',(4.54838951207,-1.168162110046));
#784 = ( GEOMETRIC_REPRESENTATION_CONTEXT(2) 
PARAMETRIC_REPRESENTATION_CONTEXT() REPRESENTATION_CONTEXT('2D SPACE',''
  ) );
#785 = ADVANCED_FACE('',(#786),#377,.F.);
#786 = FACE_BOUND('',#787,.F.);
#787 = EDGE_LOOP('',(#788,#789,#812,#922,#1068,#1122));
#788 = ORIENTED_EDGE('',*,*,#279,.F.);
#789 = ORIENTED_EDGE('',*,*,#790,.F.);
#790 = EDGE_CURVE('',#791,#280,#793,.T.);
#791 = VERTEX_POINT('',#792);
#792 = CARTESIAN_POINT('',(-1.959434878636E-18,3.044446401411E-02,8.E-03
    ));
#793 = SEAM_CURVE('',#794,(#798,#805),.PCURVE_S1.);
#794 = LINE('',#795,#796);
#795 = CARTESIAN_POINT('',(-1.959434878636E-18,-7.5E-02,8.E-03));
#796 = VECTOR('',#797,1.);
#797 = DIRECTION('',(0.,1.,0.));
#798 = PCURVE('',#377,#799);
#799 = DEFINITIONAL_REPRESENTATION('',(#800),#804);
#800 = LINE('',#801,#802);
#801 = CARTESIAN_POINT('',(6.28318530718,-0.));
#802 = VECTOR('',#803,1.);
#803 = DIRECTION('',(0.,1.));
#804 = ( GEOMETRIC_REPRESENTATION_CONTEXT(2) 
PARAMETRIC_REPRESENTATION_CONTEXT() REPRESENTATION_CONTEXT('2D SPACE',''
  ) );
#805 = PCURVE('',#377,#806);
#806 = DEFINITIONAL_REPRESENTATION('',(#807),#811);
#807 = LINE('',#808,#809);
#808 = CARTESIAN_POINT('',(0.,-0.));
#809 = VECTOR('',#810,1.);
#810 = DIRECTION('',(0.,1.));
#811 = ( GEOMETRIC_REPRESENTATION_CONTEXT(2) 
PARAMETRIC_REPRESENTATION_CONTEXT() REPRESENTATION_CONTEXT('2D SPACE',''
  ) );
#812 = ORIENTED_EDGE('',*,*,#813,.T.);
#813 = EDGE_CURVE('',#791,#814,#816,.T.);
#814 = VERTEX_POINT('',#815);
#815 = CARTESIAN_POINT('',(6.128355544952E-03,4.834252786109E-02,
    -5.142300877492E-03));
#816 = SURFACE_CURVE('',#817,(#850,#886),.PCURVE_S1.);
#817 = B_SPLINE_CURVE_WITH_KNOTS('',7,(#818,#819,#820,#821,#822,#823,
    #824,#825,#826,#827,#828,#829,#830,#831,#832,#833,#834,#835,#836,
    #837,#838,#839,#840,#841,#842,#843,#844,#845,#846,#847,#848,#849),
  .UNSPECIFIED.,.F.,.F.,(8,6,6,6,6,8),(0.,0.154199064051,0.308381831713,
    0.476577843,0.739778586516,1.),.UNSPECIFIED.);
#818 = CARTESIAN_POINT('',(-1.959434878636E-18,3.044446401411E-02,8.E-03
    ));
#819 = CARTESIAN_POINT('',(3.969202762095E-04,2.948030409821E-02,8.E-03)
  );
#820 = CARTESIAN_POINT('',(7.938432846698E-04,2.854702139262E-02,
    7.977024303804E-03));
#821 = CARTESIAN_POINT('',(1.189192406037E-03,2.765257713136E-02,
    7.931073860961E-03));
#822 = CARTESIAN_POINT('',(1.581350309063E-03,2.680613627025E-02,
    7.862276588084E-03));
#823 = CARTESIAN_POINT('',(1.968705087368E-03,2.601828001887E-02,
    7.770922718629E-03));
#824 = CARTESIAN_POINT('',(2.349711944493E-03,2.530052674169E-02,
    7.657442880031E-03));
#825 = CARTESIAN_POINT('',(3.096189462487E-03,2.4027862969E-02,
    7.387229195731E-03));
#826 = CARTESIAN_POINT('',(3.461608369416E-03,2.347303088724E-02,
    7.230522765432E-03));
#827 = CARTESIAN_POINT('',(3.817715077505E-03,2.301104290793E-02,
    7.052731161869E-03));
#828 = CARTESIAN_POINT('',(4.162995226841E-03,2.265325456387E-02,
    6.854596711179E-03));
#829 = CARTESIAN_POINT('',(4.496111168251E-03,2.240882498424E-02,
    6.636880362486E-03));
#830 = CARTESIAN_POINT('',(4.815839877482E-03,2.228299271833E-02,
    6.400406971046E-03));
#831 = CARTESIAN_POINT('',(5.453413921787E-03,2.226795647173E-02,
    5.869219250805E-03));
#832 = CARTESIAN_POINT('',(5.768688011436E-03,2.240129912859E-02,
    5.570969592555E-03));
#833 = CARTESIAN_POINT('',(6.064700126473E-03,2.267626767605E-02,
    5.25313819793E-03));
#834 = CARTESIAN_POINT('',(6.340214520267E-03,2.30859960476E-02,
    4.917128769471E-03));
#835 = CARTESIAN_POINT('',(6.593880022198E-03,2.361782169117E-02,
    4.564428297887E-03));
#836 = CARTESIAN_POINT('',(6.824478862555E-03,2.42565940511E-02,
    4.196901016323E-03));
#837 = CARTESIAN_POINT('',(7.354273746571E-03,2.613130379766E-02,
    3.22083402509E-03));
#838 = CARTESIAN_POINT('',(7.621113071884E-03,2.750948740509E-02,
    2.588869988129E-03));
#839 = CARTESIAN_POINT('',(7.825400945255E-03,2.906872671701E-02,
    1.927969445581E-03));
#840 = CARTESIAN_POINT('',(7.962454490491E-03,3.074842787162E-02,
    1.247335716085E-03));
#841 = CARTESIAN_POINT('',(8.030200786613E-03,3.250416274209E-02,
    5.56746259104E-04));
#842 = CARTESIAN_POINT('',(8.028413518977E-03,3.430197988177E-02,
    -1.348976132265E-04));
#843 = CARTESIAN_POINT('',(7.888219922283E-03,3.791119935224E-02,
    -1.496310706803E-03));
#844 = CARTESIAN_POINT('',(7.751367191112E-03,3.972206137567E-02,
    -2.166186074198E-03));
#845 = CARTESIAN_POINT('',(7.548187739665E-03,4.152495838203E-02,
    -2.821170280232E-03));
#846 = CARTESIAN_POINT('',(7.280679002962E-03,4.330166155282E-02,
    -3.453422594514E-03));
#847 = CARTESIAN_POINT('',(6.951969853215E-03,4.503779493117E-02,
    -4.055484870612E-03));
#848 = CARTESIAN_POINT('',(6.566205565932E-03,4.672140793151E-02,
    -4.620491541972E-03));
#849 = CARTESIAN_POINT('',(6.128355544951E-03,4.834252786109E-02,
    -5.142300877493E-03));
#850 = PCURVE('',#377,#851);
#851 = DEFINITIONAL_REPRESENTATION('',(#852),#885);
#852 = B_SPLINE_CURVE_WITH_KNOTS('',7,(#853,#854,#855,#856,#857,#858,
    #859,#860,#861,#862,#863,#864,#865,#866,#867,#868,#869,#870,#871,
    #872,#873,#874,#875,#876,#877,#878,#879,#880,#881,#882,#883,#884),
  .UNSPECIFIED.,.F.,.F.,(8,6,6,6,6,8),(0.,0.154199064051,0.308381831713,
    0.476577843,0.739778586516,1.),.UNSPECIFIED.);
#853 = CARTESIAN_POINT('',(0.,0.105444464014));
#854 = CARTESIAN_POINT('',(4.961503452619E-02,0.104480304098));
#855 = CARTESIAN_POINT('',(9.923045039628E-02,0.103547021393));
#856 = CARTESIAN_POINT('',(0.148848442532,0.102652577131));
#857 = CARTESIAN_POINT('',(0.198466827414,0.10180613627));
#858 = CARTESIAN_POINT('',(0.248081319279,0.101018280019));
#859 = CARTESIAN_POINT('',(0.297691681147,0.100300526742));
#860 = CARTESIAN_POINT('',(0.396926576097,9.9027862969E-02));
#861 = CARTESIAN_POINT('',(0.446543775884,9.847303088724E-02));
#862 = CARTESIAN_POINT('',(0.496163496224,9.801104290793E-02));
#863 = CARTESIAN_POINT('',(0.545774688166,9.765325456387E-02));
#864 = CARTESIAN_POINT('',(0.595385590029,9.740882498424E-02));
#865 = CARTESIAN_POINT('',(0.645012023201,9.728299271833E-02));
#866 = CARTESIAN_POINT('',(0.748744028877,9.726795647173E-02));
#867 = CARTESIAN_POINT('',(0.802885459035,9.740129912859E-02));
#868 = CARTESIAN_POINT('',(0.85700310339,9.767626767605E-02));
#869 = CARTESIAN_POINT('',(0.911124129342,9.80859960476E-02));
#870 = CARTESIAN_POINT('',(0.965256616293,9.861782169117E-02));
#871 = CARTESIAN_POINT('',(1.019383919531,9.92565940511E-02));
#872 = CARTESIAN_POINT('',(1.158206501364,0.101131303798));
#873 = CARTESIAN_POINT('',(1.24354594205,0.102509487405));
#874 = CARTESIAN_POINT('',(1.329325832795,0.104068726717));
#875 = CARTESIAN_POINT('',(1.415319938351,0.105748427872));
#876 = CARTESIAN_POINT('',(1.501362527982,0.107504162742));
#877 = CARTESIAN_POINT('',(1.587386002581,0.109301979882));
#878 = CARTESIAN_POINT('',(1.758462550503,0.112911199352));
#879 = CARTESIAN_POINT('',(1.843508871243,0.114722061376));
#880 = CARTESIAN_POINT('',(1.928557485332,0.116524958382));
#881 = CARTESIAN_POINT('',(2.013613063013,0.118301661553));
#882 = CARTESIAN_POINT('',(2.09868314251,0.120037794931));
#883 = CARTESIAN_POINT('',(2.183781313814,0.121721407932));
#884 = CARTESIAN_POINT('',(2.268928027593,0.123342527861));
#885 = ( GEOMETRIC_REPRESENTATION_CONTEXT(2) 
PARAMETRIC_REPRESENTATION_CONTEXT() REPRESENTATION_CONTEXT('2D SPACE',''
  ) );
#886 = PCURVE('',#517,#887);
#887 = DEFINITIONAL_REPRESENTATION('',(#888),#921);
#888 = B_SPLINE_CURVE_WITH_KNOTS('',7,(#889,#890,#891,#892,#893,#894,
    #895,#896,#897,#898,#899,#900,#901,#902,#903,#904,#905,#906,#907,
    #908,#909,#910,#911,#912,#913,#914,#915,#916,#917,#918,#919,#920),
  .UNSPECIFIED.,.F.,.F.,(8,6,6,6,6,8),(0.,0.154199064051,0.308381831713,
    0.476577843,0.739778586516,1.),.UNSPECIFIED.);
#889 = CARTESIAN_POINT('',(1.738124561193,1.321309392511));
#890 = CARTESIAN_POINT('',(1.733615108895,1.329572701934));
#891 = CARTESIAN_POINT('',(1.728126135098,1.33757873114));
#892 = CARTESIAN_POINT('',(1.721537335622,1.345260274949));
#893 = CARTESIAN_POINT('',(1.713718508685,1.352539482724));
#894 = CARTESIAN_POINT('',(1.704537154275,1.359325231078));
#895 = CARTESIAN_POINT('',(1.693897252852,1.365516817992));
#896 = CARTESIAN_POINT('',(1.6697224714,1.376510557722));
#897 = CARTESIAN_POINT('',(1.65618899259,1.381312010978));
#898 = CARTESIAN_POINT('',(1.641226031914,1.385317489875));
#899 = CARTESIAN_POINT('',(1.624948925992,1.388424447932));
#900 = CARTESIAN_POINT('',(1.607670280494,1.390549027026));
#901 = CARTESIAN_POINT('',(1.58987286676,1.391642706128));
#902 = CARTESIAN_POINT('',(1.552620304556,1.391773399171));
#903 = CARTESIAN_POINT('',(1.533148008959,1.390614409411));
#904 = CARTESIAN_POINT('',(1.514285731105,1.388224275258));
#905 = CARTESIAN_POINT('',(1.496681502405,1.38466604282));
#906 = CARTESIAN_POINT('',(1.480706028083,1.380056516591));
#907 = CARTESIAN_POINT('',(1.466468959748,1.374531422763));
#908 = CARTESIAN_POINT('',(1.43436699302,1.358347788252));
#909 = CARTESIAN_POINT('',(1.418843123481,1.346476894324));
#910 = CARTESIAN_POINT('',(1.407481718928,1.333082493919));
#911 = CARTESIAN_POINT('',(1.399445306091,1.318686774464));
#912 = CARTESIAN_POINT('',(1.394072831762,1.303659774284));
#913 = CARTESIAN_POINT('',(1.390863902785,1.288284969003));
#914 = CARTESIAN_POINT('',(1.38802793761,1.257428587032));
#915 = CARTESIAN_POINT('',(1.388361394906,1.241951583899));
#916 = CARTESIAN_POINT('',(1.390072237589,1.226540524478));
#917 = CARTESIAN_POINT('',(1.392919910803,1.211345704602));
#918 = CARTESIAN_POINT('',(1.396736710228,1.196486505129));
#919 = CARTESIAN_POINT('',(1.401395375999,1.182063614336));
#920 = CARTESIAN_POINT('',(1.40679685848,1.168162110046));
#921 = ( GEOMETRIC_REPRESENTATION_CONTEXT(2) 
PARAMETRIC_REPRESENTATION_CONTEXT() REPRESENTATION_CONTEXT('2D SPACE',''
  ) );
#922 = ORIENTED_EDGE('',*,*,#923,.T.);
#923 = EDGE_CURVE('',#814,#924,#926,.T.);
#924 = VERTEX_POINT('',#925);
#925 = CARTESIAN_POINT('',(-6.128355544952E-03,4.834252786109E-02,
    5.142300877492E-03));
#926 = SURFACE_CURVE('',#927,(#972,#1020),.PCURVE_S1.);
#927 = B_SPLINE_CURVE_WITH_KNOTS('',8,(#928,#929,#930,#931,#932,#933,
    #934,#935,#936,#937,#938,#939,#940,#941,#942,#943,#944,#945,#946,
    #947,#948,#949,#950,#951,#952,#953,#954,#955,#956,#957,#958,#959,
    #960,#961,#962,#963,#964,#965,#966,#967,#968,#969,#970,#971),
  .UNSPECIFIED.,.F.,.F.,(9,7,7,7,7,7,9),(0.,0.267168537881,0.38891826593
    ,0.500809007004,0.612656074176,0.804432434095,1.),.UNSPECIFIED.);
#928 = CARTESIAN_POINT('',(6.128355544953E-03,4.834252786109E-02,
    -5.142300877491E-03));
#929 = CARTESIAN_POINT('',(5.583071295064E-03,4.632363755065E-02,
    -5.792145341281E-03));
#930 = CARTESIAN_POINT('',(4.959671201158E-03,4.421074180657E-02,
    -6.375149014783E-03));
#931 = CARTESIAN_POINT('',(4.267369961725E-03,4.20211104132E-02,
    -6.88098382891E-03));
#932 = CARTESIAN_POINT('',(3.517014648891E-03,3.977577106034E-02,
    -7.300474417123E-03));
#933 = CARTESIAN_POINT('',(2.721117763774E-03,3.750223950126E-02,
    -7.625986786097E-03));
#934 = CARTESIAN_POINT('',(1.893683159354E-03,3.523552525006E-02,
    -7.852050922278E-03));
#935 = CARTESIAN_POINT('',(1.049527234669E-03,3.30255509055E-02,
    -7.975888440009E-03));
#936 = CARTESIAN_POINT('',(-1.821053538049E-04,2.999265930693E-02,
    -8.007221089818E-03));
#937 = CARTESIAN_POINT('',(-5.679962975698E-04,2.906965209554E-02,
    -7.995780726048E-03));
#938 = CARTESIAN_POINT('',(-9.526833072945E-04,2.818001011436E-02,
    -7.963093682938E-03));
#939 = CARTESIAN_POINT('',(-1.334555390486E-03,2.733157061921E-02,
    -7.909315163602E-03));
#940 = CARTESIAN_POINT('',(-1.711975874082E-03,2.653311564506E-02,
    -7.834795399898E-03));
#941 = CARTESIAN_POINT('',(-2.08333804058E-03,2.579406533588E-02,
    -7.740091544827E-03));
#942 = CARTESIAN_POINT('',(-2.447126978998E-03,2.512382250264E-02,
    -7.625949352695E-03));
#943 = CARTESIAN_POINT('',(-3.128112597048E-03,2.398573834589E-02,
    -7.371305225151E-03));
#944 = CARTESIAN_POINT('',(-3.446735451906E-03,2.350583449734E-02,
    -7.233673257604E-03));
#945 = CARTESIAN_POINT('',(-3.756758273378E-03,2.309765848179E-02,
    -7.08104614541E-03));
#946 = CARTESIAN_POINT('',(-4.05738885351E-03,2.276672457622E-02,
    -6.914170680101E-03));
#947 = CARTESIAN_POINT('',(-4.348121157842E-03,2.251715319241E-02,
    -6.733703856273E-03));
#948 = CARTESIAN_POINT('',(-4.628667828355E-03,2.235155066896E-02,
    -6.540133644672E-03));
#949 = CARTESIAN_POINT('',(-4.898844749794E-03,2.227107537919E-02,
    -6.333769725855E-03));
#950 = CARTESIAN_POINT('',(-5.417869294674E-03,2.228030312938E-02,
    -5.89592411096E-03));
#951 = CARTESIAN_POINT('',(-5.66675273301E-03,2.236993996378E-02,
    -5.664429003579E-03));
#952 = CARTESIAN_POINT('',(-5.904816776343E-03,2.254454358205E-02,
    -5.420522747765E-03));
#953 = CARTESIAN_POINT('',(-6.131709551791E-03,2.280285097916E-02,
    -5.164336257854E-03));
#954 = CARTESIAN_POINT('',(-6.3468853039E-03,2.314214450251E-02,
    -4.896078702811E-03));
#955 = CARTESIAN_POINT('',(-6.549597273424E-03,2.355819403597E-02,
    -4.616151587619E-03));
#956 = CARTESIAN_POINT('',(-6.738966682581E-03,2.404539008668E-02,
    -4.32522569027E-03));
#957 = CARTESIAN_POINT('',(-7.214464415724E-03,2.554299100274E-02,
    -3.508271748117E-03));
#958 = CARTESIAN_POINT('',(-7.472933321592E-03,2.667820039993E-02,
    -2.962961215909E-03));
#959 = CARTESIAN_POINT('',(-7.685392996625E-03,2.796963029644E-02,
    -2.392943449299E-03));
#960 = CARTESIAN_POINT('',(-7.848373080542E-03,2.937857714925E-02,
    -1.803730741945E-03));
#961 = CARTESIAN_POINT('',(-7.959535480643E-03,3.087065021138E-02,
    -1.201538387586E-03));
#962 = CARTESIAN_POINT('',(-8.01782084059E-03,3.241863216347E-02,
    -5.924415649994E-04));
#963 = CARTESIAN_POINT('',(-8.023043122044E-03,3.400057195661E-02,
    1.778093997787E-05));
#964 = CARTESIAN_POINT('',(-7.927300815314E-03,3.722989015872E-02,
    1.241851029464E-03));
#965 = CARTESIAN_POINT('',(-7.824232118004E-03,3.887803474171E-02,
    1.855569230858E-03));
#966 = CARTESIAN_POINT('',(-7.666879083972E-03,4.052579566077E-02,
    2.459360049619E-03));
#967 = CARTESIAN_POINT('',(-7.45638061341E-03,4.215898686675E-02,
    3.0476421312E-03));
#968 = CARTESIAN_POINT('',(-7.194552647998E-03,4.376615113362E-02,
    3.615009106948E-03));
#969 = CARTESIAN_POINT('',(-6.883846325318E-03,4.533772549228E-02,
    4.15633937591E-03));
#970 = CARTESIAN_POINT('',(-6.527281487618E-03,4.686552257367E-02,
    4.666879452141E-03));
#971 = CARTESIAN_POINT('',(-6.128355544951E-03,4.834252786109E-02,
    5.142300877493E-03));
#972 = PCURVE('',#377,#973);
#973 = DEFINITIONAL_REPRESENTATION('',(#974),#1019);
#974 = B_SPLINE_CURVE_WITH_KNOTS('',8,(#975,#976,#977,#978,#979,#980,
    #981,#982,#983,#984,#985,#986,#987,#988,#989,#990,#991,#992,#993,
    #994,#995,#996,#997,#998,#999,#1000,#1001,#1002,#1003,#1004,#1005,
    #1006,#1007,#1008,#1009,#1010,#1011,#1012,#1013,#1014,#1015,#1016,
    #1017,#1018),.UNSPECIFIED.,.F.,.F.,(9,7,7,7,7,7,9),(0.,
    0.267168537881,0.38891826593,0.500809007004,0.612656074176,
    0.804432434095,1.),.UNSPECIFIED.);
#975 = CARTESIAN_POINT('',(2.268928027592,0.123342527861));
#976 = CARTESIAN_POINT('',(2.374966990088,0.121323637551));
#977 = CARTESIAN_POINT('',(2.480882062351,0.119210741807));
#978 = CARTESIAN_POINT('',(2.586760774468,0.117021110413));
#979 = CARTESIAN_POINT('',(2.692652023516,0.11477577106));
#980 = CARTESIAN_POINT('',(2.7985669563,0.112502239501));
#981 = CARTESIAN_POINT('',(2.904485750043,0.11023552525));
#982 = CARTESIAN_POINT('',(3.010364789419,0.108025550906));
#983 = CARTESIAN_POINT('',(3.164368673701,0.104992659307));
#984 = CARTESIAN_POINT('',(3.212553135707,0.104069652096));
#985 = CARTESIAN_POINT('',(3.260690133022,0.103180010114));
#986 = CARTESIAN_POINT('',(3.308749300517,0.102331570619));
#987 = CARTESIAN_POINT('',(3.356693365132,0.101533115645));
#988 = CARTESIAN_POINT('',(3.404481159798,0.100794065336));
#989 = CARTESIAN_POINT('',(3.452071654248,0.100123822503));
#990 = CARTESIAN_POINT('',(3.542951472182,9.898573834589E-02));
#991 = CARTESIAN_POINT('',(3.586282080191,9.850583449734E-02));
#992 = CARTESIAN_POINT('',(3.62938824295,9.809765848179E-02));
#993 = CARTESIAN_POINT('',(3.67226482564,9.776672457622E-02));
#994 = CARTESIAN_POINT('',(3.714937601006,9.751715319241E-02));
#995 = CARTESIAN_POINT('',(3.75746058114,9.735155066896E-02));
#996 = CARTESIAN_POINT('',(3.799907222477,9.727107537919E-02));
#997 = CARTESIAN_POINT('',(3.884787216869,9.728030312938E-02));
#998 = CARTESIAN_POINT('',(3.927224977864,9.736993996378E-02));
#999 = CARTESIAN_POINT('',(3.969745951745,9.754454358205E-02));
#1000 = CARTESIAN_POINT('',(4.01242204158,9.780285097916E-02));
#1001 = CARTESIAN_POINT('',(4.05530520075,9.814214450251E-02));
#1002 = CARTESIAN_POINT('',(4.098418926032,9.855819403597E-02));
#1003 = CARTESIAN_POINT('',(4.141755931795,9.904539008668E-02));
#1004 = CARTESIAN_POINT('',(4.259913125676,0.100542991003));
#1005 = CARTESIAN_POINT('',(4.335077167002,0.1016782004));
#1006 = CARTESIAN_POINT('',(4.410650762017,0.102969630296));
#1007 = CARTESIAN_POINT('',(4.486491666791,0.104378577149));
#1008 = CARTESIAN_POINT('',(4.562459009338,0.105870650211));
#1009 = CARTESIAN_POINT('',(4.638464837381,0.107418632163));
#1010 = CARTESIAN_POINT('',(4.714459465232,0.109000571957));
#1011 = CARTESIAN_POINT('',(4.867935551178,0.112229890159));
#1012 = CARTESIAN_POINT('',(4.945421428419,0.113878034742));
#1013 = CARTESIAN_POINT('',(5.022908087541,0.115525795661));
#1014 = CARTESIAN_POINT('',(5.100398141427,0.117158986867));
#1015 = CARTESIAN_POINT('',(5.177895411381,0.118766151134));
#1016 = CARTESIAN_POINT('',(5.255406793154,0.120337725492));
#1017 = CARTESIAN_POINT('',(5.332943356913,0.121865522574));
#1018 = CARTESIAN_POINT('',(5.410520681183,0.123342527861));
#1019 = ( GEOMETRIC_REPRESENTATION_CONTEXT(2) 
PARAMETRIC_REPRESENTATION_CONTEXT() REPRESENTATION_CONTEXT('2D SPACE',''
  ) );
#1020 = PCURVE('',#733,#1021);
#1021 = DEFINITIONAL_REPRESENTATION('',(#1022),#1067);
#1022 = B_SPLINE_CURVE_WITH_KNOTS('',8,(#1023,#1024,#1025,#1026,#1027,
    #1028,#1029,#1030,#1031,#1032,#1033,#1034,#1035,#1036,#1037,#1038,
    #1039,#1040,#1041,#1042,#1043,#1044,#1045,#1046,#1047,#1048,#1049,
    #1050,#1051,#1052,#1053,#1054,#1055,#1056,#1057,#1058,#1059,#1060,
    #1061,#1062,#1063,#1064,#1065,#1066),.UNSPECIFIED.,.F.,.F.,(9,7,7,7,
    7,7,9),(0.,0.267168537881,0.38891826593,0.500809007004,
    0.612656074176,0.804432434095,1.),.UNSPECIFIED.);
#1023 = CARTESIAN_POINT('',(1.40679685848,-1.168162110046));
#1024 = CARTESIAN_POINT('',(1.400070026958,-1.185474593718));
#1025 = CARTESIAN_POINT('',(1.394474494542,-1.203571169682));
#1026 = CARTESIAN_POINT('',(1.390187048924,-1.22230450022));
#1027 = CARTESIAN_POINT('',(1.387430245279,-1.241497970374));
#1028 = CARTESIAN_POINT('',(1.386556966369,-1.260923522166));
#1029 = CARTESIAN_POINT('',(1.387991923684,-1.280292752892));
#1030 = CARTESIAN_POINT('',(1.392546948639,-1.299195748776));
#1031 = CARTESIAN_POINT('',(1.405237942878,-1.325179338046));
#1032 = CARTESIAN_POINT('',(1.410074702884,-1.333093322547));
#1033 = CARTESIAN_POINT('',(1.415871151238,-1.340728727944));
#1034 = CARTESIAN_POINT('',(1.422730333861,-1.348019184098));
#1035 = CARTESIAN_POINT('',(1.430755079346,-1.354889506372));
#1036 = CARTESIAN_POINT('',(1.440029259441,-1.361257995076));
#1037 = CARTESIAN_POINT('',(1.450587766229,-1.367041955521));
#1038 = CARTESIAN_POINT('',(1.473208128535,-1.376875954112));
#1039 = CARTESIAN_POINT('',(1.485080457406,-1.381029052298));
#1040 = CARTESIAN_POINT('',(1.497950369684,-1.384566873928));
#1041 = CARTESIAN_POINT('',(1.511720906324,-1.387439098954));
#1042 = CARTESIAN_POINT('',(1.526226681786,-1.389607345021));
#1043 = CARTESIAN_POINT('',(1.541240064207,-1.391046828773));
#1044 = CARTESIAN_POINT('',(1.556496826117,-1.391746290059));
#1045 = CARTESIAN_POINT('',(1.586979754994,-1.391666083661));
#1046 = CARTESIAN_POINT('',(1.602206822442,-1.390886991576));
#1047 = CARTESIAN_POINT('',(1.617166642782,-1.389369356028));
#1048 = CARTESIAN_POINT('',(1.631597309514,-1.387125432649));
#1049 = CARTESIAN_POINT('',(1.645275375362,-1.38418102392));
#1050 = CARTESIAN_POINT('',(1.658040698645,-1.380575468313));
#1051 = CARTESIAN_POINT('',(1.669801595545,-1.376359874078));
#1052 = CARTESIAN_POINT('',(1.698898909752,-1.363421196231));
#1053 = CARTESIAN_POINT('',(1.714208164549,-1.353632346809));
#1054 = CARTESIAN_POINT('',(1.726267338198,-1.342522077762));
#1055 = CARTESIAN_POINT('',(1.735426732053,-1.330428591437));
#1056 = CARTESIAN_POINT('',(1.742197479224,-1.31764290353));
#1057 = CARTESIAN_POINT('',(1.74695323351,-1.304393568997));
#1058 = CARTESIAN_POINT('',(1.750030946705,-1.290863161808));
#1059 = CARTESIAN_POINT('',(1.753370781042,-1.263252300536));
#1060 = CARTESIAN_POINT('',(1.753576473484,-1.249165494991));
#1061 = CARTESIAN_POINT('',(1.752574494345,-1.235081979016));
#1062 = CARTESIAN_POINT('',(1.750560516064,-1.221118765352));
#1063 = CARTESIAN_POINT('',(1.747677558513,-1.207370595799));
#1064 = CARTESIAN_POINT('',(1.744034295582,-1.193917234286));
#1065 = CARTESIAN_POINT('',(1.739717095526,-1.180827795641));
#1066 = CARTESIAN_POINT('',(1.73479579511,-1.168162110046));
#1067 = ( GEOMETRIC_REPRESENTATION_CONTEXT(2) 
PARAMETRIC_REPRESENTATION_CONTEXT() REPRESENTATION_CONTEXT('2D SPACE',''
  ) );
#1068 = ORIENTED_EDGE('',*,*,#1069,.T.);
#1069 = EDGE_CURVE('',#924,#791,#1070,.T.);
#1070 = SURFACE_CURVE('',#1071,(#1086,#1104),.PCURVE_S1.);
#1071 = B_SPLINE_CURVE_WITH_KNOTS('',7,(#1072,#1073,#1074,#1075,#1076,
    #1077,#1078,#1079,#1080,#1081,#1082,#1083,#1084,#1085),
  .UNSPECIFIED.,.F.,.F.,(8,6,8),(0.,0.849131498431,1.),.UNSPECIFIED.);
#1072 = CARTESIAN_POINT('',(-6.128355544953E-03,4.834252786109E-02,
    5.142300877491E-03));
#1073 = CARTESIAN_POINT('',(-5.583370716986E-03,4.63247461468E-02,
    5.79178850413E-03));
#1074 = CARTESIAN_POINT('',(-4.95857737847E-03,4.421055095381E-02,
    6.373299587163E-03));
#1075 = CARTESIAN_POINT('',(-4.263906715035E-03,4.201880305713E-02,
    6.875535569365E-03));
#1076 = CARTESIAN_POINT('',(-3.511278999102E-03,3.977306707405E-02,
    7.288711357554E-03));
#1077 = CARTESIAN_POINT('',(-2.71451025511E-03,3.750367174619E-02,
    7.605102238514E-03));
#1078 = CARTESIAN_POINT('',(-1.888738634351E-03,3.525195164109E-02,
    7.819811073836E-03));
#1079 = CARTESIAN_POINT('',(-9.003027503075E-04,3.269374756477E-02,
    7.950602633913E-03));
#1080 = CARTESIAN_POINT('',(-7.507607403964E-04,3.231032809977E-02,
    7.967061862238E-03));
#1081 = CARTESIAN_POINT('',(-6.008911124927E-04,3.19297955458E-02,
    7.980236850541E-03));
#1082 = CARTESIAN_POINT('',(-4.507859193676E-04,3.155252815942E-02,
    7.99012012658E-03));
#1083 = CARTESIAN_POINT('',(-3.005387153672E-04,3.117892849335E-02,
    7.996707887533E-03));
#1084 = CARTESIAN_POINT('',(-1.502445564127E-04,3.080942339653E-02,
    8.E-03));
#1085 = CARTESIAN_POINT('',(-1.734723475977E-18,3.044446401411E-02,
    8.E-03));
#1086 = PCURVE('',#377,#1087);
#1087 = DEFINITIONAL_REPRESENTATION('',(#1088),#1103);
#1088 = B_SPLINE_CURVE_WITH_KNOTS('',7,(#1089,#1090,#1091,#1092,#1093,
    #1094,#1095,#1096,#1097,#1098,#1099,#1100,#1101,#1102),
  .UNSPECIFIED.,.F.,.F.,(8,6,8),(0.,0.849131498431,1.),.UNSPECIFIED.);
#1089 = CARTESIAN_POINT('',(5.410520681182,0.123342527861));
#1090 = CARTESIAN_POINT('',(5.51650141645,0.121324746147));
#1091 = CARTESIAN_POINT('',(5.622385467804,0.119210550954));
#1092 = CARTESIAN_POINT('',(5.728237559268,0.117018803057));
#1093 = CARTESIAN_POINT('',(5.834090101417,0.114773067074));
#1094 = CARTESIAN_POINT('',(5.939949149063,0.112503671746));
#1095 = CARTESIAN_POINT('',(6.045799334068,0.110251951641));
#1096 = CARTESIAN_POINT('',(6.170430786324,0.107693747565));
#1097 = CARTESIAN_POINT('',(6.189231881617,0.1073103281));
#1098 = CARTESIAN_POINT('',(6.208030600482,0.106929795546));
#1099 = CARTESIAN_POINT('',(6.226826255103,0.106552528159));
#1100 = CARTESIAN_POINT('',(6.24561798112,0.106178928493));
#1101 = CARTESIAN_POINT('',(6.264404737628,0.105809423397));
#1102 = CARTESIAN_POINT('',(6.28318530718,0.105444464014));
#1103 = ( GEOMETRIC_REPRESENTATION_CONTEXT(2) 
PARAMETRIC_REPRESENTATION_CONTEXT() REPRESENTATION_CONTEXT('2D SPACE',''
  ) );
#1104 = PCURVE('',#517,#1105);
#1105 = DEFINITIONAL_REPRESENTATION('',(#1106),#1121);
#1106 = B_SPLINE_CURVE_WITH_KNOTS('',7,(#1107,#1108,#1109,#1110,#1111,
    #1112,#1113,#1114,#1115,#1116,#1117,#1118,#1119,#1120),
  .UNSPECIFIED.,.F.,.F.,(8,6,8),(0.,0.849131498431,1.),.UNSPECIFIED.);
#1107 = CARTESIAN_POINT('',(1.73479579511,1.168162110046));
#1108 = CARTESIAN_POINT('',(1.74151893285,1.185465087232));
#1109 = CARTESIAN_POINT('',(1.747089534563,1.203572386302));
#1110 = CARTESIAN_POINT('',(1.751321557217,1.222322950681));
#1111 = CARTESIAN_POINT('',(1.753948659806,1.241519372179));
#1112 = CARTESIAN_POINT('',(1.754621496053,1.260909981876));
#1113 = CARTESIAN_POINT('',(1.752740445168,1.280156533));
#1114 = CARTESIAN_POINT('',(1.746391576911,1.302046464798));
#1115 = CARTESIAN_POINT('',(1.745323035307,1.305327949225));
#1116 = CARTESIAN_POINT('',(1.744138458798,1.30858546732));
#1117 = CARTESIAN_POINT('',(1.742832267224,1.31181585545));
#1118 = CARTESIAN_POINT('',(1.741398637803,1.315015735903));
#1119 = CARTESIAN_POINT('',(1.739831505133,1.318181516882));
#1120 = CARTESIAN_POINT('',(1.738124561193,1.321309392511));
#1121 = ( GEOMETRIC_REPRESENTATION_CONTEXT(2) 
PARAMETRIC_REPRESENTATION_CONTEXT() REPRESENTATION_CONTEXT('2D SPACE',''
  ) );
#1122 = ORIENTED_EDGE('',*,*,#790,.T.);
#1123 = ADVANCED_FACE('',(#1124),#517,.F.);
#1124 = FACE_BOUND('',#1125,.F.);
#1125 = EDGE_LOOP('',(#1126,#1150,#1174,#1175,#1197,#1198,#1199,#1221,
    #1222));
#1126 = ORIENTED_EDGE('',*,*,#1127,.T.);
#1127 = EDGE_CURVE('',#444,#1128,#1130,.T.);
#1128 = VERTEX_POINT('',#1129);
#1129 = CARTESIAN_POINT('',(3.753617771283E-02,-1.200153863164E-17,
    -3.149659287464E-02));
#1130 = SURFACE_CURVE('',#1131,(#1136,#1143),.PCURVE_S1.);
#1131 = CIRCLE('',#1132,4.9E-02);
#1132 = AXIS2_PLACEMENT_3D('',#1133,#1134,#1135);
#1133 = CARTESIAN_POINT('',(0.,0.,0.));
#1134 = DIRECTION('',(0.642787609687,0.,0.766044443119));
#1135 = DIRECTION('',(0.,-1.,0.));
#1136 = PCURVE('',#517,#1137);
#1137 = DEFINITIONAL_REPRESENTATION('',(#1138),#1142);
#1138 = LINE('',#1139,#1140);
#1139 = CARTESIAN_POINT('',(-1.570796326795,1.168162110046));
#1140 = VECTOR('',#1141,1.);
#1141 = DIRECTION('',(1.,0.));
#1142 = ( GEOMETRIC_REPRESENTATION_CONTEXT(2) 
PARAMETRIC_REPRESENTATION_CONTEXT() REPRESENTATION_CONTEXT('2D SPACE',''
  ) );
#1143 = PCURVE('',#733,#1144);
#1144 = DEFINITIONAL_REPRESENTATION('',(#1145),#1149);
#1145 = LINE('',#1146,#1147);
#1146 = CARTESIAN_POINT('',(-1.570796326795,-1.168162110046));
#1147 = VECTOR('',#1148,1.);
#1148 = DIRECTION('',(1.,0.));
#1149 = ( GEOMETRIC_REPRESENTATION_CONTEXT(2) 
PARAMETRIC_REPRESENTATION_CONTEXT() REPRESENTATION_CONTEXT('2D SPACE',''
  ) );
#1150 = ORIENTED_EDGE('',*,*,#1151,.T.);
#1151 = EDGE_CURVE('',#1128,#1152,#1154,.T.);
#1152 = VERTEX_POINT('',#1153);
#1153 = CARTESIAN_POINT('',(6.427876096865E-03,-1.875449608219E-33,
    7.66044443119E-03));
#1154 = SEAM_CURVE('',#1155,(#1160,#1167),.PCURVE_S1.);
#1155 = CIRCLE('',#1156,0.12505);
#1156 = AXIS2_PLACEMENT_3D('',#1157,#1158,#1159);
#1157 = CARTESIAN_POINT('',(-7.395271449444E-02,0.,-8.813341318084E-02)
  );
#1158 = DIRECTION('',(-1.876267750541E-16,-1.,1.574375577468E-16));
#1159 = DIRECTION('',(0.766044443119,-2.449293598295E-16,-0.642787609687
    ));
#1160 = PCURVE('',#517,#1161);
#1161 = DEFINITIONAL_REPRESENTATION('',(#1162),#1166);
#1162 = LINE('',#1163,#1164);
#1163 = CARTESIAN_POINT('',(0.,-6.28318530718));
#1164 = VECTOR('',#1165,1.);
#1165 = DIRECTION('',(0.,1.));
#1166 = ( GEOMETRIC_REPRESENTATION_CONTEXT(2) 
PARAMETRIC_REPRESENTATION_CONTEXT() REPRESENTATION_CONTEXT('2D SPACE',''
  ) );
#1167 = PCURVE('',#517,#1168);
#1168 = DEFINITIONAL_REPRESENTATION('',(#1169),#1173);
#1169 = LINE('',#1170,#1171);
#1170 = CARTESIAN_POINT('',(6.28318530718,-6.28318530718));
#1171 = VECTOR('',#1172,1.);
#1172 = DIRECTION('',(0.,1.));
#1173 = ( GEOMETRIC_REPRESENTATION_CONTEXT(2) 
PARAMETRIC_REPRESENTATION_CONTEXT() REPRESENTATION_CONTEXT('2D SPACE',''
  ) );
#1174 = ORIENTED_EDGE('',*,*,#1151,.F.);
#1175 = ORIENTED_EDGE('',*,*,#1176,.T.);
#1176 = EDGE_CURVE('',#1128,#814,#1177,.T.);
#1177 = SURFACE_CURVE('',#1178,(#1183,#1190),.PCURVE_S1.);
#1178 = CIRCLE('',#1179,4.9E-02);
#1179 = AXIS2_PLACEMENT_3D('',#1180,#1181,#1182);
#1180 = CARTESIAN_POINT('',(0.,0.,0.));
#1181 = DIRECTION('',(0.642787609687,0.,0.766044443119));
#1182 = DIRECTION('',(0.,-1.,0.));
#1183 = PCURVE('',#517,#1184);
#1184 = DEFINITIONAL_REPRESENTATION('',(#1185),#1189);
#1185 = LINE('',#1186,#1187);
#1186 = CARTESIAN_POINT('',(-1.570796326795,1.168162110046));
#1187 = VECTOR('',#1188,1.);
#1188 = DIRECTION('',(1.,0.));
#1189 = ( GEOMETRIC_REPRESENTATION_CONTEXT(2) 
PARAMETRIC_REPRESENTATION_CONTEXT() REPRESENTATION_CONTEXT('2D SPACE',''
  ) );
#1190 = PCURVE('',#733,#1191);
#1191 = DEFINITIONAL_REPRESENTATION('',(#1192),#1196);
#1192 = LINE('',#1193,#1194);
#1193 = CARTESIAN_POINT('',(-1.570796326795,-1.168162110046));
#1194 = VECTOR('',#1195,1.);
#1195 = DIRECTION('',(1.,0.));
#1196 = ( GEOMETRIC_REPRESENTATION_CONTEXT(2) 
PARAMETRIC_REPRESENTATION_CONTEXT() REPRESENTATION_CONTEXT('2D SPACE',''
  ) );
#1197 = ORIENTED_EDGE('',*,*,#813,.F.);
#1198 = ORIENTED_EDGE('',*,*,#1069,.F.);
#1199 = ORIENTED_EDGE('',*,*,#1200,.T.);
#1200 = EDGE_CURVE('',#924,#582,#1201,.T.);
#1201 = SURFACE_CURVE('',#1202,(#1207,#1214),.PCURVE_S1.);
#1202 = CIRCLE('',#1203,4.9E-02);
#1203 = AXIS2_PLACEMENT_3D('',#1204,#1205,#1206);
#1204 = CARTESIAN_POINT('',(0.,0.,0.));
#1205 = DIRECTION('',(0.642787609687,0.,0.766044443119));
#1206 = DIRECTION('',(0.,-1.,0.));
#1207 = PCURVE('',#517,#1208);
#1208 = DEFINITIONAL_REPRESENTATION('',(#1209),#1213);
#1209 = LINE('',#1210,#1211);
#1210 = CARTESIAN_POINT('',(-1.570796326795,1.168162110046));
#1211 = VECTOR('',#1212,1.);
#1212 = DIRECTION('',(1.,0.));
#1213 = ( GEOMETRIC_REPRESENTATION_CONTEXT(2) 
PARAMETRIC_REPRESENTATION_CONTEXT() REPRESENTATION_CONTEXT('2D SPACE',''
  ) );
#1214 = PCURVE('',#733,#1215);
#1215 = DEFINITIONAL_REPRESENTATION('',(#1216),#1220);
#1216 = LINE('',#1217,#1218);
#1217 = CARTESIAN_POINT('',(-1.570796326795,-1.168162110046));
#1218 = VECTOR('',#1219,1.);
#1219 = DIRECTION('',(1.,0.));
#1220 = ( GEOMETRIC_REPRESENTATION_CONTEXT(2) 
PARAMETRIC_REPRESENTATION_CONTEXT() REPRESENTATION_CONTEXT('2D SPACE',''
  ) );
#1221 = ORIENTED_EDGE('',*,*,#581,.T.);
#1222 = ORIENTED_EDGE('',*,*,#441,.T.);
#1223 = ADVANCED_FACE('',(#1224),#733,.F.);
#1224 = FACE_BOUND('',#1225,.F.);
#1225 = EDGE_LOOP('',(#1226,#1250,#1251,#1252,#1253,#1254,#1255));
#1226 = ORIENTED_EDGE('',*,*,#1227,.T.);
#1227 = EDGE_CURVE('',#1228,#1128,#1230,.T.);
#1228 = VERTEX_POINT('',#1229);
#1229 = CARTESIAN_POINT('',(-6.427876096865E-03,-1.875449608219E-33,
    -7.66044443119E-03));
#1230 = SEAM_CURVE('',#1231,(#1236,#1243),.PCURVE_S1.);
#1231 = CIRCLE('',#1232,0.12505);
#1232 = AXIS2_PLACEMENT_3D('',#1233,#1234,#1235);
#1233 = CARTESIAN_POINT('',(7.395271449444E-02,0.,8.813341318084E-02));
#1234 = DIRECTION('',(-1.876267750541E-16,-1.,1.574375577468E-16));
#1235 = DIRECTION('',(0.766044443119,-2.449293598295E-16,-0.642787609687
    ));
#1236 = PCURVE('',#733,#1237);
#1237 = DEFINITIONAL_REPRESENTATION('',(#1238),#1242);
#1238 = LINE('',#1239,#1240);
#1239 = CARTESIAN_POINT('',(6.28318530718,-6.28318530718));
#1240 = VECTOR('',#1241,1.);
#1241 = DIRECTION('',(0.,1.));
#1242 = ( GEOMETRIC_REPRESENTATION_CONTEXT(2) 
PARAMETRIC_REPRESENTATION_CONTEXT() REPRESENTATION_CONTEXT('2D SPACE',''
  ) );
#1243 = PCURVE('',#733,#1244);
#1244 = DEFINITIONAL_REPRESENTATION('',(#1245),#1249);
#1245 = LINE('',#1246,#1247);
#1246 = CARTESIAN_POINT('',(0.,-6.28318530718));
#1247 = VECTOR('',#1248,1.);
#1248 = DIRECTION('',(0.,1.));
#1249 = ( GEOMETRIC_REPRESENTATION_CONTEXT(2) 
PARAMETRIC_REPRESENTATION_CONTEXT() REPRESENTATION_CONTEXT('2D SPACE',''
  ) );
#1250 = ORIENTED_EDGE('',*,*,#1127,.F.);
#1251 = ORIENTED_EDGE('',*,*,#637,.T.);
#1252 = ORIENTED_EDGE('',*,*,#1200,.F.);
#1253 = ORIENTED_EDGE('',*,*,#923,.F.);
#1254 = ORIENTED_EDGE('',*,*,#1176,.F.);
#1255 = ORIENTED_EDGE('',*,*,#1227,.F.);
#1256 = ( GEOMETRIC_REPRESENTATION_CONTEXT(3) 
GLOBAL_UNCERTAINTY_ASSIGNED_CONTEXT((#1260)) 
GLOBAL_UNIT_ASSIGNED_CONTEXT((#1257,#1258,#1259)) REPRESENTATION_CONTEXT
('Context #1','3D Context with UNIT and UNCERTAINTY') );
#1257 = ( LENGTH_UNIT() NAMED_UNIT(*) SI_UNIT($,.METRE.) );
#1258 = ( NAMED_UNIT(*) PLANE_ANGLE_UNIT() SI_UNIT($,.RADIAN.) );
#1259 = ( NAMED_UNIT(*) SI_UNIT($,.STERADIAN.) SOLID_ANGLE_UNIT() );
#1260 = UNCERTAINTY_MEASURE_WITH_UNIT(LENGTH_MEASURE(1.E-07),#1257,
  'distance_accuracy_value','confusion accuracy');
#1261 = CONTEXT_DEPENDENT_SHAPE_REPRESENTATION(#1262,#1264);
#1262 = ( REPRESENTATION_RELATIONSHIP('','',#32,#10) 
REPRESENTATION_RELATIONSHIP_WITH_TRANSFORMATION(#1263) 
SHAPE_REPRESENTATION_RELATIONSHIP() );
#1263 = ITEM_DEFINED_TRANSFORMATION('','',#11,#15);
#1264 = PRODUCT_DEFINITION_SHAPE('Placement','Placement of an item',
  #1265);
#1265 = NEXT_ASSEMBLY_USAGE_OCCURRENCE('5','Fluido','',#5,#27,$);
#1266 = PRODUCT_RELATED_PRODUCT_CATEGORY('part',$,(#29));
#1267 = MECHANICAL_DESIGN_GEOMETRIC_PRESENTATION_REPRESENTATION('',(
    #1268),#1256);
#1268 = STYLED_ITEM('color',(#1269),#33);
#1269 = PRESENTATION_STYLE_ASSIGNMENT((#1270));
#1270 = SURFACE_STYLE_USAGE(.BOTH.,#1271);
#1271 = SURFACE_SIDE_STYLE('',(#1272));
#1272 = SURFACE_STYLE_FILL_AREA(#1273);
#1273 = FILL_AREA_STYLE('',(#1274));
#1274 = FILL_AREA_STYLE_COLOUR('',#1275);
#1275 = COLOUR_RGB('',0.274509682866,0.509803958822,0.705882339664);
ENDSEC;
END-ISO-10303-21;
