ISO-10303-21;
HEADER;
FILE_DESCRIPTION(('Open CASCADE Model'),'2;1');
FILE_NAME('Open CASCADE Shape Model','2026-08-18T19:31:34',('Author'),(
    'Open CASCADE'),'Open CASCADE STEP processor 7.9','Open CASCADE 7.9'
  ,'Unknown');
FILE_SCHEMA(('AUTOMOTIVE_DESIGN { 1 0 10303 214 1 1 1 1 }'));
ENDSEC;
DATA;
#1 = APPLICATION_PROTOCOL_DEFINITION('international standard',
  'automotive_design',2000,#2);
#2 = APPLICATION_CONTEXT(
  'core data for automotive mechanical design processes');
#3 = SHAPE_DEFINITION_REPRESENTATION(#4,#10);
#4 = PRODUCT_DEFINITION_SHAPE('','',#5);
#5 = PRODUCT_DEFINITION('design','',#6,#9);
#6 = PRODUCT_DEFINITION_FORMATION('','',#7);
#7 = PRODUCT('Fluido_60graus','Fluido_60graus','',(#8));
#8 = PRODUCT_CONTEXT('',#2,'mechanical');
#9 = PRODUCT_DEFINITION_CONTEXT('part definition',#2,'design');
#10 = SHAPE_REPRESENTATION('',(#11,#15),#19);
#11 = AXIS2_PLACEMENT_3D('',#12,#13,#14);
#12 = CARTESIAN_POINT('',(0.,0.,0.));
#13 = DIRECTION('',(0.,0.,1.));
#14 = DIRECTION('',(1.,0.,-0.));
#15 = AXIS2_PLACEMENT_3D('',#16,#17,#18);
#16 = CARTESIAN_POINT('',(0.,0.,0.));
#17 = DIRECTION('',(0.,0.,1.));
#18 = DIRECTION('',(1.,0.,-0.));
#19 = ( GEOMETRIC_REPRESENTATION_CONTEXT(3) 
GLOBAL_UNCERTAINTY_ASSIGNED_CONTEXT((#23)) GLOBAL_UNIT_ASSIGNED_CONTEXT(
(#20,#21,#22)) REPRESENTATION_CONTEXT('Context #1',
  '3D Context with UNIT and UNCERTAINTY') );
#20 = ( LENGTH_UNIT() NAMED_UNIT(*) SI_UNIT($,.METRE.) );
#21 = ( NAMED_UNIT(*) PLANE_ANGLE_UNIT() SI_UNIT($,.RADIAN.) );
#22 = ( NAMED_UNIT(*) SI_UNIT($,.STERADIAN.) SOLID_ANGLE_UNIT() );
#23 = UNCERTAINTY_MEASURE_WITH_UNIT(LENGTH_MEASURE(1.E-07),#20,
  'distance_accuracy_value','confusion accuracy');
#24 = PRODUCT_RELATED_PRODUCT_CATEGORY('part',$,(#7));
#25 = SHAPE_DEFINITION_REPRESENTATION(#26,#32);
#26 = PRODUCT_DEFINITION_SHAPE('','',#27);
#27 = PRODUCT_DEFINITION('design','',#28,#31);
#28 = PRODUCT_DEFINITION_FORMATION('','',#29);
#29 = PRODUCT('Fluido','Fluido','',(#30));
#30 = PRODUCT_CONTEXT('',#2,'mechanical');
#31 = PRODUCT_DEFINITION_CONTEXT('part definition',#2,'design');
#32 = ADVANCED_BREP_SHAPE_REPRESENTATION('',(#11,#33),#1256);
#33 = MANIFOLD_SOLID_BREP('',#34);
#34 = CLOSED_SHELL('',(#35,#429,#433,#437,#785,#1123,#1223));
#35 = ADVANCED_FACE('',(#36,#123,#276),#50,.T.);
#36 = FACE_BOUND('',#37,.T.);
#37 = EDGE_LOOP('',(#38,#68,#95,#96));
#38 = ORIENTED_EDGE('',*,*,#39,.T.);
#39 = EDGE_CURVE('',#40,#42,#44,.T.);
#40 = VERTEX_POINT('',#41);
#41 = CARTESIAN_POINT('',(-0.5,1.224646799147E-17,5.E-02));
#42 = VERTEX_POINT('',#43);
#43 = CARTESIAN_POINT('',(1.,1.224646799147E-17,5.E-02));
#44 = SEAM_CURVE('',#45,(#49,#61),.PCURVE_S1.);
#45 = LINE('',#46,#47);
#46 = CARTESIAN_POINT('',(-0.5,1.224646799147E-17,5.E-02));
#47 = VECTOR('',#48,1.);
#48 = DIRECTION('',(1.,0.,0.));
#49 = PCURVE('',#50,#55);
#50 = CYLINDRICAL_SURFACE('',#51,5.E-02);
#51 = AXIS2_PLACEMENT_3D('',#52,#53,#54);
#52 = CARTESIAN_POINT('',(-0.5,0.,0.));
#53 = DIRECTION('',(1.,0.,0.));
#54 = DIRECTION('',(-0.,0.,1.));
#55 = DEFINITIONAL_REPRESENTATION('',(#56),#60);
#56 = LINE('',#57,#58);
#57 = CARTESIAN_POINT('',(6.28318530718,-0.));
#58 = VECTOR('',#59,1.);
#59 = DIRECTION('',(0.,1.));
#60 = ( GEOMETRIC_REPRESENTATION_CONTEXT(2) 
PARAMETRIC_REPRESENTATION_CONTEXT() REPRESENTATION_CONTEXT('2D SPACE',''
  ) );
#61 = PCURVE('',#50,#62);
#62 = DEFINITIONAL_REPRESENTATION('',(#63),#67);
#63 = LINE('',#64,#65);
#64 = CARTESIAN_POINT('',(0.,-0.));
#65 = VECTOR('',#66,1.);
#66 = DIRECTION('',(0.,1.));
#67 = ( GEOMETRIC_REPRESENTATION_CONTEXT(2) 
PARAMETRIC_REPRESENTATION_CONTEXT() REPRESENTATION_CONTEXT('2D SPACE',''
  ) );
#68 = ORIENTED_EDGE('',*,*,#69,.F.);
#69 = EDGE_CURVE('',#42,#42,#70,.T.);
#70 = SURFACE_CURVE('',#71,(#76,#83),.PCURVE_S1.);
#71 = CIRCLE('',#72,5.E-02);
#72 = AXIS2_PLACEMENT_3D('',#73,#74,#75);
#73 = CARTESIAN_POINT('',(1.,0.,0.));
#74 = DIRECTION('',(1.,0.,0.));
#75 = DIRECTION('',(-0.,0.,1.));
#76 = PCURVE('',#50,#77);
#77 = DEFINITIONAL_REPRESENTATION('',(#78),#82);
#78 = LINE('',#79,#80);
#79 = CARTESIAN_POINT('',(0.,1.5));
#80 = VECTOR('',#81,1.);
#81 = DIRECTION('',(1.,0.));
#82 = ( GEOMETRIC_REPRESENTATION_CONTEXT(2) 
PARAMETRIC_REPRESENTATION_CONTEXT() REPRESENTATION_CONTEXT('2D SPACE',''
  ) );
#83 = PCURVE('',#84,#89);
#84 = PLANE('',#85);
#85 = AXIS2_PLACEMENT_3D('',#86,#87,#88);
#86 = CARTESIAN_POINT('',(1.,0.,0.));
#87 = DIRECTION('',(1.,0.,0.));
#88 = DIRECTION('',(-0.,0.,1.));
#89 = DEFINITIONAL_REPRESENTATION('',(#90),#94);
#90 = CIRCLE('',#91,5.E-02);
#91 = AXIS2_PLACEMENT_2D('',#92,#93);
#92 = CARTESIAN_POINT('',(0.,0.));
#93 = DIRECTION('',(1.,0.));
#94 = ( GEOMETRIC_REPRESENTATION_CONTEXT(2) 
PARAMETRIC_REPRESENTATION_CONTEXT() REPRESENTATION_CONTEXT('2D SPACE',''
  ) );
#95 = ORIENTED_EDGE('',*,*,#39,.F.);
#96 = ORIENTED_EDGE('',*,*,#97,.T.);
#97 = EDGE_CURVE('',#40,#40,#98,.T.);
#98 = SURFACE_CURVE('',#99,(#104,#111),.PCURVE_S1.);
#99 = CIRCLE('',#100,5.E-02);
#100 = AXIS2_PLACEMENT_3D('',#101,#102,#103);
#101 = CARTESIAN_POINT('',(-0.5,0.,0.));
#102 = DIRECTION('',(1.,0.,0.));
#103 = DIRECTION('',(-0.,0.,1.));
#104 = PCURVE('',#50,#105);
#105 = DEFINITIONAL_REPRESENTATION('',(#106),#110);
#106 = LINE('',#107,#108);
#107 = CARTESIAN_POINT('',(0.,0.));
#108 = VECTOR('',#109,1.);
#109 = DIRECTION('',(1.,0.));
#110 = ( GEOMETRIC_REPRESENTATION_CONTEXT(2) 
PARAMETRIC_REPRESENTATION_CONTEXT() REPRESENTATION_CONTEXT('2D SPACE',''
  ) );
#111 = PCURVE('',#112,#117);
#112 = PLANE('',#113);
#113 = AXIS2_PLACEMENT_3D('',#114,#115,#116);
#114 = CARTESIAN_POINT('',(-0.5,0.,0.));
#115 = DIRECTION('',(1.,0.,0.));
#116 = DIRECTION('',(-0.,0.,1.));
#117 = DEFINITIONAL_REPRESENTATION('',(#118),#122);
#118 = CIRCLE('',#119,5.E-02);
#119 = AXIS2_PLACEMENT_2D('',#120,#121);
#120 = CARTESIAN_POINT('',(0.,0.));
#121 = DIRECTION('',(1.,0.));
#122 = ( GEOMETRIC_REPRESENTATION_CONTEXT(2) 
PARAMETRIC_REPRESENTATION_CONTEXT() REPRESENTATION_CONTEXT('2D SPACE',''
  ) );
#123 = FACE_BOUND('',#124,.T.);
#124 = EDGE_LOOP('',(#125));
#125 = ORIENTED_EDGE('',*,*,#126,.T.);
#126 = EDGE_CURVE('',#127,#127,#129,.T.);
#127 = VERTEX_POINT('',#128);
#128 = CARTESIAN_POINT('',(-1.959434878636E-18,-4.935585071701E-02,
    8.E-03));
#129 = SURFACE_CURVE('',#130,(#175,#223),.PCURVE_S1.);
#130 = B_SPLINE_CURVE_WITH_KNOTS('',8,(#131,#132,#133,#134,#135,#136,
    #137,#138,#139,#140,#141,#142,#143,#144,#145,#146,#147,#148,#149,
    #150,#151,#152,#153,#154,#155,#156,#157,#158,#159,#160,#161,#162,
    #163,#164,#165,#166,#167,#168,#169,#170,#171,#172,#173,#174),
  .UNSPECIFIED.,.T.,.F.,(9,7,7,7,7,7,9),(0.,0.139446999999,
    0.290711047851,0.500652341094,0.639735947188,0.790605806321,1.),
  .UNSPECIFIED.);
#131 = CARTESIAN_POINT('',(-1.734723475977E-18,-4.935585071701E-02,
    8.E-03));
#132 = CARTESIAN_POINT('',(8.83192481735E-04,-4.935585071701E-02,8.E-03)
  );
#133 = CARTESIAN_POINT('',(1.764819183317E-03,-4.937383209112E-02,
    7.888541975783E-03));
#134 = CARTESIAN_POINT('',(2.629239797021E-03,-4.940994971838E-02,
    7.666373094318E-03));
#135 = CARTESIAN_POINT('',(3.460586417668E-03,-4.94620293382E-02,
    7.336583290209E-03));
#136 = CARTESIAN_POINT('',(4.243374203103E-03,-4.952618040107E-02,
    6.904862078398E-03));
#137 = CARTESIAN_POINT('',(4.963112034685E-03,-4.959740891922E-02,
    6.379755366867E-03));
#138 = CARTESIAN_POINT('',(5.606913177773E-03,-4.967023031737E-02,
    5.772922269341E-03));
#139 = CARTESIAN_POINT('',(6.768516456475E-03,-4.981418586606E-02,
    4.368785111835E-03));
#140 = CARTESIAN_POINT('',(7.271613076615E-03,-4.988480284108E-02,
    3.559089185093E-03));
#141 = CARTESIAN_POINT('',(7.660870364966E-03,-4.994464210693E-02,
    2.688605692072E-03));
#142 = CARTESIAN_POINT('',(7.93377292135E-03,-4.998893640042E-02,
    1.769246455985E-03));
#143 = CARTESIAN_POINT('',(8.076681013922E-03,-5.001272522343E-02,
    8.228671232586E-04));
#144 = CARTESIAN_POINT('',(8.095963897651E-03,-5.001548411034E-02,
    -1.315654550236E-04));
#145 = CARTESIAN_POINT('',(7.981904161422E-03,-4.999657690544E-02,
    -1.081113665575E-03));
#146 = CARTESIAN_POINT('',(7.424950095632E-03,-4.991019548285E-02,
    -3.250306533836E-03));
#147 = CARTESIAN_POINT('',(6.861907959805E-03,-4.98252274177E-02,
    -4.469503626413E-03));
#148 = CARTESIAN_POINT('',(6.06597478154E-03,-4.971244248905E-02,
    -5.574176043587E-03));
#149 = CARTESIAN_POINT('',(5.070869579044E-03,-4.958954915689E-02,
    -6.511983258196E-03));
#150 = CARTESIAN_POINT('',(3.919113723493E-03,-4.947825380243E-02,
    -7.2447906268E-03));
#151 = CARTESIAN_POINT('',(2.656669854292E-03,-4.939701071676E-02,
    -7.746076325063E-03));
#152 = CARTESIAN_POINT('',(1.333144696235E-03,-4.935585071701E-02,
    -8.E-03));
#153 = CARTESIAN_POINT('',(-8.831924817348E-04,-4.935585071701E-02,
    -8.E-03));
#154 = CARTESIAN_POINT('',(-1.764819183316E-03,-4.937383209112E-02,
    -7.888541975783E-03));
#155 = CARTESIAN_POINT('',(-2.629239797021E-03,-4.940994971838E-02,
    -7.666373094318E-03));
#156 = CARTESIAN_POINT('',(-3.460586417668E-03,-4.94620293382E-02,
    -7.336583290209E-03));
#157 = CARTESIAN_POINT('',(-4.243374203103E-03,-4.952618040107E-02,
    -6.904862078398E-03));
#158 = CARTESIAN_POINT('',(-4.963112034685E-03,-4.959740891922E-02,
    -6.379755366867E-03));
#159 = CARTESIAN_POINT('',(-5.606913177772E-03,-4.967023031737E-02,
    -5.772922269341E-03));
#160 = CARTESIAN_POINT('',(-6.768516456433E-03,-4.981418586606E-02,
    -4.368785111885E-03));
#161 = CARTESIAN_POINT('',(-7.271613076774E-03,-4.98848028411E-02,
    -3.559089184916E-03));
#162 = CARTESIAN_POINT('',(-7.660870364804E-03,-4.994464210691E-02,
    -2.688605692144E-03));
#163 = CARTESIAN_POINT('',(-7.9337729214E-03,-4.998893640042E-02,
    -1.769246456082E-03));
#164 = CARTESIAN_POINT('',(-8.076681013993E-03,-5.001272522344E-02,
    -8.228671231914E-04));
#165 = CARTESIAN_POINT('',(-8.095963897554E-03,-5.001548411032E-02,
    1.315654552078E-04));
#166 = CARTESIAN_POINT('',(-7.981904161473E-03,-4.999657690544E-02,
    1.081113665375E-03));
#167 = CARTESIAN_POINT('',(-7.42495009561E-03,-4.991019548285E-02,
    3.250306533918E-03));
#168 = CARTESIAN_POINT('',(-6.861907959875E-03,-4.982522741771E-02,
    4.469503626192E-03));
#169 = CARTESIAN_POINT('',(-6.065974781516E-03,-4.971244248904E-02,
    5.574176043768E-03));
#170 = CARTESIAN_POINT('',(-5.070869578933E-03,-4.958954915688E-02,
    6.511983258271E-03));
#171 = CARTESIAN_POINT('',(-3.919113723524E-03,-4.947825380244E-02,
    7.244790626625E-03));
#172 = CARTESIAN_POINT('',(-2.656669854468E-03,-4.939701071676E-02,
    7.74607632513E-03));
#173 = CARTESIAN_POINT('',(-1.333144696094E-03,-4.935585071701E-02,
    8.E-03));
#174 = CARTESIAN_POINT('',(-1.734723475977E-18,-4.935585071701E-02,
    8.E-03));
#175 = PCURVE('',#50,#176);
#176 = DEFINITIONAL_REPRESENTATION('',(#177),#222);
#177 = B_SPLINE_CURVE_WITH_KNOTS('',8,(#178,#179,#180,#181,#182,#183,
    #184,#185,#186,#187,#188,#189,#190,#191,#192,#193,#194,#195,#196,
    #197,#198,#199,#200,#201,#202,#203,#204,#205,#206,#207,#208,#209,
    #210,#211,#212,#213,#214,#215,#216,#217,#218,#219,#220,#221),
  .UNSPECIFIED.,.F.,.F.,(9,7,7,7,7,7,9),(0.,0.139446999999,
    0.290711047851,0.500652341094,0.639735947188,0.790605806321,1.),
  .UNSPECIFIED.);
#178 = CARTESIAN_POINT('',(1.410105673843,0.5));
#179 = CARTESIAN_POINT('',(1.410105673843,0.500883192482));
#180 = CARTESIAN_POINT('',(1.412363676587,0.501764819183));
#181 = CARTESIAN_POINT('',(1.416865462299,0.502629239797));
#182 = CARTESIAN_POINT('',(1.423542761836,0.503460586418));
#183 = CARTESIAN_POINT('',(1.432271129247,0.504243374203));
#184 = CARTESIAN_POINT('',(1.442867814339,0.504963112035));
#185 = CARTESIAN_POINT('',(1.455089635241,0.505606913178));
#186 = CARTESIAN_POINT('',(1.483319579322,0.506768516456));
#187 = CARTESIAN_POINT('',(1.499573074603,0.507271613077));
#188 = CARTESIAN_POINT('',(1.517018996573,0.507660870365));
#189 = CARTESIAN_POINT('',(1.535419011809,0.507933772921));
#190 = CARTESIAN_POINT('',(1.554343108211,0.508076681014));
#191 = CARTESIAN_POINT('',(1.573423762992,0.508095963898));
#192 = CARTESIAN_POINT('',(1.592414707791,0.507981904161));
#193 = CARTESIAN_POINT('',(1.63583295027,0.507424950096));
#194 = CARTESIAN_POINT('',(1.660265283411,0.50686190796));
#195 = CARTESIAN_POINT('',(1.682455070536,0.506065974782));
#196 = CARTESIAN_POINT('',(1.701362071631,0.505070869579));
#197 = CARTESIAN_POINT('',(1.716185655021,0.503919113723));
#198 = CARTESIAN_POINT('',(1.72634224735,0.502656669854));
#199 = CARTESIAN_POINT('',(1.731486979747,0.501333144696));
#200 = CARTESIAN_POINT('',(1.731486979747,0.499116807518));
#201 = CARTESIAN_POINT('',(1.729228977003,0.498235180817));
#202 = CARTESIAN_POINT('',(1.724727191291,0.497370760203));
#203 = CARTESIAN_POINT('',(1.718049891754,0.496539413582));
#204 = CARTESIAN_POINT('',(1.709321524343,0.495756625797));
#205 = CARTESIAN_POINT('',(1.69872483925,0.495036887965));
#206 = CARTESIAN_POINT('',(1.686503018349,0.494393086822));
#207 = CARTESIAN_POINT('',(1.658273074268,0.493231483544));
#208 = CARTESIAN_POINT('',(1.642019578983,0.492728386923));
#209 = CARTESIAN_POINT('',(1.624573657018,0.492339129635));
#210 = CARTESIAN_POINT('',(1.606173641783,0.492066227079));
#211 = CARTESIAN_POINT('',(1.587249545378,0.491923318986));
#212 = CARTESIAN_POINT('',(1.568168890594,0.491904036102));
#213 = CARTESIAN_POINT('',(1.549177945803,0.492018095839));
#214 = CARTESIAN_POINT('',(1.505759703318,0.492575049904));
#215 = CARTESIAN_POINT('',(1.481327370183,0.49313809204));
#216 = CARTESIAN_POINT('',(1.45913758305,0.493934025218));
#217 = CARTESIAN_POINT('',(1.440230581957,0.494929130421));
#218 = CARTESIAN_POINT('',(1.425406998573,0.496080886276));
#219 = CARTESIAN_POINT('',(1.415250406239,0.497343330146));
#220 = CARTESIAN_POINT('',(1.410105673843,0.498666855304));
#221 = CARTESIAN_POINT('',(1.410105673843,0.5));
#222 = ( GEOMETRIC_REPRESENTATION_CONTEXT(2) 
PARAMETRIC_REPRESENTATION_CONTEXT() REPRESENTATION_CONTEXT('2D SPACE',''
  ) );
#223 = PCURVE('',#224,#229);
#224 = CYLINDRICAL_SURFACE('',#225,8.E-03);
#225 = AXIS2_PLACEMENT_3D('',#226,#227,#228);
#226 = CARTESIAN_POINT('',(0.,-7.5E-02,0.));
#227 = DIRECTION('',(0.,1.,0.));
#228 = DIRECTION('',(0.,-0.,1.));
#229 = DEFINITIONAL_REPRESENTATION('',(#230),#275);
#230 = B_SPLINE_CURVE_WITH_KNOTS('',8,(#231,#232,#233,#234,#235,#236,
    #237,#238,#239,#240,#241,#242,#243,#244,#245,#246,#247,#248,#249,
    #250,#251,#252,#253,#254,#255,#256,#257,#258,#259,#260,#261,#262,
    #263,#264,#265,#266,#267,#268,#269,#270,#271,#272,#273,#274),
  .UNSPECIFIED.,.F.,.F.,(9,7,7,7,7,7,9),(0.,0.139446999999,
    0.290711047851,0.500652341094,0.639735947188,0.790605806321,1.),
  .UNSPECIFIED.);
#231 = CARTESIAN_POINT('',(0.,2.564414928299E-02));
#232 = CARTESIAN_POINT('',(0.110399060217,2.564414928299E-02));
#233 = CARTESIAN_POINT('',(0.220615912632,2.562616790888E-02));
#234 = CARTESIAN_POINT('',(0.330705046937,2.559005028162E-02));
#235 = CARTESIAN_POINT('',(0.440728528652,2.55379706618E-02));
#236 = CARTESIAN_POINT('',(0.550719812496,2.547381959893E-02));
#237 = CARTESIAN_POINT('',(0.660647555773,2.540259108078E-02));
#238 = CARTESIAN_POINT('',(0.770379431744,2.532976968263E-02));
#239 = CARTESIAN_POINT('',(0.998171940612,2.518581413394E-02));
#240 = CARTESIAN_POINT('',(1.116235797034,2.511519715892E-02));
#241 = CARTESIAN_POINT('',(1.233671470228,2.505535789307E-02));
#242 = CARTESIAN_POINT('',(1.351353398392,2.501106359958E-02));
#243 = CARTESIAN_POINT('',(1.468926628757,2.498727477657E-02));
#244 = CARTESIAN_POINT('',(1.586387935408,2.498451588966E-02));
#245 = CARTESIAN_POINT('',(1.704889944892,2.500342309456E-02));
#246 = CARTESIAN_POINT('',(1.984834011044,2.508980451715E-02));
#247 = CARTESIAN_POINT('',(2.149941325192,2.51747725823E-02));
#248 = CARTESIAN_POINT('',(2.31503082148,2.528755751095E-02));
#249 = CARTESIAN_POINT('',(2.479920127968,2.541045084311E-02));
#250 = CARTESIAN_POINT('',(2.644685798861,2.552174619757E-02));
#251 = CARTESIAN_POINT('',(2.809497032289,2.560298928324E-02));
#252 = CARTESIAN_POINT('',(2.97494956656,2.564414928299E-02));
#253 = CARTESIAN_POINT('',(3.251991713807,2.564414928299E-02));
#254 = CARTESIAN_POINT('',(3.362208566222,2.562616790888E-02));
#255 = CARTESIAN_POINT('',(3.472297700527,2.559005028162E-02));
#256 = CARTESIAN_POINT('',(3.582321182241,2.55379706618E-02));
#257 = CARTESIAN_POINT('',(3.692312466086,2.547381959893E-02));
#258 = CARTESIAN_POINT('',(3.802240209363,2.540259108078E-02));
#259 = CARTESIAN_POINT('',(3.911972085333,2.532976968263E-02));
#260 = CARTESIAN_POINT('',(4.139764594194,2.518581413394E-02));
#261 = CARTESIAN_POINT('',(4.257828450653,2.51151971589E-02));
#262 = CARTESIAN_POINT('',(4.375264123799,2.505535789309E-02));
#263 = CARTESIAN_POINT('',(4.492946051979,2.501106359958E-02));
#264 = CARTESIAN_POINT('',(4.61051928235,2.498727477656E-02));
#265 = CARTESIAN_POINT('',(4.727980589023,2.498451588968E-02));
#266 = CARTESIAN_POINT('',(4.846482598456,2.500342309456E-02));
#267 = CARTESIAN_POINT('',(5.126426664644,2.508980451715E-02));
#268 = CARTESIAN_POINT('',(5.291533978755,2.517477258229E-02));
#269 = CARTESIAN_POINT('',(5.456623475086,2.528755751096E-02));
#270 = CARTESIAN_POINT('',(5.621512781579,2.541045084312E-02));
#271 = CARTESIAN_POINT('',(5.786278452434,2.552174619756E-02));
#272 = CARTESIAN_POINT('',(5.951089685862,2.560298928324E-02));
#273 = CARTESIAN_POINT('',(6.116542220168,2.564414928299E-02));
#274 = CARTESIAN_POINT('',(6.28318530718,2.564414928299E-02));
#275 = ( GEOMETRIC_REPRESENTATION_CONTEXT(2) 
PARAMETRIC_REPRESENTATION_CONTEXT() REPRESENTATION_CONTEXT('2D SPACE',''
  ) );
#276 = FACE_BOUND('',#277,.T.);
#277 = EDGE_LOOP('',(#278));
#278 = ORIENTED_EDGE('',*,*,#279,.F.);
#279 = EDGE_CURVE('',#280,#280,#282,.T.);
#280 = VERTEX_POINT('',#281);
#281 = CARTESIAN_POINT('',(-1.959434878636E-18,4.935585071701E-02,8.E-03
    ));
#282 = SURFACE_CURVE('',#283,(#328,#376),.PCURVE_S1.);
#283 = B_SPLINE_CURVE_WITH_KNOTS('',8,(#284,#285,#286,#287,#288,#289,
    #290,#291,#292,#293,#294,#295,#296,#297,#298,#299,#300,#301,#302,
    #303,#304,#305,#306,#307,#308,#309,#310,#311,#312,#313,#314,#315,
    #316,#317,#318,#319,#320,#321,#322,#323,#324,#325,#326,#327),
  .UNSPECIFIED.,.T.,.F.,(9,7,7,7,7,7,9),(0.,0.139447002607,
    0.290711053258,0.500652318662,0.639735931298,0.790605797263,1.),
  .UNSPECIFIED.);
#284 = CARTESIAN_POINT('',(-1.734723475977E-18,4.935585071701E-02,8.E-03
    ));
#285 = CARTESIAN_POINT('',(8.831924817347E-04,4.935585071701E-02,8.E-03)
  );
#286 = CARTESIAN_POINT('',(1.764819183317E-03,4.937383209112E-02,
    7.888541975783E-03));
#287 = CARTESIAN_POINT('',(2.629239797022E-03,4.940994971838E-02,
    7.666373094318E-03));
#288 = CARTESIAN_POINT('',(3.460586417668E-03,4.94620293382E-02,
    7.336583290209E-03));
#289 = CARTESIAN_POINT('',(4.243374203103E-03,4.952618040107E-02,
    6.904862078398E-03));
#290 = CARTESIAN_POINT('',(4.963112034685E-03,4.959740891922E-02,
    6.379755366867E-03));
#291 = CARTESIAN_POINT('',(5.606913177772E-03,4.967023031737E-02,
    5.772922269341E-03));
#292 = CARTESIAN_POINT('',(6.768516456353E-03,4.981418586605E-02,
    4.368785111982E-03));
#293 = CARTESIAN_POINT('',(7.271613076899E-03,4.988480284111E-02,
    3.559089184789E-03));
#294 = CARTESIAN_POINT('',(7.660870364658E-03,4.99446421069E-02,
    2.688605692313E-03));
#295 = CARTESIAN_POINT('',(7.93377292159E-03,4.998893640045E-02,
    1.769246455808E-03));
#296 = CARTESIAN_POINT('',(8.076681013762E-03,5.001272522341E-02,
    8.228671233616E-04));
#297 = CARTESIAN_POINT('',(8.095963897742E-03,5.001548411035E-02,
    -1.315654549355E-04));
#298 = CARTESIAN_POINT('',(7.981904161382E-03,4.999657690543E-02,
    -1.081113665732E-03));
#299 = CARTESIAN_POINT('',(7.424950144601E-03,4.991019549045E-02,
    -3.250306343114E-03));
#300 = CARTESIAN_POINT('',(6.86190765745E-03,4.98252273945E-02,
    -4.46950408166E-03));
#301 = CARTESIAN_POINT('',(6.06597528501E-03,4.9712442512E-02,
    -5.574175693076E-03));
#302 = CARTESIAN_POINT('',(5.070869442382E-03,4.958954916178E-02,
    -6.51198312808E-03));
#303 = CARTESIAN_POINT('',(3.919113225553E-03,4.947825377905E-02,
    -7.244790985305E-03));
#304 = CARTESIAN_POINT('',(2.656670454927E-03,4.939701072903E-02,
    -7.746076156603E-03));
#305 = CARTESIAN_POINT('',(1.333144456758E-03,4.935585071701E-02,-8.E-03
    ));
#306 = CARTESIAN_POINT('',(-8.831924817312E-04,4.935585071701E-02,
    -8.E-03));
#307 = CARTESIAN_POINT('',(-1.764819183314E-03,4.937383209112E-02,
    -7.888541975784E-03));
#308 = CARTESIAN_POINT('',(-2.629239797022E-03,4.940994971838E-02,
    -7.666373094319E-03));
#309 = CARTESIAN_POINT('',(-3.46058641767E-03,4.94620293382E-02,
    -7.336583290208E-03));
#310 = CARTESIAN_POINT('',(-4.243374203104E-03,4.952618040107E-02,
    -6.904862078396E-03));
#311 = CARTESIAN_POINT('',(-4.963112034685E-03,4.959740891922E-02,
    -6.379755366866E-03));
#312 = CARTESIAN_POINT('',(-5.606913177771E-03,4.967023031737E-02,
    -5.772922269343E-03));
#313 = CARTESIAN_POINT('',(-6.768516455383E-03,4.981418586593E-02,
    -4.368785113155E-03));
#314 = CARTESIAN_POINT('',(-7.271613078304E-03,4.988480284126E-02,
    -3.559089183912E-03));
#315 = CARTESIAN_POINT('',(-7.660870365352E-03,4.994464210709E-02,
    -2.688605689074E-03));
#316 = CARTESIAN_POINT('',(-7.933772918417E-03,4.998893639989E-02,
    -1.769246460123E-03));
#317 = CARTESIAN_POINT('',(-8.076681017034E-03,5.001272522394E-02,
    -8.228671247465E-04));
#318 = CARTESIAN_POINT('',(-8.095963895873E-03,5.001548411005E-02,
    1.315654595157E-04));
#319 = CARTESIAN_POINT('',(-7.981904161959E-03,4.999657690552E-02,
    1.081113663484E-03));
#320 = CARTESIAN_POINT('',(-7.424950095595E-03,4.991019548285E-02,
    3.250306533978E-03));
#321 = CARTESIAN_POINT('',(-6.861907959868E-03,4.982522741771E-02,
    4.469503626122E-03));
#322 = CARTESIAN_POINT('',(-6.065974781581E-03,4.971244248905E-02,
    5.574176043743E-03));
#323 = CARTESIAN_POINT('',(-5.070869578927E-03,4.958954915688E-02,
    6.511983258312E-03));
#324 = CARTESIAN_POINT('',(-3.919113723449E-03,4.947825380243E-02,
    7.244790626647E-03));
#325 = CARTESIAN_POINT('',(-2.656669854474E-03,4.939701071676E-02,
    7.74607632511E-03));
#326 = CARTESIAN_POINT('',(-1.333144696134E-03,4.935585071701E-02,8.E-03
    ));
#327 = CARTESIAN_POINT('',(-1.734723475977E-18,4.935585071701E-02,8.E-03
    ));
#328 = PCURVE('',#50,#329);
#329 = DEFINITIONAL_REPRESENTATION('',(#330),#375);
#330 = B_SPLINE_CURVE_WITH_KNOTS('',8,(#331,#332,#333,#334,#335,#336,
    #337,#338,#339,#340,#341,#342,#343,#344,#345,#346,#347,#348,#349,
    #350,#351,#352,#353,#354,#355,#356,#357,#358,#359,#360,#361,#362,
    #363,#364,#365,#366,#367,#368,#369,#370,#371,#372,#373,#374),
  .UNSPECIFIED.,.T.,.F.,(9,7,7,7,7,7,9),(0.,0.139447002607,
    0.290711053258,0.500652318662,0.639735931298,0.790605797263,1.),
  .UNSPECIFIED.);
#331 = CARTESIAN_POINT('',(4.873079633337,0.5));
#332 = CARTESIAN_POINT('',(4.873079633337,0.500883192482));
#333 = CARTESIAN_POINT('',(4.870821630593,0.501764819183));
#334 = CARTESIAN_POINT('',(4.86631984488,0.502629239797));
#335 = CARTESIAN_POINT('',(4.859642545343,0.503460586418));
#336 = CARTESIAN_POINT('',(4.850914177932,0.504243374203));
#337 = CARTESIAN_POINT('',(4.84031749284,0.504963112035));
#338 = CARTESIAN_POINT('',(4.828095671938,0.505606913178));
#339 = CARTESIAN_POINT('',(4.79986572786,0.506768516456));
#340 = CARTESIAN_POINT('',(4.78361223257,0.507271613077));
#341 = CARTESIAN_POINT('',(4.766166310612,0.507660870365));
#342 = CARTESIAN_POINT('',(4.747766295367,0.507933772922));
#343 = CARTESIAN_POINT('',(4.728842198971,0.508076681014));
#344 = CARTESIAN_POINT('',(4.709761544189,0.508095963898));
#345 = CARTESIAN_POINT('',(4.690770599385,0.507981904161));
#346 = CARTESIAN_POINT('',(4.647352360727,0.507424950145));
#347 = CARTESIAN_POINT('',(4.622920014648,0.506861907657));
#348 = CARTESIAN_POINT('',(4.600730243674,0.506065975285));
#349 = CARTESIAN_POINT('',(4.581823238152,0.505070869442));
#350 = CARTESIAN_POINT('',(4.566999644968,0.503919113226));
#351 = CARTESIAN_POINT('',(4.556843063211,0.502656670455));
#352 = CARTESIAN_POINT('',(4.551698327433,0.501333144457));
#353 = CARTESIAN_POINT('',(4.551698327433,0.499116807518));
#354 = CARTESIAN_POINT('',(4.553956330177,0.498235180817));
#355 = CARTESIAN_POINT('',(4.558458115889,0.497370760203));
#356 = CARTESIAN_POINT('',(4.565135415426,0.496539413582));
#357 = CARTESIAN_POINT('',(4.573863782837,0.495756625797));
#358 = CARTESIAN_POINT('',(4.584460467929,0.495036887965));
#359 = CARTESIAN_POINT('',(4.596682288831,0.494393086822));
#360 = CARTESIAN_POINT('',(4.624912232886,0.493231483545));
#361 = CARTESIAN_POINT('',(4.641165728217,0.492728386922));
#362 = CARTESIAN_POINT('',(4.658611650222,0.492339129635));
#363 = CARTESIAN_POINT('',(4.677011665316,0.492066227082));
#364 = CARTESIAN_POINT('',(4.695935761771,0.491923318983));
#365 = CARTESIAN_POINT('',(4.715016416672,0.491904036104));
#366 = CARTESIAN_POINT('',(4.734007361339,0.492018095838));
#367 = CARTESIAN_POINT('',(4.777425603863,0.492575049904));
#368 = CARTESIAN_POINT('',(4.801857936995,0.49313809204));
#369 = CARTESIAN_POINT('',(4.824047724129,0.493934025218));
#370 = CARTESIAN_POINT('',(4.842954725223,0.494929130421));
#371 = CARTESIAN_POINT('',(4.857778308608,0.496080886277));
#372 = CARTESIAN_POINT('',(4.86793490094,0.497343330146));
#373 = CARTESIAN_POINT('',(4.873079633337,0.498666855304));
#374 = CARTESIAN_POINT('',(4.873079633337,0.5));
#375 = ( GEOMETRIC_REPRESENTATION_CONTEXT(2) 
PARAMETRIC_REPRESENTATION_CONTEXT() REPRESENTATION_CONTEXT('2D SPACE',''
  ) );
#376 = PCURVE('',#377,#382);
#377 = CYLINDRICAL_SURFACE('',#378,8.E-03);
#378 = AXIS2_PLACEMENT_3D('',#379,#380,#381);
#379 = CARTESIAN_POINT('',(0.,-7.5E-02,0.));
#380 = DIRECTION('',(0.,1.,0.));
#381 = DIRECTION('',(0.,-0.,1.));
#382 = DEFINITIONAL_REPRESENTATION('',(#383),#428);
#383 = B_SPLINE_CURVE_WITH_KNOTS('',8,(#384,#385,#386,#387,#388,#389,
    #390,#391,#392,#393,#394,#395,#396,#397,#398,#399,#400,#401,#402,
    #403,#404,#405,#406,#407,#408,#409,#410,#411,#412,#413,#414,#415,
    #416,#417,#418,#419,#420,#421,#422,#423,#424,#425,#426,#427),
  .UNSPECIFIED.,.F.,.F.,(9,7,7,7,7,7,9),(0.,0.139447002607,
    0.290711053258,0.500652318662,0.639735931298,0.790605797263,1.),
  .UNSPECIFIED.);
#384 = CARTESIAN_POINT('',(0.,0.124355850717));
#385 = CARTESIAN_POINT('',(0.110399060217,0.124355850717));
#386 = CARTESIAN_POINT('',(0.220615912632,0.124373832091));
#387 = CARTESIAN_POINT('',(0.330705046937,0.124409949718));
#388 = CARTESIAN_POINT('',(0.440728528652,0.124462029338));
#389 = CARTESIAN_POINT('',(0.550719812496,0.124526180401));
#390 = CARTESIAN_POINT('',(0.660647555773,0.124597408919));
#391 = CARTESIAN_POINT('',(0.770379431744,0.124670230317));
#392 = CARTESIAN_POINT('',(0.998171940588,0.124814185866));
#393 = CARTESIAN_POINT('',(1.116235797086,0.124884802841));
#394 = CARTESIAN_POINT('',(1.233671470182,0.124944642107));
#395 = CARTESIAN_POINT('',(1.351353398426,0.1249889364));
#396 = CARTESIAN_POINT('',(1.46892662874,0.125012725223));
#397 = CARTESIAN_POINT('',(1.586387935397,0.12501548411));
#398 = CARTESIAN_POINT('',(1.704889944912,0.124996576905));
#399 = CARTESIAN_POINT('',(1.98483398643,0.12491019549));
#400 = CARTESIAN_POINT('',(2.149941403986,0.124825227395));
#401 = CARTESIAN_POINT('',(2.315030730174,0.124712442512));
#402 = CARTESIAN_POINT('',(2.479920132191,0.124589549162));
#403 = CARTESIAN_POINT('',(2.644685890155,0.124478253779));
#404 = CARTESIAN_POINT('',(2.809496944435,0.124397010729));
#405 = CARTESIAN_POINT('',(2.974949596495,0.124355850717));
#406 = CARTESIAN_POINT('',(3.251991713806,0.124355850717));
#407 = CARTESIAN_POINT('',(3.362208566221,0.124373832091));
#408 = CARTESIAN_POINT('',(3.472297700527,0.124409949718));
#409 = CARTESIAN_POINT('',(3.582321182242,0.124462029338));
#410 = CARTESIAN_POINT('',(3.692312466086,0.124526180401));
#411 = CARTESIAN_POINT('',(3.802240209363,0.124597408919));
#412 = CARTESIAN_POINT('',(3.911972085333,0.124670230317));
#413 = CARTESIAN_POINT('',(4.139764593988,0.124814185866));
#414 = CARTESIAN_POINT('',(4.257828450879,0.124884802841));
#415 = CARTESIAN_POINT('',(4.375264124084,0.124944642107));
#416 = CARTESIAN_POINT('',(4.492946051538,0.1249889364));
#417 = CARTESIAN_POINT('',(4.610519282116,0.125012725224));
#418 = CARTESIAN_POINT('',(4.727980589584,0.12501548411));
#419 = CARTESIAN_POINT('',(4.846482598212,0.124996576906));
#420 = CARTESIAN_POINT('',(5.126426664652,0.124910195483));
#421 = CARTESIAN_POINT('',(5.291533978747,0.124825227418));
#422 = CARTESIAN_POINT('',(5.456623475079,0.124712442489));
#423 = CARTESIAN_POINT('',(5.621512781583,0.124589549157));
#424 = CARTESIAN_POINT('',(5.786278452442,0.124478253802));
#425 = CARTESIAN_POINT('',(5.951089685861,0.124397010717));
#426 = CARTESIAN_POINT('',(6.116542220163,0.124355850717));
#427 = CARTESIAN_POINT('',(6.28318530718,0.124355850717));
#428 = ( GEOMETRIC_REPRESENTATION_CONTEXT(2) 
PARAMETRIC_REPRESENTATION_CONTEXT() REPRESENTATION_CONTEXT('2D SPACE',''
  ) );
#429 = ADVANCED_FACE('',(#430),#112,.F.);
#430 = FACE_BOUND('',#431,.T.);
#431 = EDGE_LOOP('',(#432));
#432 = ORIENTED_EDGE('',*,*,#97,.F.);
#433 = ADVANCED_FACE('',(#434),#84,.T.);
#434 = FACE_BOUND('',#435,.T.);
#435 = EDGE_LOOP('',(#436));
#436 = ORIENTED_EDGE('',*,*,#69,.T.);
#437 = ADVANCED_FACE('',(#438),#224,.F.);
#438 = FACE_BOUND('',#439,.F.);
#439 = EDGE_LOOP('',(#440,#551,#572,#573,#574,#636));
#440 = ORIENTED_EDGE('',*,*,#441,.F.);
#441 = EDGE_CURVE('',#442,#444,#446,.T.);
#442 = VERTEX_POINT('',#443);
#443 = CARTESIAN_POINT('',(-1.959434878636E-18,-2.725473237281E-02,
    8.E-03));
#444 = VERTEX_POINT('',#445);
#445 = CARTESIAN_POINT('',(6.928203230276E-03,-4.834252786109E-02,
    -4.E-03));
#446 = SURFACE_CURVE('',#447,(#478,#512),.PCURVE_S1.);
#447 = B_SPLINE_CURVE_WITH_KNOTS('',8,(#448,#449,#450,#451,#452,#453,
    #454,#455,#456,#457,#458,#459,#460,#461,#462,#463,#464,#465,#466,
    #467,#468,#469,#470,#471,#472,#473,#474,#475,#476,#477),
  .UNSPECIFIED.,.F.,.F.,(9,7,7,7,9),(0.,0.21305076534,0.428665309663,
    0.712478440776,1.),.UNSPECIFIED.);
#448 = CARTESIAN_POINT('',(-1.959434878636E-18,-2.725473237281E-02,
    8.E-03));
#449 = CARTESIAN_POINT('',(4.494151584292E-04,-2.630617758112E-02,8.E-03
    ));
#450 = CARTESIAN_POINT('',(8.978853660891E-04,-2.542736951473E-02,
    7.971145938205E-03));
#451 = CARTESIAN_POINT('',(1.342284050163E-03,-2.463383853272E-02,
    7.913654078204E-03));
#452 = CARTESIAN_POINT('',(1.779724611985E-03,-2.394109077821E-02,
    7.828266963701E-03));
#453 = CARTESIAN_POINT('',(2.20784918841E-03,-2.336336970772E-02,
    7.716169740146E-03));
#454 = CARTESIAN_POINT('',(2.624990016862E-03,-2.291195359939E-02,
    7.578626701358E-03));
#455 = CARTESIAN_POINT('',(3.030084434461E-03,-2.25939435113E-02,
    7.416657242891E-03));
#456 = CARTESIAN_POINT('',(3.819083526881E-03,-2.22288653357E-02,
    7.043250277308E-03));
#457 = CARTESIAN_POINT('',(4.202858363522E-03,-2.218501526561E-02,
    6.831156314038E-03));
#458 = CARTESIAN_POINT('',(4.573020552483E-03,-2.22842097045E-02,
    6.595380690866E-03));
#459 = CARTESIAN_POINT('',(4.929140224727E-03,-2.252632220496E-02,
    6.336194594535E-03));
#460 = CARTESIAN_POINT('',(5.270358684779E-03,-2.290769590551E-02,
    6.053605768284E-03));
#461 = CARTESIAN_POINT('',(5.595117971695E-03,-2.342046187377E-02,
    5.747894162389E-03));
#462 = CARTESIAN_POINT('',(5.90125735084E-03,-2.405249678595E-02,
    5.420119528377E-03));
#463 = CARTESIAN_POINT('',(6.56216521734E-03,-2.575892311201E-02,
    4.613990315977E-03));
#464 = CARTESIAN_POINT('',(6.901531131995E-03,-2.690959861226E-02,
    4.120984856899E-03));
#465 = CARTESIAN_POINT('',(7.199994611274E-03,-2.820840009765E-02,
    3.596921393084E-03));
#466 = CARTESIAN_POINT('',(7.453413279135E-03,-2.96179512904E-02,
    3.046598353056E-03));
#467 = CARTESIAN_POINT('',(7.658641398439E-03,-3.110555686391E-02,
    2.475593364583E-03));
#468 = CARTESIAN_POINT('',(7.813737979301E-03,-3.26453001977E-02,
    1.889530951876E-03));
#469 = CARTESIAN_POINT('',(7.917623418436E-03,-3.421635725753E-02,
    1.29387831749E-03));
#470 = CARTESIAN_POINT('',(8.022784317905E-03,-3.740944785136E-02,
    8.578220404922E-05));
#471 = CARTESIAN_POINT('',(8.022700732805E-03,-3.903185289011E-02,
    -5.267715902984E-04));
#472 = CARTESIAN_POINT('',(7.969151731247E-03,-4.065281939871E-02,
    -1.13855499461E-03));
#473 = CARTESIAN_POINT('',(7.862324106088E-03,-4.225898089849E-02,
    -1.744141766893E-03));
#474 = CARTESIAN_POINT('',(7.70305745498E-03,-4.38394925309E-02,
    -2.338160213173E-03));
#475 = CARTESIAN_POINT('',(7.492823940305E-03,-4.538527008879E-02,
    -2.915399298628E-03));
#476 = CARTESIAN_POINT('',(7.233681888714E-03,-4.688851537112E-02,
    -3.470895442957E-03));
#477 = CARTESIAN_POINT('',(6.928203230275E-03,-4.834252786109E-02,
    -4.000000000001E-03));
#478 = PCURVE('',#224,#479);
#479 = DEFINITIONAL_REPRESENTATION('',(#480),#511);
#480 = B_SPLINE_CURVE_WITH_KNOTS('',8,(#481,#482,#483,#484,#485,#486,
    #487,#488,#489,#490,#491,#492,#493,#494,#495,#496,#497,#498,#499,
    #500,#501,#502,#503,#504,#505,#506,#507,#508,#509,#510),
  .UNSPECIFIED.,.F.,.F.,(9,7,7,7,9),(0.,0.21305076534,0.428665309663,
    0.712478440776,1.),.UNSPECIFIED.);
#481 = CARTESIAN_POINT('',(0.,4.774526762719E-02));
#482 = CARTESIAN_POINT('',(5.617689480366E-02,4.869382241888E-02));
#483 = CARTESIAN_POINT('',(0.112235763044,4.957263048527E-02));
#484 = CARTESIAN_POINT('',(0.168055369754,5.036616146728E-02));
#485 = CARTESIAN_POINT('',(0.223541764433,5.105890922179E-02));
#486 = CARTESIAN_POINT('',(0.278643760777,5.163663029228E-02));
#487 = CARTESIAN_POINT('',(0.333372660113,5.208804640061E-02));
#488 = CARTESIAN_POINT('',(0.387803253462,5.24060564887E-02));
#489 = CARTESIAN_POINT('',(0.496915604518,5.27711346643E-02));
#490 = CARTESIAN_POINT('',(0.55161762269,5.281498473439E-02));
#491 = CARTESIAN_POINT('',(0.60630035945,5.27157902955E-02));
#492 = CARTESIAN_POINT('',(0.661144034051,5.247367779504E-02));
#493 = CARTESIAN_POINT('',(0.716304616924,5.209230409449E-02));
#494 = CARTESIAN_POINT('',(0.771865024151,5.157953812623E-02));
#495 = CARTESIAN_POINT('',(0.827811549194,5.094750321405E-02));
#496 = CARTESIAN_POINT('',(0.958114292539,4.924107688799E-02));
#497 = CARTESIAN_POINT('',(1.032666129484,4.809040138774E-02));
#498 = CARTESIAN_POINT('',(1.107597268632,4.679159990235E-02));
#499 = CARTESIAN_POINT('',(1.182769738414,4.53820487096E-02));
#500 = CARTESIAN_POINT('',(1.258052911705,4.389444313609E-02));
#501 = CARTESIAN_POINT('',(1.333366634761,4.23546998023E-02));
#502 = CARTESIAN_POINT('',(1.408668810715,4.078364274247E-02));
#503 = CARTESIAN_POINT('',(1.560251865202,3.759055214864E-02));
#504 = CARTESIAN_POINT('',(1.636531782801,3.596814710989E-02));
#505 = CARTESIAN_POINT('',(1.71281244769,3.434718060129E-02));
#506 = CARTESIAN_POINT('',(1.789096769174,3.274101910151E-02));
#507 = CARTESIAN_POINT('',(1.865388663756,3.11605074691E-02));
#508 = CARTESIAN_POINT('',(1.941694764741,2.961472991121E-02));
#509 = CARTESIAN_POINT('',(2.018025437784,2.811148462888E-02));
#510 = CARTESIAN_POINT('',(2.094395102393,2.665747213891E-02));
#511 = ( GEOMETRIC_REPRESENTATION_CONTEXT(2) 
PARAMETRIC_REPRESENTATION_CONTEXT() REPRESENTATION_CONTEXT('2D SPACE',''
  ) );
#512 = PCURVE('',#513,#518);
#513 = SPHERICAL_SURFACE('',#514,0.12505);
#514 = AXIS2_PLACEMENT_3D('',#515,#516,#517);
#515 = CARTESIAN_POINT('',(-5.7525E-02,0.,-9.96362227054E-02));
#516 = DIRECTION('',(0.5,0.,0.866025403784));
#517 = DIRECTION('',(0.866025403784,0.,-0.5));
#518 = DEFINITIONAL_REPRESENTATION('',(#519),#550);
#519 = B_SPLINE_CURVE_WITH_KNOTS('',8,(#520,#521,#522,#523,#524,#525,
    #526,#527,#528,#529,#530,#531,#532,#533,#534,#535,#536,#537,#538,
    #539,#540,#541,#542,#543,#544,#545,#546,#547,#548,#549),
  .UNSPECIFIED.,.F.,.F.,(9,7,7,7,9),(0.,0.21305076534,0.428665309663,
    0.712478440776,1.),.UNSPECIFIED.);
#520 = CARTESIAN_POINT('',(4.56666580386,1.348689227057));
#521 = CARTESIAN_POINT('',(4.575644815352,1.356846560435));
#522 = CARTESIAN_POINT('',(4.586221755893,1.364416390439));
#523 = CARTESIAN_POINT('',(4.598517845521,1.371264504955));
#524 = CARTESIAN_POINT('',(4.612602998553,1.377255407756));
#525 = CARTESIAN_POINT('',(4.628443162458,1.382261483477));
#526 = CARTESIAN_POINT('',(4.645813103959,1.386178958726));
#527 = CARTESIAN_POINT('',(4.664273989076,1.388940880252));
#528 = CARTESIAN_POINT('',(4.702585352709,1.392112752377));
#529 = CARTESIAN_POINT('',(4.722457577637,1.392494741547));
#530 = CARTESIAN_POINT('',(4.74242580459,1.391632334925));
#531 = CARTESIAN_POINT('',(4.761882198285,1.389526255342));
#532 = CARTESIAN_POINT('',(4.780249897405,1.386212464538));
#533 = CARTESIAN_POINT('',(4.797117638595,1.381765668735));
#534 = CARTESIAN_POINT('',(4.812297700574,1.376296235876));
#535 = CARTESIAN_POINT('',(4.843407905552,1.361559358259));
#536 = CARTESIAN_POINT('',(4.85805124559,1.351641261695));
#537 = CARTESIAN_POINT('',(4.869542867215,1.340471720445));
#538 = CARTESIAN_POINT('',(4.878250928275,1.328376316331));
#539 = CARTESIAN_POINT('',(4.884661657526,1.315631290821));
#540 = CARTESIAN_POINT('',(4.889136078699,1.302454073063));
#541 = CARTESIAN_POINT('',(4.891993900808,1.289017720811));
#542 = CARTESIAN_POINT('',(4.894979746527,1.261717606682));
#543 = CARTESIAN_POINT('',(4.895071877211,1.247850787791));
#544 = CARTESIAN_POINT('',(4.894008315399,1.233995952877));
#545 = CARTESIAN_POINT('',(4.891972608941,1.220263370765));
#546 = CARTESIAN_POINT('',(4.889099636808,1.20674275295));
#547 = CARTESIAN_POINT('',(4.885492415463,1.193509893144));
#548 = CARTESIAN_POINT('',(4.881233138379,1.180630626717));
#549 = CARTESIAN_POINT('',(4.8763884487,1.168162110046));
#550 = ( GEOMETRIC_REPRESENTATION_CONTEXT(2) 
PARAMETRIC_REPRESENTATION_CONTEXT() REPRESENTATION_CONTEXT('2D SPACE',''
  ) );
#551 = ORIENTED_EDGE('',*,*,#552,.F.);
#552 = EDGE_CURVE('',#127,#442,#553,.T.);
#553 = SEAM_CURVE('',#554,(#558,#565),.PCURVE_S1.);
#554 = LINE('',#555,#556);
#555 = CARTESIAN_POINT('',(-1.959434878636E-18,-7.5E-02,8.E-03));
#556 = VECTOR('',#557,1.);
#557 = DIRECTION('',(0.,1.,0.));
#558 = PCURVE('',#224,#559);
#559 = DEFINITIONAL_REPRESENTATION('',(#560),#564);
#560 = LINE('',#561,#562);
#561 = CARTESIAN_POINT('',(6.28318530718,-0.));
#562 = VECTOR('',#563,1.);
#563 = DIRECTION('',(0.,1.));
#564 = ( GEOMETRIC_REPRESENTATION_CONTEXT(2) 
PARAMETRIC_REPRESENTATION_CONTEXT() REPRESENTATION_CONTEXT('2D SPACE',''
  ) );
#565 = PCURVE('',#224,#566);
#566 = DEFINITIONAL_REPRESENTATION('',(#567),#571);
#567 = LINE('',#568,#569);
#568 = CARTESIAN_POINT('',(0.,-0.));
#569 = VECTOR('',#570,1.);
#570 = DIRECTION('',(0.,1.));
#571 = ( GEOMETRIC_REPRESENTATION_CONTEXT(2) 
PARAMETRIC_REPRESENTATION_CONTEXT() REPRESENTATION_CONTEXT('2D SPACE',''
  ) );
#572 = ORIENTED_EDGE('',*,*,#126,.T.);
#573 = ORIENTED_EDGE('',*,*,#552,.T.);
#574 = ORIENTED_EDGE('',*,*,#575,.F.);
#575 = EDGE_CURVE('',#576,#442,#578,.T.);
#576 = VERTEX_POINT('',#577);
#577 = CARTESIAN_POINT('',(-6.928203230275E-03,-4.834252786109E-02,
    4.E-03));
#578 = SURFACE_CURVE('',#579,(#596,#616),.PCURVE_S1.);
#579 = B_SPLINE_CURVE_WITH_KNOTS('',8,(#580,#581,#582,#583,#584,#585,
    #586,#587,#588,#589,#590,#591,#592,#593,#594,#595),.UNSPECIFIED.,.F.
  ,.F.,(9,7,9),(0.,0.798498614139,1.),.UNSPECIFIED.);
#580 = CARTESIAN_POINT('',(-6.928203230276E-03,-4.834252786109E-02,
    3.999999999999E-03));
#581 = CARTESIAN_POINT('',(-6.509330334533E-03,-4.634878327273E-02,
    4.72550913734E-03));
#582 = CARTESIAN_POINT('',(-6.004099420425E-03,-4.426329504464E-02,
    5.400075395486E-03));
#583 = CARTESIAN_POINT('',(-5.41952516803E-03,-4.210273780975E-02,
    6.012334906113E-03));
#584 = CARTESIAN_POINT('',(-4.764353017764E-03,-3.988737858068E-02,
    6.551747191861E-03));
#585 = CARTESIAN_POINT('',(-4.049139602446E-03,-3.76435510269E-02,
    7.008953599929E-03));
#586 = CARTESIAN_POINT('',(-3.286183222793E-03,-3.540472342199E-02,
    7.376369715657E-03));
#587 = CARTESIAN_POINT('',(-2.488989922479E-03,-3.32181729966E-02,
    7.64876967155E-03));
#588 = CARTESIAN_POINT('',(-1.465241583341E-03,-3.062796751724E-02,
    7.86750048464E-03));
#589 = CARTESIAN_POINT('',(-1.257697620689E-03,-3.011365483107E-02,
    7.905343626821E-03));
#590 = CARTESIAN_POINT('',(-1.049135469775E-03,-2.960804553659E-02,
    7.936911731824E-03));
#591 = CARTESIAN_POINT('',(-8.398039433506E-04,-2.911232232167E-02,
    7.962172736737E-03));
#592 = CARTESIAN_POINT('',(-6.299597891539E-04,-2.862775389272E-02,
    7.981107759843E-03));
#593 = CARTESIAN_POINT('',(-4.198658774292E-04,-2.815568438936E-02,
    7.993712727328E-03));
#594 = CARTESIAN_POINT('',(-2.097893884428E-04,-2.769752279926E-02,
    8.E-03));
#595 = CARTESIAN_POINT('',(-1.734723475977E-18,-2.725473237281E-02,
    8.E-03));
#596 = PCURVE('',#224,#597);
#597 = DEFINITIONAL_REPRESENTATION('',(#598),#615);
#598 = B_SPLINE_CURVE_WITH_KNOTS('',8,(#599,#600,#601,#602,#603,#604,
    #605,#606,#607,#608,#609,#610,#611,#612,#613,#614),.UNSPECIFIED.,.F.
  ,.F.,(9,7,9),(0.,0.798498614139,1.),.UNSPECIFIED.);
#599 = CARTESIAN_POINT('',(5.235987755983,2.665747213891E-02));
#600 = CARTESIAN_POINT('',(5.340705979919,2.865121672727E-02));
#601 = CARTESIAN_POINT('',(5.445306850894,3.073670495536E-02));
#602 = CARTESIAN_POINT('',(5.549871618824,3.289726219025E-02));
#603 = CARTESIAN_POINT('',(5.654445993366,3.511262141932E-02));
#604 = CARTESIAN_POINT('',(5.759041240757,3.73564489731E-02));
#605 = CARTESIAN_POINT('',(5.863640204253,3.959527657801E-02));
#606 = CARTESIAN_POINT('',(5.968204378147,4.17818270034E-02));
#607 = CARTESIAN_POINT('',(6.099061159978,4.437203248276E-02));
#608 = CARTESIAN_POINT('',(6.125419928819,4.488634516893E-02));
#609 = CARTESIAN_POINT('',(6.151767190152,4.539195446341E-02));
#610 = CARTESIAN_POINT('',(6.178099568476,4.588767767833E-02));
#611 = CARTESIAN_POINT('',(6.204412852622,4.637224610728E-02));
#612 = CARTESIAN_POINT('',(6.230702082131,4.684431561064E-02));
#613 = CARTESIAN_POINT('',(6.256961633624,4.730247720074E-02));
#614 = CARTESIAN_POINT('',(6.28318530718,4.774526762719E-02));
#615 = ( GEOMETRIC_REPRESENTATION_CONTEXT(2) 
PARAMETRIC_REPRESENTATION_CONTEXT() REPRESENTATION_CONTEXT('2D SPACE',''
  ) );
#616 = PCURVE('',#513,#617);
#617 = DEFINITIONAL_REPRESENTATION('',(#618),#635);
#618 = B_SPLINE_CURVE_WITH_KNOTS('',8,(#619,#620,#621,#622,#623,#624,
    #625,#626,#627,#628,#629,#630,#631,#632,#633,#634),.UNSPECIFIED.,.F.
  ,.F.,(9,7,9),(0.,0.798498614139,1.),.UNSPECIFIED.);
#619 = CARTESIAN_POINT('',(4.54838951207,1.168162110046));
#620 = CARTESIAN_POINT('',(4.541746464712,1.185258962933));
#621 = CARTESIAN_POINT('',(4.53620653457,1.203121057984));
#622 = CARTESIAN_POINT('',(4.531940006347,1.221606130622));
#623 = CARTESIAN_POINT('',(4.529161719279,1.240543918198));
#624 = CARTESIAN_POINT('',(4.528206615904,1.259716111778));
#625 = CARTESIAN_POINT('',(4.529483088417,1.278846947696));
#626 = CARTESIAN_POINT('',(4.533752849036,1.297548217322));
#627 = CARTESIAN_POINT('',(4.544091638312,1.319735962507));
#628 = CARTESIAN_POINT('',(4.546428440978,1.324143405516));
#629 = CARTESIAN_POINT('',(4.549034126401,1.328478293958));
#630 = CARTESIAN_POINT('',(4.551925118046,1.332730639778));
#631 = CARTESIAN_POINT('',(4.555118152072,1.336889678164));
#632 = CARTESIAN_POINT('',(4.55862952702,1.340943942684));
#633 = CARTESIAN_POINT('',(4.562474353495,1.34488134041));
#634 = CARTESIAN_POINT('',(4.56666580386,1.348689227057));
#635 = ( GEOMETRIC_REPRESENTATION_CONTEXT(2) 
PARAMETRIC_REPRESENTATION_CONTEXT() REPRESENTATION_CONTEXT('2D SPACE',''
  ) );
#636 = ORIENTED_EDGE('',*,*,#637,.F.);
#637 = EDGE_CURVE('',#444,#576,#638,.T.);
#638 = SURFACE_CURVE('',#639,(#684,#732),.PCURVE_S1.);
#639 = B_SPLINE_CURVE_WITH_KNOTS('',8,(#640,#641,#642,#643,#644,#645,
    #646,#647,#648,#649,#650,#651,#652,#653,#654,#655,#656,#657,#658,
    #659,#660,#661,#662,#663,#664,#665,#666,#667,#668,#669,#670,#671,
    #672,#673,#674,#675,#676,#677,#678,#679,#680,#681,#682,#683),
  .UNSPECIFIED.,.F.,.F.,(9,7,7,7,7,7,9),(0.,0.265501710305,
    0.385813071554,0.502535543364,0.612367205121,0.805811895074,1.),
  .UNSPECIFIED.);
#640 = CARTESIAN_POINT('',(6.928203230276E-03,-4.834252786109E-02,
    -3.999999999999E-03));
#641 = CARTESIAN_POINT('',(6.506689112911E-03,-4.633621162781E-02,
    -4.730083867383E-03));
#642 = CARTESIAN_POINT('',(5.997731407663E-03,-4.423702376025E-02,
    -5.408568374176E-03));
#643 = CARTESIAN_POINT('',(5.408477251952E-03,-4.206193504112E-02,
    -6.023886909761E-03));
#644 = CARTESIAN_POINT('',(4.747842800364E-03,-3.983159089912E-02,
    -6.565310492928E-03));
#645 = CARTESIAN_POINT('',(4.026603188633E-03,-3.757291054861E-02,
    -7.023315388182E-03));
#646 = CARTESIAN_POINT('',(3.257325827863E-03,-3.532012655049E-02,
    -7.390200539932E-03));
#647 = CARTESIAN_POINT('',(2.453815518132E-03,-3.312182187252E-02,
    -7.660697819989E-03));
#648 = CARTESIAN_POINT('',(1.257178737122E-03,-3.010515091986E-02,
    -7.909790244858E-03));
#649 = CARTESIAN_POINT('',(8.799872217726E-04,-2.918972111752E-02,
    -7.967107136259E-03));
#650 = CARTESIAN_POINT('',(5.002108494262E-04,-2.830619088256E-02,
    -8.003802742522E-03));
#651 = CARTESIAN_POINT('',(1.193955920525E-04,-2.74620387851E-02,
    -8.019742744015E-03));
#652 = CARTESIAN_POINT('',(-2.608512923079E-04,-2.666566139194E-02,
    -8.014968021151E-03));
#653 = CARTESIAN_POINT('',(-6.38908873585E-04,-2.592610162901E-02,
    -7.989716821853E-03));
#654 = CARTESIAN_POINT('',(-1.013202357018E-03,-2.525245079039E-02,
    -7.944421150554E-03));
#655 = CARTESIAN_POINT('',(-1.740338366428E-03,-2.407128148316E-02,
    -7.816864914426E-03));
#656 = CARTESIAN_POINT('',(-2.093536754865E-03,-2.355932308648E-02,
    -7.735740633249E-03));
#657 = CARTESIAN_POINT('',(-2.440468798693E-03,-2.31246937842E-02,
    -7.636840189611E-03));
#658 = CARTESIAN_POINT('',(-2.780072728171E-03,-2.277380383294E-02,
    -7.520847671276E-03));
#659 = CARTESIAN_POINT('',(-3.111641560137E-03,-2.251142724696E-02,
    -7.388406802751E-03));
#660 = CARTESIAN_POINT('',(-3.434761617329E-03,-2.234053922984E-02,
    -7.240009033111E-03));
#661 = CARTESIAN_POINT('',(-3.749174461126E-03,-2.22623927564E-02,
    -7.075958508256E-03));
#662 = CARTESIAN_POINT('',(-4.34192118804E-03,-2.229042328388E-02,
    -6.727468913418E-03));
#663 = CARTESIAN_POINT('',(-4.621322955485E-03,-2.238599071472E-02,
    -6.544786053779E-03));
#664 = CARTESIAN_POINT('',(-4.892501888773E-03,-2.256339133392E-02,
    -6.34851041174E-03));
#665 = CARTESIAN_POINT('',(-5.155096268451E-03,-2.282134853739E-02,
    -6.138708641316E-03));
#666 = CARTESIAN_POINT('',(-5.408553174052E-03,-2.31572307468E-02,
    -5.915492404854E-03));
#667 = CARTESIAN_POINT('',(-5.652106293516E-03,-2.356700176897E-02,
    -5.67911983691E-03));
#668 = CARTESIAN_POINT('',(-5.884826674874E-03,-2.404534514814E-02,
    -5.430075054607E-03));
#669 = CARTESIAN_POINT('',(-6.494848715076E-03,-2.553814293401E-02,
    -4.709519956138E-03));
#670 = CARTESIAN_POINT('',(-6.847213482144E-03,-2.668319445296E-02,
    -4.213130794274E-03));
#671 = CARTESIAN_POINT('',(-7.157839303276E-03,-2.798722430609E-02,
    -3.683852436915E-03));
#672 = CARTESIAN_POINT('',(-7.422237913674E-03,-2.941045690773E-02,
    -3.126634702666E-03));
#673 = CARTESIAN_POINT('',(-7.636947690113E-03,-3.091764956853E-02,
    -2.547351164058E-03));
#674 = CARTESIAN_POINT('',(-7.799837374848E-03,-3.248100328176E-02,
    -1.951955775427E-03));
#675 = CARTESIAN_POINT('',(-7.909714112557E-03,-3.407813796593E-02,
    -1.346255168221E-03));
#676 = CARTESIAN_POINT('',(-8.02270562605E-03,-3.731150831197E-02,
    -1.227604292678E-04));
#677 = CARTESIAN_POINT('',(-8.025412066967E-03,-3.894796523883E-02,
    4.951100279733E-04));
#678 = CARTESIAN_POINT('',(-7.973718963986E-03,-4.058354907348E-02,
    1.112435897815E-03));
#679 = CARTESIAN_POINT('',(-7.867794828446E-03,-4.220445110487E-02,
    1.723645759591E-03));
#680 = CARTESIAN_POINT('',(-7.708484885604E-03,-4.37994956145E-02,
    2.323222905552E-03));
#681 = CARTESIAN_POINT('',(-7.497289800465E-03,-4.535933944334E-02,
    2.905816417624E-03));
#682 = CARTESIAN_POINT('',(-7.236316805503E-03,-4.687597373584E-02,
    3.466331633205E-03));
#683 = CARTESIAN_POINT('',(-6.928203230275E-03,-4.834252786109E-02,
    4.000000000001E-03));
#684 = PCURVE('',#224,#685);
#685 = DEFINITIONAL_REPRESENTATION('',(#686),#731);
#686 = B_SPLINE_CURVE_WITH_KNOTS('',8,(#687,#688,#689,#690,#691,#692,
    #693,#694,#695,#696,#697,#698,#699,#700,#701,#702,#703,#704,#705,
    #706,#707,#708,#709,#710,#711,#712,#713,#714,#715,#716,#717,#718,
    #719,#720,#721,#722,#723,#724,#725,#726,#727,#728,#729,#730),
  .UNSPECIFIED.,.F.,.F.,(9,7,7,7,7,7,9),(0.,0.265501710305,
    0.385813071554,0.502535543364,0.612367205121,0.805811895074,1.),
  .UNSPECIFIED.);
#687 = CARTESIAN_POINT('',(2.094395102393,2.665747213891E-02));
#688 = CARTESIAN_POINT('',(2.199773631734,2.866378837219E-02));
#689 = CARTESIAN_POINT('',(2.305031590191,3.076297623975E-02));
#690 = CARTESIAN_POINT('',(2.41025331056,3.293806495888E-02));
#691 = CARTESIAN_POINT('',(2.515486074624,3.516840910088E-02));
#692 = CARTESIAN_POINT('',(2.620741097435,3.742708945139E-02));
#693 = CARTESIAN_POINT('',(2.725999931545,3.967987344951E-02));
#694 = CARTESIAN_POINT('',(2.831221583451,4.187817812748E-02));
#695 = CARTESIAN_POINT('',(2.984007515282,4.489484908014E-02));
#696 = CARTESIAN_POINT('',(3.031627145009,4.581027888248E-02));
#697 = CARTESIAN_POINT('',(3.079202395616,4.669380911744E-02));
#698 = CARTESIAN_POINT('',(3.12670516143,4.75379612149E-02));
#699 = CARTESIAN_POINT('',(3.174100363779,4.833433860806E-02));
#700 = CARTESIAN_POINT('',(3.221348626528,4.907389837099E-02));
#701 = CARTESIAN_POINT('',(3.268409970806,4.974754920961E-02));
#702 = CARTESIAN_POINT('',(3.360689892237,5.092871851684E-02));
#703 = CARTESIAN_POINT('',(3.405927656627,5.144067691352E-02));
#704 = CARTESIAN_POINT('',(3.45092127367,5.18753062158E-02));
#705 = CARTESIAN_POINT('',(3.495661971885,5.222619616706E-02));
#706 = CARTESIAN_POINT('',(3.540177633622,5.248857275304E-02));
#707 = CARTESIAN_POINT('',(3.584529794545,5.265946077016E-02));
#708 = CARTESIAN_POINT('',(3.628802765685,5.27376072436E-02));
#709 = CARTESIAN_POINT('',(3.714752758411,5.270957671612E-02));
#710 = CARTESIAN_POINT('',(3.756433488771,5.261400928528E-02));
#711 = CARTESIAN_POINT('',(3.798199692088,5.243660866608E-02));
#712 = CARTESIAN_POINT('',(3.840118278884,5.217865146261E-02));
#713 = CARTESIAN_POINT('',(3.882237251322,5.18427692532E-02));
#714 = CARTESIAN_POINT('',(3.924578088204,5.143299823103E-02));
#715 = CARTESIAN_POINT('',(3.967133710902,5.095465485186E-02));
#716 = CARTESIAN_POINT('',(4.085146325394,4.946185706599E-02));
#717 = CARTESIAN_POINT('',(4.160962647623,4.831680554704E-02));
#718 = CARTESIAN_POINT('',(4.237195417651,4.701277569391E-02));
#719 = CARTESIAN_POINT('',(4.313699233231,4.558954309227E-02));
#720 = CARTESIAN_POINT('',(4.390329696162,4.408235043147E-02));
#721 = CARTESIAN_POINT('',(4.466997430421,4.251899671824E-02));
#722 = CARTESIAN_POINT('',(4.543652200786,4.092186203407E-02));
#723 = CARTESIAN_POINT('',(4.697239841603,3.768849168803E-02));
#724 = CARTESIAN_POINT('',(4.774177547898,3.605203476117E-02));
#725 = CARTESIAN_POINT('',(4.851116020387,3.441645092652E-02));
#726 = CARTESIAN_POINT('',(4.92805801,3.279554889513E-02));
#727 = CARTESIAN_POINT('',(5.005007384313,3.12005043855E-02));
#728 = CARTESIAN_POINT('',(5.081970919747,2.964066055666E-02));
#729 = CARTESIAN_POINT('',(5.158959362176,2.812402626416E-02));
#730 = CARTESIAN_POINT('',(5.235987755983,2.665747213891E-02));
#731 = ( GEOMETRIC_REPRESENTATION_CONTEXT(2) 
PARAMETRIC_REPRESENTATION_CONTEXT() REPRESENTATION_CONTEXT('2D SPACE',''
  ) );
#732 = PCURVE('',#733,#738);
#733 = SPHERICAL_SURFACE('',#734,0.12505);
#734 = AXIS2_PLACEMENT_3D('',#735,#736,#737);
#735 = CARTESIAN_POINT('',(5.7525E-02,0.,9.96362227054E-02));
#736 = DIRECTION('',(0.5,0.,0.866025403784));
#737 = DIRECTION('',(0.866025403784,0.,-0.5));
#738 = DEFINITIONAL_REPRESENTATION('',(#739),#784);
#739 = B_SPLINE_CURVE_WITH_KNOTS('',8,(#740,#741,#742,#743,#744,#745,
    #746,#747,#748,#749,#750,#751,#752,#753,#754,#755,#756,#757,#758,
    #759,#760,#761,#762,#763,#764,#765,#766,#767,#768,#769,#770,#771,
    #772,#773,#774,#775,#776,#777,#778,#779,#780,#781,#782,#783),
  .UNSPECIFIED.,.F.,.F.,(9,7,7,7,7,7,9),(0.,0.265501710305,
    0.385813071554,0.502535543364,0.612367205121,0.805811895074,1.),
  .UNSPECIFIED.);
#740 = CARTESIAN_POINT('',(4.8763884487,-1.168162110046));
#741 = CARTESIAN_POINT('',(4.883073384088,-1.185366767897));
#742 = CARTESIAN_POINT('',(4.888641158588,-1.203346068963));
#743 = CARTESIAN_POINT('',(4.89291825806,-1.221955224227));
#744 = CARTESIAN_POINT('',(4.895685993829,-1.241020810523));
#745 = CARTESIAN_POINT('',(4.896600574956,-1.260319689878));
#746 = CARTESIAN_POINT('',(4.895245456376,-1.279569830401));
#747 = CARTESIAN_POINT('',(4.890834270227,-1.298372310733));
#748 = CARTESIAN_POINT('',(4.878504495844,-1.324215032498));
#749 = CARTESIAN_POINT('',(4.873823785694,-1.332063276295));
#750 = CARTESIAN_POINT('',(4.868215085319,-1.339645259657));
#751 = CARTESIAN_POINT('',(4.861579301923,-1.346897688861));
#752 = CARTESIAN_POINT('',(4.853816524671,-1.353748749621));
#753 = CARTESIAN_POINT('',(4.844843019297,-1.360120123053));
#754 = CARTESIAN_POINT('',(4.834619120735,-1.365931993632));
#755 = CARTESIAN_POINT('',(4.812097916561,-1.376135613375));
#756 = CARTESIAN_POINT('',(4.799869933174,-1.380565264557));
#757 = CARTESIAN_POINT('',(4.786543021048,-1.384332001641));
#758 = CARTESIAN_POINT('',(4.772219445763,-1.387377405729));
#759 = CARTESIAN_POINT('',(4.757083304792,-1.389657026982));
#760 = CARTESIAN_POINT('',(4.74139395598,-1.39114255288));
#761 = CARTESIAN_POINT('',(4.725454360769,-1.39182175785));
#762 = CARTESIAN_POINT('',(4.694592994618,-1.391578121042));
#763 = CARTESIAN_POINT('',(4.679665674528,-1.390747486887));
#764 = CARTESIAN_POINT('',(4.665014794776,-1.389205639332));
#765 = CARTESIAN_POINT('',(4.650886132762,-1.386964937339));
#766 = CARTESIAN_POINT('',(4.6374887582,-1.384050336139));
#767 = CARTESIAN_POINT('',(4.624972755891,-1.38049934167));
#768 = CARTESIAN_POINT('',(4.613424743459,-1.376360374596));
#769 = CARTESIAN_POINT('',(4.584310987172,-1.36346288704));
#770 = CARTESIAN_POINT('',(4.568862434056,-1.353589055811));
#771 = CARTESIAN_POINT('',(4.556724622245,-1.34237051207));
#772 = CARTESIAN_POINT('',(4.54753464126,-1.330154834106));
#773 = CARTESIAN_POINT('',(4.540765737472,-1.317240103467));
#774 = CARTESIAN_POINT('',(4.536036577183,-1.303859709552));
#775 = CARTESIAN_POINT('',(4.533003126982,-1.290199739017));
#776 = CARTESIAN_POINT('',(4.52980559719,-1.262554703823));
#777 = CARTESIAN_POINT('',(4.529652130867,-1.248567792291));
#778 = CARTESIAN_POINT('',(4.530682489109,-1.234588204079));
#779 = CARTESIAN_POINT('',(4.53270658974,-1.220729846961));
#780 = CARTESIAN_POINT('',(4.535585160412,-1.207085150565));
#781 = CARTESIAN_POINT('',(4.539212126395,-1.193732056188));
#782 = CARTESIAN_POINT('',(4.543503034351,-1.180738174341));
#783 = CARTESIAN_POINT('',(4.54838951207,-1.168162110046));
#784 = ( GEOMETRIC_REPRESENTATION_CONTEXT(2) 
PARAMETRIC_REPRESENTATION_CONTEXT() REPRESENTATION_CONTEXT('2D SPACE',''
  ) );
#785 = ADVANCED_FACE('',(#786),#377,.F.);
#786 = FACE_BOUND('',#787,.F.);
#787 = EDGE_LOOP('',(#788,#789,#812,#916,#1062,#1122));
#788 = ORIENTED_EDGE('',*,*,#279,.F.);
#789 = ORIENTED_EDGE('',*,*,#790,.F.);
#790 = EDGE_CURVE('',#791,#280,#793,.T.);
#791 = VERTEX_POINT('',#792);
#792 = CARTESIAN_POINT('',(-1.959434878636E-18,2.725473237281E-02,8.E-03
    ));
#793 = SEAM_CURVE('',#794,(#798,#805),.PCURVE_S1.);
#794 = LINE('',#795,#796);
#795 = CARTESIAN_POINT('',(-1.959434878636E-18,-7.5E-02,8.E-03));
#796 = VECTOR('',#797,1.);
#797 = DIRECTION('',(0.,1.,0.));
#798 = PCURVE('',#377,#799);
#799 = DEFINITIONAL_REPRESENTATION('',(#800),#804);
#800 = LINE('',#801,#802);
#801 = CARTESIAN_POINT('',(6.28318530718,-0.));
#802 = VECTOR('',#803,1.);
#803 = DIRECTION('',(0.,1.));
#804 = ( GEOMETRIC_REPRESENTATION_CONTEXT(2) 
PARAMETRIC_REPRESENTATION_CONTEXT() REPRESENTATION_CONTEXT('2D SPACE',''
  ) );
#805 = PCURVE('',#377,#806);
#806 = DEFINITIONAL_REPRESENTATION('',(#807),#811);
#807 = LINE('',#808,#809);
#808 = CARTESIAN_POINT('',(0.,-0.));
#809 = VECTOR('',#810,1.);
#810 = DIRECTION('',(0.,1.));
#811 = ( GEOMETRIC_REPRESENTATION_CONTEXT(2) 
PARAMETRIC_REPRESENTATION_CONTEXT() REPRESENTATION_CONTEXT('2D SPACE',''
  ) );
#812 = ORIENTED_EDGE('',*,*,#813,.T.);
#813 = EDGE_CURVE('',#791,#814,#816,.T.);
#814 = VERTEX_POINT('',#815);
#815 = CARTESIAN_POINT('',(6.928203230276E-03,4.834252786109E-02,-4.E-03
    ));
#816 = SURFACE_CURVE('',#817,(#848,#882),.PCURVE_S1.);
#817 = B_SPLINE_CURVE_WITH_KNOTS('',8,(#818,#819,#820,#821,#822,#823,
    #824,#825,#826,#827,#828,#829,#830,#831,#832,#833,#834,#835,#836,
    #837,#838,#839,#840,#841,#842,#843,#844,#845,#846,#847),
  .UNSPECIFIED.,.F.,.F.,(9,7,7,7,9),(0.,0.21305076534,0.428665309662,
    0.712478440775,1.),.UNSPECIFIED.);
#818 = CARTESIAN_POINT('',(-1.959434878636E-18,2.725473237281E-02,8.E-03
    ));
#819 = CARTESIAN_POINT('',(4.49415158429E-04,2.630617758112E-02,8.E-03)
  );
#820 = CARTESIAN_POINT('',(8.978853660895E-04,2.542736951473E-02,
    7.971145938205E-03));
#821 = CARTESIAN_POINT('',(1.342284050163E-03,2.463383853272E-02,
    7.913654078204E-03));
#822 = CARTESIAN_POINT('',(1.779724611985E-03,2.394109077821E-02,
    7.828266963701E-03));
#823 = CARTESIAN_POINT('',(2.20784918841E-03,2.336336970772E-02,
    7.716169740146E-03));
#824 = CARTESIAN_POINT('',(2.624990016861E-03,2.291195359939E-02,
    7.578626701358E-03));
#825 = CARTESIAN_POINT('',(3.030084434461E-03,2.25939435113E-02,
    7.416657242891E-03));
#826 = CARTESIAN_POINT('',(3.819083526881E-03,2.22288653357E-02,
    7.043250277308E-03));
#827 = CARTESIAN_POINT('',(4.202858363521E-03,2.218501526561E-02,
    6.831156314038E-03));
#828 = CARTESIAN_POINT('',(4.573020552484E-03,2.22842097045E-02,
    6.595380690865E-03));
#829 = CARTESIAN_POINT('',(4.929140224728E-03,2.252632220496E-02,
    6.336194594535E-03));
#830 = CARTESIAN_POINT('',(5.270358684778E-03,2.290769590551E-02,
    6.053605768285E-03));
#831 = CARTESIAN_POINT('',(5.595117971696E-03,2.342046187377E-02,
    5.747894162389E-03));
#832 = CARTESIAN_POINT('',(5.90125735084E-03,2.405249678595E-02,
    5.420119528377E-03));
#833 = CARTESIAN_POINT('',(6.562165217341E-03,2.575892311201E-02,
    4.613990315976E-03));
#834 = CARTESIAN_POINT('',(6.901531131991E-03,2.690959861224E-02,
    4.120984856908E-03));
#835 = CARTESIAN_POINT('',(7.199994611283E-03,2.820840009769E-02,
    3.596921393063E-03));
#836 = CARTESIAN_POINT('',(7.453413279126E-03,2.961795129033E-02,
    3.046598353087E-03));
#837 = CARTESIAN_POINT('',(7.658641398445E-03,3.110555686397E-02,
    2.475593364557E-03));
#838 = CARTESIAN_POINT('',(7.813737979299E-03,3.264530019767E-02,
    1.889530951888E-03));
#839 = CARTESIAN_POINT('',(7.917623418436E-03,3.421635725754E-02,
    1.293878317488E-03));
#840 = CARTESIAN_POINT('',(8.022784317905E-03,3.740944785136E-02,
    8.578220404961E-05));
#841 = CARTESIAN_POINT('',(8.022700732805E-03,3.903185289011E-02,
    -5.26771590299E-04));
#842 = CARTESIAN_POINT('',(7.969151731248E-03,4.065281939871E-02,
    -1.13855499461E-03));
#843 = CARTESIAN_POINT('',(7.862324106088E-03,4.225898089849E-02,
    -1.744141766892E-03));
#844 = CARTESIAN_POINT('',(7.70305745498E-03,4.38394925309E-02,
    -2.338160213173E-03));
#845 = CARTESIAN_POINT('',(7.492823940304E-03,4.538527008879E-02,
    -2.915399298629E-03));
#846 = CARTESIAN_POINT('',(7.233681888714E-03,4.688851537112E-02,
    -3.470895442956E-03));
#847 = CARTESIAN_POINT('',(6.928203230275E-03,4.834252786109E-02,
    -4.000000000001E-03));
#848 = PCURVE('',#377,#849);
#849 = DEFINITIONAL_REPRESENTATION('',(#850),#881);
#850 = B_SPLINE_CURVE_WITH_KNOTS('',8,(#851,#852,#853,#854,#855,#856,
    #857,#858,#859,#860,#861,#862,#863,#864,#865,#866,#867,#868,#869,
    #870,#871,#872,#873,#874,#875,#876,#877,#878,#879,#880),
  .UNSPECIFIED.,.F.,.F.,(9,7,7,7,9),(0.,0.21305076534,0.428665309662,
    0.712478440775,1.),.UNSPECIFIED.);
#851 = CARTESIAN_POINT('',(0.,0.102254732373));
#852 = CARTESIAN_POINT('',(5.617689480363E-02,0.101306177581));
#853 = CARTESIAN_POINT('',(0.112235763044,0.100427369515));
#854 = CARTESIAN_POINT('',(0.168055369754,9.963383853272E-02));
#855 = CARTESIAN_POINT('',(0.223541764433,9.894109077821E-02));
#856 = CARTESIAN_POINT('',(0.278643760777,9.836336970772E-02));
#857 = CARTESIAN_POINT('',(0.333372660113,9.791195359939E-02));
#858 = CARTESIAN_POINT('',(0.387803253462,9.75939435113E-02));
#859 = CARTESIAN_POINT('',(0.496915604518,9.72288653357E-02));
#860 = CARTESIAN_POINT('',(0.551617622689,9.718501526561E-02));
#861 = CARTESIAN_POINT('',(0.60630035945,9.72842097045E-02));
#862 = CARTESIAN_POINT('',(0.661144034051,9.752632220496E-02));
#863 = CARTESIAN_POINT('',(0.716304616924,9.790769590551E-02));
#864 = CARTESIAN_POINT('',(0.771865024151,9.842046187377E-02));
#865 = CARTESIAN_POINT('',(0.827811549194,9.905249678595E-02));
#866 = CARTESIAN_POINT('',(0.958114292539,0.100758923112));
#867 = CARTESIAN_POINT('',(1.032666129482,0.101909598612));
#868 = CARTESIAN_POINT('',(1.107597268635,0.103208400098));
#869 = CARTESIAN_POINT('',(1.18276973841,0.10461795129));
#870 = CARTESIAN_POINT('',(1.258052911708,0.106105556864));
#871 = CARTESIAN_POINT('',(1.33336663476,0.107645300198));
#872 = CARTESIAN_POINT('',(1.408668810716,0.109216357258));
#873 = CARTESIAN_POINT('',(1.560251865202,0.112409447851));
#874 = CARTESIAN_POINT('',(1.636531782801,0.11403185289));
#875 = CARTESIAN_POINT('',(1.71281244769,0.115652819399));
#876 = CARTESIAN_POINT('',(1.789096769174,0.117258980898));
#877 = CARTESIAN_POINT('',(1.865388663756,0.118839492531));
#878 = CARTESIAN_POINT('',(1.941694764741,0.120385270089));
#879 = CARTESIAN_POINT('',(2.018025437784,0.121888515371));
#880 = CARTESIAN_POINT('',(2.094395102393,0.123342527861));
#881 = ( GEOMETRIC_REPRESENTATION_CONTEXT(2) 
PARAMETRIC_REPRESENTATION_CONTEXT() REPRESENTATION_CONTEXT('2D SPACE',''
  ) );
#882 = PCURVE('',#513,#883);
#883 = DEFINITIONAL_REPRESENTATION('',(#884),#915);
#884 = B_SPLINE_CURVE_WITH_KNOTS('',8,(#885,#886,#887,#888,#889,#890,
    #891,#892,#893,#894,#895,#896,#897,#898,#899,#900,#901,#902,#903,
    #904,#905,#906,#907,#908,#909,#910,#911,#912,#913,#914),
  .UNSPECIFIED.,.F.,.F.,(9,7,7,7,9),(0.,0.21305076534,0.428665309662,
    0.712478440775,1.),.UNSPECIFIED.);
#885 = CARTESIAN_POINT('',(1.71651950332,1.348689227057));
#886 = CARTESIAN_POINT('',(1.707540491828,1.356846560435));
#887 = CARTESIAN_POINT('',(1.696963551286,1.364416390439));
#888 = CARTESIAN_POINT('',(1.684667461659,1.371264504955));
#889 = CARTESIAN_POINT('',(1.670582308627,1.377255407756));
#890 = CARTESIAN_POINT('',(1.654742144722,1.382261483477));
#891 = CARTESIAN_POINT('',(1.63737220322,1.386178958726));
#892 = CARTESIAN_POINT('',(1.618911318104,1.388940880252));
#893 = CARTESIAN_POINT('',(1.58059995447,1.392112752377));
#894 = CARTESIAN_POINT('',(1.560727729543,1.392494741547));
#895 = CARTESIAN_POINT('',(1.54075950259,1.391632334925));
#896 = CARTESIAN_POINT('',(1.521303108894,1.389526255342));
#897 = CARTESIAN_POINT('',(1.502935409775,1.386212464538));
#898 = CARTESIAN_POINT('',(1.486067668584,1.381765668735));
#899 = CARTESIAN_POINT('',(1.470887606606,1.376296235876));
#900 = CARTESIAN_POINT('',(1.439777401627,1.361559358259));
#901 = CARTESIAN_POINT('',(1.42513406159,1.351641261695));
#902 = CARTESIAN_POINT('',(1.413642439964,1.340471720445));
#903 = CARTESIAN_POINT('',(1.404934378905,1.328376316331));
#904 = CARTESIAN_POINT('',(1.398523649653,1.315631290821));
#905 = CARTESIAN_POINT('',(1.39404922848,1.302454073063));
#906 = CARTESIAN_POINT('',(1.391191406371,1.289017720811));
#907 = CARTESIAN_POINT('',(1.388205560652,1.261717606682));
#908 = CARTESIAN_POINT('',(1.388113429969,1.247850787791));
#909 = CARTESIAN_POINT('',(1.389176991781,1.233995952877));
#910 = CARTESIAN_POINT('',(1.391212698238,1.220263370765));
#911 = CARTESIAN_POINT('',(1.394085670371,1.20674275295));
#912 = CARTESIAN_POINT('',(1.397692891717,1.193509893144));
#913 = CARTESIAN_POINT('',(1.401952168801,1.180630626717));
#914 = CARTESIAN_POINT('',(1.40679685848,1.168162110046));
#915 = ( GEOMETRIC_REPRESENTATION_CONTEXT(2) 
PARAMETRIC_REPRESENTATION_CONTEXT() REPRESENTATION_CONTEXT('2D SPACE',''
  ) );
#916 = ORIENTED_EDGE('',*,*,#917,.T.);
#917 = EDGE_CURVE('',#814,#918,#920,.T.);
#918 = VERTEX_POINT('',#919);
#919 = CARTESIAN_POINT('',(-6.928203230275E-03,4.834252786109E-02,4.E-03
    ));
#920 = SURFACE_CURVE('',#921,(#966,#1014),.PCURVE_S1.);
#921 = B_SPLINE_CURVE_WITH_KNOTS('',8,(#922,#923,#924,#925,#926,#927,
    #928,#929,#930,#931,#932,#933,#934,#935,#936,#937,#938,#939,#940,
    #941,#942,#943,#944,#945,#946,#947,#948,#949,#950,#951,#952,#953,
    #954,#955,#956,#957,#958,#959,#960,#961,#962,#963,#964,#965),
  .UNSPECIFIED.,.F.,.F.,(9,7,7,7,7,7,9),(0.,0.265501710306,
    0.385813071554,0.502535543365,0.612367205122,0.805811895075,1.),
  .UNSPECIFIED.);
#922 = CARTESIAN_POINT('',(6.928203230276E-03,4.834252786109E-02,
    -3.999999999999E-03));
#923 = CARTESIAN_POINT('',(6.506689112912E-03,4.633621162781E-02,
    -4.730083867382E-03));
#924 = CARTESIAN_POINT('',(5.997731407661E-03,4.423702376025E-02,
    -5.408568374179E-03));
#925 = CARTESIAN_POINT('',(5.408477251957E-03,4.206193504113E-02,
    -6.023886909755E-03));
#926 = CARTESIAN_POINT('',(4.747842800357E-03,3.983159089911E-02,
    -6.565310492934E-03));
#927 = CARTESIAN_POINT('',(4.02660318864E-03,3.757291054862E-02,
    -7.023315388177E-03));
#928 = CARTESIAN_POINT('',(3.25732582786E-03,3.532012655048E-02,
    -7.390200539933E-03));
#929 = CARTESIAN_POINT('',(2.453815518133E-03,3.312182187252E-02,
    -7.660697819988E-03));
#930 = CARTESIAN_POINT('',(1.257178737123E-03,3.010515091986E-02,
    -7.909790244858E-03));
#931 = CARTESIAN_POINT('',(8.79987221772E-04,2.918972111751E-02,
    -7.967107136259E-03));
#932 = CARTESIAN_POINT('',(5.002108494262E-04,2.830619088256E-02,
    -8.003802742522E-03));
#933 = CARTESIAN_POINT('',(1.19395592053E-04,2.74620387851E-02,
    -8.019742744015E-03));
#934 = CARTESIAN_POINT('',(-2.608512923079E-04,2.666566139194E-02,
    -8.014968021151E-03));
#935 = CARTESIAN_POINT('',(-6.389088735855E-04,2.592610162901E-02,
    -7.989716821853E-03));
#936 = CARTESIAN_POINT('',(-1.013202357018E-03,2.525245079039E-02,
    -7.944421150554E-03));
#937 = CARTESIAN_POINT('',(-1.740338366428E-03,2.407128148316E-02,
    -7.816864914426E-03));
#938 = CARTESIAN_POINT('',(-2.093536754864E-03,2.355932308648E-02,
    -7.735740633249E-03));
#939 = CARTESIAN_POINT('',(-2.440468798693E-03,2.31246937842E-02,
    -7.636840189611E-03));
#940 = CARTESIAN_POINT('',(-2.780072728172E-03,2.277380383294E-02,
    -7.520847671276E-03));
#941 = CARTESIAN_POINT('',(-3.111641560137E-03,2.251142724696E-02,
    -7.388406802751E-03));
#942 = CARTESIAN_POINT('',(-3.434761617329E-03,2.234053922984E-02,
    -7.240009033112E-03));
#943 = CARTESIAN_POINT('',(-3.749174461126E-03,2.22623927564E-02,
    -7.075958508256E-03));
#944 = CARTESIAN_POINT('',(-4.34192118804E-03,2.229042328388E-02,
    -6.727468913418E-03));
#945 = CARTESIAN_POINT('',(-4.621322955485E-03,2.238599071472E-02,
    -6.544786053779E-03));
#946 = CARTESIAN_POINT('',(-4.892501888773E-03,2.256339133392E-02,
    -6.34851041174E-03));
#947 = CARTESIAN_POINT('',(-5.155096268451E-03,2.282134853739E-02,
    -6.138708641316E-03));
#948 = CARTESIAN_POINT('',(-5.408553174052E-03,2.31572307468E-02,
    -5.915492404854E-03));
#949 = CARTESIAN_POINT('',(-5.652106293515E-03,2.356700176897E-02,
    -5.67911983691E-03));
#950 = CARTESIAN_POINT('',(-5.884826674875E-03,2.404534514814E-02,
    -5.430075054607E-03));
#951 = CARTESIAN_POINT('',(-6.494848715075E-03,2.553814293401E-02,
    -4.709519956139E-03));
#952 = CARTESIAN_POINT('',(-6.847213482149E-03,2.668319445298E-02,
    -4.213130794267E-03));
#953 = CARTESIAN_POINT('',(-7.157839303267E-03,2.798722430604E-02,
    -3.683852436935E-03));
#954 = CARTESIAN_POINT('',(-7.422237913684E-03,2.94104569078E-02,
    -3.126634702638E-03));
#955 = CARTESIAN_POINT('',(-7.636947690107E-03,3.091764956847E-02,
    -2.547351164082E-03));
#956 = CARTESIAN_POINT('',(-7.79983737485E-03,3.248100328179E-02,
    -1.951955775416E-03));
#957 = CARTESIAN_POINT('',(-7.909714112557E-03,3.407813796592E-02,
    -1.346255168224E-03));
#958 = CARTESIAN_POINT('',(-8.02270562605E-03,3.731150831197E-02,
    -1.227604292675E-04));
#959 = CARTESIAN_POINT('',(-8.025412066967E-03,3.894796523883E-02,
    4.951100279728E-04));
#960 = CARTESIAN_POINT('',(-7.973718963986E-03,4.058354907348E-02,
    1.112435897815E-03));
#961 = CARTESIAN_POINT('',(-7.867794828446E-03,4.220445110487E-02,
    1.723645759592E-03));
#962 = CARTESIAN_POINT('',(-7.708484885605E-03,4.37994956145E-02,
    2.323222905552E-03));
#963 = CARTESIAN_POINT('',(-7.497289800465E-03,4.535933944334E-02,
    2.905816417624E-03));
#964 = CARTESIAN_POINT('',(-7.236316805503E-03,4.687597373584E-02,
    3.466331633205E-03));
#965 = CARTESIAN_POINT('',(-6.928203230275E-03,4.834252786109E-02,
    4.000000000001E-03));
#966 = PCURVE('',#377,#967);
#967 = DEFINITIONAL_REPRESENTATION('',(#968),#1013);
#968 = B_SPLINE_CURVE_WITH_KNOTS('',8,(#969,#970,#971,#972,#973,#974,
    #975,#976,#977,#978,#979,#980,#981,#982,#983,#984,#985,#986,#987,
    #988,#989,#990,#991,#992,#993,#994,#995,#996,#997,#998,#999,#1000,
    #1001,#1002,#1003,#1004,#1005,#1006,#1007,#1008,#1009,#1010,#1011,
    #1012),.UNSPECIFIED.,.F.,.F.,(9,7,7,7,7,7,9),(0.,0.265501710306,
    0.385813071554,0.502535543365,0.612367205122,0.805811895075,1.),
  .UNSPECIFIED.);
#969 = CARTESIAN_POINT('',(2.094395102393,0.123342527861));
#970 = CARTESIAN_POINT('',(2.199773631734,0.121336211628));
#971 = CARTESIAN_POINT('',(2.305031590192,0.11923702376));
#972 = CARTESIAN_POINT('',(2.410253310558,0.117061935041));
#973 = CARTESIAN_POINT('',(2.515486074625,0.114831590899));
#974 = CARTESIAN_POINT('',(2.620741097434,0.112572910549));
#975 = CARTESIAN_POINT('',(2.725999931545,0.11032012655));
#976 = CARTESIAN_POINT('',(2.831221583451,0.108121821873));
#977 = CARTESIAN_POINT('',(2.984007515282,0.10510515092));
#978 = CARTESIAN_POINT('',(3.031627145009,0.104189721118));
#979 = CARTESIAN_POINT('',(3.079202395616,0.103306190883));
#980 = CARTESIAN_POINT('',(3.12670516143,0.102462038785));
#981 = CARTESIAN_POINT('',(3.174100363779,0.101665661392));
#982 = CARTESIAN_POINT('',(3.221348626528,0.100926101629));
#983 = CARTESIAN_POINT('',(3.268409970806,0.10025245079));
#984 = CARTESIAN_POINT('',(3.360689892237,9.907128148316E-02));
#985 = CARTESIAN_POINT('',(3.405927656627,9.855932308648E-02));
#986 = CARTESIAN_POINT('',(3.45092127367,9.81246937842E-02));
#987 = CARTESIAN_POINT('',(3.495661971885,9.777380383294E-02));
#988 = CARTESIAN_POINT('',(3.540177633622,9.751142724696E-02));
#989 = CARTESIAN_POINT('',(3.584529794545,9.734053922984E-02));
#990 = CARTESIAN_POINT('',(3.628802765685,9.72623927564E-02));
#991 = CARTESIAN_POINT('',(3.714752758411,9.729042328388E-02));
#992 = CARTESIAN_POINT('',(3.756433488771,9.738599071472E-02));
#993 = CARTESIAN_POINT('',(3.798199692088,9.756339133392E-02));
#994 = CARTESIAN_POINT('',(3.840118278884,9.782134853739E-02));
#995 = CARTESIAN_POINT('',(3.882237251322,9.81572307468E-02));
#996 = CARTESIAN_POINT('',(3.924578088204,9.856700176897E-02));
#997 = CARTESIAN_POINT('',(3.967133710903,9.904534514814E-02));
#998 = CARTESIAN_POINT('',(4.085146325394,0.100538142934));
#999 = CARTESIAN_POINT('',(4.160962647624,0.101683194453));
#1000 = CARTESIAN_POINT('',(4.237195417649,0.102987224306));
#1001 = CARTESIAN_POINT('',(4.313699233234,0.104410456908));
#1002 = CARTESIAN_POINT('',(4.390329696159,0.105917649568));
#1003 = CARTESIAN_POINT('',(4.466997430422,0.107481003282));
#1004 = CARTESIAN_POINT('',(4.543652200785,0.109078137966));
#1005 = CARTESIAN_POINT('',(4.697239841604,0.112311508312));
#1006 = CARTESIAN_POINT('',(4.774177547898,0.113947965239));
#1007 = CARTESIAN_POINT('',(4.851116020387,0.115583549073));
#1008 = CARTESIAN_POINT('',(4.92805801,0.117204451105));
#1009 = CARTESIAN_POINT('',(5.005007384313,0.118799495615));
#1010 = CARTESIAN_POINT('',(5.081970919747,0.120359339443));
#1011 = CARTESIAN_POINT('',(5.158959362176,0.121875973736));
#1012 = CARTESIAN_POINT('',(5.235987755983,0.123342527861));
#1013 = ( GEOMETRIC_REPRESENTATION_CONTEXT(2) 
PARAMETRIC_REPRESENTATION_CONTEXT() REPRESENTATION_CONTEXT('2D SPACE',''
  ) );
#1014 = PCURVE('',#733,#1015);
#1015 = DEFINITIONAL_REPRESENTATION('',(#1016),#1061);
#1016 = B_SPLINE_CURVE_WITH_KNOTS('',8,(#1017,#1018,#1019,#1020,#1021,
    #1022,#1023,#1024,#1025,#1026,#1027,#1028,#1029,#1030,#1031,#1032,
    #1033,#1034,#1035,#1036,#1037,#1038,#1039,#1040,#1041,#1042,#1043,
    #1044,#1045,#1046,#1047,#1048,#1049,#1050,#1051,#1052,#1053,#1054,
    #1055,#1056,#1057,#1058,#1059,#1060),.UNSPECIFIED.,.F.,.F.,(9,7,7,7,
    7,7,9),(0.,0.265501710306,0.385813071554,0.502535543365,
    0.612367205122,0.805811895075,1.),.UNSPECIFIED.);
#1017 = CARTESIAN_POINT('',(1.40679685848,-1.168162110046));
#1018 = CARTESIAN_POINT('',(1.400111923092,-1.185366767897));
#1019 = CARTESIAN_POINT('',(1.394544148591,-1.203346068964));
#1020 = CARTESIAN_POINT('',(1.39026704912,-1.221955224227));
#1021 = CARTESIAN_POINT('',(1.38749931335,-1.241020810524));
#1022 = CARTESIAN_POINT('',(1.386584732224,-1.260319689878));
#1023 = CARTESIAN_POINT('',(1.387939850804,-1.279569830401));
#1024 = CARTESIAN_POINT('',(1.392351036952,-1.298372310733));
#1025 = CARTESIAN_POINT('',(1.404680811336,-1.324215032498));
#1026 = CARTESIAN_POINT('',(1.409361521486,-1.332063276295));
#1027 = CARTESIAN_POINT('',(1.414970221861,-1.339645259657));
#1028 = CARTESIAN_POINT('',(1.421606005256,-1.346897688861));
#1029 = CARTESIAN_POINT('',(1.429368782509,-1.353748749621));
#1030 = CARTESIAN_POINT('',(1.438342287883,-1.360120123053));
#1031 = CARTESIAN_POINT('',(1.448566186445,-1.365931993632));
#1032 = CARTESIAN_POINT('',(1.471087390619,-1.376135613375));
#1033 = CARTESIAN_POINT('',(1.483315374005,-1.380565264557));
#1034 = CARTESIAN_POINT('',(1.496642286132,-1.384332001641));
#1035 = CARTESIAN_POINT('',(1.510965861416,-1.387377405729));
#1036 = CARTESIAN_POINT('',(1.526102002388,-1.389657026982));
#1037 = CARTESIAN_POINT('',(1.5417913512,-1.39114255288));
#1038 = CARTESIAN_POINT('',(1.557730946411,-1.39182175785));
#1039 = CARTESIAN_POINT('',(1.588592312562,-1.391578121042));
#1040 = CARTESIAN_POINT('',(1.603519632652,-1.390747486887));
#1041 = CARTESIAN_POINT('',(1.618170512404,-1.389205639332));
#1042 = CARTESIAN_POINT('',(1.632299174418,-1.386964937339));
#1043 = CARTESIAN_POINT('',(1.64569654898,-1.384050336139));
#1044 = CARTESIAN_POINT('',(1.658212551288,-1.38049934167));
#1045 = CARTESIAN_POINT('',(1.669760563721,-1.376360374596));
#1046 = CARTESIAN_POINT('',(1.698874320008,-1.36346288704));
#1047 = CARTESIAN_POINT('',(1.714322873124,-1.353589055811));
#1048 = CARTESIAN_POINT('',(1.726460684934,-1.34237051207));
#1049 = CARTESIAN_POINT('',(1.73565066592,-1.330154834105));
#1050 = CARTESIAN_POINT('',(1.742419569708,-1.317240103467));
#1051 = CARTESIAN_POINT('',(1.747148729997,-1.303859709552));
#1052 = CARTESIAN_POINT('',(1.750182180198,-1.290199739017));
#1053 = CARTESIAN_POINT('',(1.75337970999,-1.262554703823));
#1054 = CARTESIAN_POINT('',(1.753533176312,-1.248567792291));
#1055 = CARTESIAN_POINT('',(1.752502818071,-1.234588204079));
#1056 = CARTESIAN_POINT('',(1.750478717439,-1.220729846961));
#1057 = CARTESIAN_POINT('',(1.747600146768,-1.207085150565));
#1058 = CARTESIAN_POINT('',(1.743973180784,-1.193732056188));
#1059 = CARTESIAN_POINT('',(1.739682272828,-1.180738174341));
#1060 = CARTESIAN_POINT('',(1.73479579511,-1.168162110046));
#1061 = ( GEOMETRIC_REPRESENTATION_CONTEXT(2) 
PARAMETRIC_REPRESENTATION_CONTEXT() REPRESENTATION_CONTEXT('2D SPACE',''
  ) );
#1062 = ORIENTED_EDGE('',*,*,#1063,.T.);
#1063 = EDGE_CURVE('',#918,#791,#1064,.T.);
#1064 = SURFACE_CURVE('',#1065,(#1082,#1102),.PCURVE_S1.);
#1065 = B_SPLINE_CURVE_WITH_KNOTS('',8,(#1066,#1067,#1068,#1069,#1070,
    #1071,#1072,#1073,#1074,#1075,#1076,#1077,#1078,#1079,#1080,#1081),
  .UNSPECIFIED.,.F.,.F.,(9,7,9),(0.,0.798498614139,1.),.UNSPECIFIED.);
#1066 = CARTESIAN_POINT('',(-6.928203230276E-03,4.834252786109E-02,
    3.999999999999E-03));
#1067 = CARTESIAN_POINT('',(-6.509330334533E-03,4.634878327273E-02,
    4.72550913734E-03));
#1068 = CARTESIAN_POINT('',(-6.004099420426E-03,4.426329504465E-02,
    5.400075395484E-03));
#1069 = CARTESIAN_POINT('',(-5.419525168027E-03,4.210273780975E-02,
    6.012334906117E-03));
#1070 = CARTESIAN_POINT('',(-4.764353017768E-03,3.988737858068E-02,
    6.551747191855E-03));
#1071 = CARTESIAN_POINT('',(-4.049139602442E-03,3.764355102689E-02,
    7.008953599932E-03));
#1072 = CARTESIAN_POINT('',(-3.286183222797E-03,3.5404723422E-02,
    7.376369715656E-03));
#1073 = CARTESIAN_POINT('',(-2.488989922478E-03,3.321817299659E-02,
    7.64876967155E-03));
#1074 = CARTESIAN_POINT('',(-1.465241583341E-03,3.062796751724E-02,
    7.86750048464E-03));
#1075 = CARTESIAN_POINT('',(-1.257697620689E-03,3.011365483107E-02,
    7.905343626821E-03));
#1076 = CARTESIAN_POINT('',(-1.049135469775E-03,2.960804553659E-02,
    7.936911731824E-03));
#1077 = CARTESIAN_POINT('',(-8.398039433506E-04,2.911232232167E-02,
    7.962172736737E-03));
#1078 = CARTESIAN_POINT('',(-6.299597891539E-04,2.862775389272E-02,
    7.981107759843E-03));
#1079 = CARTESIAN_POINT('',(-4.198658774293E-04,2.815568438936E-02,
    7.993712727328E-03));
#1080 = CARTESIAN_POINT('',(-2.097893884427E-04,2.769752279926E-02,
    8.E-03));
#1081 = CARTESIAN_POINT('',(-1.734723475977E-18,2.725473237281E-02,
    8.E-03));
#1082 = PCURVE('',#377,#1083);
#1083 = DEFINITIONAL_REPRESENTATION('',(#1084),#1101);
#1084 = B_SPLINE_CURVE_WITH_KNOTS('',8,(#1085,#1086,#1087,#1088,#1089,
    #1090,#1091,#1092,#1093,#1094,#1095,#1096,#1097,#1098,#1099,#1100),
  .UNSPECIFIED.,.F.,.F.,(9,7,9),(0.,0.798498614139,1.),.UNSPECIFIED.);
#1085 = CARTESIAN_POINT('',(5.235987755983,0.123342527861));
#1086 = CARTESIAN_POINT('',(5.340705979919,0.121348783273));
#1087 = CARTESIAN_POINT('',(5.445306850894,0.119263295045));
#1088 = CARTESIAN_POINT('',(5.549871618825,0.11710273781));
#1089 = CARTESIAN_POINT('',(5.654445993365,0.114887378581));
#1090 = CARTESIAN_POINT('',(5.759041240758,0.112643551027));
#1091 = CARTESIAN_POINT('',(5.863640204252,0.110404723422));
#1092 = CARTESIAN_POINT('',(5.968204378147,0.108218172997));
#1093 = CARTESIAN_POINT('',(6.099061159978,0.105627967517));
#1094 = CARTESIAN_POINT('',(6.125419928819,0.105113654831));
#1095 = CARTESIAN_POINT('',(6.151767190152,0.104608045537));
#1096 = CARTESIAN_POINT('',(6.178099568476,0.104112322322));
#1097 = CARTESIAN_POINT('',(6.204412852622,0.103627753893));
#1098 = CARTESIAN_POINT('',(6.230702082131,0.103155684389));
#1099 = CARTESIAN_POINT('',(6.256961633624,0.102697522799));
#1100 = CARTESIAN_POINT('',(6.28318530718,0.102254732373));
#1101 = ( GEOMETRIC_REPRESENTATION_CONTEXT(2) 
PARAMETRIC_REPRESENTATION_CONTEXT() REPRESENTATION_CONTEXT('2D SPACE',''
  ) );
#1102 = PCURVE('',#513,#1103);
#1103 = DEFINITIONAL_REPRESENTATION('',(#1104),#1121);
#1104 = B_SPLINE_CURVE_WITH_KNOTS('',8,(#1105,#1106,#1107,#1108,#1109,
    #1110,#1111,#1112,#1113,#1114,#1115,#1116,#1117,#1118,#1119,#1120),
  .UNSPECIFIED.,.F.,.F.,(9,7,9),(0.,0.798498614139,1.),.UNSPECIFIED.);
#1105 = CARTESIAN_POINT('',(1.73479579511,1.168162110046));
#1106 = CARTESIAN_POINT('',(1.741438842468,1.185258962933));
#1107 = CARTESIAN_POINT('',(1.74697877261,1.203121057984));
#1108 = CARTESIAN_POINT('',(1.751245300833,1.221606130622));
#1109 = CARTESIAN_POINT('',(1.7540235879,1.240543918198));
#1110 = CARTESIAN_POINT('',(1.754978691276,1.259716111778));
#1111 = CARTESIAN_POINT('',(1.753702218763,1.278846947696));
#1112 = CARTESIAN_POINT('',(1.749432458144,1.297548217322));
#1113 = CARTESIAN_POINT('',(1.739093668867,1.319735962507));
#1114 = CARTESIAN_POINT('',(1.736756866201,1.324143405516));
#1115 = CARTESIAN_POINT('',(1.734151180778,1.328478293958));
#1116 = CARTESIAN_POINT('',(1.731260189133,1.332730639778));
#1117 = CARTESIAN_POINT('',(1.728067155107,1.336889678164));
#1118 = CARTESIAN_POINT('',(1.72455578016,1.340943942684));
#1119 = CARTESIAN_POINT('',(1.720710953684,1.34488134041));
#1120 = CARTESIAN_POINT('',(1.71651950332,1.348689227057));
#1121 = ( GEOMETRIC_REPRESENTATION_CONTEXT(2) 
PARAMETRIC_REPRESENTATION_CONTEXT() REPRESENTATION_CONTEXT('2D SPACE',''
  ) );
#1122 = ORIENTED_EDGE('',*,*,#790,.T.);
#1123 = ADVANCED_FACE('',(#1124),#513,.F.);
#1124 = FACE_BOUND('',#1125,.F.);
#1125 = EDGE_LOOP('',(#1126,#1150,#1174,#1175,#1197,#1198,#1199,#1221,
    #1222));
#1126 = ORIENTED_EDGE('',*,*,#1127,.T.);
#1127 = EDGE_CURVE('',#444,#1128,#1130,.T.);
#1128 = VERTEX_POINT('',#1129);
#1129 = CARTESIAN_POINT('',(4.243524478544E-02,-1.200153863164E-17,
    -2.45E-02));
#1130 = SURFACE_CURVE('',#1131,(#1136,#1143),.PCURVE_S1.);
#1131 = CIRCLE('',#1132,4.9E-02);
#1132 = AXIS2_PLACEMENT_3D('',#1133,#1134,#1135);
#1133 = CARTESIAN_POINT('',(0.,0.,0.));
#1134 = DIRECTION('',(0.5,0.,0.866025403784));
#1135 = DIRECTION('',(0.,-1.,0.));
#1136 = PCURVE('',#513,#1137);
#1137 = DEFINITIONAL_REPRESENTATION('',(#1138),#1142);
#1138 = LINE('',#1139,#1140);
#1139 = CARTESIAN_POINT('',(-1.570796326795,1.168162110046));
#1140 = VECTOR('',#1141,1.);
#1141 = DIRECTION('',(1.,0.));
#1142 = ( GEOMETRIC_REPRESENTATION_CONTEXT(2) 
PARAMETRIC_REPRESENTATION_CONTEXT() REPRESENTATION_CONTEXT('2D SPACE',''
  ) );
#1143 = PCURVE('',#733,#1144);
#1144 = DEFINITIONAL_REPRESENTATION('',(#1145),#1149);
#1145 = LINE('',#1146,#1147);
#1146 = CARTESIAN_POINT('',(-1.570796326795,-1.168162110046));
#1147 = VECTOR('',#1148,1.);
#1148 = DIRECTION('',(1.,0.));
#1149 = ( GEOMETRIC_REPRESENTATION_CONTEXT(2) 
PARAMETRIC_REPRESENTATION_CONTEXT() REPRESENTATION_CONTEXT('2D SPACE',''
  ) );
#1150 = ORIENTED_EDGE('',*,*,#1151,.T.);
#1151 = EDGE_CURVE('',#1128,#1152,#1154,.T.);
#1152 = VERTEX_POINT('',#1153);
#1153 = CARTESIAN_POINT('',(5.E-03,-1.875449608219E-33,
    8.660254037844E-03));
#1154 = SEAM_CURVE('',#1155,(#1160,#1167),.PCURVE_S1.);
#1155 = CIRCLE('',#1156,0.12505);
#1156 = AXIS2_PLACEMENT_3D('',#1157,#1158,#1159);
#1157 = CARTESIAN_POINT('',(-5.7525E-02,0.,-9.96362227054E-02));
#1158 = DIRECTION('',(-2.12115047745E-16,-1.,1.224646799147E-16));
#1159 = DIRECTION('',(0.866025403784,-2.449293598295E-16,-0.5));
#1160 = PCURVE('',#513,#1161);
#1161 = DEFINITIONAL_REPRESENTATION('',(#1162),#1166);
#1162 = LINE('',#1163,#1164);
#1163 = CARTESIAN_POINT('',(0.,-6.28318530718));
#1164 = VECTOR('',#1165,1.);
#1165 = DIRECTION('',(0.,1.));
#1166 = ( GEOMETRIC_REPRESENTATION_CONTEXT(2) 
PARAMETRIC_REPRESENTATION_CONTEXT() REPRESENTATION_CONTEXT('2D SPACE',''
  ) );
#1167 = PCURVE('',#513,#1168);
#1168 = DEFINITIONAL_REPRESENTATION('',(#1169),#1173);
#1169 = LINE('',#1170,#1171);
#1170 = CARTESIAN_POINT('',(6.28318530718,-6.28318530718));
#1171 = VECTOR('',#1172,1.);
#1172 = DIRECTION('',(0.,1.));
#1173 = ( GEOMETRIC_REPRESENTATION_CONTEXT(2) 
PARAMETRIC_REPRESENTATION_CONTEXT() REPRESENTATION_CONTEXT('2D SPACE',''
  ) );
#1174 = ORIENTED_EDGE('',*,*,#1151,.F.);
#1175 = ORIENTED_EDGE('',*,*,#1176,.T.);
#1176 = EDGE_CURVE('',#1128,#814,#1177,.T.);
#1177 = SURFACE_CURVE('',#1178,(#1183,#1190),.PCURVE_S1.);
#1178 = CIRCLE('',#1179,4.9E-02);
#1179 = AXIS2_PLACEMENT_3D('',#1180,#1181,#1182);
#1180 = CARTESIAN_POINT('',(0.,0.,0.));
#1181 = DIRECTION('',(0.5,0.,0.866025403784));
#1182 = DIRECTION('',(0.,-1.,0.));
#1183 = PCURVE('',#513,#1184);
#1184 = DEFINITIONAL_REPRESENTATION('',(#1185),#1189);
#1185 = LINE('',#1186,#1187);
#1186 = CARTESIAN_POINT('',(-1.570796326795,1.168162110046));
#1187 = VECTOR('',#1188,1.);
#1188 = DIRECTION('',(1.,0.));
#1189 = ( GEOMETRIC_REPRESENTATION_CONTEXT(2) 
PARAMETRIC_REPRESENTATION_CONTEXT() REPRESENTATION_CONTEXT('2D SPACE',''
  ) );
#1190 = PCURVE('',#733,#1191);
#1191 = DEFINITIONAL_REPRESENTATION('',(#1192),#1196);
#1192 = LINE('',#1193,#1194);
#1193 = CARTESIAN_POINT('',(-1.570796326795,-1.168162110046));
#1194 = VECTOR('',#1195,1.);
#1195 = DIRECTION('',(1.,0.));
#1196 = ( GEOMETRIC_REPRESENTATION_CONTEXT(2) 
PARAMETRIC_REPRESENTATION_CONTEXT() REPRESENTATION_CONTEXT('2D SPACE',''
  ) );
#1197 = ORIENTED_EDGE('',*,*,#813,.F.);
#1198 = ORIENTED_EDGE('',*,*,#1063,.F.);
#1199 = ORIENTED_EDGE('',*,*,#1200,.T.);
#1200 = EDGE_CURVE('',#918,#576,#1201,.T.);
#1201 = SURFACE_CURVE('',#1202,(#1207,#1214),.PCURVE_S1.);
#1202 = CIRCLE('',#1203,4.9E-02);
#1203 = AXIS2_PLACEMENT_3D('',#1204,#1205,#1206);
#1204 = CARTESIAN_POINT('',(0.,0.,0.));
#1205 = DIRECTION('',(0.5,0.,0.866025403784));
#1206 = DIRECTION('',(0.,-1.,0.));
#1207 = PCURVE('',#513,#1208);
#1208 = DEFINITIONAL_REPRESENTATION('',(#1209),#1213);
#1209 = LINE('',#1210,#1211);
#1210 = CARTESIAN_POINT('',(-1.570796326795,1.168162110046));
#1211 = VECTOR('',#1212,1.);
#1212 = DIRECTION('',(1.,0.));
#1213 = ( GEOMETRIC_REPRESENTATION_CONTEXT(2) 
PARAMETRIC_REPRESENTATION_CONTEXT() REPRESENTATION_CONTEXT('2D SPACE',''
  ) );
#1214 = PCURVE('',#733,#1215);
#1215 = DEFINITIONAL_REPRESENTATION('',(#1216),#1220);
#1216 = LINE('',#1217,#1218);
#1217 = CARTESIAN_POINT('',(-1.570796326795,-1.168162110046));
#1218 = VECTOR('',#1219,1.);
#1219 = DIRECTION('',(1.,0.));
#1220 = ( GEOMETRIC_REPRESENTATION_CONTEXT(2) 
PARAMETRIC_REPRESENTATION_CONTEXT() REPRESENTATION_CONTEXT('2D SPACE',''
  ) );
#1221 = ORIENTED_EDGE('',*,*,#575,.T.);
#1222 = ORIENTED_EDGE('',*,*,#441,.T.);
#1223 = ADVANCED_FACE('',(#1224),#733,.F.);
#1224 = FACE_BOUND('',#1225,.F.);
#1225 = EDGE_LOOP('',(#1226,#1250,#1251,#1252,#1253,#1254,#1255));
#1226 = ORIENTED_EDGE('',*,*,#1227,.T.);
#1227 = EDGE_CURVE('',#1228,#1128,#1230,.T.);
#1228 = VERTEX_POINT('',#1229);
#1229 = CARTESIAN_POINT('',(-5.E-03,-1.875449608219E-33,
    -8.660254037844E-03));
#1230 = SEAM_CURVE('',#1231,(#1236,#1243),.PCURVE_S1.);
#1231 = CIRCLE('',#1232,0.12505);
#1232 = AXIS2_PLACEMENT_3D('',#1233,#1234,#1235);
#1233 = CARTESIAN_POINT('',(5.7525E-02,0.,9.96362227054E-02));
#1234 = DIRECTION('',(-2.12115047745E-16,-1.,1.224646799147E-16));
#1235 = DIRECTION('',(0.866025403784,-2.449293598295E-16,-0.5));
#1236 = PCURVE('',#733,#1237);
#1237 = DEFINITIONAL_REPRESENTATION('',(#1238),#1242);
#1238 = LINE('',#1239,#1240);
#1239 = CARTESIAN_POINT('',(6.28318530718,-6.28318530718));
#1240 = VECTOR('',#1241,1.);
#1241 = DIRECTION('',(0.,1.));
#1242 = ( GEOMETRIC_REPRESENTATION_CONTEXT(2) 
PARAMETRIC_REPRESENTATION_CONTEXT() REPRESENTATION_CONTEXT('2D SPACE',''
  ) );
#1243 = PCURVE('',#733,#1244);
#1244 = DEFINITIONAL_REPRESENTATION('',(#1245),#1249);
#1245 = LINE('',#1246,#1247);
#1246 = CARTESIAN_POINT('',(0.,-6.28318530718));
#1247 = VECTOR('',#1248,1.);
#1248 = DIRECTION('',(0.,1.));
#1249 = ( GEOMETRIC_REPRESENTATION_CONTEXT(2) 
PARAMETRIC_REPRESENTATION_CONTEXT() REPRESENTATION_CONTEXT('2D SPACE',''
  ) );
#1250 = ORIENTED_EDGE('',*,*,#1127,.F.);
#1251 = ORIENTED_EDGE('',*,*,#637,.T.);
#1252 = ORIENTED_EDGE('',*,*,#1200,.F.);
#1253 = ORIENTED_EDGE('',*,*,#917,.F.);
#1254 = ORIENTED_EDGE('',*,*,#1176,.F.);
#1255 = ORIENTED_EDGE('',*,*,#1227,.F.);
#1256 = ( GEOMETRIC_REPRESENTATION_CONTEXT(3) 
GLOBAL_UNCERTAINTY_ASSIGNED_CONTEXT((#1260)) 
GLOBAL_UNIT_ASSIGNED_CONTEXT((#1257,#1258,#1259)) REPRESENTATION_CONTEXT
('Context #1','3D Context with UNIT and UNCERTAINTY') );
#1257 = ( LENGTH_UNIT() NAMED_UNIT(*) SI_UNIT($,.METRE.) );
#1258 = ( NAMED_UNIT(*) PLANE_ANGLE_UNIT() SI_UNIT($,.RADIAN.) );
#1259 = ( NAMED_UNIT(*) SI_UNIT($,.STERADIAN.) SOLID_ANGLE_UNIT() );
#1260 = UNCERTAINTY_MEASURE_WITH_UNIT(LENGTH_MEASURE(1.E-07),#1257,
  'distance_accuracy_value','confusion accuracy');
#1261 = CONTEXT_DEPENDENT_SHAPE_REPRESENTATION(#1262,#1264);
#1262 = ( REPRESENTATION_RELATIONSHIP('','',#32,#10) 
REPRESENTATION_RELATIONSHIP_WITH_TRANSFORMATION(#1263) 
SHAPE_REPRESENTATION_RELATIONSHIP() );
#1263 = ITEM_DEFINED_TRANSFORMATION('','',#11,#15);
#1264 = PRODUCT_DEFINITION_SHAPE('Placement','Placement of an item',
  #1265);
#1265 = NEXT_ASSEMBLY_USAGE_OCCURRENCE('4','Fluido','',#5,#27,$);
#1266 = PRODUCT_RELATED_PRODUCT_CATEGORY('part',$,(#29));
#1267 = MECHANICAL_DESIGN_GEOMETRIC_PRESENTATION_REPRESENTATION('',(
    #1268),#1256);
#1268 = STYLED_ITEM('color',(#1269),#33);
#1269 = PRESENTATION_STYLE_ASSIGNMENT((#1270));
#1270 = SURFACE_STYLE_USAGE(.BOTH.,#1271);
#1271 = SURFACE_SIDE_STYLE('',(#1272));
#1272 = SURFACE_STYLE_FILL_AREA(#1273);
#1273 = FILL_AREA_STYLE('',(#1274));
#1274 = FILL_AREA_STYLE_COLOUR('',#1275);
#1275 = COLOUR_RGB('',0.274509682866,0.509803958822,0.705882339664);
ENDSEC;
END-ISO-10303-21;
