ISO-10303-21;
HEADER;
FILE_DESCRIPTION(('Open CASCADE Model'),'2;1');
FILE_NAME('Open CASCADE Shape Model','2026-08-18T19:31:34',('Author'),(
    'Open CASCADE'),'Open CASCADE STEP processor 7.9','Open CASCADE 7.9'
  ,'Unknown');
FILE_SCHEMA(('AUTOMOTIVE_DESIGN { 1 0 10303 214 1 1 1 1 }'));
ENDSEC;
DATA;
#1 = APPLICATION_PROTOCOL_DEFINITION('international standard',
  'automotive_design',2000,#2);
#2 = APPLICATION_CONTEXT(
  'core data for automotive mechanical design processes');
#3 = SHAPE_DEFINITION_REPRESENTATION(#4,#10);
#4 = PRODUCT_DEFINITION_SHAPE('','',#5);
#5 = PRODUCT_DEFINITION('design','',#6,#9);
#6 = PRODUCT_DEFINITION_FORMATION('','',#7);
#7 = PRODUCT('Fluido_90graus','Fluido_90graus','',(#8));
#8 = PRODUCT_CONTEXT('',#2,'mechanical');
#9 = PRODUCT_DEFINITION_CONTEXT('part definition',#2,'design');
#10 = SHAPE_REPRESENTATION('',(#11,#15),#19);
#11 = AXIS2_PLACEMENT_3D('',#12,#13,#14);
#12 = CARTESIAN_POINT('',(0.,0.,0.));
#13 = DIRECTION('',(0.,0.,1.));
#14 = DIRECTION('',(1.,0.,-0.));
#15 = AXIS2_PLACEMENT_3D('',#16,#17,#18);
#16 = CARTESIAN_POINT('',(0.,0.,0.));
#17 = DIRECTION('',(0.,0.,1.));
#18 = DIRECTION('',(1.,0.,-0.));
#19 = ( GEOMETRIC_REPRESENTATION_CONTEXT(3) 
GLOBAL_UNCERTAINTY_ASSIGNED_CONTEXT((#23)) GLOBAL_UNIT_ASSIGNED_CONTEXT(
(#20,#21,#22)) REPRESENTATION_CONTEXT('Context #1',
  '3D Context with UNIT and UNCERTAINTY') );
#20 = ( LENGTH_UNIT() NAMED_UNIT(*) SI_UNIT($,.METRE.) );
#21 = ( NAMED_UNIT(*) PLANE_ANGLE_UNIT() SI_UNIT($,.RADIAN.) );
#22 = ( NAMED_UNIT(*) SI_UNIT($,.STERADIAN.) SOLID_ANGLE_UNIT() );
#23 = UNCERTAINTY_MEASURE_WITH_UNIT(LENGTH_MEASURE(1.E-07),#20,
  'distance_accuracy_value','confusion accuracy');
#24 = PRODUCT_RELATED_PRODUCT_CATEGORY('part',$,(#7));
#25 = SHAPE_DEFINITION_REPRESENTATION(#26,#32);
#26 = PRODUCT_DEFINITION_SHAPE('','',#27);
#27 = PRODUCT_DEFINITION('design','',#28,#31);
#28 = PRODUCT_DEFINITION_FORMATION('','',#29);
#29 = PRODUCT('Fluido','Fluido','',(#30));
#30 = PRODUCT_CONTEXT('',#2,'mechanical');
#31 = PRODUCT_DEFINITION_CONTEXT('part definition',#2,'design');
#32 = ADVANCED_BREP_SHAPE_REPRESENTATION('',(#11,#33),#1238);
#33 = MANIFOLD_SOLID_BREP('',#34);
#34 = CLOSED_SHELL('',(#35,#429,#433,#437,#776,#1105,#1205));
#35 = ADVANCED_FACE('',(#36,#123,#276),#50,.T.);
#36 = FACE_BOUND('',#37,.T.);
#37 = EDGE_LOOP('',(#38,#68,#95,#96));
#38 = ORIENTED_EDGE('',*,*,#39,.T.);
#39 = EDGE_CURVE('',#40,#42,#44,.T.);
#40 = VERTEX_POINT('',#41);
#41 = CARTESIAN_POINT('',(-0.5,1.224646799147E-17,5.E-02));
#42 = VERTEX_POINT('',#43);
#43 = CARTESIAN_POINT('',(1.,1.224646799147E-17,5.E-02));
#44 = SEAM_CURVE('',#45,(#49,#61),.PCURVE_S1.);
#45 = LINE('',#46,#47);
#46 = CARTESIAN_POINT('',(-0.5,1.224646799147E-17,5.E-02));
#47 = VECTOR('',#48,1.);
#48 = DIRECTION('',(1.,0.,0.));
#49 = PCURVE('',#50,#55);
#50 = CYLINDRICAL_SURFACE('',#51,5.E-02);
#51 = AXIS2_PLACEMENT_3D('',#52,#53,#54);
#52 = CARTESIAN_POINT('',(-0.5,0.,0.));
#53 = DIRECTION('',(1.,0.,0.));
#54 = DIRECTION('',(-0.,0.,1.));
#55 = DEFINITIONAL_REPRESENTATION('',(#56),#60);
#56 = LINE('',#57,#58);
#57 = CARTESIAN_POINT('',(6.28318530718,-0.));
#58 = VECTOR('',#59,1.);
#59 = DIRECTION('',(0.,1.));
#60 = ( GEOMETRIC_REPRESENTATION_CONTEXT(2) 
PARAMETRIC_REPRESENTATION_CONTEXT() REPRESENTATION_CONTEXT('2D SPACE',''
  ) );
#61 = PCURVE('',#50,#62);
#62 = DEFINITIONAL_REPRESENTATION('',(#63),#67);
#63 = LINE('',#64,#65);
#64 = CARTESIAN_POINT('',(0.,-0.));
#65 = VECTOR('',#66,1.);
#66 = DIRECTION('',(0.,1.));
#67 = ( GEOMETRIC_REPRESENTATION_CONTEXT(2) 
PARAMETRIC_REPRESENTATION_CONTEXT() REPRESENTATION_CONTEXT('2D SPACE',''
  ) );
#68 = ORIENTED_EDGE('',*,*,#69,.F.);
#69 = EDGE_CURVE('',#42,#42,#70,.T.);
#70 = SURFACE_CURVE('',#71,(#76,#83),.PCURVE_S1.);
#71 = CIRCLE('',#72,5.E-02);
#72 = AXIS2_PLACEMENT_3D('',#73,#74,#75);
#73 = CARTESIAN_POINT('',(1.,0.,0.));
#74 = DIRECTION('',(1.,0.,0.));
#75 = DIRECTION('',(-0.,0.,1.));
#76 = PCURVE('',#50,#77);
#77 = DEFINITIONAL_REPRESENTATION('',(#78),#82);
#78 = LINE('',#79,#80);
#79 = CARTESIAN_POINT('',(0.,1.5));
#80 = VECTOR('',#81,1.);
#81 = DIRECTION('',(1.,0.));
#82 = ( GEOMETRIC_REPRESENTATION_CONTEXT(2) 
PARAMETRIC_REPRESENTATION_CONTEXT() REPRESENTATION_CONTEXT('2D SPACE',''
  ) );
#83 = PCURVE('',#84,#89);
#84 = PLANE('',#85);
#85 = AXIS2_PLACEMENT_3D('',#86,#87,#88);
#86 = CARTESIAN_POINT('',(1.,0.,0.));
#87 = DIRECTION('',(1.,0.,0.));
#88 = DIRECTION('',(-0.,0.,1.));
#89 = DEFINITIONAL_REPRESENTATION('',(#90),#94);
#90 = CIRCLE('',#91,5.E-02);
#91 = AXIS2_PLACEMENT_2D('',#92,#93);
#92 = CARTESIAN_POINT('',(0.,0.));
#93 = DIRECTION('',(1.,0.));
#94 = ( GEOMETRIC_REPRESENTATION_CONTEXT(2) 
PARAMETRIC_REPRESENTATION_CONTEXT() REPRESENTATION_CONTEXT('2D SPACE',''
  ) );
#95 = ORIENTED_EDGE('',*,*,#39,.F.);
#96 = ORIENTED_EDGE('',*,*,#97,.T.);
#97 = EDGE_CURVE('',#40,#40,#98,.T.);
#98 = SURFACE_CURVE('',#99,(#104,#111),.PCURVE_S1.);
#99 = CIRCLE('',#100,5.E-02);
#100 = AXIS2_PLACEMENT_3D('',#101,#102,#103);
#101 = CARTESIAN_POINT('',(-0.5,0.,0.));
#102 = DIRECTION('',(1.,0.,0.));
#103 = DIRECTION('',(-0.,0.,1.));
#104 = PCURVE('',#50,#105);
#105 = DEFINITIONAL_REPRESENTATION('',(#106),#110);
#106 = LINE('',#107,#108);
#107 = CARTESIAN_POINT('',(0.,0.));
#108 = VECTOR('',#109,1.);
#109 = DIRECTION('',(1.,0.));
#110 = ( GEOMETRIC_REPRESENTATION_CONTEXT(2) 
PARAMETRIC_REPRESENTATION_CONTEXT() REPRESENTATION_CONTEXT('2D SPACE',''
  ) );
#111 = PCURVE('',#112,#117);
#112 = PLANE('',#113);
#113 = AXIS2_PLACEMENT_3D('',#114,#115,#116);
#114 = CARTESIAN_POINT('',(-0.5,0.,0.));
#115 = DIRECTION('',(1.,0.,0.));
#116 = DIRECTION('',(-0.,0.,1.));
#117 = DEFINITIONAL_REPRESENTATION('',(#118),#122);
#118 = CIRCLE('',#119,5.E-02);
#119 = AXIS2_PLACEMENT_2D('',#120,#121);
#120 = CARTESIAN_POINT('',(0.,0.));
#121 = DIRECTION('',(1.,0.));
#122 = ( GEOMETRIC_REPRESENTATION_CONTEXT(2) 
PARAMETRIC_REPRESENTATION_CONTEXT() REPRESENTATION_CONTEXT('2D SPACE',''
  ) );
#123 = FACE_BOUND('',#124,.T.);
#124 = EDGE_LOOP('',(#125));
#125 = ORIENTED_EDGE('',*,*,#126,.T.);
#126 = EDGE_CURVE('',#127,#127,#129,.T.);
#127 = VERTEX_POINT('',#128);
#128 = CARTESIAN_POINT('',(-1.959434878636E-18,-4.935585071701E-02,
    8.E-03));
#129 = SURFACE_CURVE('',#130,(#175,#223),.PCURVE_S1.);
#130 = B_SPLINE_CURVE_WITH_KNOTS('',8,(#131,#132,#133,#134,#135,#136,
    #137,#138,#139,#140,#141,#142,#143,#144,#145,#146,#147,#148,#149,
    #150,#151,#152,#153,#154,#155,#156,#157,#158,#159,#160,#161,#162,
    #163,#164,#165,#166,#167,#168,#169,#170,#171,#172,#173,#174),
  .UNSPECIFIED.,.T.,.F.,(9,7,7,7,7,7,9),(0.,0.139446999999,
    0.290711047851,0.500652341094,0.639735947188,0.790605806321,1.),
  .UNSPECIFIED.);
#131 = CARTESIAN_POINT('',(-1.734723475977E-18,-4.935585071701E-02,
    8.E-03));
#132 = CARTESIAN_POINT('',(8.83192481735E-04,-4.935585071701E-02,8.E-03)
  );
#133 = CARTESIAN_POINT('',(1.764819183317E-03,-4.937383209112E-02,
    7.888541975783E-03));
#134 = CARTESIAN_POINT('',(2.629239797021E-03,-4.940994971838E-02,
    7.666373094318E-03));
#135 = CARTESIAN_POINT('',(3.460586417668E-03,-4.94620293382E-02,
    7.336583290209E-03));
#136 = CARTESIAN_POINT('',(4.243374203103E-03,-4.952618040107E-02,
    6.904862078398E-03));
#137 = CARTESIAN_POINT('',(4.963112034685E-03,-4.959740891922E-02,
    6.379755366867E-03));
#138 = CARTESIAN_POINT('',(5.606913177773E-03,-4.967023031737E-02,
    5.772922269341E-03));
#139 = CARTESIAN_POINT('',(6.768516456475E-03,-4.981418586606E-02,
    4.368785111835E-03));
#140 = CARTESIAN_POINT('',(7.271613076615E-03,-4.988480284108E-02,
    3.559089185093E-03));
#141 = CARTESIAN_POINT('',(7.660870364966E-03,-4.994464210693E-02,
    2.688605692072E-03));
#142 = CARTESIAN_POINT('',(7.93377292135E-03,-4.998893640042E-02,
    1.769246455985E-03));
#143 = CARTESIAN_POINT('',(8.076681013922E-03,-5.001272522343E-02,
    8.228671232586E-04));
#144 = CARTESIAN_POINT('',(8.095963897651E-03,-5.001548411034E-02,
    -1.315654550236E-04));
#145 = CARTESIAN_POINT('',(7.981904161422E-03,-4.999657690544E-02,
    -1.081113665575E-03));
#146 = CARTESIAN_POINT('',(7.424950095632E-03,-4.991019548285E-02,
    -3.250306533836E-03));
#147 = CARTESIAN_POINT('',(6.861907959805E-03,-4.98252274177E-02,
    -4.469503626413E-03));
#148 = CARTESIAN_POINT('',(6.06597478154E-03,-4.971244248905E-02,
    -5.574176043587E-03));
#149 = CARTESIAN_POINT('',(5.070869579044E-03,-4.958954915689E-02,
    -6.511983258196E-03));
#150 = CARTESIAN_POINT('',(3.919113723493E-03,-4.947825380243E-02,
    -7.2447906268E-03));
#151 = CARTESIAN_POINT('',(2.656669854292E-03,-4.939701071676E-02,
    -7.746076325063E-03));
#152 = CARTESIAN_POINT('',(1.333144696235E-03,-4.935585071701E-02,
    -8.E-03));
#153 = CARTESIAN_POINT('',(-8.831924817348E-04,-4.935585071701E-02,
    -8.E-03));
#154 = CARTESIAN_POINT('',(-1.764819183316E-03,-4.937383209112E-02,
    -7.888541975783E-03));
#155 = CARTESIAN_POINT('',(-2.629239797021E-03,-4.940994971838E-02,
    -7.666373094318E-03));
#156 = CARTESIAN_POINT('',(-3.460586417668E-03,-4.94620293382E-02,
    -7.336583290209E-03));
#157 = CARTESIAN_POINT('',(-4.243374203103E-03,-4.952618040107E-02,
    -6.904862078398E-03));
#158 = CARTESIAN_POINT('',(-4.963112034685E-03,-4.959740891922E-02,
    -6.379755366867E-03));
#159 = CARTESIAN_POINT('',(-5.606913177772E-03,-4.967023031737E-02,
    -5.772922269341E-03));
#160 = CARTESIAN_POINT('',(-6.768516456433E-03,-4.981418586606E-02,
    -4.368785111885E-03));
#161 = CARTESIAN_POINT('',(-7.271613076774E-03,-4.98848028411E-02,
    -3.559089184916E-03));
#162 = CARTESIAN_POINT('',(-7.660870364804E-03,-4.994464210691E-02,
    -2.688605692144E-03));
#163 = CARTESIAN_POINT('',(-7.9337729214E-03,-4.998893640042E-02,
    -1.769246456082E-03));
#164 = CARTESIAN_POINT('',(-8.076681013993E-03,-5.001272522344E-02,
    -8.228671231914E-04));
#165 = CARTESIAN_POINT('',(-8.095963897554E-03,-5.001548411032E-02,
    1.315654552078E-04));
#166 = CARTESIAN_POINT('',(-7.981904161473E-03,-4.999657690544E-02,
    1.081113665375E-03));
#167 = CARTESIAN_POINT('',(-7.42495009561E-03,-4.991019548285E-02,
    3.250306533918E-03));
#168 = CARTESIAN_POINT('',(-6.861907959875E-03,-4.982522741771E-02,
    4.469503626192E-03));
#169 = CARTESIAN_POINT('',(-6.065974781516E-03,-4.971244248904E-02,
    5.574176043768E-03));
#170 = CARTESIAN_POINT('',(-5.070869578933E-03,-4.958954915688E-02,
    6.511983258271E-03));
#171 = CARTESIAN_POINT('',(-3.919113723524E-03,-4.947825380244E-02,
    7.244790626625E-03));
#172 = CARTESIAN_POINT('',(-2.656669854468E-03,-4.939701071676E-02,
    7.74607632513E-03));
#173 = CARTESIAN_POINT('',(-1.333144696094E-03,-4.935585071701E-02,
    8.E-03));
#174 = CARTESIAN_POINT('',(-1.734723475977E-18,-4.935585071701E-02,
    8.E-03));
#175 = PCURVE('',#50,#176);
#176 = DEFINITIONAL_REPRESENTATION('',(#177),#222);
#177 = B_SPLINE_CURVE_WITH_KNOTS('',8,(#178,#179,#180,#181,#182,#183,
    #184,#185,#186,#187,#188,#189,#190,#191,#192,#193,#194,#195,#196,
    #197,#198,#199,#200,#201,#202,#203,#204,#205,#206,#207,#208,#209,
    #210,#211,#212,#213,#214,#215,#216,#217,#218,#219,#220,#221),
  .UNSPECIFIED.,.F.,.F.,(9,7,7,7,7,7,9),(0.,0.139446999999,
    0.290711047851,0.500652341094,0.639735947188,0.790605806321,1.),
  .UNSPECIFIED.);
#178 = CARTESIAN_POINT('',(1.410105673843,0.5));
#179 = CARTESIAN_POINT('',(1.410105673843,0.500883192482));
#180 = CARTESIAN_POINT('',(1.412363676587,0.501764819183));
#181 = CARTESIAN_POINT('',(1.416865462299,0.502629239797));
#182 = CARTESIAN_POINT('',(1.423542761836,0.503460586418));
#183 = CARTESIAN_POINT('',(1.432271129247,0.504243374203));
#184 = CARTESIAN_POINT('',(1.442867814339,0.504963112035));
#185 = CARTESIAN_POINT('',(1.455089635241,0.505606913178));
#186 = CARTESIAN_POINT('',(1.483319579322,0.506768516456));
#187 = CARTESIAN_POINT('',(1.499573074603,0.507271613077));
#188 = CARTESIAN_POINT('',(1.517018996573,0.507660870365));
#189 = CARTESIAN_POINT('',(1.535419011809,0.507933772921));
#190 = CARTESIAN_POINT('',(1.554343108211,0.508076681014));
#191 = CARTESIAN_POINT('',(1.573423762992,0.508095963898));
#192 = CARTESIAN_POINT('',(1.592414707791,0.507981904161));
#193 = CARTESIAN_POINT('',(1.63583295027,0.507424950096));
#194 = CARTESIAN_POINT('',(1.660265283411,0.50686190796));
#195 = CARTESIAN_POINT('',(1.682455070536,0.506065974782));
#196 = CARTESIAN_POINT('',(1.701362071631,0.505070869579));
#197 = CARTESIAN_POINT('',(1.716185655021,0.503919113723));
#198 = CARTESIAN_POINT('',(1.72634224735,0.502656669854));
#199 = CARTESIAN_POINT('',(1.731486979747,0.501333144696));
#200 = CARTESIAN_POINT('',(1.731486979747,0.499116807518));
#201 = CARTESIAN_POINT('',(1.729228977003,0.498235180817));
#202 = CARTESIAN_POINT('',(1.724727191291,0.497370760203));
#203 = CARTESIAN_POINT('',(1.718049891754,0.496539413582));
#204 = CARTESIAN_POINT('',(1.709321524343,0.495756625797));
#205 = CARTESIAN_POINT('',(1.69872483925,0.495036887965));
#206 = CARTESIAN_POINT('',(1.686503018349,0.494393086822));
#207 = CARTESIAN_POINT('',(1.658273074268,0.493231483544));
#208 = CARTESIAN_POINT('',(1.642019578983,0.492728386923));
#209 = CARTESIAN_POINT('',(1.624573657018,0.492339129635));
#210 = CARTESIAN_POINT('',(1.606173641783,0.492066227079));
#211 = CARTESIAN_POINT('',(1.587249545378,0.491923318986));
#212 = CARTESIAN_POINT('',(1.568168890594,0.491904036102));
#213 = CARTESIAN_POINT('',(1.549177945803,0.492018095839));
#214 = CARTESIAN_POINT('',(1.505759703318,0.492575049904));
#215 = CARTESIAN_POINT('',(1.481327370183,0.49313809204));
#216 = CARTESIAN_POINT('',(1.45913758305,0.493934025218));
#217 = CARTESIAN_POINT('',(1.440230581957,0.494929130421));
#218 = CARTESIAN_POINT('',(1.425406998573,0.496080886276));
#219 = CARTESIAN_POINT('',(1.415250406239,0.497343330146));
#220 = CARTESIAN_POINT('',(1.410105673843,0.498666855304));
#221 = CARTESIAN_POINT('',(1.410105673843,0.5));
#222 = ( GEOMETRIC_REPRESENTATION_CONTEXT(2) 
PARAMETRIC_REPRESENTATION_CONTEXT() REPRESENTATION_CONTEXT('2D SPACE',''
  ) );
#223 = PCURVE('',#224,#229);
#224 = CYLINDRICAL_SURFACE('',#225,8.E-03);
#225 = AXIS2_PLACEMENT_3D('',#226,#227,#228);
#226 = CARTESIAN_POINT('',(0.,-7.5E-02,0.));
#227 = DIRECTION('',(0.,1.,0.));
#228 = DIRECTION('',(0.,-0.,1.));
#229 = DEFINITIONAL_REPRESENTATION('',(#230),#275);
#230 = B_SPLINE_CURVE_WITH_KNOTS('',8,(#231,#232,#233,#234,#235,#236,
    #237,#238,#239,#240,#241,#242,#243,#244,#245,#246,#247,#248,#249,
    #250,#251,#252,#253,#254,#255,#256,#257,#258,#259,#260,#261,#262,
    #263,#264,#265,#266,#267,#268,#269,#270,#271,#272,#273,#274),
  .UNSPECIFIED.,.F.,.F.,(9,7,7,7,7,7,9),(0.,0.139446999999,
    0.290711047851,0.500652341094,0.639735947188,0.790605806321,1.),
  .UNSPECIFIED.);
#231 = CARTESIAN_POINT('',(0.,2.564414928299E-02));
#232 = CARTESIAN_POINT('',(0.110399060217,2.564414928299E-02));
#233 = CARTESIAN_POINT('',(0.220615912632,2.562616790888E-02));
#234 = CARTESIAN_POINT('',(0.330705046937,2.559005028162E-02));
#235 = CARTESIAN_POINT('',(0.440728528652,2.55379706618E-02));
#236 = CARTESIAN_POINT('',(0.550719812496,2.547381959893E-02));
#237 = CARTESIAN_POINT('',(0.660647555773,2.540259108078E-02));
#238 = CARTESIAN_POINT('',(0.770379431744,2.532976968263E-02));
#239 = CARTESIAN_POINT('',(0.998171940612,2.518581413394E-02));
#240 = CARTESIAN_POINT('',(1.116235797034,2.511519715892E-02));
#241 = CARTESIAN_POINT('',(1.233671470228,2.505535789307E-02));
#242 = CARTESIAN_POINT('',(1.351353398392,2.501106359958E-02));
#243 = CARTESIAN_POINT('',(1.468926628757,2.498727477657E-02));
#244 = CARTESIAN_POINT('',(1.586387935408,2.498451588966E-02));
#245 = CARTESIAN_POINT('',(1.704889944892,2.500342309456E-02));
#246 = CARTESIAN_POINT('',(1.984834011044,2.508980451715E-02));
#247 = CARTESIAN_POINT('',(2.149941325192,2.51747725823E-02));
#248 = CARTESIAN_POINT('',(2.31503082148,2.528755751095E-02));
#249 = CARTESIAN_POINT('',(2.479920127968,2.541045084311E-02));
#250 = CARTESIAN_POINT('',(2.644685798861,2.552174619757E-02));
#251 = CARTESIAN_POINT('',(2.809497032289,2.560298928324E-02));
#252 = CARTESIAN_POINT('',(2.97494956656,2.564414928299E-02));
#253 = CARTESIAN_POINT('',(3.251991713807,2.564414928299E-02));
#254 = CARTESIAN_POINT('',(3.362208566222,2.562616790888E-02));
#255 = CARTESIAN_POINT('',(3.472297700527,2.559005028162E-02));
#256 = CARTESIAN_POINT('',(3.582321182241,2.55379706618E-02));
#257 = CARTESIAN_POINT('',(3.692312466086,2.547381959893E-02));
#258 = CARTESIAN_POINT('',(3.802240209363,2.540259108078E-02));
#259 = CARTESIAN_POINT('',(3.911972085333,2.532976968263E-02));
#260 = CARTESIAN_POINT('',(4.139764594194,2.518581413394E-02));
#261 = CARTESIAN_POINT('',(4.257828450653,2.51151971589E-02));
#262 = CARTESIAN_POINT('',(4.375264123799,2.505535789309E-02));
#263 = CARTESIAN_POINT('',(4.492946051979,2.501106359958E-02));
#264 = CARTESIAN_POINT('',(4.61051928235,2.498727477656E-02));
#265 = CARTESIAN_POINT('',(4.727980589023,2.498451588968E-02));
#266 = CARTESIAN_POINT('',(4.846482598456,2.500342309456E-02));
#267 = CARTESIAN_POINT('',(5.126426664644,2.508980451715E-02));
#268 = CARTESIAN_POINT('',(5.291533978755,2.517477258229E-02));
#269 = CARTESIAN_POINT('',(5.456623475086,2.528755751096E-02));
#270 = CARTESIAN_POINT('',(5.621512781579,2.541045084312E-02));
#271 = CARTESIAN_POINT('',(5.786278452434,2.552174619756E-02));
#272 = CARTESIAN_POINT('',(5.951089685862,2.560298928324E-02));
#273 = CARTESIAN_POINT('',(6.116542220168,2.564414928299E-02));
#274 = CARTESIAN_POINT('',(6.28318530718,2.564414928299E-02));
#275 = ( GEOMETRIC_REPRESENTATION_CONTEXT(2) 
PARAMETRIC_REPRESENTATION_CONTEXT() REPRESENTATION_CONTEXT('2D SPACE',''
  ) );
#276 = FACE_BOUND('',#277,.T.);
#277 = EDGE_LOOP('',(#278));
#278 = ORIENTED_EDGE('',*,*,#279,.F.);
#279 = EDGE_CURVE('',#280,#280,#282,.T.);
#280 = VERTEX_POINT('',#281);
#281 = CARTESIAN_POINT('',(-1.959434878636E-18,4.935585071701E-02,8.E-03
    ));
#282 = SURFACE_CURVE('',#283,(#328,#376),.PCURVE_S1.);
#283 = B_SPLINE_CURVE_WITH_KNOTS('',8,(#284,#285,#286,#287,#288,#289,
    #290,#291,#292,#293,#294,#295,#296,#297,#298,#299,#300,#301,#302,
    #303,#304,#305,#306,#307,#308,#309,#310,#311,#312,#313,#314,#315,
    #316,#317,#318,#319,#320,#321,#322,#323,#324,#325,#326,#327),
  .UNSPECIFIED.,.T.,.F.,(9,7,7,7,7,7,9),(0.,0.139447002607,
    0.290711053258,0.500652318662,0.639735931298,0.790605797263,1.),
  .UNSPECIFIED.);
#284 = CARTESIAN_POINT('',(-1.734723475977E-18,4.935585071701E-02,8.E-03
    ));
#285 = CARTESIAN_POINT('',(8.831924817347E-04,4.935585071701E-02,8.E-03)
  );
#286 = CARTESIAN_POINT('',(1.764819183317E-03,4.937383209112E-02,
    7.888541975783E-03));
#287 = CARTESIAN_POINT('',(2.629239797022E-03,4.940994971838E-02,
    7.666373094318E-03));
#288 = CARTESIAN_POINT('',(3.460586417668E-03,4.94620293382E-02,
    7.336583290209E-03));
#289 = CARTESIAN_POINT('',(4.243374203103E-03,4.952618040107E-02,
    6.904862078398E-03));
#290 = CARTESIAN_POINT('',(4.963112034685E-03,4.959740891922E-02,
    6.379755366867E-03));
#291 = CARTESIAN_POINT('',(5.606913177772E-03,4.967023031737E-02,
    5.772922269341E-03));
#292 = CARTESIAN_POINT('',(6.768516456353E-03,4.981418586605E-02,
    4.368785111982E-03));
#293 = CARTESIAN_POINT('',(7.271613076899E-03,4.988480284111E-02,
    3.559089184789E-03));
#294 = CARTESIAN_POINT('',(7.660870364658E-03,4.99446421069E-02,
    2.688605692313E-03));
#295 = CARTESIAN_POINT('',(7.93377292159E-03,4.998893640045E-02,
    1.769246455808E-03));
#296 = CARTESIAN_POINT('',(8.076681013762E-03,5.001272522341E-02,
    8.228671233616E-04));
#297 = CARTESIAN_POINT('',(8.095963897742E-03,5.001548411035E-02,
    -1.315654549355E-04));
#298 = CARTESIAN_POINT('',(7.981904161382E-03,4.999657690543E-02,
    -1.081113665732E-03));
#299 = CARTESIAN_POINT('',(7.424950144601E-03,4.991019549045E-02,
    -3.250306343114E-03));
#300 = CARTESIAN_POINT('',(6.86190765745E-03,4.98252273945E-02,
    -4.46950408166E-03));
#301 = CARTESIAN_POINT('',(6.06597528501E-03,4.9712442512E-02,
    -5.574175693076E-03));
#302 = CARTESIAN_POINT('',(5.070869442382E-03,4.958954916178E-02,
    -6.51198312808E-03));
#303 = CARTESIAN_POINT('',(3.919113225553E-03,4.947825377905E-02,
    -7.244790985305E-03));
#304 = CARTESIAN_POINT('',(2.656670454927E-03,4.939701072903E-02,
    -7.746076156603E-03));
#305 = CARTESIAN_POINT('',(1.333144456758E-03,4.935585071701E-02,-8.E-03
    ));
#306 = CARTESIAN_POINT('',(-8.831924817312E-04,4.935585071701E-02,
    -8.E-03));
#307 = CARTESIAN_POINT('',(-1.764819183314E-03,4.937383209112E-02,
    -7.888541975784E-03));
#308 = CARTESIAN_POINT('',(-2.629239797022E-03,4.940994971838E-02,
    -7.666373094319E-03));
#309 = CARTESIAN_POINT('',(-3.46058641767E-03,4.94620293382E-02,
    -7.336583290208E-03));
#310 = CARTESIAN_POINT('',(-4.243374203104E-03,4.952618040107E-02,
    -6.904862078396E-03));
#311 = CARTESIAN_POINT('',(-4.963112034685E-03,4.959740891922E-02,
    -6.379755366866E-03));
#312 = CARTESIAN_POINT('',(-5.606913177771E-03,4.967023031737E-02,
    -5.772922269343E-03));
#313 = CARTESIAN_POINT('',(-6.768516455383E-03,4.981418586593E-02,
    -4.368785113155E-03));
#314 = CARTESIAN_POINT('',(-7.271613078304E-03,4.988480284126E-02,
    -3.559089183912E-03));
#315 = CARTESIAN_POINT('',(-7.660870365352E-03,4.994464210709E-02,
    -2.688605689074E-03));
#316 = CARTESIAN_POINT('',(-7.933772918417E-03,4.998893639989E-02,
    -1.769246460123E-03));
#317 = CARTESIAN_POINT('',(-8.076681017034E-03,5.001272522394E-02,
    -8.228671247465E-04));
#318 = CARTESIAN_POINT('',(-8.095963895873E-03,5.001548411005E-02,
    1.315654595157E-04));
#319 = CARTESIAN_POINT('',(-7.981904161959E-03,4.999657690552E-02,
    1.081113663484E-03));
#320 = CARTESIAN_POINT('',(-7.424950095595E-03,4.991019548285E-02,
    3.250306533978E-03));
#321 = CARTESIAN_POINT('',(-6.861907959868E-03,4.982522741771E-02,
    4.469503626122E-03));
#322 = CARTESIAN_POINT('',(-6.065974781581E-03,4.971244248905E-02,
    5.574176043743E-03));
#323 = CARTESIAN_POINT('',(-5.070869578927E-03,4.958954915688E-02,
    6.511983258312E-03));
#324 = CARTESIAN_POINT('',(-3.919113723449E-03,4.947825380243E-02,
    7.244790626647E-03));
#325 = CARTESIAN_POINT('',(-2.656669854474E-03,4.939701071676E-02,
    7.74607632511E-03));
#326 = CARTESIAN_POINT('',(-1.333144696134E-03,4.935585071701E-02,8.E-03
    ));
#327 = CARTESIAN_POINT('',(-1.734723475977E-18,4.935585071701E-02,8.E-03
    ));
#328 = PCURVE('',#50,#329);
#329 = DEFINITIONAL_REPRESENTATION('',(#330),#375);
#330 = B_SPLINE_CURVE_WITH_KNOTS('',8,(#331,#332,#333,#334,#335,#336,
    #337,#338,#339,#340,#341,#342,#343,#344,#345,#346,#347,#348,#349,
    #350,#351,#352,#353,#354,#355,#356,#357,#358,#359,#360,#361,#362,
    #363,#364,#365,#366,#367,#368,#369,#370,#371,#372,#373,#374),
  .UNSPECIFIED.,.T.,.F.,(9,7,7,7,7,7,9),(0.,0.139447002607,
    0.290711053258,0.500652318662,0.639735931298,0.790605797263,1.),
  .UNSPECIFIED.);
#331 = CARTESIAN_POINT('',(4.873079633337,0.5));
#332 = CARTESIAN_POINT('',(4.873079633337,0.500883192482));
#333 = CARTESIAN_POINT('',(4.870821630593,0.501764819183));
#334 = CARTESIAN_POINT('',(4.86631984488,0.502629239797));
#335 = CARTESIAN_POINT('',(4.859642545343,0.503460586418));
#336 = CARTESIAN_POINT('',(4.850914177932,0.504243374203));
#337 = CARTESIAN_POINT('',(4.84031749284,0.504963112035));
#338 = CARTESIAN_POINT('',(4.828095671938,0.505606913178));
#339 = CARTESIAN_POINT('',(4.79986572786,0.506768516456));
#340 = CARTESIAN_POINT('',(4.78361223257,0.507271613077));
#341 = CARTESIAN_POINT('',(4.766166310612,0.507660870365));
#342 = CARTESIAN_POINT('',(4.747766295367,0.507933772922));
#343 = CARTESIAN_POINT('',(4.728842198971,0.508076681014));
#344 = CARTESIAN_POINT('',(4.709761544189,0.508095963898));
#345 = CARTESIAN_POINT('',(4.690770599385,0.507981904161));
#346 = CARTESIAN_POINT('',(4.647352360727,0.507424950145));
#347 = CARTESIAN_POINT('',(4.622920014648,0.506861907657));
#348 = CARTESIAN_POINT('',(4.600730243674,0.506065975285));
#349 = CARTESIAN_POINT('',(4.581823238152,0.505070869442));
#350 = CARTESIAN_POINT('',(4.566999644968,0.503919113226));
#351 = CARTESIAN_POINT('',(4.556843063211,0.502656670455));
#352 = CARTESIAN_POINT('',(4.551698327433,0.501333144457));
#353 = CARTESIAN_POINT('',(4.551698327433,0.499116807518));
#354 = CARTESIAN_POINT('',(4.553956330177,0.498235180817));
#355 = CARTESIAN_POINT('',(4.558458115889,0.497370760203));
#356 = CARTESIAN_POINT('',(4.565135415426,0.496539413582));
#357 = CARTESIAN_POINT('',(4.573863782837,0.495756625797));
#358 = CARTESIAN_POINT('',(4.584460467929,0.495036887965));
#359 = CARTESIAN_POINT('',(4.596682288831,0.494393086822));
#360 = CARTESIAN_POINT('',(4.624912232886,0.493231483545));
#361 = CARTESIAN_POINT('',(4.641165728217,0.492728386922));
#362 = CARTESIAN_POINT('',(4.658611650222,0.492339129635));
#363 = CARTESIAN_POINT('',(4.677011665316,0.492066227082));
#364 = CARTESIAN_POINT('',(4.695935761771,0.491923318983));
#365 = CARTESIAN_POINT('',(4.715016416672,0.491904036104));
#366 = CARTESIAN_POINT('',(4.734007361339,0.492018095838));
#367 = CARTESIAN_POINT('',(4.777425603863,0.492575049904));
#368 = CARTESIAN_POINT('',(4.801857936995,0.49313809204));
#369 = CARTESIAN_POINT('',(4.824047724129,0.493934025218));
#370 = CARTESIAN_POINT('',(4.842954725223,0.494929130421));
#371 = CARTESIAN_POINT('',(4.857778308608,0.496080886277));
#372 = CARTESIAN_POINT('',(4.86793490094,0.497343330146));
#373 = CARTESIAN_POINT('',(4.873079633337,0.498666855304));
#374 = CARTESIAN_POINT('',(4.873079633337,0.5));
#375 = ( GEOMETRIC_REPRESENTATION_CONTEXT(2) 
PARAMETRIC_REPRESENTATION_CONTEXT() REPRESENTATION_CONTEXT('2D SPACE',''
  ) );
#376 = PCURVE('',#377,#382);
#377 = CYLINDRICAL_SURFACE('',#378,8.E-03);
#378 = AXIS2_PLACEMENT_3D('',#379,#380,#381);
#379 = CARTESIAN_POINT('',(0.,-7.5E-02,0.));
#380 = DIRECTION('',(0.,1.,0.));
#381 = DIRECTION('',(0.,-0.,1.));
#382 = DEFINITIONAL_REPRESENTATION('',(#383),#428);
#383 = B_SPLINE_CURVE_WITH_KNOTS('',8,(#384,#385,#386,#387,#388,#389,
    #390,#391,#392,#393,#394,#395,#396,#397,#398,#399,#400,#401,#402,
    #403,#404,#405,#406,#407,#408,#409,#410,#411,#412,#413,#414,#415,
    #416,#417,#418,#419,#420,#421,#422,#423,#424,#425,#426,#427),
  .UNSPECIFIED.,.F.,.F.,(9,7,7,7,7,7,9),(0.,0.139447002607,
    0.290711053258,0.500652318662,0.639735931298,0.790605797263,1.),
  .UNSPECIFIED.);
#384 = CARTESIAN_POINT('',(0.,0.124355850717));
#385 = CARTESIAN_POINT('',(0.110399060217,0.124355850717));
#386 = CARTESIAN_POINT('',(0.220615912632,0.124373832091));
#387 = CARTESIAN_POINT('',(0.330705046937,0.124409949718));
#388 = CARTESIAN_POINT('',(0.440728528652,0.124462029338));
#389 = CARTESIAN_POINT('',(0.550719812496,0.124526180401));
#390 = CARTESIAN_POINT('',(0.660647555773,0.124597408919));
#391 = CARTESIAN_POINT('',(0.770379431744,0.124670230317));
#392 = CARTESIAN_POINT('',(0.998171940588,0.124814185866));
#393 = CARTESIAN_POINT('',(1.116235797086,0.124884802841));
#394 = CARTESIAN_POINT('',(1.233671470182,0.124944642107));
#395 = CARTESIAN_POINT('',(1.351353398426,0.1249889364));
#396 = CARTESIAN_POINT('',(1.46892662874,0.125012725223));
#397 = CARTESIAN_POINT('',(1.586387935397,0.12501548411));
#398 = CARTESIAN_POINT('',(1.704889944912,0.124996576905));
#399 = CARTESIAN_POINT('',(1.98483398643,0.12491019549));
#400 = CARTESIAN_POINT('',(2.149941403986,0.124825227395));
#401 = CARTESIAN_POINT('',(2.315030730174,0.124712442512));
#402 = CARTESIAN_POINT('',(2.479920132191,0.124589549162));
#403 = CARTESIAN_POINT('',(2.644685890155,0.124478253779));
#404 = CARTESIAN_POINT('',(2.809496944435,0.124397010729));
#405 = CARTESIAN_POINT('',(2.974949596495,0.124355850717));
#406 = CARTESIAN_POINT('',(3.251991713806,0.124355850717));
#407 = CARTESIAN_POINT('',(3.362208566221,0.124373832091));
#408 = CARTESIAN_POINT('',(3.472297700527,0.124409949718));
#409 = CARTESIAN_POINT('',(3.582321182242,0.124462029338));
#410 = CARTESIAN_POINT('',(3.692312466086,0.124526180401));
#411 = CARTESIAN_POINT('',(3.802240209363,0.124597408919));
#412 = CARTESIAN_POINT('',(3.911972085333,0.124670230317));
#413 = CARTESIAN_POINT('',(4.139764593988,0.124814185866));
#414 = CARTESIAN_POINT('',(4.257828450879,0.124884802841));
#415 = CARTESIAN_POINT('',(4.375264124084,0.124944642107));
#416 = CARTESIAN_POINT('',(4.492946051538,0.1249889364));
#417 = CARTESIAN_POINT('',(4.610519282116,0.125012725224));
#418 = CARTESIAN_POINT('',(4.727980589584,0.12501548411));
#419 = CARTESIAN_POINT('',(4.846482598212,0.124996576906));
#420 = CARTESIAN_POINT('',(5.126426664652,0.124910195483));
#421 = CARTESIAN_POINT('',(5.291533978747,0.124825227418));
#422 = CARTESIAN_POINT('',(5.456623475079,0.124712442489));
#423 = CARTESIAN_POINT('',(5.621512781583,0.124589549157));
#424 = CARTESIAN_POINT('',(5.786278452442,0.124478253802));
#425 = CARTESIAN_POINT('',(5.951089685861,0.124397010717));
#426 = CARTESIAN_POINT('',(6.116542220163,0.124355850717));
#427 = CARTESIAN_POINT('',(6.28318530718,0.124355850717));
#428 = ( GEOMETRIC_REPRESENTATION_CONTEXT(2) 
PARAMETRIC_REPRESENTATION_CONTEXT() REPRESENTATION_CONTEXT('2D SPACE',''
  ) );
#429 = ADVANCED_FACE('',(#430),#112,.F.);
#430 = FACE_BOUND('',#431,.T.);
#431 = EDGE_LOOP('',(#432));
#432 = ORIENTED_EDGE('',*,*,#97,.F.);
#433 = ADVANCED_FACE('',(#434),#84,.T.);
#434 = FACE_BOUND('',#435,.T.);
#435 = EDGE_LOOP('',(#436));
#436 = ORIENTED_EDGE('',*,*,#69,.T.);
#437 = ADVANCED_FACE('',(#438),#224,.F.);
#438 = FACE_BOUND('',#439,.F.);
#439 = EDGE_LOOP('',(#440,#521,#542,#543,#544,#627));
#440 = ORIENTED_EDGE('',*,*,#441,.F.);
#441 = EDGE_CURVE('',#442,#444,#446,.T.);
#442 = VERTEX_POINT('',#443);
#443 = CARTESIAN_POINT('',(-1.959434878636E-18,-2.227554713133E-02,
    8.E-03));
#444 = VERTEX_POINT('',#445);
#445 = CARTESIAN_POINT('',(8.E-03,-4.834252786109E-02,0.));
#446 = SURFACE_CURVE('',#447,(#468,#492),.PCURVE_S1.);
#447 = B_SPLINE_CURVE_WITH_KNOTS('',7,(#448,#449,#450,#451,#452,#453,
    #454,#455,#456,#457,#458,#459,#460,#461,#462,#463,#464,#465,#466,
    #467),.UNSPECIFIED.,.F.,.F.,(8,6,6,8),(0.,0.243689326616,
    0.625098876906,1.),.UNSPECIFIED.);
#448 = CARTESIAN_POINT('',(-1.959434878636E-18,-2.227554713133E-02,
    8.E-03));
#449 = CARTESIAN_POINT('',(4.32967901109E-04,-2.227554713133E-02,8.E-03)
  );
#450 = CARTESIAN_POINT('',(8.660935172743E-04,-2.241674587831E-02,
    7.972661610458E-03));
#451 = CARTESIAN_POINT('',(1.296960033642E-03,-2.26993168675E-02,
    7.917951165719E-03));
#452 = CARTESIAN_POINT('',(1.723719866089E-03,-2.311616931357E-02,
    7.836151611467E-03));
#453 = CARTESIAN_POINT('',(2.144372044113E-03,-2.365447633455E-02,
    7.727543069123E-03));
#454 = CARTESIAN_POINT('',(2.556789976022E-03,-2.429903179375E-02,
    7.592780497075E-03));
#455 = CARTESIAN_POINT('',(3.588728768664E-03,-2.618705382355E-02,
    7.181943938694E-03));
#456 = CARTESIAN_POINT('',(4.198317524168E-03,-2.757181684983E-02,
    6.867160363688E-03));
#457 = CARTESIAN_POINT('',(4.778306620587E-03,-2.913583872624E-02,
    6.490124572705E-03));
#458 = CARTESIAN_POINT('',(5.319229780756E-03,-3.081879519423E-02,
    6.054928680437E-03));
#459 = CARTESIAN_POINT('',(5.813268593017E-03,-3.257660694056E-02,
    5.567749979556E-03));
#460 = CARTESIAN_POINT('',(6.254567050845E-03,-3.437557222932E-02,
    5.035269009376E-03));
#461 = CARTESIAN_POINT('',(7.016023601315E-03,-3.797522357776E-02,
    3.902938955951E-03));
#462 = CARTESIAN_POINT('',(7.338085960386E-03,-3.977517276084E-02,
    3.304448034094E-03));
#463 = CARTESIAN_POINT('',(7.600395472274E-03,-4.156682671679E-02,
    2.67526771781E-03));
#464 = CARTESIAN_POINT('',(7.79952373439E-03,-4.333234589878E-02,
    2.022566491515E-03));
#465 = CARTESIAN_POINT('',(7.933128610193E-03,-4.505763484054E-02,
    1.353935113672E-03));
#466 = CARTESIAN_POINT('',(8.E-03,-4.673096270231E-02,6.771589186277E-04
    ));
#467 = CARTESIAN_POINT('',(8.E-03,-4.834252786109E-02,
    -1.193489751472E-15));
#468 = PCURVE('',#224,#469);
#469 = DEFINITIONAL_REPRESENTATION('',(#470),#491);
#470 = B_SPLINE_CURVE_WITH_KNOTS('',7,(#471,#472,#473,#474,#475,#476,
    #477,#478,#479,#480,#481,#482,#483,#484,#485,#486,#487,#488,#489,
    #490),.UNSPECIFIED.,.F.,.F.,(8,6,6,8),(0.,0.243689326616,
    0.625098876906,1.),.UNSPECIFIED.);
#471 = CARTESIAN_POINT('',(0.,5.272445286867E-02));
#472 = CARTESIAN_POINT('',(5.412098763863E-02,5.272445286867E-02));
#473 = CARTESIAN_POINT('',(0.108261632344,5.258325412169E-02));
#474 = CARTESIAN_POINT('',(0.162379189029,5.23006831325E-02));
#475 = CARTESIAN_POINT('',(0.216500843026,5.188383068643E-02));
#476 = CARTESIAN_POINT('',(0.270633383862,5.134552366545E-02));
#477 = CARTESIAN_POINT('',(0.324760306808,5.070096820625E-02));
#478 = CARTESIAN_POINT('',(0.463599487014,4.881294617645E-02));
#479 = CARTESIAN_POINT('',(0.548948252495,4.742818315017E-02));
#480 = CARTESIAN_POINT('',(0.634729794035,4.586416127376E-02));
#481 = CARTESIAN_POINT('',(0.72071941775,4.418120480577E-02));
#482 = CARTESIAN_POINT('',(0.806754516964,4.242339305944E-02));
#483 = CARTESIAN_POINT('',(0.892769585937,4.062442777068E-02));
#484 = CARTESIAN_POINT('',(1.063337911146,3.702477642224E-02));
#485 = CARTESIAN_POINT('',(1.147883057215,3.522482723916E-02));
#486 = CARTESIAN_POINT('',(1.232430543567,3.343317328321E-02));
#487 = CARTESIAN_POINT('',(1.316985148673,3.166765410122E-02));
#488 = CARTESIAN_POINT('',(1.401554360479,2.994236515946E-02));
#489 = CARTESIAN_POINT('',(1.486151461966,2.826903729769E-02));
#490 = CARTESIAN_POINT('',(1.570796326795,2.665747213891E-02));
#491 = ( GEOMETRIC_REPRESENTATION_CONTEXT(2) 
PARAMETRIC_REPRESENTATION_CONTEXT() REPRESENTATION_CONTEXT('2D SPACE',''
  ) );
#492 = PCURVE('',#493,#498);
#493 = SPHERICAL_SURFACE('',#494,0.12505);
#494 = AXIS2_PLACEMENT_3D('',#495,#496,#497);
#495 = CARTESIAN_POINT('',(0.,0.,-0.11505));
#496 = DIRECTION('',(0.,0.,1.));
#497 = DIRECTION('',(1.,0.,0.));
#498 = DEFINITIONAL_REPRESENTATION('',(#499),#520);
#499 = B_SPLINE_CURVE_WITH_KNOTS('',7,(#500,#501,#502,#503,#504,#505,
    #506,#507,#508,#509,#510,#511,#512,#513,#514,#515,#516,#517,#518,
    #519),.UNSPECIFIED.,.F.,.F.,(8,6,6,8),(0.,0.243689326616,
    0.625098876906,1.),.UNSPECIFIED.);
#500 = CARTESIAN_POINT('',(4.712388980385,1.391707422175));
#501 = CARTESIAN_POINT('',(4.731825894709,1.391707422175));
#502 = CARTESIAN_POINT('',(4.751269361503,1.390480145792));
#503 = CARTESIAN_POINT('',(4.770073460682,1.388024050395));
#504 = CARTESIAN_POINT('',(4.787596673824,1.38440427512));
#505 = CARTESIAN_POINT('',(4.803479579553,1.379739043608));
#506 = CARTESIAN_POINT('',(4.817620010643,1.374164489121));
#507 = CARTESIAN_POINT('',(4.849480758744,1.357867486286));
#508 = CARTESIAN_POINT('',(4.864856879595,1.3459411071));
#509 = CARTESIAN_POINT('',(4.876089745691,1.332506808462));
#510 = CARTESIAN_POINT('',(4.884020831453,1.318084061579));
#511 = CARTESIAN_POINT('',(4.889305093897,1.303039903061));
#512 = CARTESIAN_POINT('',(4.892440550469,1.287655645679));
#513 = CARTESIAN_POINT('',(4.895144868923,1.256881385752));
#514 = CARTESIAN_POINT('',(4.894773101973,1.241497588987));
#515 = CARTESIAN_POINT('',(4.893045746238,1.226182453194));
#516 = CARTESIAN_POINT('',(4.890197842924,1.211083081839));
#517 = CARTESIAN_POINT('',(4.886393666972,1.196316543883));
#518 = CARTESIAN_POINT('',(4.88175809521,1.181981679814));
#519 = CARTESIAN_POINT('',(4.8763884487,1.168162110046));
#520 = ( GEOMETRIC_REPRESENTATION_CONTEXT(2) 
PARAMETRIC_REPRESENTATION_CONTEXT() REPRESENTATION_CONTEXT('2D SPACE',''
  ) );
#521 = ORIENTED_EDGE('',*,*,#522,.F.);
#522 = EDGE_CURVE('',#127,#442,#523,.T.);
#523 = SEAM_CURVE('',#524,(#528,#535),.PCURVE_S1.);
#524 = LINE('',#525,#526);
#525 = CARTESIAN_POINT('',(-1.959434878636E-18,-7.5E-02,8.E-03));
#526 = VECTOR('',#527,1.);
#527 = DIRECTION('',(0.,1.,0.));
#528 = PCURVE('',#224,#529);
#529 = DEFINITIONAL_REPRESENTATION('',(#530),#534);
#530 = LINE('',#531,#532);
#531 = CARTESIAN_POINT('',(6.28318530718,-0.));
#532 = VECTOR('',#533,1.);
#533 = DIRECTION('',(0.,1.));
#534 = ( GEOMETRIC_REPRESENTATION_CONTEXT(2) 
PARAMETRIC_REPRESENTATION_CONTEXT() REPRESENTATION_CONTEXT('2D SPACE',''
  ) );
#535 = PCURVE('',#224,#536);
#536 = DEFINITIONAL_REPRESENTATION('',(#537),#541);
#537 = LINE('',#538,#539);
#538 = CARTESIAN_POINT('',(0.,-0.));
#539 = VECTOR('',#540,1.);
#540 = DIRECTION('',(0.,1.));
#541 = ( GEOMETRIC_REPRESENTATION_CONTEXT(2) 
PARAMETRIC_REPRESENTATION_CONTEXT() REPRESENTATION_CONTEXT('2D SPACE',''
  ) );
#542 = ORIENTED_EDGE('',*,*,#126,.T.);
#543 = ORIENTED_EDGE('',*,*,#522,.T.);
#544 = ORIENTED_EDGE('',*,*,#545,.F.);
#545 = EDGE_CURVE('',#546,#442,#548,.T.);
#546 = VERTEX_POINT('',#547);
#547 = CARTESIAN_POINT('',(-8.E-03,-4.834252786109E-02,0.));
#548 = SURFACE_CURVE('',#549,(#573,#600),.PCURVE_S1.);
#549 = B_SPLINE_CURVE_WITH_KNOTS('',8,(#550,#551,#552,#553,#554,#555,
    #556,#557,#558,#559,#560,#561,#562,#563,#564,#565,#566,#567,#568,
    #569,#570,#571,#572),.UNSPECIFIED.,.F.,.F.,(9,7,7,9),(0.,
    0.527749802955,0.773417025071,1.),.UNSPECIFIED.);
#550 = CARTESIAN_POINT('',(-8.E-03,-4.834252786109E-02,
    -1.195181372236E-15));
#551 = CARTESIAN_POINT('',(-8.E-03,-4.634878334131E-02,8.3774576267E-04)
  );
#552 = CARTESIAN_POINT('',(-7.899740329563E-03,-4.426329517578E-02,
    1.674552712242E-03));
#553 = CARTESIAN_POINT('',(-7.69961394356E-03,-4.210273800537E-02,
    2.497072106495E-03));
#554 = CARTESIAN_POINT('',(-7.401924377329E-03,-3.988737884011E-02,
    3.291802905701E-03));
#555 = CARTESIAN_POINT('',(-7.011134615535E-03,-3.764355133433E-02,
    4.04536196841E-03));
#556 = CARTESIAN_POINT('',(-6.534103081669E-03,-3.540472372746E-02,
    4.745031858922E-03));
#557 = CARTESIAN_POINT('',(-5.979913400095E-03,-3.321817320219E-02,
    5.379533826355E-03));
#558 = CARTESIAN_POINT('',(-5.070403253845E-03,-3.018711639619E-02,
    6.200195354879E-03));
#559 = CARTESIAN_POINT('',(-4.767161416857E-03,-2.925011579015E-02,
    6.444679590895E-03));
#560 = CARTESIAN_POINT('',(-4.450759825069E-03,-2.834587174013E-02,
    6.671956471761E-03));
#561 = CARTESIAN_POINT('',(-4.122544906314E-03,-2.748229409968E-02,
    6.881073241572E-03));
#562 = CARTESIAN_POINT('',(-3.784016461265E-03,-2.666829966828E-02,
    7.071207834446E-03));
#563 = CARTESIAN_POINT('',(-3.436794640094E-03,-2.591351821285E-02,
    7.241716409898E-03));
#564 = CARTESIAN_POINT('',(-3.082560540521E-03,-2.522763137123E-02,
    7.392162661413E-03));
#565 = CARTESIAN_POINT('',(-2.391314470359E-03,-2.40583112565E-02,
    7.642383388593E-03));
#566 = CARTESIAN_POINT('',(-2.055061337018E-03,-2.356321550775E-02,
    7.745202725364E-03));
#567 = CARTESIAN_POINT('',(-1.715558317389E-03,-2.314100578767E-02,
    7.830579593204E-03));
#568 = CARTESIAN_POINT('',(-1.373955979139E-03,-2.279752812442E-02,
    7.898566800932E-03));
#569 = CARTESIAN_POINT('',(-1.031116120862E-03,-2.253717859126E-02,
    7.949345063539E-03));
#570 = CARTESIAN_POINT('',(-6.876081220202E-04,-2.23627606367E-02,
    7.983113093314E-03));
#571 = CARTESIAN_POINT('',(-3.437936893886E-04,-2.227554713133E-02,
    8.E-03));
#572 = CARTESIAN_POINT('',(-1.734723475977E-18,-2.227554713133E-02,
    8.E-03));
#573 = PCURVE('',#224,#574);
#574 = DEFINITIONAL_REPRESENTATION('',(#575),#599);
#575 = B_SPLINE_CURVE_WITH_KNOTS('',8,(#576,#577,#578,#579,#580,#581,
    #582,#583,#584,#585,#586,#587,#588,#589,#590,#591,#592,#593,#594,
    #595,#596,#597,#598),.UNSPECIFIED.,.F.,.F.,(9,7,7,9),(0.,
    0.527749802955,0.773417025071,1.),.UNSPECIFIED.);
#576 = CARTESIAN_POINT('',(4.712388980385,2.665747213891E-02));
#577 = CARTESIAN_POINT('',(4.817107200718,2.865121665869E-02));
#578 = CARTESIAN_POINT('',(4.921708068748,3.073670482422E-02));
#579 = CARTESIAN_POINT('',(5.026272833764,3.289726199463E-02));
#580 = CARTESIAN_POINT('',(5.130847205548,3.511262115989E-02));
#581 = CARTESIAN_POINT('',(5.235442450878,3.735644866567E-02));
#582 = CARTESIAN_POINT('',(5.340041414395,3.959527627254E-02));
#583 = CARTESIAN_POINT('',(5.444605592162,4.178182679781E-02));
#584 = CARTESIAN_POINT('',(5.597734115108,4.481288360381E-02));
#585 = CARTESIAN_POINT('',(5.64634942353,4.574988420985E-02));
#586 = CARTESIAN_POINT('',(5.694920209192,4.665412825987E-02));
#587 = CARTESIAN_POINT('',(5.743416835964,4.751770590032E-02));
#588 = CARTESIAN_POINT('',(5.791802092691,4.833170033172E-02));
#589 = CARTESIAN_POINT('',(5.840034126605,4.908648178715E-02));
#590 = CARTESIAN_POINT('',(5.888070526625,4.977236862877E-02));
#591 = CARTESIAN_POINT('',(5.979963088027,5.09416887435E-02));
#592 = CARTESIAN_POINT('',(6.023859555421,5.143678449225E-02));
#593 = CARTESIAN_POINT('',(6.067526845022,5.185899421233E-02));
#594 = CARTESIAN_POINT('',(6.110957071116,5.220247187558E-02));
#595 = CARTESIAN_POINT('',(6.154174753063,5.246282140874E-02));
#596 = CARTESIAN_POINT('',(6.197234341836,5.26372393633E-02));
#597 = CARTESIAN_POINT('',(6.240211096006,5.272445286867E-02));
#598 = CARTESIAN_POINT('',(6.28318530718,5.272445286867E-02));
#599 = ( GEOMETRIC_REPRESENTATION_CONTEXT(2) 
PARAMETRIC_REPRESENTATION_CONTEXT() REPRESENTATION_CONTEXT('2D SPACE',''
  ) );
#600 = PCURVE('',#493,#601);
#601 = DEFINITIONAL_REPRESENTATION('',(#602),#626);
#602 = B_SPLINE_CURVE_WITH_KNOTS('',8,(#603,#604,#605,#606,#607,#608,
    #609,#610,#611,#612,#613,#614,#615,#616,#617,#618,#619,#620,#621,
    #622,#623,#624,#625),.UNSPECIFIED.,.F.,.F.,(9,7,7,9),(0.,
    0.527749802955,0.773417025071,1.),.UNSPECIFIED.);
#603 = CARTESIAN_POINT('',(4.54838951207,1.168162110046));
#604 = CARTESIAN_POINT('',(4.54174646494,1.185258962345));
#605 = CARTESIAN_POINT('',(4.53620653491,1.203121056861));
#606 = CARTESIAN_POINT('',(4.531940006727,1.221606128949));
#607 = CARTESIAN_POINT('',(4.529161719593,1.24054391598));
#608 = CARTESIAN_POINT('',(4.528206615984,1.259716109152));
#609 = CARTESIAN_POINT('',(4.529483088084,1.278846945085));
#610 = CARTESIAN_POINT('',(4.533752848215,1.297548215561));
#611 = CARTESIAN_POINT('',(4.545851292857,1.323512300877));
#612 = CARTESIAN_POINT('',(4.550557271993,1.331544910753));
#613 = CARTESIAN_POINT('',(4.556223856503,1.339304166556));
#614 = CARTESIAN_POINT('',(4.562956436121,1.346723165103));
#615 = CARTESIAN_POINT('',(4.570861979192,1.353725673069));
#616 = CARTESIAN_POINT('',(4.580030472586,1.360228299658));
#617 = CARTESIAN_POINT('',(4.590504051508,1.366146033065));
#618 = CARTESIAN_POINT('',(4.613052379495,1.376248014179));
#619 = CARTESIAN_POINT('',(4.624941066149,1.380531849262));
#620 = CARTESIAN_POINT('',(4.63786208304,1.38419079064));
#621 = CARTESIAN_POINT('',(4.651721183461,1.38717157869));
#622 = CARTESIAN_POINT('',(4.666351916283,1.389433323515));
#623 = CARTESIAN_POINT('',(4.681521067814,1.390949394033));
#624 = CARTESIAN_POINT('',(4.696955299346,1.391707422175));
#625 = CARTESIAN_POINT('',(4.712388980385,1.391707422175));
#626 = ( GEOMETRIC_REPRESENTATION_CONTEXT(2) 
PARAMETRIC_REPRESENTATION_CONTEXT() REPRESENTATION_CONTEXT('2D SPACE',''
  ) );
#627 = ORIENTED_EDGE('',*,*,#628,.F.);
#628 = EDGE_CURVE('',#444,#546,#629,.T.);
#629 = SURFACE_CURVE('',#630,(#675,#723),.PCURVE_S1.);
#630 = B_SPLINE_CURVE_WITH_KNOTS('',8,(#631,#632,#633,#634,#635,#636,
    #637,#638,#639,#640,#641,#642,#643,#644,#645,#646,#647,#648,#649,
    #650,#651,#652,#653,#654,#655,#656,#657,#658,#659,#660,#661,#662,
    #663,#664,#665,#666,#667,#668,#669,#670,#671,#672,#673,#674),
  .UNSPECIFIED.,.F.,.F.,(9,7,7,7,7,7,9),(0.,0.268829499244,
    0.389198913058,0.497339180723,0.613215905982,0.808304436891,1.),
  .UNSPECIFIED.);
#631 = CARTESIAN_POINT('',(8.E-03,-4.834252786109E-02,1.096345236817E-15
    ));
#632 = CARTESIAN_POINT('',(8.E-03,-4.631106227584E-02,
    -8.535956684357E-04));
#633 = CARTESIAN_POINT('',(7.895910669185E-03,-4.418445156738E-02,
    -1.706172932407E-03));
#634 = CARTESIAN_POINT('',(7.688166397951E-03,-4.198026761651E-02,
    -2.543650033263E-03));
#635 = CARTESIAN_POINT('',(7.379233915378E-03,-3.971992391449E-02,
    -3.351771668192E-03));
#636 = CARTESIAN_POINT('',(6.973901503837E-03,-3.743154396133E-02,
    -4.116388201799E-03));
#637 = CARTESIAN_POINT('',(6.479562440543E-03,-3.515092598526E-02,
    -4.82406615507E-03));
#638 = CARTESIAN_POINT('',(5.906028766361E-03,-3.292936635016E-02,
    -5.462964526126E-03));
#639 = CARTESIAN_POINT('',(4.977786415784E-03,-2.990245093932E-02,
    -6.274314654934E-03));
#640 = CARTESIAN_POINT('',(4.677198070641E-03,-2.899268678424E-02,
    -6.509465749791E-03));
#641 = CARTESIAN_POINT('',(4.364251949613E-03,-2.811607189544E-02,
    -6.727889596607E-03));
#642 = CARTESIAN_POINT('',(4.040245785358E-03,-2.728023426831E-02,
    -6.928706479908E-03));
#643 = CARTESIAN_POINT('',(3.706614660635E-03,-2.649369198189E-02,
    -7.111165840876E-03));
#644 = CARTESIAN_POINT('',(3.36489686779E-03,-2.576555374061E-02,
    -7.274688495992E-03));
#645 = CARTESIAN_POINT('',(3.016677403136E-03,-2.510489308924E-02,
    -7.418890400822E-03));
#646 = CARTESIAN_POINT('',(2.346221555919E-03,-2.399414346894E-02,
    -7.655616645337E-03));
#647 = CARTESIAN_POINT('',(2.024902786394E-03,-2.352941588346E-02,
    -7.751916979803E-03));
#648 = CARTESIAN_POINT('',(1.700708558459E-03,-2.313156034374E-02,
    -7.832330312143E-03));
#649 = CARTESIAN_POINT('',(1.374624327069E-03,-2.280557741752E-02,
    -7.896906444394E-03));
#650 = CARTESIAN_POINT('',(1.047395961316E-03,-2.25552564862E-02,
    -7.945799151388E-03));
#651 = CARTESIAN_POINT('',(7.195279974344E-04,-2.238306817118E-02,
    -7.979178514968E-03));
#652 = CARTESIAN_POINT('',(3.913494148514E-04,-2.229021414179E-02,
    -7.997160071853E-03));
#653 = CARTESIAN_POINT('',(-2.885354618127E-04,-2.226249726126E-02,
    -8.002526819832E-03));
#654 = CARTESIAN_POINT('',(-6.402842875908E-04,-2.233941299083E-02,
    -7.987630734513E-03));
#655 = CARTESIAN_POINT('',(-9.917539021467E-04,-2.250773083894E-02,
    -7.955083478557E-03));
#656 = CARTESIAN_POINT('',(-1.342577418179E-03,-2.276623482722E-02,
    -7.9047551142E-03));
#657 = CARTESIAN_POINT('',(-1.692167318901E-03,-2.311203927843E-02,
    -7.836432680494E-03));
#658 = CARTESIAN_POINT('',(-2.039616316384E-03,-2.354051241143E-02,
    -7.74991583651E-03));
#659 = CARTESIAN_POINT('',(-2.383698450321E-03,-2.404542790597E-02,
    -7.64514027381E-03));
#660 = CARTESIAN_POINT('',(-3.294164266258E-03,-2.558558276298E-02,
    -7.315565281098E-03));
#661 = CARTESIAN_POINT('',(-3.851522685199E-03,-2.674706661858E-02,
    -7.057745522131E-03));
#662 = CARTESIAN_POINT('',(-4.38860836364E-03,-2.806889367107E-02,
    -6.749793719771E-03));
#663 = CARTESIAN_POINT('',(-4.898910495571E-03,-2.951026241661E-02,
    -6.393843157233E-03));
#664 = CARTESIAN_POINT('',(-5.376378678502E-03,-3.103530307537E-02,
    -5.993375360708E-03));
#665 = CARTESIAN_POINT('',(-5.816114807013E-03,-3.261582390753E-02,
    -5.552612675489E-03));
#666 = CARTESIAN_POINT('',(-6.214132632932E-03,-3.422920333395E-02,
    -5.076117031569E-03));
#667 = CARTESIAN_POINT('',(-6.914267608232E-03,-3.745841472647E-02,
    -4.069659194567E-03));
#668 = CARTESIAN_POINT('',(-7.217948275248E-03,-3.907378254136E-02,
    -3.54074789117E-03));
#669 = CARTESIAN_POINT('',(-7.475288647822E-03,-4.068743845198E-02,
    -2.986098213199E-03));
#670 = CARTESIAN_POINT('',(-7.683780669773E-03,-4.228623263183E-02,
    -2.41044517382E-03));
#671 = CARTESIAN_POINT('',(-7.84149873998E-03,-4.385948269101E-02,
    -1.818797201622E-03));
#672 = CARTESIAN_POINT('',(-7.947134463952E-03,-4.53982318421E-02,
    -1.216336456371E-03));
#673 = CARTESIAN_POINT('',(-8.E-03,-4.689478572075E-02,
    -6.083225967416E-04));
#674 = CARTESIAN_POINT('',(-8.E-03,-4.834252786109E-02,
    1.096345236817E-15));
#675 = PCURVE('',#224,#676);
#676 = DEFINITIONAL_REPRESENTATION('',(#677),#722);
#677 = B_SPLINE_CURVE_WITH_KNOTS('',8,(#678,#679,#680,#681,#682,#683,
    #684,#685,#686,#687,#688,#689,#690,#691,#692,#693,#694,#695,#696,
    #697,#698,#699,#700,#701,#702,#703,#704,#705,#706,#707,#708,#709,
    #710,#711,#712,#713,#714,#715,#716,#717,#718,#719,#720,#721),
  .UNSPECIFIED.,.F.,.F.,(9,7,7,7,7,7,9),(0.,0.268829499244,
    0.389198913058,0.497339180723,0.613215905982,0.808304436891,1.),
  .UNSPECIFIED.);
#678 = CARTESIAN_POINT('',(1.570796326795,2.665747213891E-02));
#679 = CARTESIAN_POINT('',(1.677495785349,2.868893772416E-02));
#680 = CARTESIAN_POINT('',(1.784067943275,3.081554843262E-02));
#681 = CARTESIAN_POINT('',(1.890603628809,3.301973238349E-02));
#682 = CARTESIAN_POINT('',(1.997153412249,3.528007608551E-02));
#683 = CARTESIAN_POINT('',(2.103728349688,3.756845603867E-02));
#684 = CARTESIAN_POINT('',(2.210307198056,3.984907401474E-02));
#685 = CARTESIAN_POINT('',(2.316843602414,4.207063364984E-02));
#686 = CARTESIAN_POINT('',(2.470950043558,4.509754906068E-02));
#687 = CARTESIAN_POINT('',(2.518584458613,4.600731321576E-02));
#688 = CARTESIAN_POINT('',(2.566170653936,4.688392810456E-02));
#689 = CARTESIAN_POINT('',(2.613678768146,4.771976573169E-02));
#690 = CARTESIAN_POINT('',(2.661072465857,4.850630801811E-02));
#691 = CARTESIAN_POINT('',(2.708311855146,4.923444625939E-02));
#692 = CARTESIAN_POINT('',(2.755357332012,4.989510691076E-02));
#693 = CARTESIAN_POINT('',(2.844234912663,5.100585653106E-02));
#694 = CARTESIAN_POINT('',(2.886115980898,5.147058411654E-02));
#695 = CARTESIAN_POINT('',(2.927788443437,5.186843965626E-02));
#696 = CARTESIAN_POINT('',(2.969247039094,5.219442258248E-02));
#697 = CARTESIAN_POINT('',(3.010513374368,5.24447435138E-02));
#698 = CARTESIAN_POINT('',(3.051633866907,5.261693182882E-02));
#699 = CARTESIAN_POINT('',(3.092672616659,5.270978585821E-02));
#700 = CARTESIAN_POINT('',(3.17766087389,5.273750273874E-02));
#701 = CARTESIAN_POINT('',(3.221613348725,5.266058700917E-02));
#702 = CARTESIAN_POINT('',(3.265643220322,5.249226916106E-02));
#703 = CARTESIAN_POINT('',(3.309833103129,5.223376517278E-02));
#704 = CARTESIAN_POINT('',(3.354243558691,5.188796072157E-02));
#705 = CARTESIAN_POINT('',(3.398902548748,5.145948758857E-02));
#706 = CARTESIAN_POINT('',(3.443802417672,5.095457209403E-02));
#707 = CARTESIAN_POINT('',(3.564837515746,4.941441723702E-02));
#708 = CARTESIAN_POINT('',(3.641316726483,4.825293338142E-02));
#709 = CARTESIAN_POINT('',(3.718213196292,4.693110632893E-02));
#710 = CARTESIAN_POINT('',(3.795378468138,4.548973758339E-02));
#711 = CARTESIAN_POINT('',(3.87266645803,4.396469692463E-02));
#712 = CARTESIAN_POINT('',(3.949988050695,4.238417609247E-02));
#713 = CARTESIAN_POINT('',(4.027294433711,4.077079666605E-02));
#714 = CARTESIAN_POINT('',(4.180548020603,3.754158527353E-02));
#715 = CARTESIAN_POINT('',(4.256499021483,3.592621745864E-02));
#716 = CARTESIAN_POINT('',(4.332450783712,3.431256154802E-02));
#717 = CARTESIAN_POINT('',(4.408406283792,3.271376736817E-02));
#718 = CARTESIAN_POINT('',(4.4843694542,3.114051730899E-02));
#719 = CARTESIAN_POINT('',(4.560346852506,2.96017681579E-02));
#720 = CARTESIAN_POINT('',(4.636348655792,2.810521427925E-02));
#721 = CARTESIAN_POINT('',(4.712388980385,2.665747213891E-02));
#722 = ( GEOMETRIC_REPRESENTATION_CONTEXT(2) 
PARAMETRIC_REPRESENTATION_CONTEXT() REPRESENTATION_CONTEXT('2D SPACE',''
  ) );
#723 = PCURVE('',#724,#729);
#724 = SPHERICAL_SURFACE('',#725,0.12505);
#725 = AXIS2_PLACEMENT_3D('',#726,#727,#728);
#726 = CARTESIAN_POINT('',(0.,0.,0.11505));
#727 = DIRECTION('',(0.,0.,1.));
#728 = DIRECTION('',(1.,0.,0.));
#729 = DEFINITIONAL_REPRESENTATION('',(#730),#775);
#730 = B_SPLINE_CURVE_WITH_KNOTS('',8,(#731,#732,#733,#734,#735,#736,
    #737,#738,#739,#740,#741,#742,#743,#744,#745,#746,#747,#748,#749,
    #750,#751,#752,#753,#754,#755,#756,#757,#758,#759,#760,#761,#762,
    #763,#764,#765,#766,#767,#768,#769,#770,#771,#772,#773,#774),
  .UNSPECIFIED.,.F.,.F.,(9,7,7,7,7,7,9),(0.,0.268829499244,
    0.389198913058,0.497339180723,0.613215905982,0.808304436891,1.),
  .UNSPECIFIED.);
#731 = CARTESIAN_POINT('',(4.8763884487,-1.168162110046));
#732 = CARTESIAN_POINT('',(4.883157180346,-1.18558242981));
#733 = CARTESIAN_POINT('',(4.888780382173,-1.203796339726));
#734 = CARTESIAN_POINT('',(4.893077947195,-1.222653927023));
#735 = CARTESIAN_POINT('',(4.895823439666,-1.241975356319));
#736 = CARTESIAN_POINT('',(4.89665463446,-1.261527556822));
#737 = CARTESIAN_POINT('',(4.895138648661,-1.281015660237));
#738 = CARTESIAN_POINT('',(4.890437348535,-1.300018478771));
#739 = CARTESIAN_POINT('',(4.877472303634,-1.325952811014));
#740 = CARTESIAN_POINT('',(4.872610381321,-1.333753874959));
#741 = CARTESIAN_POINT('',(4.86680333608,-1.341278094252));
#742 = CARTESIAN_POINT('',(4.859951544213,-1.348460830764));
#743 = CARTESIAN_POINT('',(4.851956372946,-1.355229117962));
#744 = CARTESIAN_POINT('',(4.842738253812,-1.361503918423));
#745 = CARTESIAN_POINT('',(4.832265177001,-1.367205402486));
#746 = CARTESIAN_POINT('',(4.810104033637,-1.376803435862));
#747 = CARTESIAN_POINT('',(4.798646072639,-1.380825065137));
#748 = CARTESIAN_POINT('',(4.786256232534,-1.384273094408));
#749 = CARTESIAN_POINT('',(4.773021002273,-1.387101933336));
#750 = CARTESIAN_POINT('',(4.759086286889,-1.389276342817));
#751 = CARTESIAN_POINT('',(4.744652698525,-1.390772887247));
#752 = CARTESIAN_POINT('',(4.729954702534,-1.391579938871));
#753 = CARTESIAN_POINT('',(4.69943865894,-1.391820849511));
#754 = CARTESIAN_POINT('',(4.683614753838,-1.391152340606));
#755 = CARTESIAN_POINT('',(4.668035442769,-1.389689160369));
#756 = CARTESIAN_POINT('',(4.652997000094,-1.387443169348));
#757 = CARTESIAN_POINT('',(4.638753790637,-1.384441831881));
#758 = CARTESIAN_POINT('',(4.625487581874,-1.380728290114));
#759 = CARTESIAN_POINT('',(4.613300812759,-1.376359315919));
#760 = CARTESIAN_POINT('',(4.583601574349,-1.363053622225));
#761 = CARTESIAN_POINT('',(4.568149653533,-1.353038998063));
#762 = CARTESIAN_POINT('',(4.556060035195,-1.341668575008));
#763 = CARTESIAN_POINT('',(4.546948211761,-1.329298620128));
#764 = CARTESIAN_POINT('',(4.540274422265,-1.316232216178));
#765 = CARTESIAN_POINT('',(4.535650909888,-1.302705934982));
#766 = CARTESIAN_POINT('',(4.53272931821,-1.288907762052));
#767 = CARTESIAN_POINT('',(4.529795879795,-1.261299082584));
#768 = CARTESIAN_POINT('',(4.529733872903,-1.247492403082));
#769 = CARTESIAN_POINT('',(4.530813688237,-1.233699960891));
#770 = CARTESIAN_POINT('',(4.532854976092,-1.220030242159));
#771 = CARTESIAN_POINT('',(4.535725012366,-1.206571623439));
#772 = CARTESIAN_POINT('',(4.539322284949,-1.193398841567));
#773 = CARTESIAN_POINT('',(4.543565714851,-1.180576856918));
#774 = CARTESIAN_POINT('',(4.54838951207,-1.168162110046));
#775 = ( GEOMETRIC_REPRESENTATION_CONTEXT(2) 
PARAMETRIC_REPRESENTATION_CONTEXT() REPRESENTATION_CONTEXT('2D SPACE',''
  ) );
#776 = ADVANCED_FACE('',(#777),#377,.F.);
#777 = FACE_BOUND('',#778,.F.);
#778 = EDGE_LOOP('',(#779,#780,#803,#877,#1023,#1104));
#779 = ORIENTED_EDGE('',*,*,#279,.F.);
#780 = ORIENTED_EDGE('',*,*,#781,.F.);
#781 = EDGE_CURVE('',#782,#280,#784,.T.);
#782 = VERTEX_POINT('',#783);
#783 = CARTESIAN_POINT('',(-1.959434878636E-18,2.227554713133E-02,8.E-03
    ));
#784 = SEAM_CURVE('',#785,(#789,#796),.PCURVE_S1.);
#785 = LINE('',#786,#787);
#786 = CARTESIAN_POINT('',(-1.959434878636E-18,-7.5E-02,8.E-03));
#787 = VECTOR('',#788,1.);
#788 = DIRECTION('',(0.,1.,0.));
#789 = PCURVE('',#377,#790);
#790 = DEFINITIONAL_REPRESENTATION('',(#791),#795);
#791 = LINE('',#792,#793);
#792 = CARTESIAN_POINT('',(6.28318530718,-0.));
#793 = VECTOR('',#794,1.);
#794 = DIRECTION('',(0.,1.));
#795 = ( GEOMETRIC_REPRESENTATION_CONTEXT(2) 
PARAMETRIC_REPRESENTATION_CONTEXT() REPRESENTATION_CONTEXT('2D SPACE',''
  ) );
#796 = PCURVE('',#377,#797);
#797 = DEFINITIONAL_REPRESENTATION('',(#798),#802);
#798 = LINE('',#799,#800);
#799 = CARTESIAN_POINT('',(0.,-0.));
#800 = VECTOR('',#801,1.);
#801 = DIRECTION('',(0.,1.));
#802 = ( GEOMETRIC_REPRESENTATION_CONTEXT(2) 
PARAMETRIC_REPRESENTATION_CONTEXT() REPRESENTATION_CONTEXT('2D SPACE',''
  ) );
#803 = ORIENTED_EDGE('',*,*,#804,.T.);
#804 = EDGE_CURVE('',#782,#805,#807,.T.);
#805 = VERTEX_POINT('',#806);
#806 = CARTESIAN_POINT('',(8.E-03,4.834252786109E-02,0.));
#807 = SURFACE_CURVE('',#808,(#829,#853),.PCURVE_S1.);
#808 = B_SPLINE_CURVE_WITH_KNOTS('',7,(#809,#810,#811,#812,#813,#814,
    #815,#816,#817,#818,#819,#820,#821,#822,#823,#824,#825,#826,#827,
    #828),.UNSPECIFIED.,.F.,.F.,(8,6,6,8),(0.,0.243689326616,
    0.625098876906,1.),.UNSPECIFIED.);
#809 = CARTESIAN_POINT('',(-1.959434878636E-18,2.227554713133E-02,8.E-03
    ));
#810 = CARTESIAN_POINT('',(4.329679011092E-04,2.227554713133E-02,8.E-03)
  );
#811 = CARTESIAN_POINT('',(8.660935172739E-04,2.241674587831E-02,
    7.972661610458E-03));
#812 = CARTESIAN_POINT('',(1.296960033643E-03,2.26993168675E-02,
    7.917951165719E-03));
#813 = CARTESIAN_POINT('',(1.723719866088E-03,2.311616931357E-02,
    7.836151611468E-03));
#814 = CARTESIAN_POINT('',(2.144372044113E-03,2.365447633455E-02,
    7.727543069123E-03));
#815 = CARTESIAN_POINT('',(2.556789976022E-03,2.429903179375E-02,
    7.592780497075E-03));
#816 = CARTESIAN_POINT('',(3.588728768664E-03,2.618705382355E-02,
    7.181943938694E-03));
#817 = CARTESIAN_POINT('',(4.198317524169E-03,2.757181684983E-02,
    6.867160363687E-03));
#818 = CARTESIAN_POINT('',(4.778306620586E-03,2.913583872623E-02,
    6.490124572706E-03));
#819 = CARTESIAN_POINT('',(5.319229780757E-03,3.081879519423E-02,
    6.054928680436E-03));
#820 = CARTESIAN_POINT('',(5.813268593017E-03,3.257660694056E-02,
    5.567749979557E-03));
#821 = CARTESIAN_POINT('',(6.254567050845E-03,3.437557222932E-02,
    5.035269009375E-03));
#822 = CARTESIAN_POINT('',(7.016023601314E-03,3.797522357776E-02,
    3.902938955951E-03));
#823 = CARTESIAN_POINT('',(7.338085960387E-03,3.977517276084E-02,
    3.304448034093E-03));
#824 = CARTESIAN_POINT('',(7.600395472274E-03,4.156682671679E-02,
    2.67526771781E-03));
#825 = CARTESIAN_POINT('',(7.79952373439E-03,4.333234589878E-02,
    2.022566491515E-03));
#826 = CARTESIAN_POINT('',(7.933128610193E-03,4.505763484054E-02,
    1.353935113672E-03));
#827 = CARTESIAN_POINT('',(8.E-03,4.673096270231E-02,6.771589186278E-04)
  );
#828 = CARTESIAN_POINT('',(8.E-03,4.834252786109E-02,-1.193489751472E-15
    ));
#829 = PCURVE('',#377,#830);
#830 = DEFINITIONAL_REPRESENTATION('',(#831),#852);
#831 = B_SPLINE_CURVE_WITH_KNOTS('',7,(#832,#833,#834,#835,#836,#837,
    #838,#839,#840,#841,#842,#843,#844,#845,#846,#847,#848,#849,#850,
    #851),.UNSPECIFIED.,.F.,.F.,(8,6,6,8),(0.,0.243689326616,
    0.625098876906,1.),.UNSPECIFIED.);
#832 = CARTESIAN_POINT('',(0.,9.727554713133E-02));
#833 = CARTESIAN_POINT('',(5.412098763865E-02,9.727554713133E-02));
#834 = CARTESIAN_POINT('',(0.108261632344,9.741674587831E-02));
#835 = CARTESIAN_POINT('',(0.162379189029,9.76993168675E-02));
#836 = CARTESIAN_POINT('',(0.216500843026,9.811616931357E-02));
#837 = CARTESIAN_POINT('',(0.270633383862,9.865447633455E-02));
#838 = CARTESIAN_POINT('',(0.324760306808,9.929903179375E-02));
#839 = CARTESIAN_POINT('',(0.463599487014,0.101187053824));
#840 = CARTESIAN_POINT('',(0.548948252495,0.10257181685));
#841 = CARTESIAN_POINT('',(0.634729794035,0.104135838726));
#842 = CARTESIAN_POINT('',(0.720719417751,0.105818795194));
#843 = CARTESIAN_POINT('',(0.806754516964,0.107576606941));
#844 = CARTESIAN_POINT('',(0.892769585937,0.109375572229));
#845 = CARTESIAN_POINT('',(1.063337911146,0.112975223578));
#846 = CARTESIAN_POINT('',(1.147883057215,0.114775172761));
#847 = CARTESIAN_POINT('',(1.232430543567,0.116566826717));
#848 = CARTESIAN_POINT('',(1.316985148673,0.118332345899));
#849 = CARTESIAN_POINT('',(1.401554360479,0.120057634841));
#850 = CARTESIAN_POINT('',(1.486151461966,0.121730962702));
#851 = CARTESIAN_POINT('',(1.570796326795,0.123342527861));
#852 = ( GEOMETRIC_REPRESENTATION_CONTEXT(2) 
PARAMETRIC_REPRESENTATION_CONTEXT() REPRESENTATION_CONTEXT('2D SPACE',''
  ) );
#853 = PCURVE('',#493,#854);
#854 = DEFINITIONAL_REPRESENTATION('',(#855),#876);
#855 = B_SPLINE_CURVE_WITH_KNOTS('',7,(#856,#857,#858,#859,#860,#861,
    #862,#863,#864,#865,#866,#867,#868,#869,#870,#871,#872,#873,#874,
    #875),.UNSPECIFIED.,.F.,.F.,(8,6,6,8),(0.,0.243689326616,
    0.625098876906,1.),.UNSPECIFIED.);
#856 = CARTESIAN_POINT('',(1.570796326795,1.391707422175));
#857 = CARTESIAN_POINT('',(1.551359412471,1.391707422175));
#858 = CARTESIAN_POINT('',(1.531915945676,1.390480145792));
#859 = CARTESIAN_POINT('',(1.513111846497,1.388024050395));
#860 = CARTESIAN_POINT('',(1.495588633356,1.38440427512));
#861 = CARTESIAN_POINT('',(1.479705727627,1.379739043608));
#862 = CARTESIAN_POINT('',(1.465565296537,1.374164489121));
#863 = CARTESIAN_POINT('',(1.433704548435,1.357867486286));
#864 = CARTESIAN_POINT('',(1.418328427584,1.3459411071));
#865 = CARTESIAN_POINT('',(1.407095561488,1.332506808462));
#866 = CARTESIAN_POINT('',(1.399164475727,1.318084061579));
#867 = CARTESIAN_POINT('',(1.393880213283,1.303039903061));
#868 = CARTESIAN_POINT('',(1.390744756711,1.287655645679));
#869 = CARTESIAN_POINT('',(1.388040438256,1.256881385752));
#870 = CARTESIAN_POINT('',(1.388412205206,1.241497588987));
#871 = CARTESIAN_POINT('',(1.390139560941,1.226182453194));
#872 = CARTESIAN_POINT('',(1.392987464256,1.211083081839));
#873 = CARTESIAN_POINT('',(1.396791640207,1.196316543883));
#874 = CARTESIAN_POINT('',(1.40142721197,1.181981679814));
#875 = CARTESIAN_POINT('',(1.40679685848,1.168162110046));
#876 = ( GEOMETRIC_REPRESENTATION_CONTEXT(2) 
PARAMETRIC_REPRESENTATION_CONTEXT() REPRESENTATION_CONTEXT('2D SPACE',''
  ) );
#877 = ORIENTED_EDGE('',*,*,#878,.T.);
#878 = EDGE_CURVE('',#805,#879,#881,.T.);
#879 = VERTEX_POINT('',#880);
#880 = CARTESIAN_POINT('',(-8.E-03,4.834252786109E-02,0.));
#881 = SURFACE_CURVE('',#882,(#927,#975),.PCURVE_S1.);
#882 = B_SPLINE_CURVE_WITH_KNOTS('',8,(#883,#884,#885,#886,#887,#888,
    #889,#890,#891,#892,#893,#894,#895,#896,#897,#898,#899,#900,#901,
    #902,#903,#904,#905,#906,#907,#908,#909,#910,#911,#912,#913,#914,
    #915,#916,#917,#918,#919,#920,#921,#922,#923,#924,#925,#926),
  .UNSPECIFIED.,.F.,.F.,(9,7,7,7,7,7,9),(0.,0.268829499245,
    0.389198913059,0.497339180725,0.613215905983,0.808304436892,1.),
  .UNSPECIFIED.);
#883 = CARTESIAN_POINT('',(8.E-03,4.834252786109E-02,1.096345236817E-15)
  );
#884 = CARTESIAN_POINT('',(8.E-03,4.631106227584E-02,-8.535956684366E-04
    ));
#885 = CARTESIAN_POINT('',(7.895910669184E-03,4.418445156739E-02,
    -1.706172932403E-03));
#886 = CARTESIAN_POINT('',(7.688166397953E-03,4.198026761648E-02,
    -2.543650033272E-03));
#887 = CARTESIAN_POINT('',(7.379233915377E-03,3.971992391452E-02,
    -3.351771668181E-03));
#888 = CARTESIAN_POINT('',(6.973901503837E-03,3.743154396131E-02,
    -4.116388201807E-03));
#889 = CARTESIAN_POINT('',(6.479562440544E-03,3.515092598527E-02,
    -4.824066155067E-03));
#890 = CARTESIAN_POINT('',(5.906028766361E-03,3.292936635016E-02,
    -5.462964526127E-03));
#891 = CARTESIAN_POINT('',(4.977786415783E-03,2.990245093932E-02,
    -6.274314654934E-03));
#892 = CARTESIAN_POINT('',(4.677198070641E-03,2.899268678424E-02,
    -6.509465749791E-03));
#893 = CARTESIAN_POINT('',(4.364251949613E-03,2.811607189544E-02,
    -6.727889596607E-03));
#894 = CARTESIAN_POINT('',(4.040245785358E-03,2.728023426831E-02,
    -6.928706479908E-03));
#895 = CARTESIAN_POINT('',(3.706614660635E-03,2.649369198189E-02,
    -7.111165840876E-03));
#896 = CARTESIAN_POINT('',(3.36489686779E-03,2.576555374061E-02,
    -7.274688495992E-03));
#897 = CARTESIAN_POINT('',(3.016677403136E-03,2.510489308924E-02,
    -7.418890400822E-03));
#898 = CARTESIAN_POINT('',(2.346221555919E-03,2.399414346894E-02,
    -7.655616645337E-03));
#899 = CARTESIAN_POINT('',(2.024902786394E-03,2.352941588346E-02,
    -7.751916979803E-03));
#900 = CARTESIAN_POINT('',(1.700708558459E-03,2.313156034374E-02,
    -7.832330312143E-03));
#901 = CARTESIAN_POINT('',(1.37462432707E-03,2.280557741752E-02,
    -7.896906444394E-03));
#902 = CARTESIAN_POINT('',(1.047395961316E-03,2.25552564862E-02,
    -7.945799151388E-03));
#903 = CARTESIAN_POINT('',(7.19527997434E-04,2.238306817118E-02,
    -7.979178514968E-03));
#904 = CARTESIAN_POINT('',(3.913494148516E-04,2.229021414179E-02,
    -7.997160071853E-03));
#905 = CARTESIAN_POINT('',(-2.885354618128E-04,2.226249726126E-02,
    -8.002526819832E-03));
#906 = CARTESIAN_POINT('',(-6.402842875906E-04,2.233941299083E-02,
    -7.987630734513E-03));
#907 = CARTESIAN_POINT('',(-9.917539021467E-04,2.250773083894E-02,
    -7.955083478557E-03));
#908 = CARTESIAN_POINT('',(-1.342577418179E-03,2.276623482722E-02,
    -7.9047551142E-03));
#909 = CARTESIAN_POINT('',(-1.692167318901E-03,2.311203927843E-02,
    -7.836432680494E-03));
#910 = CARTESIAN_POINT('',(-2.039616316383E-03,2.354051241143E-02,
    -7.74991583651E-03));
#911 = CARTESIAN_POINT('',(-2.383698450321E-03,2.404542790597E-02,
    -7.64514027381E-03));
#912 = CARTESIAN_POINT('',(-3.294164266255E-03,2.558558276297E-02,
    -7.315565281099E-03));
#913 = CARTESIAN_POINT('',(-3.851522685212E-03,2.67470666186E-02,
    -7.057745522124E-03));
#914 = CARTESIAN_POINT('',(-4.388608363615E-03,2.806889367101E-02,
    -6.749793719786E-03));
#915 = CARTESIAN_POINT('',(-4.898910495599E-03,2.951026241669E-02,
    -6.393843157211E-03));
#916 = CARTESIAN_POINT('',(-5.376378678482E-03,3.103530307531E-02,
    -5.993375360726E-03));
#917 = CARTESIAN_POINT('',(-5.816114807021E-03,3.261582390756E-02,
    -5.55261267548E-03));
#918 = CARTESIAN_POINT('',(-6.21413263293E-03,3.422920333394E-02,
    -5.076117031571E-03));
#919 = CARTESIAN_POINT('',(-6.914267608232E-03,3.745841472647E-02,
    -4.069659194567E-03));
#920 = CARTESIAN_POINT('',(-7.217948275248E-03,3.907378254136E-02,
    -3.54074789117E-03));
#921 = CARTESIAN_POINT('',(-7.475288647822E-03,4.068743845198E-02,
    -2.986098213199E-03));
#922 = CARTESIAN_POINT('',(-7.683780669773E-03,4.228623263183E-02,
    -2.410445173821E-03));
#923 = CARTESIAN_POINT('',(-7.84149873998E-03,4.385948269101E-02,
    -1.818797201622E-03));
#924 = CARTESIAN_POINT('',(-7.947134463952E-03,4.53982318421E-02,
    -1.216336456371E-03));
#925 = CARTESIAN_POINT('',(-8.E-03,4.689478572075E-02,
    -6.083225967419E-04));
#926 = CARTESIAN_POINT('',(-8.E-03,4.834252786109E-02,1.096345236817E-15
    ));
#927 = PCURVE('',#377,#928);
#928 = DEFINITIONAL_REPRESENTATION('',(#929),#974);
#929 = B_SPLINE_CURVE_WITH_KNOTS('',8,(#930,#931,#932,#933,#934,#935,
    #936,#937,#938,#939,#940,#941,#942,#943,#944,#945,#946,#947,#948,
    #949,#950,#951,#952,#953,#954,#955,#956,#957,#958,#959,#960,#961,
    #962,#963,#964,#965,#966,#967,#968,#969,#970,#971,#972,#973),
  .UNSPECIFIED.,.F.,.F.,(9,7,7,7,7,7,9),(0.,0.268829499245,
    0.389198913059,0.497339180725,0.613215905983,0.808304436892,1.),
  .UNSPECIFIED.);
#930 = CARTESIAN_POINT('',(1.570796326795,0.123342527861));
#931 = CARTESIAN_POINT('',(1.677495785349,0.121311062276));
#932 = CARTESIAN_POINT('',(1.784067943275,0.119184451567));
#933 = CARTESIAN_POINT('',(1.89060362881,0.116980267616));
#934 = CARTESIAN_POINT('',(1.997153412248,0.114719923915));
#935 = CARTESIAN_POINT('',(2.10372834969,0.112431543961));
#936 = CARTESIAN_POINT('',(2.210307198055,0.110150925985));
#937 = CARTESIAN_POINT('',(2.316843602414,0.10792936635));
#938 = CARTESIAN_POINT('',(2.470950043558,0.104902450939));
#939 = CARTESIAN_POINT('',(2.518584458613,0.103992686784));
#940 = CARTESIAN_POINT('',(2.566170653936,0.103116071895));
#941 = CARTESIAN_POINT('',(2.613678768146,0.102280234268));
#942 = CARTESIAN_POINT('',(2.661072465857,0.101493691982));
#943 = CARTESIAN_POINT('',(2.708311855146,0.100765553741));
#944 = CARTESIAN_POINT('',(2.755357332012,0.100104893089));
#945 = CARTESIAN_POINT('',(2.844234912663,9.899414346894E-02));
#946 = CARTESIAN_POINT('',(2.886115980898,9.852941588346E-02));
#947 = CARTESIAN_POINT('',(2.927788443437,9.813156034374E-02));
#948 = CARTESIAN_POINT('',(2.969247039094,9.780557741752E-02));
#949 = CARTESIAN_POINT('',(3.010513374368,9.75552564862E-02));
#950 = CARTESIAN_POINT('',(3.051633866907,9.738306817118E-02));
#951 = CARTESIAN_POINT('',(3.092672616659,9.729021414179E-02));
#952 = CARTESIAN_POINT('',(3.17766087389,9.726249726126E-02));
#953 = CARTESIAN_POINT('',(3.221613348725,9.733941299083E-02));
#954 = CARTESIAN_POINT('',(3.265643220322,9.750773083894E-02));
#955 = CARTESIAN_POINT('',(3.309833103129,9.776623482722E-02));
#956 = CARTESIAN_POINT('',(3.354243558691,9.811203927843E-02));
#957 = CARTESIAN_POINT('',(3.398902548748,9.854051241143E-02));
#958 = CARTESIAN_POINT('',(3.443802417672,9.904542790597E-02));
#959 = CARTESIAN_POINT('',(3.564837515745,0.100585582763));
#960 = CARTESIAN_POINT('',(3.641316726484,0.101747066619));
#961 = CARTESIAN_POINT('',(3.718213196288,0.103068893671));
#962 = CARTESIAN_POINT('',(3.795378468143,0.104510262417));
#963 = CARTESIAN_POINT('',(3.872666458026,0.106035303075));
#964 = CARTESIAN_POINT('',(3.949988050697,0.107615823908));
#965 = CARTESIAN_POINT('',(4.027294433711,0.109229203334));
#966 = CARTESIAN_POINT('',(4.180548020603,0.112458414726));
#967 = CARTESIAN_POINT('',(4.256499021483,0.114073782541));
#968 = CARTESIAN_POINT('',(4.332450783712,0.115687438452));
#969 = CARTESIAN_POINT('',(4.408406283792,0.117286232632));
#970 = CARTESIAN_POINT('',(4.4843694542,0.118859482691));
#971 = CARTESIAN_POINT('',(4.560346852506,0.120398231842));
#972 = CARTESIAN_POINT('',(4.636348655792,0.121894785721));
#973 = CARTESIAN_POINT('',(4.712388980385,0.123342527861));
#974 = ( GEOMETRIC_REPRESENTATION_CONTEXT(2) 
PARAMETRIC_REPRESENTATION_CONTEXT() REPRESENTATION_CONTEXT('2D SPACE',''
  ) );
#975 = PCURVE('',#724,#976);
#976 = DEFINITIONAL_REPRESENTATION('',(#977),#1022);
#977 = B_SPLINE_CURVE_WITH_KNOTS('',8,(#978,#979,#980,#981,#982,#983,
    #984,#985,#986,#987,#988,#989,#990,#991,#992,#993,#994,#995,#996,
    #997,#998,#999,#1000,#1001,#1002,#1003,#1004,#1005,#1006,#1007,#1008
    ,#1009,#1010,#1011,#1012,#1013,#1014,#1015,#1016,#1017,#1018,#1019,
    #1020,#1021),.UNSPECIFIED.,.F.,.F.,(9,7,7,7,7,7,9),(0.,
    0.268829499245,0.389198913059,0.497339180725,0.613215905983,
    0.808304436892,1.),.UNSPECIFIED.);
#978 = CARTESIAN_POINT('',(1.40679685848,-1.168162110046));
#979 = CARTESIAN_POINT('',(1.400028126834,-1.18558242981));
#980 = CARTESIAN_POINT('',(1.394404925007,-1.203796339726));
#981 = CARTESIAN_POINT('',(1.390107359984,-1.222653927023));
#982 = CARTESIAN_POINT('',(1.387361867514,-1.241975356319));
#983 = CARTESIAN_POINT('',(1.386530672719,-1.261527556822));
#984 = CARTESIAN_POINT('',(1.388046658519,-1.281015660237));
#985 = CARTESIAN_POINT('',(1.392747958645,-1.300018478771));
#986 = CARTESIAN_POINT('',(1.405713003545,-1.325952811014));
#987 = CARTESIAN_POINT('',(1.410574925859,-1.333753874959));
#988 = CARTESIAN_POINT('',(1.4163819711,-1.341278094252));
#989 = CARTESIAN_POINT('',(1.423233762967,-1.348460830764));
#990 = CARTESIAN_POINT('',(1.431228934234,-1.355229117962));
#991 = CARTESIAN_POINT('',(1.440447053368,-1.361503918423));
#992 = CARTESIAN_POINT('',(1.450920130179,-1.367205402486));
#993 = CARTESIAN_POINT('',(1.473081273542,-1.376803435862));
#994 = CARTESIAN_POINT('',(1.484539234541,-1.380825065137));
#995 = CARTESIAN_POINT('',(1.496929074646,-1.384273094408));
#996 = CARTESIAN_POINT('',(1.510164304906,-1.387101933336));
#997 = CARTESIAN_POINT('',(1.524099020291,-1.389276342817));
#998 = CARTESIAN_POINT('',(1.538532608654,-1.390772887247));
#999 = CARTESIAN_POINT('',(1.553230604645,-1.391579938871));
#1000 = CARTESIAN_POINT('',(1.583746648239,-1.391820849511));
#1001 = CARTESIAN_POINT('',(1.599570553341,-1.391152340606));
#1002 = CARTESIAN_POINT('',(1.615149864411,-1.389689160369));
#1003 = CARTESIAN_POINT('',(1.630188307086,-1.387443169348));
#1004 = CARTESIAN_POINT('',(1.644431516542,-1.384441831881));
#1005 = CARTESIAN_POINT('',(1.657697725306,-1.380728290114));
#1006 = CARTESIAN_POINT('',(1.669884494421,-1.376359315919));
#1007 = CARTESIAN_POINT('',(1.699583732831,-1.363053622225));
#1008 = CARTESIAN_POINT('',(1.715035653647,-1.353038998063));
#1009 = CARTESIAN_POINT('',(1.727125271984,-1.341668575008));
#1010 = CARTESIAN_POINT('',(1.736237095419,-1.329298620127));
#1011 = CARTESIAN_POINT('',(1.742910884914,-1.316232216178));
#1012 = CARTESIAN_POINT('',(1.747534397292,-1.302705934982));
#1013 = CARTESIAN_POINT('',(1.750455988969,-1.288907762052));
#1014 = CARTESIAN_POINT('',(1.753389427384,-1.261299082584));
#1015 = CARTESIAN_POINT('',(1.753451434277,-1.247492403082));
#1016 = CARTESIAN_POINT('',(1.752371618943,-1.233699960891));
#1017 = CARTESIAN_POINT('',(1.750330331087,-1.220030242159));
#1018 = CARTESIAN_POINT('',(1.747460294813,-1.206571623439));
#1019 = CARTESIAN_POINT('',(1.743863022231,-1.193398841567));
#1020 = CARTESIAN_POINT('',(1.739619592329,-1.180576856918));
#1021 = CARTESIAN_POINT('',(1.73479579511,-1.168162110046));
#1022 = ( GEOMETRIC_REPRESENTATION_CONTEXT(2) 
PARAMETRIC_REPRESENTATION_CONTEXT() REPRESENTATION_CONTEXT('2D SPACE',''
  ) );
#1023 = ORIENTED_EDGE('',*,*,#1024,.T.);
#1024 = EDGE_CURVE('',#879,#782,#1025,.T.);
#1025 = SURFACE_CURVE('',#1026,(#1050,#1077),.PCURVE_S1.);
#1026 = B_SPLINE_CURVE_WITH_KNOTS('',8,(#1027,#1028,#1029,#1030,#1031,
    #1032,#1033,#1034,#1035,#1036,#1037,#1038,#1039,#1040,#1041,#1042,
    #1043,#1044,#1045,#1046,#1047,#1048,#1049),.UNSPECIFIED.,.F.,.F.,(9,
    7,7,9),(0.,0.527749802954,0.773417025071,1.),.UNSPECIFIED.);
#1027 = CARTESIAN_POINT('',(-8.E-03,4.834252786109E-02,
    -1.195181372236E-15));
#1028 = CARTESIAN_POINT('',(-8.E-03,4.634878334131E-02,8.37745762669E-04
    ));
#1029 = CARTESIAN_POINT('',(-7.899740329563E-03,4.426329517577E-02,
    1.674552712245E-03));
#1030 = CARTESIAN_POINT('',(-7.699613943561E-03,4.210273800539E-02,
    2.497072106491E-03));
#1031 = CARTESIAN_POINT('',(-7.401924377327E-03,3.988737884009E-02,
    3.291802905705E-03));
#1032 = CARTESIAN_POINT('',(-7.011134615537E-03,3.764355133435E-02,
    4.045361968408E-03));
#1033 = CARTESIAN_POINT('',(-6.534103081668E-03,3.540472372745E-02,
    4.745031858923E-03));
#1034 = CARTESIAN_POINT('',(-5.979913400095E-03,3.321817320219E-02,
    5.379533826355E-03));
#1035 = CARTESIAN_POINT('',(-5.070403253844E-03,3.018711639619E-02,
    6.20019535488E-03));
#1036 = CARTESIAN_POINT('',(-4.767161416858E-03,2.925011579016E-02,
    6.444679590895E-03));
#1037 = CARTESIAN_POINT('',(-4.450759825069E-03,2.834587174014E-02,
    6.671956471761E-03));
#1038 = CARTESIAN_POINT('',(-4.122544906314E-03,2.748229409968E-02,
    6.881073241573E-03));
#1039 = CARTESIAN_POINT('',(-3.784016461265E-03,2.666829966828E-02,
    7.071207834446E-03));
#1040 = CARTESIAN_POINT('',(-3.436794640095E-03,2.591351821286E-02,
    7.241716409898E-03));
#1041 = CARTESIAN_POINT('',(-3.082560540521E-03,2.522763137123E-02,
    7.392162661413E-03));
#1042 = CARTESIAN_POINT('',(-2.391314470359E-03,2.40583112565E-02,
    7.642383388594E-03));
#1043 = CARTESIAN_POINT('',(-2.055061337018E-03,2.356321550775E-02,
    7.745202725363E-03));
#1044 = CARTESIAN_POINT('',(-1.715558317389E-03,2.314100578767E-02,
    7.830579593204E-03));
#1045 = CARTESIAN_POINT('',(-1.373955979138E-03,2.279752812442E-02,
    7.898566800932E-03));
#1046 = CARTESIAN_POINT('',(-1.031116120862E-03,2.253717859126E-02,
    7.949345063539E-03));
#1047 = CARTESIAN_POINT('',(-6.876081220208E-04,2.23627606367E-02,
    7.983113093314E-03));
#1048 = CARTESIAN_POINT('',(-3.437936893883E-04,2.227554713133E-02,
    8.E-03));
#1049 = CARTESIAN_POINT('',(-1.734723475977E-18,2.227554713133E-02,
    8.E-03));
#1050 = PCURVE('',#377,#1051);
#1051 = DEFINITIONAL_REPRESENTATION('',(#1052),#1076);
#1052 = B_SPLINE_CURVE_WITH_KNOTS('',8,(#1053,#1054,#1055,#1056,#1057,
    #1058,#1059,#1060,#1061,#1062,#1063,#1064,#1065,#1066,#1067,#1068,
    #1069,#1070,#1071,#1072,#1073,#1074,#1075),.UNSPECIFIED.,.F.,.F.,(9,
    7,7,9),(0.,0.527749802954,0.773417025071,1.),.UNSPECIFIED.);
#1053 = CARTESIAN_POINT('',(4.712388980385,0.123342527861));
#1054 = CARTESIAN_POINT('',(4.817107200718,0.121348783341));
#1055 = CARTESIAN_POINT('',(4.921708068748,0.119263295176));
#1056 = CARTESIAN_POINT('',(5.026272833763,0.117102738005));
#1057 = CARTESIAN_POINT('',(5.13084720555,0.11488737884));
#1058 = CARTESIAN_POINT('',(5.235442450878,0.112643551334));
#1059 = CARTESIAN_POINT('',(5.340041414395,0.110404723727));
#1060 = CARTESIAN_POINT('',(5.444605592162,0.108218173202));
#1061 = CARTESIAN_POINT('',(5.597734115108,0.105187116396));
#1062 = CARTESIAN_POINT('',(5.64634942353,0.10425011579));
#1063 = CARTESIAN_POINT('',(5.694920209192,0.10334587174));
#1064 = CARTESIAN_POINT('',(5.743416835964,0.1024822941));
#1065 = CARTESIAN_POINT('',(5.791802092691,0.101668299668));
#1066 = CARTESIAN_POINT('',(5.840034126605,0.100913518213));
#1067 = CARTESIAN_POINT('',(5.888070526625,0.100227631371));
#1068 = CARTESIAN_POINT('',(5.979963088027,9.90583112565E-02));
#1069 = CARTESIAN_POINT('',(6.023859555421,9.856321550775E-02));
#1070 = CARTESIAN_POINT('',(6.067526845022,9.814100578767E-02));
#1071 = CARTESIAN_POINT('',(6.110957071116,9.779752812442E-02));
#1072 = CARTESIAN_POINT('',(6.154174753063,9.753717859126E-02));
#1073 = CARTESIAN_POINT('',(6.197234341836,9.73627606367E-02));
#1074 = CARTESIAN_POINT('',(6.240211096006,9.727554713133E-02));
#1075 = CARTESIAN_POINT('',(6.28318530718,9.727554713133E-02));
#1076 = ( GEOMETRIC_REPRESENTATION_CONTEXT(2) 
PARAMETRIC_REPRESENTATION_CONTEXT() REPRESENTATION_CONTEXT('2D SPACE',''
  ) );
#1077 = PCURVE('',#493,#1078);
#1078 = DEFINITIONAL_REPRESENTATION('',(#1079),#1103);
#1079 = B_SPLINE_CURVE_WITH_KNOTS('',8,(#1080,#1081,#1082,#1083,#1084,
    #1085,#1086,#1087,#1088,#1089,#1090,#1091,#1092,#1093,#1094,#1095,
    #1096,#1097,#1098,#1099,#1100,#1101,#1102),.UNSPECIFIED.,.F.,.F.,(9,
    7,7,9),(0.,0.527749802954,0.773417025071,1.),.UNSPECIFIED.);
#1080 = CARTESIAN_POINT('',(1.73479579511,1.168162110046));
#1081 = CARTESIAN_POINT('',(1.74143884224,1.185258962345));
#1082 = CARTESIAN_POINT('',(1.74697877227,1.203121056861));
#1083 = CARTESIAN_POINT('',(1.751245300453,1.221606128948));
#1084 = CARTESIAN_POINT('',(1.754023587587,1.24054391598));
#1085 = CARTESIAN_POINT('',(1.754978691195,1.259716109152));
#1086 = CARTESIAN_POINT('',(1.753702219096,1.278846945085));
#1087 = CARTESIAN_POINT('',(1.749432458964,1.297548215561));
#1088 = CARTESIAN_POINT('',(1.737334014323,1.323512300877));
#1089 = CARTESIAN_POINT('',(1.732628035187,1.331544910753));
#1090 = CARTESIAN_POINT('',(1.726961450677,1.339304166556));
#1091 = CARTESIAN_POINT('',(1.720228871059,1.346723165103));
#1092 = CARTESIAN_POINT('',(1.712323327988,1.353725673069));
#1093 = CARTESIAN_POINT('',(1.703154834593,1.360228299658));
#1094 = CARTESIAN_POINT('',(1.692681255671,1.366146033065));
#1095 = CARTESIAN_POINT('',(1.670132927685,1.376248014179));
#1096 = CARTESIAN_POINT('',(1.65824424103,1.380531849262));
#1097 = CARTESIAN_POINT('',(1.645323224139,1.38419079064));
#1098 = CARTESIAN_POINT('',(1.631464123719,1.38717157869));
#1099 = CARTESIAN_POINT('',(1.616833390897,1.389433323515));
#1100 = CARTESIAN_POINT('',(1.601664239365,1.390949394033));
#1101 = CARTESIAN_POINT('',(1.586230007834,1.391707422175));
#1102 = CARTESIAN_POINT('',(1.570796326795,1.391707422175));
#1103 = ( GEOMETRIC_REPRESENTATION_CONTEXT(2) 
PARAMETRIC_REPRESENTATION_CONTEXT() REPRESENTATION_CONTEXT('2D SPACE',''
  ) );
#1104 = ORIENTED_EDGE('',*,*,#781,.T.);
#1105 = ADVANCED_FACE('',(#1106),#493,.F.);
#1106 = FACE_BOUND('',#1107,.F.);
#1107 = EDGE_LOOP('',(#1108,#1132,#1156,#1157,#1179,#1180,#1181,#1203,
    #1204));
#1108 = ORIENTED_EDGE('',*,*,#1109,.T.);
#1109 = EDGE_CURVE('',#444,#1110,#1112,.T.);
#1110 = VERTEX_POINT('',#1111);
#1111 = CARTESIAN_POINT('',(4.9E-02,-1.200153863164E-17,
    -2.498001805407E-16));
#1112 = SURFACE_CURVE('',#1113,(#1118,#1125),.PCURVE_S1.);
#1113 = CIRCLE('',#1114,4.9E-02);
#1114 = AXIS2_PLACEMENT_3D('',#1115,#1116,#1117);
#1115 = CARTESIAN_POINT('',(0.,0.,0.));
#1116 = DIRECTION('',(-0.,0.,1.));
#1117 = DIRECTION('',(0.,-1.,0.));
#1118 = PCURVE('',#493,#1119);
#1119 = DEFINITIONAL_REPRESENTATION('',(#1120),#1124);
#1120 = LINE('',#1121,#1122);
#1121 = CARTESIAN_POINT('',(-1.570796326795,1.168162110046));
#1122 = VECTOR('',#1123,1.);
#1123 = DIRECTION('',(1.,0.));
#1124 = ( GEOMETRIC_REPRESENTATION_CONTEXT(2) 
PARAMETRIC_REPRESENTATION_CONTEXT() REPRESENTATION_CONTEXT('2D SPACE',''
  ) );
#1125 = PCURVE('',#724,#1126);
#1126 = DEFINITIONAL_REPRESENTATION('',(#1127),#1131);
#1127 = LINE('',#1128,#1129);
#1128 = CARTESIAN_POINT('',(-1.570796326795,-1.168162110046));
#1129 = VECTOR('',#1130,1.);
#1130 = DIRECTION('',(1.,0.));
#1131 = ( GEOMETRIC_REPRESENTATION_CONTEXT(2) 
PARAMETRIC_REPRESENTATION_CONTEXT() REPRESENTATION_CONTEXT('2D SPACE',''
  ) );
#1132 = ORIENTED_EDGE('',*,*,#1133,.T.);
#1133 = EDGE_CURVE('',#1110,#1134,#1136,.T.);
#1134 = VERTEX_POINT('',#1135);
#1135 = CARTESIAN_POINT('',(7.657104111669E-18,-1.875449608219E-33,
    1.E-02));
#1136 = SEAM_CURVE('',#1137,(#1142,#1149),.PCURVE_S1.);
#1137 = CIRCLE('',#1138,0.12505);
#1138 = AXIS2_PLACEMENT_3D('',#1139,#1140,#1141);
#1139 = CARTESIAN_POINT('',(0.,0.,-0.11505));
#1140 = DIRECTION('',(-2.449293598295E-16,-1.,0.));
#1141 = DIRECTION('',(1.,-2.449293598295E-16,0.));
#1142 = PCURVE('',#493,#1143);
#1143 = DEFINITIONAL_REPRESENTATION('',(#1144),#1148);
#1144 = LINE('',#1145,#1146);
#1145 = CARTESIAN_POINT('',(0.,-6.28318530718));
#1146 = VECTOR('',#1147,1.);
#1147 = DIRECTION('',(0.,1.));
#1148 = ( GEOMETRIC_REPRESENTATION_CONTEXT(2) 
PARAMETRIC_REPRESENTATION_CONTEXT() REPRESENTATION_CONTEXT('2D SPACE',''
  ) );
#1149 = PCURVE('',#493,#1150);
#1150 = DEFINITIONAL_REPRESENTATION('',(#1151),#1155);
#1151 = LINE('',#1152,#1153);
#1152 = CARTESIAN_POINT('',(6.28318530718,-6.28318530718));
#1153 = VECTOR('',#1154,1.);
#1154 = DIRECTION('',(0.,1.));
#1155 = ( GEOMETRIC_REPRESENTATION_CONTEXT(2) 
PARAMETRIC_REPRESENTATION_CONTEXT() REPRESENTATION_CONTEXT('2D SPACE',''
  ) );
#1156 = ORIENTED_EDGE('',*,*,#1133,.F.);
#1157 = ORIENTED_EDGE('',*,*,#1158,.T.);
#1158 = EDGE_CURVE('',#1110,#805,#1159,.T.);
#1159 = SURFACE_CURVE('',#1160,(#1165,#1172),.PCURVE_S1.);
#1160 = CIRCLE('',#1161,4.9E-02);
#1161 = AXIS2_PLACEMENT_3D('',#1162,#1163,#1164);
#1162 = CARTESIAN_POINT('',(0.,0.,0.));
#1163 = DIRECTION('',(-0.,0.,1.));
#1164 = DIRECTION('',(0.,-1.,0.));
#1165 = PCURVE('',#493,#1166);
#1166 = DEFINITIONAL_REPRESENTATION('',(#1167),#1171);
#1167 = LINE('',#1168,#1169);
#1168 = CARTESIAN_POINT('',(-1.570796326795,1.168162110046));
#1169 = VECTOR('',#1170,1.);
#1170 = DIRECTION('',(1.,0.));
#1171 = ( GEOMETRIC_REPRESENTATION_CONTEXT(2) 
PARAMETRIC_REPRESENTATION_CONTEXT() REPRESENTATION_CONTEXT('2D SPACE',''
  ) );
#1172 = PCURVE('',#724,#1173);
#1173 = DEFINITIONAL_REPRESENTATION('',(#1174),#1178);
#1174 = LINE('',#1175,#1176);
#1175 = CARTESIAN_POINT('',(-1.570796326795,-1.168162110046));
#1176 = VECTOR('',#1177,1.);
#1177 = DIRECTION('',(1.,0.));
#1178 = ( GEOMETRIC_REPRESENTATION_CONTEXT(2) 
PARAMETRIC_REPRESENTATION_CONTEXT() REPRESENTATION_CONTEXT('2D SPACE',''
  ) );
#1179 = ORIENTED_EDGE('',*,*,#804,.F.);
#1180 = ORIENTED_EDGE('',*,*,#1024,.F.);
#1181 = ORIENTED_EDGE('',*,*,#1182,.T.);
#1182 = EDGE_CURVE('',#879,#546,#1183,.T.);
#1183 = SURFACE_CURVE('',#1184,(#1189,#1196),.PCURVE_S1.);
#1184 = CIRCLE('',#1185,4.9E-02);
#1185 = AXIS2_PLACEMENT_3D('',#1186,#1187,#1188);
#1186 = CARTESIAN_POINT('',(0.,0.,0.));
#1187 = DIRECTION('',(-0.,0.,1.));
#1188 = DIRECTION('',(0.,-1.,0.));
#1189 = PCURVE('',#493,#1190);
#1190 = DEFINITIONAL_REPRESENTATION('',(#1191),#1195);
#1191 = LINE('',#1192,#1193);
#1192 = CARTESIAN_POINT('',(-1.570796326795,1.168162110046));
#1193 = VECTOR('',#1194,1.);
#1194 = DIRECTION('',(1.,0.));
#1195 = ( GEOMETRIC_REPRESENTATION_CONTEXT(2) 
PARAMETRIC_REPRESENTATION_CONTEXT() REPRESENTATION_CONTEXT('2D SPACE',''
  ) );
#1196 = PCURVE('',#724,#1197);
#1197 = DEFINITIONAL_REPRESENTATION('',(#1198),#1202);
#1198 = LINE('',#1199,#1200);
#1199 = CARTESIAN_POINT('',(-1.570796326795,-1.168162110046));
#1200 = VECTOR('',#1201,1.);
#1201 = DIRECTION('',(1.,0.));
#1202 = ( GEOMETRIC_REPRESENTATION_CONTEXT(2) 
PARAMETRIC_REPRESENTATION_CONTEXT() REPRESENTATION_CONTEXT('2D SPACE',''
  ) );
#1203 = ORIENTED_EDGE('',*,*,#545,.T.);
#1204 = ORIENTED_EDGE('',*,*,#441,.T.);
#1205 = ADVANCED_FACE('',(#1206),#724,.F.);
#1206 = FACE_BOUND('',#1207,.F.);
#1207 = EDGE_LOOP('',(#1208,#1232,#1233,#1234,#1235,#1236,#1237));
#1208 = ORIENTED_EDGE('',*,*,#1209,.T.);
#1209 = EDGE_CURVE('',#1210,#1110,#1212,.T.);
#1210 = VERTEX_POINT('',#1211);
#1211 = CARTESIAN_POINT('',(7.657104111669E-18,-1.875449608219E-33,
    -1.E-02));
#1212 = SEAM_CURVE('',#1213,(#1218,#1225),.PCURVE_S1.);
#1213 = CIRCLE('',#1214,0.12505);
#1214 = AXIS2_PLACEMENT_3D('',#1215,#1216,#1217);
#1215 = CARTESIAN_POINT('',(0.,0.,0.11505));
#1216 = DIRECTION('',(-2.449293598295E-16,-1.,0.));
#1217 = DIRECTION('',(1.,-2.449293598295E-16,0.));
#1218 = PCURVE('',#724,#1219);
#1219 = DEFINITIONAL_REPRESENTATION('',(#1220),#1224);
#1220 = LINE('',#1221,#1222);
#1221 = CARTESIAN_POINT('',(6.28318530718,-6.28318530718));
#1222 = VECTOR('',#1223,1.);
#1223 = DIRECTION('',(0.,1.));
#1224 = ( GEOMETRIC_REPRESENTATION_CONTEXT(2) 
PARAMETRIC_REPRESENTATION_CONTEXT() REPRESENTATION_CONTEXT('2D SPACE',''
  ) );
#1225 = PCURVE('',#724,#1226);
#1226 = DEFINITIONAL_REPRESENTATION('',(#1227),#1231);
#1227 = LINE('',#1228,#1229);
#1228 = CARTESIAN_POINT('',(0.,-6.28318530718));
#1229 = VECTOR('',#1230,1.);
#1230 = DIRECTION('',(0.,1.));
#1231 = ( GEOMETRIC_REPRESENTATION_CONTEXT(2) 
PARAMETRIC_REPRESENTATION_CONTEXT() REPRESENTATION_CONTEXT('2D SPACE',''
  ) );
#1232 = ORIENTED_EDGE('',*,*,#1109,.F.);
#1233 = ORIENTED_EDGE('',*,*,#628,.T.);
#1234 = ORIENTED_EDGE('',*,*,#1182,.F.);
#1235 = ORIENTED_EDGE('',*,*,#878,.F.);
#1236 = ORIENTED_EDGE('',*,*,#1158,.F.);
#1237 = ORIENTED_EDGE('',*,*,#1209,.F.);
#1238 = ( GEOMETRIC_REPRESENTATION_CONTEXT(3) 
GLOBAL_UNCERTAINTY_ASSIGNED_CONTEXT((#1242)) 
GLOBAL_UNIT_ASSIGNED_CONTEXT((#1239,#1240,#1241)) REPRESENTATION_CONTEXT
('Context #1','3D Context with UNIT and UNCERTAINTY') );
#1239 = ( LENGTH_UNIT() NAMED_UNIT(*) SI_UNIT($,.METRE.) );
#1240 = ( NAMED_UNIT(*) PLANE_ANGLE_UNIT() SI_UNIT($,.RADIAN.) );
#1241 = ( NAMED_UNIT(*) SI_UNIT($,.STERADIAN.) SOLID_ANGLE_UNIT() );
#1242 = UNCERTAINTY_MEASURE_WITH_UNIT(LENGTH_MEASURE(1.E-07),#1239,
  'distance_accuracy_value','confusion accuracy');
#1243 = CONTEXT_DEPENDENT_SHAPE_REPRESENTATION(#1244,#1246);
#1244 = ( REPRESENTATION_RELATIONSHIP('','',#32,#10) 
REPRESENTATION_RELATIONSHIP_WITH_TRANSFORMATION(#1245) 
SHAPE_REPRESENTATION_RELATIONSHIP() );
#1245 = ITEM_DEFINED_TRANSFORMATION('','',#11,#15);
#1246 = PRODUCT_DEFINITION_SHAPE('Placement','Placement of an item',
  #1247);
#1247 = NEXT_ASSEMBLY_USAGE_OCCURRENCE('1','Fluido','',#5,#27,$);
#1248 = PRODUCT_RELATED_PRODUCT_CATEGORY('part',$,(#29));
#1249 = MECHANICAL_DESIGN_GEOMETRIC_PRESENTATION_REPRESENTATION('',(
    #1250),#1238);
#1250 = STYLED_ITEM('color',(#1251),#33);
#1251 = PRESENTATION_STYLE_ASSIGNMENT((#1252));
#1252 = SURFACE_STYLE_USAGE(.BOTH.,#1253);
#1253 = SURFACE_SIDE_STYLE('',(#1254));
#1254 = SURFACE_STYLE_FILL_AREA(#1255);
#1255 = FILL_AREA_STYLE('',(#1256));
#1256 = FILL_AREA_STYLE_COLOUR('',#1257);
#1257 = COLOUR_RGB('',0.274509682866,0.509803958822,0.705882339664);
ENDSEC;
END-ISO-10303-21;
