ISO-10303-21;
HEADER;
FILE_DESCRIPTION(('Open CASCADE Model'),'2;1');
FILE_NAME('Open CASCADE Shape Model','2026-08-18T19:31:34',('Author'),(
    'Open CASCADE'),'Open CASCADE STEP processor 7.9','Open CASCADE 7.9'
  ,'Unknown');
FILE_SCHEMA(('AUTOMOTIVE_DESIGN { 1 0 10303 214 1 1 1 1 }'));
ENDSEC;
DATA;
#1 = APPLICATION_PROTOCOL_DEFINITION('international standard',
  'automotive_design',2000,#2);
#2 = APPLICATION_CONTEXT(
  'core data for automotive mechanical design processes');
#3 = SHAPE_DEFINITION_REPRESENTATION(#4,#10);
#4 = PRODUCT_DEFINITION_SHAPE('','',#5);
#5 = PRODUCT_DEFINITION('design','',#6,#9);
#6 = PRODUCT_DEFINITION_FORMATION('','',#7);
#7 = PRODUCT('Fluido_30graus','Fluido_30graus','',(#8));
#8 = PRODUCT_CONTEXT('',#2,'mechanical');
#9 = PRODUCT_DEFINITION_CONTEXT('part definition',#2,'design');
#10 = SHAPE_REPRESENTATION('',(#11,#15),#19);
#11 = AXIS2_PLACEMENT_3D('',#12,#13,#14);
#12 = CARTESIAN_POINT('',(0.,0.,0.));
#13 = DIRECTION('',(0.,0.,1.));
#14 = DIRECTION('',(1.,0.,-0.));
#15 = AXIS2_PLACEMENT_3D('',#16,#17,#18);
#16 = CARTESIAN_POINT('',(0.,0.,0.));
#17 = DIRECTION('',(0.,0.,1.));
#18 = DIRECTION('',(1.,0.,-0.));
#19 = ( GEOMETRIC_REPRESENTATION_CONTEXT(3) 
GLOBAL_UNCERTAINTY_ASSIGNED_CONTEXT((#23)) GLOBAL_UNIT_ASSIGNED_CONTEXT(
(#20,#21,#22)) REPRESENTATION_CONTEXT('Context #1',
  '3D Context with UNIT and UNCERTAINTY') );
#20 = ( LENGTH_UNIT() NAMED_UNIT(*) SI_UNIT($,.METRE.) );
#21 = ( NAMED_UNIT(*) PLANE_ANGLE_UNIT() SI_UNIT($,.RADIAN.) );
#22 = ( NAMED_UNIT(*) SI_UNIT($,.STERADIAN.) SOLID_ANGLE_UNIT() );
#23 = UNCERTAINTY_MEASURE_WITH_UNIT(LENGTH_MEASURE(1.E-07),#20,
  'distance_accuracy_value','confusion accuracy');
#24 = PRODUCT_RELATED_PRODUCT_CATEGORY('part',$,(#7));
#25 = SHAPE_DEFINITION_REPRESENTATION(#26,#32);
#26 = PRODUCT_DEFINITION_SHAPE('','',#27);
#27 = PRODUCT_DEFINITION('design','',#28,#31);
#28 = PRODUCT_DEFINITION_FORMATION('','',#29);
#29 = PRODUCT('Fluido','Fluido','',(#30));
#30 = PRODUCT_CONTEXT('',#2,'mechanical');
#31 = PRODUCT_DEFINITION_CONTEXT('part definition',#2,'design');
#32 = ADVANCED_BREP_SHAPE_REPRESENTATION('',(#11,#33),#1244);
#33 = MANIFOLD_SOLID_BREP('',#34);
#34 = CLOSED_SHELL('',(#35,#429,#433,#437,#779,#1111,#1211));
#35 = ADVANCED_FACE('',(#36,#123,#276),#50,.T.);
#36 = FACE_BOUND('',#37,.T.);
#37 = EDGE_LOOP('',(#38,#68,#95,#96));
#38 = ORIENTED_EDGE('',*,*,#39,.T.);
#39 = EDGE_CURVE('',#40,#42,#44,.T.);
#40 = VERTEX_POINT('',#41);
#41 = CARTESIAN_POINT('',(-0.5,1.224646799147E-17,5.E-02));
#42 = VERTEX_POINT('',#43);
#43 = CARTESIAN_POINT('',(1.,1.224646799147E-17,5.E-02));
#44 = SEAM_CURVE('',#45,(#49,#61),.PCURVE_S1.);
#45 = LINE('',#46,#47);
#46 = CARTESIAN_POINT('',(-0.5,1.224646799147E-17,5.E-02));
#47 = VECTOR('',#48,1.);
#48 = DIRECTION('',(1.,0.,0.));
#49 = PCURVE('',#50,#55);
#50 = CYLINDRICAL_SURFACE('',#51,5.E-02);
#51 = AXIS2_PLACEMENT_3D('',#52,#53,#54);
#52 = CARTESIAN_POINT('',(-0.5,0.,0.));
#53 = DIRECTION('',(1.,0.,0.));
#54 = DIRECTION('',(-0.,0.,1.));
#55 = DEFINITIONAL_REPRESENTATION('',(#56),#60);
#56 = LINE('',#57,#58);
#57 = CARTESIAN_POINT('',(6.28318530718,-0.));
#58 = VECTOR('',#59,1.);
#59 = DIRECTION('',(0.,1.));
#60 = ( GEOMETRIC_REPRESENTATION_CONTEXT(2) 
PARAMETRIC_REPRESENTATION_CONTEXT() REPRESENTATION_CONTEXT('2D SPACE',''
  ) );
#61 = PCURVE('',#50,#62);
#62 = DEFINITIONAL_REPRESENTATION('',(#63),#67);
#63 = LINE('',#64,#65);
#64 = CARTESIAN_POINT('',(0.,-0.));
#65 = VECTOR('',#66,1.);
#66 = DIRECTION('',(0.,1.));
#67 = ( GEOMETRIC_REPRESENTATION_CONTEXT(2) 
PARAMETRIC_REPRESENTATION_CONTEXT() REPRESENTATION_CONTEXT('2D SPACE',''
  ) );
#68 = ORIENTED_EDGE('',*,*,#69,.F.);
#69 = EDGE_CURVE('',#42,#42,#70,.T.);
#70 = SURFACE_CURVE('',#71,(#76,#83),.PCURVE_S1.);
#71 = CIRCLE('',#72,5.E-02);
#72 = AXIS2_PLACEMENT_3D('',#73,#74,#75);
#73 = CARTESIAN_POINT('',(1.,0.,0.));
#74 = DIRECTION('',(1.,0.,0.));
#75 = DIRECTION('',(-0.,0.,1.));
#76 = PCURVE('',#50,#77);
#77 = DEFINITIONAL_REPRESENTATION('',(#78),#82);
#78 = LINE('',#79,#80);
#79 = CARTESIAN_POINT('',(0.,1.5));
#80 = VECTOR('',#81,1.);
#81 = DIRECTION('',(1.,0.));
#82 = ( GEOMETRIC_REPRESENTATION_CONTEXT(2) 
PARAMETRIC_REPRESENTATION_CONTEXT() REPRESENTATION_CONTEXT('2D SPACE',''
  ) );
#83 = PCURVE('',#84,#89);
#84 = PLANE('',#85);
#85 = AXIS2_PLACEMENT_3D('',#86,#87,#88);
#86 = CARTESIAN_POINT('',(1.,0.,0.));
#87 = DIRECTION('',(1.,0.,0.));
#88 = DIRECTION('',(-0.,0.,1.));
#89 = DEFINITIONAL_REPRESENTATION('',(#90),#94);
#90 = CIRCLE('',#91,5.E-02);
#91 = AXIS2_PLACEMENT_2D('',#92,#93);
#92 = CARTESIAN_POINT('',(0.,0.));
#93 = DIRECTION('',(1.,0.));
#94 = ( GEOMETRIC_REPRESENTATION_CONTEXT(2) 
PARAMETRIC_REPRESENTATION_CONTEXT() REPRESENTATION_CONTEXT('2D SPACE',''
  ) );
#95 = ORIENTED_EDGE('',*,*,#39,.F.);
#96 = ORIENTED_EDGE('',*,*,#97,.T.);
#97 = EDGE_CURVE('',#40,#40,#98,.T.);
#98 = SURFACE_CURVE('',#99,(#104,#111),.PCURVE_S1.);
#99 = CIRCLE('',#100,5.E-02);
#100 = AXIS2_PLACEMENT_3D('',#101,#102,#103);
#101 = CARTESIAN_POINT('',(-0.5,0.,0.));
#102 = DIRECTION('',(1.,0.,0.));
#103 = DIRECTION('',(-0.,0.,1.));
#104 = PCURVE('',#50,#105);
#105 = DEFINITIONAL_REPRESENTATION('',(#106),#110);
#106 = LINE('',#107,#108);
#107 = CARTESIAN_POINT('',(0.,0.));
#108 = VECTOR('',#109,1.);
#109 = DIRECTION('',(1.,0.));
#110 = ( GEOMETRIC_REPRESENTATION_CONTEXT(2) 
PARAMETRIC_REPRESENTATION_CONTEXT() REPRESENTATION_CONTEXT('2D SPACE',''
  ) );
#111 = PCURVE('',#112,#117);
#112 = PLANE('',#113);
#113 = AXIS2_PLACEMENT_3D('',#114,#115,#116);
#114 = CARTESIAN_POINT('',(-0.5,0.,0.));
#115 = DIRECTION('',(1.,0.,0.));
#116 = DIRECTION('',(-0.,0.,1.));
#117 = DEFINITIONAL_REPRESENTATION('',(#118),#122);
#118 = CIRCLE('',#119,5.E-02);
#119 = AXIS2_PLACEMENT_2D('',#120,#121);
#120 = CARTESIAN_POINT('',(0.,0.));
#121 = DIRECTION('',(1.,0.));
#122 = ( GEOMETRIC_REPRESENTATION_CONTEXT(2) 
PARAMETRIC_REPRESENTATION_CONTEXT() REPRESENTATION_CONTEXT('2D SPACE',''
  ) );
#123 = FACE_BOUND('',#124,.T.);
#124 = EDGE_LOOP('',(#125));
#125 = ORIENTED_EDGE('',*,*,#126,.T.);
#126 = EDGE_CURVE('',#127,#127,#129,.T.);
#127 = VERTEX_POINT('',#128);
#128 = CARTESIAN_POINT('',(-1.959434878636E-18,-4.935585071701E-02,
    8.E-03));
#129 = SURFACE_CURVE('',#130,(#175,#223),.PCURVE_S1.);
#130 = B_SPLINE_CURVE_WITH_KNOTS('',8,(#131,#132,#133,#134,#135,#136,
    #137,#138,#139,#140,#141,#142,#143,#144,#145,#146,#147,#148,#149,
    #150,#151,#152,#153,#154,#155,#156,#157,#158,#159,#160,#161,#162,
    #163,#164,#165,#166,#167,#168,#169,#170,#171,#172,#173,#174),
  .UNSPECIFIED.,.T.,.F.,(9,7,7,7,7,7,9),(0.,0.139446999999,
    0.290711047851,0.500652341094,0.639735947188,0.790605806321,1.),
  .UNSPECIFIED.);
#131 = CARTESIAN_POINT('',(-1.734723475977E-18,-4.935585071701E-02,
    8.E-03));
#132 = CARTESIAN_POINT('',(8.83192481735E-04,-4.935585071701E-02,8.E-03)
  );
#133 = CARTESIAN_POINT('',(1.764819183317E-03,-4.937383209112E-02,
    7.888541975783E-03));
#134 = CARTESIAN_POINT('',(2.629239797021E-03,-4.940994971838E-02,
    7.666373094318E-03));
#135 = CARTESIAN_POINT('',(3.460586417668E-03,-4.94620293382E-02,
    7.336583290209E-03));
#136 = CARTESIAN_POINT('',(4.243374203103E-03,-4.952618040107E-02,
    6.904862078398E-03));
#137 = CARTESIAN_POINT('',(4.963112034685E-03,-4.959740891922E-02,
    6.379755366867E-03));
#138 = CARTESIAN_POINT('',(5.606913177773E-03,-4.967023031737E-02,
    5.772922269341E-03));
#139 = CARTESIAN_POINT('',(6.768516456475E-03,-4.981418586606E-02,
    4.368785111835E-03));
#140 = CARTESIAN_POINT('',(7.271613076615E-03,-4.988480284108E-02,
    3.559089185093E-03));
#141 = CARTESIAN_POINT('',(7.660870364966E-03,-4.994464210693E-02,
    2.688605692072E-03));
#142 = CARTESIAN_POINT('',(7.93377292135E-03,-4.998893640042E-02,
    1.769246455985E-03));
#143 = CARTESIAN_POINT('',(8.076681013922E-03,-5.001272522343E-02,
    8.228671232586E-04));
#144 = CARTESIAN_POINT('',(8.095963897651E-03,-5.001548411034E-02,
    -1.315654550236E-04));
#145 = CARTESIAN_POINT('',(7.981904161422E-03,-4.999657690544E-02,
    -1.081113665575E-03));
#146 = CARTESIAN_POINT('',(7.424950095632E-03,-4.991019548285E-02,
    -3.250306533836E-03));
#147 = CARTESIAN_POINT('',(6.861907959805E-03,-4.98252274177E-02,
    -4.469503626413E-03));
#148 = CARTESIAN_POINT('',(6.06597478154E-03,-4.971244248905E-02,
    -5.574176043587E-03));
#149 = CARTESIAN_POINT('',(5.070869579044E-03,-4.958954915689E-02,
    -6.511983258196E-03));
#150 = CARTESIAN_POINT('',(3.919113723493E-03,-4.947825380243E-02,
    -7.2447906268E-03));
#151 = CARTESIAN_POINT('',(2.656669854292E-03,-4.939701071676E-02,
    -7.746076325063E-03));
#152 = CARTESIAN_POINT('',(1.333144696235E-03,-4.935585071701E-02,
    -8.E-03));
#153 = CARTESIAN_POINT('',(-8.831924817348E-04,-4.935585071701E-02,
    -8.E-03));
#154 = CARTESIAN_POINT('',(-1.764819183316E-03,-4.937383209112E-02,
    -7.888541975783E-03));
#155 = CARTESIAN_POINT('',(-2.629239797021E-03,-4.940994971838E-02,
    -7.666373094318E-03));
#156 = CARTESIAN_POINT('',(-3.460586417668E-03,-4.94620293382E-02,
    -7.336583290209E-03));
#157 = CARTESIAN_POINT('',(-4.243374203103E-03,-4.952618040107E-02,
    -6.904862078398E-03));
#158 = CARTESIAN_POINT('',(-4.963112034685E-03,-4.959740891922E-02,
    -6.379755366867E-03));
#159 = CARTESIAN_POINT('',(-5.606913177772E-03,-4.967023031737E-02,
    -5.772922269341E-03));
#160 = CARTESIAN_POINT('',(-6.768516456433E-03,-4.981418586606E-02,
    -4.368785111885E-03));
#161 = CARTESIAN_POINT('',(-7.271613076774E-03,-4.98848028411E-02,
    -3.559089184916E-03));
#162 = CARTESIAN_POINT('',(-7.660870364804E-03,-4.994464210691E-02,
    -2.688605692144E-03));
#163 = CARTESIAN_POINT('',(-7.9337729214E-03,-4.998893640042E-02,
    -1.769246456082E-03));
#164 = CARTESIAN_POINT('',(-8.076681013993E-03,-5.001272522344E-02,
    -8.228671231914E-04));
#165 = CARTESIAN_POINT('',(-8.095963897554E-03,-5.001548411032E-02,
    1.315654552078E-04));
#166 = CARTESIAN_POINT('',(-7.981904161473E-03,-4.999657690544E-02,
    1.081113665375E-03));
#167 = CARTESIAN_POINT('',(-7.42495009561E-03,-4.991019548285E-02,
    3.250306533918E-03));
#168 = CARTESIAN_POINT('',(-6.861907959875E-03,-4.982522741771E-02,
    4.469503626192E-03));
#169 = CARTESIAN_POINT('',(-6.065974781516E-03,-4.971244248904E-02,
    5.574176043768E-03));
#170 = CARTESIAN_POINT('',(-5.070869578933E-03,-4.958954915688E-02,
    6.511983258271E-03));
#171 = CARTESIAN_POINT('',(-3.919113723524E-03,-4.947825380244E-02,
    7.244790626625E-03));
#172 = CARTESIAN_POINT('',(-2.656669854468E-03,-4.939701071676E-02,
    7.74607632513E-03));
#173 = CARTESIAN_POINT('',(-1.333144696094E-03,-4.935585071701E-02,
    8.E-03));
#174 = CARTESIAN_POINT('',(-1.734723475977E-18,-4.935585071701E-02,
    8.E-03));
#175 = PCURVE('',#50,#176);
#176 = DEFINITIONAL_REPRESENTATION('',(#177),#222);
#177 = B_SPLINE_CURVE_WITH_KNOTS('',8,(#178,#179,#180,#181,#182,#183,
    #184,#185,#186,#187,#188,#189,#190,#191,#192,#193,#194,#195,#196,
    #197,#198,#199,#200,#201,#202,#203,#204,#205,#206,#207,#208,#209,
    #210,#211,#212,#213,#214,#215,#216,#217,#218,#219,#220,#221),
  .UNSPECIFIED.,.F.,.F.,(9,7,7,7,7,7,9),(0.,0.139446999999,
    0.290711047851,0.500652341094,0.639735947188,0.790605806321,1.),
  .UNSPECIFIED.);
#178 = CARTESIAN_POINT('',(1.410105673843,0.5));
#179 = CARTESIAN_POINT('',(1.410105673843,0.500883192482));
#180 = CARTESIAN_POINT('',(1.412363676587,0.501764819183));
#181 = CARTESIAN_POINT('',(1.416865462299,0.502629239797));
#182 = CARTESIAN_POINT('',(1.423542761836,0.503460586418));
#183 = CARTESIAN_POINT('',(1.432271129247,0.504243374203));
#184 = CARTESIAN_POINT('',(1.442867814339,0.504963112035));
#185 = CARTESIAN_POINT('',(1.455089635241,0.505606913178));
#186 = CARTESIAN_POINT('',(1.483319579322,0.506768516456));
#187 = CARTESIAN_POINT('',(1.499573074603,0.507271613077));
#188 = CARTESIAN_POINT('',(1.517018996573,0.507660870365));
#189 = CARTESIAN_POINT('',(1.535419011809,0.507933772921));
#190 = CARTESIAN_POINT('',(1.554343108211,0.508076681014));
#191 = CARTESIAN_POINT('',(1.573423762992,0.508095963898));
#192 = CARTESIAN_POINT('',(1.592414707791,0.507981904161));
#193 = CARTESIAN_POINT('',(1.63583295027,0.507424950096));
#194 = CARTESIAN_POINT('',(1.660265283411,0.50686190796));
#195 = CARTESIAN_POINT('',(1.682455070536,0.506065974782));
#196 = CARTESIAN_POINT('',(1.701362071631,0.505070869579));
#197 = CARTESIAN_POINT('',(1.716185655021,0.503919113723));
#198 = CARTESIAN_POINT('',(1.72634224735,0.502656669854));
#199 = CARTESIAN_POINT('',(1.731486979747,0.501333144696));
#200 = CARTESIAN_POINT('',(1.731486979747,0.499116807518));
#201 = CARTESIAN_POINT('',(1.729228977003,0.498235180817));
#202 = CARTESIAN_POINT('',(1.724727191291,0.497370760203));
#203 = CARTESIAN_POINT('',(1.718049891754,0.496539413582));
#204 = CARTESIAN_POINT('',(1.709321524343,0.495756625797));
#205 = CARTESIAN_POINT('',(1.69872483925,0.495036887965));
#206 = CARTESIAN_POINT('',(1.686503018349,0.494393086822));
#207 = CARTESIAN_POINT('',(1.658273074268,0.493231483544));
#208 = CARTESIAN_POINT('',(1.642019578983,0.492728386923));
#209 = CARTESIAN_POINT('',(1.624573657018,0.492339129635));
#210 = CARTESIAN_POINT('',(1.606173641783,0.492066227079));
#211 = CARTESIAN_POINT('',(1.587249545378,0.491923318986));
#212 = CARTESIAN_POINT('',(1.568168890594,0.491904036102));
#213 = CARTESIAN_POINT('',(1.549177945803,0.492018095839));
#214 = CARTESIAN_POINT('',(1.505759703318,0.492575049904));
#215 = CARTESIAN_POINT('',(1.481327370183,0.49313809204));
#216 = CARTESIAN_POINT('',(1.45913758305,0.493934025218));
#217 = CARTESIAN_POINT('',(1.440230581957,0.494929130421));
#218 = CARTESIAN_POINT('',(1.425406998573,0.496080886276));
#219 = CARTESIAN_POINT('',(1.415250406239,0.497343330146));
#220 = CARTESIAN_POINT('',(1.410105673843,0.498666855304));
#221 = CARTESIAN_POINT('',(1.410105673843,0.5));
#222 = ( GEOMETRIC_REPRESENTATION_CONTEXT(2) 
PARAMETRIC_REPRESENTATION_CONTEXT() REPRESENTATION_CONTEXT('2D SPACE',''
  ) );
#223 = PCURVE('',#224,#229);
#224 = CYLINDRICAL_SURFACE('',#225,8.E-03);
#225 = AXIS2_PLACEMENT_3D('',#226,#227,#228);
#226 = CARTESIAN_POINT('',(0.,-7.5E-02,0.));
#227 = DIRECTION('',(0.,1.,0.));
#228 = DIRECTION('',(0.,-0.,1.));
#229 = DEFINITIONAL_REPRESENTATION('',(#230),#275);
#230 = B_SPLINE_CURVE_WITH_KNOTS('',8,(#231,#232,#233,#234,#235,#236,
    #237,#238,#239,#240,#241,#242,#243,#244,#245,#246,#247,#248,#249,
    #250,#251,#252,#253,#254,#255,#256,#257,#258,#259,#260,#261,#262,
    #263,#264,#265,#266,#267,#268,#269,#270,#271,#272,#273,#274),
  .UNSPECIFIED.,.F.,.F.,(9,7,7,7,7,7,9),(0.,0.139446999999,
    0.290711047851,0.500652341094,0.639735947188,0.790605806321,1.),
  .UNSPECIFIED.);
#231 = CARTESIAN_POINT('',(0.,2.564414928299E-02));
#232 = CARTESIAN_POINT('',(0.110399060217,2.564414928299E-02));
#233 = CARTESIAN_POINT('',(0.220615912632,2.562616790888E-02));
#234 = CARTESIAN_POINT('',(0.330705046937,2.559005028162E-02));
#235 = CARTESIAN_POINT('',(0.440728528652,2.55379706618E-02));
#236 = CARTESIAN_POINT('',(0.550719812496,2.547381959893E-02));
#237 = CARTESIAN_POINT('',(0.660647555773,2.540259108078E-02));
#238 = CARTESIAN_POINT('',(0.770379431744,2.532976968263E-02));
#239 = CARTESIAN_POINT('',(0.998171940612,2.518581413394E-02));
#240 = CARTESIAN_POINT('',(1.116235797034,2.511519715892E-02));
#241 = CARTESIAN_POINT('',(1.233671470228,2.505535789307E-02));
#242 = CARTESIAN_POINT('',(1.351353398392,2.501106359958E-02));
#243 = CARTESIAN_POINT('',(1.468926628757,2.498727477657E-02));
#244 = CARTESIAN_POINT('',(1.586387935408,2.498451588966E-02));
#245 = CARTESIAN_POINT('',(1.704889944892,2.500342309456E-02));
#246 = CARTESIAN_POINT('',(1.984834011044,2.508980451715E-02));
#247 = CARTESIAN_POINT('',(2.149941325192,2.51747725823E-02));
#248 = CARTESIAN_POINT('',(2.31503082148,2.528755751095E-02));
#249 = CARTESIAN_POINT('',(2.479920127968,2.541045084311E-02));
#250 = CARTESIAN_POINT('',(2.644685798861,2.552174619757E-02));
#251 = CARTESIAN_POINT('',(2.809497032289,2.560298928324E-02));
#252 = CARTESIAN_POINT('',(2.97494956656,2.564414928299E-02));
#253 = CARTESIAN_POINT('',(3.251991713807,2.564414928299E-02));
#254 = CARTESIAN_POINT('',(3.362208566222,2.562616790888E-02));
#255 = CARTESIAN_POINT('',(3.472297700527,2.559005028162E-02));
#256 = CARTESIAN_POINT('',(3.582321182241,2.55379706618E-02));
#257 = CARTESIAN_POINT('',(3.692312466086,2.547381959893E-02));
#258 = CARTESIAN_POINT('',(3.802240209363,2.540259108078E-02));
#259 = CARTESIAN_POINT('',(3.911972085333,2.532976968263E-02));
#260 = CARTESIAN_POINT('',(4.139764594194,2.518581413394E-02));
#261 = CARTESIAN_POINT('',(4.257828450653,2.51151971589E-02));
#262 = CARTESIAN_POINT('',(4.375264123799,2.505535789309E-02));
#263 = CARTESIAN_POINT('',(4.492946051979,2.501106359958E-02));
#264 = CARTESIAN_POINT('',(4.61051928235,2.498727477656E-02));
#265 = CARTESIAN_POINT('',(4.727980589023,2.498451588968E-02));
#266 = CARTESIAN_POINT('',(4.846482598456,2.500342309456E-02));
#267 = CARTESIAN_POINT('',(5.126426664644,2.508980451715E-02));
#268 = CARTESIAN_POINT('',(5.291533978755,2.517477258229E-02));
#269 = CARTESIAN_POINT('',(5.456623475086,2.528755751096E-02));
#270 = CARTESIAN_POINT('',(5.621512781579,2.541045084312E-02));
#271 = CARTESIAN_POINT('',(5.786278452434,2.552174619756E-02));
#272 = CARTESIAN_POINT('',(5.951089685862,2.560298928324E-02));
#273 = CARTESIAN_POINT('',(6.116542220168,2.564414928299E-02));
#274 = CARTESIAN_POINT('',(6.28318530718,2.564414928299E-02));
#275 = ( GEOMETRIC_REPRESENTATION_CONTEXT(2) 
PARAMETRIC_REPRESENTATION_CONTEXT() REPRESENTATION_CONTEXT('2D SPACE',''
  ) );
#276 = FACE_BOUND('',#277,.T.);
#277 = EDGE_LOOP('',(#278));
#278 = ORIENTED_EDGE('',*,*,#279,.F.);
#279 = EDGE_CURVE('',#280,#280,#282,.T.);
#280 = VERTEX_POINT('',#281);
#281 = CARTESIAN_POINT('',(-1.959434878636E-18,4.935585071701E-02,8.E-03
    ));
#282 = SURFACE_CURVE('',#283,(#328,#376),.PCURVE_S1.);
#283 = B_SPLINE_CURVE_WITH_KNOTS('',8,(#284,#285,#286,#287,#288,#289,
    #290,#291,#292,#293,#294,#295,#296,#297,#298,#299,#300,#301,#302,
    #303,#304,#305,#306,#307,#308,#309,#310,#311,#312,#313,#314,#315,
    #316,#317,#318,#319,#320,#321,#322,#323,#324,#325,#326,#327),
  .UNSPECIFIED.,.T.,.F.,(9,7,7,7,7,7,9),(0.,0.139447002607,
    0.290711053258,0.500652318662,0.639735931298,0.790605797263,1.),
  .UNSPECIFIED.);
#284 = CARTESIAN_POINT('',(-1.734723475977E-18,4.935585071701E-02,8.E-03
    ));
#285 = CARTESIAN_POINT('',(8.831924817347E-04,4.935585071701E-02,8.E-03)
  );
#286 = CARTESIAN_POINT('',(1.764819183317E-03,4.937383209112E-02,
    7.888541975783E-03));
#287 = CARTESIAN_POINT('',(2.629239797022E-03,4.940994971838E-02,
    7.666373094318E-03));
#288 = CARTESIAN_POINT('',(3.460586417668E-03,4.94620293382E-02,
    7.336583290209E-03));
#289 = CARTESIAN_POINT('',(4.243374203103E-03,4.952618040107E-02,
    6.904862078398E-03));
#290 = CARTESIAN_POINT('',(4.963112034685E-03,4.959740891922E-02,
    6.379755366867E-03));
#291 = CARTESIAN_POINT('',(5.606913177772E-03,4.967023031737E-02,
    5.772922269341E-03));
#292 = CARTESIAN_POINT('',(6.768516456353E-03,4.981418586605E-02,
    4.368785111982E-03));
#293 = CARTESIAN_POINT('',(7.271613076899E-03,4.988480284111E-02,
    3.559089184789E-03));
#294 = CARTESIAN_POINT('',(7.660870364658E-03,4.99446421069E-02,
    2.688605692313E-03));
#295 = CARTESIAN_POINT('',(7.93377292159E-03,4.998893640045E-02,
    1.769246455808E-03));
#296 = CARTESIAN_POINT('',(8.076681013762E-03,5.001272522341E-02,
    8.228671233616E-04));
#297 = CARTESIAN_POINT('',(8.095963897742E-03,5.001548411035E-02,
    -1.315654549355E-04));
#298 = CARTESIAN_POINT('',(7.981904161382E-03,4.999657690543E-02,
    -1.081113665732E-03));
#299 = CARTESIAN_POINT('',(7.424950144601E-03,4.991019549045E-02,
    -3.250306343114E-03));
#300 = CARTESIAN_POINT('',(6.86190765745E-03,4.98252273945E-02,
    -4.46950408166E-03));
#301 = CARTESIAN_POINT('',(6.06597528501E-03,4.9712442512E-02,
    -5.574175693076E-03));
#302 = CARTESIAN_POINT('',(5.070869442382E-03,4.958954916178E-02,
    -6.51198312808E-03));
#303 = CARTESIAN_POINT('',(3.919113225553E-03,4.947825377905E-02,
    -7.244790985305E-03));
#304 = CARTESIAN_POINT('',(2.656670454927E-03,4.939701072903E-02,
    -7.746076156603E-03));
#305 = CARTESIAN_POINT('',(1.333144456758E-03,4.935585071701E-02,-8.E-03
    ));
#306 = CARTESIAN_POINT('',(-8.831924817312E-04,4.935585071701E-02,
    -8.E-03));
#307 = CARTESIAN_POINT('',(-1.764819183314E-03,4.937383209112E-02,
    -7.888541975784E-03));
#308 = CARTESIAN_POINT('',(-2.629239797022E-03,4.940994971838E-02,
    -7.666373094319E-03));
#309 = CARTESIAN_POINT('',(-3.46058641767E-03,4.94620293382E-02,
    -7.336583290208E-03));
#310 = CARTESIAN_POINT('',(-4.243374203104E-03,4.952618040107E-02,
    -6.904862078396E-03));
#311 = CARTESIAN_POINT('',(-4.963112034685E-03,4.959740891922E-02,
    -6.379755366866E-03));
#312 = CARTESIAN_POINT('',(-5.606913177771E-03,4.967023031737E-02,
    -5.772922269343E-03));
#313 = CARTESIAN_POINT('',(-6.768516455383E-03,4.981418586593E-02,
    -4.368785113155E-03));
#314 = CARTESIAN_POINT('',(-7.271613078304E-03,4.988480284126E-02,
    -3.559089183912E-03));
#315 = CARTESIAN_POINT('',(-7.660870365352E-03,4.994464210709E-02,
    -2.688605689074E-03));
#316 = CARTESIAN_POINT('',(-7.933772918417E-03,4.998893639989E-02,
    -1.769246460123E-03));
#317 = CARTESIAN_POINT('',(-8.076681017034E-03,5.001272522394E-02,
    -8.228671247465E-04));
#318 = CARTESIAN_POINT('',(-8.095963895873E-03,5.001548411005E-02,
    1.315654595157E-04));
#319 = CARTESIAN_POINT('',(-7.981904161959E-03,4.999657690552E-02,
    1.081113663484E-03));
#320 = CARTESIAN_POINT('',(-7.424950095595E-03,4.991019548285E-02,
    3.250306533978E-03));
#321 = CARTESIAN_POINT('',(-6.861907959868E-03,4.982522741771E-02,
    4.469503626122E-03));
#322 = CARTESIAN_POINT('',(-6.065974781581E-03,4.971244248905E-02,
    5.574176043743E-03));
#323 = CARTESIAN_POINT('',(-5.070869578927E-03,4.958954915688E-02,
    6.511983258312E-03));
#324 = CARTESIAN_POINT('',(-3.919113723449E-03,4.947825380243E-02,
    7.244790626647E-03));
#325 = CARTESIAN_POINT('',(-2.656669854474E-03,4.939701071676E-02,
    7.74607632511E-03));
#326 = CARTESIAN_POINT('',(-1.333144696134E-03,4.935585071701E-02,8.E-03
    ));
#327 = CARTESIAN_POINT('',(-1.734723475977E-18,4.935585071701E-02,8.E-03
    ));
#328 = PCURVE('',#50,#329);
#329 = DEFINITIONAL_REPRESENTATION('',(#330),#375);
#330 = B_SPLINE_CURVE_WITH_KNOTS('',8,(#331,#332,#333,#334,#335,#336,
    #337,#338,#339,#340,#341,#342,#343,#344,#345,#346,#347,#348,#349,
    #350,#351,#352,#353,#354,#355,#356,#357,#358,#359,#360,#361,#362,
    #363,#364,#365,#366,#367,#368,#369,#370,#371,#372,#373,#374),
  .UNSPECIFIED.,.T.,.F.,(9,7,7,7,7,7,9),(0.,0.139447002607,
    0.290711053258,0.500652318662,0.639735931298,0.790605797263,1.),
  .UNSPECIFIED.);
#331 = CARTESIAN_POINT('',(4.873079633337,0.5));
#332 = CARTESIAN_POINT('',(4.873079633337,0.500883192482));
#333 = CARTESIAN_POINT('',(4.870821630593,0.501764819183));
#334 = CARTESIAN_POINT('',(4.86631984488,0.502629239797));
#335 = CARTESIAN_POINT('',(4.859642545343,0.503460586418));
#336 = CARTESIAN_POINT('',(4.850914177932,0.504243374203));
#337 = CARTESIAN_POINT('',(4.84031749284,0.504963112035));
#338 = CARTESIAN_POINT('',(4.828095671938,0.505606913178));
#339 = CARTESIAN_POINT('',(4.79986572786,0.506768516456));
#340 = CARTESIAN_POINT('',(4.78361223257,0.507271613077));
#341 = CARTESIAN_POINT('',(4.766166310612,0.507660870365));
#342 = CARTESIAN_POINT('',(4.747766295367,0.507933772922));
#343 = CARTESIAN_POINT('',(4.728842198971,0.508076681014));
#344 = CARTESIAN_POINT('',(4.709761544189,0.508095963898));
#345 = CARTESIAN_POINT('',(4.690770599385,0.507981904161));
#346 = CARTESIAN_POINT('',(4.647352360727,0.507424950145));
#347 = CARTESIAN_POINT('',(4.622920014648,0.506861907657));
#348 = CARTESIAN_POINT('',(4.600730243674,0.506065975285));
#349 = CARTESIAN_POINT('',(4.581823238152,0.505070869442));
#350 = CARTESIAN_POINT('',(4.566999644968,0.503919113226));
#351 = CARTESIAN_POINT('',(4.556843063211,0.502656670455));
#352 = CARTESIAN_POINT('',(4.551698327433,0.501333144457));
#353 = CARTESIAN_POINT('',(4.551698327433,0.499116807518));
#354 = CARTESIAN_POINT('',(4.553956330177,0.498235180817));
#355 = CARTESIAN_POINT('',(4.558458115889,0.497370760203));
#356 = CARTESIAN_POINT('',(4.565135415426,0.496539413582));
#357 = CARTESIAN_POINT('',(4.573863782837,0.495756625797));
#358 = CARTESIAN_POINT('',(4.584460467929,0.495036887965));
#359 = CARTESIAN_POINT('',(4.596682288831,0.494393086822));
#360 = CARTESIAN_POINT('',(4.624912232886,0.493231483545));
#361 = CARTESIAN_POINT('',(4.641165728217,0.492728386922));
#362 = CARTESIAN_POINT('',(4.658611650222,0.492339129635));
#363 = CARTESIAN_POINT('',(4.677011665316,0.492066227082));
#364 = CARTESIAN_POINT('',(4.695935761771,0.491923318983));
#365 = CARTESIAN_POINT('',(4.715016416672,0.491904036104));
#366 = CARTESIAN_POINT('',(4.734007361339,0.492018095838));
#367 = CARTESIAN_POINT('',(4.777425603863,0.492575049904));
#368 = CARTESIAN_POINT('',(4.801857936995,0.49313809204));
#369 = CARTESIAN_POINT('',(4.824047724129,0.493934025218));
#370 = CARTESIAN_POINT('',(4.842954725223,0.494929130421));
#371 = CARTESIAN_POINT('',(4.857778308608,0.496080886277));
#372 = CARTESIAN_POINT('',(4.86793490094,0.497343330146));
#373 = CARTESIAN_POINT('',(4.873079633337,0.498666855304));
#374 = CARTESIAN_POINT('',(4.873079633337,0.5));
#375 = ( GEOMETRIC_REPRESENTATION_CONTEXT(2) 
PARAMETRIC_REPRESENTATION_CONTEXT() REPRESENTATION_CONTEXT('2D SPACE',''
  ) );
#376 = PCURVE('',#377,#382);
#377 = CYLINDRICAL_SURFACE('',#378,8.E-03);
#378 = AXIS2_PLACEMENT_3D('',#379,#380,#381);
#379 = CARTESIAN_POINT('',(0.,-7.5E-02,0.));
#380 = DIRECTION('',(0.,1.,0.));
#381 = DIRECTION('',(0.,-0.,1.));
#382 = DEFINITIONAL_REPRESENTATION('',(#383),#428);
#383 = B_SPLINE_CURVE_WITH_KNOTS('',8,(#384,#385,#386,#387,#388,#389,
    #390,#391,#392,#393,#394,#395,#396,#397,#398,#399,#400,#401,#402,
    #403,#404,#405,#406,#407,#408,#409,#410,#411,#412,#413,#414,#415,
    #416,#417,#418,#419,#420,#421,#422,#423,#424,#425,#426,#427),
  .UNSPECIFIED.,.F.,.F.,(9,7,7,7,7,7,9),(0.,0.139447002607,
    0.290711053258,0.500652318662,0.639735931298,0.790605797263,1.),
  .UNSPECIFIED.);
#384 = CARTESIAN_POINT('',(0.,0.124355850717));
#385 = CARTESIAN_POINT('',(0.110399060217,0.124355850717));
#386 = CARTESIAN_POINT('',(0.220615912632,0.124373832091));
#387 = CARTESIAN_POINT('',(0.330705046937,0.124409949718));
#388 = CARTESIAN_POINT('',(0.440728528652,0.124462029338));
#389 = CARTESIAN_POINT('',(0.550719812496,0.124526180401));
#390 = CARTESIAN_POINT('',(0.660647555773,0.124597408919));
#391 = CARTESIAN_POINT('',(0.770379431744,0.124670230317));
#392 = CARTESIAN_POINT('',(0.998171940588,0.124814185866));
#393 = CARTESIAN_POINT('',(1.116235797086,0.124884802841));
#394 = CARTESIAN_POINT('',(1.233671470182,0.124944642107));
#395 = CARTESIAN_POINT('',(1.351353398426,0.1249889364));
#396 = CARTESIAN_POINT('',(1.46892662874,0.125012725223));
#397 = CARTESIAN_POINT('',(1.586387935397,0.12501548411));
#398 = CARTESIAN_POINT('',(1.704889944912,0.124996576905));
#399 = CARTESIAN_POINT('',(1.98483398643,0.12491019549));
#400 = CARTESIAN_POINT('',(2.149941403986,0.124825227395));
#401 = CARTESIAN_POINT('',(2.315030730174,0.124712442512));
#402 = CARTESIAN_POINT('',(2.479920132191,0.124589549162));
#403 = CARTESIAN_POINT('',(2.644685890155,0.124478253779));
#404 = CARTESIAN_POINT('',(2.809496944435,0.124397010729));
#405 = CARTESIAN_POINT('',(2.974949596495,0.124355850717));
#406 = CARTESIAN_POINT('',(3.251991713806,0.124355850717));
#407 = CARTESIAN_POINT('',(3.362208566221,0.124373832091));
#408 = CARTESIAN_POINT('',(3.472297700527,0.124409949718));
#409 = CARTESIAN_POINT('',(3.582321182242,0.124462029338));
#410 = CARTESIAN_POINT('',(3.692312466086,0.124526180401));
#411 = CARTESIAN_POINT('',(3.802240209363,0.124597408919));
#412 = CARTESIAN_POINT('',(3.911972085333,0.124670230317));
#413 = CARTESIAN_POINT('',(4.139764593988,0.124814185866));
#414 = CARTESIAN_POINT('',(4.257828450879,0.124884802841));
#415 = CARTESIAN_POINT('',(4.375264124084,0.124944642107));
#416 = CARTESIAN_POINT('',(4.492946051538,0.1249889364));
#417 = CARTESIAN_POINT('',(4.610519282116,0.125012725224));
#418 = CARTESIAN_POINT('',(4.727980589584,0.12501548411));
#419 = CARTESIAN_POINT('',(4.846482598212,0.124996576906));
#420 = CARTESIAN_POINT('',(5.126426664652,0.124910195483));
#421 = CARTESIAN_POINT('',(5.291533978747,0.124825227418));
#422 = CARTESIAN_POINT('',(5.456623475079,0.124712442489));
#423 = CARTESIAN_POINT('',(5.621512781583,0.124589549157));
#424 = CARTESIAN_POINT('',(5.786278452442,0.124478253802));
#425 = CARTESIAN_POINT('',(5.951089685861,0.124397010717));
#426 = CARTESIAN_POINT('',(6.116542220163,0.124355850717));
#427 = CARTESIAN_POINT('',(6.28318530718,0.124355850717));
#428 = ( GEOMETRIC_REPRESENTATION_CONTEXT(2) 
PARAMETRIC_REPRESENTATION_CONTEXT() REPRESENTATION_CONTEXT('2D SPACE',''
  ) );
#429 = ADVANCED_FACE('',(#430),#112,.F.);
#430 = FACE_BOUND('',#431,.T.);
#431 = EDGE_LOOP('',(#432));
#432 = ORIENTED_EDGE('',*,*,#97,.F.);
#433 = ADVANCED_FACE('',(#434),#84,.T.);
#434 = FACE_BOUND('',#435,.T.);
#435 = EDGE_LOOP('',(#436));
#436 = ORIENTED_EDGE('',*,*,#69,.T.);
#437 = ADVANCED_FACE('',(#438),#224,.F.);
#438 = FACE_BOUND('',#439,.F.);
#439 = EDGE_LOOP('',(#440,#572,#593,#594,#595,#630));
#440 = ORIENTED_EDGE('',*,*,#441,.F.);
#441 = EDGE_CURVE('',#442,#444,#446,.T.);
#442 = VERTEX_POINT('',#443);
#443 = CARTESIAN_POINT('',(-1.959434878636E-18,-3.763774701015E-02,
    8.E-03));
#444 = VERTEX_POINT('',#445);
#445 = CARTESIAN_POINT('',(4.E-03,-4.834252786109E-02,
    -6.928203230276E-03));
#446 = SURFACE_CURVE('',#447,(#485,#526),.PCURVE_S1.);
#447 = B_SPLINE_CURVE_WITH_KNOTS('',8,(#448,#449,#450,#451,#452,#453,
    #454,#455,#456,#457,#458,#459,#460,#461,#462,#463,#464,#465,#466,
    #467,#468,#469,#470,#471,#472,#473,#474,#475,#476,#477,#478,#479,
    #480,#481,#482,#483,#484),.UNSPECIFIED.,.F.,.F.,(9,7,7,7,7,9),(0.,
    0.264729378132,0.398875261475,0.533018773419,0.761580664445,1.),
  .UNSPECIFIED.);
#448 = CARTESIAN_POINT('',(-1.959434878636E-18,-3.763774701015E-02,
    8.E-03));
#449 = CARTESIAN_POINT('',(6.972397083496E-04,-3.579198480654E-02,8.E-03
    ));
#450 = CARTESIAN_POINT('',(1.394473971509E-03,-3.39489402925E-02,
    7.930552270985E-03));
#451 = CARTESIAN_POINT('',(2.083984068488E-03,-3.212953374307E-02,
    7.791648517563E-03));
#452 = CARTESIAN_POINT('',(2.757368904599E-03,-3.036183079089E-02,
    7.584259052328E-03));
#453 = CARTESIAN_POINT('',(3.40587542401E-03,-2.868205130488E-02,
    7.310736143008E-03));
#454 = CARTESIAN_POINT('',(4.020633812305E-03,-2.713829689016E-02,
    6.975576455891E-03));
#455 = CARTESIAN_POINT('',(4.594191920078E-03,-2.578969517178E-02,
    6.585070500312E-03));
#456 = CARTESIAN_POINT('',(5.387601719958E-03,-2.412778218286E-02,
    5.924049954417E-03));
#457 = CARTESIAN_POINT('',(5.643416146576E-03,-2.362974957219E-02,
    5.688496410059E-03));
#458 = CARTESIAN_POINT('',(5.887437192914E-03,-2.319971283919E-02,
    5.440324363836E-03));
#459 = CARTESIAN_POINT('',(6.118923399832E-03,-2.284478707077E-02,
    5.180265888395E-03));
#460 = CARTESIAN_POINT('',(6.337206564269E-03,-2.257127723759E-02,
    4.909064073969E-03));
#461 = CARTESIAN_POINT('',(6.541694435824E-03,-2.238397358688E-02,
    4.627456937851E-03));
#462 = CARTESIAN_POINT('',(6.731837265049E-03,-2.22855577006E-02,
    4.336239314596E-03));
#463 = CARTESIAN_POINT('',(7.082276044337E-03,-2.226668090464E-02,
    3.73657143975E-03));
#464 = CARTESIAN_POINT('',(7.242668043696E-03,-2.234621222093E-02,
    3.427957933439E-03));
#465 = CARTESIAN_POINT('',(7.387641399521E-03,-2.251499855882E-02,
    3.11156760766E-03));
#466 = CARTESIAN_POINT('',(7.51677481413E-03,-2.277070290522E-02,
    2.788272461413E-03));
#467 = CARTESIAN_POINT('',(7.629720013907E-03,-2.310881615399E-02,
    2.458945739221E-03));
#468 = CARTESIAN_POINT('',(7.726158634554E-03,-2.352322834782E-02,
    2.124527805573E-03));
#469 = CARTESIAN_POINT('',(7.805814471847E-03,-2.400692085095E-02,
    1.786023247647E-03));
#470 = CARTESIAN_POINT('',(7.975364469E-03,-2.548284660669E-02,
    8.624004602371E-04));
#471 = CARTESIAN_POINT('',(8.033770031663E-03,-2.660013400342E-02,
    2.671705695049E-04));
#472 = CARTESIAN_POINT('',(8.041444533736E-03,-2.787258692017E-02,
    -3.356893777712E-04));
#473 = CARTESIAN_POINT('',(7.997000908311E-03,-2.926248904576E-02,
    -9.399856283888E-04));
#474 = CARTESIAN_POINT('',(7.900311223892E-03,-3.073601871994E-02,
    -1.539230615798E-03));
#475 = CARTESIAN_POINT('',(7.752379605844E-03,-3.226631050724E-02,
    -2.127478470374E-03));
#476 = CARTESIAN_POINT('',(7.55492074645E-03,-3.383161198198E-02,
    -2.699334391056E-03));
#477 = CARTESIAN_POINT('',(7.054669404791E-03,-3.706665206335E-02,
    -3.824510429288E-03));
#478 = CARTESIAN_POINT('',(6.747680748925E-03,-3.873810889697E-02,
    -4.376014093041E-03));
#479 = CARTESIAN_POINT('',(6.391502945105E-03,-4.04102120896E-02,
    -4.899183005848E-03));
#480 = CARTESIAN_POINT('',(5.98921076526E-03,-4.206799592371E-02,
    -5.388927012624E-03));
#481 = CARTESIAN_POINT('',(5.544491992363E-03,-4.369942402142E-02,
    -5.840573073237E-03));
#482 = CARTESIAN_POINT('',(5.06156443244E-03,-4.52944828487E-02,
    -6.249960998921E-03));
#483 = CARTESIAN_POINT('',(4.545077731873E-03,-4.68446200854E-02,
    -6.613502455049E-03));
#484 = CARTESIAN_POINT('',(3.999999999999E-03,-4.834252786109E-02,
    -6.928203230276E-03));
#485 = PCURVE('',#224,#486);
#486 = DEFINITIONAL_REPRESENTATION('',(#487),#525);
#487 = B_SPLINE_CURVE_WITH_KNOTS('',8,(#488,#489,#490,#491,#492,#493,
    #494,#495,#496,#497,#498,#499,#500,#501,#502,#503,#504,#505,#506,
    #507,#508,#509,#510,#511,#512,#513,#514,#515,#516,#517,#518,#519,
    #520,#521,#522,#523,#524),.UNSPECIFIED.,.F.,.F.,(9,7,7,7,7,9),(0.,
    0.264729378132,0.398875261475,0.533018773419,0.761580664445,1.),
  .UNSPECIFIED.);
#488 = CARTESIAN_POINT('',(0.,3.736225298985E-02));
#489 = CARTESIAN_POINT('',(8.71549635437E-02,3.920801519346E-02));
#490 = CARTESIAN_POINT('',(0.174309204774,4.10510597075E-02));
#491 = CARTESIAN_POINT('',(0.261506975937,4.287046625693E-02));
#492 = CARTESIAN_POINT('',(0.348706024772,4.463816920911E-02));
#493 = CARTESIAN_POINT('',(0.435808103217,4.631794869512E-02));
#494 = CARTESIAN_POINT('',(0.522622434812,4.786170310984E-02));
#495 = CARTESIAN_POINT('',(0.608950349453,4.921030482822E-02));
#496 = CARTESIAN_POINT('',(0.738036516934,5.087221781714E-02));
#497 = CARTESIAN_POINT('',(0.781451159073,5.137025042781E-02));
#498 = CARTESIAN_POINT('',(0.824867778627,5.180028716081E-02));
#499 = CARTESIAN_POINT('',(0.868280875148,5.215521292923E-02));
#500 = CARTESIAN_POINT('',(0.91169064268,5.242872276241E-02));
#501 = CARTESIAN_POINT('',(0.955103996325,5.261602641312E-02));
#502 = CARTESIAN_POINT('',(0.998525079508,5.27144422994E-02));
#503 = CARTESIAN_POINT('',(1.085344656987,5.273331909536E-02));
#504 = CARTESIAN_POINT('',(1.128766793115,5.265378777907E-02));
#505 = CARTESIAN_POINT('',(1.172180557653,5.248500144118E-02));
#506 = CARTESIAN_POINT('',(1.21558982074,5.222929709478E-02));
#507 = CARTESIAN_POINT('',(1.259002274895,5.189118384601E-02));
#508 = CARTESIAN_POINT('',(1.30241893162,5.147677165218E-02));
#509 = CARTESIAN_POINT('',(1.345834265042,5.099307914905E-02));
#510 = CARTESIAN_POINT('',(1.46321627062,4.951715339331E-02));
#511 = CARTESIAN_POINT('',(1.537715365254,4.839986599658E-02));
#512 = CARTESIAN_POINT('',(1.612624267882,4.712741307983E-02));
#513 = CARTESIAN_POINT('',(1.68780404386,4.573751095424E-02));
#514 = CARTESIAN_POINT('',(1.76311482781,4.426398128006E-02));
#515 = CARTESIAN_POINT('',(1.838468364697,4.273368949276E-02));
#516 = CARTESIAN_POINT('',(1.91381303288,4.116838801802E-02));
#517 = CARTESIAN_POINT('',(2.067734305464,3.793334793665E-02));
#518 = CARTESIAN_POINT('',(2.14631656272,3.626189110303E-02));
#519 = CARTESIAN_POINT('',(2.224899643751,3.45897879104E-02));
#520 = CARTESIAN_POINT('',(2.30348585167,3.293200407629E-02));
#521 = CARTESIAN_POINT('',(2.382078898418,3.130057597858E-02));
#522 = CARTESIAN_POINT('',(2.460685925364,2.97055171513E-02));
#523 = CARTESIAN_POINT('',(2.539318684185,2.81553799146E-02));
#524 = CARTESIAN_POINT('',(2.617993877992,2.665747213891E-02));
#525 = ( GEOMETRIC_REPRESENTATION_CONTEXT(2) 
PARAMETRIC_REPRESENTATION_CONTEXT() REPRESENTATION_CONTEXT('2D SPACE',''
  ) );
#526 = PCURVE('',#527,#532);
#527 = SPHERICAL_SURFACE('',#528,0.12505);
#528 = AXIS2_PLACEMENT_3D('',#529,#530,#531);
#529 = CARTESIAN_POINT('',(-9.96362227054E-02,0.,-5.7525E-02));
#530 = DIRECTION('',(0.866025403784,0.,0.5));
#531 = DIRECTION('',(0.5,0.,-0.866025403784));
#532 = DEFINITIONAL_REPRESENTATION('',(#533),#571);
#533 = B_SPLINE_CURVE_WITH_KNOTS('',8,(#534,#535,#536,#537,#538,#539,
    #540,#541,#542,#543,#544,#545,#546,#547,#548,#549,#550,#551,#552,
    #553,#554,#555,#556,#557,#558,#559,#560,#561,#562,#563,#564,#565,
    #566,#567,#568,#569,#570),.UNSPECIFIED.,.F.,.F.,(9,7,7,7,7,9),(0.,
    0.264729378132,0.398875261475,0.533018773419,0.761580664445,1.),
  .UNSPECIFIED.);
#534 = CARTESIAN_POINT('',(4.530350853302,1.259767431042));
#535 = CARTESIAN_POINT('',(4.530578526532,1.275545477459));
#536 = CARTESIAN_POINT('',(4.53239097143,1.291301064464));
#537 = CARTESIAN_POINT('',(4.536092863663,1.306861359142));
#538 = CARTESIAN_POINT('',(4.542122288675,1.321994426507));
#539 = CARTESIAN_POINT('',(4.550974807529,1.336397343571));
#540 = CARTESIAN_POINT('',(4.563421822796,1.349667820029));
#541 = CARTESIAN_POINT('',(4.58015420875,1.36129165896));
#542 = CARTESIAN_POINT('',(4.6114871226,1.375647193282));
#543 = CARTESIAN_POINT('',(4.623109975766,1.379955661182));
#544 = CARTESIAN_POINT('',(4.635808665176,1.383681678975));
#545 = CARTESIAN_POINT('',(4.649525341952,1.386761253662));
#546 = CARTESIAN_POINT('',(4.664116185586,1.389137032687));
#547 = CARTESIAN_POINT('',(4.679345343813,1.390765024847));
#548 = CARTESIAN_POINT('',(4.694910368448,1.391620411728));
#549 = CARTESIAN_POINT('',(4.726087650352,1.39178448615));
#550 = CARTESIAN_POINT('',(4.74170845328,1.391093241944));
#551 = CARTESIAN_POINT('',(4.757049233933,1.389626016473));
#552 = CARTESIAN_POINT('',(4.771799651005,1.387404450595));
#553 = CARTESIAN_POINT('',(4.785711646998,1.384469995818));
#554 = CARTESIAN_POINT('',(4.798627921867,1.380878327191));
#555 = CARTESIAN_POINT('',(4.810478577213,1.376692699879));
#556 = CARTESIAN_POINT('',(4.839592004711,1.36394007364));
#557 = CARTESIAN_POINT('',(4.85492791618,1.354304649445));
#558 = CARTESIAN_POINT('',(4.867062710202,1.343356186879));
#559 = CARTESIAN_POINT('',(4.876324129992,1.331424581573));
#560 = CARTESIAN_POINT('',(4.883210698838,1.318796359405));
#561 = CARTESIAN_POINT('',(4.888089924687,1.305697251287));
#562 = CARTESIAN_POINT('',(4.891294908907,1.292308300802));
#563 = CARTESIAN_POINT('',(4.894937941851,1.264647510008));
#564 = CARTESIAN_POINT('',(4.895251160499,1.250361435556));
#565 = CARTESIAN_POINT('',(4.894307890794,1.236070162471));
#566 = CARTESIAN_POINT('',(4.892315392642,1.221897119283));
#567 = CARTESIAN_POINT('',(4.889424423799,1.207941803212));
#568 = CARTESIAN_POINT('',(4.885748996773,1.194287713237));
#569 = CARTESIAN_POINT('',(4.881379395058,1.181007039647));
#570 = CARTESIAN_POINT('',(4.8763884487,1.168162110046));
#571 = ( GEOMETRIC_REPRESENTATION_CONTEXT(2) 
PARAMETRIC_REPRESENTATION_CONTEXT() REPRESENTATION_CONTEXT('2D SPACE',''
  ) );
#572 = ORIENTED_EDGE('',*,*,#573,.F.);
#573 = EDGE_CURVE('',#127,#442,#574,.T.);
#574 = SEAM_CURVE('',#575,(#579,#586),.PCURVE_S1.);
#575 = LINE('',#576,#577);
#576 = CARTESIAN_POINT('',(-1.959434878636E-18,-7.5E-02,8.E-03));
#577 = VECTOR('',#578,1.);
#578 = DIRECTION('',(0.,1.,0.));
#579 = PCURVE('',#224,#580);
#580 = DEFINITIONAL_REPRESENTATION('',(#581),#585);
#581 = LINE('',#582,#583);
#582 = CARTESIAN_POINT('',(6.28318530718,-0.));
#583 = VECTOR('',#584,1.);
#584 = DIRECTION('',(0.,1.));
#585 = ( GEOMETRIC_REPRESENTATION_CONTEXT(2) 
PARAMETRIC_REPRESENTATION_CONTEXT() REPRESENTATION_CONTEXT('2D SPACE',''
  ) );
#586 = PCURVE('',#224,#587);
#587 = DEFINITIONAL_REPRESENTATION('',(#588),#592);
#588 = LINE('',#589,#590);
#589 = CARTESIAN_POINT('',(0.,-0.));
#590 = VECTOR('',#591,1.);
#591 = DIRECTION('',(0.,1.));
#592 = ( GEOMETRIC_REPRESENTATION_CONTEXT(2) 
PARAMETRIC_REPRESENTATION_CONTEXT() REPRESENTATION_CONTEXT('2D SPACE',''
  ) );
#593 = ORIENTED_EDGE('',*,*,#126,.T.);
#594 = ORIENTED_EDGE('',*,*,#573,.T.);
#595 = ORIENTED_EDGE('',*,*,#596,.F.);
#596 = EDGE_CURVE('',#597,#442,#599,.T.);
#597 = VERTEX_POINT('',#598);
#598 = CARTESIAN_POINT('',(-4.E-03,-4.834252786109E-02,
    6.928203230275E-03));
#599 = SURFACE_CURVE('',#600,(#608,#619),.PCURVE_S1.);
#600 = B_SPLINE_CURVE_WITH_KNOTS('',6,(#601,#602,#603,#604,#605,#606,
    #607),.UNSPECIFIED.,.F.,.F.,(7,7),(0.,1.),.PIECEWISE_BEZIER_KNOTS.);
#601 = CARTESIAN_POINT('',(-4.000000000001E-03,-4.834252786109E-02,
    6.928203230275E-03));
#602 = CARTESIAN_POINT('',(-3.394916655618E-03,-4.667972090074E-02,
    7.277548262037E-03));
#603 = CARTESIAN_POINT('',(-2.753559478437E-03,-4.494921435618E-02,
    7.563282649063E-03));
#604 = CARTESIAN_POINT('',(-2.08417441917E-03,-4.316295825368E-02,
    7.78082447852E-03));
#605 = CARTESIAN_POINT('',(-1.395795200199E-03,-4.133558951876E-02,
    7.92693688922E-03));
#606 = CARTESIAN_POINT('',(-6.979178933636E-04,-3.948530453357E-02,
    8.E-03));
#607 = CARTESIAN_POINT('',(-1.734723475977E-18,-3.763774701015E-02,
    8.E-03));
#608 = PCURVE('',#224,#609);
#609 = DEFINITIONAL_REPRESENTATION('',(#610),#618);
#610 = B_SPLINE_CURVE_WITH_KNOTS('',6,(#611,#612,#613,#614,#615,#616,
    #617),.UNSPECIFIED.,.F.,.F.,(7,7),(0.,1.),.PIECEWISE_BEZIER_KNOTS.);
#611 = CARTESIAN_POINT('',(5.759586531581,2.665747213891E-02));
#612 = CARTESIAN_POINT('',(5.846922789522,2.832027909926E-02));
#613 = CARTESIAN_POINT('',(5.9342101819,3.005078564382E-02));
#614 = CARTESIAN_POINT('',(6.021468506466,3.183704174632E-02));
#615 = CARTESIAN_POINT('',(6.108710875037,3.366441048124E-02));
#616 = CARTESIAN_POINT('',(6.195945570509,3.551469546643E-02));
#617 = CARTESIAN_POINT('',(6.28318530718,3.736225298985E-02));
#618 = ( GEOMETRIC_REPRESENTATION_CONTEXT(2) 
PARAMETRIC_REPRESENTATION_CONTEXT() REPRESENTATION_CONTEXT('2D SPACE',''
  ) );
#619 = PCURVE('',#527,#620);
#620 = DEFINITIONAL_REPRESENTATION('',(#621),#629);
#621 = B_SPLINE_CURVE_WITH_KNOTS('',6,(#622,#623,#624,#625,#626,#627,
    #628),.UNSPECIFIED.,.F.,.F.,(7,7),(0.,1.),.PIECEWISE_BEZIER_KNOTS.);
#622 = CARTESIAN_POINT('',(4.54838951207,1.168162110046));
#623 = CARTESIAN_POINT('',(4.542849130694,1.182421090934));
#624 = CARTESIAN_POINT('',(4.538112368025,1.197244919858));
#625 = CARTESIAN_POINT('',(4.53429737076,1.212531611933));
#626 = CARTESIAN_POINT('',(4.531561418081,1.228158130626));
#627 = CARTESIAN_POINT('',(4.53012295862,1.243974037774));
#628 = CARTESIAN_POINT('',(4.530350853302,1.259767431042));
#629 = ( GEOMETRIC_REPRESENTATION_CONTEXT(2) 
PARAMETRIC_REPRESENTATION_CONTEXT() REPRESENTATION_CONTEXT('2D SPACE',''
  ) );
#630 = ORIENTED_EDGE('',*,*,#631,.F.);
#631 = EDGE_CURVE('',#444,#597,#632,.T.);
#632 = SURFACE_CURVE('',#633,(#678,#726),.PCURVE_S1.);
#633 = B_SPLINE_CURVE_WITH_KNOTS('',8,(#634,#635,#636,#637,#638,#639,
    #640,#641,#642,#643,#644,#645,#646,#647,#648,#649,#650,#651,#652,
    #653,#654,#655,#656,#657,#658,#659,#660,#661,#662,#663,#664,#665,
    #666,#667,#668,#669,#670,#671,#672,#673,#674,#675,#676,#677),
  .UNSPECIFIED.,.F.,.F.,(9,7,7,7,7,7,9),(0.,0.267169437257,
    0.390046576973,0.498208723619,0.61237423415,0.804985476985,1.),
  .UNSPECIFIED.);
#634 = CARTESIAN_POINT('',(4.000000000001E-03,-4.834252786109E-02,
    -6.928203230275E-03));
#635 = CARTESIAN_POINT('',(3.265340466809E-03,-4.632363741134E-02,
    -7.352359109526E-03));
#636 = CARTESIAN_POINT('',(2.480136950553E-03,-4.421074154078E-02,
    -7.68698798165E-03));
#637 = CARTESIAN_POINT('',(1.656580834595E-03,-4.202111000584E-02,
    -7.925536257212E-03));
#638 = CARTESIAN_POINT('',(8.080032053882E-04,-3.977577052882E-02,
    -8.063091823915E-03));
#639 = CARTESIAN_POINT('',(-5.122705356398E-05,-3.750223885979E-02,
    -8.09676059918E-03));
#640 = CARTESIAN_POINT('',(-9.060797272666E-04,-3.523552461983E-02,
    -8.026192060166E-03));
#641 = CARTESIAN_POINT('',(-1.741681674703E-03,-3.302555047699E-02,
    -7.853842911157E-03));
#642 = CARTESIAN_POINT('',(-2.913138698389E-03,-2.998387086348E-02,
    -7.460907548437E-03));
#643 = CARTESIAN_POINT('',(-3.275102995641E-03,-2.905255915849E-02,
    -7.316664878281E-03));
#644 = CARTESIAN_POINT('',(-3.628500173155E-03,-2.815529709362E-02,
    -7.152509018798E-03));
#645 = CARTESIAN_POINT('',(-3.971826546909E-03,-2.730015471644E-02,
    -6.969158671284E-03));
#646 = CARTESIAN_POINT('',(-4.303624276364E-03,-2.649617973626E-02,
    -6.767532060374E-03));
#647 = CARTESIAN_POINT('',(-4.622540520328E-03,-2.575307293361E-02,
    -6.548737876214E-03));
#648 = CARTESIAN_POINT('',(-4.927381229671E-03,-2.508049632622E-02,
    -6.314034055497E-03));
#649 = CARTESIAN_POINT('',(-5.472235892684E-03,-2.396460355534E-02,
    -5.845326910073E-03));
#650 = CARTESIAN_POINT('',(-5.715670114661E-03,-2.350341748026E-02,
    -5.614582218132E-03));
#651 = CARTESIAN_POINT('',(-5.946755217652E-03,-2.310937293053E-02,
    -5.373441071941E-03));
#652 = CARTESIAN_POINT('',(-6.165050095528E-03,-2.278742737986E-02,
    -5.1227775463E-03));
#653 = CARTESIAN_POINT('',(-6.370321671113E-03,-2.254132091976E-02,
    -4.863307865808E-03));
#654 = CARTESIAN_POINT('',(-6.562468707826E-03,-2.23734740599E-02,
    -4.59554640803E-03));
#655 = CARTESIAN_POINT('',(-6.741427323082E-03,-2.228504112088E-02,
    -4.319828888409E-03));
#656 = CARTESIAN_POINT('',(-7.08188215622E-03,-2.226670212189E-02,
    -3.737245457764E-03));
#657 = CARTESIAN_POINT('',(-7.241875188912E-03,-2.234586776434E-02,
    -3.429469447568E-03));
#658 = CARTESIAN_POINT('',(-7.386885261608E-03,-2.251370756067E-02,
    -3.113368572581E-03));
#659 = CARTESIAN_POINT('',(-7.516625319198E-03,-2.276902155907E-02,
    -2.789188628123E-03));
#660 = CARTESIAN_POINT('',(-7.630637115619E-03,-2.310903750197E-02,
    -2.457318126889E-03));
#661 = CARTESIAN_POINT('',(-7.728322946816E-03,-2.352933961512E-02,
    -2.118412134366E-03));
#662 = CARTESIAN_POINT('',(-7.809045292431E-03,-2.402400712597E-02,
    -1.773449141414E-03));
#663 = CARTESIAN_POINT('',(-7.979003324551E-03,-2.55340502884E-02,
    -8.336865873853E-04));
#664 = CARTESIAN_POINT('',(-8.035936652312E-03,-2.667336388136E-02,
    -2.30275659326E-04));
#665 = CARTESIAN_POINT('',(-8.040738422187E-03,-2.797044654364E-02,
    3.80711453788E-04));
#666 = CARTESIAN_POINT('',(-7.99200984038E-03,-2.938605373098E-02,
    9.928271354558E-04));
#667 = CARTESIAN_POINT('',(-7.889679757289E-03,-3.088534243337E-02,
    1.599341077139E-03));
#668 = CARTESIAN_POINT('',(-7.734851596169E-03,-3.244078133809E-02,
    2.194104266767E-03));
#669 = CARTESIAN_POINT('',(-7.529358989835E-03,-3.403018219935E-02,
    2.771554431733E-03));
#670 = CARTESIAN_POINT('',(-7.018403655104E-03,-3.726253750391E-02,
    3.888975581683E-03));
#671 = CARTESIAN_POINT('',(-6.711709023015E-03,-3.890600945072E-02,
    4.428425245871E-03));
#672 = CARTESIAN_POINT('',(-6.35771047826E-03,-4.054889997933E-02,
    4.940069053693E-03));
#673 = CARTESIAN_POINT('',(-5.959368144356E-03,-4.217717494829E-02,
    5.419097801592E-03));
#674 = CARTESIAN_POINT('',(-5.520211389968E-03,-4.377949036126E-02,
    5.861094156217E-03));
#675 = CARTESIAN_POINT('',(-5.044263133025E-03,-4.534637160001E-02,
    6.262120175527E-03));
#676 = CARTESIAN_POINT('',(-4.535950237095E-03,-4.686970301321E-02,
    6.618772216616E-03));
#677 = CARTESIAN_POINT('',(-3.999999999999E-03,-4.834252786109E-02,
    6.928203230276E-03));
#678 = PCURVE('',#224,#679);
#679 = DEFINITIONAL_REPRESENTATION('',(#680),#725);
#680 = B_SPLINE_CURVE_WITH_KNOTS('',8,(#681,#682,#683,#684,#685,#686,
    #687,#688,#689,#690,#691,#692,#693,#694,#695,#696,#697,#698,#699,
    #700,#701,#702,#703,#704,#705,#706,#707,#708,#709,#710,#711,#712,
    #713,#714,#715,#716,#717,#718,#719,#720,#721,#722,#723,#724),
  .UNSPECIFIED.,.F.,.F.,(9,7,7,7,7,7,9),(0.,0.267169437257,
    0.390046576973,0.498208723619,0.61237423415,0.804985476985,1.),
  .UNSPECIFIED.);
#681 = CARTESIAN_POINT('',(2.617993877991,2.665747213891E-02));
#682 = CARTESIAN_POINT('',(2.724032847804,2.867636258866E-02));
#683 = CARTESIAN_POINT('',(2.829947926013,3.078925845922E-02));
#684 = CARTESIAN_POINT('',(2.935826644584,3.297888999416E-02));
#685 = CARTESIAN_POINT('',(3.041717898887,3.522422947118E-02));
#686 = CARTESIAN_POINT('',(3.147632836519,3.749776114021E-02));
#687 = CARTESIAN_POINT('',(3.253551629845,3.976447538017E-02));
#688 = CARTESIAN_POINT('',(3.359430661577,4.197444952301E-02));
#689 = CARTESIAN_POINT('',(3.513880782855,4.501612913652E-02));
#690 = CARTESIAN_POINT('',(3.562511404036,4.594744084151E-02));
#691 = CARTESIAN_POINT('',(3.611093596656,4.684470290638E-02));
#692 = CARTESIAN_POINT('',(3.659595841819,4.769984528356E-02));
#693 = CARTESIAN_POINT('',(3.707979579206,4.850382026374E-02));
#694 = CARTESIAN_POINT('',(3.756202407194,4.924692706639E-02));
#695 = CARTESIAN_POINT('',(3.804222330115,4.991950367378E-02));
#696 = CARTESIAN_POINT('',(3.894061856492,5.103539644466E-02));
#697 = CARTESIAN_POINT('',(3.935939914705,5.149658251974E-02));
#698 = CARTESIAN_POINT('',(3.977608880524,5.189062706947E-02));
#699 = CARTESIAN_POINT('',(4.019064469251,5.221257262014E-02));
#700 = CARTESIAN_POINT('',(4.060329311823,5.245867908024E-02));
#701 = CARTESIAN_POINT('',(4.101450757458,5.26265259401E-02));
#702 = CARTESIAN_POINT('',(4.142493625366,5.271495887912E-02));
#703 = CARTESIAN_POINT('',(4.226839726628,5.273329787811E-02));
#704 = CARTESIAN_POINT('',(4.270146282608,5.265413223566E-02));
#705 = CARTESIAN_POINT('',(4.313530356554,5.248629243933E-02));
#706 = CARTESIAN_POINT('',(4.357070425544,5.223097844093E-02));
#707 = CARTESIAN_POINT('',(4.400824018138,5.189096249803E-02));
#708 = CARTESIAN_POINT('',(4.444817975552,5.147066038488E-02));
#709 = CARTESIAN_POINT('',(4.489045616513,5.097599287403E-02));
#710 = CARTESIAN_POINT('',(4.608421558304,4.94659497116E-02));
#711 = CARTESIAN_POINT('',(4.683910403481,4.832663611864E-02));
#712 = CARTESIAN_POINT('',(4.759813009522,4.702955345636E-02));
#713 = CARTESIAN_POINT('',(4.835985528412,4.561394626902E-02));
#714 = CARTESIAN_POINT('',(4.912285125544,4.411465756663E-02));
#715 = CARTESIAN_POINT('',(4.988622913331,4.255921866191E-02));
#716 = CARTESIAN_POINT('',(5.064948698051,4.096981780065E-02));
#717 = CARTESIAN_POINT('',(5.218536284038,3.773746249609E-02));
#718 = CARTESIAN_POINT('',(5.295802889483,3.609399054928E-02));
#719 = CARTESIAN_POINT('',(5.373070271714,3.445110002067E-02));
#720 = CARTESIAN_POINT('',(5.450341099557,3.282282505171E-02));
#721 = CARTESIAN_POINT('',(5.527619213026,3.122050963874E-02));
#722 = CARTESIAN_POINT('',(5.604911459554,2.965362839999E-02));
#723 = CARTESIAN_POINT('',(5.682228778166,2.813029698679E-02));
#724 = CARTESIAN_POINT('',(5.759586531581,2.665747213891E-02));
#725 = ( GEOMETRIC_REPRESENTATION_CONTEXT(2) 
PARAMETRIC_REPRESENTATION_CONTEXT() REPRESENTATION_CONTEXT('2D SPACE',''
  ) );
#726 = PCURVE('',#727,#732);
#727 = SPHERICAL_SURFACE('',#728,0.12505);
#728 = AXIS2_PLACEMENT_3D('',#729,#730,#731);
#729 = CARTESIAN_POINT('',(9.96362227054E-02,0.,5.7525E-02));
#730 = DIRECTION('',(0.866025403784,0.,0.5));
#731 = DIRECTION('',(0.5,0.,-0.866025403784));
#732 = DEFINITIONAL_REPRESENTATION('',(#733),#778);
#733 = B_SPLINE_CURVE_WITH_KNOTS('',8,(#734,#735,#736,#737,#738,#739,
    #740,#741,#742,#743,#744,#745,#746,#747,#748,#749,#750,#751,#752,
    #753,#754,#755,#756,#757,#758,#759,#760,#761,#762,#763,#764,#765,
    #766,#767,#768,#769,#770,#771,#772,#773,#774,#775,#776,#777),
  .UNSPECIFIED.,.F.,.F.,(9,7,7,7,7,7,9),(0.,0.267169437257,
    0.390046576973,0.498208723619,0.61237423415,0.804985476985,1.),
  .UNSPECIFIED.);
#734 = CARTESIAN_POINT('',(4.8763884487,-1.168162110046));
#735 = CARTESIAN_POINT('',(4.883115280686,-1.185474594913));
#736 = CARTESIAN_POINT('',(4.888710813328,-1.203571171959));
#737 = CARTESIAN_POINT('',(4.892998259035,-1.222304503705));
#738 = CARTESIAN_POINT('',(4.895755062543,-1.241497974918));
#739 = CARTESIAN_POINT('',(4.896628340936,-1.260923527646));
#740 = CARTESIAN_POINT('',(4.895193382781,-1.280292758279));
#741 = CARTESIAN_POINT('',(4.890638356748,-1.299195752448));
#742 = CARTESIAN_POINT('',(4.877910589468,-1.32525463098));
#743 = CARTESIAN_POINT('',(4.873020939573,-1.333239880885));
#744 = CARTESIAN_POINT('',(4.867152859335,-1.340940830322));
#745 = CARTESIAN_POINT('',(4.86020029571,-1.348289137827));
#746 = CARTESIAN_POINT('',(4.852057548478,-1.355207331311));
#747 = CARTESIAN_POINT('',(4.842639024317,-1.361611246081));
#748 = CARTESIAN_POINT('',(4.83191077305,-1.367415860672));
#749 = CARTESIAN_POINT('',(4.809391125345,-1.37705902314));
#750 = CARTESIAN_POINT('',(4.797879518646,-1.381050292536));
#751 = CARTESIAN_POINT('',(4.785439358318,-1.384465532374));
#752 = CARTESIAN_POINT('',(4.772159502195,-1.387259509956));
#753 = CARTESIAN_POINT('',(4.758188206924,-1.389397415918));
#754 = CARTESIAN_POINT('',(4.7437279841,-1.390856272695));
#755 = CARTESIAN_POINT('',(4.729014399238,-1.391624901765));
#756 = CARTESIAN_POINT('',(4.698725353231,-1.391784301733));
#757 = CARTESIAN_POINT('',(4.683146557209,-1.391096229517));
#758 = CARTESIAN_POINT('',(4.667813850188,-1.389637250977));
#759 = CARTESIAN_POINT('',(4.653009282751,-1.387419051018));
#760 = CARTESIAN_POINT('',(4.638975191151,-1.384468001309));
#761 = CARTESIAN_POINT('',(4.625885818147,-1.38082522853));
#762 = CARTESIAN_POINT('',(4.613840894918,-1.376544731029));
#763 = CARTESIAN_POINT('',(4.584390805274,-1.363498246715));
#764 = CARTESIAN_POINT('',(4.568995130274,-1.353673825553));
#765 = CARTESIAN_POINT('',(4.556880933999,-1.342514851168));
#766 = CARTESIAN_POINT('',(4.547692721792,-1.330364291476));
#767 = CARTESIAN_POINT('',(4.54091126671,-1.31751693774));
#768 = CARTESIAN_POINT('',(4.536158927625,-1.304203964834));
#769 = CARTESIAN_POINT('',(4.533094883199,-1.290609898534));
#770 = CARTESIAN_POINT('',(4.529810650667,-1.262973261135));
#771 = CARTESIAN_POINT('',(4.529625970675,-1.248926393234));
#772 = CARTESIAN_POINT('',(4.530639379023,-1.234884444696));
#773 = CARTESIAN_POINT('',(4.532657455462,-1.220963178272));
#774 = CARTESIAN_POINT('',(4.5355386887,-1.207256405804));
#775 = CARTESIAN_POINT('',(4.539175450058,-1.19384315867));
#776 = CARTESIAN_POINT('',(4.543482140648,-1.180791947338));
#777 = CARTESIAN_POINT('',(4.54838951207,-1.168162110046));
#778 = ( GEOMETRIC_REPRESENTATION_CONTEXT(2) 
PARAMETRIC_REPRESENTATION_CONTEXT() REPRESENTATION_CONTEXT('2D SPACE',''
  ) );
#779 = ADVANCED_FACE('',(#780),#377,.F.);
#780 = FACE_BOUND('',#781,.F.);
#781 = EDGE_LOOP('',(#782,#783,#806,#931,#1077,#1110));
#782 = ORIENTED_EDGE('',*,*,#279,.F.);
#783 = ORIENTED_EDGE('',*,*,#784,.F.);
#784 = EDGE_CURVE('',#785,#280,#787,.T.);
#785 = VERTEX_POINT('',#786);
#786 = CARTESIAN_POINT('',(-1.959434878636E-18,3.763774701015E-02,8.E-03
    ));
#787 = SEAM_CURVE('',#788,(#792,#799),.PCURVE_S1.);
#788 = LINE('',#789,#790);
#789 = CARTESIAN_POINT('',(-1.959434878636E-18,-7.5E-02,8.E-03));
#790 = VECTOR('',#791,1.);
#791 = DIRECTION('',(0.,1.,0.));
#792 = PCURVE('',#377,#793);
#793 = DEFINITIONAL_REPRESENTATION('',(#794),#798);
#794 = LINE('',#795,#796);
#795 = CARTESIAN_POINT('',(6.28318530718,-0.));
#796 = VECTOR('',#797,1.);
#797 = DIRECTION('',(0.,1.));
#798 = ( GEOMETRIC_REPRESENTATION_CONTEXT(2) 
PARAMETRIC_REPRESENTATION_CONTEXT() REPRESENTATION_CONTEXT('2D SPACE',''
  ) );
#799 = PCURVE('',#377,#800);
#800 = DEFINITIONAL_REPRESENTATION('',(#801),#805);
#801 = LINE('',#802,#803);
#802 = CARTESIAN_POINT('',(0.,-0.));
#803 = VECTOR('',#804,1.);
#804 = DIRECTION('',(0.,1.));
#805 = ( GEOMETRIC_REPRESENTATION_CONTEXT(2) 
PARAMETRIC_REPRESENTATION_CONTEXT() REPRESENTATION_CONTEXT('2D SPACE',''
  ) );
#806 = ORIENTED_EDGE('',*,*,#807,.T.);
#807 = EDGE_CURVE('',#785,#808,#810,.T.);
#808 = VERTEX_POINT('',#809);
#809 = CARTESIAN_POINT('',(4.E-03,4.834252786109E-02,-6.928203230276E-03
    ));
#810 = SURFACE_CURVE('',#811,(#849,#890),.PCURVE_S1.);
#811 = B_SPLINE_CURVE_WITH_KNOTS('',8,(#812,#813,#814,#815,#816,#817,
    #818,#819,#820,#821,#822,#823,#824,#825,#826,#827,#828,#829,#830,
    #831,#832,#833,#834,#835,#836,#837,#838,#839,#840,#841,#842,#843,
    #844,#845,#846,#847,#848),.UNSPECIFIED.,.F.,.F.,(9,7,7,7,7,9),(0.,
    0.264729378134,0.398875261478,0.533018773423,0.761580664448,1.),
  .UNSPECIFIED.);
#812 = CARTESIAN_POINT('',(-1.959434878636E-18,3.763774701015E-02,8.E-03
    ));
#813 = CARTESIAN_POINT('',(6.972397083494E-04,3.579198480655E-02,8.E-03)
  );
#814 = CARTESIAN_POINT('',(1.394473971509E-03,3.39489402925E-02,
    7.930552270985E-03));
#815 = CARTESIAN_POINT('',(2.083984068489E-03,3.212953374307E-02,
    7.791648517563E-03));
#816 = CARTESIAN_POINT('',(2.757368904597E-03,3.036183079088E-02,
    7.584259052328E-03));
#817 = CARTESIAN_POINT('',(3.405875424012E-03,2.868205130488E-02,
    7.310736143008E-03));
#818 = CARTESIAN_POINT('',(4.020633812304E-03,2.713829689016E-02,
    6.975576455891E-03));
#819 = CARTESIAN_POINT('',(4.594191920079E-03,2.578969517178E-02,
    6.585070500311E-03));
#820 = CARTESIAN_POINT('',(5.387601719958E-03,2.412778218286E-02,
    5.924049954417E-03));
#821 = CARTESIAN_POINT('',(5.643416146576E-03,2.362974957219E-02,
    5.688496410059E-03));
#822 = CARTESIAN_POINT('',(5.887437192914E-03,2.319971283919E-02,
    5.440324363837E-03));
#823 = CARTESIAN_POINT('',(6.118923399832E-03,2.284478707077E-02,
    5.180265888395E-03));
#824 = CARTESIAN_POINT('',(6.337206564269E-03,2.257127723759E-02,
    4.909064073969E-03));
#825 = CARTESIAN_POINT('',(6.541694435824E-03,2.238397358688E-02,
    4.62745693785E-03));
#826 = CARTESIAN_POINT('',(6.731837265049E-03,2.22855577006E-02,
    4.336239314596E-03));
#827 = CARTESIAN_POINT('',(7.082276044337E-03,2.226668090464E-02,
    3.73657143975E-03));
#828 = CARTESIAN_POINT('',(7.242668043697E-03,2.234621222094E-02,
    3.427957933438E-03));
#829 = CARTESIAN_POINT('',(7.387641399521E-03,2.251499855882E-02,
    3.11156760766E-03));
#830 = CARTESIAN_POINT('',(7.51677481413E-03,2.277070290522E-02,
    2.788272461414E-03));
#831 = CARTESIAN_POINT('',(7.629720013907E-03,2.310881615399E-02,
    2.458945739221E-03));
#832 = CARTESIAN_POINT('',(7.726158634555E-03,2.352322834782E-02,
    2.124527805572E-03));
#833 = CARTESIAN_POINT('',(7.805814471847E-03,2.400692085095E-02,
    1.786023247647E-03));
#834 = CARTESIAN_POINT('',(7.975364468999E-03,2.548284660668E-02,
    8.624004602429E-04));
#835 = CARTESIAN_POINT('',(8.033770031665E-03,2.660013400346E-02,
    2.671705694827E-04));
#836 = CARTESIAN_POINT('',(8.041444533736E-03,2.787258692009E-02,
    -3.356893777298E-04));
#837 = CARTESIAN_POINT('',(7.997000908308E-03,2.926248904586E-02,
    -9.399856284351E-04));
#838 = CARTESIAN_POINT('',(7.900311223897E-03,3.073601871986E-02,
    -1.539230615766E-03));
#839 = CARTESIAN_POINT('',(7.752379605839E-03,3.226631050728E-02,
    -2.127478470388E-03));
#840 = CARTESIAN_POINT('',(7.554920746451E-03,3.383161198197E-02,
    -2.699334391052E-03));
#841 = CARTESIAN_POINT('',(7.054669404791E-03,3.706665206335E-02,
    -3.824510429288E-03));
#842 = CARTESIAN_POINT('',(6.747680748925E-03,3.873810889697E-02,
    -4.376014093042E-03));
#843 = CARTESIAN_POINT('',(6.391502945105E-03,4.04102120896E-02,
    -4.899183005849E-03));
#844 = CARTESIAN_POINT('',(5.98921076526E-03,4.206799592371E-02,
    -5.388927012623E-03));
#845 = CARTESIAN_POINT('',(5.544491992363E-03,4.369942402142E-02,
    -5.840573073237E-03));
#846 = CARTESIAN_POINT('',(5.06156443244E-03,4.52944828487E-02,
    -6.249960998922E-03));
#847 = CARTESIAN_POINT('',(4.545077731873E-03,4.68446200854E-02,
    -6.613502455049E-03));
#848 = CARTESIAN_POINT('',(3.999999999999E-03,4.834252786109E-02,
    -6.928203230276E-03));
#849 = PCURVE('',#377,#850);
#850 = DEFINITIONAL_REPRESENTATION('',(#851),#889);
#851 = B_SPLINE_CURVE_WITH_KNOTS('',8,(#852,#853,#854,#855,#856,#857,
    #858,#859,#860,#861,#862,#863,#864,#865,#866,#867,#868,#869,#870,
    #871,#872,#873,#874,#875,#876,#877,#878,#879,#880,#881,#882,#883,
    #884,#885,#886,#887,#888),.UNSPECIFIED.,.F.,.F.,(9,7,7,7,7,9),(0.,
    0.264729378134,0.398875261478,0.533018773423,0.761580664448,1.),
  .UNSPECIFIED.);
#852 = CARTESIAN_POINT('',(0.,0.11263774701));
#853 = CARTESIAN_POINT('',(8.715496354367E-02,0.110791984807));
#854 = CARTESIAN_POINT('',(0.174309204774,0.108948940292));
#855 = CARTESIAN_POINT('',(0.261506975937,0.107129533743));
#856 = CARTESIAN_POINT('',(0.348706024771,0.105361830791));
#857 = CARTESIAN_POINT('',(0.435808103218,0.103682051305));
#858 = CARTESIAN_POINT('',(0.522622434812,0.10213829689));
#859 = CARTESIAN_POINT('',(0.608950349453,0.100789695172));
#860 = CARTESIAN_POINT('',(0.738036516934,9.912778218286E-02));
#861 = CARTESIAN_POINT('',(0.781451159073,9.862974957219E-02));
#862 = CARTESIAN_POINT('',(0.824867778627,9.819971283919E-02));
#863 = CARTESIAN_POINT('',(0.868280875148,9.784478707077E-02));
#864 = CARTESIAN_POINT('',(0.91169064268,9.757127723759E-02));
#865 = CARTESIAN_POINT('',(0.955103996325,9.738397358688E-02));
#866 = CARTESIAN_POINT('',(0.998525079508,9.72855577006E-02));
#867 = CARTESIAN_POINT('',(1.085344656986,9.726668090464E-02));
#868 = CARTESIAN_POINT('',(1.128766793115,9.734621222094E-02));
#869 = CARTESIAN_POINT('',(1.172180557653,9.751499855882E-02));
#870 = CARTESIAN_POINT('',(1.21558982074,9.777070290522E-02));
#871 = CARTESIAN_POINT('',(1.259002274895,9.8108816154E-02));
#872 = CARTESIAN_POINT('',(1.30241893162,9.852322834782E-02));
#873 = CARTESIAN_POINT('',(1.345834265042,9.900692085095E-02));
#874 = CARTESIAN_POINT('',(1.46321627062,0.100482846607));
#875 = CARTESIAN_POINT('',(1.537715365258,0.101600134003));
#876 = CARTESIAN_POINT('',(1.612624267876,0.10287258692));
#877 = CARTESIAN_POINT('',(1.687804043867,0.104262489046));
#878 = CARTESIAN_POINT('',(1.763114827805,0.10573601872));
#879 = CARTESIAN_POINT('',(1.8384683647,0.107266310507));
#880 = CARTESIAN_POINT('',(1.913813032879,0.108831611982));
#881 = CARTESIAN_POINT('',(2.067734305464,0.112066652063));
#882 = CARTESIAN_POINT('',(2.146316562721,0.113738108897));
#883 = CARTESIAN_POINT('',(2.224899643751,0.11541021209));
#884 = CARTESIAN_POINT('',(2.30348585167,0.117067995924));
#885 = CARTESIAN_POINT('',(2.382078898418,0.118699424021));
#886 = CARTESIAN_POINT('',(2.460685925364,0.120294482849));
#887 = CARTESIAN_POINT('',(2.539318684185,0.121844620085));
#888 = CARTESIAN_POINT('',(2.617993877992,0.123342527861));
#889 = ( GEOMETRIC_REPRESENTATION_CONTEXT(2) 
PARAMETRIC_REPRESENTATION_CONTEXT() REPRESENTATION_CONTEXT('2D SPACE',''
  ) );
#890 = PCURVE('',#527,#891);
#891 = DEFINITIONAL_REPRESENTATION('',(#892),#930);
#892 = B_SPLINE_CURVE_WITH_KNOTS('',8,(#893,#894,#895,#896,#897,#898,
    #899,#900,#901,#902,#903,#904,#905,#906,#907,#908,#909,#910,#911,
    #912,#913,#914,#915,#916,#917,#918,#919,#920,#921,#922,#923,#924,
    #925,#926,#927,#928,#929),.UNSPECIFIED.,.F.,.F.,(9,7,7,7,7,9),(0.,
    0.264729378134,0.398875261478,0.533018773423,0.761580664448,1.),
  .UNSPECIFIED.);
#893 = CARTESIAN_POINT('',(1.752834453878,1.259767431042));
#894 = CARTESIAN_POINT('',(1.752606780648,1.275545477459));
#895 = CARTESIAN_POINT('',(1.750794335749,1.291301064464));
#896 = CARTESIAN_POINT('',(1.747092443517,1.306861359142));
#897 = CARTESIAN_POINT('',(1.741063018504,1.321994426507));
#898 = CARTESIAN_POINT('',(1.73221049965,1.336397343571));
#899 = CARTESIAN_POINT('',(1.719763484384,1.349667820029));
#900 = CARTESIAN_POINT('',(1.703031098429,1.36129165896));
#901 = CARTESIAN_POINT('',(1.67169818458,1.375647193282));
#902 = CARTESIAN_POINT('',(1.660075331414,1.379955661182));
#903 = CARTESIAN_POINT('',(1.647376642004,1.383681678975));
#904 = CARTESIAN_POINT('',(1.633659965227,1.386761253662));
#905 = CARTESIAN_POINT('',(1.619069121593,1.389137032687));
#906 = CARTESIAN_POINT('',(1.603839963366,1.390765024847));
#907 = CARTESIAN_POINT('',(1.588274938732,1.391620411728));
#908 = CARTESIAN_POINT('',(1.557097656827,1.39178448615));
#909 = CARTESIAN_POINT('',(1.5414768539,1.391093241944));
#910 = CARTESIAN_POINT('',(1.526136073246,1.389626016473));
#911 = CARTESIAN_POINT('',(1.511385656175,1.387404450595));
#912 = CARTESIAN_POINT('',(1.497473660182,1.384469995818));
#913 = CARTESIAN_POINT('',(1.484557385313,1.380878327191));
#914 = CARTESIAN_POINT('',(1.472706729967,1.376692699879));
#915 = CARTESIAN_POINT('',(1.443593302469,1.36394007364));
#916 = CARTESIAN_POINT('',(1.428257390999,1.354304649444));
#917 = CARTESIAN_POINT('',(1.416122596978,1.34335618688));
#918 = CARTESIAN_POINT('',(1.406861177186,1.331424581572));
#919 = CARTESIAN_POINT('',(1.399974608342,1.318796359406));
#920 = CARTESIAN_POINT('',(1.395095382492,1.305697251287));
#921 = CARTESIAN_POINT('',(1.391890398273,1.292308300802));
#922 = CARTESIAN_POINT('',(1.388247365329,1.264647510008));
#923 = CARTESIAN_POINT('',(1.387934146681,1.250361435556));
#924 = CARTESIAN_POINT('',(1.388877416386,1.236070162471));
#925 = CARTESIAN_POINT('',(1.390869914538,1.221897119283));
#926 = CARTESIAN_POINT('',(1.393760883381,1.207941803212));
#927 = CARTESIAN_POINT('',(1.397436310407,1.194287713237));
#928 = CARTESIAN_POINT('',(1.401805912122,1.181007039647));
#929 = CARTESIAN_POINT('',(1.40679685848,1.168162110046));
#930 = ( GEOMETRIC_REPRESENTATION_CONTEXT(2) 
PARAMETRIC_REPRESENTATION_CONTEXT() REPRESENTATION_CONTEXT('2D SPACE',''
  ) );
#931 = ORIENTED_EDGE('',*,*,#932,.T.);
#932 = EDGE_CURVE('',#808,#933,#935,.T.);
#933 = VERTEX_POINT('',#934);
#934 = CARTESIAN_POINT('',(-4.E-03,4.834252786109E-02,6.928203230275E-03
    ));
#935 = SURFACE_CURVE('',#936,(#981,#1029),.PCURVE_S1.);
#936 = B_SPLINE_CURVE_WITH_KNOTS('',8,(#937,#938,#939,#940,#941,#942,
    #943,#944,#945,#946,#947,#948,#949,#950,#951,#952,#953,#954,#955,
    #956,#957,#958,#959,#960,#961,#962,#963,#964,#965,#966,#967,#968,
    #969,#970,#971,#972,#973,#974,#975,#976,#977,#978,#979,#980),
  .UNSPECIFIED.,.F.,.F.,(9,7,7,7,7,7,9),(0.,0.267169437259,
    0.390046576975,0.498208723622,0.612374234154,0.804985476988,1.),
  .UNSPECIFIED.);
#937 = CARTESIAN_POINT('',(4.000000000001E-03,4.834252786109E-02,
    -6.928203230275E-03));
#938 = CARTESIAN_POINT('',(3.265340466809E-03,4.632363741134E-02,
    -7.352359109526E-03));
#939 = CARTESIAN_POINT('',(2.480136950552E-03,4.421074154078E-02,
    -7.68698798165E-03));
#940 = CARTESIAN_POINT('',(1.656580834596E-03,4.202111000585E-02,
    -7.925536257212E-03));
#941 = CARTESIAN_POINT('',(8.080032053867E-04,3.977577052881E-02,
    -8.063091823915E-03));
#942 = CARTESIAN_POINT('',(-5.122705356237E-05,3.75022388598E-02,
    -8.096760599181E-03));
#943 = CARTESIAN_POINT('',(-9.060797272675E-04,3.523552461983E-02,
    -8.026192060166E-03));
#944 = CARTESIAN_POINT('',(-1.741681674703E-03,3.302555047699E-02,
    -7.853842911157E-03));
#945 = CARTESIAN_POINT('',(-2.91313869839E-03,2.998387086348E-02,
    -7.460907548437E-03));
#946 = CARTESIAN_POINT('',(-3.275102995641E-03,2.905255915849E-02,
    -7.316664878281E-03));
#947 = CARTESIAN_POINT('',(-3.628500173155E-03,2.815529709362E-02,
    -7.152509018798E-03));
#948 = CARTESIAN_POINT('',(-3.971826546909E-03,2.730015471643E-02,
    -6.969158671284E-03));
#949 = CARTESIAN_POINT('',(-4.303624276364E-03,2.649617973626E-02,
    -6.767532060374E-03));
#950 = CARTESIAN_POINT('',(-4.622540520328E-03,2.575307293361E-02,
    -6.548737876214E-03));
#951 = CARTESIAN_POINT('',(-4.927381229672E-03,2.508049632622E-02,
    -6.314034055497E-03));
#952 = CARTESIAN_POINT('',(-5.472235892684E-03,2.396460355534E-02,
    -5.845326910073E-03));
#953 = CARTESIAN_POINT('',(-5.715670114662E-03,2.350341748026E-02,
    -5.614582218131E-03));
#954 = CARTESIAN_POINT('',(-5.946755217652E-03,2.310937293053E-02,
    -5.373441071941E-03));
#955 = CARTESIAN_POINT('',(-6.165050095528E-03,2.278742737986E-02,
    -5.1227775463E-03));
#956 = CARTESIAN_POINT('',(-6.370321671113E-03,2.254132091976E-02,
    -4.863307865808E-03));
#957 = CARTESIAN_POINT('',(-6.562468707827E-03,2.23734740599E-02,
    -4.59554640803E-03));
#958 = CARTESIAN_POINT('',(-6.741427323082E-03,2.228504112088E-02,
    -4.319828888409E-03));
#959 = CARTESIAN_POINT('',(-7.08188215622E-03,2.226670212189E-02,
    -3.737245457764E-03));
#960 = CARTESIAN_POINT('',(-7.241875188912E-03,2.234586776434E-02,
    -3.429469447568E-03));
#961 = CARTESIAN_POINT('',(-7.386885261608E-03,2.251370756067E-02,
    -3.113368572581E-03));
#962 = CARTESIAN_POINT('',(-7.516625319198E-03,2.276902155907E-02,
    -2.789188628124E-03));
#963 = CARTESIAN_POINT('',(-7.630637115619E-03,2.310903750197E-02,
    -2.457318126889E-03));
#964 = CARTESIAN_POINT('',(-7.728322946816E-03,2.352933961512E-02,
    -2.118412134366E-03));
#965 = CARTESIAN_POINT('',(-7.809045292431E-03,2.402400712597E-02,
    -1.773449141414E-03));
#966 = CARTESIAN_POINT('',(-7.97900332455E-03,2.55340502884E-02,
    -8.336865873907E-04));
#967 = CARTESIAN_POINT('',(-8.035936652314E-03,2.66733638814E-02,
    -2.302756593047E-04));
#968 = CARTESIAN_POINT('',(-8.040738422186E-03,2.797044654356E-02,
    3.807114537467E-04));
#969 = CARTESIAN_POINT('',(-7.992009840376E-03,2.938605373107E-02,
    9.928271355044E-04));
#970 = CARTESIAN_POINT('',(-7.889679757296E-03,3.088534243329E-02,
    1.599341077103E-03));
#971 = CARTESIAN_POINT('',(-7.734851596164E-03,3.244078133813E-02,
    2.194104266784E-03));
#972 = CARTESIAN_POINT('',(-7.529358989836E-03,3.403018219933E-02,
    2.77155443173E-03));
#973 = CARTESIAN_POINT('',(-7.018403655105E-03,3.726253750391E-02,
    3.888975581681E-03));
#974 = CARTESIAN_POINT('',(-6.711709023013E-03,3.890600945072E-02,
    4.428425245873E-03));
#975 = CARTESIAN_POINT('',(-6.35771047826E-03,4.054889997933E-02,
    4.940069053694E-03));
#976 = CARTESIAN_POINT('',(-5.959368144358E-03,4.217717494828E-02,
    5.41909780159E-03));
#977 = CARTESIAN_POINT('',(-5.520211389967E-03,4.377949036126E-02,
    5.861094156217E-03));
#978 = CARTESIAN_POINT('',(-5.044263133024E-03,4.534637160002E-02,
    6.262120175528E-03));
#979 = CARTESIAN_POINT('',(-4.535950237097E-03,4.686970301321E-02,
    6.618772216616E-03));
#980 = CARTESIAN_POINT('',(-3.999999999999E-03,4.834252786109E-02,
    6.928203230276E-03));
#981 = PCURVE('',#377,#982);
#982 = DEFINITIONAL_REPRESENTATION('',(#983),#1028);
#983 = B_SPLINE_CURVE_WITH_KNOTS('',8,(#984,#985,#986,#987,#988,#989,
    #990,#991,#992,#993,#994,#995,#996,#997,#998,#999,#1000,#1001,#1002,
    #1003,#1004,#1005,#1006,#1007,#1008,#1009,#1010,#1011,#1012,#1013,
    #1014,#1015,#1016,#1017,#1018,#1019,#1020,#1021,#1022,#1023,#1024,
    #1025,#1026,#1027),.UNSPECIFIED.,.F.,.F.,(9,7,7,7,7,7,9),(0.,
    0.267169437259,0.390046576975,0.498208723622,0.612374234154,
    0.804985476988,1.),.UNSPECIFIED.);
#984 = CARTESIAN_POINT('',(2.617993877991,0.123342527861));
#985 = CARTESIAN_POINT('',(2.724032847804,0.121323637411));
#986 = CARTESIAN_POINT('',(2.829947926013,0.119210741541));
#987 = CARTESIAN_POINT('',(2.935826644584,0.117021110006));
#988 = CARTESIAN_POINT('',(3.041717898887,0.114775770529));
#989 = CARTESIAN_POINT('',(3.147632836519,0.11250223886));
#990 = CARTESIAN_POINT('',(3.253551629845,0.11023552462));
#991 = CARTESIAN_POINT('',(3.359430661577,0.108025550477));
#992 = CARTESIAN_POINT('',(3.513880782855,0.104983870863));
#993 = CARTESIAN_POINT('',(3.562511404036,0.104052559158));
#994 = CARTESIAN_POINT('',(3.611093596656,0.103155297094));
#995 = CARTESIAN_POINT('',(3.659595841819,0.102300154716));
#996 = CARTESIAN_POINT('',(3.707979579206,0.101496179736));
#997 = CARTESIAN_POINT('',(3.756202407194,0.100753072934));
#998 = CARTESIAN_POINT('',(3.804222330115,0.100080496326));
#999 = CARTESIAN_POINT('',(3.894061856492,9.896460355534E-02));
#1000 = CARTESIAN_POINT('',(3.935939914705,9.850341748026E-02));
#1001 = CARTESIAN_POINT('',(3.977608880524,9.810937293053E-02));
#1002 = CARTESIAN_POINT('',(4.019064469251,9.778742737986E-02));
#1003 = CARTESIAN_POINT('',(4.060329311823,9.754132091976E-02));
#1004 = CARTESIAN_POINT('',(4.101450757458,9.73734740599E-02));
#1005 = CARTESIAN_POINT('',(4.142493625366,9.728504112088E-02));
#1006 = CARTESIAN_POINT('',(4.226839726628,9.726670212189E-02));
#1007 = CARTESIAN_POINT('',(4.270146282608,9.734586776434E-02));
#1008 = CARTESIAN_POINT('',(4.313530356554,9.751370756067E-02));
#1009 = CARTESIAN_POINT('',(4.357070425544,9.776902155907E-02));
#1010 = CARTESIAN_POINT('',(4.400824018138,9.810903750197E-02));
#1011 = CARTESIAN_POINT('',(4.444817975552,9.852933961512E-02));
#1012 = CARTESIAN_POINT('',(4.489045616513,9.902400712597E-02));
#1013 = CARTESIAN_POINT('',(4.608421558304,0.100534050288));
#1014 = CARTESIAN_POINT('',(4.683910403484,0.101673363881));
#1015 = CARTESIAN_POINT('',(4.759813009516,0.102970446544));
#1016 = CARTESIAN_POINT('',(4.835985528419,0.104386053731));
#1017 = CARTESIAN_POINT('',(4.912285125538,0.105885342433));
#1018 = CARTESIAN_POINT('',(4.988622913334,0.107440781338));
#1019 = CARTESIAN_POINT('',(5.06494869805,0.109030182199));
#1020 = CARTESIAN_POINT('',(5.218536284038,0.112262537504));
#1021 = CARTESIAN_POINT('',(5.295802889483,0.113906009451));
#1022 = CARTESIAN_POINT('',(5.373070271714,0.115548899979));
#1023 = CARTESIAN_POINT('',(5.450341099557,0.117177174948));
#1024 = CARTESIAN_POINT('',(5.527619213026,0.118779490361));
#1025 = CARTESIAN_POINT('',(5.604911459555,0.1203463716));
#1026 = CARTESIAN_POINT('',(5.682228778166,0.121869703013));
#1027 = CARTESIAN_POINT('',(5.759586531581,0.123342527861));
#1028 = ( GEOMETRIC_REPRESENTATION_CONTEXT(2) 
PARAMETRIC_REPRESENTATION_CONTEXT() REPRESENTATION_CONTEXT('2D SPACE',''
  ) );
#1029 = PCURVE('',#727,#1030);
#1030 = DEFINITIONAL_REPRESENTATION('',(#1031),#1076);
#1031 = B_SPLINE_CURVE_WITH_KNOTS('',8,(#1032,#1033,#1034,#1035,#1036,
    #1037,#1038,#1039,#1040,#1041,#1042,#1043,#1044,#1045,#1046,#1047,
    #1048,#1049,#1050,#1051,#1052,#1053,#1054,#1055,#1056,#1057,#1058,
    #1059,#1060,#1061,#1062,#1063,#1064,#1065,#1066,#1067,#1068,#1069,
    #1070,#1071,#1072,#1073,#1074,#1075),.UNSPECIFIED.,.F.,.F.,(9,7,7,7,
    7,7,9),(0.,0.267169437259,0.390046576975,0.498208723622,
    0.612374234154,0.804985476988,1.),.UNSPECIFIED.);
#1032 = CARTESIAN_POINT('',(1.40679685848,-1.168162110046));
#1033 = CARTESIAN_POINT('',(1.400070026494,-1.185474594913));
#1034 = CARTESIAN_POINT('',(1.394474493852,-1.203571171959));
#1035 = CARTESIAN_POINT('',(1.390187048144,-1.222304503705));
#1036 = CARTESIAN_POINT('',(1.387430244637,-1.241497974918));
#1037 = CARTESIAN_POINT('',(1.386556966244,-1.260923527645));
#1038 = CARTESIAN_POINT('',(1.387991924399,-1.280292758279));
#1039 = CARTESIAN_POINT('',(1.392546950432,-1.299195752448));
#1040 = CARTESIAN_POINT('',(1.405274717712,-1.32525463098));
#1041 = CARTESIAN_POINT('',(1.410164367607,-1.333239880885));
#1042 = CARTESIAN_POINT('',(1.416032447845,-1.340940830322));
#1043 = CARTESIAN_POINT('',(1.42298501147,-1.348289137827));
#1044 = CARTESIAN_POINT('',(1.431127758701,-1.355207331311));
#1045 = CARTESIAN_POINT('',(1.440546282863,-1.361611246081));
#1046 = CARTESIAN_POINT('',(1.45127453413,-1.367415860672));
#1047 = CARTESIAN_POINT('',(1.473794181835,-1.37705902314));
#1048 = CARTESIAN_POINT('',(1.485305788534,-1.381050292536));
#1049 = CARTESIAN_POINT('',(1.497745948862,-1.384465532374));
#1050 = CARTESIAN_POINT('',(1.511025804984,-1.387259509956));
#1051 = CARTESIAN_POINT('',(1.524997100255,-1.389397415918));
#1052 = CARTESIAN_POINT('',(1.539457323079,-1.390856272695));
#1053 = CARTESIAN_POINT('',(1.554170907942,-1.391624901765));
#1054 = CARTESIAN_POINT('',(1.584459953949,-1.391784301733));
#1055 = CARTESIAN_POINT('',(1.600038749971,-1.391096229517));
#1056 = CARTESIAN_POINT('',(1.615371456991,-1.389637250977));
#1057 = CARTESIAN_POINT('',(1.630176024429,-1.387419051018));
#1058 = CARTESIAN_POINT('',(1.644210116029,-1.384468001309));
#1059 = CARTESIAN_POINT('',(1.657299489033,-1.38082522853));
#1060 = CARTESIAN_POINT('',(1.669344412261,-1.376544731029));
#1061 = CARTESIAN_POINT('',(1.698794501905,-1.363498246716));
#1062 = CARTESIAN_POINT('',(1.714190176906,-1.353673825553));
#1063 = CARTESIAN_POINT('',(1.72630437318,-1.342514851168));
#1064 = CARTESIAN_POINT('',(1.735492585388,-1.330364291475));
#1065 = CARTESIAN_POINT('',(1.742274040469,-1.317516937741));
#1066 = CARTESIAN_POINT('',(1.747026379555,-1.304203964834));
#1067 = CARTESIAN_POINT('',(1.750090423981,-1.290609898534));
#1068 = CARTESIAN_POINT('',(1.753374656513,-1.262973261135));
#1069 = CARTESIAN_POINT('',(1.753559336504,-1.248926393234));
#1070 = CARTESIAN_POINT('',(1.752545928157,-1.234884444696));
#1071 = CARTESIAN_POINT('',(1.750527851718,-1.220963178272));
#1072 = CARTESIAN_POINT('',(1.747646618479,-1.207256405804));
#1073 = CARTESIAN_POINT('',(1.744009857121,-1.19384315867));
#1074 = CARTESIAN_POINT('',(1.739703166531,-1.180791947338));
#1075 = CARTESIAN_POINT('',(1.73479579511,-1.168162110046));
#1076 = ( GEOMETRIC_REPRESENTATION_CONTEXT(2) 
PARAMETRIC_REPRESENTATION_CONTEXT() REPRESENTATION_CONTEXT('2D SPACE',''
  ) );
#1077 = ORIENTED_EDGE('',*,*,#1078,.T.);
#1078 = EDGE_CURVE('',#933,#785,#1079,.T.);
#1079 = SURFACE_CURVE('',#1080,(#1088,#1099),.PCURVE_S1.);
#1080 = B_SPLINE_CURVE_WITH_KNOTS('',6,(#1081,#1082,#1083,#1084,#1085,
    #1086,#1087),.UNSPECIFIED.,.F.,.F.,(7,7),(0.,1.),
  .PIECEWISE_BEZIER_KNOTS.);
#1081 = CARTESIAN_POINT('',(-4.000000000001E-03,4.834252786109E-02,
    6.928203230275E-03));
#1082 = CARTESIAN_POINT('',(-3.394916655618E-03,4.667972090074E-02,
    7.277548262036E-03));
#1083 = CARTESIAN_POINT('',(-2.753559478437E-03,4.494921435618E-02,
    7.563282649064E-03));
#1084 = CARTESIAN_POINT('',(-2.084174419171E-03,4.316295825368E-02,
    7.78082447852E-03));
#1085 = CARTESIAN_POINT('',(-1.395795200199E-03,4.133558951876E-02,
    7.92693688922E-03));
#1086 = CARTESIAN_POINT('',(-6.979178933637E-04,3.948530453357E-02,
    8.E-03));
#1087 = CARTESIAN_POINT('',(-1.734723475977E-18,3.763774701015E-02,
    8.E-03));
#1088 = PCURVE('',#377,#1089);
#1089 = DEFINITIONAL_REPRESENTATION('',(#1090),#1098);
#1090 = B_SPLINE_CURVE_WITH_KNOTS('',6,(#1091,#1092,#1093,#1094,#1095,
    #1096,#1097),.UNSPECIFIED.,.F.,.F.,(7,7),(0.,1.),
  .PIECEWISE_BEZIER_KNOTS.);
#1091 = CARTESIAN_POINT('',(5.759586531581,0.123342527861));
#1092 = CARTESIAN_POINT('',(5.846922789522,0.121679720901));
#1093 = CARTESIAN_POINT('',(5.9342101819,0.119949214356));
#1094 = CARTESIAN_POINT('',(6.021468506466,0.118162958254));
#1095 = CARTESIAN_POINT('',(6.108710875037,0.116335589519));
#1096 = CARTESIAN_POINT('',(6.195945570509,0.114485304534));
#1097 = CARTESIAN_POINT('',(6.28318530718,0.11263774701));
#1098 = ( GEOMETRIC_REPRESENTATION_CONTEXT(2) 
PARAMETRIC_REPRESENTATION_CONTEXT() REPRESENTATION_CONTEXT('2D SPACE',''
  ) );
#1099 = PCURVE('',#527,#1100);
#1100 = DEFINITIONAL_REPRESENTATION('',(#1101),#1109);
#1101 = B_SPLINE_CURVE_WITH_KNOTS('',6,(#1102,#1103,#1104,#1105,#1106,
    #1107,#1108),.UNSPECIFIED.,.F.,.F.,(7,7),(0.,1.),
  .PIECEWISE_BEZIER_KNOTS.);
#1102 = CARTESIAN_POINT('',(1.73479579511,1.168162110046));
#1103 = CARTESIAN_POINT('',(1.740336176485,1.182421090934));
#1104 = CARTESIAN_POINT('',(1.745072939155,1.197244919858));
#1105 = CARTESIAN_POINT('',(1.748887936419,1.212531611933));
#1106 = CARTESIAN_POINT('',(1.751623889099,1.228158130626));
#1107 = CARTESIAN_POINT('',(1.753062348559,1.243974037774));
#1108 = CARTESIAN_POINT('',(1.752834453878,1.259767431042));
#1109 = ( GEOMETRIC_REPRESENTATION_CONTEXT(2) 
PARAMETRIC_REPRESENTATION_CONTEXT() REPRESENTATION_CONTEXT('2D SPACE',''
  ) );
#1110 = ORIENTED_EDGE('',*,*,#784,.T.);
#1111 = ADVANCED_FACE('',(#1112),#527,.F.);
#1112 = FACE_BOUND('',#1113,.F.);
#1113 = EDGE_LOOP('',(#1114,#1138,#1162,#1163,#1185,#1186,#1187,#1209,
    #1210));
#1114 = ORIENTED_EDGE('',*,*,#1115,.T.);
#1115 = EDGE_CURVE('',#444,#1116,#1118,.T.);
#1116 = VERTEX_POINT('',#1117);
#1117 = CARTESIAN_POINT('',(2.45E-02,-1.200153863164E-17,
    -4.243524478544E-02));
#1118 = SURFACE_CURVE('',#1119,(#1124,#1131),.PCURVE_S1.);
#1119 = CIRCLE('',#1120,4.9E-02);
#1120 = AXIS2_PLACEMENT_3D('',#1121,#1122,#1123);
#1121 = CARTESIAN_POINT('',(0.,0.,0.));
#1122 = DIRECTION('',(0.866025403784,0.,0.5));
#1123 = DIRECTION('',(0.,-1.,0.));
#1124 = PCURVE('',#527,#1125);
#1125 = DEFINITIONAL_REPRESENTATION('',(#1126),#1130);
#1126 = LINE('',#1127,#1128);
#1127 = CARTESIAN_POINT('',(-1.570796326795,1.168162110046));
#1128 = VECTOR('',#1129,1.);
#1129 = DIRECTION('',(1.,0.));
#1130 = ( GEOMETRIC_REPRESENTATION_CONTEXT(2) 
PARAMETRIC_REPRESENTATION_CONTEXT() REPRESENTATION_CONTEXT('2D SPACE',''
  ) );
#1131 = PCURVE('',#727,#1132);
#1132 = DEFINITIONAL_REPRESENTATION('',(#1133),#1137);
#1133 = LINE('',#1134,#1135);
#1134 = CARTESIAN_POINT('',(-1.570796326795,-1.168162110046));
#1135 = VECTOR('',#1136,1.);
#1136 = DIRECTION('',(1.,0.));
#1137 = ( GEOMETRIC_REPRESENTATION_CONTEXT(2) 
PARAMETRIC_REPRESENTATION_CONTEXT() REPRESENTATION_CONTEXT('2D SPACE',''
  ) );
#1138 = ORIENTED_EDGE('',*,*,#1139,.T.);
#1139 = EDGE_CURVE('',#1116,#1140,#1142,.T.);
#1140 = VERTEX_POINT('',#1141);
#1141 = CARTESIAN_POINT('',(8.660254037844E-03,-1.875449608219E-33,
    5.E-03));
#1142 = SEAM_CURVE('',#1143,(#1148,#1155),.PCURVE_S1.);
#1143 = CIRCLE('',#1144,0.12505);
#1144 = AXIS2_PLACEMENT_3D('',#1145,#1146,#1147);
#1145 = CARTESIAN_POINT('',(-9.96362227054E-02,0.,-5.7525E-02));
#1146 = DIRECTION('',(-1.224646799147E-16,-1.,2.12115047745E-16));
#1147 = DIRECTION('',(0.5,-2.449293598295E-16,-0.866025403784));
#1148 = PCURVE('',#527,#1149);
#1149 = DEFINITIONAL_REPRESENTATION('',(#1150),#1154);
#1150 = LINE('',#1151,#1152);
#1151 = CARTESIAN_POINT('',(0.,-6.28318530718));
#1152 = VECTOR('',#1153,1.);
#1153 = DIRECTION('',(0.,1.));
#1154 = ( GEOMETRIC_REPRESENTATION_CONTEXT(2) 
PARAMETRIC_REPRESENTATION_CONTEXT() REPRESENTATION_CONTEXT('2D SPACE',''
  ) );
#1155 = PCURVE('',#527,#1156);
#1156 = DEFINITIONAL_REPRESENTATION('',(#1157),#1161);
#1157 = LINE('',#1158,#1159);
#1158 = CARTESIAN_POINT('',(6.28318530718,-6.28318530718));
#1159 = VECTOR('',#1160,1.);
#1160 = DIRECTION('',(0.,1.));
#1161 = ( GEOMETRIC_REPRESENTATION_CONTEXT(2) 
PARAMETRIC_REPRESENTATION_CONTEXT() REPRESENTATION_CONTEXT('2D SPACE',''
  ) );
#1162 = ORIENTED_EDGE('',*,*,#1139,.F.);
#1163 = ORIENTED_EDGE('',*,*,#1164,.T.);
#1164 = EDGE_CURVE('',#1116,#808,#1165,.T.);
#1165 = SURFACE_CURVE('',#1166,(#1171,#1178),.PCURVE_S1.);
#1166 = CIRCLE('',#1167,4.9E-02);
#1167 = AXIS2_PLACEMENT_3D('',#1168,#1169,#1170);
#1168 = CARTESIAN_POINT('',(0.,0.,0.));
#1169 = DIRECTION('',(0.866025403784,0.,0.5));
#1170 = DIRECTION('',(0.,-1.,0.));
#1171 = PCURVE('',#527,#1172);
#1172 = DEFINITIONAL_REPRESENTATION('',(#1173),#1177);
#1173 = LINE('',#1174,#1175);
#1174 = CARTESIAN_POINT('',(-1.570796326795,1.168162110046));
#1175 = VECTOR('',#1176,1.);
#1176 = DIRECTION('',(1.,0.));
#1177 = ( GEOMETRIC_REPRESENTATION_CONTEXT(2) 
PARAMETRIC_REPRESENTATION_CONTEXT() REPRESENTATION_CONTEXT('2D SPACE',''
  ) );
#1178 = PCURVE('',#727,#1179);
#1179 = DEFINITIONAL_REPRESENTATION('',(#1180),#1184);
#1180 = LINE('',#1181,#1182);
#1181 = CARTESIAN_POINT('',(-1.570796326795,-1.168162110046));
#1182 = VECTOR('',#1183,1.);
#1183 = DIRECTION('',(1.,0.));
#1184 = ( GEOMETRIC_REPRESENTATION_CONTEXT(2) 
PARAMETRIC_REPRESENTATION_CONTEXT() REPRESENTATION_CONTEXT('2D SPACE',''
  ) );
#1185 = ORIENTED_EDGE('',*,*,#807,.F.);
#1186 = ORIENTED_EDGE('',*,*,#1078,.F.);
#1187 = ORIENTED_EDGE('',*,*,#1188,.T.);
#1188 = EDGE_CURVE('',#933,#597,#1189,.T.);
#1189 = SURFACE_CURVE('',#1190,(#1195,#1202),.PCURVE_S1.);
#1190 = CIRCLE('',#1191,4.9E-02);
#1191 = AXIS2_PLACEMENT_3D('',#1192,#1193,#1194);
#1192 = CARTESIAN_POINT('',(0.,0.,0.));
#1193 = DIRECTION('',(0.866025403784,0.,0.5));
#1194 = DIRECTION('',(0.,-1.,0.));
#1195 = PCURVE('',#527,#1196);
#1196 = DEFINITIONAL_REPRESENTATION('',(#1197),#1201);
#1197 = LINE('',#1198,#1199);
#1198 = CARTESIAN_POINT('',(-1.570796326795,1.168162110046));
#1199 = VECTOR('',#1200,1.);
#1200 = DIRECTION('',(1.,0.));
#1201 = ( GEOMETRIC_REPRESENTATION_CONTEXT(2) 
PARAMETRIC_REPRESENTATION_CONTEXT() REPRESENTATION_CONTEXT('2D SPACE',''
  ) );
#1202 = PCURVE('',#727,#1203);
#1203 = DEFINITIONAL_REPRESENTATION('',(#1204),#1208);
#1204 = LINE('',#1205,#1206);
#1205 = CARTESIAN_POINT('',(-1.570796326795,-1.168162110046));
#1206 = VECTOR('',#1207,1.);
#1207 = DIRECTION('',(1.,0.));
#1208 = ( GEOMETRIC_REPRESENTATION_CONTEXT(2) 
PARAMETRIC_REPRESENTATION_CONTEXT() REPRESENTATION_CONTEXT('2D SPACE',''
  ) );
#1209 = ORIENTED_EDGE('',*,*,#596,.T.);
#1210 = ORIENTED_EDGE('',*,*,#441,.T.);
#1211 = ADVANCED_FACE('',(#1212),#727,.F.);
#1212 = FACE_BOUND('',#1213,.F.);
#1213 = EDGE_LOOP('',(#1214,#1238,#1239,#1240,#1241,#1242,#1243));
#1214 = ORIENTED_EDGE('',*,*,#1215,.T.);
#1215 = EDGE_CURVE('',#1216,#1116,#1218,.T.);
#1216 = VERTEX_POINT('',#1217);
#1217 = CARTESIAN_POINT('',(-8.660254037844E-03,-1.875449608219E-33,
    -5.E-03));
#1218 = SEAM_CURVE('',#1219,(#1224,#1231),.PCURVE_S1.);
#1219 = CIRCLE('',#1220,0.12505);
#1220 = AXIS2_PLACEMENT_3D('',#1221,#1222,#1223);
#1221 = CARTESIAN_POINT('',(9.96362227054E-02,0.,5.7525E-02));
#1222 = DIRECTION('',(-1.224646799147E-16,-1.,2.12115047745E-16));
#1223 = DIRECTION('',(0.5,-2.449293598295E-16,-0.866025403784));
#1224 = PCURVE('',#727,#1225);
#1225 = DEFINITIONAL_REPRESENTATION('',(#1226),#1230);
#1226 = LINE('',#1227,#1228);
#1227 = CARTESIAN_POINT('',(6.28318530718,-6.28318530718));
#1228 = VECTOR('',#1229,1.);
#1229 = DIRECTION('',(0.,1.));
#1230 = ( GEOMETRIC_REPRESENTATION_CONTEXT(2) 
PARAMETRIC_REPRESENTATION_CONTEXT() REPRESENTATION_CONTEXT('2D SPACE',''
  ) );
#1231 = PCURVE('',#727,#1232);
#1232 = DEFINITIONAL_REPRESENTATION('',(#1233),#1237);
#1233 = LINE('',#1234,#1235);
#1234 = CARTESIAN_POINT('',(0.,-6.28318530718));
#1235 = VECTOR('',#1236,1.);
#1236 = DIRECTION('',(0.,1.));
#1237 = ( GEOMETRIC_REPRESENTATION_CONTEXT(2) 
PARAMETRIC_REPRESENTATION_CONTEXT() REPRESENTATION_CONTEXT('2D SPACE',''
  ) );
#1238 = ORIENTED_EDGE('',*,*,#1115,.F.);
#1239 = ORIENTED_EDGE('',*,*,#631,.T.);
#1240 = ORIENTED_EDGE('',*,*,#1188,.F.);
#1241 = ORIENTED_EDGE('',*,*,#932,.F.);
#1242 = ORIENTED_EDGE('',*,*,#1164,.F.);
#1243 = ORIENTED_EDGE('',*,*,#1215,.F.);
#1244 = ( GEOMETRIC_REPRESENTATION_CONTEXT(3) 
GLOBAL_UNCERTAINTY_ASSIGNED_CONTEXT((#1248)) 
GLOBAL_UNIT_ASSIGNED_CONTEXT((#1245,#1246,#1247)) REPRESENTATION_CONTEXT
('Context #1','3D Context with UNIT and UNCERTAINTY') );
#1245 = ( LENGTH_UNIT() NAMED_UNIT(*) SI_UNIT($,.METRE.) );
#1246 = ( NAMED_UNIT(*) PLANE_ANGLE_UNIT() SI_UNIT($,.RADIAN.) );
#1247 = ( NAMED_UNIT(*) SI_UNIT($,.STERADIAN.) SOLID_ANGLE_UNIT() );
#1248 = UNCERTAINTY_MEASURE_WITH_UNIT(LENGTH_MEASURE(1.E-07),#1245,
  'distance_accuracy_value','confusion accuracy');
#1249 = CONTEXT_DEPENDENT_SHAPE_REPRESENTATION(#1250,#1252);
#1250 = ( REPRESENTATION_RELATIONSHIP('','',#32,#10) 
REPRESENTATION_RELATIONSHIP_WITH_TRANSFORMATION(#1251) 
SHAPE_REPRESENTATION_RELATIONSHIP() );
#1251 = ITEM_DEFINED_TRANSFORMATION('','',#11,#15);
#1252 = PRODUCT_DEFINITION_SHAPE('Placement','Placement of an item',
  #1253);
#1253 = NEXT_ASSEMBLY_USAGE_OCCURRENCE('7','Fluido','',#5,#27,$);
#1254 = PRODUCT_RELATED_PRODUCT_CATEGORY('part',$,(#29));
#1255 = MECHANICAL_DESIGN_GEOMETRIC_PRESENTATION_REPRESENTATION('',(
    #1256),#1244);
#1256 = STYLED_ITEM('color',(#1257),#33);
#1257 = PRESENTATION_STYLE_ASSIGNMENT((#1258));
#1258 = SURFACE_STYLE_USAGE(.BOTH.,#1259);
#1259 = SURFACE_SIDE_STYLE('',(#1260));
#1260 = SURFACE_STYLE_FILL_AREA(#1261);
#1261 = FILL_AREA_STYLE('',(#1262));
#1262 = FILL_AREA_STYLE_COLOUR('',#1263);
#1263 = COLOUR_RGB('',0.274509682866,0.509803958822,0.705882339664);
ENDSEC;
END-ISO-10303-21;
