ISO-10303-21;
HEADER;
FILE_DESCRIPTION(('Open CASCADE Model'),'2;1');
FILE_NAME('Open CASCADE Shape Model','2026-08-18T19:31:34',('Author'),(
    'Open CASCADE'),'Open CASCADE STEP processor 7.9','Open CASCADE 7.9'
  ,'Unknown');
FILE_SCHEMA(('AUTOMOTIVE_DESIGN { 1 0 10303 214 1 1 1 1 }'));
ENDSEC;
DATA;
#1 = APPLICATION_PROTOCOL_DEFINITION('international standard',
  'automotive_design',2000,#2);
#2 = APPLICATION_CONTEXT(
  'core data for automotive mechanical design processes');
#3 = SHAPE_DEFINITION_REPRESENTATION(#4,#10);
#4 = PRODUCT_DEFINITION_SHAPE('','',#5);
#5 = PRODUCT_DEFINITION('design','',#6,#9);
#6 = PRODUCT_DEFINITION_FORMATION('','',#7);
#7 = PRODUCT('Fluido_40graus','Fluido_40graus','',(#8));
#8 = PRODUCT_CONTEXT('',#2,'mechanical');
#9 = PRODUCT_DEFINITION_CONTEXT('part definition',#2,'design');
#10 = SHAPE_REPRESENTATION('',(#11,#15),#19);
#11 = AXIS2_PLACEMENT_3D('',#12,#13,#14);
#12 = CARTESIAN_POINT('',(0.,0.,0.));
#13 = DIRECTION('',(0.,0.,1.));
#14 = DIRECTION('',(1.,0.,-0.));
#15 = AXIS2_PLACEMENT_3D('',#16,#17,#18);
#16 = CARTESIAN_POINT('',(0.,0.,0.));
#17 = DIRECTION('',(0.,0.,1.));
#18 = DIRECTION('',(1.,0.,-0.));
#19 = ( GEOMETRIC_REPRESENTATION_CONTEXT(3) 
GLOBAL_UNCERTAINTY_ASSIGNED_CONTEXT((#23)) GLOBAL_UNIT_ASSIGNED_CONTEXT(
(#20,#21,#22)) REPRESENTATION_CONTEXT('Context #1',
  '3D Context with UNIT and UNCERTAINTY') );
#20 = ( LENGTH_UNIT() NAMED_UNIT(*) SI_UNIT($,.METRE.) );
#21 = ( NAMED_UNIT(*) PLANE_ANGLE_UNIT() SI_UNIT($,.RADIAN.) );
#22 = ( NAMED_UNIT(*) SI_UNIT($,.STERADIAN.) SOLID_ANGLE_UNIT() );
#23 = UNCERTAINTY_MEASURE_WITH_UNIT(LENGTH_MEASURE(1.E-07),#20,
  'distance_accuracy_value','confusion accuracy');
#24 = PRODUCT_RELATED_PRODUCT_CATEGORY('part',$,(#7));
#25 = SHAPE_DEFINITION_REPRESENTATION(#26,#32);
#26 = PRODUCT_DEFINITION_SHAPE('','',#27);
#27 = PRODUCT_DEFINITION('design','',#28,#31);
#28 = PRODUCT_DEFINITION_FORMATION('','',#29);
#29 = PRODUCT('Fluido','Fluido','',(#30));
#30 = PRODUCT_CONTEXT('',#2,'mechanical');
#31 = PRODUCT_DEFINITION_CONTEXT('part definition',#2,'design');
#32 = ADVANCED_BREP_SHAPE_REPRESENTATION('',(#11,#33),#1214);
#33 = MANIFOLD_SOLID_BREP('',#34);
#34 = CLOSED_SHELL('',(#35,#429,#433,#437,#764,#1081,#1181));
#35 = ADVANCED_FACE('',(#36,#123,#276),#50,.T.);
#36 = FACE_BOUND('',#37,.T.);
#37 = EDGE_LOOP('',(#38,#68,#95,#96));
#38 = ORIENTED_EDGE('',*,*,#39,.T.);
#39 = EDGE_CURVE('',#40,#42,#44,.T.);
#40 = VERTEX_POINT('',#41);
#41 = CARTESIAN_POINT('',(-0.5,1.224646799147E-17,5.E-02));
#42 = VERTEX_POINT('',#43);
#43 = CARTESIAN_POINT('',(1.,1.224646799147E-17,5.E-02));
#44 = SEAM_CURVE('',#45,(#49,#61),.PCURVE_S1.);
#45 = LINE('',#46,#47);
#46 = CARTESIAN_POINT('',(-0.5,1.224646799147E-17,5.E-02));
#47 = VECTOR('',#48,1.);
#48 = DIRECTION('',(1.,0.,0.));
#49 = PCURVE('',#50,#55);
#50 = CYLINDRICAL_SURFACE('',#51,5.E-02);
#51 = AXIS2_PLACEMENT_3D('',#52,#53,#54);
#52 = CARTESIAN_POINT('',(-0.5,0.,0.));
#53 = DIRECTION('',(1.,0.,0.));
#54 = DIRECTION('',(-0.,0.,1.));
#55 = DEFINITIONAL_REPRESENTATION('',(#56),#60);
#56 = LINE('',#57,#58);
#57 = CARTESIAN_POINT('',(6.28318530718,-0.));
#58 = VECTOR('',#59,1.);
#59 = DIRECTION('',(0.,1.));
#60 = ( GEOMETRIC_REPRESENTATION_CONTEXT(2) 
PARAMETRIC_REPRESENTATION_CONTEXT() REPRESENTATION_CONTEXT('2D SPACE',''
  ) );
#61 = PCURVE('',#50,#62);
#62 = DEFINITIONAL_REPRESENTATION('',(#63),#67);
#63 = LINE('',#64,#65);
#64 = CARTESIAN_POINT('',(0.,-0.));
#65 = VECTOR('',#66,1.);
#66 = DIRECTION('',(0.,1.));
#67 = ( GEOMETRIC_REPRESENTATION_CONTEXT(2) 
PARAMETRIC_REPRESENTATION_CONTEXT() REPRESENTATION_CONTEXT('2D SPACE',''
  ) );
#68 = ORIENTED_EDGE('',*,*,#69,.F.);
#69 = EDGE_CURVE('',#42,#42,#70,.T.);
#70 = SURFACE_CURVE('',#71,(#76,#83),.PCURVE_S1.);
#71 = CIRCLE('',#72,5.E-02);
#72 = AXIS2_PLACEMENT_3D('',#73,#74,#75);
#73 = CARTESIAN_POINT('',(1.,0.,0.));
#74 = DIRECTION('',(1.,0.,0.));
#75 = DIRECTION('',(-0.,0.,1.));
#76 = PCURVE('',#50,#77);
#77 = DEFINITIONAL_REPRESENTATION('',(#78),#82);
#78 = LINE('',#79,#80);
#79 = CARTESIAN_POINT('',(0.,1.5));
#80 = VECTOR('',#81,1.);
#81 = DIRECTION('',(1.,0.));
#82 = ( GEOMETRIC_REPRESENTATION_CONTEXT(2) 
PARAMETRIC_REPRESENTATION_CONTEXT() REPRESENTATION_CONTEXT('2D SPACE',''
  ) );
#83 = PCURVE('',#84,#89);
#84 = PLANE('',#85);
#85 = AXIS2_PLACEMENT_3D('',#86,#87,#88);
#86 = CARTESIAN_POINT('',(1.,0.,0.));
#87 = DIRECTION('',(1.,0.,0.));
#88 = DIRECTION('',(-0.,0.,1.));
#89 = DEFINITIONAL_REPRESENTATION('',(#90),#94);
#90 = CIRCLE('',#91,5.E-02);
#91 = AXIS2_PLACEMENT_2D('',#92,#93);
#92 = CARTESIAN_POINT('',(0.,0.));
#93 = DIRECTION('',(1.,0.));
#94 = ( GEOMETRIC_REPRESENTATION_CONTEXT(2) 
PARAMETRIC_REPRESENTATION_CONTEXT() REPRESENTATION_CONTEXT('2D SPACE',''
  ) );
#95 = ORIENTED_EDGE('',*,*,#39,.F.);
#96 = ORIENTED_EDGE('',*,*,#97,.T.);
#97 = EDGE_CURVE('',#40,#40,#98,.T.);
#98 = SURFACE_CURVE('',#99,(#104,#111),.PCURVE_S1.);
#99 = CIRCLE('',#100,5.E-02);
#100 = AXIS2_PLACEMENT_3D('',#101,#102,#103);
#101 = CARTESIAN_POINT('',(-0.5,0.,0.));
#102 = DIRECTION('',(1.,0.,0.));
#103 = DIRECTION('',(-0.,0.,1.));
#104 = PCURVE('',#50,#105);
#105 = DEFINITIONAL_REPRESENTATION('',(#106),#110);
#106 = LINE('',#107,#108);
#107 = CARTESIAN_POINT('',(0.,0.));
#108 = VECTOR('',#109,1.);
#109 = DIRECTION('',(1.,0.));
#110 = ( GEOMETRIC_REPRESENTATION_CONTEXT(2) 
PARAMETRIC_REPRESENTATION_CONTEXT() REPRESENTATION_CONTEXT('2D SPACE',''
  ) );
#111 = PCURVE('',#112,#117);
#112 = PLANE('',#113);
#113 = AXIS2_PLACEMENT_3D('',#114,#115,#116);
#114 = CARTESIAN_POINT('',(-0.5,0.,0.));
#115 = DIRECTION('',(1.,0.,0.));
#116 = DIRECTION('',(-0.,0.,1.));
#117 = DEFINITIONAL_REPRESENTATION('',(#118),#122);
#118 = CIRCLE('',#119,5.E-02);
#119 = AXIS2_PLACEMENT_2D('',#120,#121);
#120 = CARTESIAN_POINT('',(0.,0.));
#121 = DIRECTION('',(1.,0.));
#122 = ( GEOMETRIC_REPRESENTATION_CONTEXT(2) 
PARAMETRIC_REPRESENTATION_CONTEXT() REPRESENTATION_CONTEXT('2D SPACE',''
  ) );
#123 = FACE_BOUND('',#124,.T.);
#124 = EDGE_LOOP('',(#125));
#125 = ORIENTED_EDGE('',*,*,#126,.T.);
#126 = EDGE_CURVE('',#127,#127,#129,.T.);
#127 = VERTEX_POINT('',#128);
#128 = CARTESIAN_POINT('',(-1.959434878636E-18,-4.935585071701E-02,
    8.E-03));
#129 = SURFACE_CURVE('',#130,(#175,#223),.PCURVE_S1.);
#130 = B_SPLINE_CURVE_WITH_KNOTS('',8,(#131,#132,#133,#134,#135,#136,
    #137,#138,#139,#140,#141,#142,#143,#144,#145,#146,#147,#148,#149,
    #150,#151,#152,#153,#154,#155,#156,#157,#158,#159,#160,#161,#162,
    #163,#164,#165,#166,#167,#168,#169,#170,#171,#172,#173,#174),
  .UNSPECIFIED.,.T.,.F.,(9,7,7,7,7,7,9),(0.,0.139446999999,
    0.290711047851,0.500652341094,0.639735947188,0.790605806321,1.),
  .UNSPECIFIED.);
#131 = CARTESIAN_POINT('',(-1.734723475977E-18,-4.935585071701E-02,
    8.E-03));
#132 = CARTESIAN_POINT('',(8.83192481735E-04,-4.935585071701E-02,8.E-03)
  );
#133 = CARTESIAN_POINT('',(1.764819183317E-03,-4.937383209112E-02,
    7.888541975783E-03));
#134 = CARTESIAN_POINT('',(2.629239797021E-03,-4.940994971838E-02,
    7.666373094318E-03));
#135 = CARTESIAN_POINT('',(3.460586417668E-03,-4.94620293382E-02,
    7.336583290209E-03));
#136 = CARTESIAN_POINT('',(4.243374203103E-03,-4.952618040107E-02,
    6.904862078398E-03));
#137 = CARTESIAN_POINT('',(4.963112034685E-03,-4.959740891922E-02,
    6.379755366867E-03));
#138 = CARTESIAN_POINT('',(5.606913177773E-03,-4.967023031737E-02,
    5.772922269341E-03));
#139 = CARTESIAN_POINT('',(6.768516456475E-03,-4.981418586606E-02,
    4.368785111835E-03));
#140 = CARTESIAN_POINT('',(7.271613076615E-03,-4.988480284108E-02,
    3.559089185093E-03));
#141 = CARTESIAN_POINT('',(7.660870364966E-03,-4.994464210693E-02,
    2.688605692072E-03));
#142 = CARTESIAN_POINT('',(7.93377292135E-03,-4.998893640042E-02,
    1.769246455985E-03));
#143 = CARTESIAN_POINT('',(8.076681013922E-03,-5.001272522343E-02,
    8.228671232586E-04));
#144 = CARTESIAN_POINT('',(8.095963897651E-03,-5.001548411034E-02,
    -1.315654550236E-04));
#145 = CARTESIAN_POINT('',(7.981904161422E-03,-4.999657690544E-02,
    -1.081113665575E-03));
#146 = CARTESIAN_POINT('',(7.424950095632E-03,-4.991019548285E-02,
    -3.250306533836E-03));
#147 = CARTESIAN_POINT('',(6.861907959805E-03,-4.98252274177E-02,
    -4.469503626413E-03));
#148 = CARTESIAN_POINT('',(6.06597478154E-03,-4.971244248905E-02,
    -5.574176043587E-03));
#149 = CARTESIAN_POINT('',(5.070869579044E-03,-4.958954915689E-02,
    -6.511983258196E-03));
#150 = CARTESIAN_POINT('',(3.919113723493E-03,-4.947825380243E-02,
    -7.2447906268E-03));
#151 = CARTESIAN_POINT('',(2.656669854292E-03,-4.939701071676E-02,
    -7.746076325063E-03));
#152 = CARTESIAN_POINT('',(1.333144696235E-03,-4.935585071701E-02,
    -8.E-03));
#153 = CARTESIAN_POINT('',(-8.831924817348E-04,-4.935585071701E-02,
    -8.E-03));
#154 = CARTESIAN_POINT('',(-1.764819183316E-03,-4.937383209112E-02,
    -7.888541975783E-03));
#155 = CARTESIAN_POINT('',(-2.629239797021E-03,-4.940994971838E-02,
    -7.666373094318E-03));
#156 = CARTESIAN_POINT('',(-3.460586417668E-03,-4.94620293382E-02,
    -7.336583290209E-03));
#157 = CARTESIAN_POINT('',(-4.243374203103E-03,-4.952618040107E-02,
    -6.904862078398E-03));
#158 = CARTESIAN_POINT('',(-4.963112034685E-03,-4.959740891922E-02,
    -6.379755366867E-03));
#159 = CARTESIAN_POINT('',(-5.606913177772E-03,-4.967023031737E-02,
    -5.772922269341E-03));
#160 = CARTESIAN_POINT('',(-6.768516456433E-03,-4.981418586606E-02,
    -4.368785111885E-03));
#161 = CARTESIAN_POINT('',(-7.271613076774E-03,-4.98848028411E-02,
    -3.559089184916E-03));
#162 = CARTESIAN_POINT('',(-7.660870364804E-03,-4.994464210691E-02,
    -2.688605692144E-03));
#163 = CARTESIAN_POINT('',(-7.9337729214E-03,-4.998893640042E-02,
    -1.769246456082E-03));
#164 = CARTESIAN_POINT('',(-8.076681013993E-03,-5.001272522344E-02,
    -8.228671231914E-04));
#165 = CARTESIAN_POINT('',(-8.095963897554E-03,-5.001548411032E-02,
    1.315654552078E-04));
#166 = CARTESIAN_POINT('',(-7.981904161473E-03,-4.999657690544E-02,
    1.081113665375E-03));
#167 = CARTESIAN_POINT('',(-7.42495009561E-03,-4.991019548285E-02,
    3.250306533918E-03));
#168 = CARTESIAN_POINT('',(-6.861907959875E-03,-4.982522741771E-02,
    4.469503626192E-03));
#169 = CARTESIAN_POINT('',(-6.065974781516E-03,-4.971244248904E-02,
    5.574176043768E-03));
#170 = CARTESIAN_POINT('',(-5.070869578933E-03,-4.958954915688E-02,
    6.511983258271E-03));
#171 = CARTESIAN_POINT('',(-3.919113723524E-03,-4.947825380244E-02,
    7.244790626625E-03));
#172 = CARTESIAN_POINT('',(-2.656669854468E-03,-4.939701071676E-02,
    7.74607632513E-03));
#173 = CARTESIAN_POINT('',(-1.333144696094E-03,-4.935585071701E-02,
    8.E-03));
#174 = CARTESIAN_POINT('',(-1.734723475977E-18,-4.935585071701E-02,
    8.E-03));
#175 = PCURVE('',#50,#176);
#176 = DEFINITIONAL_REPRESENTATION('',(#177),#222);
#177 = B_SPLINE_CURVE_WITH_KNOTS('',8,(#178,#179,#180,#181,#182,#183,
    #184,#185,#186,#187,#188,#189,#190,#191,#192,#193,#194,#195,#196,
    #197,#198,#199,#200,#201,#202,#203,#204,#205,#206,#207,#208,#209,
    #210,#211,#212,#213,#214,#215,#216,#217,#218,#219,#220,#221),
  .UNSPECIFIED.,.F.,.F.,(9,7,7,7,7,7,9),(0.,0.139446999999,
    0.290711047851,0.500652341094,0.639735947188,0.790605806321,1.),
  .UNSPECIFIED.);
#178 = CARTESIAN_POINT('',(1.410105673843,0.5));
#179 = CARTESIAN_POINT('',(1.410105673843,0.500883192482));
#180 = CARTESIAN_POINT('',(1.412363676587,0.501764819183));
#181 = CARTESIAN_POINT('',(1.416865462299,0.502629239797));
#182 = CARTESIAN_POINT('',(1.423542761836,0.503460586418));
#183 = CARTESIAN_POINT('',(1.432271129247,0.504243374203));
#184 = CARTESIAN_POINT('',(1.442867814339,0.504963112035));
#185 = CARTESIAN_POINT('',(1.455089635241,0.505606913178));
#186 = CARTESIAN_POINT('',(1.483319579322,0.506768516456));
#187 = CARTESIAN_POINT('',(1.499573074603,0.507271613077));
#188 = CARTESIAN_POINT('',(1.517018996573,0.507660870365));
#189 = CARTESIAN_POINT('',(1.535419011809,0.507933772921));
#190 = CARTESIAN_POINT('',(1.554343108211,0.508076681014));
#191 = CARTESIAN_POINT('',(1.573423762992,0.508095963898));
#192 = CARTESIAN_POINT('',(1.592414707791,0.507981904161));
#193 = CARTESIAN_POINT('',(1.63583295027,0.507424950096));
#194 = CARTESIAN_POINT('',(1.660265283411,0.50686190796));
#195 = CARTESIAN_POINT('',(1.682455070536,0.506065974782));
#196 = CARTESIAN_POINT('',(1.701362071631,0.505070869579));
#197 = CARTESIAN_POINT('',(1.716185655021,0.503919113723));
#198 = CARTESIAN_POINT('',(1.72634224735,0.502656669854));
#199 = CARTESIAN_POINT('',(1.731486979747,0.501333144696));
#200 = CARTESIAN_POINT('',(1.731486979747,0.499116807518));
#201 = CARTESIAN_POINT('',(1.729228977003,0.498235180817));
#202 = CARTESIAN_POINT('',(1.724727191291,0.497370760203));
#203 = CARTESIAN_POINT('',(1.718049891754,0.496539413582));
#204 = CARTESIAN_POINT('',(1.709321524343,0.495756625797));
#205 = CARTESIAN_POINT('',(1.69872483925,0.495036887965));
#206 = CARTESIAN_POINT('',(1.686503018349,0.494393086822));
#207 = CARTESIAN_POINT('',(1.658273074268,0.493231483544));
#208 = CARTESIAN_POINT('',(1.642019578983,0.492728386923));
#209 = CARTESIAN_POINT('',(1.624573657018,0.492339129635));
#210 = CARTESIAN_POINT('',(1.606173641783,0.492066227079));
#211 = CARTESIAN_POINT('',(1.587249545378,0.491923318986));
#212 = CARTESIAN_POINT('',(1.568168890594,0.491904036102));
#213 = CARTESIAN_POINT('',(1.549177945803,0.492018095839));
#214 = CARTESIAN_POINT('',(1.505759703318,0.492575049904));
#215 = CARTESIAN_POINT('',(1.481327370183,0.49313809204));
#216 = CARTESIAN_POINT('',(1.45913758305,0.493934025218));
#217 = CARTESIAN_POINT('',(1.440230581957,0.494929130421));
#218 = CARTESIAN_POINT('',(1.425406998573,0.496080886276));
#219 = CARTESIAN_POINT('',(1.415250406239,0.497343330146));
#220 = CARTESIAN_POINT('',(1.410105673843,0.498666855304));
#221 = CARTESIAN_POINT('',(1.410105673843,0.5));
#222 = ( GEOMETRIC_REPRESENTATION_CONTEXT(2) 
PARAMETRIC_REPRESENTATION_CONTEXT() REPRESENTATION_CONTEXT('2D SPACE',''
  ) );
#223 = PCURVE('',#224,#229);
#224 = CYLINDRICAL_SURFACE('',#225,8.E-03);
#225 = AXIS2_PLACEMENT_3D('',#226,#227,#228);
#226 = CARTESIAN_POINT('',(0.,-7.5E-02,0.));
#227 = DIRECTION('',(0.,1.,0.));
#228 = DIRECTION('',(0.,-0.,1.));
#229 = DEFINITIONAL_REPRESENTATION('',(#230),#275);
#230 = B_SPLINE_CURVE_WITH_KNOTS('',8,(#231,#232,#233,#234,#235,#236,
    #237,#238,#239,#240,#241,#242,#243,#244,#245,#246,#247,#248,#249,
    #250,#251,#252,#253,#254,#255,#256,#257,#258,#259,#260,#261,#262,
    #263,#264,#265,#266,#267,#268,#269,#270,#271,#272,#273,#274),
  .UNSPECIFIED.,.F.,.F.,(9,7,7,7,7,7,9),(0.,0.139446999999,
    0.290711047851,0.500652341094,0.639735947188,0.790605806321,1.),
  .UNSPECIFIED.);
#231 = CARTESIAN_POINT('',(0.,2.564414928299E-02));
#232 = CARTESIAN_POINT('',(0.110399060217,2.564414928299E-02));
#233 = CARTESIAN_POINT('',(0.220615912632,2.562616790888E-02));
#234 = CARTESIAN_POINT('',(0.330705046937,2.559005028162E-02));
#235 = CARTESIAN_POINT('',(0.440728528652,2.55379706618E-02));
#236 = CARTESIAN_POINT('',(0.550719812496,2.547381959893E-02));
#237 = CARTESIAN_POINT('',(0.660647555773,2.540259108078E-02));
#238 = CARTESIAN_POINT('',(0.770379431744,2.532976968263E-02));
#239 = CARTESIAN_POINT('',(0.998171940612,2.518581413394E-02));
#240 = CARTESIAN_POINT('',(1.116235797034,2.511519715892E-02));
#241 = CARTESIAN_POINT('',(1.233671470228,2.505535789307E-02));
#242 = CARTESIAN_POINT('',(1.351353398392,2.501106359958E-02));
#243 = CARTESIAN_POINT('',(1.468926628757,2.498727477657E-02));
#244 = CARTESIAN_POINT('',(1.586387935408,2.498451588966E-02));
#245 = CARTESIAN_POINT('',(1.704889944892,2.500342309456E-02));
#246 = CARTESIAN_POINT('',(1.984834011044,2.508980451715E-02));
#247 = CARTESIAN_POINT('',(2.149941325192,2.51747725823E-02));
#248 = CARTESIAN_POINT('',(2.31503082148,2.528755751095E-02));
#249 = CARTESIAN_POINT('',(2.479920127968,2.541045084311E-02));
#250 = CARTESIAN_POINT('',(2.644685798861,2.552174619757E-02));
#251 = CARTESIAN_POINT('',(2.809497032289,2.560298928324E-02));
#252 = CARTESIAN_POINT('',(2.97494956656,2.564414928299E-02));
#253 = CARTESIAN_POINT('',(3.251991713807,2.564414928299E-02));
#254 = CARTESIAN_POINT('',(3.362208566222,2.562616790888E-02));
#255 = CARTESIAN_POINT('',(3.472297700527,2.559005028162E-02));
#256 = CARTESIAN_POINT('',(3.582321182241,2.55379706618E-02));
#257 = CARTESIAN_POINT('',(3.692312466086,2.547381959893E-02));
#258 = CARTESIAN_POINT('',(3.802240209363,2.540259108078E-02));
#259 = CARTESIAN_POINT('',(3.911972085333,2.532976968263E-02));
#260 = CARTESIAN_POINT('',(4.139764594194,2.518581413394E-02));
#261 = CARTESIAN_POINT('',(4.257828450653,2.51151971589E-02));
#262 = CARTESIAN_POINT('',(4.375264123799,2.505535789309E-02));
#263 = CARTESIAN_POINT('',(4.492946051979,2.501106359958E-02));
#264 = CARTESIAN_POINT('',(4.61051928235,2.498727477656E-02));
#265 = CARTESIAN_POINT('',(4.727980589023,2.498451588968E-02));
#266 = CARTESIAN_POINT('',(4.846482598456,2.500342309456E-02));
#267 = CARTESIAN_POINT('',(5.126426664644,2.508980451715E-02));
#268 = CARTESIAN_POINT('',(5.291533978755,2.517477258229E-02));
#269 = CARTESIAN_POINT('',(5.456623475086,2.528755751096E-02));
#270 = CARTESIAN_POINT('',(5.621512781579,2.541045084312E-02));
#271 = CARTESIAN_POINT('',(5.786278452434,2.552174619756E-02));
#272 = CARTESIAN_POINT('',(5.951089685862,2.560298928324E-02));
#273 = CARTESIAN_POINT('',(6.116542220168,2.564414928299E-02));
#274 = CARTESIAN_POINT('',(6.28318530718,2.564414928299E-02));
#275 = ( GEOMETRIC_REPRESENTATION_CONTEXT(2) 
PARAMETRIC_REPRESENTATION_CONTEXT() REPRESENTATION_CONTEXT('2D SPACE',''
  ) );
#276 = FACE_BOUND('',#277,.T.);
#277 = EDGE_LOOP('',(#278));
#278 = ORIENTED_EDGE('',*,*,#279,.F.);
#279 = EDGE_CURVE('',#280,#280,#282,.T.);
#280 = VERTEX_POINT('',#281);
#281 = CARTESIAN_POINT('',(-1.959434878636E-18,4.935585071701E-02,8.E-03
    ));
#282 = SURFACE_CURVE('',#283,(#328,#376),.PCURVE_S1.);
#283 = B_SPLINE_CURVE_WITH_KNOTS('',8,(#284,#285,#286,#287,#288,#289,
    #290,#291,#292,#293,#294,#295,#296,#297,#298,#299,#300,#301,#302,
    #303,#304,#305,#306,#307,#308,#309,#310,#311,#312,#313,#314,#315,
    #316,#317,#318,#319,#320,#321,#322,#323,#324,#325,#326,#327),
  .UNSPECIFIED.,.T.,.F.,(9,7,7,7,7,7,9),(0.,0.139447002607,
    0.290711053258,0.500652318662,0.639735931298,0.790605797263,1.),
  .UNSPECIFIED.);
#284 = CARTESIAN_POINT('',(-1.734723475977E-18,4.935585071701E-02,8.E-03
    ));
#285 = CARTESIAN_POINT('',(8.831924817347E-04,4.935585071701E-02,8.E-03)
  );
#286 = CARTESIAN_POINT('',(1.764819183317E-03,4.937383209112E-02,
    7.888541975783E-03));
#287 = CARTESIAN_POINT('',(2.629239797022E-03,4.940994971838E-02,
    7.666373094318E-03));
#288 = CARTESIAN_POINT('',(3.460586417668E-03,4.94620293382E-02,
    7.336583290209E-03));
#289 = CARTESIAN_POINT('',(4.243374203103E-03,4.952618040107E-02,
    6.904862078398E-03));
#290 = CARTESIAN_POINT('',(4.963112034685E-03,4.959740891922E-02,
    6.379755366867E-03));
#291 = CARTESIAN_POINT('',(5.606913177772E-03,4.967023031737E-02,
    5.772922269341E-03));
#292 = CARTESIAN_POINT('',(6.768516456353E-03,4.981418586605E-02,
    4.368785111982E-03));
#293 = CARTESIAN_POINT('',(7.271613076899E-03,4.988480284111E-02,
    3.559089184789E-03));
#294 = CARTESIAN_POINT('',(7.660870364658E-03,4.99446421069E-02,
    2.688605692313E-03));
#295 = CARTESIAN_POINT('',(7.93377292159E-03,4.998893640045E-02,
    1.769246455808E-03));
#296 = CARTESIAN_POINT('',(8.076681013762E-03,5.001272522341E-02,
    8.228671233616E-04));
#297 = CARTESIAN_POINT('',(8.095963897742E-03,5.001548411035E-02,
    -1.315654549355E-04));
#298 = CARTESIAN_POINT('',(7.981904161382E-03,4.999657690543E-02,
    -1.081113665732E-03));
#299 = CARTESIAN_POINT('',(7.424950144601E-03,4.991019549045E-02,
    -3.250306343114E-03));
#300 = CARTESIAN_POINT('',(6.86190765745E-03,4.98252273945E-02,
    -4.46950408166E-03));
#301 = CARTESIAN_POINT('',(6.06597528501E-03,4.9712442512E-02,
    -5.574175693076E-03));
#302 = CARTESIAN_POINT('',(5.070869442382E-03,4.958954916178E-02,
    -6.51198312808E-03));
#303 = CARTESIAN_POINT('',(3.919113225553E-03,4.947825377905E-02,
    -7.244790985305E-03));
#304 = CARTESIAN_POINT('',(2.656670454927E-03,4.939701072903E-02,
    -7.746076156603E-03));
#305 = CARTESIAN_POINT('',(1.333144456758E-03,4.935585071701E-02,-8.E-03
    ));
#306 = CARTESIAN_POINT('',(-8.831924817312E-04,4.935585071701E-02,
    -8.E-03));
#307 = CARTESIAN_POINT('',(-1.764819183314E-03,4.937383209112E-02,
    -7.888541975784E-03));
#308 = CARTESIAN_POINT('',(-2.629239797022E-03,4.940994971838E-02,
    -7.666373094319E-03));
#309 = CARTESIAN_POINT('',(-3.46058641767E-03,4.94620293382E-02,
    -7.336583290208E-03));
#310 = CARTESIAN_POINT('',(-4.243374203104E-03,4.952618040107E-02,
    -6.904862078396E-03));
#311 = CARTESIAN_POINT('',(-4.963112034685E-03,4.959740891922E-02,
    -6.379755366866E-03));
#312 = CARTESIAN_POINT('',(-5.606913177771E-03,4.967023031737E-02,
    -5.772922269343E-03));
#313 = CARTESIAN_POINT('',(-6.768516455383E-03,4.981418586593E-02,
    -4.368785113155E-03));
#314 = CARTESIAN_POINT('',(-7.271613078304E-03,4.988480284126E-02,
    -3.559089183912E-03));
#315 = CARTESIAN_POINT('',(-7.660870365352E-03,4.994464210709E-02,
    -2.688605689074E-03));
#316 = CARTESIAN_POINT('',(-7.933772918417E-03,4.998893639989E-02,
    -1.769246460123E-03));
#317 = CARTESIAN_POINT('',(-8.076681017034E-03,5.001272522394E-02,
    -8.228671247465E-04));
#318 = CARTESIAN_POINT('',(-8.095963895873E-03,5.001548411005E-02,
    1.315654595157E-04));
#319 = CARTESIAN_POINT('',(-7.981904161959E-03,4.999657690552E-02,
    1.081113663484E-03));
#320 = CARTESIAN_POINT('',(-7.424950095595E-03,4.991019548285E-02,
    3.250306533978E-03));
#321 = CARTESIAN_POINT('',(-6.861907959868E-03,4.982522741771E-02,
    4.469503626122E-03));
#322 = CARTESIAN_POINT('',(-6.065974781581E-03,4.971244248905E-02,
    5.574176043743E-03));
#323 = CARTESIAN_POINT('',(-5.070869578927E-03,4.958954915688E-02,
    6.511983258312E-03));
#324 = CARTESIAN_POINT('',(-3.919113723449E-03,4.947825380243E-02,
    7.244790626647E-03));
#325 = CARTESIAN_POINT('',(-2.656669854474E-03,4.939701071676E-02,
    7.74607632511E-03));
#326 = CARTESIAN_POINT('',(-1.333144696134E-03,4.935585071701E-02,8.E-03
    ));
#327 = CARTESIAN_POINT('',(-1.734723475977E-18,4.935585071701E-02,8.E-03
    ));
#328 = PCURVE('',#50,#329);
#329 = DEFINITIONAL_REPRESENTATION('',(#330),#375);
#330 = B_SPLINE_CURVE_WITH_KNOTS('',8,(#331,#332,#333,#334,#335,#336,
    #337,#338,#339,#340,#341,#342,#343,#344,#345,#346,#347,#348,#349,
    #350,#351,#352,#353,#354,#355,#356,#357,#358,#359,#360,#361,#362,
    #363,#364,#365,#366,#367,#368,#369,#370,#371,#372,#373,#374),
  .UNSPECIFIED.,.T.,.F.,(9,7,7,7,7,7,9),(0.,0.139447002607,
    0.290711053258,0.500652318662,0.639735931298,0.790605797263,1.),
  .UNSPECIFIED.);
#331 = CARTESIAN_POINT('',(4.873079633337,0.5));
#332 = CARTESIAN_POINT('',(4.873079633337,0.500883192482));
#333 = CARTESIAN_POINT('',(4.870821630593,0.501764819183));
#334 = CARTESIAN_POINT('',(4.86631984488,0.502629239797));
#335 = CARTESIAN_POINT('',(4.859642545343,0.503460586418));
#336 = CARTESIAN_POINT('',(4.850914177932,0.504243374203));
#337 = CARTESIAN_POINT('',(4.84031749284,0.504963112035));
#338 = CARTESIAN_POINT('',(4.828095671938,0.505606913178));
#339 = CARTESIAN_POINT('',(4.79986572786,0.506768516456));
#340 = CARTESIAN_POINT('',(4.78361223257,0.507271613077));
#341 = CARTESIAN_POINT('',(4.766166310612,0.507660870365));
#342 = CARTESIAN_POINT('',(4.747766295367,0.507933772922));
#343 = CARTESIAN_POINT('',(4.728842198971,0.508076681014));
#344 = CARTESIAN_POINT('',(4.709761544189,0.508095963898));
#345 = CARTESIAN_POINT('',(4.690770599385,0.507981904161));
#346 = CARTESIAN_POINT('',(4.647352360727,0.507424950145));
#347 = CARTESIAN_POINT('',(4.622920014648,0.506861907657));
#348 = CARTESIAN_POINT('',(4.600730243674,0.506065975285));
#349 = CARTESIAN_POINT('',(4.581823238152,0.505070869442));
#350 = CARTESIAN_POINT('',(4.566999644968,0.503919113226));
#351 = CARTESIAN_POINT('',(4.556843063211,0.502656670455));
#352 = CARTESIAN_POINT('',(4.551698327433,0.501333144457));
#353 = CARTESIAN_POINT('',(4.551698327433,0.499116807518));
#354 = CARTESIAN_POINT('',(4.553956330177,0.498235180817));
#355 = CARTESIAN_POINT('',(4.558458115889,0.497370760203));
#356 = CARTESIAN_POINT('',(4.565135415426,0.496539413582));
#357 = CARTESIAN_POINT('',(4.573863782837,0.495756625797));
#358 = CARTESIAN_POINT('',(4.584460467929,0.495036887965));
#359 = CARTESIAN_POINT('',(4.596682288831,0.494393086822));
#360 = CARTESIAN_POINT('',(4.624912232886,0.493231483545));
#361 = CARTESIAN_POINT('',(4.641165728217,0.492728386922));
#362 = CARTESIAN_POINT('',(4.658611650222,0.492339129635));
#363 = CARTESIAN_POINT('',(4.677011665316,0.492066227082));
#364 = CARTESIAN_POINT('',(4.695935761771,0.491923318983));
#365 = CARTESIAN_POINT('',(4.715016416672,0.491904036104));
#366 = CARTESIAN_POINT('',(4.734007361339,0.492018095838));
#367 = CARTESIAN_POINT('',(4.777425603863,0.492575049904));
#368 = CARTESIAN_POINT('',(4.801857936995,0.49313809204));
#369 = CARTESIAN_POINT('',(4.824047724129,0.493934025218));
#370 = CARTESIAN_POINT('',(4.842954725223,0.494929130421));
#371 = CARTESIAN_POINT('',(4.857778308608,0.496080886277));
#372 = CARTESIAN_POINT('',(4.86793490094,0.497343330146));
#373 = CARTESIAN_POINT('',(4.873079633337,0.498666855304));
#374 = CARTESIAN_POINT('',(4.873079633337,0.5));
#375 = ( GEOMETRIC_REPRESENTATION_CONTEXT(2) 
PARAMETRIC_REPRESENTATION_CONTEXT() REPRESENTATION_CONTEXT('2D SPACE',''
  ) );
#376 = PCURVE('',#377,#382);
#377 = CYLINDRICAL_SURFACE('',#378,8.E-03);
#378 = AXIS2_PLACEMENT_3D('',#379,#380,#381);
#379 = CARTESIAN_POINT('',(0.,-7.5E-02,0.));
#380 = DIRECTION('',(0.,1.,0.));
#381 = DIRECTION('',(0.,-0.,1.));
#382 = DEFINITIONAL_REPRESENTATION('',(#383),#428);
#383 = B_SPLINE_CURVE_WITH_KNOTS('',8,(#384,#385,#386,#387,#388,#389,
    #390,#391,#392,#393,#394,#395,#396,#397,#398,#399,#400,#401,#402,
    #403,#404,#405,#406,#407,#408,#409,#410,#411,#412,#413,#414,#415,
    #416,#417,#418,#419,#420,#421,#422,#423,#424,#425,#426,#427),
  .UNSPECIFIED.,.F.,.F.,(9,7,7,7,7,7,9),(0.,0.139447002607,
    0.290711053258,0.500652318662,0.639735931298,0.790605797263,1.),
  .UNSPECIFIED.);
#384 = CARTESIAN_POINT('',(0.,0.124355850717));
#385 = CARTESIAN_POINT('',(0.110399060217,0.124355850717));
#386 = CARTESIAN_POINT('',(0.220615912632,0.124373832091));
#387 = CARTESIAN_POINT('',(0.330705046937,0.124409949718));
#388 = CARTESIAN_POINT('',(0.440728528652,0.124462029338));
#389 = CARTESIAN_POINT('',(0.550719812496,0.124526180401));
#390 = CARTESIAN_POINT('',(0.660647555773,0.124597408919));
#391 = CARTESIAN_POINT('',(0.770379431744,0.124670230317));
#392 = CARTESIAN_POINT('',(0.998171940588,0.124814185866));
#393 = CARTESIAN_POINT('',(1.116235797086,0.124884802841));
#394 = CARTESIAN_POINT('',(1.233671470182,0.124944642107));
#395 = CARTESIAN_POINT('',(1.351353398426,0.1249889364));
#396 = CARTESIAN_POINT('',(1.46892662874,0.125012725223));
#397 = CARTESIAN_POINT('',(1.586387935397,0.12501548411));
#398 = CARTESIAN_POINT('',(1.704889944912,0.124996576905));
#399 = CARTESIAN_POINT('',(1.98483398643,0.12491019549));
#400 = CARTESIAN_POINT('',(2.149941403986,0.124825227395));
#401 = CARTESIAN_POINT('',(2.315030730174,0.124712442512));
#402 = CARTESIAN_POINT('',(2.479920132191,0.124589549162));
#403 = CARTESIAN_POINT('',(2.644685890155,0.124478253779));
#404 = CARTESIAN_POINT('',(2.809496944435,0.124397010729));
#405 = CARTESIAN_POINT('',(2.974949596495,0.124355850717));
#406 = CARTESIAN_POINT('',(3.251991713806,0.124355850717));
#407 = CARTESIAN_POINT('',(3.362208566221,0.124373832091));
#408 = CARTESIAN_POINT('',(3.472297700527,0.124409949718));
#409 = CARTESIAN_POINT('',(3.582321182242,0.124462029338));
#410 = CARTESIAN_POINT('',(3.692312466086,0.124526180401));
#411 = CARTESIAN_POINT('',(3.802240209363,0.124597408919));
#412 = CARTESIAN_POINT('',(3.911972085333,0.124670230317));
#413 = CARTESIAN_POINT('',(4.139764593988,0.124814185866));
#414 = CARTESIAN_POINT('',(4.257828450879,0.124884802841));
#415 = CARTESIAN_POINT('',(4.375264124084,0.124944642107));
#416 = CARTESIAN_POINT('',(4.492946051538,0.1249889364));
#417 = CARTESIAN_POINT('',(4.610519282116,0.125012725224));
#418 = CARTESIAN_POINT('',(4.727980589584,0.12501548411));
#419 = CARTESIAN_POINT('',(4.846482598212,0.124996576906));
#420 = CARTESIAN_POINT('',(5.126426664652,0.124910195483));
#421 = CARTESIAN_POINT('',(5.291533978747,0.124825227418));
#422 = CARTESIAN_POINT('',(5.456623475079,0.124712442489));
#423 = CARTESIAN_POINT('',(5.621512781583,0.124589549157));
#424 = CARTESIAN_POINT('',(5.786278452442,0.124478253802));
#425 = CARTESIAN_POINT('',(5.951089685861,0.124397010717));
#426 = CARTESIAN_POINT('',(6.116542220163,0.124355850717));
#427 = CARTESIAN_POINT('',(6.28318530718,0.124355850717));
#428 = ( GEOMETRIC_REPRESENTATION_CONTEXT(2) 
PARAMETRIC_REPRESENTATION_CONTEXT() REPRESENTATION_CONTEXT('2D SPACE',''
  ) );
#429 = ADVANCED_FACE('',(#430),#112,.F.);
#430 = FACE_BOUND('',#431,.T.);
#431 = EDGE_LOOP('',(#432));
#432 = ORIENTED_EDGE('',*,*,#97,.F.);
#433 = ADVANCED_FACE('',(#434),#84,.T.);
#434 = FACE_BOUND('',#435,.T.);
#435 = EDGE_LOOP('',(#436));
#436 = ORIENTED_EDGE('',*,*,#69,.T.);
#437 = ADVANCED_FACE('',(#438),#224,.F.);
#438 = FACE_BOUND('',#439,.F.);
#439 = EDGE_LOOP('',(#440,#557,#578,#579,#580,#615));
#440 = ORIENTED_EDGE('',*,*,#441,.F.);
#441 = EDGE_CURVE('',#442,#444,#446,.T.);
#442 = VERTEX_POINT('',#443);
#443 = CARTESIAN_POINT('',(-1.959434878636E-18,-3.39669923321E-02,8.E-03
    ));
#444 = VERTEX_POINT('',#445);
#445 = CARTESIAN_POINT('',(5.142300877492E-03,-4.834252786109E-02,
    -6.128355544952E-03));
#446 = SURFACE_CURVE('',#447,(#480,#516),.PCURVE_S1.);
#447 = B_SPLINE_CURVE_WITH_KNOTS('',7,(#448,#449,#450,#451,#452,#453,
    #454,#455,#456,#457,#458,#459,#460,#461,#462,#463,#464,#465,#466,
    #467,#468,#469,#470,#471,#472,#473,#474,#475,#476,#477,#478,#479),
  .UNSPECIFIED.,.F.,.F.,(8,6,6,6,6,8),(0.,0.176525475075,0.357856096748,
    0.515389542421,0.762104803512,1.),.UNSPECIFIED.);
#448 = CARTESIAN_POINT('',(-1.959434878636E-18,-3.39669923321E-02,8.E-03
    ));
#449 = CARTESIAN_POINT('',(5.068880963778E-04,-3.265178085863E-02,8.E-03
    ));
#450 = CARTESIAN_POINT('',(1.01367143843E-03,-3.135898507829E-02,
    7.962528802298E-03));
#451 = CARTESIAN_POINT('',(1.51698035388E-03,-3.010105666022E-02,
    7.887621998216E-03));
#452 = CARTESIAN_POINT('',(2.013197093267E-03,-2.889309942562E-02,
    7.775679124539E-03));
#453 = CARTESIAN_POINT('',(2.498547828786E-03,-2.775429314741E-02,
    7.627710942254E-03));
#454 = CARTESIAN_POINT('',(2.969322790752E-03,-2.670695760465E-02,
    7.445413703094E-03));
#455 = CARTESIAN_POINT('',(3.887454594274E-03,-2.481414019372E-02,
    7.01089253057E-03));
#456 = CARTESIAN_POINT('',(4.334035047593E-03,-2.397448803822E-02,
    6.756813978083E-03));
#457 = CARTESIAN_POINT('',(4.757676754408E-03,-2.327969623535E-02,
    6.471485882474E-03));
#458 = CARTESIAN_POINT('',(5.1556035784E-03,-2.27521435455E-02,
    6.15831202176E-03));
#459 = CARTESIAN_POINT('',(5.526659867266E-03,-2.240657917689E-02,
    5.819871255468E-03));
#460 = CARTESIAN_POINT('',(5.870603805911E-03,-2.224888787675E-02,
    5.457508579535E-03));
#461 = CARTESIAN_POINT('',(6.461101046132E-03,-2.230372625718E-02,
    4.73726132676E-03));
#462 = CARTESIAN_POINT('',(6.714552174696E-03,-2.247037365982E-02,
    4.384997133068E-03));
#463 = CARTESIAN_POINT('',(6.945420274437E-03,-2.277749207824E-02,
    4.017115590139E-03));
#464 = CARTESIAN_POINT('',(7.152741366133E-03,-2.32172769132E-02,
    3.635215737845E-03));
#465 = CARTESIAN_POINT('',(7.33544822589E-03,-2.377639402706E-02,
    3.241054551974E-03));
#466 = CARTESIAN_POINT('',(7.492708704637E-03,-2.443948091379E-02,
    2.836689805513E-03));
#467 = CARTESIAN_POINT('',(7.829389388572E-03,-2.637010261188E-02,
    1.777787256901E-03));
#468 = CARTESIAN_POINT('',(7.972437742977E-03,-2.777582137781E-02,
    1.106553632432E-03));
#469 = CARTESIAN_POINT('',(8.048496647165E-03,-2.935500142085E-02,
    4.189376444001E-04));
#470 = CARTESIAN_POINT('',(8.054820849182E-03,-3.104823534437E-02,
    -2.75168884471E-04));
#471 = CARTESIAN_POINT('',(7.991274701361E-03,-3.281255692675E-02,
    -9.658991080157E-04));
#472 = CARTESIAN_POINT('',(7.859309386408E-03,-3.461506395904E-02,
    -1.644552842785E-03));
#473 = CARTESIAN_POINT('',(7.470227542471E-03,-3.818323759544E-02,
    -2.938666817003E-03));
#474 = CARTESIAN_POINT('',(7.217781540691E-03,-3.994765601998E-02,
    -3.555430210737E-03));
#475 = CARTESIAN_POINT('',(6.906027660015E-03,-4.170278161617E-02,
    -4.14660559059E-03));
#476 = CARTESIAN_POINT('',(6.538120866636E-03,-4.343199476183E-02,
    -4.705402688259E-03));
#477 = CARTESIAN_POINT('',(6.118156476074E-03,-4.512208429792E-02,
    -5.225552735188E-03));
#478 = CARTESIAN_POINT('',(5.65103961834E-03,-4.676201472037E-02,
    -5.701473055141E-03));
#479 = CARTESIAN_POINT('',(5.142300877491E-03,-4.834252786109E-02,
    -6.128355544953E-03));
#480 = PCURVE('',#224,#481);
#481 = DEFINITIONAL_REPRESENTATION('',(#482),#515);
#482 = B_SPLINE_CURVE_WITH_KNOTS('',7,(#483,#484,#485,#486,#487,#488,
    #489,#490,#491,#492,#493,#494,#495,#496,#497,#498,#499,#500,#501,
    #502,#503,#504,#505,#506,#507,#508,#509,#510,#511,#512,#513,#514),
  .UNSPECIFIED.,.F.,.F.,(8,6,6,6,6,8),(0.,0.176525475075,0.357856096748,
    0.515389542421,0.762104803512,1.),.UNSPECIFIED.);
#483 = CARTESIAN_POINT('',(0.,4.10330076679E-02));
#484 = CARTESIAN_POINT('',(6.336101204723E-02,4.234821914137E-02));
#485 = CARTESIAN_POINT('',(0.126709062391,4.364101492171E-02));
#486 = CARTESIAN_POINT('',(0.190037710627,4.489894333978E-02));
#487 = CARTESIAN_POINT('',(0.253310959738,4.610690057438E-02));
#488 = CARTESIAN_POINT('',(0.316461742355,4.724570685259E-02));
#489 = CARTESIAN_POINT('',(0.37940039741,4.829304239535E-02));
#490 = CARTESIAN_POINT('',(0.506370783845,5.018585980628E-02));
#491 = CARTESIAN_POINT('',(0.570413404675,5.102551196178E-02));
#492 = CARTESIAN_POINT('',(0.633972872062,5.172030376465E-02));
#493 = CARTESIAN_POINT('',(0.696964176715,5.22478564545E-02));
#494 = CARTESIAN_POINT('',(0.759482114857,5.259342082311E-02));
#495 = CARTESIAN_POINT('',(0.821767982156,5.275111212325E-02));
#496 = CARTESIAN_POINT('',(0.938188763687,5.269627374282E-02));
#497 = CARTESIAN_POINT('',(0.992326852317,5.252962634018E-02));
#498 = CARTESIAN_POINT('',(1.046444159378,5.222250792176E-02));
#499 = CARTESIAN_POINT('',(1.100567777963,5.17827230868E-02));
#500 = CARTESIAN_POINT('',(1.154700480175,5.122360597294E-02));
#501 = CARTESIAN_POINT('',(1.208826274172,5.056051908621E-02));
#502 = CARTESIAN_POINT('',(1.347718571159,4.862989738812E-02));
#503 = CARTESIAN_POINT('',(1.433096530006,4.722417862219E-02));
#504 = CARTESIAN_POINT('',(1.518882711706,4.564499857915E-02));
#505 = CARTESIAN_POINT('',(1.604857898465,4.395176465563E-02));
#506 = CARTESIAN_POINT('',(1.690869346503,4.218744307325E-02));
#507 = CARTESIAN_POINT('',(1.776858106545,4.038493604096E-02));
#508 = CARTESIAN_POINT('',(1.945775415251,3.681676240456E-02));
#509 = CARTESIAN_POINT('',(2.028691798557,3.505234398002E-02));
#510 = CARTESIAN_POINT('',(2.111610689115,3.329721838383E-02));
#511 = CARTESIAN_POINT('',(2.194537146405,3.156800523817E-02));
#512 = CARTESIAN_POINT('',(2.277478484146,2.987791570208E-02));
#513 = CARTESIAN_POINT('',(2.360447045209,2.823798527963E-02));
#514 = CARTESIAN_POINT('',(2.443460952792,2.665747213891E-02));
#515 = ( GEOMETRIC_REPRESENTATION_CONTEXT(2) 
PARAMETRIC_REPRESENTATION_CONTEXT() REPRESENTATION_CONTEXT('2D SPACE',''
  ) );
#516 = PCURVE('',#517,#522);
#517 = SPHERICAL_SURFACE('',#518,0.12505);
#518 = AXIS2_PLACEMENT_3D('',#519,#520,#521);
#519 = CARTESIAN_POINT('',(-8.813341318084E-02,0.,-7.395271449444E-02));
#520 = DIRECTION('',(0.766044443119,0.,0.642787609687));
#521 = DIRECTION('',(0.642787609687,0.,-0.766044443119));
#522 = DEFINITIONAL_REPRESENTATION('',(#523),#556);
#523 = B_SPLINE_CURVE_WITH_KNOTS('',7,(#524,#525,#526,#527,#528,#529,
    #530,#531,#532,#533,#534,#535,#536,#537,#538,#539,#540,#541,#542,
    #543,#544,#545,#546,#547,#548,#549,#550,#551,#552,#553,#554,#555),
  .UNSPECIFIED.,.F.,.F.,(8,6,6,6,6,8),(0.,0.176525475075,0.357856096748,
    0.515389542421,0.762104803512,1.),.UNSPECIFIED.);
#524 = CARTESIAN_POINT('',(4.533888375056,1.291152998583));
#525 = CARTESIAN_POINT('',(4.53641255491,1.302403012562));
#526 = CARTESIAN_POINT('',(4.540098693262,1.313467285117));
#527 = CARTESIAN_POINT('',(4.545137738139,1.324242148465));
#528 = CARTESIAN_POINT('',(4.551747470066,1.334601472623));
#529 = CARTESIAN_POINT('',(4.560204904045,1.344383132038));
#530 = CARTESIAN_POINT('',(4.570774530269,1.353395475769));
#531 = CARTESIAN_POINT('',(4.596637534808,1.369711207652));
#532 = CARTESIAN_POINT('',(4.612058059289,1.376965111792));
#533 = CARTESIAN_POINT('',(4.629851838913,1.382983488418));
#534 = CARTESIAN_POINT('',(4.649899895991,1.38756405285));
#535 = CARTESIAN_POINT('',(4.671634442993,1.390568682997));
#536 = CARTESIAN_POINT('',(4.694119364691,1.391939138993));
#537 = CARTESIAN_POINT('',(4.735911979301,1.391462494744));
#538 = CARTESIAN_POINT('',(4.755250531053,1.390014055722));
#539 = CARTESIAN_POINT('',(4.773855987119,1.387345063813));
#540 = CARTESIAN_POINT('',(4.791109582332,1.383527293983));
#541 = CARTESIAN_POINT('',(4.806688369915,1.378683315389));
#542 = CARTESIAN_POINT('',(4.820513710545,1.372950367141));
#543 = CARTESIAN_POINT('',(4.851591175923,1.356290798033));
#544 = CARTESIAN_POINT('',(4.866491296821,1.344187807052));
#545 = CARTESIAN_POINT('',(4.877312278706,1.330627113648));
#546 = CARTESIAN_POINT('',(4.884905877609,1.316119064893));
#547 = CARTESIAN_POINT('',(4.889907683415,1.301021138821));
#548 = CARTESIAN_POINT('',(4.892807706027,1.285607730001));
#549 = CARTESIAN_POINT('',(4.895094397271,1.255103518164));
#550 = CARTESIAN_POINT('',(4.894602547197,1.240023168289));
#551 = CARTESIAN_POINT('',(4.89282416505,1.225019691032));
#552 = CARTESIAN_POINT('',(4.889977080296,1.210230183281));
#553 = CARTESIAN_POINT('',(4.886214789392,1.195764422097));
#554 = CARTESIAN_POINT('',(4.881654631593,1.18171540108));
#555 = CARTESIAN_POINT('',(4.8763884487,1.168162110046));
#556 = ( GEOMETRIC_REPRESENTATION_CONTEXT(2) 
PARAMETRIC_REPRESENTATION_CONTEXT() REPRESENTATION_CONTEXT('2D SPACE',''
  ) );
#557 = ORIENTED_EDGE('',*,*,#558,.F.);
#558 = EDGE_CURVE('',#127,#442,#559,.T.);
#559 = SEAM_CURVE('',#560,(#564,#571),.PCURVE_S1.);
#560 = LINE('',#561,#562);
#561 = CARTESIAN_POINT('',(-1.959434878636E-18,-7.5E-02,8.E-03));
#562 = VECTOR('',#563,1.);
#563 = DIRECTION('',(0.,1.,0.));
#564 = PCURVE('',#224,#565);
#565 = DEFINITIONAL_REPRESENTATION('',(#566),#570);
#566 = LINE('',#567,#568);
#567 = CARTESIAN_POINT('',(6.28318530718,-0.));
#568 = VECTOR('',#569,1.);
#569 = DIRECTION('',(0.,1.));
#570 = ( GEOMETRIC_REPRESENTATION_CONTEXT(2) 
PARAMETRIC_REPRESENTATION_CONTEXT() REPRESENTATION_CONTEXT('2D SPACE',''
  ) );
#571 = PCURVE('',#224,#572);
#572 = DEFINITIONAL_REPRESENTATION('',(#573),#577);
#573 = LINE('',#574,#575);
#574 = CARTESIAN_POINT('',(0.,-0.));
#575 = VECTOR('',#576,1.);
#576 = DIRECTION('',(0.,1.));
#577 = ( GEOMETRIC_REPRESENTATION_CONTEXT(2) 
PARAMETRIC_REPRESENTATION_CONTEXT() REPRESENTATION_CONTEXT('2D SPACE',''
  ) );
#578 = ORIENTED_EDGE('',*,*,#126,.T.);
#579 = ORIENTED_EDGE('',*,*,#558,.T.);
#580 = ORIENTED_EDGE('',*,*,#581,.F.);
#581 = EDGE_CURVE('',#582,#442,#584,.T.);
#582 = VERTEX_POINT('',#583);
#583 = CARTESIAN_POINT('',(-5.142300877492E-03,-4.834252786109E-02,
    6.128355544952E-03));
#584 = SURFACE_CURVE('',#585,(#593,#604),.PCURVE_S1.);
#585 = B_SPLINE_CURVE_WITH_KNOTS('',6,(#586,#587,#588,#589,#590,#591,
    #592),.UNSPECIFIED.,.F.,.F.,(7,7),(0.,1.),.PIECEWISE_BEZIER_KNOTS.);
#586 = CARTESIAN_POINT('',(-5.142300877493E-03,-4.834252786109E-02,
    6.128355544951E-03));
#587 = CARTESIAN_POINT('',(-4.428549904332E-03,-4.612509737722E-02,
    6.727263723283E-03));
#588 = CARTESIAN_POINT('',(-3.631768114783E-03,-4.378772053607E-02,
    7.225850409279E-03));
#589 = CARTESIAN_POINT('',(-2.76917892857E-03,-4.135810116399E-02,
    7.610283811211E-03));
#590 = CARTESIAN_POINT('',(-1.861169120018E-03,-3.887295504959E-02,
    7.870115224837E-03));
#591 = CARTESIAN_POINT('',(-9.305492866824E-04,-3.638146824349E-02,
    8.E-03));
#592 = CARTESIAN_POINT('',(-1.734723475977E-18,-3.39669923321E-02,8.E-03
    ));
#593 = PCURVE('',#224,#594);
#594 = DEFINITIONAL_REPRESENTATION('',(#595),#603);
#595 = B_SPLINE_CURVE_WITH_KNOTS('',6,(#596,#597,#598,#599,#600,#601,
    #602),.UNSPECIFIED.,.F.,.F.,(7,7),(0.,1.),.PIECEWISE_BEZIER_KNOTS.);
#596 = CARTESIAN_POINT('',(5.585053606382,2.665747213891E-02));
#597 = CARTESIAN_POINT('',(5.701520571773,2.887490262278E-02));
#598 = CARTESIAN_POINT('',(5.817877918399,3.121227946393E-02));
#599 = CARTESIAN_POINT('',(5.934206077536,3.364189883601E-02));
#600 = CARTESIAN_POINT('',(6.050538946344,3.612704495041E-02));
#601 = CARTESIAN_POINT('',(6.166866646344,3.861853175651E-02));
#602 = CARTESIAN_POINT('',(6.28318530718,4.10330076679E-02));
#603 = ( GEOMETRIC_REPRESENTATION_CONTEXT(2) 
PARAMETRIC_REPRESENTATION_CONTEXT() REPRESENTATION_CONTEXT('2D SPACE',''
  ) );
#604 = PCURVE('',#517,#605);
#605 = DEFINITIONAL_REPRESENTATION('',(#606),#614);
#606 = B_SPLINE_CURVE_WITH_KNOTS('',6,(#607,#608,#609,#610,#611,#612,
    #613),.UNSPECIFIED.,.F.,.F.,(7,7),(0.,1.),.PIECEWISE_BEZIER_KNOTS.);
#607 = CARTESIAN_POINT('',(4.54838951207,1.168162110046));
#608 = CARTESIAN_POINT('',(4.541001155605,1.187177124803));
#609 = CARTESIAN_POINT('',(4.535042972372,1.207192754148));
#610 = CARTESIAN_POINT('',(4.530794281839,1.227972908901));
#611 = CARTESIAN_POINT('',(4.528653357952,1.249209329485));
#612 = CARTESIAN_POINT('',(4.529254465166,1.270500131494));
#613 = CARTESIAN_POINT('',(4.533888375056,1.291152998583));
#614 = ( GEOMETRIC_REPRESENTATION_CONTEXT(2) 
PARAMETRIC_REPRESENTATION_CONTEXT() REPRESENTATION_CONTEXT('2D SPACE',''
  ) );
#615 = ORIENTED_EDGE('',*,*,#616,.F.);
#616 = EDGE_CURVE('',#444,#582,#617,.T.);
#617 = SURFACE_CURVE('',#618,(#663,#711),.PCURVE_S1.);
#618 = B_SPLINE_CURVE_WITH_KNOTS('',8,(#619,#620,#621,#622,#623,#624,
    #625,#626,#627,#628,#629,#630,#631,#632,#633,#634,#635,#636,#637,
    #638,#639,#640,#641,#642,#643,#644,#645,#646,#647,#648,#649,#650,
    #651,#652,#653,#654,#655,#656,#657,#658,#659,#660,#661,#662),
  .UNSPECIFIED.,.F.,.F.,(9,7,7,7,7,7,9),(0.,0.267713690671,
    0.384119814098,0.49732825921,0.610669742184,0.806360281041,1.),
  .UNSPECIFIED.);
#619 = CARTESIAN_POINT('',(5.142300877493E-03,-4.834252786109E-02,
    -6.128355544951E-03));
#620 = CARTESIAN_POINT('',(4.491107162122E-03,-4.631944579232E-02,
    -6.674771951344E-03));
#621 = CARTESIAN_POINT('',(3.774323360939E-03,-4.420197905901E-02,
    -7.141465190685E-03));
#622 = CARTESIAN_POINT('',(3.0028834743E-03,-4.200749777029E-02,
    -7.519815114972E-03));
#623 = CARTESIAN_POINT('',(2.189139528096E-03,-3.975715786309E-02,
    -7.802629076443E-03));
#624 = CARTESIAN_POINT('',(1.34682883538E-03,-3.747867640497E-02,
    -7.984534605034E-03));
#625 = CARTESIAN_POINT('',(4.907925686123E-04,-3.520732462002E-02,
    -8.062571076478E-03));
#626 = CARTESIAN_POINT('',(-3.637946303923E-04,-3.299347925128E-02,
    -8.03659769081E-03));
#627 = CARTESIAN_POINT('',(-1.566821666373E-03,-3.000058050747E-02,
    -7.85372869856E-03));
#628 = CARTESIAN_POINT('',(-1.928272651091E-03,-2.911795419675E-02,
    -7.779135728858E-03));
#629 = CARTESIAN_POINT('',(-2.28528580059E-03,-2.826574860233E-02,
    -7.685606818197E-03));
#630 = CARTESIAN_POINT('',(-2.636505728906E-03,-2.745078377483E-02,
    -7.573516316768E-03));
#631 = CARTESIAN_POINT('',(-2.980579660473E-03,-2.668067390413E-02,
    -7.443401066452E-03));
#632 = CARTESIAN_POINT('',(-3.316202022898E-03,-2.596359098668E-02,
    -7.295964292374E-03));
#633 = CARTESIAN_POINT('',(-3.642161454377E-03,-2.530775820771E-02,
    -7.132056003945E-03));
#634 = CARTESIAN_POINT('',(-4.2639596571E-03,-2.414971510947E-02,
    -6.778132644965E-03));
#635 = CARTESIAN_POINT('',(-4.560426441401E-03,-2.364369116798E-02,
    -6.588933755853E-03));
#636 = CARTESIAN_POINT('',(-4.84573873964E-03,-2.320964117689E-02,
    -6.385927754896E-03));
#637 = CARTESIAN_POINT('',(-5.119165969793E-03,-2.285355502042E-02,
    -6.170037601431E-03));
#638 = CARTESIAN_POINT('',(-5.380265221319E-03,-2.25799980566E-02,
    -5.942057234546E-03));
#639 = CARTESIAN_POINT('',(-5.628804769107E-03,-2.239194773026E-02,
    -5.702574175156E-03));
#640 = CARTESIAN_POINT('',(-5.864644686879E-03,-2.229084124649E-02,
    -5.451972192879E-03));
#641 = CARTESIAN_POINT('',(-6.310766411162E-03,-2.226281090245E-02,
    -4.928748627794E-03));
#642 = CARTESIAN_POINT('',(-6.521044790343E-03,-2.233609113096E-02,
    -4.65607000574E-03));
#643 = CARTESIAN_POINT('',(-6.718218993579E-03,-2.249681249181E-02,
    -4.372735694831E-03));
#644 = CARTESIAN_POINT('',(-6.90197956838E-03,-2.274386474971E-02,
    -4.078931204121E-03));
#645 = CARTESIAN_POINT('',(-7.071829019039E-03,-2.307461800864E-02,
    -3.774944420369E-03));
#646 = CARTESIAN_POINT('',(-7.227088742292E-03,-2.348484781589E-02,
    -3.461289694813E-03));
#647 = CARTESIAN_POINT('',(-7.366982193373E-03,-2.396885729407E-02,
    -3.138781624792E-03));
#648 = CARTESIAN_POINT('',(-7.704562920375E-03,-2.547102393935E-02,
    -2.238409511304E-03));
#649 = CARTESIAN_POINT('',(-7.870308637202E-03,-2.662141892607E-02,
    -1.645469788306E-03));
#650 = CARTESIAN_POINT('',(-7.984514936565E-03,-2.793617486486E-02,
    -1.03524763729E-03));
#651 = CARTESIAN_POINT('',(-8.044523963512E-03,-2.937398278285E-02,
    -4.141218466196E-04));
#652 = CARTESIAN_POINT('',(-8.049013494537E-03,-3.089816701998E-02,
    2.109522486179E-04));
#653 = CARTESIAN_POINT('',(-7.998013216489E-03,-3.247991522948E-02,
    8.334174860207E-04));
#654 = CARTESIAN_POINT('',(-7.892425294838E-03,-3.409604385279E-02,
    1.447191968296E-03));
#655 = CARTESIAN_POINT('',(-7.576690088775E-03,-3.734415492219E-02,
    2.640167999222E-03));
#656 = CARTESIAN_POINT('',(-7.367635957306E-03,-3.89759308891E-02,
    3.219717849126E-03));
#657 = CARTESIAN_POINT('',(-7.107968638232E-03,-4.06066427775E-02,
    3.780185459213E-03));
#658 = CARTESIAN_POINT('',(-6.799741199515E-03,-4.222263055606E-02,
    4.316440898656E-03));
#659 = CARTESIAN_POINT('',(-6.445616365888E-03,-4.381282958797E-02,
    4.823634296482E-03));
#660 = CARTESIAN_POINT('',(-6.048809441296E-03,-4.53679835545E-02,
    5.29729149454E-03));
#661 = CARTESIAN_POINT('',(-5.61301264731E-03,-4.68801541947E-02,
    5.733381472508E-03));
#662 = CARTESIAN_POINT('',(-5.142300877491E-03,-4.834252786109E-02,
    6.128355544953E-03));
#663 = PCURVE('',#224,#664);
#664 = DEFINITIONAL_REPRESENTATION('',(#665),#710);
#665 = B_SPLINE_CURVE_WITH_KNOTS('',8,(#666,#667,#668,#669,#670,#671,
    #672,#673,#674,#675,#676,#677,#678,#679,#680,#681,#682,#683,#684,
    #685,#686,#687,#688,#689,#690,#691,#692,#693,#694,#695,#696,#697,
    #698,#699,#700,#701,#702,#703,#704,#705,#706,#707,#708,#709),
  .UNSPECIFIED.,.F.,.F.,(9,7,7,7,7,7,9),(0.,0.267713690671,
    0.384119814098,0.49732825921,0.610669742184,0.806360281041,1.),
  .UNSPECIFIED.);
#666 = CARTESIAN_POINT('',(2.443460952792,2.665747213891E-02));
#667 = CARTESIAN_POINT('',(2.549720080644,2.868055420768E-02));
#668 = CARTESIAN_POINT('',(2.655854190338,3.079802094099E-02));
#669 = CARTESIAN_POINT('',(2.761951901975,3.299250222971E-02));
#670 = CARTESIAN_POINT('',(2.868062661893,3.524284213691E-02));
#671 = CARTESIAN_POINT('',(2.974197590403,3.752132359503E-02));
#672 = CARTESIAN_POINT('',(3.080336391187,3.979267537998E-02));
#673 = CARTESIAN_POINT('',(3.186434547475,4.200652074872E-02));
#674 = CARTESIAN_POINT('',(3.338540345237,4.499941949253E-02));
#675 = CARTESIAN_POINT('',(3.384609892551,4.588204580325E-02));
#676 = CARTESIAN_POINT('',(3.430635805517,4.673425139767E-02));
#677 = CARTESIAN_POINT('',(3.476592440636,4.754921622517E-02));
#678 = CARTESIAN_POINT('',(3.522448006835,4.831932609587E-02));
#679 = CARTESIAN_POINT('',(3.568166847748,4.903640901332E-02));
#680 = CARTESIAN_POINT('',(3.61371257894,4.969224179229E-02));
#681 = CARTESIAN_POINT('',(3.703146104266,5.085028489053E-02));
#682 = CARTESIAN_POINT('',(3.747051592023,5.135630883202E-02));
#683 = CARTESIAN_POINT('',(3.79073004428,5.179035882311E-02));
#684 = CARTESIAN_POINT('',(3.83417031903,5.214644497958E-02));
#685 = CARTESIAN_POINT('',(3.877393410617,5.24200019434E-02));
#686 = CARTESIAN_POINT('',(3.920450510829,5.260805226974E-02));
#687 = CARTESIAN_POINT('',(3.963414351802,5.270915875351E-02));
#688 = CARTESIAN_POINT('',(4.049363782059,5.273718909755E-02));
#689 = CARTESIAN_POINT('',(4.092354418979,5.266390886904E-02));
#690 = CARTESIAN_POINT('',(4.135417211783,5.250318750819E-02));
#691 = CARTESIAN_POINT('',(4.178629784992,5.225613525029E-02));
#692 = CARTESIAN_POINT('',(4.222049778376,5.192538199136E-02));
#693 = CARTESIAN_POINT('',(4.265705264905,5.151515218411E-02));
#694 = CARTESIAN_POINT('',(4.30959172561,5.103114270593E-02));
#695 = CARTESIAN_POINT('',(4.429788874208,4.952897606065E-02));
#696 = CARTESIAN_POINT('',(4.5064622581,4.837858107393E-02));
#697 = CARTESIAN_POINT('',(4.583568569725,4.706382513514E-02));
#698 = CARTESIAN_POINT('',(4.660958094593,4.562601721715E-02));
#699 = CARTESIAN_POINT('',(4.738479402958,4.410183298002E-02));
#700 = CARTESIAN_POINT('',(4.81603923612,4.252008477052E-02));
#701 = CARTESIAN_POINT('',(4.893584262991,4.090395614721E-02));
#702 = CARTESIAN_POINT('',(5.047840570131,3.765584507781E-02));
#703 = CARTESIAN_POINT('',(5.124559002695,3.60240691109E-02));
#704 = CARTESIAN_POINT('',(5.201278200679,3.43933572225E-02));
#705 = CARTESIAN_POINT('',(5.278000968574,3.277736944394E-02));
#706 = CARTESIAN_POINT('',(5.354731189419,3.118717041203E-02));
#707 = CARTESIAN_POINT('',(5.431475589516,2.96320164455E-02));
#708 = CARTESIAN_POINT('',(5.508244784445,2.81198458053E-02));
#709 = CARTESIAN_POINT('',(5.585053606382,2.665747213891E-02));
#710 = ( GEOMETRIC_REPRESENTATION_CONTEXT(2) 
PARAMETRIC_REPRESENTATION_CONTEXT() REPRESENTATION_CONTEXT('2D SPACE',''
  ) );
#711 = PCURVE('',#712,#717);
#712 = SPHERICAL_SURFACE('',#713,0.12505);
#713 = AXIS2_PLACEMENT_3D('',#714,#715,#716);
#714 = CARTESIAN_POINT('',(8.813341318084E-02,0.,7.395271449444E-02));
#715 = DIRECTION('',(0.766044443119,0.,0.642787609687));
#716 = DIRECTION('',(0.642787609687,0.,-0.766044443119));
#717 = DEFINITIONAL_REPRESENTATION('',(#718),#763);
#718 = B_SPLINE_CURVE_WITH_KNOTS('',8,(#719,#720,#721,#722,#723,#724,
    #725,#726,#727,#728,#729,#730,#731,#732,#733,#734,#735,#736,#737,
    #738,#739,#740,#741,#742,#743,#744,#745,#746,#747,#748,#749,#750,
    #751,#752,#753,#754,#755,#756,#757,#758,#759,#760,#761,#762),
  .UNSPECIFIED.,.F.,.F.,(9,7,7,7,7,7,9),(0.,0.267713690671,
    0.384119814098,0.49732825921,0.610669742184,0.806360281041,1.),
  .UNSPECIFIED.);
#719 = CARTESIAN_POINT('',(4.8763884487,-1.168162110046));
#720 = CARTESIAN_POINT('',(4.88312924693,-1.185510539083));
#721 = CARTESIAN_POINT('',(4.888734012534,-1.203646220846));
#722 = CARTESIAN_POINT('',(4.89302485661,-1.222420962453));
#723 = CARTESIAN_POINT('',(4.895777931816,-1.241657078311));
#724 = CARTESIAN_POINT('',(4.896637269381,-1.261124850009));
#725 = CARTESIAN_POINT('',(4.895175434175,-1.280533729221));
#726 = CARTESIAN_POINT('',(4.890571922102,-1.299470075314));
#727 = CARTESIAN_POINT('',(4.87795023387,-1.325111671531));
#728 = CARTESIAN_POINT('',(4.873333264207,-1.332679373315));
#729 = CARTESIAN_POINT('',(4.867840238323,-1.339993086193));
#730 = CARTESIAN_POINT('',(4.861381461349,-1.346995043361));
#731 = CARTESIAN_POINT('',(4.853867231422,-1.353620092853));
#732 = CARTESIAN_POINT('',(4.845222487674,-1.359797459272));
#733 = CARTESIAN_POINT('',(4.835410461959,-1.365454983098));
#734 = CARTESIAN_POINT('',(4.813820869509,-1.375457395574));
#735 = CARTESIAN_POINT('',(4.802102946894,-1.379834828725));
#736 = CARTESIAN_POINT('',(4.789343218327,-1.383595571847));
#737 = CARTESIAN_POINT('',(4.77562776773,-1.386685182609));
#738 = CARTESIAN_POINT('',(4.761114784971,-1.389061302707));
#739 = CARTESIAN_POINT('',(4.746030751731,-1.390695713796));
#740 = CARTESIAN_POINT('',(4.730645139343,-1.391574488178));
#741 = CARTESIAN_POINT('',(4.699783975154,-1.391818123393));
#742 = CARTESIAN_POINT('',(4.684307239043,-1.391181209907));
#743 = CARTESIAN_POINT('',(4.669058655279,-1.389784074544));
#744 = CARTESIAN_POINT('',(4.654315039927,-1.387637535242));
#745 = CARTESIAN_POINT('',(4.640316065558,-1.38476663164));
#746 = CARTESIAN_POINT('',(4.627236360904,-1.3812107566));
#747 = CARTESIAN_POINT('',(4.615178424758,-1.377021934744));
#748 = CARTESIAN_POINT('',(4.585207916757,-1.364041650679));
#749 = CARTESIAN_POINT('',(4.569413693315,-1.354120405019));
#750 = CARTESIAN_POINT('',(4.557023198056,-1.342808457445));
#751 = CARTESIAN_POINT('',(4.547666689405,-1.330467137365));
#752 = CARTESIAN_POINT('',(4.540792719616,-1.317406633665));
#753 = CARTESIAN_POINT('',(4.536008240722,-1.303868853973));
#754 = CARTESIAN_POINT('',(4.532956355688,-1.290046553846));
#755 = CARTESIAN_POINT('',(4.529802733683,-1.26227567067));
#756 = CARTESIAN_POINT('',(4.52966987356,-1.248328765355));
#757 = CARTESIAN_POINT('',(4.530711402099,-1.234390757485));
#758 = CARTESIAN_POINT('',(4.532739436485,-1.220574331408));
#759 = CARTESIAN_POINT('',(4.535616181469,-1.206971004263));
#760 = CARTESIAN_POINT('',(4.539236589004,-1.193657997208));
#761 = CARTESIAN_POINT('',(4.54351696341,-1.180702325872));
#762 = CARTESIAN_POINT('',(4.54838951207,-1.168162110046));
#763 = ( GEOMETRIC_REPRESENTATION_CONTEXT(2) 
PARAMETRIC_REPRESENTATION_CONTEXT() REPRESENTATION_CONTEXT('2D SPACE',''
  ) );
#764 = ADVANCED_FACE('',(#765),#377,.F.);
#765 = FACE_BOUND('',#766,.F.);
#766 = EDGE_LOOP('',(#767,#768,#791,#901,#1047,#1080));
#767 = ORIENTED_EDGE('',*,*,#279,.F.);
#768 = ORIENTED_EDGE('',*,*,#769,.F.);
#769 = EDGE_CURVE('',#770,#280,#772,.T.);
#770 = VERTEX_POINT('',#771);
#771 = CARTESIAN_POINT('',(-1.959434878636E-18,3.39669923321E-02,8.E-03)
  );
#772 = SEAM_CURVE('',#773,(#777,#784),.PCURVE_S1.);
#773 = LINE('',#774,#775);
#774 = CARTESIAN_POINT('',(-1.959434878636E-18,-7.5E-02,8.E-03));
#775 = VECTOR('',#776,1.);
#776 = DIRECTION('',(0.,1.,0.));
#777 = PCURVE('',#377,#778);
#778 = DEFINITIONAL_REPRESENTATION('',(#779),#783);
#779 = LINE('',#780,#781);
#780 = CARTESIAN_POINT('',(6.28318530718,-0.));
#781 = VECTOR('',#782,1.);
#782 = DIRECTION('',(0.,1.));
#783 = ( GEOMETRIC_REPRESENTATION_CONTEXT(2) 
PARAMETRIC_REPRESENTATION_CONTEXT() REPRESENTATION_CONTEXT('2D SPACE',''
  ) );
#784 = PCURVE('',#377,#785);
#785 = DEFINITIONAL_REPRESENTATION('',(#786),#790);
#786 = LINE('',#787,#788);
#787 = CARTESIAN_POINT('',(0.,-0.));
#788 = VECTOR('',#789,1.);
#789 = DIRECTION('',(0.,1.));
#790 = ( GEOMETRIC_REPRESENTATION_CONTEXT(2) 
PARAMETRIC_REPRESENTATION_CONTEXT() REPRESENTATION_CONTEXT('2D SPACE',''
  ) );
#791 = ORIENTED_EDGE('',*,*,#792,.T.);
#792 = EDGE_CURVE('',#770,#793,#795,.T.);
#793 = VERTEX_POINT('',#794);
#794 = CARTESIAN_POINT('',(5.142300877492E-03,4.834252786109E-02,
    -6.128355544952E-03));
#795 = SURFACE_CURVE('',#796,(#829,#865),.PCURVE_S1.);
#796 = B_SPLINE_CURVE_WITH_KNOTS('',7,(#797,#798,#799,#800,#801,#802,
    #803,#804,#805,#806,#807,#808,#809,#810,#811,#812,#813,#814,#815,
    #816,#817,#818,#819,#820,#821,#822,#823,#824,#825,#826,#827,#828),
  .UNSPECIFIED.,.F.,.F.,(8,6,6,6,6,8),(0.,0.176525475075,0.357856096748,
    0.515389542421,0.762104803512,1.),.UNSPECIFIED.);
#797 = CARTESIAN_POINT('',(-1.959434878636E-18,3.39669923321E-02,8.E-03)
  );
#798 = CARTESIAN_POINT('',(5.068880963779E-04,3.265178085863E-02,8.E-03)
  );
#799 = CARTESIAN_POINT('',(1.01367143843E-03,3.135898507829E-02,
    7.962528802298E-03));
#800 = CARTESIAN_POINT('',(1.51698035388E-03,3.010105666022E-02,
    7.887621998216E-03));
#801 = CARTESIAN_POINT('',(2.013197093267E-03,2.889309942562E-02,
    7.775679124539E-03));
#802 = CARTESIAN_POINT('',(2.498547828786E-03,2.775429314741E-02,
    7.627710942254E-03));
#803 = CARTESIAN_POINT('',(2.969322790752E-03,2.670695760465E-02,
    7.445413703094E-03));
#804 = CARTESIAN_POINT('',(3.887454594274E-03,2.481414019372E-02,
    7.01089253057E-03));
#805 = CARTESIAN_POINT('',(4.334035047593E-03,2.397448803822E-02,
    6.756813978083E-03));
#806 = CARTESIAN_POINT('',(4.757676754408E-03,2.327969623535E-02,
    6.471485882474E-03));
#807 = CARTESIAN_POINT('',(5.1556035784E-03,2.27521435455E-02,
    6.15831202176E-03));
#808 = CARTESIAN_POINT('',(5.526659867266E-03,2.240657917689E-02,
    5.819871255468E-03));
#809 = CARTESIAN_POINT('',(5.870603805912E-03,2.224888787675E-02,
    5.457508579535E-03));
#810 = CARTESIAN_POINT('',(6.461101046132E-03,2.230372625718E-02,
    4.73726132676E-03));
#811 = CARTESIAN_POINT('',(6.714552174696E-03,2.247037365982E-02,
    4.384997133068E-03));
#812 = CARTESIAN_POINT('',(6.945420274437E-03,2.277749207824E-02,
    4.01711559014E-03));
#813 = CARTESIAN_POINT('',(7.152741366133E-03,2.32172769132E-02,
    3.635215737844E-03));
#814 = CARTESIAN_POINT('',(7.33544822589E-03,2.377639402706E-02,
    3.241054551974E-03));
#815 = CARTESIAN_POINT('',(7.492708704637E-03,2.443948091379E-02,
    2.836689805513E-03));
#816 = CARTESIAN_POINT('',(7.829389388572E-03,2.637010261188E-02,
    1.777787256901E-03));
#817 = CARTESIAN_POINT('',(7.972437742977E-03,2.777582137781E-02,
    1.106553632432E-03));
#818 = CARTESIAN_POINT('',(8.048496647166E-03,2.935500142085E-02,
    4.189376443998E-04));
#819 = CARTESIAN_POINT('',(8.054820849182E-03,3.104823534438E-02,
    -2.751688844707E-04));
#820 = CARTESIAN_POINT('',(7.991274701361E-03,3.281255692675E-02,
    -9.658991080158E-04));
#821 = CARTESIAN_POINT('',(7.859309386408E-03,3.461506395904E-02,
    -1.644552842785E-03));
#822 = CARTESIAN_POINT('',(7.470227542471E-03,3.818323759544E-02,
    -2.938666817003E-03));
#823 = CARTESIAN_POINT('',(7.217781540691E-03,3.994765601998E-02,
    -3.555430210737E-03));
#824 = CARTESIAN_POINT('',(6.906027660015E-03,4.170278161617E-02,
    -4.14660559059E-03));
#825 = CARTESIAN_POINT('',(6.538120866636E-03,4.343199476183E-02,
    -4.705402688259E-03));
#826 = CARTESIAN_POINT('',(6.118156476075E-03,4.512208429792E-02,
    -5.225552735188E-03));
#827 = CARTESIAN_POINT('',(5.65103961834E-03,4.676201472037E-02,
    -5.701473055141E-03));
#828 = CARTESIAN_POINT('',(5.142300877491E-03,4.834252786109E-02,
    -6.128355544953E-03));
#829 = PCURVE('',#377,#830);
#830 = DEFINITIONAL_REPRESENTATION('',(#831),#864);
#831 = B_SPLINE_CURVE_WITH_KNOTS('',7,(#832,#833,#834,#835,#836,#837,
    #838,#839,#840,#841,#842,#843,#844,#845,#846,#847,#848,#849,#850,
    #851,#852,#853,#854,#855,#856,#857,#858,#859,#860,#861,#862,#863),
  .UNSPECIFIED.,.F.,.F.,(8,6,6,6,6,8),(0.,0.176525475075,0.357856096748,
    0.515389542421,0.762104803512,1.),.UNSPECIFIED.);
#832 = CARTESIAN_POINT('',(0.,0.108966992332));
#833 = CARTESIAN_POINT('',(6.336101204723E-02,0.107651780859));
#834 = CARTESIAN_POINT('',(0.126709062391,0.106358985078));
#835 = CARTESIAN_POINT('',(0.190037710627,0.10510105666));
#836 = CARTESIAN_POINT('',(0.253310959738,0.103893099426));
#837 = CARTESIAN_POINT('',(0.316461742355,0.102754293147));
#838 = CARTESIAN_POINT('',(0.37940039741,0.101706957605));
#839 = CARTESIAN_POINT('',(0.506370783845,9.981414019372E-02));
#840 = CARTESIAN_POINT('',(0.570413404675,9.897448803822E-02));
#841 = CARTESIAN_POINT('',(0.633972872062,9.827969623535E-02));
#842 = CARTESIAN_POINT('',(0.696964176715,9.77521435455E-02));
#843 = CARTESIAN_POINT('',(0.759482114857,9.740657917689E-02));
#844 = CARTESIAN_POINT('',(0.821767982156,9.724888787675E-02));
#845 = CARTESIAN_POINT('',(0.938188763687,9.730372625718E-02));
#846 = CARTESIAN_POINT('',(0.992326852317,9.747037365982E-02));
#847 = CARTESIAN_POINT('',(1.046444159378,9.777749207824E-02));
#848 = CARTESIAN_POINT('',(1.100567777963,9.82172769132E-02));
#849 = CARTESIAN_POINT('',(1.154700480175,9.877639402706E-02));
#850 = CARTESIAN_POINT('',(1.208826274171,9.943948091379E-02));
#851 = CARTESIAN_POINT('',(1.347718571159,0.101370102612));
#852 = CARTESIAN_POINT('',(1.433096530006,0.102775821378));
#853 = CARTESIAN_POINT('',(1.518882711706,0.104355001421));
#854 = CARTESIAN_POINT('',(1.604857898465,0.106048235344));
#855 = CARTESIAN_POINT('',(1.690869346503,0.107812556927));
#856 = CARTESIAN_POINT('',(1.776858106545,0.109615063959));
#857 = CARTESIAN_POINT('',(1.945775415251,0.113183237595));
#858 = CARTESIAN_POINT('',(2.028691798557,0.11494765602));
#859 = CARTESIAN_POINT('',(2.111610689115,0.116702781616));
#860 = CARTESIAN_POINT('',(2.194537146405,0.118431994762));
#861 = CARTESIAN_POINT('',(2.277478484146,0.120122084298));
#862 = CARTESIAN_POINT('',(2.360447045209,0.12176201472));
#863 = CARTESIAN_POINT('',(2.443460952792,0.123342527861));
#864 = ( GEOMETRIC_REPRESENTATION_CONTEXT(2) 
PARAMETRIC_REPRESENTATION_CONTEXT() REPRESENTATION_CONTEXT('2D SPACE',''
  ) );
#865 = PCURVE('',#517,#866);
#866 = DEFINITIONAL_REPRESENTATION('',(#867),#900);
#867 = B_SPLINE_CURVE_WITH_KNOTS('',7,(#868,#869,#870,#871,#872,#873,
    #874,#875,#876,#877,#878,#879,#880,#881,#882,#883,#884,#885,#886,
    #887,#888,#889,#890,#891,#892,#893,#894,#895,#896,#897,#898,#899),
  .UNSPECIFIED.,.F.,.F.,(8,6,6,6,6,8),(0.,0.176525475075,0.357856096748,
    0.515389542421,0.762104803512,1.),.UNSPECIFIED.);
#868 = CARTESIAN_POINT('',(1.749296932124,1.291152998583));
#869 = CARTESIAN_POINT('',(1.74677275227,1.302403012562));
#870 = CARTESIAN_POINT('',(1.743086613918,1.313467285117));
#871 = CARTESIAN_POINT('',(1.738047569041,1.324242148465));
#872 = CARTESIAN_POINT('',(1.731437837114,1.334601472623));
#873 = CARTESIAN_POINT('',(1.722980403134,1.344383132038));
#874 = CARTESIAN_POINT('',(1.712410776911,1.353395475769));
#875 = CARTESIAN_POINT('',(1.686547772371,1.369711207652));
#876 = CARTESIAN_POINT('',(1.67112724789,1.376965111792));
#877 = CARTESIAN_POINT('',(1.653333468267,1.382983488418));
#878 = CARTESIAN_POINT('',(1.633285411188,1.38756405285));
#879 = CARTESIAN_POINT('',(1.611550864187,1.390568682997));
#880 = CARTESIAN_POINT('',(1.589065942488,1.391939138993));
#881 = CARTESIAN_POINT('',(1.547273327879,1.391462494744));
#882 = CARTESIAN_POINT('',(1.527934776126,1.390014055722));
#883 = CARTESIAN_POINT('',(1.50932932006,1.387345063813));
#884 = CARTESIAN_POINT('',(1.492075724847,1.383527293983));
#885 = CARTESIAN_POINT('',(1.476496937264,1.378683315389));
#886 = CARTESIAN_POINT('',(1.462671596634,1.372950367141));
#887 = CARTESIAN_POINT('',(1.431594131256,1.356290798033));
#888 = CARTESIAN_POINT('',(1.416694010358,1.344187807052));
#889 = CARTESIAN_POINT('',(1.405873028474,1.330627113648));
#890 = CARTESIAN_POINT('',(1.398279429571,1.316119064893));
#891 = CARTESIAN_POINT('',(1.393277623764,1.301021138821));
#892 = CARTESIAN_POINT('',(1.390377601152,1.285607730001));
#893 = CARTESIAN_POINT('',(1.388090909909,1.255103518164));
#894 = CARTESIAN_POINT('',(1.388582759982,1.240023168289));
#895 = CARTESIAN_POINT('',(1.39036114213,1.225019691032));
#896 = CARTESIAN_POINT('',(1.393208226883,1.210230183281));
#897 = CARTESIAN_POINT('',(1.396970517788,1.195764422097));
#898 = CARTESIAN_POINT('',(1.401530675587,1.18171540108));
#899 = CARTESIAN_POINT('',(1.40679685848,1.168162110046));
#900 = ( GEOMETRIC_REPRESENTATION_CONTEXT(2) 
PARAMETRIC_REPRESENTATION_CONTEXT() REPRESENTATION_CONTEXT('2D SPACE',''
  ) );
#901 = ORIENTED_EDGE('',*,*,#902,.T.);
#902 = EDGE_CURVE('',#793,#903,#905,.T.);
#903 = VERTEX_POINT('',#904);
#904 = CARTESIAN_POINT('',(-5.142300877492E-03,4.834252786109E-02,
    6.128355544952E-03));
#905 = SURFACE_CURVE('',#906,(#951,#999),.PCURVE_S1.);
#906 = B_SPLINE_CURVE_WITH_KNOTS('',8,(#907,#908,#909,#910,#911,#912,
    #913,#914,#915,#916,#917,#918,#919,#920,#921,#922,#923,#924,#925,
    #926,#927,#928,#929,#930,#931,#932,#933,#934,#935,#936,#937,#938,
    #939,#940,#941,#942,#943,#944,#945,#946,#947,#948,#949,#950),
  .UNSPECIFIED.,.F.,.F.,(9,7,7,7,7,7,9),(0.,0.267713690672,
    0.384119814098,0.49732825921,0.610669742185,0.806360281041,1.),
  .UNSPECIFIED.);
#907 = CARTESIAN_POINT('',(5.142300877493E-03,4.834252786109E-02,
    -6.128355544951E-03));
#908 = CARTESIAN_POINT('',(4.491107162122E-03,4.631944579232E-02,
    -6.674771951344E-03));
#909 = CARTESIAN_POINT('',(3.774323360941E-03,4.420197905902E-02,
    -7.141465190684E-03));
#910 = CARTESIAN_POINT('',(3.002883474295E-03,4.200749777027E-02,
    -7.519815114974E-03));
#911 = CARTESIAN_POINT('',(2.189139528103E-03,3.975715786311E-02,
    -7.802629076441E-03));
#912 = CARTESIAN_POINT('',(1.346828835375E-03,3.747867640495E-02,
    -7.984534605035E-03));
#913 = CARTESIAN_POINT('',(4.90792568615E-04,3.520732462003E-02,
    -8.062571076478E-03));
#914 = CARTESIAN_POINT('',(-3.63794630393E-04,3.299347925128E-02,
    -8.03659769081E-03));
#915 = CARTESIAN_POINT('',(-1.566821666373E-03,3.000058050747E-02,
    -7.85372869856E-03));
#916 = CARTESIAN_POINT('',(-1.928272651091E-03,2.911795419675E-02,
    -7.779135728858E-03));
#917 = CARTESIAN_POINT('',(-2.28528580059E-03,2.826574860233E-02,
    -7.685606818197E-03));
#918 = CARTESIAN_POINT('',(-2.636505728905E-03,2.745078377483E-02,
    -7.573516316768E-03));
#919 = CARTESIAN_POINT('',(-2.980579660473E-03,2.668067390413E-02,
    -7.443401066452E-03));
#920 = CARTESIAN_POINT('',(-3.316202022899E-03,2.596359098668E-02,
    -7.295964292374E-03));
#921 = CARTESIAN_POINT('',(-3.642161454377E-03,2.530775820771E-02,
    -7.132056003945E-03));
#922 = CARTESIAN_POINT('',(-4.2639596571E-03,2.414971510947E-02,
    -6.778132644965E-03));
#923 = CARTESIAN_POINT('',(-4.560426441401E-03,2.364369116798E-02,
    -6.588933755853E-03));
#924 = CARTESIAN_POINT('',(-4.84573873964E-03,2.320964117689E-02,
    -6.385927754896E-03));
#925 = CARTESIAN_POINT('',(-5.119165969793E-03,2.285355502042E-02,
    -6.170037601432E-03));
#926 = CARTESIAN_POINT('',(-5.380265221319E-03,2.25799980566E-02,
    -5.942057234546E-03));
#927 = CARTESIAN_POINT('',(-5.628804769107E-03,2.239194773026E-02,
    -5.702574175155E-03));
#928 = CARTESIAN_POINT('',(-5.864644686879E-03,2.229084124649E-02,
    -5.451972192879E-03));
#929 = CARTESIAN_POINT('',(-6.310766411162E-03,2.226281090245E-02,
    -4.928748627794E-03));
#930 = CARTESIAN_POINT('',(-6.521044790343E-03,2.233609113096E-02,
    -4.65607000574E-03));
#931 = CARTESIAN_POINT('',(-6.718218993579E-03,2.24968124918E-02,
    -4.372735694831E-03));
#932 = CARTESIAN_POINT('',(-6.90197956838E-03,2.274386474971E-02,
    -4.078931204122E-03));
#933 = CARTESIAN_POINT('',(-7.071829019039E-03,2.307461800864E-02,
    -3.774944420369E-03));
#934 = CARTESIAN_POINT('',(-7.227088742292E-03,2.348484781589E-02,
    -3.461289694813E-03));
#935 = CARTESIAN_POINT('',(-7.366982193372E-03,2.396885729407E-02,
    -3.138781624792E-03));
#936 = CARTESIAN_POINT('',(-7.704562920375E-03,2.547102393935E-02,
    -2.238409511305E-03));
#937 = CARTESIAN_POINT('',(-7.870308637202E-03,2.662141892608E-02,
    -1.645469788302E-03));
#938 = CARTESIAN_POINT('',(-7.984514936563E-03,2.793617486485E-02,
    -1.0352476373E-03));
#939 = CARTESIAN_POINT('',(-8.044523963513E-03,2.937398278286E-02,
    -4.141218466055E-04));
#940 = CARTESIAN_POINT('',(-8.049013494537E-03,3.089816701997E-02,
    2.109522486075E-04));
#941 = CARTESIAN_POINT('',(-7.998013216488E-03,3.247991522949E-02,
    8.334174860243E-04));
#942 = CARTESIAN_POINT('',(-7.892425294838E-03,3.409604385279E-02,
    1.447191968296E-03));
#943 = CARTESIAN_POINT('',(-7.576690088775E-03,3.73441549222E-02,
    2.640167999223E-03));
#944 = CARTESIAN_POINT('',(-7.367635957307E-03,3.89759308891E-02,
    3.219717849125E-03));
#945 = CARTESIAN_POINT('',(-7.107968638232E-03,4.06066427775E-02,
    3.780185459213E-03));
#946 = CARTESIAN_POINT('',(-6.799741199515E-03,4.222263055606E-02,
    4.316440898657E-03));
#947 = CARTESIAN_POINT('',(-6.445616365888E-03,4.381282958797E-02,
    4.823634296482E-03));
#948 = CARTESIAN_POINT('',(-6.048809441297E-03,4.53679835545E-02,
    5.297291494539E-03));
#949 = CARTESIAN_POINT('',(-5.613012647309E-03,4.68801541947E-02,
    5.733381472508E-03));
#950 = CARTESIAN_POINT('',(-5.142300877491E-03,4.834252786109E-02,
    6.128355544953E-03));
#951 = PCURVE('',#377,#952);
#952 = DEFINITIONAL_REPRESENTATION('',(#953),#998);
#953 = B_SPLINE_CURVE_WITH_KNOTS('',8,(#954,#955,#956,#957,#958,#959,
    #960,#961,#962,#963,#964,#965,#966,#967,#968,#969,#970,#971,#972,
    #973,#974,#975,#976,#977,#978,#979,#980,#981,#982,#983,#984,#985,
    #986,#987,#988,#989,#990,#991,#992,#993,#994,#995,#996,#997),
  .UNSPECIFIED.,.F.,.F.,(9,7,7,7,7,7,9),(0.,0.267713690672,
    0.384119814098,0.49732825921,0.610669742185,0.806360281041,1.),
  .UNSPECIFIED.);
#954 = CARTESIAN_POINT('',(2.443460952792,0.123342527861));
#955 = CARTESIAN_POINT('',(2.549720080644,0.121319445792));
#956 = CARTESIAN_POINT('',(2.655854190338,0.119201979059));
#957 = CARTESIAN_POINT('',(2.761951901976,0.11700749777));
#958 = CARTESIAN_POINT('',(2.868062661892,0.114757157863));
#959 = CARTESIAN_POINT('',(2.974197590403,0.112478676405));
#960 = CARTESIAN_POINT('',(3.080336391186,0.11020732462));
#961 = CARTESIAN_POINT('',(3.186434547475,0.107993479251));
#962 = CARTESIAN_POINT('',(3.338540345237,0.105000580507));
#963 = CARTESIAN_POINT('',(3.384609892551,0.104117954197));
#964 = CARTESIAN_POINT('',(3.430635805517,0.103265748602));
#965 = CARTESIAN_POINT('',(3.476592440636,0.102450783775));
#966 = CARTESIAN_POINT('',(3.522448006835,0.101680673904));
#967 = CARTESIAN_POINT('',(3.568166847748,0.100963590987));
#968 = CARTESIAN_POINT('',(3.61371257894,0.100307758208));
#969 = CARTESIAN_POINT('',(3.703146104266,9.914971510947E-02));
#970 = CARTESIAN_POINT('',(3.747051592023,9.864369116798E-02));
#971 = CARTESIAN_POINT('',(3.79073004428,9.820964117689E-02));
#972 = CARTESIAN_POINT('',(3.83417031903,9.785355502042E-02));
#973 = CARTESIAN_POINT('',(3.877393410617,9.75799980566E-02));
#974 = CARTESIAN_POINT('',(3.920450510829,9.739194773026E-02));
#975 = CARTESIAN_POINT('',(3.963414351802,9.729084124649E-02));
#976 = CARTESIAN_POINT('',(4.049363782059,9.726281090245E-02));
#977 = CARTESIAN_POINT('',(4.092354418979,9.733609113096E-02));
#978 = CARTESIAN_POINT('',(4.135417211783,9.74968124918E-02));
#979 = CARTESIAN_POINT('',(4.178629784992,9.774386474971E-02));
#980 = CARTESIAN_POINT('',(4.222049778376,9.807461800864E-02));
#981 = CARTESIAN_POINT('',(4.265705264905,9.848484781589E-02));
#982 = CARTESIAN_POINT('',(4.30959172561,9.896885729407E-02));
#983 = CARTESIAN_POINT('',(4.429788874208,0.100471023939));
#984 = CARTESIAN_POINT('',(4.506462258101,0.101621418926));
#985 = CARTESIAN_POINT('',(4.583568569724,0.102936174865));
#986 = CARTESIAN_POINT('',(4.660958094593,0.104373982783));
#987 = CARTESIAN_POINT('',(4.738479402958,0.10589816702));
#988 = CARTESIAN_POINT('',(4.81603923612,0.107479915229));
#989 = CARTESIAN_POINT('',(4.893584262991,0.109096043853));
#990 = CARTESIAN_POINT('',(5.047840570131,0.112344154922));
#991 = CARTESIAN_POINT('',(5.124559002695,0.113975930889));
#992 = CARTESIAN_POINT('',(5.201278200679,0.115606642777));
#993 = CARTESIAN_POINT('',(5.278000968574,0.117222630556));
#994 = CARTESIAN_POINT('',(5.354731189419,0.118812829588));
#995 = CARTESIAN_POINT('',(5.431475589516,0.120367983554));
#996 = CARTESIAN_POINT('',(5.508244784445,0.121880154195));
#997 = CARTESIAN_POINT('',(5.585053606382,0.123342527861));
#998 = ( GEOMETRIC_REPRESENTATION_CONTEXT(2) 
PARAMETRIC_REPRESENTATION_CONTEXT() REPRESENTATION_CONTEXT('2D SPACE',''
  ) );
#999 = PCURVE('',#712,#1000);
#1000 = DEFINITIONAL_REPRESENTATION('',(#1001),#1046);
#1001 = B_SPLINE_CURVE_WITH_KNOTS('',8,(#1002,#1003,#1004,#1005,#1006,
    #1007,#1008,#1009,#1010,#1011,#1012,#1013,#1014,#1015,#1016,#1017,
    #1018,#1019,#1020,#1021,#1022,#1023,#1024,#1025,#1026,#1027,#1028,
    #1029,#1030,#1031,#1032,#1033,#1034,#1035,#1036,#1037,#1038,#1039,
    #1040,#1041,#1042,#1043,#1044,#1045),.UNSPECIFIED.,.F.,.F.,(9,7,7,7,
    7,7,9),(0.,0.267713690672,0.384119814098,0.49732825921,
    0.610669742185,0.806360281041,1.),.UNSPECIFIED.);
#1002 = CARTESIAN_POINT('',(1.40679685848,-1.168162110046));
#1003 = CARTESIAN_POINT('',(1.40005606025,-1.185510539083));
#1004 = CARTESIAN_POINT('',(1.394451294645,-1.203646220846));
#1005 = CARTESIAN_POINT('',(1.39016045057,-1.222420962453));
#1006 = CARTESIAN_POINT('',(1.387407375363,-1.241657078311));
#1007 = CARTESIAN_POINT('',(1.386548037799,-1.261124850009));
#1008 = CARTESIAN_POINT('',(1.388009873005,-1.280533729221));
#1009 = CARTESIAN_POINT('',(1.392613385077,-1.299470075314));
#1010 = CARTESIAN_POINT('',(1.405235073309,-1.325111671531));
#1011 = CARTESIAN_POINT('',(1.409852042973,-1.332679373315));
#1012 = CARTESIAN_POINT('',(1.415345068856,-1.339993086193));
#1013 = CARTESIAN_POINT('',(1.42180384583,-1.346995043361));
#1014 = CARTESIAN_POINT('',(1.429318075757,-1.353620092853));
#1015 = CARTESIAN_POINT('',(1.437962819505,-1.359797459272));
#1016 = CARTESIAN_POINT('',(1.447774845221,-1.365454983098));
#1017 = CARTESIAN_POINT('',(1.469364437671,-1.375457395574));
#1018 = CARTESIAN_POINT('',(1.481082360285,-1.379834828725));
#1019 = CARTESIAN_POINT('',(1.493842088852,-1.383595571847));
#1020 = CARTESIAN_POINT('',(1.50755753945,-1.386685182609));
#1021 = CARTESIAN_POINT('',(1.522070522209,-1.389061302707));
#1022 = CARTESIAN_POINT('',(1.537154555449,-1.390695713796));
#1023 = CARTESIAN_POINT('',(1.552540167836,-1.391574488178));
#1024 = CARTESIAN_POINT('',(1.583401332026,-1.391818123393));
#1025 = CARTESIAN_POINT('',(1.598878068136,-1.391181209907));
#1026 = CARTESIAN_POINT('',(1.614126651901,-1.389784074544));
#1027 = CARTESIAN_POINT('',(1.628870267252,-1.387637535242));
#1028 = CARTESIAN_POINT('',(1.642869241622,-1.38476663164));
#1029 = CARTESIAN_POINT('',(1.655948946275,-1.3812107566));
#1030 = CARTESIAN_POINT('',(1.668006882422,-1.377021934744));
#1031 = CARTESIAN_POINT('',(1.697977390422,-1.364041650679));
#1032 = CARTESIAN_POINT('',(1.713771613864,-1.354120405019));
#1033 = CARTESIAN_POINT('',(1.726162109123,-1.342808457445));
#1034 = CARTESIAN_POINT('',(1.735518617775,-1.330467137365));
#1035 = CARTESIAN_POINT('',(1.742392587563,-1.317406633665));
#1036 = CARTESIAN_POINT('',(1.747177066458,-1.303868853973));
#1037 = CARTESIAN_POINT('',(1.750228951492,-1.290046553846));
#1038 = CARTESIAN_POINT('',(1.753382573496,-1.26227567067));
#1039 = CARTESIAN_POINT('',(1.753515433619,-1.248328765355));
#1040 = CARTESIAN_POINT('',(1.752473905081,-1.234390757485));
#1041 = CARTESIAN_POINT('',(1.750445870695,-1.220574331408));
#1042 = CARTESIAN_POINT('',(1.747569125711,-1.206971004263));
#1043 = CARTESIAN_POINT('',(1.743948718176,-1.193657997208));
#1044 = CARTESIAN_POINT('',(1.739668343769,-1.180702325872));
#1045 = CARTESIAN_POINT('',(1.73479579511,-1.168162110046));
#1046 = ( GEOMETRIC_REPRESENTATION_CONTEXT(2) 
PARAMETRIC_REPRESENTATION_CONTEXT() REPRESENTATION_CONTEXT('2D SPACE',''
  ) );
#1047 = ORIENTED_EDGE('',*,*,#1048,.T.);
#1048 = EDGE_CURVE('',#903,#770,#1049,.T.);
#1049 = SURFACE_CURVE('',#1050,(#1058,#1069),.PCURVE_S1.);
#1050 = B_SPLINE_CURVE_WITH_KNOTS('',6,(#1051,#1052,#1053,#1054,#1055,
    #1056,#1057),.UNSPECIFIED.,.F.,.F.,(7,7),(0.,1.),
  .PIECEWISE_BEZIER_KNOTS.);
#1051 = CARTESIAN_POINT('',(-5.142300877493E-03,4.834252786109E-02,
    6.128355544951E-03));
#1052 = CARTESIAN_POINT('',(-4.428549904332E-03,4.612509737722E-02,
    6.727263723284E-03));
#1053 = CARTESIAN_POINT('',(-3.631768114784E-03,4.378772053607E-02,
    7.225850409279E-03));
#1054 = CARTESIAN_POINT('',(-2.76917892857E-03,4.135810116399E-02,
    7.610283811211E-03));
#1055 = CARTESIAN_POINT('',(-1.861169120019E-03,3.887295504959E-02,
    7.870115224837E-03));
#1056 = CARTESIAN_POINT('',(-9.305492866824E-04,3.638146824349E-02,
    8.E-03));
#1057 = CARTESIAN_POINT('',(-1.734723475977E-18,3.39669923321E-02,8.E-03
    ));
#1058 = PCURVE('',#377,#1059);
#1059 = DEFINITIONAL_REPRESENTATION('',(#1060),#1068);
#1060 = B_SPLINE_CURVE_WITH_KNOTS('',6,(#1061,#1062,#1063,#1064,#1065,
    #1066,#1067),.UNSPECIFIED.,.F.,.F.,(7,7),(0.,1.),
  .PIECEWISE_BEZIER_KNOTS.);
#1061 = CARTESIAN_POINT('',(5.585053606382,0.123342527861));
#1062 = CARTESIAN_POINT('',(5.701520571773,0.121125097377));
#1063 = CARTESIAN_POINT('',(5.817877918398,0.118787720536));
#1064 = CARTESIAN_POINT('',(5.934206077536,0.116358101164));
#1065 = CARTESIAN_POINT('',(6.050538946344,0.11387295505));
#1066 = CARTESIAN_POINT('',(6.166866646344,0.111381468243));
#1067 = CARTESIAN_POINT('',(6.28318530718,0.108966992332));
#1068 = ( GEOMETRIC_REPRESENTATION_CONTEXT(2) 
PARAMETRIC_REPRESENTATION_CONTEXT() REPRESENTATION_CONTEXT('2D SPACE',''
  ) );
#1069 = PCURVE('',#517,#1070);
#1070 = DEFINITIONAL_REPRESENTATION('',(#1071),#1079);
#1071 = B_SPLINE_CURVE_WITH_KNOTS('',6,(#1072,#1073,#1074,#1075,#1076,
    #1077,#1078),.UNSPECIFIED.,.F.,.F.,(7,7),(0.,1.),
  .PIECEWISE_BEZIER_KNOTS.);
#1072 = CARTESIAN_POINT('',(1.73479579511,1.168162110046));
#1073 = CARTESIAN_POINT('',(1.742184151574,1.187177124803));
#1074 = CARTESIAN_POINT('',(1.748142334808,1.207192754148));
#1075 = CARTESIAN_POINT('',(1.75239102534,1.227972908901));
#1076 = CARTESIAN_POINT('',(1.754531949228,1.249209329485));
#1077 = CARTESIAN_POINT('',(1.753930842013,1.270500131494));
#1078 = CARTESIAN_POINT('',(1.749296932124,1.291152998583));
#1079 = ( GEOMETRIC_REPRESENTATION_CONTEXT(2) 
PARAMETRIC_REPRESENTATION_CONTEXT() REPRESENTATION_CONTEXT('2D SPACE',''
  ) );
#1080 = ORIENTED_EDGE('',*,*,#769,.T.);
#1081 = ADVANCED_FACE('',(#1082),#517,.F.);
#1082 = FACE_BOUND('',#1083,.F.);
#1083 = EDGE_LOOP('',(#1084,#1108,#1132,#1133,#1155,#1156,#1157,#1179,
    #1180));
#1084 = ORIENTED_EDGE('',*,*,#1085,.T.);
#1085 = EDGE_CURVE('',#444,#1086,#1088,.T.);
#1086 = VERTEX_POINT('',#1087);
#1087 = CARTESIAN_POINT('',(3.149659287464E-02,-1.200153863164E-17,
    -3.753617771283E-02));
#1088 = SURFACE_CURVE('',#1089,(#1094,#1101),.PCURVE_S1.);
#1089 = CIRCLE('',#1090,4.9E-02);
#1090 = AXIS2_PLACEMENT_3D('',#1091,#1092,#1093);
#1091 = CARTESIAN_POINT('',(0.,0.,0.));
#1092 = DIRECTION('',(0.766044443119,0.,0.642787609687));
#1093 = DIRECTION('',(0.,-1.,0.));
#1094 = PCURVE('',#517,#1095);
#1095 = DEFINITIONAL_REPRESENTATION('',(#1096),#1100);
#1096 = LINE('',#1097,#1098);
#1097 = CARTESIAN_POINT('',(-1.570796326795,1.168162110046));
#1098 = VECTOR('',#1099,1.);
#1099 = DIRECTION('',(1.,0.));
#1100 = ( GEOMETRIC_REPRESENTATION_CONTEXT(2) 
PARAMETRIC_REPRESENTATION_CONTEXT() REPRESENTATION_CONTEXT('2D SPACE',''
  ) );
#1101 = PCURVE('',#712,#1102);
#1102 = DEFINITIONAL_REPRESENTATION('',(#1103),#1107);
#1103 = LINE('',#1104,#1105);
#1104 = CARTESIAN_POINT('',(-1.570796326795,-1.168162110046));
#1105 = VECTOR('',#1106,1.);
#1106 = DIRECTION('',(1.,0.));
#1107 = ( GEOMETRIC_REPRESENTATION_CONTEXT(2) 
PARAMETRIC_REPRESENTATION_CONTEXT() REPRESENTATION_CONTEXT('2D SPACE',''
  ) );
#1108 = ORIENTED_EDGE('',*,*,#1109,.T.);
#1109 = EDGE_CURVE('',#1086,#1110,#1112,.T.);
#1110 = VERTEX_POINT('',#1111);
#1111 = CARTESIAN_POINT('',(7.66044443119E-03,-1.875449608219E-33,
    6.427876096865E-03));
#1112 = SEAM_CURVE('',#1113,(#1118,#1125),.PCURVE_S1.);
#1113 = CIRCLE('',#1114,0.12505);
#1114 = AXIS2_PLACEMENT_3D('',#1115,#1116,#1117);
#1115 = CARTESIAN_POINT('',(-8.813341318084E-02,0.,-7.395271449444E-02)
  );
#1116 = DIRECTION('',(-1.574375577468E-16,-1.,1.876267750541E-16));
#1117 = DIRECTION('',(0.642787609687,-2.449293598295E-16,-0.766044443119
    ));
#1118 = PCURVE('',#517,#1119);
#1119 = DEFINITIONAL_REPRESENTATION('',(#1120),#1124);
#1120 = LINE('',#1121,#1122);
#1121 = CARTESIAN_POINT('',(0.,-6.28318530718));
#1122 = VECTOR('',#1123,1.);
#1123 = DIRECTION('',(0.,1.));
#1124 = ( GEOMETRIC_REPRESENTATION_CONTEXT(2) 
PARAMETRIC_REPRESENTATION_CONTEXT() REPRESENTATION_CONTEXT('2D SPACE',''
  ) );
#1125 = PCURVE('',#517,#1126);
#1126 = DEFINITIONAL_REPRESENTATION('',(#1127),#1131);
#1127 = LINE('',#1128,#1129);
#1128 = CARTESIAN_POINT('',(6.28318530718,-6.28318530718));
#1129 = VECTOR('',#1130,1.);
#1130 = DIRECTION('',(0.,1.));
#1131 = ( GEOMETRIC_REPRESENTATION_CONTEXT(2) 
PARAMETRIC_REPRESENTATION_CONTEXT() REPRESENTATION_CONTEXT('2D SPACE',''
  ) );
#1132 = ORIENTED_EDGE('',*,*,#1109,.F.);
#1133 = ORIENTED_EDGE('',*,*,#1134,.T.);
#1134 = EDGE_CURVE('',#1086,#793,#1135,.T.);
#1135 = SURFACE_CURVE('',#1136,(#1141,#1148),.PCURVE_S1.);
#1136 = CIRCLE('',#1137,4.9E-02);
#1137 = AXIS2_PLACEMENT_3D('',#1138,#1139,#1140);
#1138 = CARTESIAN_POINT('',(0.,0.,0.));
#1139 = DIRECTION('',(0.766044443119,0.,0.642787609687));
#1140 = DIRECTION('',(0.,-1.,0.));
#1141 = PCURVE('',#517,#1142);
#1142 = DEFINITIONAL_REPRESENTATION('',(#1143),#1147);
#1143 = LINE('',#1144,#1145);
#1144 = CARTESIAN_POINT('',(-1.570796326795,1.168162110046));
#1145 = VECTOR('',#1146,1.);
#1146 = DIRECTION('',(1.,0.));
#1147 = ( GEOMETRIC_REPRESENTATION_CONTEXT(2) 
PARAMETRIC_REPRESENTATION_CONTEXT() REPRESENTATION_CONTEXT('2D SPACE',''
  ) );
#1148 = PCURVE('',#712,#1149);
#1149 = DEFINITIONAL_REPRESENTATION('',(#1150),#1154);
#1150 = LINE('',#1151,#1152);
#1151 = CARTESIAN_POINT('',(-1.570796326795,-1.168162110046));
#1152 = VECTOR('',#1153,1.);
#1153 = DIRECTION('',(1.,0.));
#1154 = ( GEOMETRIC_REPRESENTATION_CONTEXT(2) 
PARAMETRIC_REPRESENTATION_CONTEXT() REPRESENTATION_CONTEXT('2D SPACE',''
  ) );
#1155 = ORIENTED_EDGE('',*,*,#792,.F.);
#1156 = ORIENTED_EDGE('',*,*,#1048,.F.);
#1157 = ORIENTED_EDGE('',*,*,#1158,.T.);
#1158 = EDGE_CURVE('',#903,#582,#1159,.T.);
#1159 = SURFACE_CURVE('',#1160,(#1165,#1172),.PCURVE_S1.);
#1160 = CIRCLE('',#1161,4.9E-02);
#1161 = AXIS2_PLACEMENT_3D('',#1162,#1163,#1164);
#1162 = CARTESIAN_POINT('',(0.,0.,0.));
#1163 = DIRECTION('',(0.766044443119,0.,0.642787609687));
#1164 = DIRECTION('',(0.,-1.,0.));
#1165 = PCURVE('',#517,#1166);
#1166 = DEFINITIONAL_REPRESENTATION('',(#1167),#1171);
#1167 = LINE('',#1168,#1169);
#1168 = CARTESIAN_POINT('',(-1.570796326795,1.168162110046));
#1169 = VECTOR('',#1170,1.);
#1170 = DIRECTION('',(1.,0.));
#1171 = ( GEOMETRIC_REPRESENTATION_CONTEXT(2) 
PARAMETRIC_REPRESENTATION_CONTEXT() REPRESENTATION_CONTEXT('2D SPACE',''
  ) );
#1172 = PCURVE('',#712,#1173);
#1173 = DEFINITIONAL_REPRESENTATION('',(#1174),#1178);
#1174 = LINE('',#1175,#1176);
#1175 = CARTESIAN_POINT('',(-1.570796326795,-1.168162110046));
#1176 = VECTOR('',#1177,1.);
#1177 = DIRECTION('',(1.,0.));
#1178 = ( GEOMETRIC_REPRESENTATION_CONTEXT(2) 
PARAMETRIC_REPRESENTATION_CONTEXT() REPRESENTATION_CONTEXT('2D SPACE',''
  ) );
#1179 = ORIENTED_EDGE('',*,*,#581,.T.);
#1180 = ORIENTED_EDGE('',*,*,#441,.T.);
#1181 = ADVANCED_FACE('',(#1182),#712,.F.);
#1182 = FACE_BOUND('',#1183,.F.);
#1183 = EDGE_LOOP('',(#1184,#1208,#1209,#1210,#1211,#1212,#1213));
#1184 = ORIENTED_EDGE('',*,*,#1185,.T.);
#1185 = EDGE_CURVE('',#1186,#1086,#1188,.T.);
#1186 = VERTEX_POINT('',#1187);
#1187 = CARTESIAN_POINT('',(-7.66044443119E-03,-1.875449608219E-33,
    -6.427876096865E-03));
#1188 = SEAM_CURVE('',#1189,(#1194,#1201),.PCURVE_S1.);
#1189 = CIRCLE('',#1190,0.12505);
#1190 = AXIS2_PLACEMENT_3D('',#1191,#1192,#1193);
#1191 = CARTESIAN_POINT('',(8.813341318084E-02,0.,7.395271449444E-02));
#1192 = DIRECTION('',(-1.574375577468E-16,-1.,1.876267750541E-16));
#1193 = DIRECTION('',(0.642787609687,-2.449293598295E-16,-0.766044443119
    ));
#1194 = PCURVE('',#712,#1195);
#1195 = DEFINITIONAL_REPRESENTATION('',(#1196),#1200);
#1196 = LINE('',#1197,#1198);
#1197 = CARTESIAN_POINT('',(6.28318530718,-6.28318530718));
#1198 = VECTOR('',#1199,1.);
#1199 = DIRECTION('',(0.,1.));
#1200 = ( GEOMETRIC_REPRESENTATION_CONTEXT(2) 
PARAMETRIC_REPRESENTATION_CONTEXT() REPRESENTATION_CONTEXT('2D SPACE',''
  ) );
#1201 = PCURVE('',#712,#1202);
#1202 = DEFINITIONAL_REPRESENTATION('',(#1203),#1207);
#1203 = LINE('',#1204,#1205);
#1204 = CARTESIAN_POINT('',(0.,-6.28318530718));
#1205 = VECTOR('',#1206,1.);
#1206 = DIRECTION('',(0.,1.));
#1207 = ( GEOMETRIC_REPRESENTATION_CONTEXT(2) 
PARAMETRIC_REPRESENTATION_CONTEXT() REPRESENTATION_CONTEXT('2D SPACE',''
  ) );
#1208 = ORIENTED_EDGE('',*,*,#1085,.F.);
#1209 = ORIENTED_EDGE('',*,*,#616,.T.);
#1210 = ORIENTED_EDGE('',*,*,#1158,.F.);
#1211 = ORIENTED_EDGE('',*,*,#902,.F.);
#1212 = ORIENTED_EDGE('',*,*,#1134,.F.);
#1213 = ORIENTED_EDGE('',*,*,#1185,.F.);
#1214 = ( GEOMETRIC_REPRESENTATION_CONTEXT(3) 
GLOBAL_UNCERTAINTY_ASSIGNED_CONTEXT((#1218)) 
GLOBAL_UNIT_ASSIGNED_CONTEXT((#1215,#1216,#1217)) REPRESENTATION_CONTEXT
('Context #1','3D Context with UNIT and UNCERTAINTY') );
#1215 = ( LENGTH_UNIT() NAMED_UNIT(*) SI_UNIT($,.METRE.) );
#1216 = ( NAMED_UNIT(*) PLANE_ANGLE_UNIT() SI_UNIT($,.RADIAN.) );
#1217 = ( NAMED_UNIT(*) SI_UNIT($,.STERADIAN.) SOLID_ANGLE_UNIT() );
#1218 = UNCERTAINTY_MEASURE_WITH_UNIT(LENGTH_MEASURE(1.E-07),#1215,
  'distance_accuracy_value','confusion accuracy');
#1219 = CONTEXT_DEPENDENT_SHAPE_REPRESENTATION(#1220,#1222);
#1220 = ( REPRESENTATION_RELATIONSHIP('','',#32,#10) 
REPRESENTATION_RELATIONSHIP_WITH_TRANSFORMATION(#1221) 
SHAPE_REPRESENTATION_RELATIONSHIP() );
#1221 = ITEM_DEFINED_TRANSFORMATION('','',#11,#15);
#1222 = PRODUCT_DEFINITION_SHAPE('Placement','Placement of an item',
  #1223);
#1223 = NEXT_ASSEMBLY_USAGE_OCCURRENCE('6','Fluido','',#5,#27,$);
#1224 = PRODUCT_RELATED_PRODUCT_CATEGORY('part',$,(#29));
#1225 = MECHANICAL_DESIGN_GEOMETRIC_PRESENTATION_REPRESENTATION('',(
    #1226),#1214);
#1226 = STYLED_ITEM('color',(#1227),#33);
#1227 = PRESENTATION_STYLE_ASSIGNMENT((#1228));
#1228 = SURFACE_STYLE_USAGE(.BOTH.,#1229);
#1229 = SURFACE_SIDE_STYLE('',(#1230));
#1230 = SURFACE_STYLE_FILL_AREA(#1231);
#1231 = FILL_AREA_STYLE('',(#1232));
#1232 = FILL_AREA_STYLE_COLOUR('',#1233);
#1233 = COLOUR_RGB('',0.274509682866,0.509803958822,0.705882339664);
ENDSEC;
END-ISO-10303-21;
